<?xml version="1.0" encoding="utf-8"?>
<!-- Copyright (c) 2023 Alexander Jung <alex@nder.sh>  -->
<svg version="1.1" xmlns="http://www.w3.org/2000/svg" xmlns:xlink="http://www.w3.org/1999/xlink" x="0px" y="0px"
	 viewBox="0 0 232.4 130.4" style="enable-background:new 0 0 232.4 130.4;" xml:space="preserve">
<style type="text/css">
	.st0{display:none;}
	.st1{display:inline;}
	.st2{fill:none;stroke:#000000;stroke-width:0.75;stroke-miterlimit:10;stroke-dasharray:4,4;}
	.st3{fill:#EF9E70;stroke:#D64B27;stroke-width:0.75;stroke-miterlimit:10;}
	.st4{fill:#EAEAEA;stroke:#D64B27;stroke-width:0.75;stroke-miterlimit:10;}
	.st5{fill:#99D5F1;stroke:#008BC7;stroke-width:0.75;stroke-miterlimit:10;}
	.st6{fill:#3EC6F0;stroke:#008BC7;stroke-width:0.75;stroke-miterlimit:10;}
	.st7{fill:none;}
	.st8{font-family:'Inter','helvetica neue', helvetica, ubuntu, roboto, noto, 'segoe ui', arial, sans-serif;}
	.st9{font-size:9px;}
	.st10{fill:#56C1A7;stroke:#337061;stroke-width:0.75;stroke-miterlimit:10;}
</style>
<g id="Lines">
	<g class="st0">
		<g class="st1">
			<line class="st2" x1="34" y1="204.1" x2="179.5" y2="-14.2"/>
			<g>
				<path d="M181.4-17c-0.4,1.7-0.7,3.9-0.4,5.5l-1.7-2.3l-2.8-0.7C178.1-14.9,180-16,181.4-17z"/>
			</g>
		</g>
	</g>
</g>
<g id="Blur_bg">
</g>
<g id="Platform_Code">
</g>
<g id="Text">
</g>
<g id="Blur_Text">
</g>
<g id="Kernel_Code">
</g>
<g id="HLL">
	<rect x="5.7" y="5.7" class="st3" width="221.1" height="98"/>
	<rect x="96.4" y="28.3" class="st4" width="113.4" height="75.4"/>
	<rect x="5.7" y="51" class="st5" width="187.3" height="52.7"/>
	<rect x="5.7" y="73.7" class="st6" width="56.9" height="30"/>
	<rect x="5.4" y="73.7" class="st7" width="56.9" height="30"/>
	<text transform="matrix(1 0 0 1 18.7678 91.9727)" class="st8 st9">Drivers</text>
	<rect x="62.4" y="73.7" class="st6" width="56.7" height="30"/>
	<rect x="62.4" y="73.7" class="st7" width="56.7" height="30"/>
	<text transform="matrix(1 0 0 1 73.3098 86.5733)"><tspan x="0" y="0" class="st8 st9">Memory</tspan><tspan x="-1.3" y="10.8" class="st8 st9">Manager</tspan></text>
	<rect x="119.1" y="73.7" class="st6" width="56.7" height="30"/>
	<rect x="119.1" y="73.7" class="st7" width="56.7" height="30"/>
	<text transform="matrix(1 0 0 1 125.9695 91.9727)" class="st8 st9">Scheduler</text>
	<rect x="5.7" y="51" class="st7" width="187.3" height="22.7"/>
	<text transform="matrix(1 0 0 1 61.0875 65.6344)" class="st8 st9">Operating System</text>
	<rect x="96.4" y="28.3" class="st7" width="113.4" height="22.7"/>
	<text transform="matrix(1 0 0 1 134.7517 42.9577)" class="st8 st9">Libraries</text>
	<rect x="5.7" y="5.7" class="st7" width="221.1" height="22.7"/>
	<text transform="matrix(1 0 0 1 90.1345 20.2811)" class="st8 st9">Applications</text>
	<rect x="5.7" y="103.7" class="st10" width="221.1" height="21"/>
	<rect x="5.7" y="103.7" class="st7" width="221.3" height="21"/>
	<text transform="matrix(1 0 0 1 73.359 117.4854)" class="st8 st9">Execution Hardware</text>
</g>
<g id="Diagram">
</g>
<g id="Models__x26__Services">
</g>
<g id="Layer_3">
</g>
</svg>
