<?xml version="1.0" encoding="utf-8"?>
<!-- Generator: Adobe Illustrator 26.0.3, SVG Export Plug-In . SVG Version: 6.00 Build 0)  -->
<svg version="1.1" xmlns="http://www.w3.org/2000/svg" xmlns:xlink="http://www.w3.org/1999/xlink" x="0px" y="0px"
	 viewBox="0 0 255.1 96.4" style="enable-background:new 0 0 255.1 96.4;" xml:space="preserve">
<style type="text/css">
	.st0{fill:#DAD9D9;stroke:#9C9B9B;stroke-width:0.75;stroke-miterlimit:10;}
	.st1{fill:#FFFFFF;}
	.st2{fill:#49628A;}
	.st3{fill:#A44937;}
	.st4{fill:#1F2F59;}
	.st5{fill:#EC6711;}
	.st6{fill:#54C3EF;stroke:#0089C7;stroke-width:0.75;stroke-miterlimit:10;}
	.st7{fill:#5EBCA5;stroke:#34705E;stroke-width:0.75;stroke-miterlimit:10;}
	.st8{fill:#F6E69C;stroke:#E8BA2F;stroke-width:0.75;stroke-miterlimit:10;}
	.st9{fill:#E94683;stroke:#A13062;stroke-width:0.75;stroke-miterlimit:10;}
	.st10{fill:none;stroke:#12100B;stroke-width:0.75;stroke-linecap:square;stroke-miterlimit:10;}
	.st11{fill:#F18938;stroke:#D44016;stroke-width:0.75;stroke-miterlimit:10;}
	.st12{fill:none;stroke:#12100B;stroke-width:0.75;stroke-miterlimit:10;}
	.st13{fill:none;stroke:#12100B;stroke-width:0.75;stroke-miterlimit:10;stroke-dasharray:2.8236,2.8236;}
	.st14{fill:#12100B;}
	.st15{fill:#F0F0F1;stroke:#A6A6A6;stroke-width:0.75;stroke-miterlimit:10;}
	.st16{fill:none;stroke:#13110C;stroke-width:0.3748;}
	.st17{fill:#F9F9FA;stroke:#A6A6A6;stroke-width:0.75;stroke-linejoin:round;stroke-miterlimit:10;}
	.st18{fill:#5E5051;}
	.st19{fill:#FFFFFF;stroke:#85817F;stroke-width:0.75;stroke-miterlimit:10;}
	.st20{fill:#15140F;stroke:#000000;stroke-width:0.75;stroke-miterlimit:10;}
	.st21{fill:none;stroke:#000000;stroke-width:0.75;stroke-miterlimit:10;}
	.st22{fill:#F0F0F1;stroke:#A6A6A6;stroke-width:0.75;stroke-linejoin:round;stroke-miterlimit:10;}
	.st23{fill:none;stroke:#12100B;stroke-width:0.75;stroke-miterlimit:10;stroke-dasharray:3.3685,3.3685;}
	.st24{fill:none;stroke:#12100B;stroke-width:0.75;stroke-miterlimit:10;stroke-dasharray:2.7795,2.7795;}
	.st25{fill:none;stroke:#12100B;stroke-width:0.75;stroke-miterlimit:10;stroke-dasharray:2.8578,2.8578;}
	.st26{fill:none;}
	.st27{font-family:'Inter','helvetica neue', helvetica, ubuntu, roboto, noto, 'segoe ui', arial, sans-serif;font-weight:600;}
	.st28{font-size:7px;}
	.st29{font-family:'Inter','helvetica neue', helvetica, ubuntu, roboto, noto, 'segoe ui', arial, sans-serif;}
	.st30{font-size:9px;}
	.st31{font-size:6px;}
	.st32{font-family:Monaco, Menlo, "DejaVu Sans Mono", "Bitstream Vera Sans Mono", "Courier New", "Lucida Console", "Lucida Sans Typewriter", "Liberation Mono", "Nimbus Mono L", Monaco, Courier, monospace;}
	.st33{font-size:5px;}
</style>
<g id="Layer_3">
	<g>
		<g>
			<rect x="221.1" y="11.3" class="st0" width="22.7" height="25.5"/>
			<g>
				<g>
					<path class="st1" d="M240.7,15.7c0-0.8-0.3-1.3-1.1-1.3c0,0-3.1,0-4.1,0c-0.8,0-1,0.5-1.1,1.2c0,0,0,6.3,0,8.4
						c0,0.3,0,0.6-0.1,0.9c-0.1,0.4-0.3,0.8-0.6,1.1c0,0,0,0,0,0c0,0,0,0,0,0c-0.3,0.2-0.7,0.3-1.2,0.3c-0.6,0-1-0.1-1.2-0.3
						c0,0,0,0,0,0c0,0,0,0,0,0c-0.3-0.3-0.5-0.6-0.6-1.1c-0.1-0.3-0.1-0.6-0.1-0.9l0,0v0c0-2.1,0-8,0-8.3c0-0.7-0.3-1.3-1.1-1.3
						c-1,0-4.1,0-4.1,0c-0.8,0-1.1,0.5-1.1,1.3c0,0,0,7.8,0,10.9c0,4,2.4,7.4,8.1,7.4c0,0,0.1,0,0.1,0c0,0,0.1,0,0.1,0
						c5.7,0,8.1-3.4,8.1-7.4C240.7,23.5,240.7,15.7,240.7,15.7z"/>
				</g>
				<path id="Rounded_Rectangle_1-2_1_" class="st2" d="M233.9,30.6h0.7c0.4,0,0.7,0.3,0.7,0.7V32c0,0.4-0.3,0.7-0.7,0.7h-0.7
					c-0.4,0-0.7-0.3-0.7-0.7v-0.7C233.1,30.9,233.5,30.6,233.9,30.6z"/>
				<path id="Rounded_Rectangle_1-3_1_" class="st3" d="M238.2,21.7h0.7c0.4,0,0.7,0.3,0.7,0.7v0.7c0,0.4-0.3,0.7-0.7,0.7h-0.7
					c-0.4,0-0.7-0.3-0.7-0.7v-0.7C237.4,22.1,237.8,21.7,238.2,21.7z"/>
				<path id="Rounded_Rectangle_1-4_1_" class="st4" d="M228.3,29.7h0.7c0.4,0,0.7,0.3,0.7,0.7v0.7c0,0.4-0.3,0.7-0.7,0.7h-0.7
					c-0.4,0-0.7-0.3-0.7-0.7v-0.7C227.6,30.1,227.9,29.7,228.3,29.7z"/>
				<path id="Rounded_Rectangle_1-5_1_" class="st3" d="M228.2,15.7h0.7c0.4,0,0.7,0.3,0.7,0.7v0.7c0,0.4-0.3,0.7-0.7,0.7h-0.7
					c-0.4,0-0.7-0.3-0.7-0.7v-0.7C227.5,16,227.8,15.7,228.2,15.7z"/>
				<path id="Rounded_Rectangle_1-6_1_" class="st2" d="M226.7,27.8h0.7c0.4,0,0.7,0.3,0.7,0.7v0.7c0,0.4-0.3,0.7-0.7,0.7h-0.7
					c-0.4,0-0.7-0.3-0.7-0.7v-0.7C226,28.2,226.3,27.8,226.7,27.8z"/>
				<path id="Rounded_Rectangle_1-7_1_" class="st2" d="M233,27.2h0.7c0.4,0,0.7,0.3,0.7,0.7v0.7c0,0.4-0.3,0.7-0.7,0.7H233
					c-0.4,0-0.7-0.3-0.7-0.7v-0.7C232.3,27.5,232.6,27.2,233,27.2z"/>
				<path id="Rounded_Rectangle_1-8_1_" class="st4" d="M228.1,23.4h0.7c0.4,0,0.7,0.3,0.7,0.7v0.7c0,0.4-0.3,0.7-0.7,0.7h-0.7
					c-0.4,0-0.7-0.3-0.7-0.7v-0.7C227.3,23.7,227.7,23.4,228.1,23.4z"/>
				<path id="Rounded_Rectangle_1-9_1_" class="st4" d="M236,19.8h0.7c0.4,0,0.7,0.3,0.7,0.7v0.7c0,0.4-0.3,0.7-0.7,0.7H236
					c-0.4,0-0.7-0.3-0.7-0.7v-0.7C235.3,20.2,235.6,19.8,236,19.8z"/>
				<path id="Rounded_Rectangle_1-10_1_" class="st4" d="M226.6,16.5h0.7c0.4,0,0.7,0.3,0.7,0.7v0.7c0,0.4-0.3,0.7-0.7,0.7h-0.7
					c-0.4,0-0.7-0.3-0.7-0.7v-0.7C225.9,16.8,226.2,16.5,226.6,16.5z"/>
				<path id="Rounded_Rectangle_1-11_1_" class="st4" d="M228.3,18.1h0.7c0.4,0,0.7,0.3,0.7,0.7v0.7c0,0.4-0.3,0.7-0.7,0.7h-0.7
					c-0.4,0-0.7-0.3-0.7-0.7v-0.7C227.6,18.4,227.9,18.1,228.3,18.1z"/>
				<path id="Rounded_Rectangle_1-12_1_" class="st3" d="M234.9,26.7h0.7c0.4,0,0.7,0.3,0.7,0.7v0.7c0,0.4-0.3,0.7-0.7,0.7h-0.7
					c-0.4,0-0.7-0.3-0.7-0.7v-0.7C234.2,27,234.5,26.7,234.9,26.7z"/>
				<path id="Rounded_Rectangle_1-13_1_" class="st3" d="M231.2,27.4h0.7c0.4,0,0.7,0.3,0.7,0.7v0.7c0,0.4-0.3,0.7-0.7,0.7h-0.7
					c-0.4,0-0.7-0.3-0.7-0.7v-0.7C230.5,27.7,230.8,27.4,231.2,27.4z"/>
				<path id="Rounded_Rectangle_1-14_1_" class="st4" d="M232,30.5h0.7c0.4,0,0.7,0.3,0.7,0.7V32c0,0.4-0.3,0.7-0.7,0.7H232
					c-0.4,0-0.7-0.3-0.7-0.7v-0.7C231.3,30.9,231.6,30.5,232,30.5z"/>
				<path id="Rounded_Rectangle_1-15_1_" class="st4" d="M230.1,30.3h0.7c0.4,0,0.7,0.3,0.7,0.7v0.7c0,0.4-0.3,0.7-0.7,0.7h-0.7
					c-0.4,0-0.7-0.3-0.7-0.7V31C229.4,30.6,229.7,30.3,230.1,30.3z"/>
				<path id="Rounded_Rectangle_1-16_1_" class="st4" d="M236.8,28.3h0.7c0.4,0,0.7,0.3,0.7,0.7v0.7c0,0.4-0.3,0.7-0.7,0.7h-0.7
					c-0.4,0-0.7-0.3-0.7-0.7V29C236.1,28.6,236.4,28.3,236.8,28.3z"/>
				<path id="Rounded_Rectangle_1-17_1_" class="st4" d="M227.7,28.7h0.7c0.4,0,0.7,0.3,0.7,0.7v0.7c0,0.4-0.3,0.7-0.7,0.7h-0.7
					c-0.4,0-0.7-0.3-0.7-0.7v-0.7C227,29,227.3,28.7,227.7,28.7z"/>
				<path id="Rounded_Rectangle_1-18_1_" class="st4" d="M228.1,25.8h0.7c0.4,0,0.7,0.3,0.7,0.7v0.7c0,0.4-0.3,0.7-0.7,0.7h-0.7
					c-0.4,0-0.7-0.3-0.7-0.7v-0.7C227.3,26.1,227.7,25.8,228.1,25.8z"/>
				<path id="Rounded_Rectangle_1-19_1_" class="st4" d="M233.9,28.5h0.7c0.4,0,0.7,0.3,0.7,0.7V30c0,0.4-0.3,0.7-0.7,0.7h-0.7
					c-0.4,0-0.7-0.3-0.7-0.7v-0.7C233.2,28.9,233.5,28.5,233.9,28.5z"/>
				<path id="Rounded_Rectangle_1-20_1_" class="st3" d="M232.2,29.2h0.7c0.4,0,0.7,0.3,0.7,0.7v0.7c0,0.4-0.3,0.7-0.7,0.7h-0.7
					c-0.4,0-0.7-0.3-0.7-0.7v-0.7C231.5,29.5,231.8,29.2,232.2,29.2z"/>
				<path id="Rounded_Rectangle_1-21_1_" class="st4" d="M229.6,28.2h0.7c0.4,0,0.7,0.3,0.7,0.7v0.7c0,0.4-0.3,0.7-0.7,0.7h-0.7
					c-0.4,0-0.7-0.3-0.7-0.7v-0.7C228.9,28.5,229.2,28.2,229.6,28.2z"/>
				<path id="Rounded_Rectangle_1-22_1_" class="st5" d="M237.8,20h0.7c0.4,0,0.7,0.3,0.7,0.7v0.7c0,0.4-0.3,0.7-0.7,0.7h-0.7
					c-0.4,0-0.7-0.3-0.7-0.7v-0.7C237,20.3,237.4,20,237.8,20z"/>
				<path id="Rounded_Rectangle_1-23_1_" class="st4" d="M226.3,26h0.7c0.4,0,0.7,0.3,0.7,0.7v0.7c0,0.4-0.3,0.7-0.7,0.7h-0.7
					c-0.4,0-0.7-0.3-0.7-0.7v-0.7C225.6,26.4,225.9,26,226.3,26z"/>
				<path id="Rounded_Rectangle_1-24_1_" class="st3" d="M237.6,26.5h0.7c0.4,0,0.7,0.3,0.7,0.7v0.7c0,0.4-0.3,0.7-0.7,0.7h-0.7
					c-0.4,0-0.7-0.3-0.7-0.7v-0.7C236.9,26.8,237.2,26.5,237.6,26.5z"/>
				<path id="Rounded_Rectangle_1-25_1_" class="st4" d="M226,20.5h0.7c0.4,0,0.7,0.3,0.7,0.7v0.7c0,0.4-0.3,0.7-0.7,0.7H226
					c-0.4,0-0.7-0.3-0.7-0.7v-0.7C225.3,20.8,225.7,20.5,226,20.5z"/>
				<path id="Rounded_Rectangle_1-26_1_" class="st2" d="M227.9,19.6h0.7c0.4,0,0.7,0.3,0.7,0.7V21c0,0.4-0.3,0.7-0.7,0.7h-0.7
					c-0.4,0-0.7-0.3-0.7-0.7v-0.7C227.2,19.9,227.5,19.6,227.9,19.6z"/>
				<path id="Rounded_Rectangle_1-27_1_" class="st3" d="M226.3,18.1h0.7c0.4,0,0.7,0.3,0.7,0.7v0.7c0,0.4-0.3,0.7-0.7,0.7h-0.7
					c-0.4,0-0.7-0.3-0.7-0.7v-0.7C225.6,18.4,225.9,18.1,226.3,18.1z"/>
				<path id="Rounded_Rectangle_1-28_1_" class="st2" d="M228.7,26.9h0.7c0.4,0,0.7,0.3,0.7,0.7v0.7c0,0.4-0.3,0.7-0.7,0.7h-0.7
					c-0.4,0-0.7-0.3-0.7-0.7v-0.7C228,27.3,228.3,26.9,228.7,26.9z"/>
				<path id="Rounded_Rectangle_1-29_1_" class="st5" d="M225.7,19.2h0.7c0.4,0,0.7,0.3,0.7,0.7v0.7c0,0.4-0.3,0.7-0.7,0.7h-0.7
					c-0.4,0-0.7-0.3-0.7-0.7v-0.7C225,19.5,225.3,19.2,225.7,19.2z"/>
				<path id="Rounded_Rectangle_1-30_1_" class="st3" d="M226.7,22.4h0.7c0.4,0,0.7,0.3,0.7,0.7v0.7c0,0.4-0.3,0.7-0.7,0.7h-0.7
					c-0.4,0-0.7-0.3-0.7-0.7v-0.7C226,22.7,226.3,22.4,226.7,22.4z"/>
				<path id="Rounded_Rectangle_1-31_1_" class="st5" d="M227,24.4h0.7c0.4,0,0.7,0.3,0.7,0.7v0.7c0,0.4-0.3,0.7-0.7,0.7H227
					c-0.4,0-0.7-0.3-0.7-0.7v-0.7C226.3,24.7,226.6,24.4,227,24.4z"/>
				<path id="Rounded_Rectangle_1-32_1_" class="st3" d="M226.9,27.3h0.7c0.4,0,0.7,0.3,0.7,0.7v0.7c0,0.4-0.3,0.7-0.7,0.7h-0.7
					c-0.4,0-0.7-0.3-0.7-0.7V28C226.2,27.6,226.5,27.3,226.9,27.3z"/>
				<path id="Rounded_Rectangle_1-33_1_" class="st2" d="M226.1,15.3h0.7c0.4,0,0.7,0.3,0.7,0.7v0.7c0,0.4-0.3,0.7-0.7,0.7h-0.7
					c-0.4,0-0.7-0.3-0.7-0.7V16C225.4,15.6,225.7,15.3,226.1,15.3z"/>
				<path id="Rounded_Rectangle_1-34_1_" class="st3" d="M236.1,21.6h0.7c0.4,0,0.7,0.3,0.7,0.7V23c0,0.4-0.3,0.7-0.7,0.7h-0.7
					c-0.4,0-0.7-0.3-0.7-0.7v-0.7C235.4,21.9,235.7,21.6,236.1,21.6z"/>
				<path id="Rounded_Rectangle_1-35_1_" class="st3" d="M238.3,17.1h0.7c0.4,0,0.7,0.3,0.7,0.7v0.7c0,0.4-0.3,0.7-0.7,0.7h-0.7
					c-0.4,0-0.7-0.3-0.7-0.7v-0.7C237.6,17.4,237.9,17.1,238.3,17.1z"/>
				<path id="Rounded_Rectangle_1-36_1_" class="st4" d="M236.3,26.6h0.7c0.4,0,0.7,0.3,0.7,0.7V28c0,0.4-0.3,0.7-0.7,0.7h-0.7
					c-0.4,0-0.7-0.3-0.7-0.7v-0.7C235.6,26.9,235.9,26.6,236.3,26.6z"/>
				<path id="Rounded_Rectangle_1-37_1_" class="st4" d="M237.4,25h0.7c0.4,0,0.7,0.3,0.7,0.7v0.7c0,0.4-0.3,0.7-0.7,0.7h-0.7
					c-0.4,0-0.7-0.3-0.7-0.7v-0.7C236.7,25.3,237,25,237.4,25z"/>
				<path id="Rounded_Rectangle_1-38_1_" class="st4" d="M238,15.9h0.7c0.4,0,0.7,0.3,0.7,0.7v0.7c0,0.4-0.3,0.7-0.7,0.7H238
					c-0.4,0-0.7-0.3-0.7-0.7v-0.7C237.3,16.3,237.6,15.9,238,15.9z"/>
				<path id="Rounded_Rectangle_1-39_1_" class="st2" d="M235.6,24.7h0.7c0.4,0,0.7,0.3,0.7,0.7v0.7c0,0.4-0.3,0.7-0.7,0.7h-0.7
					c-0.4,0-0.7-0.3-0.7-0.7v-0.7C234.9,25,235.2,24.7,235.6,24.7z"/>
				<path id="Rounded_Rectangle_1-40_1_" class="st4" d="M237.7,22.8h0.7c0.4,0,0.7,0.3,0.7,0.7v0.7c0,0.4-0.3,0.7-0.7,0.7h-0.7
					c-0.4,0-0.7-0.3-0.7-0.7v-0.7C237,23.1,237.3,22.8,237.7,22.8z"/>
				<path id="Rounded_Rectangle_1-41_1_" class="st2" d="M236.6,17.6h0.7c0.4,0,0.7,0.3,0.7,0.7V19c0,0.4-0.3,0.7-0.7,0.7h-0.7
					c-0.4,0-0.7-0.3-0.7-0.7v-0.7C235.9,17.9,236.2,17.6,236.6,17.6z"/>
				<path id="Rounded_Rectangle_1-42_1_" class="st4" d="M227.7,21.1h0.7c0.4,0,0.7,0.3,0.7,0.7v0.7c0,0.4-0.3,0.7-0.7,0.7h-0.7
					c-0.4,0-0.7-0.3-0.7-0.7v-0.7C227,21.4,227.3,21.1,227.7,21.1z"/>
				<path id="Rounded_Rectangle_1-43_1_" class="st4" d="M225.9,23.9h0.7c0.4,0,0.7,0.3,0.7,0.7v0.7c0,0.4-0.3,0.7-0.7,0.7h-0.7
					c-0.4,0-0.7-0.3-0.7-0.7v-0.7C225.2,24.2,225.5,23.9,225.9,23.9z"/>
				<path id="Rounded_Rectangle_1-44_1_" class="st5" d="M235.5,28.5h0.7c0.4,0,0.7,0.3,0.7,0.7V30c0,0.4-0.3,0.7-0.7,0.7h-0.7
					c-0.4,0-0.7-0.3-0.7-0.7v-0.7C234.8,28.9,235.1,28.5,235.5,28.5z"/>
				<path id="Rounded_Rectangle_1-45_1_" class="st4" d="M235.5,29.8h0.7c0.4,0,0.7,0.3,0.7,0.7v0.7c0,0.4-0.3,0.7-0.7,0.7h-0.7
					c-0.4,0-0.7-0.3-0.7-0.7v-0.7C234.7,30.1,235.1,29.8,235.5,29.8z"/>
				<path id="Rounded_Rectangle_1-46_1_" class="st5" d="M229.4,29.5h0.7c0.4,0,0.7,0.3,0.7,0.7V31c0,0.4-0.3,0.7-0.7,0.7h-0.7
					c-0.4,0-0.7-0.3-0.7-0.7v-0.7C228.7,29.9,229,29.5,229.4,29.5z"/>
				<path id="Rounded_Rectangle_1-47_1_" class="st4" d="M230.7,28.7h0.7c0.4,0,0.7,0.3,0.7,0.7v0.7c0,0.4-0.3,0.7-0.7,0.7h-0.7
					c-0.4,0-0.7-0.3-0.7-0.7v-0.7C230,29,230.3,28.7,230.7,28.7z"/>
			</g>
		</g>
		<g>
			<rect x="215.4" y="22.7" class="st6" width="22.7" height="25.5"/>
			<g>
				<g>
					<path class="st1" d="M235,27c0-0.8-0.3-1.3-1.1-1.3c0,0-3.1,0-4.1,0c-0.8,0-1,0.5-1.1,1.2c0,0,0,6.3,0,8.4c0,0.3,0,0.6-0.1,0.9
						c-0.1,0.4-0.3,0.8-0.6,1.1c0,0,0,0,0,0c0,0,0,0,0,0c-0.3,0.2-0.7,0.3-1.2,0.3c-0.6,0-1-0.1-1.2-0.3c0,0,0,0,0,0c0,0,0,0,0,0
						c-0.3-0.3-0.5-0.6-0.6-1.1c-0.1-0.3-0.1-0.6-0.1-0.9l0,0v0c0-2.1,0-8,0-8.3c0-0.7-0.3-1.3-1.1-1.3c-1,0-4.1,0-4.1,0
						c-0.8,0-1.1,0.5-1.1,1.3c0,0,0,7.8,0,10.9c0,4,2.4,7.4,8.1,7.4c0,0,0.1,0,0.1,0c0,0,0.1,0,0.1,0c5.7,0,8.1-3.4,8.1-7.4
						C235,34.8,235,27,235,27z"/>
				</g>
				<path id="Rounded_Rectangle_1-2_2_" class="st2" d="M228.2,41.9h0.7c0.4,0,0.7,0.3,0.7,0.7v0.7c0,0.4-0.3,0.7-0.7,0.7h-0.7
					c-0.4,0-0.7-0.3-0.7-0.7v-0.7C227.5,42.2,227.8,41.9,228.2,41.9z"/>
				<path id="Rounded_Rectangle_1-3_2_" class="st3" d="M232.5,33.1h0.7c0.4,0,0.7,0.3,0.7,0.7v0.7c0,0.4-0.3,0.7-0.7,0.7h-0.7
					c-0.4,0-0.7-0.3-0.7-0.7v-0.7C231.8,33.4,232.1,33.1,232.5,33.1z"/>
				<path id="Rounded_Rectangle_1-4_2_" class="st4" d="M222.6,41.1h0.7c0.4,0,0.7,0.3,0.7,0.7v0.7c0,0.4-0.3,0.7-0.7,0.7h-0.7
					c-0.4,0-0.7-0.3-0.7-0.7v-0.7C221.9,41.4,222.3,41.1,222.6,41.1z"/>
				<path id="Rounded_Rectangle_1-5_2_" class="st3" d="M222.5,27h0.7c0.4,0,0.7,0.3,0.7,0.7v0.7c0,0.4-0.3,0.7-0.7,0.7h-0.7
					c-0.4,0-0.7-0.3-0.7-0.7v-0.7C221.8,27.3,222.1,27,222.5,27z"/>
				<path id="Rounded_Rectangle_1-6_2_" class="st2" d="M221,39.2h0.7c0.4,0,0.7,0.3,0.7,0.7v0.7c0,0.4-0.3,0.7-0.7,0.7H221
					c-0.4,0-0.7-0.3-0.7-0.7v-0.7C220.3,39.5,220.6,39.2,221,39.2z"/>
				<path id="Rounded_Rectangle_1-7_2_" class="st2" d="M227.3,38.5h0.7c0.4,0,0.7,0.3,0.7,0.7V40c0,0.4-0.3,0.7-0.7,0.7h-0.7
					c-0.4,0-0.7-0.3-0.7-0.7v-0.7C226.6,38.9,226.9,38.5,227.3,38.5z"/>
				<path id="Rounded_Rectangle_1-8_2_" class="st4" d="M222.4,34.7h0.7c0.4,0,0.7,0.3,0.7,0.7v0.7c0,0.4-0.3,0.7-0.7,0.7h-0.7
					c-0.4,0-0.7-0.3-0.7-0.7v-0.7C221.7,35.1,222,34.7,222.4,34.7z"/>
				<path id="Rounded_Rectangle_1-9_2_" class="st4" d="M230.4,31.2h0.7c0.4,0,0.7,0.3,0.7,0.7v0.7c0,0.4-0.3,0.7-0.7,0.7h-0.7
					c-0.4,0-0.7-0.3-0.7-0.7v-0.7C229.6,31.5,230,31.2,230.4,31.2z"/>
				<path id="Rounded_Rectangle_1-10_2_" class="st4" d="M221,27.8h0.7c0.4,0,0.7,0.3,0.7,0.7v0.7c0,0.4-0.3,0.7-0.7,0.7H221
					c-0.4,0-0.7-0.3-0.7-0.7v-0.7C220.2,28.2,220.6,27.8,221,27.8z"/>
				<path id="Rounded_Rectangle_1-11_2_" class="st4" d="M222.6,29.4h0.7c0.4,0,0.7,0.3,0.7,0.7v0.7c0,0.4-0.3,0.7-0.7,0.7h-0.7
					c-0.4,0-0.7-0.3-0.7-0.7v-0.7C221.9,29.8,222.2,29.4,222.6,29.4z"/>
				<path id="Rounded_Rectangle_1-12_2_" class="st3" d="M229.3,38h0.7c0.4,0,0.7,0.3,0.7,0.7v0.7c0,0.4-0.3,0.7-0.7,0.7h-0.7
					c-0.4,0-0.7-0.3-0.7-0.7v-0.7C228.6,38.4,228.9,38,229.3,38z"/>
				<path id="Rounded_Rectangle_1-13_2_" class="st3" d="M225.5,38.7h0.7c0.4,0,0.7,0.3,0.7,0.7v0.7c0,0.4-0.3,0.7-0.7,0.7h-0.7
					c-0.4,0-0.7-0.3-0.7-0.7v-0.7C224.8,39,225.1,38.7,225.5,38.7z"/>
				<path id="Rounded_Rectangle_1-14_2_" class="st4" d="M226.4,41.9h0.7c0.4,0,0.7,0.3,0.7,0.7v0.7c0,0.4-0.3,0.7-0.7,0.7h-0.7
					c-0.4,0-0.7-0.3-0.7-0.7v-0.7C225.7,42.2,226,41.9,226.4,41.9z"/>
				<path id="Rounded_Rectangle_1-15_2_" class="st4" d="M224.4,41.6h0.7c0.4,0,0.7,0.3,0.7,0.7v0.7c0,0.4-0.3,0.7-0.7,0.7h-0.7
					c-0.4,0-0.7-0.3-0.7-0.7v-0.7C223.7,42,224,41.6,224.4,41.6z"/>
				<path id="Rounded_Rectangle_1-16_2_" class="st4" d="M231.2,39.6h0.7c0.4,0,0.7,0.3,0.7,0.7V41c0,0.4-0.3,0.7-0.7,0.7h-0.7
					c-0.4,0-0.7-0.3-0.7-0.7v-0.7C230.4,39.9,230.8,39.6,231.2,39.6z"/>
				<path id="Rounded_Rectangle_1-17_2_" class="st4" d="M222.1,40h0.7c0.4,0,0.7,0.3,0.7,0.7v0.7c0,0.4-0.3,0.7-0.7,0.7h-0.7
					c-0.4,0-0.7-0.3-0.7-0.7v-0.7C221.3,40.3,221.7,40,222.1,40z"/>
				<path id="Rounded_Rectangle_1-18_2_" class="st4" d="M222.4,37.1h0.7c0.4,0,0.7,0.3,0.7,0.7v0.7c0,0.4-0.3,0.7-0.7,0.7h-0.7
					c-0.4,0-0.7-0.3-0.7-0.7v-0.7C221.7,37.5,222,37.1,222.4,37.1z"/>
				<path id="Rounded_Rectangle_1-19_2_" class="st4" d="M228.3,39.9h0.7c0.4,0,0.7,0.3,0.7,0.7v0.7c0,0.4-0.3,0.7-0.7,0.7h-0.7
					c-0.4,0-0.7-0.3-0.7-0.7v-0.7C227.5,40.2,227.9,39.9,228.3,39.9z"/>
				<path id="Rounded_Rectangle_1-20_2_" class="st3" d="M226.5,40.5h0.7c0.4,0,0.7,0.3,0.7,0.7V42c0,0.4-0.3,0.7-0.7,0.7h-0.7
					c-0.4,0-0.7-0.3-0.7-0.7v-0.7C225.8,40.9,226.1,40.5,226.5,40.5z"/>
				<path id="Rounded_Rectangle_1-21_2_" class="st4" d="M223.9,39.5h0.7c0.4,0,0.7,0.3,0.7,0.7V41c0,0.4-0.3,0.7-0.7,0.7h-0.7
					c-0.4,0-0.7-0.3-0.7-0.7v-0.7C223.2,39.9,223.5,39.5,223.9,39.5z"/>
				<path id="Rounded_Rectangle_1-22_2_" class="st5" d="M232.1,31.3h0.7c0.4,0,0.7,0.3,0.7,0.7v0.7c0,0.4-0.3,0.7-0.7,0.7h-0.7
					c-0.4,0-0.7-0.3-0.7-0.7v-0.7C231.4,31.7,231.7,31.3,232.1,31.3z"/>
				<path id="Rounded_Rectangle_1-23_2_" class="st4" d="M220.6,37.4h0.7c0.4,0,0.7,0.3,0.7,0.7v0.7c0,0.4-0.3,0.7-0.7,0.7h-0.7
					c-0.4,0-0.7-0.3-0.7-0.7v-0.7C219.9,37.7,220.2,37.4,220.6,37.4z"/>
				<path id="Rounded_Rectangle_1-24_2_" class="st3" d="M232,37.8h0.7c0.4,0,0.7,0.3,0.7,0.7v0.7c0,0.4-0.3,0.7-0.7,0.7H232
					c-0.4,0-0.7-0.3-0.7-0.7v-0.7C231.2,38.2,231.6,37.8,232,37.8z"/>
				<path id="Rounded_Rectangle_1-25_2_" class="st4" d="M220.4,31.9h0.7c0.4,0,0.7,0.3,0.7,0.7v0.7c0,0.4-0.3,0.7-0.7,0.7h-0.7
					c-0.4,0-0.7-0.3-0.7-0.7v-0.7C219.7,32.2,220,31.9,220.4,31.9z"/>
				<path id="Rounded_Rectangle_1-26_2_" class="st2" d="M222.2,30.9h0.7c0.4,0,0.7,0.3,0.7,0.7v0.7c0,0.4-0.3,0.7-0.7,0.7h-0.7
					c-0.4,0-0.7-0.3-0.7-0.7v-0.7C221.5,31.2,221.8,30.9,222.2,30.9z"/>
				<path id="Rounded_Rectangle_1-27_2_" class="st3" d="M220.6,29.4h0.7c0.4,0,0.7,0.3,0.7,0.7v0.7c0,0.4-0.3,0.7-0.7,0.7h-0.7
					c-0.4,0-0.7-0.3-0.7-0.7v-0.7C219.9,29.8,220.2,29.4,220.6,29.4z"/>
				<path id="Rounded_Rectangle_1-28_2_" class="st2" d="M223,38.3h0.7c0.4,0,0.7,0.3,0.7,0.7v0.7c0,0.4-0.3,0.7-0.7,0.7H223
					c-0.4,0-0.7-0.3-0.7-0.7V39C222.3,38.6,222.6,38.3,223,38.3z"/>
				<path id="Rounded_Rectangle_1-29_2_" class="st5" d="M220,30.5h0.7c0.4,0,0.7,0.3,0.7,0.7v0.7c0,0.4-0.3,0.7-0.7,0.7H220
					c-0.4,0-0.7-0.3-0.7-0.7v-0.7C219.3,30.8,219.6,30.5,220,30.5z"/>
				<path id="Rounded_Rectangle_1-30_2_" class="st3" d="M221.1,33.7h0.7c0.4,0,0.7,0.3,0.7,0.7v0.7c0,0.4-0.3,0.7-0.7,0.7h-0.7
					c-0.4,0-0.7-0.3-0.7-0.7v-0.7C220.3,34.1,220.7,33.7,221.1,33.7z"/>
				<path id="Rounded_Rectangle_1-31_2_" class="st5" d="M221.3,35.7h0.7c0.4,0,0.7,0.3,0.7,0.7v0.7c0,0.4-0.3,0.7-0.7,0.7h-0.7
					c-0.4,0-0.7-0.3-0.7-0.7v-0.7C220.6,36.1,220.9,35.7,221.3,35.7z"/>
				<path id="Rounded_Rectangle_1-32_2_" class="st3" d="M221.2,38.7h0.7c0.4,0,0.7,0.3,0.7,0.7v0.7c0,0.4-0.3,0.7-0.7,0.7h-0.7
					c-0.4,0-0.7-0.3-0.7-0.7v-0.7C220.5,39,220.8,38.7,221.2,38.7z"/>
				<path id="Rounded_Rectangle_1-33_2_" class="st2" d="M220.4,26.6h0.7c0.4,0,0.7,0.3,0.7,0.7v0.7c0,0.4-0.3,0.7-0.7,0.7h-0.7
					c-0.4,0-0.7-0.3-0.7-0.7v-0.7C219.7,27,220,26.6,220.4,26.6z"/>
				<path id="Rounded_Rectangle_1-34_2_" class="st3" d="M230.5,32.9h0.7c0.4,0,0.7,0.3,0.7,0.7v0.7c0,0.4-0.3,0.7-0.7,0.7h-0.7
					c-0.4,0-0.7-0.3-0.7-0.7v-0.7C229.7,33.3,230.1,32.9,230.5,32.9z"/>
				<path id="Rounded_Rectangle_1-35_2_" class="st3" d="M232.6,28.5h0.7c0.4,0,0.7,0.3,0.7,0.7v0.7c0,0.4-0.3,0.7-0.7,0.7h-0.7
					c-0.4,0-0.7-0.3-0.7-0.7v-0.7C231.9,28.8,232.2,28.5,232.6,28.5z"/>
				<path id="Rounded_Rectangle_1-36_2_" class="st4" d="M230.6,37.9h0.7c0.4,0,0.7,0.3,0.7,0.7v0.7c0,0.4-0.3,0.7-0.7,0.7h-0.7
					c-0.4,0-0.7-0.3-0.7-0.7v-0.7C229.9,38.2,230.2,37.9,230.6,37.9z"/>
				<path id="Rounded_Rectangle_1-37_2_" class="st4" d="M231.8,36.3h0.7c0.4,0,0.7,0.3,0.7,0.7v0.7c0,0.4-0.3,0.7-0.7,0.7h-0.7
					c-0.4,0-0.7-0.3-0.7-0.7V37C231,36.6,231.4,36.3,231.8,36.3z"/>
				<path id="Rounded_Rectangle_1-38_2_" class="st4" d="M232.4,27.3h0.7c0.4,0,0.7,0.3,0.7,0.7v0.7c0,0.4-0.3,0.7-0.7,0.7h-0.7
					c-0.4,0-0.7-0.3-0.7-0.7V28C231.6,27.6,231.9,27.3,232.4,27.3z"/>
				<path id="Rounded_Rectangle_1-39_2_" class="st2" d="M229.9,36h0.7c0.4,0,0.7,0.3,0.7,0.7v0.7c0,0.4-0.3,0.7-0.7,0.7h-0.7
					c-0.4,0-0.7-0.3-0.7-0.7v-0.7C229.2,36.3,229.5,36,229.9,36z"/>
				<path id="Rounded_Rectangle_1-40_2_" class="st4" d="M232.1,34.1h0.7c0.4,0,0.7,0.3,0.7,0.7v0.7c0,0.4-0.3,0.7-0.7,0.7h-0.7
					c-0.4,0-0.7-0.3-0.7-0.7v-0.7C231.3,34.5,231.7,34.1,232.1,34.1z"/>
				<path id="Rounded_Rectangle_1-41_2_" class="st2" d="M231,28.9h0.7c0.4,0,0.7,0.3,0.7,0.7v0.7c0,0.4-0.3,0.7-0.7,0.7H231
					c-0.4,0-0.7-0.3-0.7-0.7v-0.7C230.2,29.2,230.6,28.9,231,28.9z"/>
				<path id="Rounded_Rectangle_1-42_2_" class="st4" d="M222,32.4h0.7c0.4,0,0.7,0.3,0.7,0.7v0.7c0,0.4-0.3,0.7-0.7,0.7H222
					c-0.4,0-0.7-0.3-0.7-0.7v-0.7C221.3,32.8,221.6,32.4,222,32.4z"/>
				<path id="Rounded_Rectangle_1-43_2_" class="st4" d="M220.2,35.2h0.7c0.4,0,0.7,0.3,0.7,0.7v0.7c0,0.4-0.3,0.7-0.7,0.7h-0.7
					c-0.4,0-0.7-0.3-0.7-0.7V36C219.5,35.5,219.8,35.2,220.2,35.2z"/>
				<path id="Rounded_Rectangle_1-44_2_" class="st5" d="M229.8,39.9h0.7c0.4,0,0.7,0.3,0.7,0.7v0.7c0,0.4-0.3,0.7-0.7,0.7h-0.7
					c-0.4,0-0.7-0.3-0.7-0.7v-0.7C229.1,40.2,229.5,39.9,229.8,39.9z"/>
				<path id="Rounded_Rectangle_1-45_2_" class="st4" d="M229.8,41.1h0.7c0.4,0,0.7,0.3,0.7,0.7v0.7c0,0.4-0.3,0.7-0.7,0.7h-0.7
					c-0.4,0-0.7-0.3-0.7-0.7v-0.7C229.1,41.5,229.4,41.1,229.8,41.1z"/>
				<path id="Rounded_Rectangle_1-46_2_" class="st5" d="M223.7,40.9h0.7c0.4,0,0.7,0.3,0.7,0.7v0.7c0,0.4-0.3,0.7-0.7,0.7h-0.7
					c-0.4,0-0.7-0.3-0.7-0.7v-0.7C223,41.2,223.3,40.9,223.7,40.9z"/>
				<path id="Rounded_Rectangle_1-47_2_" class="st4" d="M225.1,40.1h0.7c0.4,0,0.7,0.3,0.7,0.7v0.7c0,0.4-0.3,0.7-0.7,0.7h-0.7
					c-0.4,0-0.7-0.3-0.7-0.7v-0.7C224.3,40.4,224.6,40.1,225.1,40.1z"/>
			</g>
		</g>
		<g>
			<rect x="209.8" y="34" class="st7" width="22.7" height="25.5"/>
			<g>
				<g>
					<path class="st1" d="M229.3,38.4c0-0.8-0.3-1.3-1.1-1.3c0,0-3.1,0-4.1,0c-0.8,0-1,0.5-1.1,1.2c0,0,0,6.3,0,8.4
						c0,0.3,0,0.6-0.1,0.9c-0.1,0.4-0.3,0.8-0.6,1.1c0,0,0,0,0,0c0,0,0,0,0,0c-0.3,0.2-0.7,0.3-1.2,0.3c-0.6,0-1-0.1-1.2-0.3
						c0,0,0,0,0,0c0,0,0,0,0,0c-0.3-0.3-0.5-0.6-0.6-1.1c-0.1-0.3-0.1-0.6-0.1-0.9l0,0v0c0-2.1,0-8,0-8.3c0-0.7-0.3-1.3-1.1-1.3
						c-1,0-4.1,0-4.1,0c-0.8,0-1.1,0.5-1.1,1.3c0,0,0,7.8,0,10.9c0,4,2.4,7.4,8.1,7.4c0,0,0.1,0,0.1,0c0,0,0.1,0,0.1,0
						c5.7,0,8.1-3.4,8.1-7.4C229.3,46.2,229.3,38.4,229.3,38.4z"/>
				</g>
				<path id="Rounded_Rectangle_1-2_4_" class="st2" d="M222.5,53.2h0.7c0.4,0,0.7,0.3,0.7,0.7v0.7c0,0.4-0.3,0.7-0.7,0.7h-0.7
					c-0.4,0-0.7-0.3-0.7-0.7V54C221.8,53.6,222.1,53.2,222.5,53.2z"/>
				<path id="Rounded_Rectangle_1-3_4_" class="st3" d="M226.8,44.4h0.7c0.4,0,0.7,0.3,0.7,0.7v0.7c0,0.4-0.3,0.7-0.7,0.7h-0.7
					c-0.4,0-0.7-0.3-0.7-0.7v-0.7C226.1,44.7,226.4,44.4,226.8,44.4z"/>
				<path id="Rounded_Rectangle_1-4_4_" class="st4" d="M217,52.4h0.7c0.4,0,0.7,0.3,0.7,0.7v0.7c0,0.4-0.3,0.7-0.7,0.7H217
					c-0.4,0-0.7-0.3-0.7-0.7v-0.7C216.3,52.7,216.6,52.4,217,52.4z"/>
				<path id="Rounded_Rectangle_1-5_4_" class="st3" d="M216.9,38.3h0.7c0.4,0,0.7,0.3,0.7,0.7v0.7c0,0.4-0.3,0.7-0.7,0.7h-0.7
					c-0.4,0-0.7-0.3-0.7-0.7v-0.7C216.1,38.7,216.5,38.3,216.9,38.3z"/>
				<path id="Rounded_Rectangle_1-6_4_" class="st2" d="M215.3,50.5h0.7c0.4,0,0.7,0.3,0.7,0.7v0.7c0,0.4-0.3,0.7-0.7,0.7h-0.7
					c-0.4,0-0.7-0.3-0.7-0.7v-0.7C214.6,50.8,214.9,50.5,215.3,50.5z"/>
				<path id="Rounded_Rectangle_1-7_4_" class="st2" d="M221.7,49.9h0.7c0.4,0,0.7,0.3,0.7,0.7v0.7c0,0.4-0.3,0.7-0.7,0.7h-0.7
					c-0.4,0-0.7-0.3-0.7-0.7v-0.7C221,50.2,221.3,49.9,221.7,49.9z"/>
				<path id="Rounded_Rectangle_1-8_4_" class="st4" d="M216.7,46.1h0.7c0.4,0,0.7,0.3,0.7,0.7v0.7c0,0.4-0.3,0.7-0.7,0.7h-0.7
					c-0.4,0-0.7-0.3-0.7-0.7v-0.7C216,46.4,216.3,46.1,216.7,46.1z"/>
				<path id="Rounded_Rectangle_1-9_4_" class="st4" d="M224.7,42.5h0.7c0.4,0,0.7,0.3,0.7,0.7V44c0,0.4-0.3,0.7-0.7,0.7h-0.7
					c-0.4,0-0.7-0.3-0.7-0.7v-0.7C224,42.9,224.3,42.5,224.7,42.5z"/>
				<path id="Rounded_Rectangle_1-10_4_" class="st4" d="M215.3,39.2h0.7c0.4,0,0.7,0.3,0.7,0.7v0.7c0,0.4-0.3,0.7-0.7,0.7h-0.7
					c-0.4,0-0.7-0.3-0.7-0.7v-0.7C214.6,39.5,214.9,39.2,215.3,39.2z"/>
				<path id="Rounded_Rectangle_1-11_4_" class="st4" d="M217,40.8h0.7c0.4,0,0.7,0.3,0.7,0.7v0.7c0,0.4-0.3,0.7-0.7,0.7H217
					c-0.4,0-0.7-0.3-0.7-0.7v-0.7C216.2,41.1,216.6,40.8,217,40.8z"/>
				<path id="Rounded_Rectangle_1-12_4_" class="st3" d="M223.6,49.4h0.7c0.4,0,0.7,0.3,0.7,0.7v0.7c0,0.4-0.3,0.7-0.7,0.7h-0.7
					c-0.4,0-0.7-0.3-0.7-0.7v-0.7C222.9,49.7,223.2,49.4,223.6,49.4z"/>
				<path id="Rounded_Rectangle_1-13_4_" class="st3" d="M219.9,50h0.7c0.4,0,0.7,0.3,0.7,0.7v0.7c0,0.4-0.3,0.7-0.7,0.7h-0.7
					c-0.4,0-0.7-0.3-0.7-0.7v-0.7C219.1,50.4,219.5,50,219.9,50z"/>
				<path id="Rounded_Rectangle_1-14_4_" class="st4" d="M220.7,53.2h0.7c0.4,0,0.7,0.3,0.7,0.7v0.7c0,0.4-0.3,0.7-0.7,0.7h-0.7
					c-0.4,0-0.7-0.3-0.7-0.7V54C220,53.6,220.3,53.2,220.7,53.2z"/>
				<path id="Rounded_Rectangle_1-15_4_" class="st4" d="M218.8,53h0.7c0.4,0,0.7,0.3,0.7,0.7v0.7c0,0.4-0.3,0.7-0.7,0.7h-0.7
					c-0.4,0-0.7-0.3-0.7-0.7v-0.7C218,53.3,218.4,53,218.8,53z"/>
				<path id="Rounded_Rectangle_1-16_4_" class="st4" d="M225.5,50.9h0.7c0.4,0,0.7,0.3,0.7,0.7v0.7c0,0.4-0.3,0.7-0.7,0.7h-0.7
					c-0.4,0-0.7-0.3-0.7-0.7v-0.7C224.8,51.3,225.1,50.9,225.5,50.9z"/>
				<path id="Rounded_Rectangle_1-17_4_" class="st4" d="M216.4,51.3h0.7c0.4,0,0.7,0.3,0.7,0.7v0.7c0,0.4-0.3,0.7-0.7,0.7h-0.7
					c-0.4,0-0.7-0.3-0.7-0.7v-0.7C215.7,51.7,216,51.3,216.4,51.3z"/>
				<path id="Rounded_Rectangle_1-18_4_" class="st4" d="M216.7,48.5h0.7c0.4,0,0.7,0.3,0.7,0.7v0.7c0,0.4-0.3,0.7-0.7,0.7h-0.7
					c-0.4,0-0.7-0.3-0.7-0.7v-0.7C216,48.8,216.3,48.5,216.7,48.5z"/>
				<path id="Rounded_Rectangle_1-19_4_" class="st4" d="M222.6,51.2h0.7c0.4,0,0.7,0.3,0.7,0.7v0.7c0,0.4-0.3,0.7-0.7,0.7h-0.7
					c-0.4,0-0.7-0.3-0.7-0.7v-0.7C221.9,51.5,222.2,51.2,222.6,51.2z"/>
				<path id="Rounded_Rectangle_1-20_4_" class="st3" d="M220.9,51.9h0.7c0.4,0,0.7,0.3,0.7,0.7v0.7c0,0.4-0.3,0.7-0.7,0.7h-0.7
					c-0.4,0-0.7-0.3-0.7-0.7v-0.7C220.1,52.2,220.5,51.9,220.9,51.9z"/>
				<path id="Rounded_Rectangle_1-21_4_" class="st4" d="M218.2,50.9h0.7c0.4,0,0.7,0.3,0.7,0.7v0.7c0,0.4-0.3,0.7-0.7,0.7h-0.7
					c-0.4,0-0.7-0.3-0.7-0.7v-0.7C217.5,51.2,217.8,50.9,218.2,50.9z"/>
				<path id="Rounded_Rectangle_1-22_4_" class="st5" d="M226.4,42.7h0.7c0.4,0,0.7,0.3,0.7,0.7v0.7c0,0.4-0.3,0.7-0.7,0.7h-0.7
					c-0.4,0-0.7-0.3-0.7-0.7v-0.7C225.7,43,226,42.7,226.4,42.7z"/>
				<path id="Rounded_Rectangle_1-23_4_" class="st4" d="M215,48.7h0.7c0.4,0,0.7,0.3,0.7,0.7v0.7c0,0.4-0.3,0.7-0.7,0.7H215
					c-0.4,0-0.7-0.3-0.7-0.7v-0.7C214.2,49,214.6,48.7,215,48.7z"/>
				<path id="Rounded_Rectangle_1-24_4_" class="st3" d="M226.3,49.2h0.7c0.4,0,0.7,0.3,0.7,0.7v0.7c0,0.4-0.3,0.7-0.7,0.7h-0.7
					c-0.4,0-0.7-0.3-0.7-0.7v-0.7C225.6,49.5,225.9,49.2,226.3,49.2z"/>
				<path id="Rounded_Rectangle_1-25_4_" class="st4" d="M214.7,43.2h0.7c0.4,0,0.7,0.3,0.7,0.7v0.7c0,0.4-0.3,0.7-0.7,0.7h-0.7
					c-0.4,0-0.7-0.3-0.7-0.7v-0.7C214,43.5,214.3,43.2,214.7,43.2z"/>
				<path id="Rounded_Rectangle_1-26_4_" class="st2" d="M216.5,42.2h0.7c0.4,0,0.7,0.3,0.7,0.7v0.7c0,0.4-0.3,0.7-0.7,0.7h-0.7
					c-0.4,0-0.7-0.3-0.7-0.7V43C215.8,42.6,216.1,42.2,216.5,42.2z"/>
				<path id="Rounded_Rectangle_1-27_4_" class="st3" d="M215,40.8h0.7c0.4,0,0.7,0.3,0.7,0.7v0.7c0,0.4-0.3,0.7-0.7,0.7H215
					c-0.4,0-0.7-0.3-0.7-0.7v-0.7C214.2,41.1,214.6,40.8,215,40.8z"/>
				<path id="Rounded_Rectangle_1-28_4_" class="st2" d="M217.3,49.6h0.7c0.4,0,0.7,0.3,0.7,0.7v0.7c0,0.4-0.3,0.7-0.7,0.7h-0.7
					c-0.4,0-0.7-0.3-0.7-0.7v-0.7C216.6,49.9,216.9,49.6,217.3,49.6z"/>
				<path id="Rounded_Rectangle_1-29_4_" class="st5" d="M214.4,41.9h0.7c0.4,0,0.7,0.3,0.7,0.7v0.7c0,0.4-0.3,0.7-0.7,0.7h-0.7
					c-0.4,0-0.7-0.3-0.7-0.7v-0.7C213.6,42.2,214,41.9,214.4,41.9z"/>
				<path id="Rounded_Rectangle_1-30_4_" class="st3" d="M215.4,45.1h0.7c0.4,0,0.7,0.3,0.7,0.7v0.7c0,0.4-0.3,0.7-0.7,0.7h-0.7
					c-0.4,0-0.7-0.3-0.7-0.7v-0.7C214.7,45.4,215,45.1,215.4,45.1z"/>
				<path id="Rounded_Rectangle_1-31_4_" class="st5" d="M215.6,47.1h0.7c0.4,0,0.7,0.3,0.7,0.7v0.7c0,0.4-0.3,0.7-0.7,0.7h-0.7
					c-0.4,0-0.7-0.3-0.7-0.7v-0.7C214.9,47.4,215.2,47.1,215.6,47.1z"/>
				<path id="Rounded_Rectangle_1-32_4_" class="st3" d="M215.6,50h0.7c0.4,0,0.7,0.3,0.7,0.7v0.7c0,0.4-0.3,0.7-0.7,0.7h-0.7
					c-0.4,0-0.7-0.3-0.7-0.7v-0.7C214.8,50.3,215.2,50,215.6,50z"/>
				<path id="Rounded_Rectangle_1-33_4_" class="st2" d="M214.8,38h0.7c0.4,0,0.7,0.3,0.7,0.7v0.7c0,0.4-0.3,0.7-0.7,0.7h-0.7
					c-0.4,0-0.7-0.3-0.7-0.7v-0.7C214.1,38.3,214.4,38,214.8,38z"/>
				<path id="Rounded_Rectangle_1-34_4_" class="st3" d="M224.8,44.3h0.7c0.4,0,0.7,0.3,0.7,0.7v0.7c0,0.4-0.3,0.7-0.7,0.7h-0.7
					c-0.4,0-0.7-0.3-0.7-0.7V45C224.1,44.6,224.4,44.3,224.8,44.3z"/>
				<path id="Rounded_Rectangle_1-35_4_" class="st3" d="M227,39.8h0.7c0.4,0,0.7,0.3,0.7,0.7v0.7c0,0.4-0.3,0.7-0.7,0.7H227
					c-0.4,0-0.7-0.3-0.7-0.7v-0.7C226.2,40.1,226.6,39.8,227,39.8z"/>
				<path id="Rounded_Rectangle_1-36_4_" class="st4" d="M224.9,49.2h0.7c0.4,0,0.7,0.3,0.7,0.7v0.7c0,0.4-0.3,0.7-0.7,0.7h-0.7
					c-0.4,0-0.7-0.3-0.7-0.7V50C224.2,49.6,224.5,49.2,224.9,49.2z"/>
				<path id="Rounded_Rectangle_1-37_4_" class="st4" d="M226.1,47.6h0.7c0.4,0,0.7,0.3,0.7,0.7v0.7c0,0.4-0.3,0.7-0.7,0.7h-0.7
					c-0.4,0-0.7-0.3-0.7-0.7v-0.7C225.4,48,225.7,47.6,226.1,47.6z"/>
				<path id="Rounded_Rectangle_1-38_4_" class="st4" d="M226.7,38.6h0.7c0.4,0,0.7,0.3,0.7,0.7v0.7c0,0.4-0.3,0.7-0.7,0.7h-0.7
					c-0.4,0-0.7-0.3-0.7-0.7v-0.7C226,39,226.3,38.6,226.7,38.6z"/>
				<path id="Rounded_Rectangle_1-39_4_" class="st2" d="M224.3,47.4h0.7c0.4,0,0.7,0.3,0.7,0.7v0.7c0,0.4-0.3,0.7-0.7,0.7h-0.7
					c-0.4,0-0.7-0.3-0.7-0.7v-0.7C223.5,47.7,223.9,47.4,224.3,47.4z"/>
				<path id="Rounded_Rectangle_1-40_4_" class="st4" d="M226.4,45.5h0.7c0.4,0,0.7,0.3,0.7,0.7v0.7c0,0.4-0.3,0.7-0.7,0.7h-0.7
					c-0.4,0-0.7-0.3-0.7-0.7v-0.7C225.7,45.8,226,45.5,226.4,45.5z"/>
				<path id="Rounded_Rectangle_1-41_4_" class="st2" d="M225.3,40.2h0.7c0.4,0,0.7,0.3,0.7,0.7v0.7c0,0.4-0.3,0.7-0.7,0.7h-0.7
					c-0.4,0-0.7-0.3-0.7-0.7V41C224.6,40.6,224.9,40.2,225.3,40.2z"/>
				<path id="Rounded_Rectangle_1-42_4_" class="st4" d="M216.4,43.8h0.7c0.4,0,0.7,0.3,0.7,0.7v0.7c0,0.4-0.3,0.7-0.7,0.7h-0.7
					c-0.4,0-0.7-0.3-0.7-0.7v-0.7C215.6,44.1,216,43.8,216.4,43.8z"/>
				<path id="Rounded_Rectangle_1-43_4_" class="st4" d="M214.6,46.6h0.7c0.4,0,0.7,0.3,0.7,0.7V48c0,0.4-0.3,0.7-0.7,0.7h-0.7
					c-0.4,0-0.7-0.3-0.7-0.7v-0.7C213.8,46.9,214.2,46.6,214.6,46.6z"/>
				<path id="Rounded_Rectangle_1-44_4_" class="st5" d="M224.2,51.2h0.7c0.4,0,0.7,0.3,0.7,0.7v0.7c0,0.4-0.3,0.7-0.7,0.7h-0.7
					c-0.4,0-0.7-0.3-0.7-0.7v-0.7C223.5,51.5,223.8,51.2,224.2,51.2z"/>
				<path id="Rounded_Rectangle_1-45_4_" class="st4" d="M224.1,52.5h0.7c0.4,0,0.7,0.3,0.7,0.7v0.7c0,0.4-0.3,0.7-0.7,0.7h-0.7
					c-0.4,0-0.7-0.3-0.7-0.7v-0.7C223.4,52.8,223.7,52.5,224.1,52.5z"/>
				<path id="Rounded_Rectangle_1-46_4_" class="st5" d="M218,52.2h0.7c0.4,0,0.7,0.3,0.7,0.7v0.7c0,0.4-0.3,0.7-0.7,0.7H218
					c-0.4,0-0.7-0.3-0.7-0.7v-0.7C217.3,52.5,217.6,52.2,218,52.2z"/>
				<path id="Rounded_Rectangle_1-47_4_" class="st4" d="M219.4,51.4h0.7c0.4,0,0.7,0.3,0.7,0.7v0.7c0,0.4-0.3,0.7-0.7,0.7h-0.7
					c-0.4,0-0.7-0.3-0.7-0.7v-0.7C218.7,51.7,219,51.4,219.4,51.4z"/>
			</g>
		</g>
		<g>
			<rect x="204.1" y="45.4" class="st8" width="22.7" height="25.5"/>
			<g>
				<g>
					<path class="st1" d="M223.7,49.7c0-0.8-0.3-1.3-1.1-1.3c0,0-3.1,0-4.1,0c-0.8,0-1,0.5-1.1,1.2c0,0,0,6.3,0,8.4
						c0,0.3,0,0.6-0.1,0.9c-0.1,0.4-0.3,0.8-0.6,1.1c0,0,0,0,0,0c0,0,0,0,0,0c-0.3,0.2-0.7,0.3-1.2,0.3c-0.6,0-1-0.1-1.2-0.3
						c0,0,0,0,0,0c0,0,0,0,0,0c-0.3-0.3-0.5-0.6-0.6-1.1c-0.1-0.3-0.1-0.6-0.1-0.9l0,0v0c0-2.1,0-8,0-8.3c0-0.7-0.3-1.3-1.1-1.3
						c-1,0-4.1,0-4.1,0c-0.8,0-1.1,0.5-1.1,1.3c0,0,0,7.8,0,10.9c0,4,2.4,7.4,8.1,7.4c0,0,0.1,0,0.1,0c0,0,0.1,0,0.1,0
						c5.7,0,8.1-3.4,8.1-7.4C223.7,57.5,223.7,49.7,223.7,49.7z"/>
				</g>
				<path id="Rounded_Rectangle_1-2_5_" class="st2" d="M216.8,64.6h0.7c0.4,0,0.7,0.3,0.7,0.7V66c0,0.4-0.3,0.7-0.7,0.7h-0.7
					c-0.4,0-0.7-0.3-0.7-0.7v-0.7C216.1,64.9,216.5,64.6,216.8,64.6z"/>
				<path id="Rounded_Rectangle_1-3_5_" class="st3" d="M221.2,55.8h0.7c0.4,0,0.7,0.3,0.7,0.7v0.7c0,0.4-0.3,0.7-0.7,0.7h-0.7
					c-0.4,0-0.7-0.3-0.7-0.7v-0.7C220.4,56.1,220.8,55.8,221.2,55.8z"/>
				<path id="Rounded_Rectangle_1-4_5_" class="st4" d="M211.3,63.7h0.7c0.4,0,0.7,0.3,0.7,0.7v0.7c0,0.4-0.3,0.7-0.7,0.7h-0.7
					c-0.4,0-0.7-0.3-0.7-0.7v-0.7C210.6,64.1,210.9,63.7,211.3,63.7z"/>
				<path id="Rounded_Rectangle_1-5_5_" class="st3" d="M211.2,49.7h0.7c0.4,0,0.7,0.3,0.7,0.7v0.7c0,0.4-0.3,0.7-0.7,0.7h-0.7
					c-0.4,0-0.7-0.3-0.7-0.7v-0.7C210.5,50,210.8,49.7,211.2,49.7z"/>
				<path id="Rounded_Rectangle_1-6_5_" class="st2" d="M209.7,61.9h0.7c0.4,0,0.7,0.3,0.7,0.7v0.7c0,0.4-0.3,0.7-0.7,0.7h-0.7
					c-0.4,0-0.7-0.3-0.7-0.7v-0.7C208.9,62.2,209.3,61.9,209.7,61.9z"/>
				<path id="Rounded_Rectangle_1-7_5_" class="st2" d="M216,61.2h0.7c0.4,0,0.7,0.3,0.7,0.7v0.7c0,0.4-0.3,0.7-0.7,0.7H216
					c-0.4,0-0.7-0.3-0.7-0.7v-0.7C215.3,61.5,215.6,61.2,216,61.2z"/>
				<path id="Rounded_Rectangle_1-8_5_" class="st4" d="M211.1,57.4h0.7c0.4,0,0.7,0.3,0.7,0.7v0.7c0,0.4-0.3,0.7-0.7,0.7h-0.7
					c-0.4,0-0.7-0.3-0.7-0.7v-0.7C210.3,57.7,210.7,57.4,211.1,57.4z"/>
				<path id="Rounded_Rectangle_1-9_5_" class="st4" d="M219,53.9h0.7c0.4,0,0.7,0.3,0.7,0.7v0.7c0,0.4-0.3,0.7-0.7,0.7H219
					c-0.4,0-0.7-0.3-0.7-0.7v-0.7C218.3,54.2,218.6,53.9,219,53.9z"/>
				<path id="Rounded_Rectangle_1-10_5_" class="st4" d="M209.6,50.5h0.7c0.4,0,0.7,0.3,0.7,0.7v0.7c0,0.4-0.3,0.7-0.7,0.7h-0.7
					c-0.4,0-0.7-0.3-0.7-0.7v-0.7C208.9,50.8,209.2,50.5,209.6,50.5z"/>
				<path id="Rounded_Rectangle_1-11_5_" class="st4" d="M211.3,52.1h0.7c0.4,0,0.7,0.3,0.7,0.7v0.7c0,0.4-0.3,0.7-0.7,0.7h-0.7
					c-0.4,0-0.7-0.3-0.7-0.7v-0.7C210.6,52.4,210.9,52.1,211.3,52.1z"/>
				<path id="Rounded_Rectangle_1-12_5_" class="st3" d="M217.9,60.7h0.7c0.4,0,0.7,0.3,0.7,0.7v0.7c0,0.4-0.3,0.7-0.7,0.7h-0.7
					c-0.4,0-0.7-0.3-0.7-0.7v-0.7C217.2,61,217.5,60.7,217.9,60.7z"/>
				<path id="Rounded_Rectangle_1-13_5_" class="st3" d="M214.2,61.4h0.7c0.4,0,0.7,0.3,0.7,0.7v0.7c0,0.4-0.3,0.7-0.7,0.7h-0.7
					c-0.4,0-0.7-0.3-0.7-0.7v-0.7C213.5,61.7,213.8,61.4,214.2,61.4z"/>
				<path id="Rounded_Rectangle_1-14_5_" class="st4" d="M215,64.6h0.7c0.4,0,0.7,0.3,0.7,0.7V66c0,0.4-0.3,0.7-0.7,0.7H215
					c-0.4,0-0.7-0.3-0.7-0.7v-0.7C214.3,64.9,214.6,64.6,215,64.6z"/>
				<path id="Rounded_Rectangle_1-15_5_" class="st4" d="M213.1,64.3h0.7c0.4,0,0.7,0.3,0.7,0.7v0.7c0,0.4-0.3,0.7-0.7,0.7h-0.7
					c-0.4,0-0.7-0.3-0.7-0.7V65C212.4,64.6,212.7,64.3,213.1,64.3z"/>
				<path id="Rounded_Rectangle_1-16_5_" class="st4" d="M219.8,62.3h0.7c0.4,0,0.7,0.3,0.7,0.7v0.7c0,0.4-0.3,0.7-0.7,0.7h-0.7
					c-0.4,0-0.7-0.3-0.7-0.7V63C219.1,62.6,219.4,62.3,219.8,62.3z"/>
				<path id="Rounded_Rectangle_1-17_5_" class="st4" d="M210.7,62.7h0.7c0.4,0,0.7,0.3,0.7,0.7v0.7c0,0.4-0.3,0.7-0.7,0.7h-0.7
					c-0.4,0-0.7-0.3-0.7-0.7v-0.7C210,63,210.3,62.7,210.7,62.7z"/>
				<path id="Rounded_Rectangle_1-18_5_" class="st4" d="M211,59.8h0.7c0.4,0,0.7,0.3,0.7,0.7v0.7c0,0.4-0.3,0.7-0.7,0.7H211
					c-0.4,0-0.7-0.3-0.7-0.7v-0.7C210.3,60.1,210.6,59.8,211,59.8z"/>
				<path id="Rounded_Rectangle_1-19_5_" class="st4" d="M216.9,62.6h0.7c0.4,0,0.7,0.3,0.7,0.7V64c0,0.4-0.3,0.7-0.7,0.7h-0.7
					c-0.4,0-0.7-0.3-0.7-0.7v-0.7C216.2,62.9,216.5,62.6,216.9,62.6z"/>
				<path id="Rounded_Rectangle_1-20_5_" class="st3" d="M215.2,63.2h0.7c0.4,0,0.7,0.3,0.7,0.7v0.7c0,0.4-0.3,0.7-0.7,0.7h-0.7
					c-0.4,0-0.7-0.3-0.7-0.7V64C214.5,63.6,214.8,63.2,215.2,63.2z"/>
				<path id="Rounded_Rectangle_1-21_5_" class="st4" d="M212.6,62.2h0.7c0.4,0,0.7,0.3,0.7,0.7v0.7c0,0.4-0.3,0.7-0.7,0.7h-0.7
					c-0.4,0-0.7-0.3-0.7-0.7v-0.7C211.8,62.5,212.2,62.2,212.6,62.2z"/>
				<path id="Rounded_Rectangle_1-22_5_" class="st5" d="M220.8,54h0.7c0.4,0,0.7,0.3,0.7,0.7v0.7c0,0.4-0.3,0.7-0.7,0.7h-0.7
					c-0.4,0-0.7-0.3-0.7-0.7v-0.7C220,54.4,220.4,54,220.8,54z"/>
				<path id="Rounded_Rectangle_1-23_5_" class="st4" d="M209.3,60.1h0.7c0.4,0,0.7,0.3,0.7,0.7v0.7c0,0.4-0.3,0.7-0.7,0.7h-0.7
					c-0.4,0-0.7-0.3-0.7-0.7v-0.7C208.6,60.4,208.9,60.1,209.3,60.1z"/>
				<path id="Rounded_Rectangle_1-24_5_" class="st3" d="M220.6,60.5h0.7c0.4,0,0.7,0.3,0.7,0.7v0.7c0,0.4-0.3,0.7-0.7,0.7h-0.7
					c-0.4,0-0.7-0.3-0.7-0.7v-0.7C219.9,60.8,220.2,60.5,220.6,60.5z"/>
				<path id="Rounded_Rectangle_1-25_5_" class="st4" d="M209,54.5h0.7c0.4,0,0.7,0.3,0.7,0.7V56c0,0.4-0.3,0.7-0.7,0.7H209
					c-0.4,0-0.7-0.3-0.7-0.7v-0.7C208.3,54.9,208.6,54.5,209,54.5z"/>
				<path id="Rounded_Rectangle_1-26_5_" class="st2" d="M210.9,53.6h0.7c0.4,0,0.7,0.3,0.7,0.7V55c0,0.4-0.3,0.7-0.7,0.7h-0.7
					c-0.4,0-0.7-0.3-0.7-0.7v-0.7C210.1,53.9,210.5,53.6,210.9,53.6z"/>
				<path id="Rounded_Rectangle_1-27_5_" class="st3" d="M209.3,52.1h0.7c0.4,0,0.7,0.3,0.7,0.7v0.7c0,0.4-0.3,0.7-0.7,0.7h-0.7
					c-0.4,0-0.7-0.3-0.7-0.7v-0.7C208.6,52.4,208.9,52.1,209.3,52.1z"/>
				<path id="Rounded_Rectangle_1-28_5_" class="st2" d="M211.7,61h0.7c0.4,0,0.7,0.3,0.7,0.7v0.7c0,0.4-0.3,0.7-0.7,0.7h-0.7
					c-0.4,0-0.7-0.3-0.7-0.7v-0.7C210.9,61.3,211.3,61,211.7,61z"/>
				<path id="Rounded_Rectangle_1-29_5_" class="st5" d="M208.7,53.2h0.7c0.4,0,0.7,0.3,0.7,0.7v0.7c0,0.4-0.3,0.7-0.7,0.7h-0.7
					c-0.4,0-0.7-0.3-0.7-0.7v-0.7C208,53.5,208.3,53.2,208.7,53.2z"/>
				<path id="Rounded_Rectangle_1-30_5_" class="st3" d="M209.7,56.4h0.7c0.4,0,0.7,0.3,0.7,0.7v0.7c0,0.4-0.3,0.7-0.7,0.7h-0.7
					c-0.4,0-0.7-0.3-0.7-0.7v-0.7C209,56.7,209.3,56.4,209.7,56.4z"/>
				<path id="Rounded_Rectangle_1-31_5_" class="st5" d="M210,58.4h0.7c0.4,0,0.7,0.3,0.7,0.7v0.7c0,0.4-0.3,0.7-0.7,0.7H210
					c-0.4,0-0.7-0.3-0.7-0.7v-0.7C209.3,58.7,209.6,58.4,210,58.4z"/>
				<path id="Rounded_Rectangle_1-32_5_" class="st3" d="M209.9,61.3h0.7c0.4,0,0.7,0.3,0.7,0.7v0.7c0,0.4-0.3,0.7-0.7,0.7h-0.7
					c-0.4,0-0.7-0.3-0.7-0.7v-0.7C209.2,61.6,209.5,61.3,209.9,61.3z"/>
				<path id="Rounded_Rectangle_1-33_5_" class="st2" d="M209.1,49.3h0.7c0.4,0,0.7,0.3,0.7,0.7v0.7c0,0.4-0.3,0.7-0.7,0.7h-0.7
					c-0.4,0-0.7-0.3-0.7-0.7V50C208.4,49.6,208.7,49.3,209.1,49.3z"/>
				<path id="Rounded_Rectangle_1-34_5_" class="st3" d="M219.1,55.6h0.7c0.4,0,0.7,0.3,0.7,0.7V57c0,0.4-0.3,0.7-0.7,0.7h-0.7
					c-0.4,0-0.7-0.3-0.7-0.7v-0.7C218.4,55.9,218.7,55.6,219.1,55.6z"/>
				<path id="Rounded_Rectangle_1-35_5_" class="st3" d="M221.3,51.1h0.7c0.4,0,0.7,0.3,0.7,0.7v0.7c0,0.4-0.3,0.7-0.7,0.7h-0.7
					c-0.4,0-0.7-0.3-0.7-0.7v-0.7C220.6,51.5,220.9,51.1,221.3,51.1z"/>
				<path id="Rounded_Rectangle_1-36_5_" class="st4" d="M219.3,60.6h0.7c0.4,0,0.7,0.3,0.7,0.7V62c0,0.4-0.3,0.7-0.7,0.7h-0.7
					c-0.4,0-0.7-0.3-0.7-0.7v-0.7C218.6,60.9,218.9,60.6,219.3,60.6z"/>
				<path id="Rounded_Rectangle_1-37_5_" class="st4" d="M220.4,59h0.7c0.4,0,0.7,0.3,0.7,0.7v0.7c0,0.4-0.3,0.7-0.7,0.7h-0.7
					c-0.4,0-0.7-0.3-0.7-0.7v-0.7C219.7,59.3,220,59,220.4,59z"/>
				<path id="Rounded_Rectangle_1-38_5_" class="st4" d="M221,50h0.7c0.4,0,0.7,0.3,0.7,0.7v0.7c0,0.4-0.3,0.7-0.7,0.7H221
					c-0.4,0-0.7-0.3-0.7-0.7v-0.7C220.3,50.3,220.6,50,221,50z"/>
				<path id="Rounded_Rectangle_1-39_5_" class="st2" d="M218.6,58.7h0.7c0.4,0,0.7,0.3,0.7,0.7v0.7c0,0.4-0.3,0.7-0.7,0.7h-0.7
					c-0.4,0-0.7-0.3-0.7-0.7v-0.7C217.9,59,218.2,58.7,218.6,58.7z"/>
				<path id="Rounded_Rectangle_1-40_5_" class="st4" d="M220.7,56.8h0.7c0.4,0,0.7,0.3,0.7,0.7v0.7c0,0.4-0.3,0.7-0.7,0.7h-0.7
					c-0.4,0-0.7-0.3-0.7-0.7v-0.7C220,57.1,220.3,56.8,220.7,56.8z"/>
				<path id="Rounded_Rectangle_1-41_5_" class="st2" d="M219.6,51.6h0.7c0.4,0,0.7,0.3,0.7,0.7V53c0,0.4-0.3,0.7-0.7,0.7h-0.7
					c-0.4,0-0.7-0.3-0.7-0.7v-0.7C218.9,51.9,219.2,51.6,219.6,51.6z"/>
				<path id="Rounded_Rectangle_1-42_5_" class="st4" d="M210.7,55.1h0.7c0.4,0,0.7,0.3,0.7,0.7v0.7c0,0.4-0.3,0.7-0.7,0.7h-0.7
					c-0.4,0-0.7-0.3-0.7-0.7v-0.7C210,55.4,210.3,55.1,210.7,55.1z"/>
				<path id="Rounded_Rectangle_1-43_5_" class="st4" d="M208.9,57.9h0.7c0.4,0,0.7,0.3,0.7,0.7v0.7c0,0.4-0.3,0.7-0.7,0.7h-0.7
					c-0.4,0-0.7-0.3-0.7-0.7v-0.7C208.2,58.2,208.5,57.9,208.9,57.9z"/>
				<path id="Rounded_Rectangle_1-44_5_" class="st5" d="M218.5,62.5h0.7c0.4,0,0.7,0.3,0.7,0.7V64c0,0.4-0.3,0.7-0.7,0.7h-0.7
					c-0.4,0-0.7-0.3-0.7-0.7v-0.7C217.8,62.9,218.1,62.5,218.5,62.5z"/>
				<path id="Rounded_Rectangle_1-45_5_" class="st4" d="M218.5,63.8h0.7c0.4,0,0.7,0.3,0.7,0.7v0.7c0,0.4-0.3,0.7-0.7,0.7h-0.7
					c-0.4,0-0.7-0.3-0.7-0.7v-0.7C217.7,64.1,218.1,63.8,218.5,63.8z"/>
				<path id="Rounded_Rectangle_1-46_5_" class="st5" d="M212.4,63.5h0.7c0.4,0,0.7,0.3,0.7,0.7V65c0,0.4-0.3,0.7-0.7,0.7h-0.7
					c-0.4,0-0.7-0.3-0.7-0.7v-0.7C211.6,63.9,212,63.5,212.4,63.5z"/>
				<path id="Rounded_Rectangle_1-47_5_" class="st4" d="M213.7,62.7h0.7c0.4,0,0.7,0.3,0.7,0.7v0.7c0,0.4-0.3,0.7-0.7,0.7h-0.7
					c-0.4,0-0.7-0.3-0.7-0.7v-0.7C213,63.1,213.3,62.7,213.7,62.7z"/>
			</g>
		</g>
	</g>
	<rect x="138.9" y="5.7" class="st9" width="17" height="68"/>
	<path class="st10" d="M65.2,65.2c0,0.8-0.6,1.4-1.4,1.4l-24.1,0c-0.8,0-1.4,0.6-1.4,1.4c0-0.8-0.6-1.4-1.4-1.4l-24.1,0
		c-0.8,0-1.4-0.6-1.4-1.4"/>
	<rect x="96.4" y="22.7" class="st11" width="22.7" height="34"/>
	<g>
		<g>
			<path class="st1" d="M115.9,27c0-0.8-0.3-1.3-1.1-1.3c0,0-3.1,0-4.1,0c-0.8,0-1,0.5-1.1,1.2c0,0,0,6.3,0,8.4c0,0.3,0,0.6-0.1,0.9
				c-0.1,0.4-0.3,0.8-0.6,1.1c0,0,0,0,0,0c0,0,0,0,0,0c-0.3,0.2-0.7,0.3-1.2,0.3c-0.6,0-1-0.1-1.2-0.3c0,0,0,0,0,0c0,0,0,0,0,0
				c-0.3-0.3-0.5-0.6-0.6-1.1c-0.1-0.3-0.1-0.6-0.1-0.9l0,0v0c0-2.1,0-8,0-8.3c0-0.7-0.3-1.3-1.1-1.3c-1,0-4.1,0-4.1,0
				c-0.8,0-1.1,0.5-1.1,1.3c0,0,0,7.8,0,10.9c0,4,2.4,7.4,8.1,7.4c0,0,0.1,0,0.1,0c0,0,0.1,0,0.1,0c5.7,0,8.1-3.4,8.1-7.4
				C115.9,34.8,115.9,27,115.9,27z"/>
		</g>
		<path id="Rounded_Rectangle_1-2_3_" class="st2" d="M109.1,41.9h0.7c0.4,0,0.7,0.3,0.7,0.7v0.7c0,0.4-0.3,0.7-0.7,0.7h-0.7
			c-0.4,0-0.7-0.3-0.7-0.7v-0.7C108.4,42.2,108.7,41.9,109.1,41.9z"/>
		<path id="Rounded_Rectangle_1-3_3_" class="st3" d="M113.5,33.1h0.7c0.4,0,0.7,0.3,0.7,0.7v0.7c0,0.4-0.3,0.7-0.7,0.7h-0.7
			c-0.4,0-0.7-0.3-0.7-0.7v-0.7C112.7,33.4,113.1,33.1,113.5,33.1z"/>
		<path id="Rounded_Rectangle_1-4_3_" class="st4" d="M103.6,41.1h0.7c0.4,0,0.7,0.3,0.7,0.7v0.7c0,0.4-0.3,0.7-0.7,0.7h-0.7
			c-0.4,0-0.7-0.3-0.7-0.7v-0.7C102.9,41.4,103.2,41.1,103.6,41.1z"/>
		<path id="Rounded_Rectangle_1-5_3_" class="st3" d="M103.5,27h0.7c0.4,0,0.7,0.3,0.7,0.7v0.7c0,0.4-0.3,0.7-0.7,0.7h-0.7
			c-0.4,0-0.7-0.3-0.7-0.7v-0.7C102.7,27.3,103.1,27,103.5,27z"/>
		<path id="Rounded_Rectangle_1-6_3_" class="st2" d="M102,39.2h0.7c0.4,0,0.7,0.3,0.7,0.7v0.7c0,0.4-0.3,0.7-0.7,0.7H102
			c-0.4,0-0.7-0.3-0.7-0.7v-0.7C101.2,39.5,101.6,39.2,102,39.2z"/>
		<path id="Rounded_Rectangle_1-7_3_" class="st2" d="M108.3,38.5h0.7c0.4,0,0.7,0.3,0.7,0.7V40c0,0.4-0.3,0.7-0.7,0.7h-0.7
			c-0.4,0-0.7-0.3-0.7-0.7v-0.7C107.6,38.9,107.9,38.5,108.3,38.5z"/>
		<path id="Rounded_Rectangle_1-8_3_" class="st4" d="M103.3,34.7h0.7c0.4,0,0.7,0.3,0.7,0.7v0.7c0,0.4-0.3,0.7-0.7,0.7h-0.7
			c-0.4,0-0.7-0.3-0.7-0.7v-0.7C102.6,35.1,102.9,34.7,103.3,34.7z"/>
		<path id="Rounded_Rectangle_1-9_3_" class="st4" d="M111.3,31.2h0.7c0.4,0,0.7,0.3,0.7,0.7v0.7c0,0.4-0.3,0.7-0.7,0.7h-0.7
			c-0.4,0-0.7-0.3-0.7-0.7v-0.7C110.6,31.5,110.9,31.2,111.3,31.2z"/>
		<path id="Rounded_Rectangle_1-10_3_" class="st4" d="M101.9,27.8h0.7c0.4,0,0.7,0.3,0.7,0.7v0.7c0,0.4-0.3,0.7-0.7,0.7h-0.7
			c-0.4,0-0.7-0.3-0.7-0.7v-0.7C101.2,28.2,101.5,27.8,101.9,27.8z"/>
		<path id="Rounded_Rectangle_1-11_3_" class="st4" d="M103.6,29.4h0.7c0.4,0,0.7,0.3,0.7,0.7v0.7c0,0.4-0.3,0.7-0.7,0.7h-0.7
			c-0.4,0-0.7-0.3-0.7-0.7v-0.7C102.9,29.8,103.2,29.4,103.6,29.4z"/>
		<path id="Rounded_Rectangle_1-12_3_" class="st3" d="M110.2,38h0.7c0.4,0,0.7,0.3,0.7,0.7v0.7c0,0.4-0.3,0.7-0.7,0.7h-0.7
			c-0.4,0-0.7-0.3-0.7-0.7v-0.7C109.5,38.4,109.8,38,110.2,38z"/>
		<path id="Rounded_Rectangle_1-13_3_" class="st3" d="M106.5,38.7h0.7c0.4,0,0.7,0.3,0.7,0.7v0.7c0,0.4-0.3,0.7-0.7,0.7h-0.7
			c-0.4,0-0.7-0.3-0.7-0.7v-0.7C105.7,39,106.1,38.7,106.5,38.7z"/>
		<path id="Rounded_Rectangle_1-14_3_" class="st4" d="M107.3,41.9h0.7c0.4,0,0.7,0.3,0.7,0.7v0.7c0,0.4-0.3,0.7-0.7,0.7h-0.7
			c-0.4,0-0.7-0.3-0.7-0.7v-0.7C106.6,42.2,106.9,41.9,107.3,41.9z"/>
		<path id="Rounded_Rectangle_1-15_3_" class="st4" d="M105.4,41.6h0.7c0.4,0,0.7,0.3,0.7,0.7v0.7c0,0.4-0.3,0.7-0.7,0.7h-0.7
			c-0.4,0-0.7-0.3-0.7-0.7v-0.7C104.7,42,105,41.6,105.4,41.6z"/>
		<path id="Rounded_Rectangle_1-16_3_" class="st4" d="M112.1,39.6h0.7c0.4,0,0.7,0.3,0.7,0.7V41c0,0.4-0.3,0.7-0.7,0.7h-0.7
			c-0.4,0-0.7-0.3-0.7-0.7v-0.7C111.4,39.9,111.7,39.6,112.1,39.6z"/>
		<path id="Rounded_Rectangle_1-17_3_" class="st4" d="M103,40h0.7c0.4,0,0.7,0.3,0.7,0.7v0.7c0,0.4-0.3,0.7-0.7,0.7H103
			c-0.4,0-0.7-0.3-0.7-0.7v-0.7C102.3,40.3,102.6,40,103,40z"/>
		<path id="Rounded_Rectangle_1-18_3_" class="st4" d="M103.3,37.1h0.7c0.4,0,0.7,0.3,0.7,0.7v0.7c0,0.4-0.3,0.7-0.7,0.7h-0.7
			c-0.4,0-0.7-0.3-0.7-0.7v-0.7C102.6,37.5,102.9,37.1,103.3,37.1z"/>
		<path id="Rounded_Rectangle_1-19_3_" class="st4" d="M109.2,39.9h0.7c0.4,0,0.7,0.3,0.7,0.7v0.7c0,0.4-0.3,0.7-0.7,0.7h-0.7
			c-0.4,0-0.7-0.3-0.7-0.7v-0.7C108.5,40.2,108.8,39.9,109.2,39.9z"/>
		<path id="Rounded_Rectangle_1-20_3_" class="st3" d="M107.5,40.5h0.7c0.4,0,0.7,0.3,0.7,0.7V42c0,0.4-0.3,0.7-0.7,0.7h-0.7
			c-0.4,0-0.7-0.3-0.7-0.7v-0.7C106.7,40.9,107.1,40.5,107.5,40.5z"/>
		<path id="Rounded_Rectangle_1-21_3_" class="st4" d="M104.9,39.5h0.7c0.4,0,0.7,0.3,0.7,0.7V41c0,0.4-0.3,0.7-0.7,0.7h-0.7
			c-0.4,0-0.7-0.3-0.7-0.7v-0.7C104.1,39.9,104.5,39.5,104.9,39.5z"/>
		<path id="Rounded_Rectangle_1-22_3_" class="st5" d="M113,31.3h0.7c0.4,0,0.7,0.3,0.7,0.7v0.7c0,0.4-0.3,0.7-0.7,0.7H113
			c-0.4,0-0.7-0.3-0.7-0.7v-0.7C112.3,31.7,112.6,31.3,113,31.3z"/>
		<path id="Rounded_Rectangle_1-23_3_" class="st4" d="M101.6,37.4h0.7c0.4,0,0.7,0.3,0.7,0.7v0.7c0,0.4-0.3,0.7-0.7,0.7h-0.7
			c-0.4,0-0.7-0.3-0.7-0.7v-0.7C100.8,37.7,101.2,37.4,101.6,37.4z"/>
		<path id="Rounded_Rectangle_1-24_3_" class="st3" d="M112.9,37.8h0.7c0.4,0,0.7,0.3,0.7,0.7v0.7c0,0.4-0.3,0.7-0.7,0.7h-0.7
			c-0.4,0-0.7-0.3-0.7-0.7v-0.7C112.2,38.2,112.5,37.8,112.9,37.8z"/>
		<path id="Rounded_Rectangle_1-25_3_" class="st4" d="M101.3,31.9h0.7c0.4,0,0.7,0.3,0.7,0.7v0.7c0,0.4-0.3,0.7-0.7,0.7h-0.7
			c-0.4,0-0.7-0.3-0.7-0.7v-0.7C100.6,32.2,100.9,31.9,101.3,31.9z"/>
		<path id="Rounded_Rectangle_1-26_3_" class="st2" d="M103.2,30.9h0.7c0.4,0,0.7,0.3,0.7,0.7v0.7c0,0.4-0.3,0.7-0.7,0.7h-0.7
			c-0.4,0-0.7-0.3-0.7-0.7v-0.7C102.4,31.2,102.8,30.9,103.2,30.9z"/>
		<path id="Rounded_Rectangle_1-27_3_" class="st3" d="M101.6,29.4h0.7c0.4,0,0.7,0.3,0.7,0.7v0.7c0,0.4-0.3,0.7-0.7,0.7h-0.7
			c-0.4,0-0.7-0.3-0.7-0.7v-0.7C100.9,29.8,101.2,29.4,101.6,29.4z"/>
		<path id="Rounded_Rectangle_1-28_3_" class="st2" d="M104,38.3h0.7c0.4,0,0.7,0.3,0.7,0.7v0.7c0,0.4-0.3,0.7-0.7,0.7H104
			c-0.4,0-0.7-0.3-0.7-0.7V39C103.2,38.6,103.6,38.3,104,38.3z"/>
		<path id="Rounded_Rectangle_1-29_3_" class="st5" d="M101,30.5h0.7c0.4,0,0.7,0.3,0.7,0.7v0.7c0,0.4-0.3,0.7-0.7,0.7H101
			c-0.4,0-0.7-0.3-0.7-0.7v-0.7C100.3,30.8,100.6,30.5,101,30.5z"/>
		<path id="Rounded_Rectangle_1-30_3_" class="st3" d="M102,33.7h0.7c0.4,0,0.7,0.3,0.7,0.7v0.7c0,0.4-0.3,0.7-0.7,0.7H102
			c-0.4,0-0.7-0.3-0.7-0.7v-0.7C101.3,34.1,101.6,33.7,102,33.7z"/>
		<path id="Rounded_Rectangle_1-31_3_" class="st5" d="M102.3,35.7h0.7c0.4,0,0.7,0.3,0.7,0.7v0.7c0,0.4-0.3,0.7-0.7,0.7h-0.7
			c-0.4,0-0.7-0.3-0.7-0.7v-0.7C101.5,36.1,101.9,35.7,102.3,35.7z"/>
		<path id="Rounded_Rectangle_1-32_3_" class="st3" d="M102.2,38.7h0.7c0.4,0,0.7,0.3,0.7,0.7v0.7c0,0.4-0.3,0.7-0.7,0.7h-0.7
			c-0.4,0-0.7-0.3-0.7-0.7v-0.7C101.5,39,101.8,38.7,102.2,38.7z"/>
		<path id="Rounded_Rectangle_1-33_3_" class="st2" d="M101.4,26.6h0.7c0.4,0,0.7,0.3,0.7,0.7v0.7c0,0.4-0.3,0.7-0.7,0.7h-0.7
			c-0.4,0-0.7-0.3-0.7-0.7v-0.7C100.7,27,101,26.6,101.4,26.6z"/>
		<path id="Rounded_Rectangle_1-34_3_" class="st3" d="M111.4,32.9h0.7c0.4,0,0.7,0.3,0.7,0.7v0.7c0,0.4-0.3,0.7-0.7,0.7h-0.7
			c-0.4,0-0.7-0.3-0.7-0.7v-0.7C110.7,33.3,111,32.9,111.4,32.9z"/>
		<path id="Rounded_Rectangle_1-35_3_" class="st3" d="M113.6,28.5h0.7c0.4,0,0.7,0.3,0.7,0.7v0.7c0,0.4-0.3,0.7-0.7,0.7h-0.7
			c-0.4,0-0.7-0.3-0.7-0.7v-0.7C112.8,28.8,113.2,28.5,113.6,28.5z"/>
		<path id="Rounded_Rectangle_1-36_3_" class="st4" d="M111.6,37.9h0.7c0.4,0,0.7,0.3,0.7,0.7v0.7c0,0.4-0.3,0.7-0.7,0.7h-0.7
			c-0.4,0-0.7-0.3-0.7-0.7v-0.7C110.8,38.2,111.2,37.9,111.6,37.9z"/>
		<path id="Rounded_Rectangle_1-37_3_" class="st4" d="M112.7,36.3h0.7c0.4,0,0.7,0.3,0.7,0.7v0.7c0,0.4-0.3,0.7-0.7,0.7h-0.7
			c-0.4,0-0.7-0.3-0.7-0.7V37C112,36.6,112.3,36.3,112.7,36.3z"/>
		<path id="Rounded_Rectangle_1-38_3_" class="st4" d="M113.3,27.3h0.7c0.4,0,0.7,0.3,0.7,0.7v0.7c0,0.4-0.3,0.7-0.7,0.7h-0.7
			c-0.4,0-0.7-0.3-0.7-0.7V28C112.6,27.6,112.9,27.3,113.3,27.3z"/>
		<path id="Rounded_Rectangle_1-39_3_" class="st2" d="M110.9,36h0.7c0.4,0,0.7,0.3,0.7,0.7v0.7c0,0.4-0.3,0.7-0.7,0.7h-0.7
			c-0.4,0-0.7-0.3-0.7-0.7v-0.7C110.2,36.3,110.5,36,110.9,36z"/>
		<path id="Rounded_Rectangle_1-40_3_" class="st4" d="M113,34.1h0.7c0.4,0,0.7,0.3,0.7,0.7v0.7c0,0.4-0.3,0.7-0.7,0.7H113
			c-0.4,0-0.7-0.3-0.7-0.7v-0.7C112.3,34.5,112.6,34.1,113,34.1z"/>
		<path id="Rounded_Rectangle_1-41_3_" class="st2" d="M111.9,28.9h0.7c0.4,0,0.7,0.3,0.7,0.7v0.7c0,0.4-0.3,0.7-0.7,0.7h-0.7
			c-0.4,0-0.7-0.3-0.7-0.7v-0.7C111.2,29.2,111.5,28.9,111.9,28.9z"/>
		<path id="Rounded_Rectangle_1-42_3_" class="st4" d="M103,32.4h0.7c0.4,0,0.7,0.3,0.7,0.7v0.7c0,0.4-0.3,0.7-0.7,0.7H103
			c-0.4,0-0.7-0.3-0.7-0.7v-0.7C102.3,32.8,102.6,32.4,103,32.4z"/>
		<path id="Rounded_Rectangle_1-43_3_" class="st4" d="M101.2,35.2h0.7c0.4,0,0.7,0.3,0.7,0.7v0.7c0,0.4-0.3,0.7-0.7,0.7h-0.7
			c-0.4,0-0.7-0.3-0.7-0.7V36C100.4,35.5,100.8,35.2,101.2,35.2z"/>
		<path id="Rounded_Rectangle_1-44_3_" class="st5" d="M110.8,39.9h0.7c0.4,0,0.7,0.3,0.7,0.7v0.7c0,0.4-0.3,0.7-0.7,0.7h-0.7
			c-0.4,0-0.7-0.3-0.7-0.7v-0.7C110.1,40.2,110.4,39.9,110.8,39.9z"/>
		<path id="Rounded_Rectangle_1-45_3_" class="st4" d="M110.7,41.1h0.7c0.4,0,0.7,0.3,0.7,0.7v0.7c0,0.4-0.3,0.7-0.7,0.7h-0.7
			c-0.4,0-0.7-0.3-0.7-0.7v-0.7C110,41.5,110.3,41.1,110.7,41.1z"/>
		<path id="Rounded_Rectangle_1-46_3_" class="st5" d="M104.7,40.9h0.7c0.4,0,0.7,0.3,0.7,0.7v0.7c0,0.4-0.3,0.7-0.7,0.7h-0.7
			c-0.4,0-0.7-0.3-0.7-0.7v-0.7C103.9,41.2,104.3,40.9,104.7,40.9z"/>
		<path id="Rounded_Rectangle_1-47_3_" class="st4" d="M106,40.1h0.7c0.4,0,0.7,0.3,0.7,0.7v0.7c0,0.4-0.3,0.7-0.7,0.7H106
			c-0.4,0-0.7-0.3-0.7-0.7v-0.7C105.3,40.4,105.6,40.1,106,40.1z"/>
	</g>
	<g>
		<g>
			<line class="st12" x1="79.4" y1="17" x2="79.4" y2="18.5"/>
			<line class="st13" x1="79.4" y1="21.3" x2="79.4" y2="59.5"/>
			<line class="st12" x1="79.4" y1="60.9" x2="79.4" y2="62.4"/>
		</g>
	</g>
	<g>
		<g>
			<line class="st12" x1="65.2" y1="39.7" x2="91.1" y2="39.7"/>
			<g>
				<polygon class="st14" points="96.4,39.7 88.9,42.7 90.7,39.7 88.9,36.6 				"/>
			</g>
		</g>
	</g>
	<g>
		<g>
			<line class="st12" x1="119.1" y1="39.7" x2="133.6" y2="39.7"/>
			<g>
				<polygon class="st14" points="138.9,39.7 131.4,42.7 133.2,39.7 131.4,36.6 				"/>
			</g>
		</g>
	</g>
	<g>
		<g>
			<polyline class="st12" points="155.9,28.3 164.4,28.3 164.4,17 215.8,17 			"/>
			<g>
				<polygon class="st14" points="221.1,17 213.6,20.1 215.4,17 213.6,14 				"/>
			</g>
		</g>
	</g>
	<rect x="42.5" y="22.7" class="st15" width="22.7" height="34"/>
	<g>
		<path id="path2383" class="st16" d="M53.6,44.8c0,0-0.4,0.9-0.7,0.1c-0.3-0.8-0.3-2.6-0.3-2.6c0.1-6.7,3.7-2,3.1-1L53.6,44.8z"/>
		<path id="path3157" class="st16" d="M53.6,44.7c0,0-0.5,1-0.9,0.1s-0.4-2.9-0.4-2.9c-0.1-7.7,4.3-2.2,3.6-1.1L53.6,44.7z"/>
		<path id="path3159" class="st16" d="M53.7,44.7c0,0-0.5,1.1-1,0.1c-0.5-1-0.5-3.4-0.5-3.4c-0.3-8.9,5-2.4,4.2-1.2L53.7,44.7z"/>
		<path id="path3161" class="st16" d="M53.8,44.6c0,0-0.6,1.3-1.2,0.1c-0.6-1.2-0.7-4-0.7-4c-0.6-10.5,6-2.7,5-1.3L53.8,44.6z"/>
		<path id="path3163" class="st16" d="M53.8,44.5c0,0-0.7,1.5-1.5,0c-0.8-1.4-0.9-4.7-0.9-4.7c-1-12.1,7.1-3,5.9-1.4L53.8,44.5z"/>
		<path id="path3165" class="st16" d="M53.9,44.4c0,0-0.8,1.7-1.7,0c-0.9-1.7-1.1-5.5-1.1-5.5c-1.1-14.3,8.3-3.5,7-1.6L53.9,44.4z"
			/>
		<path id="path3167" class="st16" d="M54,44.3c0,0-0.9,2-2,0c-1.1-1.9-1.3-6.3-1.3-6.3c-1.5-16.5,9.6-4,8.1-1.8L54,44.3z"/>
		<path id="path3169" class="st16" d="M54.1,44.2c0,0-1,2.2-2.3,0c-1.2-2.2-1.6-7.1-1.6-7.1c-1.8-18.5,10.9-4.4,9.1-1.9L54.1,44.2z"
			/>
	</g>
	<g>
		<polygon class="st17" points="28.3,22.7 11.3,22.7 11.3,56.7 36.9,56.7 36.9,31.2 		"/>
		<g>
			<path class="st18" d="M15.8,26.2c0.3,0,0.5,0.1,0.6,0.3c0.1,0.2,0.2,0.5,0.2,0.9c0,0.4-0.1,0.7-0.2,0.9c-0.1,0.2-0.3,0.3-0.6,0.3
				c-0.3,0-0.5-0.1-0.6-0.3c-0.1-0.2-0.2-0.5-0.2-0.9c0-0.4,0.1-0.7,0.2-0.9C15.3,26.3,15.5,26.2,15.8,26.2z M15.3,27.9l0.8-1.2
				c0-0.1-0.1-0.2-0.2-0.2c-0.1,0-0.1,0-0.2,0c-0.2,0-0.3,0.1-0.4,0.3c-0.1,0.2-0.1,0.4-0.1,0.7c0,0.1,0,0.1,0,0.2
				C15.3,27.7,15.3,27.8,15.3,27.9z M16.2,26.9l-0.8,1.2c0,0.1,0.1,0.1,0.1,0.2c0.1,0,0.1,0.1,0.2,0.1c0.2,0,0.3-0.1,0.4-0.3
				c0.1-0.2,0.1-0.4,0.1-0.7C16.3,27.2,16.3,27.1,16.2,26.9z"/>
			<path class="st18" d="M18.1,28.3v-1.8c-0.1,0.1-0.2,0.1-0.2,0.2c-0.1,0-0.2,0.1-0.3,0.1v-0.2c0.2-0.1,0.4-0.2,0.6-0.4h0.3v2h0.5
				v0.2h-1.4v-0.2H18.1z"/>
			<path class="st18" d="M20.5,28.3v-1.8c-0.1,0.1-0.2,0.1-0.2,0.2c-0.1,0-0.2,0.1-0.3,0.1v-0.2c0.2-0.1,0.4-0.2,0.6-0.4h0.3v2h0.5
				v0.2h-1.4v-0.2H20.5z"/>
			<path class="st18" d="M22.8,28.3v-1.8c-0.1,0.1-0.2,0.1-0.2,0.2c-0.1,0-0.2,0.1-0.3,0.1v-0.2c0.2-0.1,0.4-0.2,0.6-0.4h0.3v2h0.5
				v0.2h-1.4v-0.2H22.8z"/>
			<path class="st18" d="M25.3,26.2c0.3,0,0.5,0.1,0.6,0.3c0.1,0.2,0.2,0.5,0.2,0.9c0,0.4-0.1,0.7-0.2,0.9c-0.1,0.2-0.3,0.3-0.6,0.3
				s-0.5-0.1-0.6-0.3c-0.1-0.2-0.2-0.5-0.2-0.9c0-0.4,0.1-0.7,0.2-0.9C24.8,26.3,25,26.2,25.3,26.2z M24.8,27.9l0.8-1.2
				c-0.1-0.1-0.1-0.2-0.2-0.2c-0.1,0-0.1,0-0.2,0c-0.2,0-0.3,0.1-0.4,0.3c-0.1,0.2-0.1,0.4-0.1,0.7c0,0.1,0,0.1,0,0.2
				C24.8,27.7,24.8,27.8,24.8,27.9z M25.7,26.9l-0.8,1.2c0,0.1,0.1,0.1,0.1,0.2c0.1,0,0.1,0.1,0.2,0.1c0.2,0,0.3-0.1,0.4-0.3
				c0.1-0.2,0.1-0.4,0.1-0.7C25.8,27.2,25.8,27.1,25.7,26.9z"/>
			<path class="st18" d="M27.6,28.3v-1.8c-0.1,0.1-0.2,0.1-0.2,0.2c-0.1,0-0.2,0.1-0.3,0.1v-0.2c0.2-0.1,0.4-0.2,0.6-0.4h0.3v2h0.5
				v0.2H27v-0.2H27.6z"/>
			<path class="st18" d="M30,26.2c0.3,0,0.5,0.1,0.6,0.3c0.1,0.2,0.2,0.5,0.2,0.9c0,0.4-0.1,0.7-0.2,0.9c-0.1,0.2-0.3,0.3-0.6,0.3
				c-0.3,0-0.5-0.1-0.6-0.3c-0.1-0.2-0.2-0.5-0.2-0.9c0-0.4,0.1-0.7,0.2-0.9C29.6,26.3,29.8,26.2,30,26.2z M29.6,27.9l0.8-1.2
				c0-0.1-0.1-0.2-0.2-0.2c-0.1,0-0.1,0-0.2,0c-0.2,0-0.3,0.1-0.4,0.3c-0.1,0.2-0.1,0.4-0.1,0.7c0,0.1,0,0.1,0,0.2
				C29.5,27.7,29.6,27.8,29.6,27.9z M30.5,26.9l-0.8,1.2c0,0.1,0.1,0.1,0.1,0.2c0.1,0,0.1,0.1,0.2,0.1c0.2,0,0.3-0.1,0.4-0.3
				c0.1-0.2,0.1-0.4,0.1-0.7C30.5,27.2,30.5,27.1,30.5,26.9z"/>
			<path class="st18" d="M32.3,28.3v-1.8c-0.1,0.1-0.2,0.1-0.2,0.2c-0.1,0-0.2,0.1-0.3,0.1v-0.2c0.2-0.1,0.4-0.2,0.6-0.4h0.3v2h0.5
				v0.2h-1.4v-0.2H32.3z"/>
			<path class="st18" d="M15.8,30.2c0.3,0,0.5,0.1,0.6,0.3c0.1,0.2,0.2,0.5,0.2,0.9c0,0.4-0.1,0.7-0.2,0.9c-0.1,0.2-0.3,0.3-0.6,0.3
				c-0.3,0-0.5-0.1-0.6-0.3c-0.1-0.2-0.2-0.5-0.2-0.9c0-0.4,0.1-0.7,0.2-0.9C15.3,30.3,15.5,30.2,15.8,30.2z M15.3,31.9l0.8-1.2
				c0-0.1-0.1-0.2-0.2-0.2c-0.1,0-0.1,0-0.2,0c-0.2,0-0.3,0.1-0.4,0.3c-0.1,0.2-0.1,0.4-0.1,0.7c0,0.1,0,0.1,0,0.2
				C15.3,31.7,15.3,31.8,15.3,31.9z M16.2,30.9l-0.8,1.2c0,0.1,0.1,0.1,0.1,0.2c0.1,0,0.1,0.1,0.2,0.1c0.2,0,0.3-0.1,0.4-0.3
				c0.1-0.2,0.1-0.4,0.1-0.7C16.3,31.2,16.3,31.1,16.2,30.9z"/>
			<path class="st18" d="M18.1,32.3v-1.8c-0.1,0.1-0.2,0.1-0.2,0.2c-0.1,0-0.2,0.1-0.3,0.1v-0.2c0.2-0.1,0.4-0.2,0.6-0.4h0.3v2h0.5
				v0.2h-1.4v-0.2H18.1z"/>
			<path class="st18" d="M20.5,32.3v-1.8c-0.1,0.1-0.2,0.1-0.2,0.2c-0.1,0-0.2,0.1-0.3,0.1v-0.2c0.2-0.1,0.4-0.2,0.6-0.4h0.3v2h0.5
				v0.2h-1.4v-0.2H20.5z"/>
			<path class="st18" d="M22.9,30.2c0.3,0,0.5,0.1,0.6,0.3c0.1,0.2,0.2,0.5,0.2,0.9c0,0.4-0.1,0.7-0.2,0.9c-0.1,0.2-0.3,0.3-0.6,0.3
				s-0.5-0.1-0.6-0.3c-0.1-0.2-0.2-0.5-0.2-0.9c0-0.4,0.1-0.7,0.2-0.9C22.5,30.3,22.6,30.2,22.9,30.2z M22.5,31.9l0.8-1.2
				c-0.1-0.1-0.1-0.2-0.2-0.2c-0.1,0-0.1,0-0.2,0c-0.2,0-0.3,0.1-0.4,0.3c-0.1,0.2-0.1,0.4-0.1,0.7c0,0.1,0,0.1,0,0.2
				C22.4,31.7,22.4,31.8,22.5,31.9z M23.3,30.9l-0.8,1.2c0,0.1,0.1,0.1,0.1,0.2c0.1,0,0.1,0.1,0.2,0.1c0.2,0,0.3-0.1,0.4-0.3
				c0.1-0.2,0.1-0.4,0.1-0.7C23.4,31.2,23.4,31.1,23.3,30.9z"/>
			<path class="st18" d="M25.2,32.3v-1.8c-0.1,0.1-0.2,0.1-0.2,0.2c-0.1,0-0.2,0.1-0.3,0.1v-0.2c0.2-0.1,0.4-0.2,0.6-0.4h0.3v2H26
				v0.2h-1.4v-0.2H25.2z"/>
			<path class="st18" d="M27.6,32.3v-1.8c-0.1,0.1-0.2,0.1-0.2,0.2c-0.1,0-0.2,0.1-0.3,0.1v-0.2c0.2-0.1,0.4-0.2,0.6-0.4h0.3v2h0.5
				v0.2H27v-0.2H27.6z"/>
			<path class="st18" d="M30,32.3v-1.8c-0.1,0.1-0.2,0.1-0.2,0.2c-0.1,0-0.2,0.1-0.3,0.1v-0.2c0.2-0.1,0.4-0.2,0.6-0.4h0.3v2h0.5
				v0.2h-1.4v-0.2H30z"/>
			<path class="st18" d="M32.4,30.2c0.3,0,0.5,0.1,0.6,0.3c0.1,0.2,0.2,0.5,0.2,0.9c0,0.4-0.1,0.7-0.2,0.9c-0.1,0.2-0.3,0.3-0.6,0.3
				c-0.3,0-0.5-0.1-0.6-0.3c-0.1-0.2-0.2-0.5-0.2-0.9c0-0.4,0.1-0.7,0.2-0.9C32,30.3,32.2,30.2,32.4,30.2z M32,31.9l0.8-1.2
				c0-0.1-0.1-0.2-0.2-0.2c-0.1,0-0.1,0-0.2,0c-0.2,0-0.3,0.1-0.4,0.3c-0.1,0.2-0.1,0.4-0.1,0.7c0,0.1,0,0.1,0,0.2
				C31.9,31.7,31.9,31.8,32,31.9z M32.8,30.9l-0.8,1.2c0,0.1,0.1,0.1,0.1,0.2c0.1,0,0.1,0.1,0.2,0.1c0.2,0,0.3-0.1,0.4-0.3
				c0.1-0.2,0.1-0.4,0.1-0.7C32.9,31.2,32.9,31.1,32.8,30.9z"/>
			<path class="st18" d="M15.8,34.2c0.3,0,0.5,0.1,0.6,0.3c0.1,0.2,0.2,0.5,0.2,0.9c0,0.4-0.1,0.7-0.2,0.9c-0.1,0.2-0.3,0.3-0.6,0.3
				c-0.3,0-0.5-0.1-0.6-0.3c-0.1-0.2-0.2-0.5-0.2-0.9c0-0.4,0.1-0.7,0.2-0.9C15.3,34.3,15.5,34.2,15.8,34.2z M15.3,35.9l0.8-1.2
				c0-0.1-0.1-0.2-0.2-0.2c-0.1,0-0.1,0-0.2,0c-0.2,0-0.3,0.1-0.4,0.3c-0.1,0.2-0.1,0.4-0.1,0.7c0,0.1,0,0.1,0,0.2
				C15.3,35.7,15.3,35.8,15.3,35.9z M16.2,34.9l-0.8,1.2c0,0.1,0.1,0.1,0.1,0.2c0.1,0,0.1,0.1,0.2,0.1c0.2,0,0.3-0.1,0.4-0.3
				c0.1-0.2,0.1-0.4,0.1-0.7C16.3,35.2,16.3,35.1,16.2,34.9z"/>
			<path class="st18" d="M18.1,36.3v-1.8c-0.1,0.1-0.2,0.1-0.2,0.2c-0.1,0-0.2,0.1-0.3,0.1v-0.2c0.2-0.1,0.4-0.2,0.6-0.4h0.3v2h0.5
				v0.2h-1.4v-0.2H18.1z"/>
			<path class="st18" d="M20.5,36.3v-1.8c-0.1,0.1-0.2,0.1-0.2,0.2c-0.1,0-0.2,0.1-0.3,0.1v-0.2c0.2-0.1,0.4-0.2,0.6-0.4h0.3v2h0.5
				v0.2h-1.4v-0.2H20.5z"/>
			<path class="st18" d="M22.9,34.2c0.3,0,0.5,0.1,0.6,0.3c0.1,0.2,0.2,0.5,0.2,0.9c0,0.4-0.1,0.7-0.2,0.9c-0.1,0.2-0.3,0.3-0.6,0.3
				s-0.5-0.1-0.6-0.3c-0.1-0.2-0.2-0.5-0.2-0.9c0-0.4,0.1-0.7,0.2-0.9C22.5,34.3,22.6,34.2,22.9,34.2z M22.5,35.9l0.8-1.2
				c-0.1-0.1-0.1-0.2-0.2-0.2c-0.1,0-0.1,0-0.2,0c-0.2,0-0.3,0.1-0.4,0.3c-0.1,0.2-0.1,0.4-0.1,0.7c0,0.1,0,0.1,0,0.2
				C22.4,35.7,22.4,35.8,22.5,35.9z M23.3,34.9l-0.8,1.2c0,0.1,0.1,0.1,0.1,0.2c0.1,0,0.1,0.1,0.2,0.1c0.2,0,0.3-0.1,0.4-0.3
				c0.1-0.2,0.1-0.4,0.1-0.7C23.4,35.2,23.4,35.1,23.3,34.9z"/>
			<path class="st18" d="M25.2,36.3v-1.8c-0.1,0.1-0.2,0.1-0.2,0.2c-0.1,0-0.2,0.1-0.3,0.1v-0.2c0.2-0.1,0.4-0.2,0.6-0.4h0.3v2H26
				v0.2h-1.4v-0.2H25.2z"/>
			<path class="st18" d="M27.7,34.2c0.3,0,0.5,0.1,0.6,0.3c0.1,0.2,0.2,0.5,0.2,0.9c0,0.4-0.1,0.7-0.2,0.9c-0.1,0.2-0.3,0.3-0.6,0.3
				c-0.3,0-0.5-0.1-0.6-0.3c-0.1-0.2-0.2-0.5-0.2-0.9c0-0.4,0.1-0.7,0.2-0.9C27.2,34.3,27.4,34.2,27.7,34.2z M27.2,35.9l0.8-1.2
				c0-0.1-0.1-0.2-0.2-0.2c-0.1,0-0.1,0-0.2,0c-0.2,0-0.3,0.1-0.4,0.3c-0.1,0.2-0.1,0.4-0.1,0.7c0,0.1,0,0.1,0,0.2
				C27.2,35.7,27.2,35.8,27.2,35.9z M28.1,34.9l-0.8,1.2c0,0.1,0.1,0.1,0.1,0.2c0.1,0,0.1,0.1,0.2,0.1c0.2,0,0.3-0.1,0.4-0.3
				c0.1-0.2,0.1-0.4,0.1-0.7C28.2,35.2,28.1,35.1,28.1,34.9z"/>
			<path class="st18" d="M30,34.2c0.3,0,0.5,0.1,0.6,0.3c0.1,0.2,0.2,0.5,0.2,0.9c0,0.4-0.1,0.7-0.2,0.9c-0.1,0.2-0.3,0.3-0.6,0.3
				c-0.3,0-0.5-0.1-0.6-0.3c-0.1-0.2-0.2-0.5-0.2-0.9c0-0.4,0.1-0.7,0.2-0.9C29.6,34.3,29.8,34.2,30,34.2z M29.6,35.9l0.8-1.2
				c0-0.1-0.1-0.2-0.2-0.2c-0.1,0-0.1,0-0.2,0c-0.2,0-0.3,0.1-0.4,0.3c-0.1,0.2-0.1,0.4-0.1,0.7c0,0.1,0,0.1,0,0.2
				C29.5,35.7,29.6,35.8,29.6,35.9z M30.5,34.9l-0.8,1.2c0,0.1,0.1,0.1,0.1,0.2c0.1,0,0.1,0.1,0.2,0.1c0.2,0,0.3-0.1,0.4-0.3
				c0.1-0.2,0.1-0.4,0.1-0.7C30.5,35.2,30.5,35.1,30.5,34.9z"/>
			<path class="st18" d="M32.3,36.3v-1.8c-0.1,0.1-0.2,0.1-0.2,0.2c-0.1,0-0.2,0.1-0.3,0.1v-0.2c0.2-0.1,0.4-0.2,0.6-0.4h0.3v2h0.5
				v0.2h-1.4v-0.2H32.3z"/>
			<path class="st18" d="M15.8,38.2c0.3,0,0.5,0.1,0.6,0.3c0.1,0.2,0.2,0.5,0.2,0.9c0,0.4-0.1,0.7-0.2,0.9c-0.1,0.2-0.3,0.3-0.6,0.3
				c-0.3,0-0.5-0.1-0.6-0.3c-0.1-0.2-0.2-0.5-0.2-0.9c0-0.4,0.1-0.7,0.2-0.9C15.3,38.3,15.5,38.2,15.8,38.2z M15.3,39.9l0.8-1.2
				c0-0.1-0.1-0.2-0.2-0.2c-0.1,0-0.1,0-0.2,0c-0.2,0-0.3,0.1-0.4,0.3c-0.1,0.2-0.1,0.4-0.1,0.7c0,0.1,0,0.1,0,0.2
				C15.3,39.7,15.3,39.8,15.3,39.9z M16.2,38.9l-0.8,1.2c0,0.1,0.1,0.1,0.1,0.2c0.1,0,0.1,0.1,0.2,0.1c0.2,0,0.3-0.1,0.4-0.3
				c0.1-0.2,0.1-0.4,0.1-0.7C16.3,39.2,16.3,39.1,16.2,38.9z"/>
			<path class="st18" d="M18.1,40.3v-1.8c-0.1,0.1-0.2,0.1-0.2,0.2c-0.1,0-0.2,0.1-0.3,0.1v-0.2c0.2-0.1,0.4-0.2,0.6-0.4h0.3v2h0.5
				v0.2h-1.4v-0.2H18.1z"/>
			<path class="st18" d="M20.5,40.3v-1.8c-0.1,0.1-0.2,0.1-0.2,0.2c-0.1,0-0.2,0.1-0.3,0.1v-0.2c0.2-0.1,0.4-0.2,0.6-0.4h0.3v2h0.5
				v0.2h-1.4v-0.2H20.5z"/>
			<path class="st18" d="M22.9,38.2c0.3,0,0.5,0.1,0.6,0.3c0.1,0.2,0.2,0.5,0.2,0.9c0,0.4-0.1,0.7-0.2,0.9c-0.1,0.2-0.3,0.3-0.6,0.3
				s-0.5-0.1-0.6-0.3c-0.1-0.2-0.2-0.5-0.2-0.9c0-0.4,0.1-0.7,0.2-0.9C22.5,38.3,22.6,38.2,22.9,38.2z M22.5,39.9l0.8-1.2
				c-0.1-0.1-0.1-0.2-0.2-0.2c-0.1,0-0.1,0-0.2,0c-0.2,0-0.3,0.1-0.4,0.3c-0.1,0.2-0.1,0.4-0.1,0.7c0,0.1,0,0.1,0,0.2
				C22.4,39.7,22.4,39.8,22.5,39.9z M23.3,38.9l-0.8,1.2c0,0.1,0.1,0.1,0.1,0.2c0.1,0,0.1,0.1,0.2,0.1c0.2,0,0.3-0.1,0.4-0.3
				c0.1-0.2,0.1-0.4,0.1-0.7C23.4,39.2,23.4,39.1,23.3,38.9z"/>
			<path class="st18" d="M25.2,40.3v-1.8c-0.1,0.1-0.2,0.1-0.2,0.2c-0.1,0-0.2,0.1-0.3,0.1v-0.2c0.2-0.1,0.4-0.2,0.6-0.4h0.3v2H26
				v0.2h-1.4v-0.2H25.2z"/>
			<path class="st18" d="M27.7,38.2c0.3,0,0.5,0.1,0.6,0.3c0.1,0.2,0.2,0.5,0.2,0.9c0,0.4-0.1,0.7-0.2,0.9c-0.1,0.2-0.3,0.3-0.6,0.3
				c-0.3,0-0.5-0.1-0.6-0.3c-0.1-0.2-0.2-0.5-0.2-0.9c0-0.4,0.1-0.7,0.2-0.9C27.2,38.3,27.4,38.2,27.7,38.2z M27.2,39.9l0.8-1.2
				c0-0.1-0.1-0.2-0.2-0.2c-0.1,0-0.1,0-0.2,0c-0.2,0-0.3,0.1-0.4,0.3c-0.1,0.2-0.1,0.4-0.1,0.7c0,0.1,0,0.1,0,0.2
				C27.2,39.7,27.2,39.8,27.2,39.9z M28.1,38.9l-0.8,1.2c0,0.1,0.1,0.1,0.1,0.2c0.1,0,0.1,0.1,0.2,0.1c0.2,0,0.3-0.1,0.4-0.3
				c0.1-0.2,0.1-0.4,0.1-0.7C28.2,39.2,28.1,39.1,28.1,38.9z"/>
			<path class="st18" d="M30,40.3v-1.8c-0.1,0.1-0.2,0.1-0.2,0.2c-0.1,0-0.2,0.1-0.3,0.1v-0.2c0.2-0.1,0.4-0.2,0.6-0.4h0.3v2h0.5
				v0.2h-1.4v-0.2H30z"/>
			<path class="st18" d="M32.3,40.3v-1.8c-0.1,0.1-0.2,0.1-0.2,0.2c-0.1,0-0.2,0.1-0.3,0.1v-0.2c0.2-0.1,0.4-0.2,0.6-0.4h0.3v2h0.5
				v0.2h-1.4v-0.2H32.3z"/>
			<path class="st18" d="M15.8,42.2c0.3,0,0.5,0.1,0.6,0.3c0.1,0.2,0.2,0.5,0.2,0.9c0,0.4-0.1,0.7-0.2,0.9c-0.1,0.2-0.3,0.3-0.6,0.3
				c-0.3,0-0.5-0.1-0.6-0.3c-0.1-0.2-0.2-0.5-0.2-0.9c0-0.4,0.1-0.7,0.2-0.9C15.3,42.3,15.5,42.2,15.8,42.2z M15.3,43.9l0.8-1.2
				c0-0.1-0.1-0.2-0.2-0.2c-0.1,0-0.1,0-0.2,0c-0.2,0-0.3,0.1-0.4,0.3c-0.1,0.2-0.1,0.4-0.1,0.7c0,0.1,0,0.1,0,0.2
				C15.3,43.7,15.3,43.8,15.3,43.9z M16.2,42.9l-0.8,1.2c0,0.1,0.1,0.1,0.1,0.2c0.1,0,0.1,0.1,0.2,0.1c0.2,0,0.3-0.1,0.4-0.3
				c0.1-0.2,0.1-0.4,0.1-0.7C16.3,43.2,16.3,43.1,16.2,42.9z"/>
			<path class="st18" d="M18.1,44.3v-1.8c-0.1,0.1-0.2,0.1-0.2,0.2c-0.1,0-0.2,0.1-0.3,0.1v-0.2c0.2-0.1,0.4-0.2,0.6-0.4h0.3v2h0.5
				v0.2h-1.4v-0.2H18.1z"/>
			<path class="st18" d="M20.5,44.3v-1.8c-0.1,0.1-0.2,0.1-0.2,0.2c-0.1,0-0.2,0.1-0.3,0.1v-0.2c0.2-0.1,0.4-0.2,0.6-0.4h0.3v2h0.5
				v0.2h-1.4v-0.2H20.5z"/>
			<path class="st18" d="M22.8,44.3v-1.8c-0.1,0.1-0.2,0.1-0.2,0.2c-0.1,0-0.2,0.1-0.3,0.1v-0.2c0.2-0.1,0.4-0.2,0.6-0.4h0.3v2h0.5
				v0.2h-1.4v-0.2H22.8z"/>
			<path class="st18" d="M25.3,42.2c0.3,0,0.5,0.1,0.6,0.3c0.1,0.2,0.2,0.5,0.2,0.9c0,0.4-0.1,0.7-0.2,0.9c-0.1,0.2-0.3,0.3-0.6,0.3
				s-0.5-0.1-0.6-0.3c-0.1-0.2-0.2-0.5-0.2-0.9c0-0.4,0.1-0.7,0.2-0.9C24.8,42.3,25,42.2,25.3,42.2z M24.8,43.9l0.8-1.2
				c-0.1-0.1-0.1-0.2-0.2-0.2c-0.1,0-0.1,0-0.2,0c-0.2,0-0.3,0.1-0.4,0.3c-0.1,0.2-0.1,0.4-0.1,0.7c0,0.1,0,0.1,0,0.2
				C24.8,43.7,24.8,43.8,24.8,43.9z M25.7,42.9l-0.8,1.2c0,0.1,0.1,0.1,0.1,0.2c0.1,0,0.1,0.1,0.2,0.1c0.2,0,0.3-0.1,0.4-0.3
				c0.1-0.2,0.1-0.4,0.1-0.7C25.8,43.2,25.8,43.1,25.7,42.9z"/>
			<path class="st18" d="M27.7,42.2c0.3,0,0.5,0.1,0.6,0.3c0.1,0.2,0.2,0.5,0.2,0.9c0,0.4-0.1,0.7-0.2,0.9c-0.1,0.2-0.3,0.3-0.6,0.3
				c-0.3,0-0.5-0.1-0.6-0.3c-0.1-0.2-0.2-0.5-0.2-0.9c0-0.4,0.1-0.7,0.2-0.9C27.2,42.3,27.4,42.2,27.7,42.2z M27.2,43.9l0.8-1.2
				c0-0.1-0.1-0.2-0.2-0.2c-0.1,0-0.1,0-0.2,0c-0.2,0-0.3,0.1-0.4,0.3c-0.1,0.2-0.1,0.4-0.1,0.7c0,0.1,0,0.1,0,0.2
				C27.2,43.7,27.2,43.8,27.2,43.9z M28.1,42.9l-0.8,1.2c0,0.1,0.1,0.1,0.1,0.2c0.1,0,0.1,0.1,0.2,0.1c0.2,0,0.3-0.1,0.4-0.3
				c0.1-0.2,0.1-0.4,0.1-0.7C28.2,43.2,28.1,43.1,28.1,42.9z"/>
			<path class="st18" d="M30,44.3v-1.8c-0.1,0.1-0.2,0.1-0.2,0.2c-0.1,0-0.2,0.1-0.3,0.1v-0.2c0.2-0.1,0.4-0.2,0.6-0.4h0.3v2h0.5
				v0.2h-1.4v-0.2H30z"/>
			<path class="st18" d="M32.4,42.2c0.3,0,0.5,0.1,0.6,0.3c0.1,0.2,0.2,0.5,0.2,0.9c0,0.4-0.1,0.7-0.2,0.9c-0.1,0.2-0.3,0.3-0.6,0.3
				c-0.3,0-0.5-0.1-0.6-0.3c-0.1-0.2-0.2-0.5-0.2-0.9c0-0.4,0.1-0.7,0.2-0.9C32,42.3,32.2,42.2,32.4,42.2z M32,43.9l0.8-1.2
				c0-0.1-0.1-0.2-0.2-0.2c-0.1,0-0.1,0-0.2,0c-0.2,0-0.3,0.1-0.4,0.3c-0.1,0.2-0.1,0.4-0.1,0.7c0,0.1,0,0.1,0,0.2
				C31.9,43.7,31.9,43.8,32,43.9z M32.8,42.9l-0.8,1.2c0,0.1,0.1,0.1,0.1,0.2c0.1,0,0.1,0.1,0.2,0.1c0.2,0,0.3-0.1,0.4-0.3
				c0.1-0.2,0.1-0.4,0.1-0.7C32.9,43.2,32.9,43.1,32.8,42.9z"/>
			<path class="st18" d="M15.8,46.2c0.3,0,0.5,0.1,0.6,0.3c0.1,0.2,0.2,0.5,0.2,0.9c0,0.4-0.1,0.7-0.2,0.9c-0.1,0.2-0.3,0.3-0.6,0.3
				c-0.3,0-0.5-0.1-0.6-0.3c-0.1-0.2-0.2-0.5-0.2-0.9c0-0.4,0.1-0.7,0.2-0.9C15.3,46.3,15.5,46.2,15.8,46.2z M15.3,47.9l0.8-1.2
				c0-0.1-0.1-0.2-0.2-0.2c-0.1,0-0.1,0-0.2,0c-0.2,0-0.3,0.1-0.4,0.3c-0.1,0.2-0.1,0.4-0.1,0.7c0,0.1,0,0.1,0,0.2
				C15.3,47.7,15.3,47.8,15.3,47.9z M16.2,46.9l-0.8,1.2c0,0.1,0.1,0.1,0.1,0.2c0.1,0,0.1,0.1,0.2,0.1c0.2,0,0.3-0.1,0.4-0.3
				c0.1-0.2,0.1-0.4,0.1-0.7C16.3,47.2,16.3,47.1,16.2,46.9z"/>
			<path class="st18" d="M18.1,48.3v-1.8c-0.1,0.1-0.2,0.1-0.2,0.2c-0.1,0-0.2,0.1-0.3,0.1v-0.2c0.2-0.1,0.4-0.2,0.6-0.4h0.3v2h0.5
				v0.2h-1.4v-0.2H18.1z"/>
			<path class="st18" d="M20.5,48.3v-1.8c-0.1,0.1-0.2,0.1-0.2,0.2c-0.1,0-0.2,0.1-0.3,0.1v-0.2c0.2-0.1,0.4-0.2,0.6-0.4h0.3v2h0.5
				v0.2h-1.4v-0.2H20.5z"/>
			<path class="st18" d="M22.9,46.2c0.3,0,0.5,0.1,0.6,0.3c0.1,0.2,0.2,0.5,0.2,0.9c0,0.4-0.1,0.7-0.2,0.9c-0.1,0.2-0.3,0.3-0.6,0.3
				s-0.5-0.1-0.6-0.3c-0.1-0.2-0.2-0.5-0.2-0.9c0-0.4,0.1-0.7,0.2-0.9C22.5,46.3,22.6,46.2,22.9,46.2z M22.5,47.9l0.8-1.2
				c-0.1-0.1-0.1-0.2-0.2-0.2c-0.1,0-0.1,0-0.2,0c-0.2,0-0.3,0.1-0.4,0.3c-0.1,0.2-0.1,0.4-0.1,0.7c0,0.1,0,0.1,0,0.2
				C22.4,47.7,22.4,47.8,22.5,47.9z M23.3,46.9l-0.8,1.2c0,0.1,0.1,0.1,0.1,0.2c0.1,0,0.1,0.1,0.2,0.1c0.2,0,0.3-0.1,0.4-0.3
				c0.1-0.2,0.1-0.4,0.1-0.7C23.4,47.2,23.4,47.1,23.3,46.9z"/>
			<path class="st18" d="M25.3,46.2c0.3,0,0.5,0.1,0.6,0.3c0.1,0.2,0.2,0.5,0.2,0.9c0,0.4-0.1,0.7-0.2,0.9c-0.1,0.2-0.3,0.3-0.6,0.3
				s-0.5-0.1-0.6-0.3c-0.1-0.2-0.2-0.5-0.2-0.9c0-0.4,0.1-0.7,0.2-0.9C24.8,46.3,25,46.2,25.3,46.2z M24.8,47.9l0.8-1.2
				c-0.1-0.1-0.1-0.2-0.2-0.2c-0.1,0-0.1,0-0.2,0c-0.2,0-0.3,0.1-0.4,0.3c-0.1,0.2-0.1,0.4-0.1,0.7c0,0.1,0,0.1,0,0.2
				C24.8,47.7,24.8,47.8,24.8,47.9z M25.7,46.9l-0.8,1.2c0,0.1,0.1,0.1,0.1,0.2c0.1,0,0.1,0.1,0.2,0.1c0.2,0,0.3-0.1,0.4-0.3
				c0.1-0.2,0.1-0.4,0.1-0.7C25.8,47.2,25.8,47.1,25.7,46.9z"/>
			<path class="st18" d="M27.7,46.2c0.3,0,0.5,0.1,0.6,0.3c0.1,0.2,0.2,0.5,0.2,0.9c0,0.4-0.1,0.7-0.2,0.9c-0.1,0.2-0.3,0.3-0.6,0.3
				c-0.3,0-0.5-0.1-0.6-0.3c-0.1-0.2-0.2-0.5-0.2-0.9c0-0.4,0.1-0.7,0.2-0.9C27.2,46.3,27.4,46.2,27.7,46.2z M27.2,47.9l0.8-1.2
				c0-0.1-0.1-0.2-0.2-0.2c-0.1,0-0.1,0-0.2,0c-0.2,0-0.3,0.1-0.4,0.3c-0.1,0.2-0.1,0.4-0.1,0.7c0,0.1,0,0.1,0,0.2
				C27.2,47.7,27.2,47.8,27.2,47.9z M28.1,46.9l-0.8,1.2c0,0.1,0.1,0.1,0.1,0.2c0.1,0,0.1,0.1,0.2,0.1c0.2,0,0.3-0.1,0.4-0.3
				c0.1-0.2,0.1-0.4,0.1-0.7C28.2,47.2,28.1,47.1,28.1,46.9z"/>
			<path class="st18" d="M30,46.2c0.3,0,0.5,0.1,0.6,0.3c0.1,0.2,0.2,0.5,0.2,0.9c0,0.4-0.1,0.7-0.2,0.9c-0.1,0.2-0.3,0.3-0.6,0.3
				c-0.3,0-0.5-0.1-0.6-0.3c-0.1-0.2-0.2-0.5-0.2-0.9c0-0.4,0.1-0.7,0.2-0.9C29.6,46.3,29.8,46.2,30,46.2z M29.6,47.9l0.8-1.2
				c0-0.1-0.1-0.2-0.2-0.2c-0.1,0-0.1,0-0.2,0c-0.2,0-0.3,0.1-0.4,0.3c-0.1,0.2-0.1,0.4-0.1,0.7c0,0.1,0,0.1,0,0.2
				C29.5,47.7,29.6,47.8,29.6,47.9z M30.5,46.9l-0.8,1.2c0,0.1,0.1,0.1,0.1,0.2c0.1,0,0.1,0.1,0.2,0.1c0.2,0,0.3-0.1,0.4-0.3
				c0.1-0.2,0.1-0.4,0.1-0.7C30.5,47.2,30.5,47.1,30.5,46.9z"/>
			<path class="st18" d="M32.3,48.3v-1.8c-0.1,0.1-0.2,0.1-0.2,0.2c-0.1,0-0.2,0.1-0.3,0.1v-0.2c0.2-0.1,0.4-0.2,0.6-0.4h0.3v2h0.5
				v0.2h-1.4v-0.2H32.3z"/>
			<path class="st18" d="M15.8,50.2c0.3,0,0.5,0.1,0.6,0.3c0.1,0.2,0.2,0.5,0.2,0.9c0,0.4-0.1,0.7-0.2,0.9c-0.1,0.2-0.3,0.3-0.6,0.3
				c-0.3,0-0.5-0.1-0.6-0.3c-0.1-0.2-0.2-0.5-0.2-0.9c0-0.4,0.1-0.7,0.2-0.9C15.3,50.3,15.5,50.2,15.8,50.2z M15.3,51.9l0.8-1.2
				c0-0.1-0.1-0.2-0.2-0.2c-0.1,0-0.1,0-0.2,0c-0.2,0-0.3,0.1-0.4,0.3c-0.1,0.2-0.1,0.4-0.1,0.7c0,0.1,0,0.1,0,0.2
				C15.3,51.7,15.3,51.8,15.3,51.9z M16.2,50.9l-0.8,1.2c0,0.1,0.1,0.1,0.1,0.2c0.1,0,0.1,0.1,0.2,0.1c0.2,0,0.3-0.1,0.4-0.3
				c0.1-0.2,0.1-0.4,0.1-0.7C16.3,51.2,16.3,51.1,16.2,50.9z"/>
			<path class="st18" d="M18.1,52.3v-1.8c-0.1,0.1-0.2,0.1-0.2,0.2c-0.1,0-0.2,0.1-0.3,0.1v-0.2c0.2-0.1,0.4-0.2,0.6-0.4h0.3v2h0.5
				v0.2h-1.4v-0.2H18.1z"/>
			<path class="st18" d="M20.5,52.3v-1.8c-0.1,0.1-0.2,0.1-0.2,0.2c-0.1,0-0.2,0.1-0.3,0.1v-0.2c0.2-0.1,0.4-0.2,0.6-0.4h0.3v2h0.5
				v0.2h-1.4v-0.2H20.5z"/>
			<path class="st18" d="M22.9,50.2c0.3,0,0.5,0.1,0.6,0.3c0.1,0.2,0.2,0.5,0.2,0.9c0,0.4-0.1,0.7-0.2,0.9c-0.1,0.2-0.3,0.3-0.6,0.3
				s-0.5-0.1-0.6-0.3c-0.1-0.2-0.2-0.5-0.2-0.9c0-0.4,0.1-0.7,0.2-0.9C22.5,50.3,22.6,50.2,22.9,50.2z M22.5,51.9l0.8-1.2
				c-0.1-0.1-0.1-0.2-0.2-0.2c-0.1,0-0.1,0-0.2,0c-0.2,0-0.3,0.1-0.4,0.3c-0.1,0.2-0.1,0.4-0.1,0.7c0,0.1,0,0.1,0,0.2
				C22.4,51.7,22.4,51.8,22.5,51.9z M23.3,50.9l-0.8,1.2c0,0.1,0.1,0.1,0.1,0.2c0.1,0,0.1,0.1,0.2,0.1c0.2,0,0.3-0.1,0.4-0.3
				c0.1-0.2,0.1-0.4,0.1-0.7C23.4,51.2,23.4,51.1,23.3,50.9z"/>
			<path class="st18" d="M25.3,50.2c0.3,0,0.5,0.1,0.6,0.3c0.1,0.2,0.2,0.5,0.2,0.9c0,0.4-0.1,0.7-0.2,0.9c-0.1,0.2-0.3,0.3-0.6,0.3
				s-0.5-0.1-0.6-0.3c-0.1-0.2-0.2-0.5-0.2-0.9c0-0.4,0.1-0.7,0.2-0.9C24.8,50.3,25,50.2,25.3,50.2z M24.8,51.9l0.8-1.2
				c-0.1-0.1-0.1-0.2-0.2-0.2c-0.1,0-0.1,0-0.2,0c-0.2,0-0.3,0.1-0.4,0.3c-0.1,0.2-0.1,0.4-0.1,0.7c0,0.1,0,0.1,0,0.2
				C24.8,51.7,24.8,51.8,24.8,51.9z M25.7,50.9l-0.8,1.2c0,0.1,0.1,0.1,0.1,0.2c0.1,0,0.1,0.1,0.2,0.1c0.2,0,0.3-0.1,0.4-0.3
				c0.1-0.2,0.1-0.4,0.1-0.7C25.8,51.2,25.8,51.1,25.7,50.9z"/>
			<path class="st18" d="M27.6,52.3v-1.8c-0.1,0.1-0.2,0.1-0.2,0.2c-0.1,0-0.2,0.1-0.3,0.1v-0.2c0.2-0.1,0.4-0.2,0.6-0.4h0.3v2h0.5
				v0.2H27v-0.2H27.6z"/>
			<path class="st18" d="M30,52.3v-1.8c-0.1,0.1-0.2,0.1-0.2,0.2c-0.1,0-0.2,0.1-0.3,0.1v-0.2c0.2-0.1,0.4-0.2,0.6-0.4h0.3v2h0.5
				v0.2h-1.4v-0.2H30z"/>
			<path class="st18" d="M32.4,50.2c0.3,0,0.5,0.1,0.6,0.3c0.1,0.2,0.2,0.5,0.2,0.9c0,0.4-0.1,0.7-0.2,0.9c-0.1,0.2-0.3,0.3-0.6,0.3
				c-0.3,0-0.5-0.1-0.6-0.3c-0.1-0.2-0.2-0.5-0.2-0.9c0-0.4,0.1-0.7,0.2-0.9C32,50.3,32.2,50.2,32.4,50.2z M32,51.9l0.8-1.2
				c0-0.1-0.1-0.2-0.2-0.2c-0.1,0-0.1,0-0.2,0c-0.2,0-0.3,0.1-0.4,0.3c-0.1,0.2-0.1,0.4-0.1,0.7c0,0.1,0,0.1,0,0.2
				C31.9,51.7,31.9,51.8,32,51.9z M32.8,50.9l-0.8,1.2c0,0.1,0.1,0.1,0.1,0.2c0.1,0,0.1,0.1,0.2,0.1c0.2,0,0.3-0.1,0.4-0.3
				c0.1-0.2,0.1-0.4,0.1-0.7C32.9,51.2,32.9,51.1,32.8,50.9z"/>
		</g>
	</g>
	<g>
		<circle class="st19" cx="39.7" cy="39.7" r="5.7"/>
		<g>
			<line class="st20" x1="39.7" y1="36.9" x2="39.7" y2="42.5"/>
			<line class="st21" x1="36.9" y1="39.7" x2="42.5" y2="39.7"/>
		</g>
	</g>
	<polygon class="st22" points="28.3,31.2 36.9,31.2 28.3,22.7 	"/>
	<g>
		<g>
			<polyline class="st12" points="155.9,39.7 170.1,39.7 170.1,28.3 210.1,28.3 			"/>
			<g>
				<polygon class="st14" points="215.4,28.3 208,31.4 209.7,28.3 208,25.3 				"/>
			</g>
		</g>
	</g>
	<g>
		<g>
			<line class="st12" x1="155.9" y1="51" x2="157.4" y2="51"/>
			<line class="st23" x1="160.8" y1="51" x2="172.6" y2="51"/>
			<polyline class="st12" points="174.2,51 175.7,51 175.7,49.5 			"/>
			<line class="st24" x1="175.7" y1="46.7" x2="175.7" y2="42.6"/>
			<polyline class="st12" points="175.7,41.2 175.7,39.7 177.2,39.7 			"/>
			<line class="st25" x1="180.1" y1="39.7" x2="201.5" y2="39.7"/>
			<line class="st12" x1="203" y1="39.7" x2="204.5" y2="39.7"/>
			<g>
				<polygon class="st14" points="209.8,39.7 202.3,42.7 204.1,39.7 202.3,36.6 				"/>
			</g>
		</g>
	</g>
	<g>
		<g>
			<polyline class="st12" points="155.9,62.4 181.4,62.4 181.4,51 198.8,51 			"/>
			<g>
				<polygon class="st14" points="204.1,51 196.6,54.1 198.4,51 196.6,48 				"/>
			</g>
		</g>
	</g>
</g>
<g id="Layer_2">
	<rect x="138.9" y="5.7" class="st26" width="17" height="68"/>
	<text transform="matrix(0 -1 1 0 149.9517 71.5216)" class="st27 st28">Syscall Shim Layer</text>
	<rect x="42.5" y="45.4" class="st26" width="22.7" height="11.3"/>
	<text transform="matrix(1 0 0 1 43.9123 53.899)" class="st29 st30">musl</text>
	<rect x="-2.8" y="73.7" class="st26" width="82.2" height="19.8"/>
	<text transform="matrix(1 0 0 1 5.3465 80.7914)"><tspan x="0" y="0" class="st29 st28">Application Sources </tspan><tspan x="-3.4" y="9" class="st29 st31">(Object files, native build)</tspan></text>
	<rect x="96.4" y="45.4" class="st26" width="22.7" height="11.3"/>
	<text transform="matrix(1 0 0 1 97.7704 53.899)" class="st29 st30">musl</text>
	<rect x="82.2" y="73.7" class="st26" width="51" height="19.8"/>
	<text transform="matrix(1 0 0 1 83.3314 80.7914)"><tspan x="0" y="0" class="st29 st28">Unikrafts musl</tspan><tspan x="10.6" y="8.4" class="st29 st28">libc glue</tspan></text>
	<rect x="164.4" y="8.5" class="st26" width="48.2" height="8.5"/>
	<text transform="matrix(1 0 0 1 164.4096 13.199)" class="st32 st33">syscall(0, ...)</text>
	<rect x="184.3" y="42.5" class="st26" width="11.3" height="8.5"/>
	<text transform="matrix(1 0 0 1 185.4212 47.2148)" class="st32 st33">160</text>
	<rect x="184.3" y="31.2" class="st26" width="11.3" height="8.5"/>
	<text transform="matrix(1 0 0 1 185.4212 35.8762)" class="st32 st33">...</text>
	<rect x="184.3" y="19.8" class="st26" width="11.3" height="8.5"/>
	<text transform="matrix(1 0 0 1 188.4212 24.5376)" class="st32 st33">1</text>
	<rect x="192.8" y="73.7" class="st26" width="62.4" height="19.8"/>
	<text transform="matrix(1 0 0 1 210.7478 80.7914)"><tspan x="0" y="0" class="st29 st28">Unikraft</tspan><tspan x="-10.7" y="8.4" class="st29 st28">micro-libraries</tspan></text>
	<rect x="51" y="2.8" class="st26" width="56.7" height="11.3"/>
	<text transform="matrix(1 0 0 1 52.1361 9.9254)" class="st29 st28">Link Object Files</text>
</g>
</svg>
