<?xml version="1.0" encoding="utf-8"?>
<!-- Generator: Adobe Illustrator 23.0.6, SVG Export Plug-In . SVG Version: 6.00 Build 0)  -->
<svg version="1.1" id="OBJECTS" xmlns="http://www.w3.org/2000/svg" xmlns:xlink="http://www.w3.org/1999/xlink" x="0px" y="0px"
	 viewBox="0 0 750 500" style="enable-background:new 0 0 750 500;" xml:space="preserve">
<style type="text/css">
	.st0{clip-path:url(#SVGID_2_);}
	.st1{fill:url(#SVGID_3_);}
	.st2{fill:url(#SVGID_4_);}
	.st3{fill:url(#SVGID_5_);}
	.st4{fill:url(#SVGID_6_);}
	.st5{fill:url(#SVGID_7_);}
	.st6{fill:url(#SVGID_8_);}
	.st7{fill:#C1D8E8;}
	.st8{fill:url(#SVGID_9_);}
	.st9{clip-path:url(#SVGID_2_);fill:none;stroke:#C1D8E8;stroke-miterlimit:10;}
	.st10{fill:#FFFFFF;}
	.st11{clip-path:url(#SVGID_2_);fill:#FFFFFF;}
	.st12{clip-path:url(#SVGID_2_);fill:#C1D8E8;}
	.st13{clip-path:url(#SVGID_2_);fill:none;stroke:#FFFFFF;stroke-miterlimit:10;}
</style>
<g>
	<defs>
		<rect id="SVGID_1_" width="750" height="500"/>
	</defs>
	<clipPath id="SVGID_2_">
		<use xlink:href="#SVGID_1_"  style="overflow:visible;"/>
	</clipPath>
	<g class="st0">
		<linearGradient id="SVGID_3_" gradientUnits="userSpaceOnUse" x1="533.4023" y1="-472.0781" x2="82.9247" y2="319.8499">
			<stop  offset="0" style="stop-color:#000000;stop-opacity:0"/>
			<stop  offset="0.1903" style="stop-color:#000204;stop-opacity:0.1903"/>
			<stop  offset="0.3617" style="stop-color:#00060F;stop-opacity:0.3617"/>
			<stop  offset="0.5258" style="stop-color:#000F21;stop-opacity:0.5258"/>
			<stop  offset="0.6854" style="stop-color:#001A3B;stop-opacity:0.6854"/>
			<stop  offset="0.8418" style="stop-color:#00295C;stop-opacity:0.8418"/>
			<stop  offset="0.9938" style="stop-color:#003B84;stop-opacity:0.9938"/>
			<stop  offset="1" style="stop-color:#003C86"/>
		</linearGradient>
		<path class="st1" d="M-5.2-5.5v219c30.3,4.3,61.6,2.7,91.5-3.7c50.5-10.7,97.5-34.2,140.8-62.3c60.3-39.1,116-88.4,184.9-109
			c33.7-10.1,69.6-12.9,101.8-27.1c9.7-4.3,19.1-10,27.4-16.8H-5.2z"/>
	</g>
	<g class="st0">
		<g>
			<linearGradient id="SVGID_4_" gradientUnits="userSpaceOnUse" x1="361.2788" y1="-76.4653" x2="140.3833" y2="311.8634">
				<stop  offset="0" style="stop-color:#000000;stop-opacity:0"/>
				<stop  offset="1.811987e-02" style="stop-color:#000205;stop-opacity:1.811987e-02"/>
				<stop  offset="0.1641" style="stop-color:#00142D;stop-opacity:0.1641"/>
				<stop  offset="0.3152" style="stop-color:#00224D;stop-opacity:0.3152"/>
				<stop  offset="0.4706" style="stop-color:#002E66;stop-opacity:0.4706"/>
				<stop  offset="0.6319" style="stop-color:#003678;stop-opacity:0.6319"/>
				<stop  offset="0.8029" style="stop-color:#003A83;stop-opacity:0.8029"/>
				<stop  offset="1" style="stop-color:#003C86"/>
			</linearGradient>
			<path class="st2" d="M1.9,233.6c18.6,4.9,37.5,8.1,56.7,8.5c18.4,0.4,36.9-1.9,54.8-6.1c18.4-4.3,35.9-10.9,53.3-18.1
				c15.8-6.6,31.2-14,46-22.5c30.1-17.2,57.8-38.2,83.1-61.8c3.2-3,6.4-6.1,9.6-9.2c3.5-3.5,7.4-6.5,11.3-9.6
				c1.8-1.4,3.5-2.8,5.2-4.2c1.6-1.3,2.5-2.6,3.7-4.3c1.6-2.1,4-3.7,6-5.4c2-1.7,3.9-3.3,5.9-5c14.8-12.6,29.7-25,44.7-37.3
				c7.6-6.1,15.7-11.4,24.1-16.3c8.3-4.9,16.8-9.9,25.3-14.4c17.1-9.2,35.8-14.9,54.2-20.6c4.7-1.4,9.3-2.9,13.9-4.4
				c0.8-0.2,0.4-1.5-0.3-1.2c-18.5,5.9-37.2,11.1-55.1,18.7C436,24,428,28.3,420.2,33c-8.1,4.8-16.5,9.3-24.5,14.4
				c-7.9,5.1-15.1,11-22.4,17c-7.3,6-14.6,12.1-21.9,18.2c-7.5,6.3-15,12.7-22.5,19.1c-1.5,1.3-3.1,2.5-4.3,4.1
				c-0.7,0.9-1.2,2-2,2.8c-0.9,0.9-2,1.6-3,2.4c-3.9,3.1-7.9,6.1-11.6,9.3c-3.4,2.9-6.4,6.2-9.6,9.3c-3.2,3-6.4,6-9.7,9
				c-6.5,5.9-13.1,11.5-19.9,17c-13.5,10.9-27.6,21-42.4,30.3c-14.6,9.2-29.8,17.4-45.5,24.6c-16.8,7.7-34,14.8-51.7,20.1
				c-18.1,5.4-36.7,9.1-55.6,10.1c-19.3,1-38.6-0.7-57.5-4.8c-4.7-1-9.3-2.2-13.9-3.4C1.4,232.2,1.1,233.4,1.9,233.6L1.9,233.6z"/>
		</g>
	</g>
	<g class="st0">
		<g>
			<linearGradient id="SVGID_5_" gradientUnits="userSpaceOnUse" x1="741.597" y1="420.2369" x2="694.0235" y2="503.8699">
				<stop  offset="0" style="stop-color:#000000;stop-opacity:0"/>
				<stop  offset="1.811987e-02" style="stop-color:#000205;stop-opacity:1.811987e-02"/>
				<stop  offset="0.1641" style="stop-color:#00142D;stop-opacity:0.1641"/>
				<stop  offset="0.3152" style="stop-color:#00224D;stop-opacity:0.3152"/>
				<stop  offset="0.4706" style="stop-color:#002E66;stop-opacity:0.4706"/>
				<stop  offset="0.6319" style="stop-color:#003678;stop-opacity:0.6319"/>
				<stop  offset="0.8029" style="stop-color:#003A83;stop-opacity:0.8029"/>
				<stop  offset="1" style="stop-color:#003C86"/>
			</linearGradient>
			<path class="st3" d="M749,424.3c-8.5,9.8-16.4,20-24.6,30.1c-3.9,4.9-7.8,10-12.2,14.5c-4.4,4.5-8.6,9.1-12.7,13.9
				c-4.7,5.3-9.2,10.8-13.8,16.2c-0.5,0.6,0.4,1.5,0.9,0.9c8.1-9.6,16.1-19.3,24.8-28.4c8.8-9.1,16.4-19.4,24.3-29.2
				c4.6-5.8,9.3-11.5,14.1-17.1C750.4,424.6,749.5,423.7,749,424.3L749,424.3z"/>
		</g>
	</g>
	<g class="st0">
		<g>
			<linearGradient id="SVGID_6_" gradientUnits="userSpaceOnUse" x1="647.4109" y1="147.2352" x2="419.1926" y2="548.437">
				<stop  offset="0" style="stop-color:#000000;stop-opacity:0"/>
				<stop  offset="1.811987e-02" style="stop-color:#000205;stop-opacity:1.811987e-02"/>
				<stop  offset="0.1641" style="stop-color:#00142D;stop-opacity:0.1641"/>
				<stop  offset="0.3152" style="stop-color:#00224D;stop-opacity:0.3152"/>
				<stop  offset="0.4706" style="stop-color:#002E66;stop-opacity:0.4706"/>
				<stop  offset="0.6319" style="stop-color:#003678;stop-opacity:0.6319"/>
				<stop  offset="0.8029" style="stop-color:#003A83;stop-opacity:0.8029"/>
				<stop  offset="1" style="stop-color:#003C86"/>
			</linearGradient>
			<path class="st4" d="M333.9,499.5c3.2-33.7,14.9-66.3,33.6-94.5c4.8-7.3,10.2-14,15.8-20.7c2.7-3.3,5.2-6.7,8.2-9.8
				c3-3.1,6-6.3,9-9.3c12-12.1,24.9-23.5,39.3-32.6c1.6-1,3.2-2,4.9-2.9c1.8-1.1,4-1.9,5.7-3.2c0.8-0.5,1.4-1.4,2.1-2
				c0.9-0.8,1.8-1.5,2.8-2.1c2.1-1.2,4.1-2.4,6.2-3.6c7.7-4.4,15.5-8.6,23.5-12.5c16-7.9,32.4-14.9,49.1-21.1
				c16.4-6.1,33.1-11.6,49.8-16.8c8.4-2.6,16.9-5.1,25.4-7.6c8.8-2.6,17.7-4.7,26.5-7.4c4.5-1.3,8.9-2.8,13.3-4.4
				c2.2-0.8,4.6-2.2,6.9-2.4c2.1-0.1,3.7,0.1,5.7-0.6c9.1-3.4,18.1-6.9,27.2-10.5c8.6-3.3,17.3-6.4,25.7-10.2
				c8.3-3.8,16.3-8.2,24.2-12.8c1.8-1,3.4-2,4.9-3.4c1.6-1.5,3.3-2.7,5.5-3.4c0.8-0.2,0.4-1.4-0.3-1.2c-3.9,1.2-6.2,4.4-9.6,6.3
				c-4.1,2.4-8.2,4.7-12.3,6.9c-8.5,4.5-17.2,8.5-26.2,11.9c-9.1,3.4-18.1,7-27.1,10.5c-2.3,0.9-4.5,1.7-6.8,2.6
				c-2.3,0.9-5,2.3-7.5,2.6c-1.8,0.2-3.5-0.3-5.2,0.3c-2.4,0.9-4.7,1.9-7.2,2.8c-8.9,3.2-18,5.5-27.1,7.9c-8.7,2.3-17.3,5-26,7.6
				c-17.1,5.1-34.1,10.5-50.9,16.5c-16.5,5.9-32.8,12.4-48.7,19.8c-8.2,3.8-16.3,7.9-24.2,12.2c-4,2.2-7.9,4.4-11.8,6.6
				c-1.8,1.1-3.9,2-5.6,3.3c-0.8,0.6-1.4,1.4-2.1,2.1c-1.1,1-2.2,1.6-3.4,2.3c-14.7,8-27.8,18.5-39.9,30c-6.3,6-12.6,12.1-18.3,18.6
				c-2.9,3.3-5.3,7-8.3,10.2c-2.8,3-5.3,6.4-7.7,9.7c-20.1,27.1-33.6,59-38.7,92.4c-0.6,3.9-1.1,7.9-1.4,11.9
				C332.6,500.3,333.8,500.3,333.9,499.5L333.9,499.5z"/>
		</g>
	</g>
	<g class="st0">
		<linearGradient id="SVGID_7_" gradientUnits="userSpaceOnUse" x1="419.217" y1="-331.1241" x2="102.0602" y2="226.4295">
			<stop  offset="0" style="stop-color:#000000;stop-opacity:0"/>
			<stop  offset="0.1903" style="stop-color:#000204;stop-opacity:0.1903"/>
			<stop  offset="0.3617" style="stop-color:#00060F;stop-opacity:0.3617"/>
			<stop  offset="0.5258" style="stop-color:#000F21;stop-opacity:0.5258"/>
			<stop  offset="0.6854" style="stop-color:#001A3B;stop-opacity:0.6854"/>
			<stop  offset="0.8418" style="stop-color:#00295C;stop-opacity:0.8418"/>
			<stop  offset="0.9938" style="stop-color:#003B84;stop-opacity:0.9938"/>
			<stop  offset="1" style="stop-color:#003C86"/>
		</linearGradient>
		<path class="st5" d="M-5.2-5.5V133c10,9.8,21.7,17.9,34.4,23.9c32.8,15.5,71.1,17.4,106.6,9.9c35.5-7.6,68.6-24.1,99.1-43.9
			c42.4-27.5,81.7-62.2,130.2-76.8c23.7-7.1,49-9.1,71.7-19.1c15.1-6.6,29.2-18.2,36.4-32.6H-5.2z"/>
	</g>
	<g class="st0">
		
			<linearGradient id="SVGID_8_" gradientUnits="userSpaceOnUse" x1="994.3774" y1="-170.8736" x2="394.7482" y2="883.2593" gradientTransform="matrix(-1 0 0 -1 1086.7572 963.6127)">
			<stop  offset="0" style="stop-color:#000000;stop-opacity:0"/>
			<stop  offset="0.1903" style="stop-color:#000204;stop-opacity:0.1903"/>
			<stop  offset="0.3617" style="stop-color:#00060F;stop-opacity:0.3617"/>
			<stop  offset="0.5258" style="stop-color:#000F21;stop-opacity:0.5258"/>
			<stop  offset="0.6854" style="stop-color:#001A3B;stop-opacity:0.6854"/>
			<stop  offset="0.8418" style="stop-color:#00295C;stop-opacity:0.8418"/>
			<stop  offset="0.9938" style="stop-color:#003B84;stop-opacity:0.9938"/>
			<stop  offset="1" style="stop-color:#003C86"/>
		</linearGradient>
		<path class="st6" d="M756.2,235.1c-14.4,1.4-28.7,3.6-42.8,6.6c-67.2,14.3-129.8,45.5-187.4,82.9
			c-80.2,52.1-154.5,117.7-246.1,145.1c-44.8,13.4-92.6,17.2-135.5,36.1c-0.3,0.1-0.7,0.3-1,0.4h612.8V235.1z"/>
	</g>
	<g class="st0">
		<path class="st7" d="M526.3-5.5h-1C530,51.7,554.5,105,595.6,146c43.2,43.2,99.9,68.1,160.6,70.9v-1
			C634.7,210.3,536.3,114.8,526.3-5.5z"/>
	</g>
	<g class="st0">
		
			<linearGradient id="SVGID_9_" gradientUnits="userSpaceOnUse" x1="924.1152" y1="-92.4341" x2="415.1696" y2="802.2792" gradientTransform="matrix(-1 0 0 -1 1086.7572 963.6127)">
			<stop  offset="0" style="stop-color:#000000;stop-opacity:0"/>
			<stop  offset="0.1903" style="stop-color:#000204;stop-opacity:0.1903"/>
			<stop  offset="0.3617" style="stop-color:#00060F;stop-opacity:0.3617"/>
			<stop  offset="0.5258" style="stop-color:#000F21;stop-opacity:0.5258"/>
			<stop  offset="0.6854" style="stop-color:#001A3B;stop-opacity:0.6854"/>
			<stop  offset="0.8418" style="stop-color:#00295C;stop-opacity:0.8418"/>
			<stop  offset="0.9938" style="stop-color:#003B84;stop-opacity:0.9938"/>
			<stop  offset="1" style="stop-color:#003C86"/>
		</linearGradient>
		<path class="st8" d="M756.2,280c-29.4-2.5-59.3-0.2-88.2,5.9c-57,12.1-110.2,38.6-159.1,70.4c-68.1,44.2-131.1,99.9-208.9,123.2
			c-34.7,10.4-71.6,14-105.4,26.7h561.5V280z"/>
	</g>
	<g class="st0">
		<path class="st7" d="M208.2,506.2C223.4,437.5,284.8,386,358,386c73.2,0,134.6,51.5,149.8,120.2h1C493.6,436.9,431.7,385,358,385
			c-73.8,0-135.6,52-150.8,121.2H208.2z"/>
	</g>
	
		<ellipse transform="matrix(0.5677 -0.8233 0.8233 0.5677 55.6896 618.4544)" class="st9" cx="616.7" cy="256.2" rx="30.6" ry="30.6"/>
	<g class="st0">
		<circle class="st7" cx="77.8" cy="47.9" r="1.2"/>
		<path class="st7" d="M91.9,47.9c0,0.7-0.5,1.2-1.2,1.2c-0.7,0-1.2-0.5-1.2-1.2c0-0.7,0.5-1.2,1.2-1.2
			C91.3,46.7,91.9,47.3,91.9,47.9z"/>
		<path class="st7" d="M104.7,47.9c0,0.7-0.5,1.2-1.2,1.2c-0.7,0-1.2-0.5-1.2-1.2c0-0.7,0.5-1.2,1.2-1.2
			C104.2,46.7,104.7,47.3,104.7,47.9z"/>
		<circle class="st7" cx="116.4" cy="47.9" r="1.2"/>
		<circle class="st10" cx="129.2" cy="47.9" r="1.2"/>
		<path class="st7" d="M143.3,47.9c0,0.7-0.5,1.2-1.2,1.2c-0.7,0-1.2-0.5-1.2-1.2c0-0.7,0.5-1.2,1.2-1.2
			C142.8,46.7,143.3,47.3,143.3,47.9z"/>
		<circle class="st7" cx="154.9" cy="47.9" r="1.2"/>
		<path class="st10" d="M79,62.2c0,0.7-0.5,1.2-1.2,1.2c-0.7,0-1.2-0.5-1.2-1.2c0-0.7,0.5-1.2,1.2-1.2C78.5,60.9,79,61.5,79,62.2z"
			/>
		<path class="st7" d="M91.9,62.2c0,0.7-0.5,1.2-1.2,1.2c-0.7,0-1.2-0.5-1.2-1.2c0-0.7,0.5-1.2,1.2-1.2
			C91.3,60.9,91.9,61.5,91.9,62.2z"/>
		<path class="st7" d="M104.7,62.2c0,0.7-0.5,1.2-1.2,1.2c-0.7,0-1.2-0.5-1.2-1.2c0-0.7,0.5-1.2,1.2-1.2
			C104.2,60.9,104.7,61.5,104.7,62.2z"/>
		<path class="st7" d="M117.6,62.2c0,0.7-0.5,1.2-1.2,1.2s-1.2-0.5-1.2-1.2c0-0.7,0.5-1.2,1.2-1.2S117.6,61.5,117.6,62.2z"/>
		<path class="st7" d="M130.4,62.2c0,0.7-0.5,1.2-1.2,1.2c-0.7,0-1.2-0.5-1.2-1.2c0-0.7,0.5-1.2,1.2-1.2
			C129.9,60.9,130.4,61.5,130.4,62.2z"/>
		<path class="st7" d="M143.3,62.2c0,0.7-0.5,1.2-1.2,1.2c-0.7,0-1.2-0.5-1.2-1.2c0-0.7,0.5-1.2,1.2-1.2
			C142.8,60.9,143.3,61.5,143.3,62.2z"/>
		<path class="st7" d="M156.1,62.2c0,0.7-0.5,1.2-1.2,1.2c-0.7,0-1.2-0.5-1.2-1.2c0-0.7,0.5-1.2,1.2-1.2
			C155.6,60.9,156.1,61.5,156.1,62.2z"/>
		<circle class="st7" cx="77.8" cy="76.4" r="1.2"/>
		<path class="st7" d="M91.9,76.4c0,0.7-0.5,1.2-1.2,1.2c-0.7,0-1.2-0.5-1.2-1.2c0-0.7,0.5-1.2,1.2-1.2
			C91.3,75.2,91.9,75.7,91.9,76.4z"/>
		<path class="st10" d="M104.7,76.4c0,0.7-0.5,1.2-1.2,1.2c-0.7,0-1.2-0.5-1.2-1.2c0-0.7,0.5-1.2,1.2-1.2
			C104.2,75.2,104.7,75.7,104.7,76.4z"/>
		<circle class="st7" cx="116.4" cy="76.4" r="1.2"/>
		<circle class="st7" cx="129.2" cy="76.4" r="1.2"/>
		<path class="st7" d="M143.3,76.4c0,0.7-0.5,1.2-1.2,1.2c-0.7,0-1.2-0.5-1.2-1.2c0-0.7,0.5-1.2,1.2-1.2
			C142.8,75.2,143.3,75.7,143.3,76.4z"/>
		<circle class="st7" cx="154.9" cy="76.4" r="1.2"/>
		<path class="st7" d="M79,90.6c0,0.7-0.5,1.2-1.2,1.2c-0.7,0-1.2-0.5-1.2-1.2c0-0.7,0.5-1.2,1.2-1.2C78.5,89.4,79,89.9,79,90.6z"/>
		<path class="st7" d="M91.9,90.6c0,0.7-0.5,1.2-1.2,1.2c-0.7,0-1.2-0.5-1.2-1.2c0-0.7,0.5-1.2,1.2-1.2
			C91.3,89.4,91.9,89.9,91.9,90.6z"/>
		<path class="st7" d="M104.7,90.6c0,0.7-0.5,1.2-1.2,1.2c-0.7,0-1.2-0.5-1.2-1.2c0-0.7,0.5-1.2,1.2-1.2
			C104.2,89.4,104.7,89.9,104.7,90.6z"/>
		<path class="st7" d="M117.6,90.6c0,0.7-0.5,1.2-1.2,1.2s-1.2-0.5-1.2-1.2c0-0.7,0.5-1.2,1.2-1.2S117.6,89.9,117.6,90.6z"/>
		<path class="st10" d="M130.4,90.6c0,0.7-0.5,1.2-1.2,1.2c-0.7,0-1.2-0.5-1.2-1.2c0-0.7,0.5-1.2,1.2-1.2
			C129.9,89.4,130.4,89.9,130.4,90.6z"/>
		<path class="st7" d="M143.3,90.6c0,0.7-0.5,1.2-1.2,1.2c-0.7,0-1.2-0.5-1.2-1.2c0-0.7,0.5-1.2,1.2-1.2
			C142.8,89.4,143.3,89.9,143.3,90.6z"/>
		<path class="st7" d="M156.1,90.6c0,0.7-0.5,1.2-1.2,1.2c-0.7,0-1.2-0.5-1.2-1.2c0-0.7,0.5-1.2,1.2-1.2
			C155.6,89.4,156.1,89.9,156.1,90.6z"/>
		<circle class="st7" cx="77.8" cy="104.8" r="1.2"/>
		<path class="st7" d="M91.9,104.8c0,0.7-0.5,1.2-1.2,1.2c-0.7,0-1.2-0.5-1.2-1.2c0-0.7,0.5-1.2,1.2-1.2
			C91.3,103.6,91.9,104.2,91.9,104.8z"/>
		<path class="st7" d="M104.7,104.8c0,0.7-0.5,1.2-1.2,1.2c-0.7,0-1.2-0.5-1.2-1.2c0-0.7,0.5-1.2,1.2-1.2
			C104.2,103.6,104.7,104.2,104.7,104.8z"/>
		<circle class="st7" cx="116.4" cy="104.8" r="1.2"/>
		<circle class="st7" cx="129.2" cy="104.8" r="1.2"/>
		<path class="st7" d="M143.3,104.8c0,0.7-0.5,1.2-1.2,1.2c-0.7,0-1.2-0.5-1.2-1.2c0-0.7,0.5-1.2,1.2-1.2
			C142.8,103.6,143.3,104.2,143.3,104.8z"/>
		<circle class="st7" cx="154.9" cy="104.8" r="1.2"/>
		<circle class="st7" cx="77.8" cy="119" r="1.2"/>
		<path class="st7" d="M91.9,119c0,0.7-0.5,1.2-1.2,1.2c-0.7,0-1.2-0.5-1.2-1.2c0-0.7,0.5-1.2,1.2-1.2
			C91.3,117.8,91.9,118.4,91.9,119z"/>
		<path class="st7" d="M104.7,119c0,0.7-0.5,1.2-1.2,1.2c-0.7,0-1.2-0.5-1.2-1.2c0-0.7,0.5-1.2,1.2-1.2
			C104.2,117.8,104.7,118.4,104.7,119z"/>
		<circle class="st10" cx="116.4" cy="119" r="1.2"/>
		<circle class="st7" cx="129.2" cy="119" r="1.2"/>
		<path class="st7" d="M143.3,119c0,0.7-0.5,1.2-1.2,1.2c-0.7,0-1.2-0.5-1.2-1.2c0-0.7,0.5-1.2,1.2-1.2
			C142.8,117.8,143.3,118.4,143.3,119z"/>
		<circle class="st7" cx="154.9" cy="119" r="1.2"/>
		<path class="st7" d="M79,133.3c0,0.7-0.5,1.2-1.2,1.2c-0.7,0-1.2-0.5-1.2-1.2c0-0.7,0.5-1.2,1.2-1.2C78.5,132,79,132.6,79,133.3z"
			/>
		<path class="st7" d="M91.9,133.3c0,0.7-0.5,1.2-1.2,1.2c-0.7,0-1.2-0.5-1.2-1.2c0-0.7,0.5-1.2,1.2-1.2
			C91.3,132,91.9,132.6,91.9,133.3z"/>
		<path class="st7" d="M104.7,133.3c0,0.7-0.5,1.2-1.2,1.2c-0.7,0-1.2-0.5-1.2-1.2c0-0.7,0.5-1.2,1.2-1.2
			C104.2,132,104.7,132.6,104.7,133.3z"/>
		<path class="st7" d="M117.6,133.3c0,0.7-0.5,1.2-1.2,1.2s-1.2-0.5-1.2-1.2c0-0.7,0.5-1.2,1.2-1.2S117.6,132.6,117.6,133.3z"/>
		<path class="st7" d="M130.4,133.3c0,0.7-0.5,1.2-1.2,1.2c-0.7,0-1.2-0.5-1.2-1.2c0-0.7,0.5-1.2,1.2-1.2
			C129.9,132,130.4,132.6,130.4,133.3z"/>
		<path class="st10" d="M143.3,133.3c0,0.7-0.5,1.2-1.2,1.2c-0.7,0-1.2-0.5-1.2-1.2c0-0.7,0.5-1.2,1.2-1.2
			C142.8,132,143.3,132.6,143.3,133.3z"/>
		<path class="st7" d="M156.1,133.3c0,0.7-0.5,1.2-1.2,1.2c-0.7,0-1.2-0.5-1.2-1.2c0-0.7,0.5-1.2,1.2-1.2
			C155.6,132,156.1,132.6,156.1,133.3z"/>
		<circle class="st7" cx="77.8" cy="147.5" r="1.2"/>
		<path class="st10" d="M91.9,147.5c0,0.7-0.5,1.2-1.2,1.2c-0.7,0-1.2-0.5-1.2-1.2c0-0.7,0.5-1.2,1.2-1.2
			C91.3,146.3,91.9,146.8,91.9,147.5z"/>
		<path class="st7" d="M104.7,147.5c0,0.7-0.5,1.2-1.2,1.2c-0.7,0-1.2-0.5-1.2-1.2c0-0.7,0.5-1.2,1.2-1.2
			C104.2,146.3,104.7,146.8,104.7,147.5z"/>
		<circle class="st7" cx="116.4" cy="147.5" r="1.2"/>
		<circle class="st7" cx="129.2" cy="147.5" r="1.2"/>
		<path class="st7" d="M143.3,147.5c0,0.7-0.5,1.2-1.2,1.2c-0.7,0-1.2-0.5-1.2-1.2c0-0.7,0.5-1.2,1.2-1.2
			C142.8,146.3,143.3,146.8,143.3,147.5z"/>
		<circle class="st7" cx="154.9" cy="147.5" r="1.2"/>
	</g>
	<g class="st0">
		<circle class="st7" cx="571.8" cy="350.8" r="1.2"/>
		<circle class="st7" cx="584.7" cy="350.8" r="1.2"/>
		<path class="st7" d="M598.7,350.8c0,0.7-0.5,1.2-1.2,1.2c-0.7,0-1.2-0.5-1.2-1.2s0.5-1.2,1.2-1.2
			C598.2,349.5,598.7,350.1,598.7,350.8z"/>
		<path class="st7" d="M611.6,350.8c0,0.7-0.5,1.2-1.2,1.2c-0.7,0-1.2-0.5-1.2-1.2s0.5-1.2,1.2-1.2
			C611.1,349.5,611.6,350.1,611.6,350.8z"/>
		<path class="st10" d="M624.5,350.8c0,0.7-0.5,1.2-1.2,1.2c-0.7,0-1.2-0.5-1.2-1.2s0.5-1.2,1.2-1.2
			C623.9,349.5,624.5,350.1,624.5,350.8z"/>
		<circle class="st7" cx="636.1" cy="350.8" r="1.2"/>
		<path class="st7" d="M650.2,350.8c0,0.7-0.5,1.2-1.2,1.2c-0.7,0-1.2-0.5-1.2-1.2s0.5-1.2,1.2-1.2
			C649.6,349.5,650.2,350.1,650.2,350.8z"/>
		<circle class="st10" cx="571.8" cy="365" r="1.2"/>
		<circle class="st7" cx="584.7" cy="365" r="1.2"/>
		<path class="st7" d="M598.7,365c0,0.7-0.5,1.2-1.2,1.2c-0.7,0-1.2-0.5-1.2-1.2c0-0.7,0.5-1.2,1.2-1.2
			C598.2,363.8,598.7,364.3,598.7,365z"/>
		<path class="st7" d="M611.6,365c0,0.7-0.5,1.2-1.2,1.2c-0.7,0-1.2-0.5-1.2-1.2c0-0.7,0.5-1.2,1.2-1.2
			C611.1,363.8,611.6,364.3,611.6,365z"/>
		<path class="st7" d="M624.5,365c0,0.7-0.5,1.2-1.2,1.2c-0.7,0-1.2-0.5-1.2-1.2c0-0.7,0.5-1.2,1.2-1.2
			C623.9,363.8,624.5,364.3,624.5,365z"/>
		<circle class="st7" cx="636.1" cy="365" r="1.2"/>
		<path class="st7" d="M650.2,365c0,0.7-0.5,1.2-1.2,1.2c-0.7,0-1.2-0.5-1.2-1.2c0-0.7,0.5-1.2,1.2-1.2
			C649.6,363.8,650.2,364.3,650.2,365z"/>
		<path class="st7" d="M573,379.2c0,0.7-0.5,1.2-1.2,1.2c-0.7,0-1.2-0.5-1.2-1.2c0-0.7,0.5-1.2,1.2-1.2
			C572.5,378,573,378.5,573,379.2z"/>
		<path class="st7" d="M585.9,379.2c0,0.7-0.5,1.2-1.2,1.2c-0.7,0-1.2-0.5-1.2-1.2c0-0.7,0.5-1.2,1.2-1.2
			C585.4,378,585.9,378.5,585.9,379.2z"/>
		<path class="st10" d="M598.7,379.2c0,0.7-0.5,1.2-1.2,1.2c-0.7,0-1.2-0.5-1.2-1.2c0-0.7,0.5-1.2,1.2-1.2
			C598.2,378,598.7,378.5,598.7,379.2z"/>
		<path class="st7" d="M611.6,379.2c0,0.7-0.5,1.2-1.2,1.2c-0.7,0-1.2-0.5-1.2-1.2c0-0.7,0.5-1.2,1.2-1.2
			C611.1,378,611.6,378.5,611.6,379.2z"/>
		<path class="st7" d="M624.5,379.2c0,0.7-0.5,1.2-1.2,1.2c-0.7,0-1.2-0.5-1.2-1.2c0-0.7,0.5-1.2,1.2-1.2
			C623.9,378,624.5,378.5,624.5,379.2z"/>
		<path class="st7" d="M637.3,379.2c0,0.7-0.5,1.2-1.2,1.2s-1.2-0.5-1.2-1.2c0-0.7,0.5-1.2,1.2-1.2S637.3,378.5,637.3,379.2z"/>
		<path class="st7" d="M650.2,379.2c0,0.7-0.5,1.2-1.2,1.2c-0.7,0-1.2-0.5-1.2-1.2c0-0.7,0.5-1.2,1.2-1.2
			C649.6,378,650.2,378.5,650.2,379.2z"/>
		<circle class="st7" cx="571.8" cy="393.4" r="1.2"/>
		<circle class="st7" cx="584.7" cy="393.4" r="1.2"/>
		<path class="st7" d="M598.7,393.4c0,0.7-0.5,1.2-1.2,1.2c-0.7,0-1.2-0.5-1.2-1.2c0-0.7,0.5-1.2,1.2-1.2
			C598.2,392.2,598.7,392.8,598.7,393.4z"/>
		<path class="st7" d="M611.6,393.4c0,0.7-0.5,1.2-1.2,1.2c-0.7,0-1.2-0.5-1.2-1.2c0-0.7,0.5-1.2,1.2-1.2
			C611.1,392.2,611.6,392.8,611.6,393.4z"/>
		<path class="st10" d="M624.5,393.4c0,0.7-0.5,1.2-1.2,1.2c-0.7,0-1.2-0.5-1.2-1.2c0-0.7,0.5-1.2,1.2-1.2
			C623.9,392.2,624.5,392.8,624.5,393.4z"/>
		<circle class="st7" cx="636.1" cy="393.4" r="1.2"/>
		<path class="st7" d="M650.2,393.4c0,0.7-0.5,1.2-1.2,1.2c-0.7,0-1.2-0.5-1.2-1.2c0-0.7,0.5-1.2,1.2-1.2
			C649.6,392.2,650.2,392.8,650.2,393.4z"/>
		<path class="st7" d="M573,407.6c0,0.7-0.5,1.2-1.2,1.2c-0.7,0-1.2-0.5-1.2-1.2c0-0.7,0.5-1.2,1.2-1.2
			C572.5,406.4,573,407,573,407.6z"/>
		<path class="st7" d="M585.9,407.6c0,0.7-0.5,1.2-1.2,1.2c-0.7,0-1.2-0.5-1.2-1.2c0-0.7,0.5-1.2,1.2-1.2
			C585.4,406.4,585.9,407,585.9,407.6z"/>
		<path class="st7" d="M598.7,407.6c0,0.7-0.5,1.2-1.2,1.2c-0.7,0-1.2-0.5-1.2-1.2c0-0.7,0.5-1.2,1.2-1.2
			C598.2,406.4,598.7,407,598.7,407.6z"/>
		<path class="st7" d="M611.6,407.6c0,0.7-0.5,1.2-1.2,1.2c-0.7,0-1.2-0.5-1.2-1.2c0-0.7,0.5-1.2,1.2-1.2
			C611.1,406.4,611.6,407,611.6,407.6z"/>
		<path class="st7" d="M624.5,407.6c0,0.7-0.5,1.2-1.2,1.2c-0.7,0-1.2-0.5-1.2-1.2c0-0.7,0.5-1.2,1.2-1.2
			C623.9,406.4,624.5,407,624.5,407.6z"/>
		<path class="st7" d="M637.3,407.6c0,0.7-0.5,1.2-1.2,1.2s-1.2-0.5-1.2-1.2c0-0.7,0.5-1.2,1.2-1.2S637.3,407,637.3,407.6z"/>
		<path class="st7" d="M650.2,407.6c0,0.7-0.5,1.2-1.2,1.2c-0.7,0-1.2-0.5-1.2-1.2c0-0.7,0.5-1.2,1.2-1.2
			C649.6,406.4,650.2,407,650.2,407.6z"/>
		<circle class="st7" cx="571.8" cy="421.9" r="1.2"/>
		<circle class="st7" cx="584.7" cy="421.9" r="1.2"/>
		<path class="st7" d="M598.7,421.9c0,0.7-0.5,1.2-1.2,1.2c-0.7,0-1.2-0.5-1.2-1.2c0-0.7,0.5-1.2,1.2-1.2
			C598.2,420.7,598.7,421.2,598.7,421.9z"/>
		<path class="st10" d="M611.6,421.9c0,0.7-0.5,1.2-1.2,1.2c-0.7,0-1.2-0.5-1.2-1.2c0-0.7,0.5-1.2,1.2-1.2
			C611.1,420.7,611.6,421.2,611.6,421.9z"/>
		<path class="st7" d="M624.5,421.9c0,0.7-0.5,1.2-1.2,1.2c-0.7,0-1.2-0.5-1.2-1.2c0-0.7,0.5-1.2,1.2-1.2
			C623.9,420.7,624.5,421.2,624.5,421.9z"/>
		<circle class="st7" cx="636.1" cy="421.9" r="1.2"/>
		<path class="st7" d="M650.2,421.9c0,0.7-0.5,1.2-1.2,1.2c-0.7,0-1.2-0.5-1.2-1.2c0-0.7,0.5-1.2,1.2-1.2
			C649.6,420.7,650.2,421.2,650.2,421.9z"/>
		<circle class="st7" cx="571.8" cy="436.1" r="1.2"/>
		<circle class="st7" cx="584.7" cy="436.1" r="1.2"/>
		<path class="st7" d="M598.7,436.1c0,0.7-0.5,1.2-1.2,1.2c-0.7,0-1.2-0.5-1.2-1.2c0-0.7,0.5-1.2,1.2-1.2
			C598.2,434.9,598.7,435.4,598.7,436.1z"/>
		<path class="st7" d="M611.6,436.1c0,0.7-0.5,1.2-1.2,1.2c-0.7,0-1.2-0.5-1.2-1.2c0-0.7,0.5-1.2,1.2-1.2
			C611.1,434.9,611.6,435.4,611.6,436.1z"/>
		<path class="st7" d="M624.5,436.1c0,0.7-0.5,1.2-1.2,1.2c-0.7,0-1.2-0.5-1.2-1.2c0-0.7,0.5-1.2,1.2-1.2
			C623.9,434.9,624.5,435.4,624.5,436.1z"/>
		<circle class="st10" cx="636.1" cy="436.1" r="1.2"/>
		<path class="st7" d="M650.2,436.1c0,0.7-0.5,1.2-1.2,1.2c-0.7,0-1.2-0.5-1.2-1.2c0-0.7,0.5-1.2,1.2-1.2
			C649.6,434.9,650.2,435.4,650.2,436.1z"/>
		<path class="st7" d="M573,450.3c0,0.7-0.5,1.2-1.2,1.2c-0.7,0-1.2-0.5-1.2-1.2c0-0.7,0.5-1.2,1.2-1.2
			C572.5,449.1,573,449.6,573,450.3z"/>
		<path class="st10" d="M585.9,450.3c0,0.7-0.5,1.2-1.2,1.2c-0.7,0-1.2-0.5-1.2-1.2c0-0.7,0.5-1.2,1.2-1.2
			C585.4,449.1,585.9,449.6,585.9,450.3z"/>
		<path class="st7" d="M598.7,450.3c0,0.7-0.5,1.2-1.2,1.2c-0.7,0-1.2-0.5-1.2-1.2c0-0.7,0.5-1.2,1.2-1.2
			C598.2,449.1,598.7,449.6,598.7,450.3z"/>
		<path class="st7" d="M611.6,450.3c0,0.7-0.5,1.2-1.2,1.2c-0.7,0-1.2-0.5-1.2-1.2c0-0.7,0.5-1.2,1.2-1.2
			C611.1,449.1,611.6,449.6,611.6,450.3z"/>
		<path class="st7" d="M624.5,450.3c0,0.7-0.5,1.2-1.2,1.2c-0.7,0-1.2-0.5-1.2-1.2c0-0.7,0.5-1.2,1.2-1.2
			C623.9,449.1,624.5,449.6,624.5,450.3z"/>
		<path class="st7" d="M637.3,450.3c0,0.7-0.5,1.2-1.2,1.2s-1.2-0.5-1.2-1.2c0-0.7,0.5-1.2,1.2-1.2S637.3,449.6,637.3,450.3z"/>
		<path class="st7" d="M650.2,450.3c0,0.7-0.5,1.2-1.2,1.2c-0.7,0-1.2-0.5-1.2-1.2c0-0.7,0.5-1.2,1.2-1.2
			C649.6,449.1,650.2,449.6,650.2,450.3z"/>
	</g>
	<circle class="st11" cx="55.2" cy="199.5" r="2.7"/>
	<circle class="st11" cx="563.5" cy="158.6" r="4.6"/>
	<circle class="st12" cx="28.3" cy="39.8" r="2.3"/>
	<path class="st12" d="M658.2,86.6c0,1.3-1,2.3-2.3,2.3c-1.3,0-2.3-1-2.3-2.3c0-1.3,1-2.3,2.3-2.3C657.1,84.3,658.2,85.3,658.2,86.6
		z"/>
	<circle class="st11" cx="427.1" cy="116.5" r="2.3"/>
	<circle class="st11" cx="472.9" cy="467.6" r="2.3"/>
	<circle class="st12" cx="236.1" cy="304.5" r="2.3"/>
	<path class="st12" d="M713.2,372.1c0,1.3-1,2.3-2.3,2.3c-1.3,0-2.3-1-2.3-2.3c0-1.3,1-2.3,2.3-2.3
		C712.2,369.8,713.2,370.8,713.2,372.1z"/>
	<path class="st11" d="M276,439.4c0,1.7-1.4,3.1-3.1,3.1c-1.7,0-3.1-1.4-3.1-3.1c0-1.7,1.4-3.1,3.1-3.1
		C274.6,436.3,276,437.7,276,439.4z"/>
	<g class="st0">
		<rect x="503.4" y="27.8" class="st7" width="4.2" height="14.2"/>
		
			<rect x="503.4" y="27.8" transform="matrix(-1.836970e-16 1 -1 -1.836970e-16 540.502 -470.5854)" class="st7" width="4.2" height="14.2"/>
	</g>
	<g class="st0">
		<rect x="220.9" y="158.6" class="st7" width="2.7" height="9.2"/>
		
			<rect x="220.9" y="158.6" transform="matrix(-1.836970e-16 1 -1 -1.836970e-16 385.4298 -59.0394)" class="st7" width="2.7" height="9.2"/>
	</g>
	<g class="st0">
		<rect x="531.8" y="437.9" class="st10" width="2.7" height="9.2"/>
		
			<rect x="531.8" y="437.9" transform="matrix(-1.836970e-16 1 -1 -1.836970e-16 975.7087 -90.6343)" class="st10" width="2.7" height="9.2"/>
	</g>
	<g class="st0">
		<rect x="108" y="435.6" class="st10" width="4.9" height="16.7"/>
		
			<rect x="108" y="435.6" transform="matrix(-1.836970e-16 1 -1 -1.836970e-16 554.358 333.4539)" class="st10" width="4.9" height="16.7"/>
	</g>
	<line class="st9" x1="276" y1="27.8" x2="238.2" y2="65.6"/>
	<line class="st9" x1="542.1" y1="352.7" x2="503.4" y2="391.4"/>
	<line class="st13" x1="230.2" y1="388.4" x2="192.6" y2="425.9"/>
	<line class="st13" x1="528.6" y1="81.7" x2="491" y2="119.2"/>
	<circle class="st9" cx="112.9" cy="327.9" r="71.7"/>
</g>
</svg>
