<svg viewBox="0 0 100 100">
<path fill="#0080FF" d="M49.7,100V80.6c20.6,0,36.6-20.4,28.6-41.9c-2.9-8.1-9.3-14.5-17.4-17.4c-15.9-6-33.6,2.1-39.6,18
	c-1.3,3.4-1.9,7-2,10.6H-0.1c0-32.5,31.6-58.1,66-47.5C81,7.2,92.8,18.9,97.5,34C108.1,68.5,82.4,100,49.7,100z"/>
<polyline fill="#0080FF" points="50,80.6 30.6,80.6 30.6,61.4 50,61.4 "/>
<polyline fill="#0080FF" points="30.6,95.6 15.8,95.6 15.8,80.6 30.6,80.6 30.6,95.6 "/>
<polyline fill="#0080FF" points="15.8,80.6 3.5,80.6 3.5,68.2 15.8,68.2 "/>
</svg>
