<?xml version="1.0" encoding="utf-8"?>
<!-- Generator: Adobe Illustrator 23.0.6, SVG Export Plug-In . SVG Version: 6.00 Build 0)  -->
<svg version="1.1" id="Layer_1" xmlns="http://www.w3.org/2000/svg" xmlns:xlink="http://www.w3.org/1999/xlink" x="0px" y="0px"
viewBox="0 0 396.3 63.4" style="enable-background:new 0 0 396.3 63.4;"
xml:space="preserve" width="396.3" height="63.4">
<style type="text/css">
	.st0{fill:#F26F21;}
	.st1{fill-rule:evenodd;clip-rule:evenodd;fill:#58595B;}
	.st2{fill:#58595B;}
</style>
<g>
	<path class="st0" d="M0,31.7C0,14.2,14.2,0,31.7,0c6.1,0,11.9,1.7,16.7,4.8c-8.9,0.4-28.3,2.4-34.5,12.4
		C5,31.3,30.5,31.4,30.5,31.4s-2-0.7-2.6-3.3c-0.7-2.6,2.5-9.8,16.5-14.6c4.4-1.5,7.9-2.6,10.6-3.3c5.2,5.7,8.4,13.2,8.4,21.5
		c0,17.5-14.2,31.7-31.7,31.7c-6.1,0-11.9-1.7-16.7-4.8c8.9-0.4,28.3-2.4,34.5-12.4C58.4,32,32.9,32,32.9,32s2,0.7,2.6,3.3
		c0.7,2.6-2.5,9.8-16.5,14.6c-4.4,1.5-7.9,2.6-10.6,3.3C3.2,47.5,0,40,0,31.7L0,31.7z"/>
	<path class="st1" d="M102.2,31.7c0-5.1-0.6-9.7-4.1-13.1c-2.3-2.2-5.4-3.4-8.6-3.4s-6.3,1.2-8.6,3.4c-3.4,3.4-4.1,8-4.1,13.1
		s0.6,9.7,4.1,13.1c2.3,2.2,5.4,3.4,8.6,3.4s6.3-1.2,8.6-3.4C101.6,41.4,102.2,36.8,102.2,31.7L102.2,31.7z M98.1,31.7
		c0,3.3-0.1,7.6-2.7,10.3c-1.5,1.6-3.6,2.4-5.8,2.4s-4.3-0.8-5.8-2.4c-2.6-2.7-2.7-7-2.7-10.3c0-3.3,0.1-7.6,2.7-10.3
		c1.5-1.6,3.6-2.4,5.8-2.4s4.3,0.8,5.8,2.4C98,24.1,98.1,28.4,98.1,31.7L98.1,31.7z"/>
	<path class="st1" d="M131.4,25.4c0-2.8-0.9-5.1-2.4-6.7c-1.7-1.8-4.3-2.9-8.1-2.9h-11.8v31.8h4V35.2h7.8c3.5,0,6.1-0.9,7.8-2.6
		C130.4,30.9,131.4,28.5,131.4,25.4L131.4,25.4z M127.2,25.4c0,4.3-2.2,6.2-6.4,6.2h-7.8V19.4h7.7C124.7,19.4,127.2,21.3,127.2,25.4
		L127.2,25.4z"/>
	<polygon class="st2" points="157.1,47.6 157.1,43.9 139.9,43.9 139.9,32.9 155,32.9 155,29.1 139.9,29.1 139.9,19.5 157.1,19.5 
		157.1,15.8 135.9,15.8 135.9,47.6 	"/>
	<polygon class="st2" points="187.8,47.6 187.8,15.8 184,15.8 184,41.4 168.4,15.8 163.9,15.8 163.9,47.6 167.7,47.6 167.7,22 
		183.3,47.6 	"/>
	<path class="st2" d="M219.1,38.1c0-5.4-4-8.5-8.7-9.2c-2.1-0.3-4.9-0.5-6.9-0.8c-1.9-0.3-3.2-1.4-3.2-3.4c0-1.2,0.4-2,1.1-2.7
		c1.3-1.3,3.4-1.8,5.1-1.8c1.7,0,3.8,0.6,4.8,1.7c0.8,0.8,1.3,2,1.4,3.1h5.9c0-2.6-1.3-5-3.2-6.8c-2.1-2-5.5-3.1-8.9-3.1
		c-3.7,0-7.2,1.3-9.3,3.4c-1.7,1.7-2.8,3.8-2.8,6.3c0,5.3,3.7,8.2,8.1,8.9c2.1,0.4,4.9,0.4,7,0.8c2,0.4,3.8,1.4,3.8,3.8
		c0,1.5-0.5,2.3-1.2,3.1c-1.2,1.2-3.3,1.7-5.5,1.7c-1.8,0-4-0.4-5.3-1.7c-0.9-0.9-1.7-2.3-1.7-3.9h-5.9c0,3,1.4,5.7,3.3,7.4
		c2.6,2.4,6.1,3.3,9.5,3.3c3.9,0,7.6-1,10-3.4C218,43.2,219.1,41.1,219.1,38.1L219.1,38.1z"/>
	<polygon class="st2" points="248.6,15.8 242.5,15.8 234.7,29.5 226.9,15.8 220.6,15.8 231.6,35.4 231.6,47.6 237.4,47.6 
		237.4,35.4 	"/>
	<polygon class="st2" points="277.7,47.6 277.7,15.8 272,15.8 272,37.3 258.4,15.8 252.2,15.8 252.2,47.6 257.9,47.6 257.9,25.7 
		271.7,47.6 	"/>
	<polygon class="st2" points="307.7,47.6 307.7,42.3 290.9,42.3 290.9,33.6 305.7,33.6 305.7,28.4 290.9,28.4 290.9,21 307.7,21 
		307.7,15.8 285.1,15.8 285.1,47.6 	"/>
	<path class="st1" d="M337.6,47.6l-5.8-13c3.5-1.3,5.8-4.7,5.8-8.9c0-5.1-3.5-9.9-11-9.9h-13.4v31.8h5.8v-12h7l5.3,12H337.6
		L337.6,47.6z M331.9,25.6c0,3-1.9,4.7-5.1,4.7H319v-9.5h7.6C329.9,20.9,331.9,23.1,331.9,25.6L331.9,25.6z"/>
	<path class="st2" d="M366.8,47.6V30.2h-13.2V35h7.6c0,2.4-0.4,4.4-2.1,6.2c-1.1,1.1-2.7,1.8-4.8,1.8c-1.8,0-3.9-0.7-5.1-2
		c-2.2-2.3-2.5-6.4-2.5-9.3s0.3-6.8,2.5-9.1c1.2-1.3,3.4-2.2,5.2-2.2c2.2,0,3.9,0.6,5.1,1.9c0.7,0.8,1.3,1.7,1.4,2.9h5.9
		c-0.2-2.8-1.3-4.8-2.9-6.4c-2.1-2.2-5.5-3.6-9.4-3.6c-3.4,0-7,1.3-9.5,3.7c-3.5,3.4-4.1,7.6-4.1,12.8s0.8,9.4,4.1,12.9
		c2.5,2.6,5.8,3.6,9.5,3.5c4-0.1,7-2.2,8-4.1l0.7,3.5L366.8,47.6L366.8,47.6z"/>
	<polygon class="st2" points="396.3,15.8 390.3,15.8 382.5,29.5 374.6,15.8 368.4,15.8 379.4,35.4 379.4,47.6 385.2,47.6 
		385.2,35.4 	"/>
</g>
</svg>
