<?xml version="1.0" encoding="ISO-8859-1" standalone="yes"?>
<!DOCTYPE svg PUBLIC "-//W3C//DTD SVG 20010904//EN"
  "http://www.w3.org/TR/2001/REC-SVG-20010904/DTD/svg10.dtd">
<svg width="13.4374cm" height="3.9807cm" viewBox="110.7266 72.2266 1904.5156 564.1953" version="1.0"
    xmlns="http://www.w3.org/2000/svg">
<g transform="matrix(1 0 0 -1 0 708.6484)" stroke-miterlimit="16" fill-rule="evenodd" clip-rule="evenodd" stroke-linejoin="bevel" stroke-linecap="butt">
<g>
<g>
<path d="M728.375 72.2266 582.4219 72.2266 537.8438 184.0234 294.5703 184.0234 254.0313 72.2266 110.7266 72.2266 329.8125 636.4219 486.8828 636.4219 728.375 72.2266 Z M410.1797 501.75 330.5078 282.6719 498.0078 282.6719 410.1797 501.75 Z" fill="#118cab" fill-rule="nonzero"/>
<path d="M1002.9219 636.4219 C1114.4922 636.4219 1180.6172 559.0078 1180.6172 474.6016 1180.6172 412.5938 1149.5781 365.9922 1087.3359 336.3516 1143.0391 307.3281 1160 237.8594 1236.4766 72.2266 L1087.3359 72.2266 C1028.9844 193.2813 1007.6719 301.5 934.1484 301.5 L895.1719 301.5 895.1719 72.2266 759.6484 72.2266 759.6484 636.4219 1002.9219 636.4219 Z M895.1719 405.125 967.1406 405.125 C1004.4844 405.125 1041.2031 421.4609 1041.2031 469.6172 1041.2031 511.7109 1014.9063 533.2578 963.7891 533.2578 L895.1719 533.2578 895.1719 405.125 Z" fill="#118cab" fill-rule="nonzero"/>
<path d="M1741 636.4219 1859.1016 636.4219 1859.1016 72.2266 1723.5781 72.2266 1723.5781 424.8047 1577.0781 247.8125 1556.0781 247.8125 1409.4219 424.8047 1409.4219 72.2266 1273.8203 72.2266 1273.8203 636.4219 1391.7656 636.4219 1566.5 427.2969 1741 636.4219 Z" fill="#118cab" fill-rule="nonzero"/>
</g>

</g>
</g>
</svg>
