<?xml version="1.0" encoding="UTF-8" standalone="no"?>
<svg xmlns:dc="http://purl.org/dc/elements/1.1/" xmlns:cc="http://creativecommons.org/ns#" xmlns:rdf="http://www.w3.org/1999/02/22-rdf-syntax-ns#" xmlns:svg="http://www.w3.org/2000/svg" xmlns="http://www.w3.org/2000/svg" width="2500" height="382.9" xml:space="preserve">
<style type="text/css">
	.st0{fill:#000E9C;}
</style>
<path class="st0" d="M594.5,21.7c64.4,115.4,51.8,258.4-30.1,361.2H389.6l53.5-94.5h-71l83.6-147.2h71.1L594.5,21.7L594.5,21.7z
	 M250,382.9H72.7c-84.4-102.8-96.2-246.7-30.9-362l115.4,199.8L284.3,0h187.3L250,382.9L250,382.9L250,382.9L250,382.9z"/>
<path class="st0" d="M741.6,197.3c0-102.8,50.2-152.2,134.6-152.2c83.6,0,134.6,49.3,134.6,151.3c0,101.2-51,151.3-134.6,151.3
	C791.8,347.8,741.6,298.5,741.6,197.3z M771.7,197.3c0,84.4,38.5,124.6,104.5,124.6s104.5-40.1,104.5-124.6S942.3,72.7,876.2,72.7
	C810.2,71.9,771.7,112,771.7,197.3z"/>
<path class="st0" d="M1230.8,57.7c1.7-3.3,5.9-9.2,14.2-9.2c8.4,0,15.1,6.7,15.1,15.1c0,2.5-0.8,5-1.7,6.7l-101.2,265.9
	c-2.5,5.9-8.4,10-14.2,10c-5.9,0-11.7-4.2-14.2-10L1028.4,69.4c-0.8-1.7-1.7-4.2-1.7-6.7c0-8.4,6.7-15.1,15.1-15.1
	s12.5,5.9,14.2,9.2l87.8,232.4L1230.8,57.7z"/>
<path class="st0" d="M1320.2,206.5v124.6c0,7.5-6.7,15.1-15.1,15.1s-15.1-6.7-15.1-15.1V63.5c0-7.5,6.7-15.1,15.1-15.1
	s15.1,6.7,15.1,15.1v117.1h150.5V63.5c0-7.5,6.7-15.1,15.1-15.1s15.1,6.7,15.1,15.1v267.6c0,7.5-6.7,15.1-15.1,15.1
	s-15.1-6.7-15.1-15.1V206.5H1320.2z"/>
<path class="st0" d="M1638,140.4c38.5,0,59.4,20.1,66.1,30.1c2.5,3.3,3.3,5,3.3,8.4c0,7.5-5.9,12.5-12.5,12.5c-4.2,0-7.5-1.7-10-5
	c-6.7-7.5-18.4-20.1-46.8-20.1c-39.3,0-61,25.1-61,78.6c0,54.3,20.9,78.6,61,78.6c25.1,0,40.1-10.9,50.2-18.4c3.3-2.5,5-3.3,8.4-3.3
	c6.7,0,12.5,5.9,12.5,12.5c0,4.2-1.7,6.7-5.9,10.9c-9.2,7.5-30.1,23.4-65.2,23.4c-56,0-88.6-33.4-88.6-103.7
	S1582.8,140.4,1638,140.4z"/>
<path class="st0" d="M1775.9,48.5v246.7c0,17.6,5.9,24.2,17.6,24.2c6.7,0,12.5,5.9,12.5,12.5s-5.9,12.5-12.5,12.5
	c-29.3,0-45.2-17.6-45.2-50.2V48.5c0-7.5,6.7-14.2,14.2-14.2C1770.1,35.1,1775.9,40.9,1775.9,48.5z"/>
<path class="st0" d="M2010.9,243.3c0,71.1-34.3,103.7-90.3,103.7s-90.3-33.4-90.3-103.7s35.1-103.7,90.3-103.7
	C1976.6,140.4,2010.9,173,2010.9,243.3z M1983.3,243.3c0-54.3-22.6-78.6-62.7-78.6s-62.7,24.2-62.7,78.6c0,55.2,22.6,78.6,62.7,78.6
	C1960.7,321.9,1983.3,298.5,1983.3,243.3z"/>
<path class="st0" d="M2077.8,156.3v112.9c0,28.4,9.2,51.8,52.7,51.8s52.7-24.2,52.7-51.8V156.3c0-7.5,6.7-14.2,14.2-14.2
	s13.4,5.9,13.4,14.2v112.9c0,41-13.4,78.6-80.3,78.6c-66.1,0-80.3-37.6-80.3-78.6V156.3c0-7.5,5.9-14.2,14.2-14.2
	C2071.1,142.9,2077.8,148.8,2077.8,156.3z"/>
<path class="st0" d="M2394.6,168V48.5c0-7.5,5.9-14.2,14.2-14.2c7.5,0,14.2,5.9,14.2,14.2v214c0,56.9-35.1,85.3-84.4,85.3
	c-56,0-88.6-33.4-88.6-103.7s30.9-103.7,87-103.7C2363.7,140.4,2384.6,154.6,2394.6,168z M2394.6,203.1c0,0-16.7-37.6-56.9-37.6
	c-39.3,0-61,25.1-61,78.6c0,54.3,20.9,78.6,61,78.6c33.4,0,56.9-19.2,56.9-60.2V203.1z"/>
<path class="st0" d="M2473.2,104.5c-3.3,0-6.7-0.8-10-1.7c-3.3-1.7-5.9-3.3-8.4-5.9c-2.5-2.5-4.2-5-5.9-9.2
	c-1.7-3.3-2.5-7.5-2.5-11.7s0.8-8.4,2.5-11.7c1.7-3.3,3.3-6.7,5.9-9.2c2.5-2.5,5-4.2,8.4-5.9c3.3-1.7,6.7-1.7,10-1.7s6.7,0.8,10,1.7
	c3.3,1.7,5.9,3.3,8.4,5.9c2.5,2.5,4.2,5.9,5.9,9.2s2.5,7.5,2.5,11.7s-0.8,8.4-2.5,11.7c-1.7,3.3-3.3,6.7-5.9,9.2
	c-2.5,2.5-5,4.2-8.4,5.9C2479.9,103.6,2476.6,104.5,2473.2,104.5z M2473.2,100.3c3.3,0,5.9-0.8,8.4-1.7c2.5-0.8,5-2.5,6.7-5
	s3.3-4.2,5-7.5c0.8-2.5,1.7-5.9,1.7-10c0-3.3-0.8-6.7-1.7-10c-0.8-3.3-2.5-5.9-5-7.5c-1.7-2.5-4.2-4.2-6.7-5s-5.9-1.7-8.4-1.7
	c-3.3,0-5.9,0.8-8.4,1.7s-5,2.5-6.7,5s-3.3,5-5,7.5c-0.8,3.3-1.7,5.9-1.7,10c0,3.3,0.8,6.7,1.7,10c0.8,2.5,2.5,5,5,7.5
	c1.7,2.5,4.2,3.3,6.7,5C2467.4,99.5,2469.9,100.3,2473.2,100.3z M2463.2,90.3V60.2h10c1.7,0,2.5,0,4.2,0.8c1.7,0,2.5,0.8,3.3,1.7
	s1.7,1.7,2.5,2.5s0.8,2.5,0.8,4.2s-0.8,3.3-1.7,5c-0.8,1.7-2.5,2.5-4.2,3.3l7.5,12.5h-5l-5.9-10.9h-6.7v10.9
	C2468.2,90.3,2463.2,90.3,2463.2,90.3z M2468.2,75.2h4.2c2.5,0,4.2,0,5-0.8c1.7-0.8,1.7-2.5,1.7-4.2s-0.8-3.3-1.7-4.2
	s-2.5-1.7-5.9-1.7h-5v10.9C2466.5,75.2,2468.2,75.2,2468.2,75.2z"/>
</svg>
