<?xml version="1.0" encoding="UTF-8" standalone="no"?><!DOCTYPE svg PUBLIC "-//W3C//DTD SVG 1.1//EN" "http://www.w3.org/Graphics/SVG/1.1/DTD/svg11.dtd"><svg width="100%" height="100%" viewBox="0 0 1836 2418" version="1.1" xmlns="http://www.w3.org/2000/svg" xmlns:xlink="http://www.w3.org/1999/xlink" xml:space="preserve" xmlns:serif="http://www.serif.com/" style="fill-rule:evenodd;clip-rule:evenodd;stroke-linecap:round;stroke-linejoin:round;stroke-miterlimit:1.5;"><path d="M783.692,1136.06l-58.962,-0l90.71,-90.711l90.711,90.711l-58.962,-0l0,544.261l58.962,0l-90.711,90.71l-90.71,-90.71l58.962,0l-0,-544.261Z" style="fill:#bbb;"/><rect x="6.285" y="1771.03" width="1618.31" height="639.808" style="fill:#fff;"/><g><g><rect x="6.285" y="1771.03" width="1618.31" height="639.808" style="fill:none;stroke:#052f5f;stroke-width:12.57px;"/><rect x="1206.62" y="1853.76" width="58.437" height="130.836" style="fill:#318bff;stroke:#318bff;stroke-width:12.57px;"/><rect x="1288.08" y="1853.76" width="113.436" height="130.836" style="fill:#318bff;stroke:#318bff;stroke-width:12.57px;"/><rect x="64.622" y="1853.76" width="1118.57" height="130.836" style="fill:#bbb;stroke:#bbb;stroke-width:12.57px;"/><path d="M435.51,1941.9l-6.239,-17.349l-23.886,0l-6.11,17.349l-10.768,-0l23.373,-62.728l11.11,0l23.373,62.728l-10.853,-0Zm-8.931,-26.151l-5.854,-17.007c-0.427,-1.139 -1.018,-2.934 -1.773,-5.384c-0.755,-2.449 -1.275,-4.244 -1.56,-5.384c-0.769,3.504 -1.894,7.336 -3.375,11.495l-5.641,16.28l18.203,-0Z" style="fill:#fff;fill-rule:nonzero;"/><path d="M477.513,1942.76c-5.982,0 -10.625,-2.15 -13.93,-6.452l-0.598,0c0.399,3.988 0.598,6.41 0.598,7.264l0,19.357l-10.041,-0l-0,-68.283l8.119,0c0.227,0.883 0.697,2.991 1.41,6.324l0.512,0c3.134,-4.785 7.834,-7.178 14.101,-7.178c5.897,-0 10.49,2.136 13.781,6.409c3.29,4.273 4.935,10.27 4.935,17.99c-0,7.719 -1.674,13.744 -5.021,18.074c-3.347,4.33 -7.969,6.495 -13.866,6.495Zm-2.435,-40.764c-3.988,-0 -6.901,1.168 -8.739,3.504c-1.837,2.336 -2.756,6.067 -2.756,11.195l0,1.496c0,5.754 0.912,9.92 2.735,12.498c1.823,2.578 4.8,3.867 8.931,3.867c3.475,0 6.153,-1.424 8.033,-4.273c1.88,-2.849 2.82,-6.908 2.82,-12.178c0,-5.298 -0.933,-9.308 -2.799,-12.028c-1.866,-2.721 -4.607,-4.081 -8.225,-4.081Z" style="fill:#fff;fill-rule:nonzero;"/><path d="M532.037,1942.76c-5.982,0 -10.626,-2.15 -13.93,-6.452l-0.598,0c0.398,3.988 0.598,6.41 0.598,7.264l-0,19.357l-10.042,-0l0,-68.283l8.119,0c0.228,0.883 0.698,2.991 1.41,6.324l0.513,0c3.133,-4.785 7.834,-7.178 14.101,-7.178c5.896,-0 10.49,2.136 13.78,6.409c3.29,4.273 4.935,10.27 4.935,17.99c0,7.719 -1.673,13.744 -5.02,18.074c-3.348,4.33 -7.97,6.495 -13.866,6.495Zm-2.436,-40.764c-3.988,-0 -6.901,1.168 -8.738,3.504c-1.838,2.336 -2.756,6.067 -2.756,11.195l-0,1.496c-0,5.754 0.911,9.92 2.734,12.498c1.824,2.578 4.8,3.867 8.931,3.867c3.475,0 6.153,-1.424 8.033,-4.273c1.88,-2.849 2.82,-6.908 2.82,-12.178c0,-5.298 -0.932,-9.308 -2.798,-12.028c-1.866,-2.721 -4.608,-4.081 -8.226,-4.081Z" style="fill:#fff;fill-rule:nonzero;"/><rect x="562.589" y="1875.42" width="10.042" height="66.488" style="fill:#fff;fill-rule:nonzero;"/><path d="M597.029,1941.9l-10.042,-0l0,-47.26l10.042,0l-0,47.26Zm-10.64,-59.78c0,-1.794 0.492,-3.176 1.474,-4.144c0.983,-0.969 2.386,-1.453 4.209,-1.453c1.766,-0 3.141,0.484 4.124,1.453c0.983,0.968 1.474,2.35 1.474,4.144c-0,1.71 -0.491,3.056 -1.474,4.038c-0.983,0.983 -2.358,1.475 -4.124,1.475c-1.823,-0 -3.226,-0.492 -4.209,-1.475c-0.982,-0.982 -1.474,-2.328 -1.474,-4.038Z" style="fill:#fff;fill-rule:nonzero;"/><path d="M630.444,1942.76c-7.15,0 -12.584,-2.086 -16.302,-6.26c-3.717,-4.173 -5.576,-10.162 -5.576,-17.968c0,-7.947 1.944,-14.058 5.833,-18.331c3.888,-4.273 9.507,-6.409 16.857,-6.409c4.985,-0 9.471,0.926 13.46,2.777l-3.034,8.076c-4.245,-1.652 -7.749,-2.478 -10.512,-2.478c-8.175,-0 -12.263,5.427 -12.263,16.28c-0,5.298 1.018,9.279 3.055,11.943c2.037,2.663 5.021,3.995 8.952,3.995c4.472,0 8.702,-1.111 12.691,-3.333l-0,8.76c-1.795,1.054 -3.711,1.809 -5.748,2.265c-2.036,0.455 -4.508,0.683 -7.413,0.683Z" style="fill:#fff;fill-rule:nonzero;"/><path d="M684.283,1941.9l-2.008,-6.581l-0.342,0c-2.279,2.877 -4.572,4.836 -6.879,5.876c-2.308,1.039 -5.27,1.559 -8.888,1.559c-4.643,0 -8.268,-1.253 -10.875,-3.76c-2.606,-2.507 -3.91,-6.053 -3.91,-10.64c0,-4.871 1.809,-8.546 5.427,-11.024c3.618,-2.478 9.13,-3.832 16.537,-4.059l8.161,-0.257l0,-2.521c0,-3.019 -0.705,-5.277 -2.115,-6.773c-1.41,-1.495 -3.597,-2.243 -6.559,-2.243c-2.422,0 -4.743,0.356 -6.965,1.068c-2.222,0.713 -4.359,1.553 -6.41,2.521l-3.247,-7.178c2.564,-1.339 5.37,-2.357 8.418,-3.055c3.048,-0.698 5.925,-1.047 8.631,-1.047c6.011,-0 10.547,1.31 13.61,3.931c3.062,2.621 4.593,6.737 4.593,12.349l0,31.834l-7.179,-0Zm-14.955,-6.837c3.646,-0 6.573,-1.019 8.781,-3.055c2.208,-2.037 3.312,-4.893 3.312,-8.568l-0,-4.102l-6.068,0.257c-4.729,0.171 -8.169,0.961 -10.319,2.371c-2.151,1.41 -3.226,3.568 -3.226,6.474c-0,2.108 0.626,3.739 1.88,4.892c1.253,1.154 3.133,1.731 5.64,1.731Z" style="fill:#fff;fill-rule:nonzero;"/><path d="M723.082,1934.64c2.45,-0 4.9,-0.385 7.35,-1.154l-0,7.563c-1.111,0.484 -2.543,0.89 -4.295,1.218c-1.751,0.327 -3.568,0.491 -5.448,0.491c-9.514,0 -14.271,-5.013 -14.271,-15.041l-0,-25.467l-6.453,0l0,-4.444l6.923,-3.674l3.418,-9.999l6.196,-0l-0,10.511l13.46,0l-0,7.606l-13.46,0l-0,25.296c-0,2.422 0.605,4.209 1.816,5.363c1.211,1.154 2.799,1.731 4.764,1.731Z" style="fill:#fff;fill-rule:nonzero;"/><path d="M749.917,1941.9l-10.042,-0l0,-47.26l10.042,0l-0,47.26Zm-10.64,-59.78c-0,-1.794 0.491,-3.176 1.474,-4.144c0.983,-0.969 2.386,-1.453 4.209,-1.453c1.766,-0 3.141,0.484 4.123,1.453c0.983,0.968 1.475,2.35 1.475,4.144c-0,1.71 -0.492,3.056 -1.475,4.038c-0.982,0.983 -2.357,1.475 -4.123,1.475c-1.823,-0 -3.226,-0.492 -4.209,-1.475c-0.983,-0.982 -1.474,-2.328 -1.474,-4.038Z" style="fill:#fff;fill-rule:nonzero;"/><path d="M806.192,1918.19c-0,7.719 -1.98,13.744 -5.94,18.074c-3.959,4.33 -9.471,6.495 -16.536,6.495c-4.415,0 -8.318,-0.997 -11.708,-2.991c-3.39,-1.994 -5.996,-4.857 -7.82,-8.589c-1.823,-3.731 -2.734,-8.061 -2.734,-12.989c-0,-7.663 1.965,-13.646 5.896,-17.947c3.932,-4.302 9.472,-6.452 16.622,-6.452c6.837,-0 12.25,2.2 16.238,6.602c3.988,4.401 5.982,10.333 5.982,17.797Zm-34.398,-0c0,10.91 4.031,16.365 12.093,16.365c7.976,0 11.964,-5.455 11.964,-16.365c0,-10.797 -4.016,-16.195 -12.05,-16.195c-4.216,-0 -7.271,1.396 -9.165,4.187c-1.894,2.792 -2.842,6.794 -2.842,12.008Z" style="fill:#fff;fill-rule:nonzero;"/><path d="M859.305,1941.9l-10.084,-0l-0,-29.057c-0,-3.646 -0.734,-6.366 -2.201,-8.161c-1.467,-1.795 -3.795,-2.692 -6.986,-2.692c-4.244,-0 -7.349,1.253 -9.315,3.76c-1.966,2.507 -2.948,6.709 -2.948,12.605l-0,23.545l-10.042,-0l0,-47.26l7.862,0l1.41,6.196l0.513,0c1.425,-2.25 3.447,-3.988 6.068,-5.213c2.621,-1.225 5.526,-1.837 8.717,-1.837c11.337,-0 17.006,5.768 17.006,17.305l0,30.809Z" style="fill:#fff;fill-rule:nonzero;"/><rect x="1425.24" y="1853.76" width="113.436" height="130.836" style="fill:#318bff;stroke:#318bff;stroke-width:12.57px;"/><rect x="1064.96" y="2019.64" width="113.436" height="130.836" style="fill:#d6924d;stroke:#d6924d;stroke-width:12.57px;"/><rect x="1428.73" y="2019.64" width="114.199" height="130.836" style="fill:#d6924d;stroke:#d6924d;stroke-width:12.57px;"/><rect x="1201.75" y="2019.64" width="203.634" height="130.836" style="fill:#d6924d;stroke:#d6924d;stroke-width:12.57px;"/><rect x="597.629" y="2019.64" width="58.437" height="130.836" style="fill:#d6924d;stroke:#d6924d;stroke-width:12.57px;"/><rect x="903.601" y="2019.64" width="58.437" height="130.836" style="fill:#d6924d;stroke:#d6924d;stroke-width:12.57px;"/><rect x="985.319" y="2019.64" width="58.437" height="130.836" style="fill:#d6924d;stroke:#d6924d;stroke-width:12.57px;"/><rect x="511.976" y="2193.36" width="119.831" height="130.836" style="fill:#518135;stroke:#518135;stroke-width:12.57px;"/><rect x="72.371" y="2193.36" width="280.999" height="130.836" style="fill:#518135;stroke:#518135;stroke-width:12.57px;"/><rect x="655.155" y="2193.36" width="58.437" height="130.836" style="fill:#518135;stroke:#518135;stroke-width:12.57px;"/><rect x="737.531" y="2193.36" width="58.437" height="130.836" style="fill:#518135;stroke:#518135;stroke-width:12.57px;"/><rect x="377.439" y="2193.36" width="113.436" height="130.836" style="fill:#518135;stroke:#518135;stroke-width:12.57px;"/><rect x="65.071" y="2019.64" width="58.437" height="130.836" style="fill:#d6924d;stroke:#d6924d;stroke-width:12.57px;"/><rect x="145.432" y="2019.64" width="203.634" height="130.836" style="fill:#d6924d;stroke:#d6924d;stroke-width:12.57px;"/><rect x="370.298" y="2019.64" width="203.634" height="130.836" style="fill:#d6924d;stroke:#d6924d;stroke-width:12.57px;"/><rect x="678.459" y="2019.64" width="203.634" height="130.836" style="fill:#d6924d;stroke:#d6924d;stroke-width:12.57px;"/></g></g><rect x="6.285" y="6.285" width="1618.31" height="1600.46" style="fill:#fff;"/><rect x="82.673" y="320.058" width="58.437" height="130.836" style="fill:#318bff;stroke:#318bff;stroke-width:12.57px;"/><rect x="473.224" y="320.058" width="113.436" height="130.836" style="fill:#318bff;stroke:#318bff;stroke-width:12.57px;"/><rect x="1085.67" y="509.331" width="113.436" height="130.836" style="fill:none;stroke:#318bff;stroke-width:12.57px;"/><rect x="836.072" y="320.058" width="113.436" height="130.836" style="fill:#318bff;stroke:#318bff;stroke-width:12.57px;"/><path d="M508.059,172.367l-7.179,-0l-12.605,-41.833c-0.598,-1.851 -1.268,-4.187 -2.008,-7.008c-0.741,-2.82 -1.126,-4.515 -1.154,-5.084c-0.627,3.76 -1.624,7.876 -2.991,12.349l-12.221,41.576l-7.179,-0l-16.622,-62.471l7.692,-0l9.87,38.585c1.368,5.412 2.365,10.312 2.992,14.699c0.769,-5.213 1.908,-10.312 3.418,-15.297l11.195,-37.987l7.692,-0l11.75,38.328c1.368,4.416 2.521,9.401 3.461,14.956c0.542,-4.045 1.567,-8.973 3.077,-14.785l9.828,-38.499l7.691,-0l-16.707,62.471Z" style="fill:#fff;fill-rule:nonzero;"/><path d="M551.515,173.221c-6.922,0 -12.384,-2.108 -16.387,-6.324c-4.002,-4.216 -6.003,-10.07 -6.003,-17.562c-0,-7.549 1.859,-13.545 5.576,-17.989c3.718,-4.444 8.71,-6.666 14.977,-6.666c5.868,0 10.511,1.93 13.93,5.79c3.418,3.86 5.127,8.952 5.127,15.276l0,4.487l-32.261,-0c0.143,5.498 1.531,9.671 4.166,12.52c2.635,2.848 6.346,4.273 11.132,4.273c5.042,-0 10.027,-1.054 14.955,-3.163l0,6.325c-2.507,1.082 -4.878,1.858 -7.114,2.328c-2.237,0.47 -4.936,0.705 -8.098,0.705Zm-1.923,-42.601c-3.76,-0 -6.758,1.225 -8.994,3.674c-2.236,2.45 -3.554,5.84 -3.953,10.17l24.484,0c0,-4.472 -0.997,-7.898 -2.991,-10.276c-1.994,-2.379 -4.842,-3.568 -8.546,-3.568Z" style="fill:#fff;fill-rule:nonzero;"/><path d="M602.62,124.766c6.153,-0 10.932,2.1 14.336,6.302c3.404,4.202 5.106,10.149 5.106,17.84c0,7.691 -1.716,13.666 -5.149,17.925c-3.432,4.259 -8.197,6.388 -14.293,6.388c-3.048,0 -5.832,-0.562 -8.353,-1.687c-2.522,-1.126 -4.637,-2.856 -6.346,-5.192l-0.513,-0l-1.495,6.025l-5.085,-0l-0,-66.488l7.093,-0l0,16.152c0,3.618 -0.114,6.865 -0.342,9.742l0.342,0c3.305,-4.671 8.204,-7.007 14.699,-7.007Zm-1.025,5.939c-4.843,0 -8.333,1.389 -10.469,4.166c-2.137,2.778 -3.205,7.457 -3.205,14.037c0,6.58 1.097,11.288 3.29,14.122c2.194,2.835 5.712,4.252 10.555,4.252c4.358,-0 7.606,-1.588 9.742,-4.764c2.137,-3.177 3.205,-7.742 3.205,-13.695c-0,-6.097 -1.068,-10.64 -3.205,-13.631c-2.136,-2.991 -5.441,-4.487 -9.913,-4.487Z" style="fill:#fff;fill-rule:nonzero;"/><path d="M664.664,159.591c0,4.358 -1.624,7.719 -4.871,10.084c-3.248,2.364 -7.805,3.546 -13.674,3.546c-6.21,0 -11.053,-0.982 -14.528,-2.948l0,-6.58c2.251,1.139 4.665,2.036 7.243,2.692c2.578,0.655 5.063,0.982 7.456,0.982c3.703,0 6.552,-0.591 8.546,-1.773c1.994,-1.182 2.991,-2.984 2.991,-5.405c0,-1.823 -0.79,-3.383 -2.371,-4.679c-1.581,-1.296 -4.665,-2.828 -9.251,-4.594c-4.359,-1.623 -7.457,-3.041 -9.294,-4.251c-1.837,-1.211 -3.205,-2.585 -4.102,-4.124c-0.897,-1.538 -1.346,-3.375 -1.346,-5.512c-0,-3.817 1.552,-6.83 4.657,-9.037c3.106,-2.208 7.364,-3.312 12.777,-3.312c5.042,0 9.97,1.026 14.784,3.077l-2.521,5.768c-4.7,-1.937 -8.959,-2.905 -12.776,-2.905c-3.361,-0 -5.897,0.527 -7.606,1.581c-1.709,1.054 -2.564,2.506 -2.564,4.358c0,1.253 0.321,2.322 0.962,3.205c0.641,0.883 1.673,1.723 3.098,2.521c1.424,0.798 4.159,1.951 8.204,3.461c5.555,2.023 9.308,4.059 11.259,6.11c1.951,2.051 2.927,4.629 2.927,7.735Z" style="fill:#fff;fill-rule:nonzero;"/><path d="M695.985,173.221c-6.922,0 -12.384,-2.108 -16.387,-6.324c-4.002,-4.216 -6.003,-10.07 -6.003,-17.562c-0,-7.549 1.858,-13.545 5.576,-17.989c3.717,-4.444 8.71,-6.666 14.977,-6.666c5.868,0 10.511,1.93 13.93,5.79c3.418,3.86 5.127,8.952 5.127,15.276l0,4.487l-32.261,-0c0.143,5.498 1.531,9.671 4.166,12.52c2.635,2.848 6.346,4.273 11.131,4.273c5.043,-0 10.028,-1.054 14.956,-3.163l-0,6.325c-2.507,1.082 -4.878,1.858 -7.115,2.328c-2.236,0.47 -4.935,0.705 -8.097,0.705Zm-1.923,-42.601c-3.76,-0 -6.758,1.225 -8.994,3.674c-2.237,2.45 -3.554,5.84 -3.953,10.17l24.484,0c0,-4.472 -0.997,-7.898 -2.991,-10.276c-1.994,-2.379 -4.842,-3.568 -8.546,-3.568Z" style="fill:#fff;fill-rule:nonzero;"/><path d="M746.663,124.68c2.079,0 3.945,0.171 5.597,0.513l-0.982,6.58c-1.937,-0.427 -3.647,-0.641 -5.128,-0.641c-3.789,0 -7.029,1.539 -9.721,4.615c-2.692,3.077 -4.038,6.908 -4.038,11.495l0,25.125l-7.093,-0l-0,-46.832l5.854,-0l0.812,8.674l0.342,-0c1.737,-3.048 3.831,-5.398 6.281,-7.051c2.45,-1.652 5.142,-2.478 8.076,-2.478Z" style="fill:#fff;fill-rule:nonzero;"/><path d="M771.275,172.367l-17.775,-46.832l7.606,-0l10.084,27.774c2.279,6.495 3.618,10.711 4.016,12.648l0.342,0c0.314,-1.51 1.304,-4.636 2.97,-9.379c1.666,-4.743 5.405,-15.091 11.217,-31.043l7.606,-0l-17.776,46.832l-8.29,-0Z" style="fill:#fff;fill-rule:nonzero;"/><path d="M824.645,173.221c-6.922,0 -12.385,-2.108 -16.387,-6.324c-4.002,-4.216 -6.004,-10.07 -6.004,-17.562c0,-7.549 1.859,-13.545 5.577,-17.989c3.717,-4.444 8.709,-6.666 14.977,-6.666c5.868,0 10.511,1.93 13.929,5.79c3.419,3.86 5.128,8.952 5.128,15.276l0,4.487l-32.261,-0c0.142,5.498 1.531,9.671 4.166,12.52c2.635,2.848 6.346,4.273 11.131,4.273c5.042,-0 10.028,-1.054 14.956,-3.163l-0,6.325c-2.507,1.082 -4.879,1.858 -7.115,2.328c-2.236,0.47 -4.935,0.705 -8.097,0.705Zm-1.923,-42.601c-3.76,-0 -6.758,1.225 -8.995,3.674c-2.236,2.45 -3.553,5.84 -3.952,10.17l24.484,0c0,-4.472 -0.997,-7.898 -2.991,-10.276c-1.994,-2.379 -4.843,-3.568 -8.546,-3.568Z" style="fill:#fff;fill-rule:nonzero;"/><path d="M875.323,124.68c2.079,0 3.945,0.171 5.597,0.513l-0.983,6.58c-1.937,-0.427 -3.646,-0.641 -5.127,-0.641c-3.789,0 -7.029,1.539 -9.721,4.615c-2.692,3.077 -4.038,6.908 -4.038,11.495l-0,25.125l-7.093,-0l-0,-46.832l5.854,-0l0.812,8.674l0.341,-0c1.738,-3.048 3.832,-5.398 6.282,-7.051c2.45,-1.652 5.142,-2.478 8.076,-2.478Z" style="fill:#fff;fill-rule:nonzero;"/><rect x="164.458" y="320.058" width="58.437" height="130.836" style="fill:none;stroke:#318bff;stroke-width:12.57px;"/><rect x="1505.19" y="320.058" width="58.437" height="130.836" style="fill:none;stroke:#318bff;stroke-width:12.57px;"/><rect x="1449.43" y="509.331" width="114.199" height="130.836" style="fill:none;stroke:#318bff;stroke-width:12.57px;"/><rect x="972.637" y="320.058" width="58.437" height="130.836" style="fill:none;stroke:#318bff;stroke-width:12.57px;"/><rect x="246.242" y="320.058" width="203.634" height="130.836" style="fill:none;stroke:#318bff;stroke-width:12.57px;"/><rect x="609.5" y="320.058" width="203.634" height="130.836" style="fill:none;stroke:#318bff;stroke-width:12.57px;"/><rect x="1053" y="320.058" width="203.634" height="130.836" style="fill:none;stroke:#318bff;stroke-width:12.57px;"/><rect x="1277.86" y="320.058" width="203.634" height="130.836" style="fill:none;stroke:#318bff;stroke-width:12.57px;"/><rect x="1222.45" y="509.331" width="203.634" height="130.836" style="fill:none;stroke:#318bff;stroke-width:12.57px;"/><rect x="618.334" y="509.331" width="58.437" height="130.836" style="fill:none;stroke:#318bff;stroke-width:12.57px;"/><rect x="924.306" y="509.331" width="58.437" height="130.836" style="fill:none;stroke:#318bff;stroke-width:12.57px;"/><rect x="1006.02" y="509.331" width="58.437" height="130.836" style="fill:none;stroke:#318bff;stroke-width:12.57px;"/><rect x="261.155" y="781.097" width="113.436" height="130.836" style="fill:none;stroke:#d6924d;stroke-width:12.57px;"/><rect x="624.921" y="781.097" width="114.199" height="130.836" style="fill:none;stroke:#d6924d;stroke-width:12.57px;"/><rect x="787.226" y="953.95" width="119.831" height="130.836" style="fill:none;stroke:#d6924d;stroke-width:12.57px;"/><rect x="1298.12" y="781.097" width="265.511" height="130.836" style="fill:none;stroke:#d6924d;stroke-width:12.57px;"/><rect x="347.621" y="953.95" width="280.999" height="130.836" style="fill:none;stroke:#d6924d;stroke-width:12.57px;"/><rect x="932.046" y="953.95" width="265.511" height="130.836" style="fill:none;stroke:#d6924d;stroke-width:12.57px;"/><rect x="397.938" y="781.097" width="203.634" height="130.836" style="fill:#d6924d;stroke:#d6924d;stroke-width:12.57px;"/><rect x="99.795" y="781.097" width="58.437" height="130.836" style="fill:#d6924d;stroke:#d6924d;stroke-width:12.57px;"/><rect x="181.513" y="781.097" width="58.437" height="130.836" style="fill:none;stroke:#d6924d;stroke-width:12.57px;"/><rect x="98.77" y="953.95" width="58.437" height="130.836" style="fill:none;stroke:#d6924d;stroke-width:12.57px;"/><rect x="85.776" y="509.331" width="58.437" height="130.836" style="fill:none;stroke:#318bff;stroke-width:12.57px;"/><rect x="166.137" y="509.331" width="203.634" height="130.836" style="fill:none;stroke:#318bff;stroke-width:12.57px;"/><rect x="391.003" y="509.331" width="203.634" height="130.836" style="fill:none;stroke:#318bff;stroke-width:12.57px;"/><rect x="699.164" y="509.331" width="203.634" height="130.836" style="fill:none;stroke:#318bff;stroke-width:12.57px;"/><rect x="990.877" y="781.097" width="58.437" height="130.836" style="fill:#d6924d;stroke:#d6924d;stroke-width:12.57px;"/><rect x="652.689" y="953.95" width="113.436" height="130.836" style="fill:#d6924d;stroke:#d6924d;stroke-width:12.57px;"/><rect x="1449.43" y="953.95" width="114.199" height="130.836" style="fill:#d6924d;stroke:#d6924d;stroke-width:12.57px;"/><rect x="1222.45" y="953.95" width="203.634" height="130.836" style="fill:#d6924d;stroke:#d6924d;stroke-width:12.57px;"/><rect x="180.023" y="953.95" width="58.437" height="130.836" style="fill:#d6924d;stroke:#d6924d;stroke-width:12.57px;"/><rect x="261.741" y="953.95" width="58.437" height="130.836" style="fill:#d6924d;stroke:#d6924d;stroke-width:12.57px;"/><rect x="693.441" y="1232.61" width="119.831" height="130.836" style="fill:#518135;stroke:#518135;stroke-width:12.57px;"/><rect x="253.836" y="1232.61" width="280.999" height="130.836" style="fill:#518135;stroke:#518135;stroke-width:12.57px;"/><rect x="838.261" y="1232.61" width="265.511" height="130.836" style="fill:none;stroke:#518135;stroke-width:12.57px;"/><rect x="1494.02" y="1232.61" width="58.437" height="130.836" style="fill:none;stroke:#518135;stroke-width:12.57px;"/><rect x="880.92" y="1403.89" width="58.437" height="130.836" style="fill:#518135;stroke:#518135;stroke-width:12.57px;"/><rect x="1189.19" y="1403.89" width="58.437" height="130.836" style="fill:#518135;stroke:#518135;stroke-width:12.57px;"/><rect x="1269.78" y="1403.89" width="58.437" height="130.836" style="fill:none;stroke:#518135;stroke-width:12.57px;"/><rect x="558.904" y="1232.61" width="113.436" height="130.836" style="fill:#518135;stroke:#518135;stroke-width:12.57px;"/><rect x="1355.65" y="1232.61" width="114.199" height="130.836" style="fill:none;stroke:#518135;stroke-width:12.57px;"/><rect x="1355.65" y="1232.61" width="114.199" height="130.836" style="fill:none;stroke:#518135;stroke-width:12.57px;"/><rect x="1128.66" y="1232.61" width="203.634" height="130.836" style="fill:none;stroke:#518135;stroke-width:12.57px;"/><rect x="218.714" y="1403.89" width="119.831" height="130.836" style="fill:none;stroke:#518135;stroke-width:12.57px;"/><rect x="1352.83" y="1403.89" width="202.745" height="130.836" style="fill:none;stroke:#518135;stroke-width:12.57px;"/><rect x="363.534" y="1403.89" width="265.511" height="130.836" style="fill:none;stroke:#518135;stroke-width:12.57px;"/><rect x="84.177" y="1403.89" width="113.436" height="130.836" style="fill:none;stroke:#518135;stroke-width:12.57px;"/><rect x="653.938" y="1403.89" width="203.634" height="130.836" style="fill:none;stroke:#518135;stroke-width:12.57px;"/><rect x="961.353" y="1403.89" width="203.634" height="130.836" style="fill:none;stroke:#518135;stroke-width:12.57px;"/><rect x="86.238" y="1232.61" width="58.437" height="130.836" style="fill:none;stroke:#518135;stroke-width:12.57px;"/><rect x="167.956" y="1232.61" width="58.437" height="130.836" style="fill:none;stroke:#518135;stroke-width:12.57px;"/><rect x="761.965" y="781.097" width="203.634" height="130.836" style="fill:#d6924d;stroke:#d6924d;stroke-width:12.57px;"/><rect x="1071.61" y="781.097" width="203.634" height="130.836" style="fill:#d6924d;stroke:#d6924d;stroke-width:12.57px;"/><rect x="6.285" y="259.579" width="1618.31" height="449.943" style="fill:#98c5ff;"/><rect x="6.285" y="709.522" width="1618.31" height="449.943" style="fill:#e4b788;"/><rect x="6.285" y="1159.46" width="1618.31" height="449.943" style="fill:#c2dfb1;"/><rect x="82.673" y="320.058" width="58.437" height="130.836" style="fill:#318bff;stroke:#318bff;stroke-width:12.57px;"/><rect x="473.224" y="320.058" width="113.436" height="130.836" style="fill:#318bff;stroke:#318bff;stroke-width:12.57px;"/><rect x="1085.67" y="509.331" width="113.436" height="130.836" style="fill:none;stroke:#318bff;stroke-width:12.57px;"/><rect x="836.072" y="320.058" width="113.436" height="130.836" style="fill:#318bff;stroke:#318bff;stroke-width:12.57px;"/><rect x="256.157" y="74.132" width="1118.57" height="130.836" style="fill:#bbb;stroke:#bbb;stroke-width:12.57px;"/><path d="M627.044,162.282l-6.238,-17.348l-23.886,0l-6.111,17.348l-10.768,0l23.374,-62.727l11.109,-0l23.374,62.727l-10.854,0Zm-8.93,-26.15l-5.854,-17.007c-0.428,-1.139 -1.019,-2.934 -1.774,-5.384c-0.754,-2.45 -1.274,-4.244 -1.559,-5.384c-0.769,3.504 -1.895,7.336 -3.376,11.495l-5.64,16.28l18.203,-0Z" style="fill:#fff;fill-rule:nonzero;"/><path d="M669.048,163.137c-5.982,0 -10.626,-2.151 -13.93,-6.452l-0.598,-0c0.398,3.988 0.598,6.409 0.598,7.264l-0,19.357l-10.042,-0l0,-68.283l8.119,0c0.228,0.883 0.698,2.991 1.41,6.324l0.513,0c3.133,-4.786 7.834,-7.178 14.101,-7.178c5.896,-0 10.49,2.136 13.78,6.409c3.29,4.273 4.935,10.27 4.935,17.989c0,7.72 -1.673,13.745 -5.02,18.075c-3.348,4.33 -7.97,6.495 -13.866,6.495Zm-2.436,-40.764c-3.988,-0 -6.901,1.168 -8.738,3.504c-1.837,2.335 -2.756,6.067 -2.756,11.195l-0,1.495c-0,5.755 0.911,9.921 2.735,12.499c1.823,2.578 4.8,3.867 8.93,3.867c3.475,-0 6.153,-1.424 8.033,-4.273c1.88,-2.849 2.82,-6.908 2.82,-12.178c0,-5.299 -0.932,-9.308 -2.798,-12.029c-1.866,-2.72 -4.608,-4.08 -8.226,-4.08Z" style="fill:#fff;fill-rule:nonzero;"/><path d="M723.571,163.137c-5.982,0 -10.625,-2.151 -13.93,-6.452l-0.598,-0c0.399,3.988 0.598,6.409 0.598,7.264l0,19.357l-10.041,-0l-0,-68.283l8.118,0c0.228,0.883 0.698,2.991 1.41,6.324l0.513,0c3.134,-4.786 7.834,-7.178 14.101,-7.178c5.897,-0 10.49,2.136 13.78,6.409c3.291,4.273 4.936,10.27 4.936,17.989c-0,7.72 -1.674,13.745 -5.021,18.075c-3.347,4.33 -7.969,6.495 -13.866,6.495Zm-2.435,-40.764c-3.989,-0 -6.901,1.168 -8.739,3.504c-1.837,2.335 -2.756,6.067 -2.756,11.195l0,1.495c0,5.755 0.912,9.921 2.735,12.499c1.823,2.578 4.8,3.867 8.93,3.867c3.476,-0 6.154,-1.424 8.034,-4.273c1.88,-2.849 2.82,-6.908 2.82,-12.178c-0,-5.299 -0.933,-9.308 -2.799,-12.029c-1.866,-2.72 -4.608,-4.08 -8.225,-4.08Z" style="fill:#fff;fill-rule:nonzero;"/><rect x="754.123" y="95.795" width="10.042" height="66.488" style="fill:#fff;fill-rule:nonzero;"/><path d="M788.563,162.282l-10.041,0l-0,-47.259l10.041,0l0,47.259Zm-10.639,-59.779c-0,-1.794 0.491,-3.176 1.474,-4.144c0.983,-0.969 2.386,-1.453 4.209,-1.453c1.766,-0 3.14,0.484 4.123,1.453c0.983,0.968 1.474,2.35 1.474,4.144c0,1.71 -0.491,3.056 -1.474,4.038c-0.983,0.983 -2.357,1.474 -4.123,1.474c-1.823,0 -3.226,-0.491 -4.209,-1.474c-0.983,-0.982 -1.474,-2.328 -1.474,-4.038Z" style="fill:#fff;fill-rule:nonzero;"/><path d="M821.978,163.137c-7.15,0 -12.584,-2.087 -16.301,-6.26c-3.718,-4.173 -5.577,-10.162 -5.577,-17.968c0,-7.948 1.945,-14.058 5.833,-18.331c3.889,-4.273 9.507,-6.409 16.857,-6.409c4.985,-0 9.472,0.925 13.46,2.777l-3.034,8.076c-4.244,-1.652 -7.748,-2.478 -10.511,-2.478c-8.176,-0 -12.264,5.426 -12.264,16.28c0,5.298 1.018,9.279 3.055,11.943c2.037,2.663 5.021,3.995 8.952,3.995c4.473,0 8.703,-1.111 12.691,-3.333l-0,8.76c-1.795,1.054 -3.71,1.809 -5.747,2.264c-2.037,0.456 -4.508,0.684 -7.414,0.684Z" style="fill:#fff;fill-rule:nonzero;"/><path d="M875.818,162.282l-2.008,-6.58l-0.342,0c-2.279,2.877 -4.572,4.836 -6.88,5.875c-2.307,1.04 -5.27,1.56 -8.888,1.56c-4.643,0 -8.268,-1.253 -10.874,-3.76c-2.607,-2.507 -3.91,-6.054 -3.91,-10.64c-0,-4.871 1.809,-8.546 5.427,-11.024c3.617,-2.479 9.13,-3.832 16.536,-4.06l8.161,-0.256l0,-2.521c0,-3.02 -0.705,-5.277 -2.115,-6.773c-1.41,-1.495 -3.596,-2.243 -6.559,-2.243c-2.421,-0 -4.743,0.356 -6.965,1.068c-2.222,0.712 -4.358,1.553 -6.409,2.521l-3.248,-7.178c2.564,-1.339 5.37,-2.358 8.418,-3.056c3.048,-0.697 5.925,-1.046 8.632,-1.046c6.01,-0 10.547,1.31 13.609,3.931c3.062,2.621 4.594,6.737 4.594,12.349l-0,31.833l-7.179,0Zm-14.956,-6.836c3.647,-0 6.574,-1.019 8.781,-3.055c2.208,-2.037 3.312,-4.893 3.312,-8.568l-0,-4.102l-6.068,0.256c-4.728,0.171 -8.168,0.962 -10.319,2.372c-2.151,1.41 -3.226,3.568 -3.226,6.474c-0,2.108 0.627,3.738 1.88,4.892c1.253,1.154 3.134,1.731 5.64,1.731Z" style="fill:#fff;fill-rule:nonzero;"/><path d="M914.617,155.018c2.45,0 4.899,-0.384 7.349,-1.153l0,7.563c-1.111,0.484 -2.542,0.89 -4.294,1.218c-1.752,0.327 -3.568,0.491 -5.448,0.491c-9.515,0 -14.272,-5.014 -14.272,-15.041l-0,-25.467l-6.452,0l-0,-4.444l6.922,-3.675l3.418,-9.998l6.196,-0l0,10.511l13.46,0l0,7.606l-13.46,0l0,25.296c0,2.422 0.606,4.209 1.816,5.363c1.211,1.154 2.799,1.73 4.765,1.73Z" style="fill:#fff;fill-rule:nonzero;"/><path d="M941.451,162.282l-10.041,0l-0,-47.259l10.041,0l0,47.259Zm-10.64,-59.779c0,-1.794 0.492,-3.176 1.474,-4.144c0.983,-0.969 2.386,-1.453 4.209,-1.453c1.767,-0 3.141,0.484 4.124,1.453c0.983,0.968 1.474,2.35 1.474,4.144c0,1.71 -0.491,3.056 -1.474,4.038c-0.983,0.983 -2.357,1.474 -4.124,1.474c-1.823,0 -3.226,-0.491 -4.209,-1.474c-0.982,-0.982 -1.474,-2.328 -1.474,-4.038Z" style="fill:#fff;fill-rule:nonzero;"/><path d="M997.726,138.567c0,7.72 -1.979,13.745 -5.939,18.075c-3.96,4.33 -9.472,6.495 -16.537,6.495c-4.415,0 -8.318,-0.997 -11.708,-2.991c-3.389,-1.994 -5.996,-4.857 -7.819,-8.589c-1.823,-3.731 -2.735,-8.061 -2.735,-12.99c0,-7.663 1.966,-13.645 5.897,-17.946c3.931,-4.302 9.472,-6.452 16.622,-6.452c6.837,-0 12.249,2.2 16.237,6.601c3.988,4.402 5.982,10.334 5.982,17.797Zm-34.397,0c-0,10.911 4.031,16.366 12.092,16.366c7.977,-0 11.965,-5.455 11.965,-16.366c-0,-10.796 -4.017,-16.194 -12.05,-16.194c-4.216,-0 -7.271,1.396 -9.166,4.187c-1.894,2.792 -2.841,6.794 -2.841,12.007Z" style="fill:#fff;fill-rule:nonzero;"/><path d="M1050.84,162.282l-10.085,0l0,-29.056c0,-3.646 -0.733,-6.367 -2.2,-8.161c-1.467,-1.795 -3.796,-2.692 -6.987,-2.692c-4.244,-0 -7.349,1.253 -9.315,3.76c-1.965,2.507 -2.948,6.709 -2.948,12.605l-0,23.544l-10.042,0l0,-47.259l7.863,0l1.41,6.196l0.513,0c1.424,-2.25 3.446,-3.988 6.067,-5.213c2.621,-1.225 5.527,-1.837 8.717,-1.837c11.338,-0 17.007,5.768 17.007,17.305l-0,30.808Z" style="fill:#fff;fill-rule:nonzero;"/><rect x="164.458" y="320.058" width="58.437" height="130.836" style="fill:none;stroke:#318bff;stroke-width:12.57px;"/><rect x="1505.19" y="320.058" width="58.437" height="130.836" style="fill:none;stroke:#318bff;stroke-width:12.57px;"/><rect x="1449.43" y="509.331" width="114.199" height="130.836" style="fill:none;stroke:#318bff;stroke-width:12.57px;"/><rect x="972.637" y="320.058" width="58.437" height="130.836" style="fill:none;stroke:#318bff;stroke-width:12.57px;"/><rect x="246.242" y="320.058" width="203.634" height="130.836" style="fill:none;stroke:#318bff;stroke-width:12.57px;"/><rect x="609.5" y="320.058" width="203.634" height="130.836" style="fill:none;stroke:#318bff;stroke-width:12.57px;"/><rect x="1053" y="320.058" width="203.634" height="130.836" style="fill:none;stroke:#318bff;stroke-width:12.57px;"/><rect x="1277.86" y="320.058" width="203.634" height="130.836" style="fill:none;stroke:#318bff;stroke-width:12.57px;"/><rect x="1222.45" y="509.331" width="203.634" height="130.836" style="fill:none;stroke:#318bff;stroke-width:12.57px;"/><rect x="618.334" y="509.331" width="58.437" height="130.836" style="fill:none;stroke:#318bff;stroke-width:12.57px;"/><rect x="924.306" y="509.331" width="58.437" height="130.836" style="fill:none;stroke:#318bff;stroke-width:12.57px;"/><rect x="1006.02" y="509.331" width="58.437" height="130.836" style="fill:none;stroke:#318bff;stroke-width:12.57px;"/><rect x="261.155" y="781.097" width="113.436" height="130.836" style="fill:none;stroke:#d6924d;stroke-width:12.57px;"/><rect x="624.921" y="781.097" width="114.199" height="130.836" style="fill:none;stroke:#d6924d;stroke-width:12.57px;"/><rect x="787.226" y="953.95" width="119.831" height="130.836" style="fill:none;stroke:#d6924d;stroke-width:12.57px;"/><rect x="1298.12" y="781.097" width="265.511" height="130.836" style="fill:none;stroke:#d6924d;stroke-width:12.57px;"/><rect x="347.621" y="953.95" width="280.999" height="130.836" style="fill:none;stroke:#d6924d;stroke-width:12.57px;"/><rect x="932.046" y="953.95" width="265.511" height="130.836" style="fill:none;stroke:#d6924d;stroke-width:12.57px;"/><rect x="397.938" y="781.097" width="203.634" height="130.836" style="fill:#d6924d;stroke:#d6924d;stroke-width:12.57px;"/><rect x="99.795" y="781.097" width="58.437" height="130.836" style="fill:#d6924d;stroke:#d6924d;stroke-width:12.57px;"/><rect x="181.513" y="781.097" width="58.437" height="130.836" style="fill:none;stroke:#d6924d;stroke-width:12.57px;"/><rect x="98.77" y="953.95" width="58.437" height="130.836" style="fill:none;stroke:#d6924d;stroke-width:12.57px;"/><rect x="85.776" y="509.331" width="58.437" height="130.836" style="fill:none;stroke:#318bff;stroke-width:12.57px;"/><rect x="166.137" y="509.331" width="203.634" height="130.836" style="fill:none;stroke:#318bff;stroke-width:12.57px;"/><rect x="391.003" y="509.331" width="203.634" height="130.836" style="fill:none;stroke:#318bff;stroke-width:12.57px;"/><rect x="699.164" y="509.331" width="203.634" height="130.836" style="fill:none;stroke:#318bff;stroke-width:12.57px;"/><rect x="990.877" y="781.097" width="58.437" height="130.836" style="fill:#d6924d;stroke:#d6924d;stroke-width:12.57px;"/><rect x="652.689" y="953.95" width="113.436" height="130.836" style="fill:#d6924d;stroke:#d6924d;stroke-width:12.57px;"/><rect x="1449.43" y="953.95" width="114.199" height="130.836" style="fill:#d6924d;stroke:#d6924d;stroke-width:12.57px;"/><rect x="1222.45" y="953.95" width="203.634" height="130.836" style="fill:#d6924d;stroke:#d6924d;stroke-width:12.57px;"/><rect x="180.023" y="953.95" width="58.437" height="130.836" style="fill:#d6924d;stroke:#d6924d;stroke-width:12.57px;"/><rect x="261.741" y="953.95" width="58.437" height="130.836" style="fill:#d6924d;stroke:#d6924d;stroke-width:12.57px;"/><rect x="693.441" y="1232.61" width="119.831" height="130.836" style="fill:#518135;stroke:#518135;stroke-width:12.57px;"/><rect x="253.836" y="1232.61" width="280.999" height="130.836" style="fill:#518135;stroke:#518135;stroke-width:12.57px;"/><rect x="838.261" y="1232.61" width="265.511" height="130.836" style="fill:none;stroke:#518135;stroke-width:12.57px;"/><rect x="1494.02" y="1232.61" width="58.437" height="130.836" style="fill:none;stroke:#518135;stroke-width:12.57px;"/><rect x="880.92" y="1403.89" width="58.437" height="130.836" style="fill:#518135;stroke:#518135;stroke-width:12.57px;"/><rect x="1189.19" y="1403.89" width="58.437" height="130.836" style="fill:#518135;stroke:#518135;stroke-width:12.57px;"/><rect x="1269.78" y="1403.89" width="58.437" height="130.836" style="fill:none;stroke:#518135;stroke-width:12.57px;"/><rect x="558.904" y="1232.61" width="113.436" height="130.836" style="fill:#518135;stroke:#518135;stroke-width:12.57px;"/><rect x="1355.65" y="1232.61" width="114.199" height="130.836" style="fill:none;stroke:#518135;stroke-width:12.57px;"/><rect x="1355.65" y="1232.61" width="114.199" height="130.836" style="fill:none;stroke:#518135;stroke-width:12.57px;"/><rect x="1128.66" y="1232.61" width="203.634" height="130.836" style="fill:none;stroke:#518135;stroke-width:12.57px;"/><rect x="218.714" y="1403.89" width="119.831" height="130.836" style="fill:none;stroke:#518135;stroke-width:12.57px;"/><rect x="1352.83" y="1403.89" width="202.745" height="130.836" style="fill:none;stroke:#518135;stroke-width:12.57px;"/><rect x="363.534" y="1403.89" width="265.511" height="130.836" style="fill:none;stroke:#518135;stroke-width:12.57px;"/><rect x="84.177" y="1403.89" width="113.436" height="130.836" style="fill:none;stroke:#518135;stroke-width:12.57px;"/><rect x="653.938" y="1403.89" width="203.634" height="130.836" style="fill:none;stroke:#518135;stroke-width:12.57px;"/><rect x="961.353" y="1403.89" width="203.634" height="130.836" style="fill:none;stroke:#518135;stroke-width:12.57px;"/><rect x="86.238" y="1232.61" width="58.437" height="130.836" style="fill:none;stroke:#518135;stroke-width:12.57px;"/><rect x="167.956" y="1232.61" width="58.437" height="130.836" style="fill:none;stroke:#518135;stroke-width:12.57px;"/><rect x="761.965" y="781.097" width="203.634" height="130.836" style="fill:#d6924d;stroke:#d6924d;stroke-width:12.57px;"/><rect x="1071.61" y="781.097" width="203.634" height="130.836" style="fill:#d6924d;stroke:#d6924d;stroke-width:12.57px;"/><rect x="6.285" y="6.285" width="1618.31" height="1600.46" style="fill:none;stroke:#052f5f;stroke-width:12.57px;"/><g transform="matrix(2.38275e-16,-3.89132,3.89132,2.38275e-16,-2892.41,7945.59)"><g transform="matrix(22.4887,0,0,22.4887,1864.93,1192.18)"><path d="M0.531,-0.563c-0,0.051 -0.016,0.094 -0.049,0.129c-0.032,0.034 -0.076,0.057 -0.131,0.067l0,0.003c0.041,0.008 0.073,0.025 0.096,0.052c0.023,0.027 0.034,0.06 0.034,0.1c-0,0.043 -0.011,0.082 -0.033,0.116c-0.022,0.033 -0.054,0.059 -0.096,0.078c-0.042,0.018 -0.092,0.028 -0.149,0.028c-0.073,-0 -0.136,-0.013 -0.188,-0.039l0,-0.105c0.027,0.016 0.058,0.028 0.091,0.037c0.033,0.009 0.065,0.013 0.095,0.013c0.051,0 0.091,-0.012 0.12,-0.035c0.028,-0.023 0.043,-0.055 0.043,-0.096c-0,-0.071 -0.045,-0.107 -0.136,-0.107l-0.065,0l0.018,-0.089l0.052,-0c0.053,-0 0.097,-0.012 0.131,-0.037c0.033,-0.024 0.05,-0.056 0.05,-0.097c0,-0.026 -0.008,-0.046 -0.024,-0.061c-0.016,-0.015 -0.039,-0.022 -0.068,-0.022c-0.024,0 -0.048,0.004 -0.072,0.013c-0.024,0.008 -0.05,0.022 -0.079,0.041l-0.051,-0.079c0.039,-0.026 0.076,-0.045 0.11,-0.055c0.035,-0.011 0.071,-0.016 0.111,-0.016c0.059,-0 0.106,0.014 0.139,0.043c0.034,0.029 0.051,0.068 0.051,0.118Z" style="fill:#bbb;fill-rule:nonzero;"/></g><g transform="matrix(22.4887,0,0,22.4887,1877.31,1192.18)"><path d="M0.389,-0.55c0.02,0 0.038,0.002 0.053,0.006l-0.025,0.107c-0.018,-0.005 -0.034,-0.007 -0.05,-0.007c-0.041,0 -0.077,0.019 -0.11,0.055c-0.032,0.037 -0.054,0.085 -0.067,0.145l-0.052,0.244l-0.115,0l0.115,-0.54l0.09,-0l-0.01,0.1l0.004,0c0.027,-0.039 0.054,-0.067 0.081,-0.084c0.027,-0.017 0.056,-0.026 0.086,-0.026Z" style="fill:#bbb;fill-rule:nonzero;"/></g><g transform="matrix(22.4887,0,0,22.4887,1886.04,1192.18)"><path d="M0.304,-0.55c0.058,0 0.102,0.029 0.131,0.087l0.004,0c0.004,-0.047 0.01,-0.088 0.018,-0.122l0.037,-0.175l0.114,0l-0.161,0.76l-0.09,-0l0.009,-0.086l-0.003,0c-0.029,0.035 -0.057,0.059 -0.083,0.074c-0.027,0.014 -0.055,0.022 -0.085,0.022c-0.047,-0 -0.083,-0.017 -0.11,-0.05c-0.026,-0.033 -0.039,-0.08 -0.039,-0.14c-0,-0.067 0.012,-0.129 0.035,-0.187c0.023,-0.058 0.054,-0.103 0.093,-0.135c0.039,-0.032 0.083,-0.048 0.13,-0.048Zm-0.065,0.467c0.026,-0 0.053,-0.013 0.079,-0.04c0.026,-0.027 0.047,-0.062 0.063,-0.105c0.016,-0.043 0.024,-0.086 0.024,-0.13c-0,-0.03 -0.007,-0.053 -0.021,-0.071c-0.015,-0.018 -0.036,-0.027 -0.065,-0.027c-0.028,-0 -0.054,0.012 -0.078,0.038c-0.024,0.025 -0.043,0.059 -0.057,0.103c-0.015,0.043 -0.022,0.088 -0.022,0.133c0,0.066 0.026,0.099 0.077,0.099Z" style="fill:#bbb;fill-rule:nonzero;"/></g><g transform="matrix(22.4887,0,0,22.4887,1905.04,1192.18)"><path d="M0.227,-0.365l0.046,-0c0.058,-0 0.103,-0.013 0.134,-0.039c0.032,-0.026 0.048,-0.063 0.048,-0.11c0,-0.036 -0.009,-0.062 -0.028,-0.078c-0.02,-0.016 -0.049,-0.024 -0.088,-0.024l-0.058,-0l-0.054,0.251Zm0.346,-0.153c0,0.081 -0.027,0.143 -0.083,0.186c-0.055,0.043 -0.132,0.065 -0.23,0.065l-0.054,-0l-0.056,0.267l-0.116,-0l0.151,-0.714l0.163,0c0.075,0 0.131,0.016 0.169,0.049c0.037,0.033 0.056,0.082 0.056,0.147Z" style="fill:#bbb;fill-rule:nonzero;"/></g><g transform="matrix(22.4887,0,0,22.4887,1917.93,1192.18)"><path d="M0.195,0.01c-0.046,-0 -0.082,-0.017 -0.109,-0.05c-0.027,-0.033 -0.04,-0.079 -0.04,-0.139c-0,-0.066 0.011,-0.127 0.034,-0.185c0.022,-0.057 0.054,-0.102 0.093,-0.136c0.04,-0.033 0.084,-0.05 0.131,-0.05c0.032,0 0.059,0.008 0.082,0.022c0.023,0.015 0.04,0.037 0.053,0.065l0.005,0l0.03,-0.077l0.088,-0l-0.115,0.54l-0.089,-0l0.01,-0.086l-0.003,0c-0.051,0.064 -0.108,0.096 -0.17,0.096Zm0.042,-0.093c0.027,-0 0.053,-0.013 0.078,-0.038c0.026,-0.025 0.047,-0.059 0.064,-0.101c0.017,-0.042 0.025,-0.089 0.025,-0.139c-0,-0.028 -0.008,-0.052 -0.023,-0.069c-0.015,-0.017 -0.035,-0.026 -0.06,-0.026c-0.028,-0 -0.054,0.012 -0.078,0.038c-0.025,0.025 -0.044,0.059 -0.059,0.102c-0.015,0.043 -0.022,0.088 -0.022,0.134c0,0.033 0.007,0.058 0.02,0.074c0.013,0.017 0.031,0.025 0.055,0.025Z" style="fill:#bbb;fill-rule:nonzero;"/></g><g transform="matrix(22.4887,0,0,22.4887,1930.95,1192.18)"><path d="M0.389,-0.55c0.02,0 0.038,0.002 0.053,0.006l-0.025,0.107c-0.018,-0.005 -0.034,-0.007 -0.05,-0.007c-0.041,0 -0.077,0.019 -0.11,0.055c-0.032,0.037 -0.054,0.085 -0.067,0.145l-0.052,0.244l-0.115,0l0.115,-0.54l0.09,-0l-0.01,0.1l0.004,0c0.027,-0.039 0.054,-0.067 0.081,-0.084c0.027,-0.017 0.056,-0.026 0.086,-0.026Z" style="fill:#bbb;fill-rule:nonzero;"/></g><g transform="matrix(22.4887,0,0,22.4887,1940.13,1192.18)"><path d="M0.222,-0.083c0.022,-0 0.047,-0.005 0.074,-0.015l-0,0.087c-0.011,0.005 -0.027,0.01 -0.046,0.014c-0.02,0.005 -0.04,0.007 -0.059,0.007c-0.089,-0 -0.134,-0.04 -0.134,-0.121c0,-0.018 0.003,-0.04 0.008,-0.064l0.059,-0.278l-0.079,-0l0.01,-0.054l0.093,-0.04l0.063,-0.113l0.071,-0l-0.025,0.12l0.136,-0l-0.019,0.087l-0.135,-0l-0.06,0.279c-0.004,0.018 -0.006,0.033 -0.006,0.045c-0,0.014 0.004,0.025 0.012,0.034c0.008,0.008 0.021,0.012 0.037,0.012Z" style="fill:#bbb;fill-rule:nonzero;"/></g><g transform="matrix(22.4887,0,0,22.4887,1948.39,1192.18)"><path d="M0.049,-0.54l0.113,-0l0.031,0.259c0.003,0.02 0.005,0.049 0.008,0.085c0.002,0.037 0.003,0.067 0.003,0.089l0.003,0c0.028,-0.07 0.05,-0.121 0.066,-0.153l0.143,-0.28l0.124,-0l-0.336,0.625c-0.029,0.054 -0.061,0.093 -0.096,0.118c-0.034,0.025 -0.075,0.037 -0.121,0.037c-0.025,0 -0.048,-0.003 -0.07,-0.009l-0,-0.092c0.024,0.005 0.045,0.008 0.061,0.008c0.024,-0 0.046,-0.007 0.065,-0.021c0.02,-0.014 0.04,-0.04 0.061,-0.076l0.025,-0.045l-0.08,-0.545Z" style="fill:#bbb;fill-rule:nonzero;"/></g><g transform="matrix(22.4887,0,0,22.4887,1867.39,1214.67)"><path d="M0.034,-0l0.151,-0.714l0.116,0l-0.13,0.614l0.263,-0l-0.021,0.1l-0.379,-0Z" style="fill:#bbb;fill-rule:nonzero;"/></g><g transform="matrix(22.4887,0,0,22.4887,1878.55,1214.67)"><path d="M0.161,-0.673c0,-0.022 0.006,-0.04 0.019,-0.054c0.013,-0.013 0.031,-0.02 0.054,-0.02c0.017,-0 0.031,0.004 0.042,0.013c0.011,0.008 0.016,0.022 0.016,0.039c-0,0.023 -0.007,0.042 -0.02,0.055c-0.013,0.013 -0.03,0.02 -0.051,0.02c-0.017,-0 -0.031,-0.004 -0.043,-0.013c-0.011,-0.008 -0.017,-0.022 -0.017,-0.04Zm-0.023,0.673l-0.115,-0l0.115,-0.54l0.115,-0l-0.115,0.54Z" style="fill:#bbb;fill-rule:nonzero;"/></g><g transform="matrix(22.4887,0,0,22.4887,1884.73,1214.67)"><path d="M0.282,0.01c-0.032,-0 -0.059,-0.008 -0.082,-0.022c-0.023,-0.015 -0.041,-0.036 -0.054,-0.064l-0.005,-0l-0.031,0.076l-0.087,-0l0.161,-0.76l0.115,0l-0.035,0.163c-0.004,0.02 -0.01,0.046 -0.018,0.076c-0.009,0.031 -0.015,0.054 -0.02,0.069l0.004,-0c0.029,-0.037 0.056,-0.062 0.081,-0.077c0.024,-0.014 0.05,-0.021 0.078,-0.021c0.047,0 0.084,0.017 0.111,0.051c0.026,0.033 0.039,0.08 0.039,0.139c0,0.066 -0.011,0.128 -0.034,0.185c-0.022,0.058 -0.054,0.103 -0.093,0.136c-0.039,0.032 -0.083,0.049 -0.13,0.049Zm0.065,-0.466c-0.026,-0 -0.053,0.013 -0.079,0.039c-0.026,0.026 -0.048,0.06 -0.064,0.103c-0.016,0.042 -0.024,0.086 -0.024,0.132c0,0.031 0.008,0.055 0.023,0.073c0.015,0.017 0.036,0.026 0.064,0.026c0.028,-0 0.054,-0.013 0.078,-0.038c0.024,-0.026 0.043,-0.06 0.057,-0.103c0.014,-0.043 0.021,-0.087 0.021,-0.134c-0,-0.065 -0.025,-0.098 -0.076,-0.098Z" style="fill:#bbb;fill-rule:nonzero;"/></g><g transform="matrix(22.4887,0,0,22.4887,1897.91,1214.67)"><path d="M0.389,-0.55c0.02,0 0.038,0.002 0.053,0.006l-0.025,0.107c-0.018,-0.005 -0.034,-0.007 -0.05,-0.007c-0.041,0 -0.077,0.019 -0.11,0.055c-0.032,0.037 -0.054,0.085 -0.067,0.145l-0.052,0.244l-0.115,0l0.115,-0.54l0.09,-0l-0.01,0.1l0.004,0c0.027,-0.039 0.054,-0.067 0.081,-0.084c0.027,-0.017 0.056,-0.026 0.086,-0.026Z" style="fill:#bbb;fill-rule:nonzero;"/></g><g transform="matrix(22.4887,0,0,22.4887,1906.64,1214.67)"><path d="M0.195,0.01c-0.046,-0 -0.082,-0.017 -0.109,-0.05c-0.027,-0.033 -0.04,-0.079 -0.04,-0.139c-0,-0.066 0.011,-0.127 0.034,-0.185c0.022,-0.057 0.054,-0.102 0.093,-0.136c0.04,-0.033 0.084,-0.05 0.131,-0.05c0.032,0 0.059,0.008 0.082,0.022c0.023,0.015 0.04,0.037 0.053,0.065l0.005,0l0.03,-0.077l0.088,-0l-0.115,0.54l-0.089,-0l0.01,-0.086l-0.003,0c-0.051,0.064 -0.108,0.096 -0.17,0.096Zm0.042,-0.093c0.027,-0 0.053,-0.013 0.078,-0.038c0.026,-0.025 0.047,-0.059 0.064,-0.101c0.017,-0.042 0.025,-0.089 0.025,-0.139c-0,-0.028 -0.008,-0.052 -0.023,-0.069c-0.015,-0.017 -0.035,-0.026 -0.06,-0.026c-0.028,-0 -0.054,0.012 -0.078,0.038c-0.025,0.025 -0.044,0.059 -0.059,0.102c-0.015,0.043 -0.022,0.088 -0.022,0.134c0,0.033 0.007,0.058 0.02,0.074c0.013,0.017 0.031,0.025 0.055,0.025Z" style="fill:#bbb;fill-rule:nonzero;"/></g><g transform="matrix(22.4887,0,0,22.4887,1919.66,1214.67)"><path d="M0.389,-0.55c0.02,0 0.038,0.002 0.053,0.006l-0.025,0.107c-0.018,-0.005 -0.034,-0.007 -0.05,-0.007c-0.041,0 -0.077,0.019 -0.11,0.055c-0.032,0.037 -0.054,0.085 -0.067,0.145l-0.052,0.244l-0.115,0l0.115,-0.54l0.09,-0l-0.01,0.1l0.004,0c0.027,-0.039 0.054,-0.067 0.081,-0.084c0.027,-0.017 0.056,-0.026 0.086,-0.026Z" style="fill:#bbb;fill-rule:nonzero;"/></g><g transform="matrix(22.4887,0,0,22.4887,1928.84,1214.67)"><path d="M0.161,-0.673c0,-0.022 0.006,-0.04 0.019,-0.054c0.013,-0.013 0.031,-0.02 0.054,-0.02c0.017,-0 0.031,0.004 0.042,0.013c0.011,0.008 0.016,0.022 0.016,0.039c-0,0.023 -0.007,0.042 -0.02,0.055c-0.013,0.013 -0.03,0.02 -0.051,0.02c-0.017,-0 -0.031,-0.004 -0.043,-0.013c-0.011,-0.008 -0.017,-0.022 -0.017,-0.04Zm-0.023,0.673l-0.115,-0l0.115,-0.54l0.115,-0l-0.115,0.54Z" style="fill:#bbb;fill-rule:nonzero;"/></g><g transform="matrix(22.4887,0,0,22.4887,1935.02,1214.67)"><path d="M0.324,-0.462c-0.031,0 -0.06,0.014 -0.088,0.042c-0.027,0.028 -0.047,0.065 -0.059,0.111l0.014,-0c0.061,-0 0.109,-0.009 0.143,-0.026c0.035,-0.018 0.052,-0.042 0.052,-0.074c0,-0.017 -0.005,-0.03 -0.015,-0.039c-0.011,-0.009 -0.026,-0.014 -0.047,-0.014Zm-0.074,0.472c-0.064,-0 -0.114,-0.018 -0.15,-0.054c-0.036,-0.037 -0.054,-0.087 -0.054,-0.152c-0,-0.064 0.013,-0.124 0.038,-0.18c0.025,-0.055 0.059,-0.098 0.102,-0.128c0.043,-0.031 0.092,-0.046 0.145,-0.046c0.052,0 0.093,0.012 0.122,0.036c0.03,0.023 0.044,0.057 0.044,0.1c0,0.059 -0.027,0.105 -0.081,0.139c-0.054,0.033 -0.132,0.05 -0.232,0.05l-0.021,-0l-0.001,0.015l0,0.014c0,0.036 0.009,0.065 0.028,0.085c0.018,0.021 0.046,0.031 0.082,0.031c0.023,-0 0.047,-0.003 0.07,-0.009c0.023,-0.007 0.05,-0.017 0.082,-0.032l-0,0.091c-0.031,0.015 -0.06,0.025 -0.086,0.031c-0.027,0.006 -0.056,0.009 -0.088,0.009Z" style="fill:#bbb;fill-rule:nonzero;"/></g><g transform="matrix(22.4887,0,0,22.4887,1946.83,1214.67)"><path d="M0.382,-0.166c-0,0.056 -0.019,0.1 -0.058,0.13c-0.038,0.031 -0.092,0.046 -0.16,0.046c-0.062,-0 -0.114,-0.011 -0.157,-0.033l-0,-0.099c0.05,0.029 0.1,0.044 0.152,0.044c0.032,-0 0.057,-0.007 0.077,-0.02c0.019,-0.013 0.029,-0.03 0.029,-0.053c0,-0.016 -0.005,-0.031 -0.017,-0.043c-0.011,-0.011 -0.034,-0.027 -0.069,-0.047c-0.04,-0.022 -0.069,-0.044 -0.086,-0.067c-0.017,-0.022 -0.025,-0.049 -0.025,-0.08c-0,-0.051 0.017,-0.09 0.052,-0.119c0.035,-0.028 0.082,-0.043 0.141,-0.043c0.064,0 0.12,0.014 0.169,0.041l-0.037,0.086c-0.046,-0.025 -0.089,-0.037 -0.13,-0.037c-0.024,0 -0.043,0.005 -0.058,0.016c-0.014,0.011 -0.022,0.026 -0.022,0.045c0,0.015 0.005,0.028 0.016,0.039c0.011,0.012 0.033,0.026 0.066,0.044c0.034,0.019 0.059,0.036 0.073,0.049c0.014,0.014 0.025,0.029 0.033,0.045c0.007,0.016 0.011,0.035 0.011,0.056Z" style="fill:#bbb;fill-rule:nonzero;"/></g></g><path d="M1683.8,2202.13l40.85,8.631c7.606,1.595 13.254,4.558 16.943,8.888c3.689,4.33 5.533,10.07 5.533,17.22c0,6.182 -1.51,10.96 -4.529,14.336c-3.02,3.375 -7.364,5.063 -13.033,5.063c-2.364,0 -4.786,-0.285 -7.264,-0.854l-38.5,-8.247l0,-10.127l38.671,8.204c2.507,0.598 4.757,0.897 6.751,0.897c2.906,0 5.163,-0.847 6.773,-2.542c1.609,-1.695 2.414,-4.266 2.414,-7.713c0,-4.13 -1.146,-7.406 -3.44,-9.828c-2.293,-2.421 -6.017,-4.187 -11.173,-5.298l-39.996,-8.503l0,-10.127Z" style="fill:#bbb;fill-rule:nonzero;"/><path d="M1746.28,2172.99l-28.715,-6.068c-2.564,-0.513 -4.43,-0.769 -5.598,-0.769c-3.731,-0 -5.597,1.837 -5.597,5.512c-0,2.051 0.812,4.074 2.435,6.068c1.624,1.994 3.967,3.788 7.029,5.384c3.063,1.595 6.531,2.791 10.405,3.589l20.041,4.188l-0,10.084l-47.26,-10.084l0,-7.863l8.76,0.898l-0,-0.385c-3.362,-2.364 -5.804,-4.8 -7.328,-7.307c-1.524,-2.507 -2.286,-5.227 -2.286,-8.161c-0,-3.817 1.082,-6.773 3.247,-8.867c2.165,-2.093 5.242,-3.14 9.23,-3.14c1.965,-0 4.543,0.327 7.734,0.982l27.903,5.854l-0,10.085Z" style="fill:#bbb;fill-rule:nonzero;"/><path d="M1687.39,2137.27c-1.937,0 -3.504,-0.555 -4.701,-1.666c-1.196,-1.111 -1.794,-2.678 -1.794,-4.7c-0,-1.51 0.377,-2.735 1.132,-3.675c0.755,-0.94 1.902,-1.41 3.44,-1.41c2.022,-0 3.618,0.57 4.786,1.709c1.168,1.14 1.751,2.635 1.751,4.487c0,1.509 -0.37,2.763 -1.11,3.76c-0.741,0.997 -1.909,1.495 -3.504,1.495Zm58.882,2.009l-0,10.084l-47.26,-10.084l0,-10.042l47.26,10.042Z" style="fill:#bbb;fill-rule:nonzero;"/><path d="M1699.02,2089.41l0,-11.623l20.724,20.639l26.536,-12.434l-0,11.195l-20.126,8.93l4.102,5.812l16.024,3.29l-0,10.084l-66.488,-14.101l-0,-10.041c17.861,3.845 28.251,6.117 31.171,6.815c2.92,0.698 6.146,1.546 9.679,2.543l-0,-0.171l-21.622,-20.938Z" style="fill:#bbb;fill-rule:nonzero;"/><path d="M1698.16,2047.06c-0,-1.767 0.171,-3.305 0.512,-4.615l9.358,2.179c-0.399,1.538 -0.598,2.991 -0.598,4.358c-0,3.59 1.609,6.795 4.828,9.615c3.219,2.82 7.435,4.785 12.649,5.896l21.365,4.53l-0,10.084l-47.26,-10.084l0,-7.863l8.76,0.898l-0,-0.385c-3.419,-2.364 -5.876,-4.729 -7.371,-7.093c-1.496,-2.364 -2.243,-4.871 -2.243,-7.52Z" style="fill:#bbb;fill-rule:nonzero;"/><path d="M1747.13,2030.1c0,4.016 -1.446,7.193 -4.337,9.529c-2.891,2.335 -6.958,3.503 -12.199,3.503c-5.755,0 -11.139,-0.989 -16.152,-2.969c-5.014,-1.98 -8.981,-4.708 -11.901,-8.183c-2.919,-3.475 -4.379,-7.293 -4.379,-11.452c-0,-2.763 0.648,-5.142 1.944,-7.136c1.296,-1.994 3.183,-3.546 5.662,-4.657l-0,-0.427l-6.752,-2.65l0,-7.691l47.26,10.084l-0,7.777l-7.521,-0.897l0,0.256c5.583,4.501 8.375,9.472 8.375,14.913Zm-8.119,-3.675c0,-2.336 -1.103,-4.629 -3.311,-6.879c-2.208,-2.251 -5.163,-4.103 -8.867,-5.555c-3.703,-1.453 -7.748,-2.18 -12.135,-2.18c-2.507,0 -4.522,0.67 -6.046,2.009c-1.524,1.339 -2.286,3.091 -2.286,5.256c-0,2.421 1.096,4.7 3.29,6.836c2.193,2.137 5.177,3.846 8.952,5.128c3.774,1.282 7.684,1.923 11.729,1.923c2.906,-0 5.078,-0.577 6.517,-1.731c1.438,-1.154 2.157,-2.756 2.157,-4.807Z" style="fill:#bbb;fill-rule:nonzero;"/><path d="M1767.3,1999.72c-0,2.564 -0.328,4.686 -0.983,6.367l-8.119,-0c0.57,-1.824 0.855,-3.447 0.855,-4.872c-0,-3.817 -2.92,-6.338 -8.76,-7.563l-43.67,-9.272l0,7.648l-4.529,-0.897l-3.248,-8.289l-3.931,-0.898c-5.64,-1.253 -9.65,-3.169 -12.028,-5.747c-2.379,-2.578 -3.568,-6.231 -3.568,-10.96c-0,-3.276 0.612,-6.282 1.837,-9.016l7.521,2.606c-0.798,2.108 -1.197,4.045 -1.197,5.812c0,1.965 0.613,3.539 1.838,4.721c1.224,1.182 3.233,2.087 6.024,2.714l3.675,0.769l0,-9.785l7.606,1.581l0,9.785l44.995,9.529c5.384,1.139 9.343,3.005 11.879,5.597c2.535,2.592 3.803,5.982 3.803,10.17Z" style="fill:#bbb;fill-rule:nonzero;"/><path d="M1739.01,1947.03c0,-1.937 -0.441,-4.088 -1.324,-6.452l7.606,-0c0.484,0.997 0.911,2.35 1.282,4.059c0.37,1.709 0.555,3.418 0.555,5.128c0,7.805 -3.518,11.708 -10.554,11.708c-1.624,-0 -3.49,-0.228 -5.598,-0.684l-24.356,-5.17l0,6.922l-4.7,-0.898l-3.504,-8.118l-9.913,-5.512l-0,-6.239l10.511,2.222l0,-11.922l7.606,1.667l0,11.836l24.442,5.213c1.566,0.37 2.877,0.556 3.931,0.556c1.225,-0 2.2,-0.357 2.927,-1.069c0.726,-0.712 1.089,-1.794 1.089,-3.247Z" style="fill:#bbb;fill-rule:nonzero;"/><g transform="matrix(2.38275e-16,-3.89132,3.89132,2.38275e-16,-2892.41,8401.96)"><g transform="matrix(22.4887,0,0,22.4887,1898.22,1192.18)"><path d="M0.694,-0.45c-0,0.091 -0.016,0.172 -0.047,0.242c-0.03,0.071 -0.073,0.125 -0.127,0.162c-0.054,0.037 -0.117,0.056 -0.189,0.056c-0.084,-0 -0.15,-0.025 -0.196,-0.073c-0.046,-0.049 -0.069,-0.116 -0.069,-0.202c-0,-0.087 0.016,-0.166 0.048,-0.238c0.032,-0.072 0.076,-0.127 0.132,-0.165c0.055,-0.038 0.118,-0.057 0.189,-0.057c0.082,-0 0.145,0.024 0.191,0.073c0.045,0.048 0.068,0.116 0.068,0.202Zm-0.268,-0.175c-0.045,0 -0.086,0.016 -0.122,0.047c-0.037,0.031 -0.065,0.075 -0.086,0.13c-0.021,0.056 -0.031,0.116 -0.031,0.182c0,0.056 0.013,0.1 0.04,0.13c0.026,0.031 0.063,0.046 0.111,0.046c0.045,0 0.085,-0.015 0.121,-0.046c0.036,-0.032 0.064,-0.075 0.084,-0.13c0.02,-0.055 0.03,-0.116 0.03,-0.183c0,-0.056 -0.013,-0.099 -0.038,-0.13c-0.026,-0.031 -0.062,-0.046 -0.109,-0.046Z" style="fill:#bbb;fill-rule:nonzero;"/></g><g transform="matrix(22.4887,0,0,22.4887,1914.52,1192.18)"><path d="M0.454,-0.209c0,0.068 -0.023,0.122 -0.07,0.161c-0.047,0.038 -0.112,0.058 -0.195,0.058c-0.068,-0 -0.125,-0.012 -0.17,-0.037l0,-0.109c0.056,0.031 0.113,0.047 0.171,0.047c0.045,0 0.08,-0.009 0.105,-0.028c0.026,-0.019 0.039,-0.046 0.039,-0.08c-0,-0.022 -0.007,-0.042 -0.02,-0.06c-0.013,-0.017 -0.041,-0.039 -0.084,-0.066c-0.034,-0.022 -0.059,-0.042 -0.076,-0.06c-0.016,-0.018 -0.028,-0.037 -0.037,-0.059c-0.009,-0.021 -0.013,-0.044 -0.013,-0.07c0,-0.042 0.01,-0.079 0.03,-0.111c0.02,-0.032 0.048,-0.057 0.085,-0.075c0.037,-0.017 0.078,-0.026 0.124,-0.026c0.067,-0 0.129,0.015 0.186,0.045l-0.042,0.093c-0.053,-0.025 -0.101,-0.038 -0.144,-0.038c-0.036,-0 -0.064,0.009 -0.086,0.029c-0.021,0.019 -0.032,0.043 -0.032,0.074c0,0.015 0.003,0.029 0.007,0.04c0.005,0.012 0.013,0.023 0.023,0.033c0.01,0.009 0.032,0.025 0.066,0.046c0.05,0.032 0.085,0.062 0.104,0.092c0.019,0.029 0.029,0.063 0.029,0.101Z" style="fill:#bbb;fill-rule:nonzero;"/></g><g transform="matrix(22.4887,0,0,22.4887,1867.39,1214.67)"><path d="M0.034,-0l0.151,-0.714l0.116,0l-0.13,0.614l0.263,-0l-0.021,0.1l-0.379,-0Z" style="fill:#bbb;fill-rule:nonzero;"/></g><g transform="matrix(22.4887,0,0,22.4887,1878.55,1214.67)"><path d="M0.161,-0.673c0,-0.022 0.006,-0.04 0.019,-0.054c0.013,-0.013 0.031,-0.02 0.054,-0.02c0.017,-0 0.031,0.004 0.042,0.013c0.011,0.008 0.016,0.022 0.016,0.039c-0,0.023 -0.007,0.042 -0.02,0.055c-0.013,0.013 -0.03,0.02 -0.051,0.02c-0.017,-0 -0.031,-0.004 -0.043,-0.013c-0.011,-0.008 -0.017,-0.022 -0.017,-0.04Zm-0.023,0.673l-0.115,-0l0.115,-0.54l0.115,-0l-0.115,0.54Z" style="fill:#bbb;fill-rule:nonzero;"/></g><g transform="matrix(22.4887,0,0,22.4887,1884.73,1214.67)"><path d="M0.282,0.01c-0.032,-0 -0.059,-0.008 -0.082,-0.022c-0.023,-0.015 -0.041,-0.036 -0.054,-0.064l-0.005,-0l-0.031,0.076l-0.087,-0l0.161,-0.76l0.115,0l-0.035,0.163c-0.004,0.02 -0.01,0.046 -0.018,0.076c-0.009,0.031 -0.015,0.054 -0.02,0.069l0.004,-0c0.029,-0.037 0.056,-0.062 0.081,-0.077c0.024,-0.014 0.05,-0.021 0.078,-0.021c0.047,0 0.084,0.017 0.111,0.051c0.026,0.033 0.039,0.08 0.039,0.139c0,0.066 -0.011,0.128 -0.034,0.185c-0.022,0.058 -0.054,0.103 -0.093,0.136c-0.039,0.032 -0.083,0.049 -0.13,0.049Zm0.065,-0.466c-0.026,-0 -0.053,0.013 -0.079,0.039c-0.026,0.026 -0.048,0.06 -0.064,0.103c-0.016,0.042 -0.024,0.086 -0.024,0.132c0,0.031 0.008,0.055 0.023,0.073c0.015,0.017 0.036,0.026 0.064,0.026c0.028,-0 0.054,-0.013 0.078,-0.038c0.024,-0.026 0.043,-0.06 0.057,-0.103c0.014,-0.043 0.021,-0.087 0.021,-0.134c-0,-0.065 -0.025,-0.098 -0.076,-0.098Z" style="fill:#bbb;fill-rule:nonzero;"/></g><g transform="matrix(22.4887,0,0,22.4887,1897.91,1214.67)"><path d="M0.389,-0.55c0.02,0 0.038,0.002 0.053,0.006l-0.025,0.107c-0.018,-0.005 -0.034,-0.007 -0.05,-0.007c-0.041,0 -0.077,0.019 -0.11,0.055c-0.032,0.037 -0.054,0.085 -0.067,0.145l-0.052,0.244l-0.115,0l0.115,-0.54l0.09,-0l-0.01,0.1l0.004,0c0.027,-0.039 0.054,-0.067 0.081,-0.084c0.027,-0.017 0.056,-0.026 0.086,-0.026Z" style="fill:#bbb;fill-rule:nonzero;"/></g><g transform="matrix(22.4887,0,0,22.4887,1906.64,1214.67)"><path d="M0.195,0.01c-0.046,-0 -0.082,-0.017 -0.109,-0.05c-0.027,-0.033 -0.04,-0.079 -0.04,-0.139c-0,-0.066 0.011,-0.127 0.034,-0.185c0.022,-0.057 0.054,-0.102 0.093,-0.136c0.04,-0.033 0.084,-0.05 0.131,-0.05c0.032,0 0.059,0.008 0.082,0.022c0.023,0.015 0.04,0.037 0.053,0.065l0.005,0l0.03,-0.077l0.088,-0l-0.115,0.54l-0.089,-0l0.01,-0.086l-0.003,0c-0.051,0.064 -0.108,0.096 -0.17,0.096Zm0.042,-0.093c0.027,-0 0.053,-0.013 0.078,-0.038c0.026,-0.025 0.047,-0.059 0.064,-0.101c0.017,-0.042 0.025,-0.089 0.025,-0.139c-0,-0.028 -0.008,-0.052 -0.023,-0.069c-0.015,-0.017 -0.035,-0.026 -0.06,-0.026c-0.028,-0 -0.054,0.012 -0.078,0.038c-0.025,0.025 -0.044,0.059 -0.059,0.102c-0.015,0.043 -0.022,0.088 -0.022,0.134c0,0.033 0.007,0.058 0.02,0.074c0.013,0.017 0.031,0.025 0.055,0.025Z" style="fill:#bbb;fill-rule:nonzero;"/></g><g transform="matrix(22.4887,0,0,22.4887,1919.66,1214.67)"><path d="M0.389,-0.55c0.02,0 0.038,0.002 0.053,0.006l-0.025,0.107c-0.018,-0.005 -0.034,-0.007 -0.05,-0.007c-0.041,0 -0.077,0.019 -0.11,0.055c-0.032,0.037 -0.054,0.085 -0.067,0.145l-0.052,0.244l-0.115,0l0.115,-0.54l0.09,-0l-0.01,0.1l0.004,0c0.027,-0.039 0.054,-0.067 0.081,-0.084c0.027,-0.017 0.056,-0.026 0.086,-0.026Z" style="fill:#bbb;fill-rule:nonzero;"/></g><g transform="matrix(22.4887,0,0,22.4887,1928.84,1214.67)"><path d="M0.161,-0.673c0,-0.022 0.006,-0.04 0.019,-0.054c0.013,-0.013 0.031,-0.02 0.054,-0.02c0.017,-0 0.031,0.004 0.042,0.013c0.011,0.008 0.016,0.022 0.016,0.039c-0,0.023 -0.007,0.042 -0.02,0.055c-0.013,0.013 -0.03,0.02 -0.051,0.02c-0.017,-0 -0.031,-0.004 -0.043,-0.013c-0.011,-0.008 -0.017,-0.022 -0.017,-0.04Zm-0.023,0.673l-0.115,-0l0.115,-0.54l0.115,-0l-0.115,0.54Z" style="fill:#bbb;fill-rule:nonzero;"/></g><g transform="matrix(22.4887,0,0,22.4887,1935.02,1214.67)"><path d="M0.324,-0.462c-0.031,0 -0.06,0.014 -0.088,0.042c-0.027,0.028 -0.047,0.065 -0.059,0.111l0.014,-0c0.061,-0 0.109,-0.009 0.143,-0.026c0.035,-0.018 0.052,-0.042 0.052,-0.074c0,-0.017 -0.005,-0.03 -0.015,-0.039c-0.011,-0.009 -0.026,-0.014 -0.047,-0.014Zm-0.074,0.472c-0.064,-0 -0.114,-0.018 -0.15,-0.054c-0.036,-0.037 -0.054,-0.087 -0.054,-0.152c-0,-0.064 0.013,-0.124 0.038,-0.18c0.025,-0.055 0.059,-0.098 0.102,-0.128c0.043,-0.031 0.092,-0.046 0.145,-0.046c0.052,0 0.093,0.012 0.122,0.036c0.03,0.023 0.044,0.057 0.044,0.1c0,0.059 -0.027,0.105 -0.081,0.139c-0.054,0.033 -0.132,0.05 -0.232,0.05l-0.021,-0l-0.001,0.015l0,0.014c0,0.036 0.009,0.065 0.028,0.085c0.018,0.021 0.046,0.031 0.082,0.031c0.023,-0 0.047,-0.003 0.07,-0.009c0.023,-0.007 0.05,-0.017 0.082,-0.032l-0,0.091c-0.031,0.015 -0.06,0.025 -0.086,0.031c-0.027,0.006 -0.056,0.009 -0.088,0.009Z" style="fill:#bbb;fill-rule:nonzero;"/></g><g transform="matrix(22.4887,0,0,22.4887,1946.83,1214.67)"><path d="M0.382,-0.166c-0,0.056 -0.019,0.1 -0.058,0.13c-0.038,0.031 -0.092,0.046 -0.16,0.046c-0.062,-0 -0.114,-0.011 -0.157,-0.033l-0,-0.099c0.05,0.029 0.1,0.044 0.152,0.044c0.032,-0 0.057,-0.007 0.077,-0.02c0.019,-0.013 0.029,-0.03 0.029,-0.053c0,-0.016 -0.005,-0.031 -0.017,-0.043c-0.011,-0.011 -0.034,-0.027 -0.069,-0.047c-0.04,-0.022 -0.069,-0.044 -0.086,-0.067c-0.017,-0.022 -0.025,-0.049 -0.025,-0.08c-0,-0.051 0.017,-0.09 0.052,-0.119c0.035,-0.028 0.082,-0.043 0.141,-0.043c0.064,0 0.12,0.014 0.169,0.041l-0.037,0.086c-0.046,-0.025 -0.089,-0.037 -0.13,-0.037c-0.024,0 -0.043,0.005 -0.058,0.016c-0.014,0.011 -0.022,0.026 -0.022,0.045c0,0.015 0.005,0.028 0.016,0.039c0.011,0.012 0.033,0.026 0.066,0.044c0.034,0.019 0.059,0.036 0.073,0.049c0.014,0.014 0.025,0.029 0.033,0.045c0.007,0.016 0.011,0.035 0.011,0.056Z" style="fill:#bbb;fill-rule:nonzero;"/></g></g><g transform="matrix(2.38275e-16,-3.89132,3.89132,2.38275e-16,-2892.41,8834.34)"><g transform="matrix(22.4887,0,0,22.4887,1898.22,1192.18)"><path d="M0.694,-0.45c-0,0.091 -0.016,0.172 -0.047,0.242c-0.03,0.071 -0.073,0.125 -0.127,0.162c-0.054,0.037 -0.117,0.056 -0.189,0.056c-0.084,-0 -0.15,-0.025 -0.196,-0.073c-0.046,-0.049 -0.069,-0.116 -0.069,-0.202c-0,-0.087 0.016,-0.166 0.048,-0.238c0.032,-0.072 0.076,-0.127 0.132,-0.165c0.055,-0.038 0.118,-0.057 0.189,-0.057c0.082,-0 0.145,0.024 0.191,0.073c0.045,0.048 0.068,0.116 0.068,0.202Zm-0.268,-0.175c-0.045,0 -0.086,0.016 -0.122,0.047c-0.037,0.031 -0.065,0.075 -0.086,0.13c-0.021,0.056 -0.031,0.116 -0.031,0.182c0,0.056 0.013,0.1 0.04,0.13c0.026,0.031 0.063,0.046 0.111,0.046c0.045,0 0.085,-0.015 0.121,-0.046c0.036,-0.032 0.064,-0.075 0.084,-0.13c0.02,-0.055 0.03,-0.116 0.03,-0.183c0,-0.056 -0.013,-0.099 -0.038,-0.13c-0.026,-0.031 -0.062,-0.046 -0.109,-0.046Z" style="fill:#bbb;fill-rule:nonzero;"/></g><g transform="matrix(22.4887,0,0,22.4887,1914.52,1192.18)"><path d="M0.454,-0.209c0,0.068 -0.023,0.122 -0.07,0.161c-0.047,0.038 -0.112,0.058 -0.195,0.058c-0.068,-0 -0.125,-0.012 -0.17,-0.037l0,-0.109c0.056,0.031 0.113,0.047 0.171,0.047c0.045,0 0.08,-0.009 0.105,-0.028c0.026,-0.019 0.039,-0.046 0.039,-0.08c-0,-0.022 -0.007,-0.042 -0.02,-0.06c-0.013,-0.017 -0.041,-0.039 -0.084,-0.066c-0.034,-0.022 -0.059,-0.042 -0.076,-0.06c-0.016,-0.018 -0.028,-0.037 -0.037,-0.059c-0.009,-0.021 -0.013,-0.044 -0.013,-0.07c0,-0.042 0.01,-0.079 0.03,-0.111c0.02,-0.032 0.048,-0.057 0.085,-0.075c0.037,-0.017 0.078,-0.026 0.124,-0.026c0.067,-0 0.129,0.015 0.186,0.045l-0.042,0.093c-0.053,-0.025 -0.101,-0.038 -0.144,-0.038c-0.036,-0 -0.064,0.009 -0.086,0.029c-0.021,0.019 -0.032,0.043 -0.032,0.074c0,0.015 0.003,0.029 0.007,0.04c0.005,0.012 0.013,0.023 0.023,0.033c0.01,0.009 0.032,0.025 0.066,0.046c0.05,0.032 0.085,0.062 0.104,0.092c0.019,0.029 0.029,0.063 0.029,0.101Z" style="fill:#bbb;fill-rule:nonzero;"/></g><g transform="matrix(22.4887,0,0,22.4887,1879.48,1214.67)"><path d="M0.531,-0l-0.128,-0l-0.123,-0.32l-0.073,0.049l-0.057,0.271l-0.116,-0l0.151,-0.714l0.116,0l-0.074,0.345l0.069,-0.081l0.24,-0.264l0.139,0l-0.301,0.327l0.157,0.387Z" style="fill:#bbb;fill-rule:nonzero;"/></g><g transform="matrix(22.4887,0,0,22.4887,1892.63,1214.67)"><path d="M0.324,-0.462c-0.031,0 -0.06,0.014 -0.088,0.042c-0.027,0.028 -0.047,0.065 -0.059,0.111l0.014,-0c0.061,-0 0.109,-0.009 0.143,-0.026c0.035,-0.018 0.052,-0.042 0.052,-0.074c0,-0.017 -0.005,-0.03 -0.015,-0.039c-0.011,-0.009 -0.026,-0.014 -0.047,-0.014Zm-0.074,0.472c-0.064,-0 -0.114,-0.018 -0.15,-0.054c-0.036,-0.037 -0.054,-0.087 -0.054,-0.152c-0,-0.064 0.013,-0.124 0.038,-0.18c0.025,-0.055 0.059,-0.098 0.102,-0.128c0.043,-0.031 0.092,-0.046 0.145,-0.046c0.052,0 0.093,0.012 0.122,0.036c0.03,0.023 0.044,0.057 0.044,0.1c0,0.059 -0.027,0.105 -0.081,0.139c-0.054,0.033 -0.132,0.05 -0.232,0.05l-0.021,-0l-0.001,0.015l0,0.014c0,0.036 0.009,0.065 0.028,0.085c0.018,0.021 0.046,0.031 0.082,0.031c0.023,-0 0.047,-0.003 0.07,-0.009c0.023,-0.007 0.05,-0.017 0.082,-0.032l-0,0.091c-0.031,0.015 -0.06,0.025 -0.086,0.031c-0.027,0.006 -0.056,0.009 -0.088,0.009Z" style="fill:#bbb;fill-rule:nonzero;"/></g><g transform="matrix(22.4887,0,0,22.4887,1904.44,1214.67)"><path d="M0.389,-0.55c0.02,0 0.038,0.002 0.053,0.006l-0.025,0.107c-0.018,-0.005 -0.034,-0.007 -0.05,-0.007c-0.041,0 -0.077,0.019 -0.11,0.055c-0.032,0.037 -0.054,0.085 -0.067,0.145l-0.052,0.244l-0.115,0l0.115,-0.54l0.09,-0l-0.01,0.1l0.004,0c0.027,-0.039 0.054,-0.067 0.081,-0.084c0.027,-0.017 0.056,-0.026 0.086,-0.026Z" style="fill:#bbb;fill-rule:nonzero;"/></g><g transform="matrix(22.4887,0,0,22.4887,1913.62,1214.67)"><path d="M0.343,-0l0.069,-0.328c0.006,-0.029 0.009,-0.051 0.009,-0.064c-0,-0.043 -0.021,-0.064 -0.063,-0.064c-0.024,-0 -0.047,0.009 -0.069,0.028c-0.023,0.018 -0.044,0.045 -0.062,0.08c-0.018,0.035 -0.032,0.075 -0.041,0.119l-0.048,0.229l-0.115,-0l0.115,-0.54l0.09,-0l-0.01,0.1l0.004,0c0.027,-0.038 0.055,-0.066 0.084,-0.084c0.028,-0.017 0.059,-0.026 0.093,-0.026c0.044,0 0.077,0.013 0.101,0.037c0.024,0.025 0.036,0.06 0.036,0.106c0,0.022 -0.004,0.052 -0.011,0.088l-0.067,0.319l-0.115,0Z" style="fill:#bbb;fill-rule:nonzero;"/></g><g transform="matrix(22.4887,0,0,22.4887,1926.88,1214.67)"><path d="M0.324,-0.462c-0.031,0 -0.06,0.014 -0.088,0.042c-0.027,0.028 -0.047,0.065 -0.059,0.111l0.014,-0c0.061,-0 0.109,-0.009 0.143,-0.026c0.035,-0.018 0.052,-0.042 0.052,-0.074c0,-0.017 -0.005,-0.03 -0.015,-0.039c-0.011,-0.009 -0.026,-0.014 -0.047,-0.014Zm-0.074,0.472c-0.064,-0 -0.114,-0.018 -0.15,-0.054c-0.036,-0.037 -0.054,-0.087 -0.054,-0.152c-0,-0.064 0.013,-0.124 0.038,-0.18c0.025,-0.055 0.059,-0.098 0.102,-0.128c0.043,-0.031 0.092,-0.046 0.145,-0.046c0.052,0 0.093,0.012 0.122,0.036c0.03,0.023 0.044,0.057 0.044,0.1c0,0.059 -0.027,0.105 -0.081,0.139c-0.054,0.033 -0.132,0.05 -0.232,0.05l-0.021,-0l-0.001,0.015l0,0.014c0,0.036 0.009,0.065 0.028,0.085c0.018,0.021 0.046,0.031 0.082,0.031c0.023,-0 0.047,-0.003 0.07,-0.009c0.023,-0.007 0.05,-0.017 0.082,-0.032l-0,0.091c-0.031,0.015 -0.06,0.025 -0.086,0.031c-0.027,0.006 -0.056,0.009 -0.088,0.009Z" style="fill:#bbb;fill-rule:nonzero;"/></g><g transform="matrix(22.4887,0,0,22.4887,1938.69,1214.67)"><path d="M0.137,-0l-0.114,-0l0.161,-0.76l0.115,0l-0.162,0.76Z" style="fill:#bbb;fill-rule:nonzero;"/></g></g></svg>