<?xml version="1.0" encoding="utf-8"?>
<!-- Generator: Adobe Illustrator 23.0.6, SVG Export Plug-In . SVG Version: 6.00 Build 0)  -->
<svg version="1.1" id="Layer_1" xmlns="http://www.w3.org/2000/svg" xmlns:xlink="http://www.w3.org/1999/xlink" x="0px" y="0px"
	 viewBox="0 0 122.5 22.1" style="enable-background:new 0 0 122.5 22.1;" xml:space="preserve">
<style type="text/css">
	.st0{fill:#2a4682;}
	.st1{fill:#3f78be;}
</style>
<g>
	<path class="st0" d="M1.8,19.9C0.6,18.5,0,16.6,0,14.1V0.5h4v0.4C3.9,1,3.8,1.2,3.8,1.4c0,0.2,0,0.4,0,0.8v12
		c0,1.5,0.3,2.7,0.8,3.5s1.4,1.2,2.6,1.2c1.3,0,2.2-0.4,2.7-1.2c0.5-0.8,0.8-2,0.8-3.6V0.5h3.7V14c0,2.6-0.6,4.6-1.9,6
		c-1.3,1.3-3,2-5.3,2C4.8,21.9,3,21.3,1.8,19.9"/>
	<path class="st0" d="M16.6,0.5h4.6l6.7,15v-15h3.6v0.4c-0.1,0.1-0.2,0.3-0.2,0.4c0,0.2,0,0.4,0,0.8v19.3h-4.1L20,5.6v15.8h-3.4V0.5
		z"/>
	<polygon class="st0" points="34.8,21.5 34.8,18.4 38.9,18.4 38.9,3.7 35,3.7 35,0.5 46.7,0.5 46.7,3.7 42.6,3.7 42.6,18.4 
		46.9,18.4 46.9,21.5 	"/>
	<path class="st0" d="M62.4,16.1l2.9,1.9c-0.8,1.3-1.8,2.4-2.9,3.1c-1.2,0.7-2.5,1-4,1c-1.6,0-3-0.4-4.2-1.2c-1.2-0.8-2.2-2-3-3.7
		s-1.1-3.7-1.1-6.1c0-2.6,0.4-4.7,1.3-6.4c0.8-1.7,1.9-2.9,3.2-3.6C55.9,0.4,57.2,0,58.7,0c1.6,0,3,0.4,4.1,1.3
		c1.2,0.8,2.1,2,2.7,3.5l-2.7,1.3l0,0v0c-0.4-1.1-1-1.9-1.7-2.4C60.4,3.3,59.6,3,58.8,3c-1.6,0-2.8,0.7-3.6,2.1S54,8.5,54,11
		c0,1.5,0.2,2.9,0.6,4.1c0.4,1.2,0.9,2.2,1.6,2.9c0.7,0.7,1.5,1.1,2.4,1.1C60,19.1,61.3,18.1,62.4,16.1 M62.4,5.8c0,0,0.1,0,0.1,0.1
		c0.1,0.1,0.1,0.2,0.1,0.2l-0.2,0.1L62.4,5.8C62.3,5.9,62.4,5.8,62.4,5.8 M62.8,6.3C62.8,6.4,62.8,6.4,62.8,6.3
		c-0.1-0.1-0.1-0.1-0.1-0.2l0.1,0L62.8,6.3z"/>
	<path class="st1" d="M91.8,0.5h6.6c2.5,0,4.3,0.6,5.5,1.6c1.2,1.1,1.8,2.6,1.8,4.6c0,0.8-0.2,1.5-0.5,2.3c-0.3,0.8-0.8,1.4-1.4,2
		s-1.3,1-2.1,1.3l4.9,9.1h-4.2l-4.3-8.7h-2.4v8.7h-3.8C91.8,21.5,91.8,0.5,91.8,0.5z M98.7,9.6c1.1,0,1.9-0.3,2.4-0.8
		c0.5-0.5,0.8-1.2,0.8-2.1c0-1-0.3-1.7-0.8-2.2c-0.5-0.5-1.3-0.7-2.5-0.7h-3v5.7H98.7z"/>
	<polygon class="st1" points="108.9,21.5 108.9,0.5 122.5,0.5 122.5,3.8 112.6,3.8 112.6,8.9 120.8,8.9 120.8,12.2 112.6,12.2 
		112.6,18.2 122.5,18.2 122.5,21.5 	"/>
	<path class="st1" d="M82.6,12.1c-0.5,2-2.3,3.4-4.4,3.4c-1.8,0-3.3-1-4-2.5h2.7c0.4,0.3,0.8,0.4,1.3,0.4c1.3,0,2.4-1.1,2.4-2.4
		c0-0.4-0.1-0.7-0.3-1.1h8.3c0.1,0.8,0.1,1.6,0,2.4c-0.7,5.2-5.1,9.2-10.4,9.2c-5.1,0-9.4-3.6-10.3-8.5H70c0.9,3.7,4.2,6.4,8.2,6.4
		c4.3,0,7.9-3.2,8.4-7.4L82.6,12.1L82.6,12.1z"/>
	<path class="st0" d="M78.2,0.5c5.1,0,9.4,3.6,10.3,8.5h-2.1c-0.9-3.7-4.2-6.4-8.2-6.4c-4.3,0-7.8,3.2-8.4,7.4h4.1
		c0.5-2,2.3-3.4,4.4-3.4c1.8,0,3.3,1,4,2.5h-2.7c-0.4-0.3-0.8-0.4-1.3-0.4c-1.3,0-2.4,1.1-2.4,2.4c0,0.4,0.1,0.7,0.2,1.1h-8.3
		c-0.1-0.8-0.1-1.6,0-2.4C68.5,4.5,72.9,0.5,78.2,0.5"/>
	<path class="st0" d="M78.2,9.9c0.6,0,1.2,0.5,1.2,1.2c0,0.6-0.5,1.2-1.2,1.2c-0.7,0-1.2-0.5-1.2-1.2C77,10.4,77.6,9.9,78.2,9.9"/>
</g>
</svg>
