<?xml version="1.0" encoding="utf-8"?>
<!-- Generator: Adobe Illustrator 26.0.3, SVG Export Plug-In . SVG Version: 6.00 Build 0)  -->
<svg version="1.1" xmlns="http://www.w3.org/2000/svg" xmlns:xlink="http://www.w3.org/1999/xlink" x="0px" y="0px"
	 viewBox="0 0 561.3 382.7" style="enable-background:new 0 0 561.3 382.7;" xml:space="preserve">
<style type="text/css">
	.st0{opacity:0.5;}
	.st1{fill:none;stroke:#12100B;stroke-width:0.75;stroke-miterlimit:10;}
	.st2{fill:none;stroke:#12100B;stroke-width:0.75;stroke-miterlimit:10;stroke-dasharray:2.9977,3.9969;}
	.st3{fill:none;stroke:#12100B;stroke-miterlimit:10;}
	.st4{fill:#12100B;}
	.st5{fill:#DAD9D9;stroke:#9C9B9B;stroke-miterlimit:10;}
	.st6{fill:#F0F0F1;stroke:#A6A6A6;stroke-miterlimit:10;}
	.st7{fill:#F7C1D0;stroke:#B6609E;stroke-miterlimit:10;}
	.st8{fill:#AADAF5;stroke:#0089C7;stroke-miterlimit:10;}
	.st9{fill:#54C3EF;stroke:#0089C7;stroke-miterlimit:10;}
	.st10{fill:#54C3EF;}
	.st11{fill:none;stroke:#0089C7;stroke-miterlimit:10;}
	.st12{fill:none;stroke:#0089C7;stroke-miterlimit:10;stroke-dasharray:3.7666,3.7666;}
	.st13{fill:none;stroke:#0089C7;stroke-miterlimit:10;stroke-dasharray:4.3359,4.3359;}
	.st14{fill:#F18938;stroke:#D44016;stroke-miterlimit:10;}
	.st15{fill:#E94683;stroke:#A13062;stroke-miterlimit:10;}
	.st16{fill:#F7C1D0;}
	.st17{fill:none;stroke:#B6609E;stroke-miterlimit:10;}
	.st18{fill:none;stroke:#B6609E;stroke-miterlimit:10;stroke-dasharray:4.5351,4.5351;}
	.st19{fill:none;stroke:#B6609E;stroke-miterlimit:10;stroke-dasharray:4.2749,4.2749;}
	.st20{fill:none;stroke:#B6609E;stroke-miterlimit:10;stroke-dasharray:4.6321,4.6321;}
	.st21{fill:#FFFFFF;stroke:#85817F;stroke-miterlimit:10;}
	.st22{fill:none;}
	.st23{font-family:'Inter','helvetica neue', helvetica, ubuntu, roboto, noto, 'segoe ui', arial, sans-serif;}
	.st24{font-size:9px;}
	.st25{font-size:10px;}
	.st26{fill:#FFFFFF;}
	.st28{font-size:12px;}
</style>
<g id="Layers">
	<g class="st0">
		<g>
			<line class="st1" x1="5.7" y1="39.7" x2="7.2" y2="39.7"/>
			<line class="st2" x1="11.2" y1="39.7" x2="540.8" y2="39.7"/>
			<line class="st1" x1="542.8" y1="39.7" x2="544.3" y2="39.7"/>
		</g>
	</g>
	<g class="st0">
		<g>
			<line class="st1" x1="5.7" y1="73.7" x2="7.2" y2="73.7"/>
			<line class="st2" x1="11.2" y1="73.7" x2="540.8" y2="73.7"/>
			<line class="st1" x1="542.8" y1="73.7" x2="544.3" y2="73.7"/>
		</g>
	</g>
	<g class="st0">
		<g>
			<line class="st1" x1="5.7" y1="175.7" x2="7.2" y2="175.7"/>
			<line class="st2" x1="11.2" y1="175.7" x2="540.8" y2="175.7"/>
			<line class="st1" x1="542.8" y1="175.7" x2="544.3" y2="175.7"/>
		</g>
	</g>
	<g class="st0">
		<g>
			<line class="st1" x1="5.7" y1="303.3" x2="7.2" y2="303.3"/>
			<line class="st2" x1="11.2" y1="303.3" x2="540.8" y2="303.3"/>
			<line class="st1" x1="542.8" y1="303.3" x2="544.3" y2="303.3"/>
		</g>
	</g>
</g>
<g id="Arrows">
	<g>
		<g>
			<line class="st3" x1="209.8" y1="266.5" x2="209.8" y2="273.3"/>
			<g>
				<path class="st4" d="M209.8,277.8c-0.8-2.1-2.1-4.8-3.6-6.4l3.6,1.3l3.6-1.3C211.9,273,210.6,275.7,209.8,277.8z"/>
			</g>
		</g>
	</g>
	<g>
		<g>
			<line class="st3" x1="306.1" y1="204.1" x2="306.1" y2="210.9"/>
			<g>
				<path class="st4" d="M306.1,215.4c-0.8-2.1-2.1-4.8-3.6-6.4l3.6,1.3l3.6-1.3C308.3,210.7,306.9,213.3,306.1,215.4z"/>
			</g>
		</g>
	</g>
	<g>
		<g>
			<line class="st3" x1="402.5" y1="204.1" x2="402.5" y2="210.9"/>
			<g>
				<path class="st4" d="M402.5,215.4c-0.8-2.1-2.1-4.8-3.6-6.4l3.6,1.3l3.6-1.3C404.7,210.7,403.3,213.3,402.5,215.4z"/>
			</g>
		</g>
	</g>
	<g>
		<g>
			<line class="st3" x1="498.9" y1="204.1" x2="498.9" y2="210.9"/>
			<g>
				<path class="st4" d="M498.9,215.4c-0.8-2.1-2.1-4.8-3.6-6.4l3.6,1.3l3.6-1.3C501,210.7,499.7,213.3,498.9,215.4z"/>
			</g>
		</g>
	</g>
	<g>
		<g>
			<line class="st3" x1="209.8" y1="167.2" x2="209.8" y2="182.6"/>
			<g>
				<path class="st4" d="M209.8,187.1c-0.8-2.1-2.1-4.8-3.6-6.4l3.6,1.3l3.6-1.3C211.9,182.3,210.6,185,209.8,187.1z"/>
			</g>
		</g>
	</g>
	<g>
		<g>
			<line class="st3" x1="221.1" y1="31.2" x2="221.1" y2="43.7"/>
			<g>
				<path class="st4" d="M221.1,48.2c-0.8-2.1-2.1-4.8-3.6-6.4l3.6,1.3l3.6-1.3C223.2,43.4,221.9,46.1,221.1,48.2z"/>
			</g>
		</g>
	</g>
	<g>
		<g>
			<line class="st3" x1="306.1" y1="31.2" x2="306.1" y2="43.7"/>
			<g>
				<path class="st4" d="M306.1,48.2c-0.8-2.1-2.1-4.8-3.6-6.4l3.6,1.3l3.6-1.3C308.3,43.4,306.9,46.1,306.1,48.2z"/>
			</g>
		</g>
	</g>
	<g>
		<g>
			<line class="st3" x1="113.4" y1="99.2" x2="113.4" y2="111.7"/>
			<g>
				<path class="st4" d="M113.4,116.2c-0.8-2.1-2.1-4.8-3.6-6.4l3.6,1.3l3.6-1.3C115.5,111.4,114.2,114.1,113.4,116.2z"/>
			</g>
		</g>
	</g>
	<g>
		<g>
			<line class="st3" x1="184.3" y1="99.2" x2="184.3" y2="111.7"/>
			<g>
				<path class="st4" d="M184.3,116.2c-0.8-2.1-2.1-4.8-3.6-6.4l3.6,1.3l3.6-1.3C186.4,111.4,185,114.1,184.3,116.2z"/>
			</g>
		</g>
	</g>
	<g>
		<g>
			<line class="st3" x1="113.4" y1="167.2" x2="113.4" y2="182.6"/>
			<g>
				<path class="st4" d="M113.4,187.1c-0.8-2.1-2.1-4.8-3.6-6.4l3.6,1.3l3.6-1.3C115.5,182.3,114.2,185,113.4,187.1z"/>
			</g>
		</g>
	</g>
	<g>
		<g>
			<line class="st3" x1="113.4" y1="266.5" x2="113.4" y2="273.3"/>
			<g>
				<path class="st4" d="M113.4,277.8c-0.8-2.1-2.1-4.8-3.6-6.4l3.6,1.3l3.6-1.3C115.5,273,114.2,275.7,113.4,277.8z"/>
			</g>
		</g>
	</g>
	<g>
		<g>
			<polyline class="st3" points="340.2,56.7 513.1,56.7 513.1,182.6 			"/>
			<g>
				<path class="st4" d="M513.1,187.1c-0.8-2.1-2.1-4.8-3.6-6.4l3.6,1.3l3.6-1.3C515.2,182.3,513.9,185,513.1,187.1z"/>
			</g>
		</g>
	</g>
	<g>
		<g>
			<line class="st3" x1="192.8" y1="65.2" x2="192.8" y2="77.7"/>
			<g>
				<path class="st4" d="M192.8,82.2c-0.8-2.1-2.1-4.8-3.6-6.4l3.6,1.3l3.6-1.3C194.9,77.4,193.5,80.1,192.8,82.2z"/>
			</g>
		</g>
	</g>
	<g>
		<g>
			<polyline class="st3" points="249.4,65.2 249.4,90.7 484.7,90.7 484.7,182.6 			"/>
			<g>
				<path class="st4" d="M484.7,187.1c-0.8-2.1-2.1-4.8-3.6-6.4l3.6,1.3l3.6-1.3C486.9,182.3,485.5,185,484.7,187.1z"/>
			</g>
		</g>
	</g>
	<g>
		<g>
			<line class="st3" x1="306.1" y1="133.2" x2="306.1" y2="182.6"/>
			<g>
				<path class="st4" d="M306.1,187.1c-0.8-2.1-2.1-4.8-3.6-6.4l3.6,1.3l3.6-1.3C308.3,182.3,306.9,185,306.1,187.1z"/>
			</g>
		</g>
	</g>
	<g>
		<g>
			<polyline class="st3" points="124.7,133.2 124.7,141.7 209.8,141.7 209.8,145.7 			"/>
			<g>
				<path class="st4" d="M209.8,150.2c-0.8-2.1-2.1-4.8-3.6-6.4l3.6,1.3l3.6-1.3C211.9,145.5,210.6,148.1,209.8,150.2z"/>
			</g>
		</g>
	</g>
	<g>
		<g>
			<line class="st3" x1="102" y1="133.2" x2="102" y2="145.7"/>
			<g>
				<path class="st4" d="M102,150.2c-0.8-2.1-2.1-4.8-3.6-6.4l3.6,1.3l3.6-1.3C104.2,145.5,102.8,148.1,102,150.2z"/>
			</g>
		</g>
	</g>
</g>
<g id="Boxes">
	<rect x="79.4" y="150.2" class="st5" width="68" height="17"/>
	<rect x="187.1" y="48.2" class="st6" width="68" height="17"/>
	<rect x="68" y="311.8" class="st7" width="170.1" height="51"/>
	<rect x="164.4" y="187.1" class="st8" width="90.7" height="79.4"/>
	<rect x="187.1" y="192.8" class="st9" width="17" height="68"/>
	<rect x="209.8" y="192.8" class="st9" width="17" height="68"/>
	<g>
		<rect x="232.4" y="192.8" class="st10" width="17" height="68"/>
		<g>
			<polyline class="st11" points="247.4,192.8 249.4,192.8 249.4,194.8 			"/>
			<line class="st12" x1="249.4" y1="198.5" x2="249.4" y2="256.9"/>
			<polyline class="st11" points="249.4,258.8 249.4,260.8 247.4,260.8 			"/>
			<line class="st13" x1="243.1" y1="260.8" x2="236.6" y2="260.8"/>
			<polyline class="st11" points="234.4,260.8 232.4,260.8 232.4,258.8 			"/>
			<line class="st12" x1="232.4" y1="255" x2="232.4" y2="196.6"/>
			<polyline class="st11" points="232.4,194.8 232.4,192.8 234.4,192.8 			"/>
			<line class="st13" x1="238.8" y1="192.8" x2="245.3" y2="192.8"/>
		</g>
	</g>
	<rect x="175.7" y="277.8" width="68" height="17"/>
	<rect x="68" y="187.1" class="st8" width="90.7" height="79.4"/>
	<rect x="90.7" y="192.8" class="st9" width="17" height="68"/>
	<rect x="113.4" y="192.8" class="st9" width="17" height="68"/>
	<g>
		<rect x="136.1" y="192.8" class="st10" width="17" height="68"/>
		<g>
			<polyline class="st11" points="151.1,192.8 153.1,192.8 153.1,194.8 			"/>
			<line class="st12" x1="153.1" y1="198.5" x2="153.1" y2="256.9"/>
			<polyline class="st11" points="153.1,258.8 153.1,260.8 151.1,260.8 			"/>
			<line class="st13" x1="146.7" y1="260.8" x2="140.2" y2="260.8"/>
			<polyline class="st11" points="138.1,260.8 136.1,260.8 136.1,258.8 			"/>
			<line class="st12" x1="136.1" y1="255" x2="136.1" y2="196.6"/>
			<polyline class="st11" points="136.1,194.8 136.1,192.8 138.1,192.8 			"/>
			<line class="st13" x1="142.4" y1="192.8" x2="148.9" y2="192.8"/>
		</g>
	</g>
	<rect x="79.4" y="277.8" width="68" height="17"/>
	<rect x="272.1" y="48.2" class="st6" width="68" height="17"/>
	<rect x="79.4" y="116.2" class="st5" width="68" height="17"/>
	<rect x="153.1" y="116.2" class="st5" width="68" height="17"/>
	<rect x="272.1" y="116.2" class="st5" width="68" height="17"/>
	<rect x="204.1" y="14.2" class="st14" width="119.1" height="17"/>
	<rect x="260.8" y="215.4" class="st8" width="90.7" height="79.4"/>
	<rect x="283.5" y="221.1" class="st9" width="17" height="68"/>
	<rect x="306.1" y="221.1" class="st9" width="17" height="68"/>
	<g>
		<rect x="328.8" y="221.1" class="st10" width="17" height="68"/>
		<g>
			<polyline class="st11" points="343.8,221.1 345.8,221.1 345.8,223.1 			"/>
			<line class="st12" x1="345.8" y1="226.9" x2="345.8" y2="285.3"/>
			<polyline class="st11" points="345.8,287.1 345.8,289.1 343.8,289.1 			"/>
			<line class="st13" x1="339.5" y1="289.1" x2="333" y2="289.1"/>
			<polyline class="st11" points="330.8,289.1 328.8,289.1 328.8,287.1 			"/>
			<line class="st12" x1="328.8" y1="283.4" x2="328.8" y2="225"/>
			<polyline class="st11" points="328.8,223.1 328.8,221.1 330.8,221.1 			"/>
			<line class="st13" x1="335.2" y1="221.1" x2="341.7" y2="221.1"/>
		</g>
	</g>
	<rect x="272.1" y="187.1" width="68" height="17"/>
	<rect x="357.2" y="215.4" class="st8" width="90.7" height="79.4"/>
	<rect x="379.8" y="221.1" class="st9" width="17" height="68"/>
	<rect x="402.5" y="221.1" class="st9" width="17" height="68"/>
	<g>
		<rect x="425.2" y="221.1" class="st10" width="17" height="68"/>
		<g>
			<polyline class="st11" points="440.2,221.1 442.2,221.1 442.2,223.1 			"/>
			<line class="st12" x1="442.2" y1="226.9" x2="442.2" y2="285.3"/>
			<polyline class="st11" points="442.2,287.1 442.2,289.1 440.2,289.1 			"/>
			<line class="st13" x1="435.9" y1="289.1" x2="429.4" y2="289.1"/>
			<polyline class="st11" points="427.2,289.1 425.2,289.1 425.2,287.1 			"/>
			<line class="st12" x1="425.2" y1="283.4" x2="425.2" y2="225"/>
			<polyline class="st11" points="425.2,223.1 425.2,221.1 427.2,221.1 			"/>
			<line class="st13" x1="431.5" y1="221.1" x2="438" y2="221.1"/>
		</g>
	</g>
	<rect x="368.5" y="187.1" width="68" height="17"/>
	<rect x="453.5" y="215.4" class="st8" width="90.7" height="79.4"/>
	<rect x="476.2" y="221.1" class="st9" width="17" height="68"/>
	<rect x="498.9" y="221.1" class="st9" width="17" height="68"/>
	<g>
		<rect x="521.6" y="221.1" class="st10" width="17" height="68"/>
		<g>
			<polyline class="st11" points="536.6,221.1 538.6,221.1 538.6,223.1 			"/>
			<line class="st12" x1="538.6" y1="226.9" x2="538.6" y2="285.3"/>
			<polyline class="st11" points="538.6,287.1 538.6,289.1 536.6,289.1 			"/>
			<line class="st13" x1="532.2" y1="289.1" x2="525.7" y2="289.1"/>
			<polyline class="st11" points="523.6,289.1 521.6,289.1 521.6,287.1 			"/>
			<line class="st12" x1="521.6" y1="283.4" x2="521.6" y2="225"/>
			<polyline class="st11" points="521.6,223.1 521.6,221.1 523.6,221.1 			"/>
			<line class="st13" x1="527.9" y1="221.1" x2="534.4" y2="221.1"/>
		</g>
	</g>
	<rect x="464.9" y="187.1" width="68" height="17"/>
	<rect x="102" y="82.2" class="st5" width="96.4" height="17"/>
	<rect x="175.7" y="150.2" width="68" height="17"/>
	<rect x="90.7" y="317.5" class="st15" width="68" height="17"/>
	<rect x="164.4" y="317.5" class="st15" width="68" height="17"/>
	<rect x="90.7" y="340.2" class="st15" width="68" height="17"/>
	<rect x="164.4" y="340.2" class="st15" width="68" height="17"/>
	<rect x="252.3" y="311.8" class="st7" width="170.1" height="51"/>
	<rect x="275" y="317.5" class="st15" width="68" height="17"/>
	<rect x="348.7" y="317.5" class="st15" width="68" height="17"/>
	<rect x="275" y="340.2" class="st15" width="68" height="17"/>
	<rect x="348.7" y="340.2" class="st15" width="68" height="17"/>
	<g>
		<path class="st16" d="M462,337.3c-1.3-11.9,1.1-20.2,4-25.5h-26.7v51h17.9C461.1,356.9,463.3,348.9,462,337.3z"/>
		<g>
			<g>
				<line class="st17" x1="466" y1="311.8" x2="464" y2="311.8"/>
				<line class="st18" x1="459.5" y1="311.8" x2="443.6" y2="311.8"/>
				<polyline class="st17" points="441.4,311.8 439.4,311.8 439.4,313.8 				"/>
				<line class="st19" x1="439.4" y1="318.1" x2="439.4" y2="358.7"/>
				<polyline class="st17" points="439.4,360.8 439.4,362.8 441.4,362.8 				"/>
				<line class="st20" x1="446" y1="362.8" x2="453" y2="362.8"/>
				<line class="st17" x1="455.3" y1="362.8" x2="457.3" y2="362.8"/>
			</g>
		</g>
	</g>
</g>
<g id="Labels">
	<g>
		<circle class="st21" cx="178.6" cy="56.7" r="5.7"/>
		<rect x="170.1" y="48.2" class="st22" width="17" height="17"/>
		<text transform="matrix(1 0 0 1 176.4921 60.0346)" class="st23 st24">1</text>
	</g>
	<g>
		<circle class="st21" cx="87.9" cy="147.4" r="5.7"/>
		<rect x="79.4" y="138.9" class="st22" width="17" height="17"/>
		<text transform="matrix(1 0 0 1 85.1506 150.7432)" class="st23 st24">2</text>
	</g>
	<g>
		<circle class="st21" cx="235.3" cy="147.4" r="5.7"/>
		<rect x="226.8" y="138.9" class="st22" width="17" height="17"/>
		<text transform="matrix(1 0 0 1 232.4115 150.7432)" class="st23 st24">3</text>
	</g>
	<g>
		<circle class="st21" cx="377" cy="184.3" r="5.7"/>
		<rect x="368.5" y="175.7" class="st22" width="17" height="17"/>
		<text transform="matrix(1 0 0 1 374.2717 187.5936)" class="st23 st24">5</text>
	</g>
	<g>
		<circle class="st21" cx="473.4" cy="184.3" r="5.7"/>
		<rect x="464.9" y="175.7" class="st22" width="17" height="17"/>
		<text transform="matrix(1 0 0 1 470.5792 187.5936)" class="st23 st24">6</text>
	</g>
	<g>
		<circle class="st21" cx="87.9" cy="275" r="5.7"/>
		<rect x="79.4" y="266.5" class="st22" width="17" height="17"/>
		<text transform="matrix(1 0 0 1 85.3047 278.3026)" class="st23 st24">7</text>
	</g>
	<g>
		<circle class="st21" cx="184.3" cy="275" r="5.7"/>
		<rect x="175.7" y="266.5" class="st22" width="17" height="17"/>
		<text transform="matrix(1 0 0 1 181.478 278.3026)" class="st23 st24">8</text>
	</g>
	<g>
		<circle class="st21" cx="280.6" cy="184.3" r="5.7"/>
		<rect x="272.1" y="175.7" class="st22" width="17" height="17"/>
		<text transform="matrix(1 0 0 1 277.7404 187.5936)" class="st23 st24">4</text>
	</g>
</g>
<g id="Text">
	<rect x="187.1" y="192.8" class="st22" width="17" height="68"/>
	<text transform="matrix(0 -1 1 0 199.1881 237.4515)" class="st23 st25">9pfs</text>
	<rect x="167.2" y="192.8" class="st22" width="17" height="68"/>
	<text transform="matrix(0 -1 1 0 179.3455 253.6583)" class="st23 st25">filesystems</text>
	<rect x="209.8" y="192.8" class="st22" width="17" height="68"/>
	<text transform="matrix(0 -1 1 0 221.8651 240.3132)" class="st23 st25">ramfs</text>
	<rect x="90.7" y="192.8" class="st22" width="17" height="68"/>
	<text transform="matrix(0 -1 1 0 102.81 236.3504)" class="st23 st25">lwip</text>
	<rect x="70.9" y="192.8" class="st22" width="17" height="68"/>
	<text transform="matrix(0 -1 1 0 82.9675 251.3073)" class="st23 st25">net stacks</text>
	<rect x="113.4" y="192.8" class="st22" width="17" height="68"/>
	<text transform="matrix(0 -1 1 0 125.4871 238.8719)" class="st23 st25">mtcp</text>
	<rect x="283.5" y="221.1" class="st22" width="17" height="68"/>
	<text transform="matrix(0 -1 1 0 295.5661 280.7834)" class="st23 st25">ukpreempt</text>
	<rect x="263.6" y="221.1" class="st22" width="17" height="68"/>
	<text transform="matrix(0 -1 1 0 275.7236 281.0675)" class="st23 st25">schedulers</text>
	<rect x="306.1" y="221.1" class="st22" width="17" height="68"/>
	<text transform="matrix(0 -1 1 0 318.2431 272.6443)" class="st23 st25">ukcoop</text>
	<rect x="379.8" y="221.1" class="st22" width="17" height="68"/>
	<text transform="matrix(0 -1 1 0 391.9439 286.0602)" class="st23 st25">dynamicboot</text>
	<rect x="360" y="221.1" class="st22" width="17" height="68"/>
	<text transform="matrix(0 -1 1 0 372.1014 273.4895)" class="st23 st25">booters</text>
	<rect x="402.5" y="221.1" class="st22" width="17" height="68"/>
	<text transform="matrix(0 -1 1 0 414.6209 271.7283)" class="st23 st25">ukboot</text>
	<rect x="476.2" y="221.1" class="st22" width="17" height="68"/>
	<text transform="matrix(0 -1 1 0 488.3217 281.1808)" class="st23 st25">buddyalloc</text>
	<rect x="456.4" y="221.1" class="st22" width="17" height="68"/>
	<text transform="matrix(0 -1 1 0 463.6111 284.3131)"><tspan x="0" y="0" class="st23 st25">mem alloca</tspan><tspan x="53.6" y="0" class="st23 st25">-</tspan></text>
	<rect x="498.9" y="221.1" class="st22" width="17" height="68"/>
	<text transform="matrix(0 -1 1 0 510.9987 276.0602)" class="st23 st25">mimalloc</text>
	<rect x="90.7" y="317.5" class="st22" width="68" height="17"/>
	<text transform="matrix(1 0 0 1 102.9495 329.6206)" class="st23 st25">virtio-net</text>
	<rect x="164.4" y="317.5" class="st22" width="68" height="17"/>
	<text transform="matrix(1 0 0 1 171.5227 329.6206)" class="st23 st25">virtio-block</text>
	<rect x="90.7" y="340.2" class="st22" width="68" height="17"/>
	<text transform="matrix(1 0 0 1 112.2537 352.2978)" class="st23 st25">clock</text>
	<rect x="164.4" y="340.2" class="st22" width="68" height="17"/>
	<text transform="matrix(1 0 0 1 171.906 352.2978)" class="st23 st25">memregion</text>
	<rect x="275" y="317.5" class="st22" width="68" height="17"/>
	<text transform="matrix(1 0 0 1 289.9286 329.6206)" class="st23 st25">netfront</text>
	<rect x="348.7" y="317.5" class="st22" width="68" height="17"/>
	<text transform="matrix(1 0 0 1 358.5014 329.6206)" class="st23 st25">blockfront</text>
	<rect x="275" y="340.2" class="st22" width="68" height="17"/>
	<text transform="matrix(1 0 0 1 296.5053 352.2978)" class="st23 st25">clock</text>
	<rect x="348.7" y="340.2" class="st22" width="68" height="17"/>
	<text transform="matrix(1 0 0 1 356.1577 352.2978)" class="st23 st25">memregion</text>
	<rect x="79.4" y="150.2" class="st22" width="68" height="17"/>
	<text transform="matrix(1 0 0 1 82.7183 162.3773)" class="st23 st25">posix-socket</text>
	<rect x="5.7" y="39.7" class="st22" width="62.4" height="34"/>
	<text transform="matrix(1 0 0 1 5.6699 60.3294)" class="st23 st25">libc layer</text>
	<rect x="5.7" y="73.7" class="st22" width="62.4" height="102"/>
	<text transform="matrix(1 0 0 1 5.6699 116.3607)"><tspan x="0" y="0" class="st23 st25">POSIX</tspan><tspan x="0" y="12" class="st23 st25">compatibility</tspan><tspan x="0" y="24" class="st23 st25">layer</tspan></text>
	<rect x="5.7" y="175.7" class="st22" width="62.4" height="127.6"/>
	<text transform="matrix(1 0 0 1 5.6694 231.1638)"><tspan x="0" y="0" class="st23 st25">OS </tspan><tspan x="0" y="12" class="st23 st25">primitives</tspan><tspan x="0" y="24" class="st23 st25">layer</tspan></text>
	<rect x="5.7" y="303.3" class="st22" width="62.4" height="68"/>
	<text transform="matrix(1 0 0 1 5.67 334.959)"><tspan x="0" y="0" class="st23 st25">Platform</tspan><tspan x="0" y="12" class="st23 st25">layer</tspan></text>
	<rect x="187.1" y="48.2" class="st22" width="68" height="17"/>
	<text transform="matrix(1 0 0 1 210.0518 60.3295)" class="st23 st25">musl</text>
	<rect x="272.1" y="48.2" class="st22" width="68" height="17"/>
	<text transform="matrix(1 0 0 1 290.7655 60.3295)" class="st23 st25">newlib</text>
	<rect x="204.1" y="14.2" class="st22" width="119.1" height="17"/>
	<text transform="matrix(1 0 0 1 237.2516 26.3138)" class="st23 st25">Application</text>
	<rect x="68" y="311.8" class="st22" width="22.7" height="51"/>
	<text transform="matrix(0 -1 1 0 83.0067 347.1728)" class="st23 st25">kvm</text>
	<rect x="175.7" y="277.8" class="st22" width="68" height="17"/>
	<text transform="matrix(1 0 0 1 182.5553 289.9355)" class="st26 st23 st25">ukblockdev</text>
	<rect x="79.4" y="277.8" class="st22" width="68" height="17"/>
	<text transform="matrix(1 0 0 1 91.305 289.9355)" class="st26 st23 st25">uknetdev</text>
	<rect x="79.4" y="116.2" class="st22" width="68" height="17"/>
	<text transform="matrix(1 0 0 1 85.9077 128.3609)" class="st23 st25">posix-fdtab</text>
	<rect x="153.1" y="116.2" class="st22" width="68" height="17"/>
	<text transform="matrix(1 0 0 1 153.4365 128.3609)" class="st23 st25">posix-process</text>
	<rect x="272.1" y="116.2" class="st22" width="68" height="17"/>
	<text transform="matrix(1 0 0 1 287.6262 128.3608)" class="st23 st25">pthread</text>
	<rect x="272.1" y="187.1" class="st22" width="68" height="17"/>
	<text transform="matrix(1 0 0 1 286.1426 199.2268)" class="st26 st23 st25">uksched</text>
	<rect x="368.5" y="187.1" class="st22" width="68" height="17"/>
	<text transform="matrix(1 0 0 1 386.0073 199.2268)" class="st26 st23 st25">ukboot</text>
	<rect x="464.9" y="187.1" class="st22" width="68" height="17"/>
	<text transform="matrix(1 0 0 1 482.3068 199.2268)" class="st26 st23 st25">ukalloc</text>
	<rect x="102" y="82.2" class="st22" width="96.4" height="17"/>
	<text transform="matrix(1 0 0 1 120.8404 94.3451)" class="st23 st25">syscall-shim</text>
	<rect x="175.7" y="150.2" class="st22" width="68" height="17"/>
	<text transform="matrix(1 0 0 1 192.0153 162.3774)" class="st26 st23 st25">vfscore</text>
	<rect x="252.3" y="311.8" class="st22" width="22.7" height="51"/>
	<text transform="matrix(0 -1 1 0 267.258 345.8588)" class="st23 st25">xen</text>
</g>
<g id="ellepsis">
	<rect x="232.4" y="192.8" class="st22" width="17" height="68"/>
	<text transform="matrix(0 -1 1 0 241.2025 231.87)" class="st23 st28">...</text>
	<rect x="136.1" y="192.8" class="st22" width="17" height="68"/>
	<text transform="matrix(0 -1 1 0 144.8246 231.87)" class="st23 st28">...</text>
	<rect x="328.8" y="221.1" class="st22" width="17" height="68"/>
	<text transform="matrix(0 -1 1 0 337.5804 260.2166)" class="st23 st28">...</text>
	<rect x="425.2" y="221.1" class="st22" width="17" height="68"/>
	<text transform="matrix(0 -1 1 0 433.9583 260.2166)" class="st23 st28">...</text>
	<rect x="521.6" y="221.1" class="st22" width="17" height="68"/>
	<text transform="matrix(0 -1 1 0 530.3361 260.2166)" class="st23 st28">...</text>
	<rect x="442.2" y="311.8" class="st22" width="17" height="51"/>
	<text transform="matrix(0 -1 1 0 454.2503 341.5834)" class="st23 st25">...</text>
	<rect x="221.1" y="116.2" class="st22" width="51" height="17"/>
	<text transform="matrix(1 0 0 1 242.4467 125.3814)" class="st23 st25">...</text>
</g>
</svg>
