<?xml version="1.0" encoding="utf-8"?>
<!-- Generator: Adobe Illustrator 26.0.3, SVG Export Plug-In . SVG Version: 6.00 Build 0)  -->
<svg version="1.1" xmlns="http://www.w3.org/2000/svg" xmlns:xlink="http://www.w3.org/1999/xlink" x="0px" y="0px"
	 viewBox="0 0 382.7 246.6" style="enable-background:new 0 0 382.7 246.6;" xml:space="preserve">
<style type="text/css">
	.st0{fill:#D5D5D5;stroke:#9C9B9B;stroke-width:0.75;stroke-miterlimit:10;}
	.st1{fill:none;stroke:#D9D9DB;stroke-width:0.75;stroke-miterlimit:10;}
	.st2{fill:none;stroke:#D9D9DB;stroke-width:0.75;stroke-miterlimit:10;stroke-dasharray:1.9947,1.9947;}
	.st3{fill:none;stroke:#12100B;stroke-width:0.75;stroke-linecap:square;stroke-miterlimit:10;}
	.st4{fill:#12100B;}
	.st5{fill:#EDEDED;stroke:#A6A6A6;stroke-width:0.75;stroke-miterlimit:10;}
	.st6{fill:none;stroke:#A6A6A6;stroke-width:0.75;stroke-miterlimit:10;}
	.st7{fill:none;stroke:#A6A6A6;stroke-width:0.75;stroke-miterlimit:10;stroke-dasharray:4.0172,4.0172;}
	.st8{fill:none;stroke:#A6A6A6;stroke-width:0.75;stroke-miterlimit:10;stroke-dasharray:4.336,4.336;}
	.st9{fill:none;}
	.st10{fill:#534F4D;}
	.st11{font-family:Monaco, Menlo, "DejaVu Sans Mono", "Bitstream Vera Sans Mono", "Courier New", "Lucida Console", "Lucida Sans Typewriter", "Liberation Mono", "Nimbus Mono L", Monaco, Courier, monospace;}
	.st12{font-size:9px;}
	.st13{fill:#474341;}
	.st14{font-size:8px;}
	.st15{font-size:6px;}
	.st16{font-size:7px;}
	.st17{font-family:'Inter','helvetica neue', helvetica, ubuntu, roboto, noto, 'segoe ui', arial, sans-serif;font-weight:600;}
</style>
<g id="Diagram">
	<rect x="331.7" y="104.9" class="st0" width="48.2" height="17"/>
	<rect x="328.8" y="102" class="st0" width="48.2" height="17"/>
	<g>
		<g>
			<line class="st1" x1="124.7" y1="240.9" x2="124.7" y2="239.9"/>
			<line class="st2" x1="124.7" y1="238" x2="124.7" y2="27.5"/>
			<line class="st1" x1="124.7" y1="26.5" x2="124.7" y2="25.5"/>
		</g>
	</g>
	<g>
		<g>
			<line class="st1" x1="189.9" y1="240.9" x2="189.9" y2="239.9"/>
			<line class="st2" x1="189.9" y1="238" x2="189.9" y2="27.5"/>
			<line class="st1" x1="189.9" y1="26.5" x2="189.9" y2="25.5"/>
		</g>
	</g>
	<g>
		<g>
			<line class="st1" x1="255.1" y1="240.9" x2="255.1" y2="239.9"/>
			<line class="st2" x1="255.1" y1="238" x2="255.1" y2="27.5"/>
			<line class="st1" x1="255.1" y1="26.5" x2="255.1" y2="25.5"/>
		</g>
	</g>
	<g>
		<g>
			<line class="st1" x1="320.3" y1="240.9" x2="320.3" y2="239.9"/>
			<line class="st2" x1="320.3" y1="238" x2="320.3" y2="27.5"/>
			<line class="st1" x1="320.3" y1="26.5" x2="320.3" y2="25.5"/>
		</g>
	</g>
	<g>
		<g>
			<g>
				<line class="st3" x1="325.4" y1="110.6" x2="311.8" y2="110.6"/>
				<g>
					<path class="st4" d="M328.8,110.6c-1.6-0.6-3.6-1.6-4.8-2.7l1,2.7l-1,2.7C325.2,112.2,327.2,111.1,328.8,110.6z"/>
				</g>
			</g>
		</g>
		<polyline class="st3" points="311.8,65.2 320.3,65.2 320.3,110.6 		"/>
		<line class="st3" x1="311.8" y1="87.9" x2="320.3" y2="87.9"/>
		<polyline class="st3" points="311.8,184.3 320.3,184.3 320.3,110.6 		"/>
	</g>
	<rect x="263.6" y="56.7" class="st5" width="48.2" height="17"/>
	<rect x="263.6" y="79.4" class="st5" width="48.2" height="17"/>
	<rect x="263.6" y="102" class="st5" width="48.2" height="17"/>
	<rect x="263.6" y="175.7" class="st5" width="48.2" height="17"/>
	<g>
		<g>
			<g>
				<line class="st3" x1="260.2" y1="65.2" x2="246.6" y2="65.2"/>
				<g>
					<path class="st4" d="M263.6,65.2c-1.6-0.6-3.6-1.6-4.8-2.7l1,2.7l-1,2.7C260,66.8,262,65.8,263.6,65.2z"/>
				</g>
			</g>
		</g>
		<g>
			<g>
				<line class="st3" x1="260.2" y1="87.9" x2="246.6" y2="87.9"/>
				<g>
					<path class="st4" d="M263.6,87.9c-1.6-0.6-3.6-1.6-4.8-2.7l1,2.7l-1,2.7C260,89.5,262,88.5,263.6,87.9z"/>
				</g>
			</g>
		</g>
		<polyline class="st3" points="246.6,42.5 255.1,42.5 255.1,65.2 		"/>
	</g>
	<rect x="198.4" y="56.7" class="st5" width="48.2" height="17"/>
	<rect x="198.4" y="34" class="st5" width="48.2" height="17"/>
	<rect x="198.4" y="79.4" class="st5" width="48.2" height="17"/>
	<g>
		<g>
			<g>
				<line class="st3" x1="195" y1="65.2" x2="181.4" y2="65.2"/>
				<g>
					<path class="st4" d="M198.4,65.2c-1.6-0.6-3.6-1.6-4.8-2.7l1,2.7l-1,2.7C194.8,66.8,196.8,65.8,198.4,65.2z"/>
				</g>
			</g>
		</g>
		<g>
			<g>
				<line class="st3" x1="195" y1="87.9" x2="181.4" y2="87.9"/>
				<g>
					<path class="st4" d="M198.4,87.9c-1.6-0.6-3.6-1.6-4.8-2.7l1,2.7l-1,2.7C194.8,89.5,196.8,88.5,198.4,87.9z"/>
				</g>
			</g>
		</g>
		<polyline class="st3" points="181.4,42.5 189.9,42.5 189.9,65.2 		"/>
	</g>
	<polyline class="st3" points="181.4,110.6 189.9,110.6 189.9,87.9 	"/>
	<rect x="133.2" y="34" class="st5" width="48.2" height="17"/>
	<rect x="133.2" y="56.7" class="st5" width="48.2" height="17"/>
	<rect x="133.2" y="79.4" class="st5" width="48.2" height="17"/>
	<g>
		<g>
			<line class="st3" x1="131" y1="65.2" x2="116.2" y2="65.2"/>
			<g>
				<path class="st4" d="M133.2,65.2c-1.1-0.4-2.4-1.1-3.2-1.8l0.6,1.8L130,67C130.8,66.3,132.2,65.6,133.2,65.2z"/>
			</g>
		</g>
	</g>
	<g>
		<g>
			<g>
				<line class="st3" x1="129.8" y1="42.5" x2="116.2" y2="42.5"/>
				<g>
					<path class="st4" d="M133.2,42.5c-1.6-0.6-3.6-1.6-4.8-2.7l1,2.7l-1,2.7C129.6,44.1,131.6,43.1,133.2,42.5z"/>
				</g>
			</g>
		</g>
		<g>
			<g>
				<line class="st3" x1="129.8" y1="87.9" x2="116.2" y2="87.9"/>
				<g>
					<path class="st4" d="M133.2,87.9c-1.6-0.6-3.6-1.6-4.8-2.7l1,2.7l-1,2.7C129.6,89.5,131.6,88.5,133.2,87.9z"/>
				</g>
			</g>
		</g>
		<g>
			<g>
				<line class="st3" x1="129.8" y1="65.2" x2="116.2" y2="65.2"/>
				<g>
					<path class="st4" d="M133.2,65.2c-1.6-0.6-3.6-1.6-4.8-2.7l1,2.7l-1,2.7C129.6,66.8,131.6,65.8,133.2,65.2z"/>
				</g>
			</g>
		</g>
	</g>
	<rect x="68" y="34" class="st5" width="48.2" height="17"/>
	<rect x="68" y="56.7" class="st5" width="48.2" height="17"/>
	<rect x="68" y="79.4" class="st5" width="48.2" height="17"/>
	<rect x="133.2" y="102" class="st5" width="48.2" height="17"/>
	<g>
		<g>
			<line class="st1" x1="59.5" y1="240.9" x2="59.5" y2="239.9"/>
			<line class="st2" x1="59.5" y1="238" x2="59.5" y2="27.5"/>
			<line class="st1" x1="59.5" y1="26.5" x2="59.5" y2="25.5"/>
		</g>
	</g>
	<g>
		<g>
			<g>
				<line class="st3" x1="64.6" y1="42.5" x2="51" y2="42.5"/>
				<g>
					<path class="st4" d="M68,42.5c-1.6-0.6-3.6-1.6-4.8-2.7l1,2.7l-1,2.7C64.5,44.1,66.4,43.1,68,42.5z"/>
				</g>
			</g>
		</g>
		<g>
			<g>
				<polyline class="st3" points="64.6,65.2 59.5,65.2 59.5,42.5 51,42.5 				"/>
				<g>
					<path class="st4" d="M68,65.2c-1.6-0.6-3.6-1.6-4.8-2.7l1,2.7l-1,2.7C64.5,66.8,66.4,65.8,68,65.2z"/>
				</g>
			</g>
		</g>
		<g>
			<g>
				<line class="st3" x1="64.6" y1="87.9" x2="51" y2="87.9"/>
				<g>
					<path class="st4" d="M68,87.9c-1.6-0.6-3.6-1.6-4.8-2.7l1,2.7l-1,2.7C64.5,89.5,66.4,88.5,68,87.9z"/>
				</g>
			</g>
		</g>
	</g>
	<rect x="2.8" y="79.4" class="st5" width="48.2" height="17"/>
	<rect x="2.8" y="34" class="st5" width="48.2" height="17"/>
	<g>
		<g>
			<polyline class="st6" points="51,71.7 51,73.7 49,73.7 			"/>
			<line class="st7" x1="45" y1="73.7" x2="6.8" y2="73.7"/>
			<polyline class="st6" points="4.8,73.7 2.8,73.7 2.8,71.7 			"/>
			<line class="st8" x1="2.8" y1="67.4" x2="2.8" y2="60.9"/>
			<polyline class="st6" points="2.8,58.7 2.8,56.7 4.8,56.7 			"/>
			<line class="st7" x1="8.9" y1="56.7" x2="47" y2="56.7"/>
			<polyline class="st6" points="49,56.7 51,56.7 51,58.7 			"/>
			<line class="st8" x1="51" y1="63" x2="51" y2="69.5"/>
		</g>
	</g>
	<g>
		<g>
			<polyline class="st6" points="51,117.1 51,119.1 49,119.1 			"/>
			<line class="st7" x1="45" y1="119.1" x2="6.8" y2="119.1"/>
			<polyline class="st6" points="4.8,119.1 2.8,119.1 2.8,117.1 			"/>
			<line class="st8" x1="2.8" y1="112.7" x2="2.8" y2="106.2"/>
			<polyline class="st6" points="2.8,104 2.8,102 4.8,102 			"/>
			<line class="st7" x1="8.9" y1="102" x2="47" y2="102"/>
			<polyline class="st6" points="49,102 51,102 51,104 			"/>
			<line class="st8" x1="51" y1="108.4" x2="51" y2="114.9"/>
		</g>
	</g>
	<g>
		<g>
			<polyline class="st6" points="116.2,117.1 116.2,119.1 114.2,119.1 			"/>
			<line class="st7" x1="110.2" y1="119.1" x2="72" y2="119.1"/>
			<polyline class="st6" points="70,119.1 68,119.1 68,117.1 			"/>
			<line class="st8" x1="68" y1="112.7" x2="68" y2="106.2"/>
			<polyline class="st6" points="68,104 68,102 70,102 			"/>
			<line class="st7" x1="74" y1="102" x2="112.2" y2="102"/>
			<polyline class="st6" points="114.2,102 116.2,102 116.2,104 			"/>
			<line class="st8" x1="116.2" y1="108.4" x2="116.2" y2="114.9"/>
		</g>
	</g>
	<g>
		<g>
			<polyline class="st6" points="181.4,139.7 181.4,141.7 179.4,141.7 			"/>
			<line class="st7" x1="175.4" y1="141.7" x2="137.2" y2="141.7"/>
			<polyline class="st6" points="135.2,141.7 133.2,141.7 133.2,139.7 			"/>
			<line class="st8" x1="133.2" y1="135.4" x2="133.2" y2="128.9"/>
			<polyline class="st6" points="133.2,126.7 133.2,124.7 135.2,124.7 			"/>
			<line class="st7" x1="139.2" y1="124.7" x2="177.4" y2="124.7"/>
			<polyline class="st6" points="179.4,124.7 181.4,124.7 181.4,126.7 			"/>
			<line class="st8" x1="181.4" y1="131.1" x2="181.4" y2="137.6"/>
		</g>
	</g>
	<g>
		<g>
			<polyline class="st6" points="246.6,117.1 246.6,119.1 244.6,119.1 			"/>
			<line class="st7" x1="240.6" y1="119.1" x2="202.4" y2="119.1"/>
			<polyline class="st6" points="200.4,119.1 198.4,119.1 198.4,117.1 			"/>
			<line class="st8" x1="198.4" y1="112.7" x2="198.4" y2="106.2"/>
			<polyline class="st6" points="198.4,104 198.4,102 200.4,102 			"/>
			<line class="st7" x1="204.4" y1="102" x2="242.6" y2="102"/>
			<polyline class="st6" points="244.6,102 246.6,102 246.6,104 			"/>
			<line class="st8" x1="246.6" y1="108.4" x2="246.6" y2="114.9"/>
		</g>
	</g>
	<g>
		<g>
			<polyline class="st6" points="311.8,139.7 311.8,141.7 309.8,141.7 			"/>
			<line class="st7" x1="305.8" y1="141.7" x2="267.6" y2="141.7"/>
			<polyline class="st6" points="265.6,141.7 263.6,141.7 263.6,139.7 			"/>
			<line class="st8" x1="263.6" y1="135.4" x2="263.6" y2="128.9"/>
			<polyline class="st6" points="263.6,126.7 263.6,124.7 265.6,124.7 			"/>
			<line class="st7" x1="269.6" y1="124.7" x2="307.8" y2="124.7"/>
			<polyline class="st6" points="309.8,124.7 311.8,124.7 311.8,126.7 			"/>
			<line class="st8" x1="311.8" y1="131.1" x2="311.8" y2="137.6"/>
		</g>
	</g>
	<g>
		<g>
			<polyline class="st6" points="311.8,213.4 311.8,215.4 309.8,215.4 			"/>
			<line class="st7" x1="305.8" y1="215.4" x2="267.6" y2="215.4"/>
			<polyline class="st6" points="265.6,215.4 263.6,215.4 263.6,213.4 			"/>
			<line class="st8" x1="263.6" y1="209.1" x2="263.6" y2="202.6"/>
			<polyline class="st6" points="263.6,200.4 263.6,198.4 265.6,198.4 			"/>
			<line class="st7" x1="269.6" y1="198.4" x2="307.8" y2="198.4"/>
			<polyline class="st6" points="309.8,198.4 311.8,198.4 311.8,200.4 			"/>
			<line class="st8" x1="311.8" y1="204.8" x2="311.8" y2="211.3"/>
		</g>
	</g>
</g>
<g id="Text">
	<g>
		<rect x="68" y="226.8" class="st9" width="48.2" height="17"/>
		<text transform="matrix(1 0 0 1 70.5224 238.5234)" class="st10 st11 st12">*_SRCS-y</text>
	</g>
	<rect x="133.2" y="226.8" class="st9" width="48.2" height="17"/>
	<text transform="matrix(1 0 0 1 135.7196 238.5234)" class="st13 st11 st12">*_OBJS-y</text>
	<g>
		<rect x="258" y="226.8" class="st9" width="59.5" height="17"/>
		<text transform="matrix(1 0 0 1 260.7126 238.5225)" class="st10 st11 st12">UK_ALIBS-y</text>
	</g>
	<g>
		<rect x="320.3" y="226.8" class="st9" width="62.4" height="17"/>
		<text transform="matrix(1 0 0 1 321.7906 238.5224)" class="st10 st11 st12">UK_IMAGES-y</text>
	</g>
	<rect x="263.6" y="56.7" class="st9" width="48.2" height="17"/>
	<text transform="matrix(1 0 0 1 273.3141 67.8043)" class="st11 st14">libA.o</text>
	<g>
		<rect x="258" y="147.4" class="st9" width="59.5" height="17"/>
		<text transform="matrix(1 0 0 1 260.7126 159.1524)" class="st10 st11 st12">UK_OLIBS-y</text>
	</g>
	<rect x="263.6" y="79.4" class="st9" width="48.2" height="17"/>
	<text transform="matrix(1 0 0 1 273.3141 90.4824)" class="st11 st14">libB.o</text>
	<rect x="263.6" y="102" class="st9" width="48.2" height="17"/>
	<text transform="matrix(1 0 0 1 273.3141 113.1595)" class="st11 st14">extC.o</text>
	<rect x="263.6" y="175.7" class="st9" width="48.2" height="17"/>
	<text transform="matrix(1 0 0 1 266.1129 186.8603)" class="st11 st14">staticD.a</text>
	<rect x="198.4" y="56.7" class="st9" width="48.2" height="17"/>
	<text transform="matrix(1 0 0 1 200.916 67.8043)" class="st11 st14">libA.ld.o</text>
	<rect x="198.4" y="34" class="st9" width="48.2" height="17"/>
	<text transform="matrix(1 0 0 1 199.1157 43.8498)" class="st11 st15">exportsyms.uk</text>
	<rect x="198.4" y="79.4" class="st9" width="48.2" height="17"/>
	<text transform="matrix(1 0 0 1 200.916 90.4824)" class="st11 st14">libB.ld.o</text>
	<rect x="133.2" y="34" class="st9" width="48.2" height="17"/>
	<text transform="matrix(1 0 0 1 138.12 45.1281)" class="st11 st14">libA_a.o</text>
	<rect x="133.2" y="79.4" class="st9" width="48.2" height="17"/>
	<text transform="matrix(1 0 0 1 138.1199 90.4823)" class="st11 st14">libB_a.o</text>
	<rect x="133.2" y="56.7" class="st9" width="48.2" height="17"/>
	<text transform="matrix(1 0 0 1 138.12 67.8052)" class="st11 st14">libA_b.o</text>
	<rect x="68" y="34" class="st9" width="48.2" height="17"/>
	<text transform="matrix(1 0 0 1 72.9228 45.128)" class="st11 st14">libA_a.c</text>
	<rect x="68" y="56.7" class="st9" width="48.2" height="17"/>
	<text transform="matrix(1 0 0 1 72.9228 67.8051)" class="st11 st14">libA_b.S</text>
	<rect x="68" y="79.4" class="st9" width="48.2" height="17"/>
	<text transform="matrix(1 0 0 1 72.9227 90.4822)" class="st11 st14">libB_a.c</text>
	<rect x="133.2" y="102" class="st9" width="48.2" height="17"/>
	<text transform="matrix(1 0 0 1 134.2191 112.5198)" class="st11 st16">prebuiltB.o</text>
	<g>
		<rect x="2.8" y="226.8" class="st9" width="48.2" height="17"/>
		<text transform="matrix(1 0 0 1 5.3255 238.5234)" class="st10 st11 st12">LIB*_URL</text>
	</g>
	<rect x="2.8" y="34" class="st9" width="48.2" height="17"/>
	<text transform="matrix(1 0 0 1 7.7259 45.128)" class="st11 st14">libA.zip</text>
	<rect x="2.8" y="79.4" class="st9" width="48.2" height="17"/>
	<text transform="matrix(1 0 0 1 3.8255 89.8426)" class="st11 st16">libB.tar.gz</text>
	<rect x="2.8" y="56.7" class="st9" width="48.2" height="17"/>
	<text transform="matrix(1 0 0 1 19.728 65.8051)" class="st11 st14">...</text>
	<rect x="2.8" y="102" class="st9" width="48.2" height="17"/>
	<text transform="matrix(1 0 0 1 19.728 111.1593)" class="st11 st14">...</text>
	<rect x="68" y="102" class="st9" width="48.2" height="17"/>
	<text transform="matrix(1 0 0 1 84.9249 111.1593)" class="st11 st14">...</text>
	<rect x="133.2" y="124.7" class="st9" width="48.2" height="17"/>
	<text transform="matrix(1 0 0 1 150.1217 133.8365)" class="st11 st14">...</text>
	<rect x="198.4" y="102" class="st9" width="48.2" height="17"/>
	<text transform="matrix(1 0 0 1 215.3186 111.1593)" class="st11 st14">...</text>
	<rect x="263.6" y="124.7" class="st9" width="48.2" height="17"/>
	<text transform="matrix(1 0 0 1 280.5155 133.8365)" class="st11 st14">...</text>
	<rect x="263.6" y="198.4" class="st9" width="48.2" height="17"/>
	<text transform="matrix(1 0 0 1 280.5155 207.5371)" class="st11 st14">...</text>
</g>
<g id="Layer_3">
	<rect x="328.8" y="102" class="st9" width="48.2" height="17"/>
	<text transform="matrix(1 0 0 1 337.0994 113.5921)" class="st17 st12">Images</text>
	<rect x="102" y="5.7" class="st9" width="45.4" height="19.8"/>
	<text transform="matrix(1 0 0 1 106.7788 20.2137)" class="st17 st12">Compile</text>
	<rect x="167.2" y="5.7" class="st9" width="45.4" height="19.8"/>
	<text transform="matrix(1 0 0 1 180.8975 20.2137)" class="st17 st12">Link</text>
	<rect x="232.4" y="5.7" class="st9" width="45.4" height="19.8"/>
	<text transform="matrix(1 0 0 1 243.424 10.214)"><tspan x="0" y="0" class="st17 st12">Mask </tspan><tspan x="-7.1" y="10.8" class="st17 st12">Symbols</tspan></text>
	<rect x="297.6" y="5.7" class="st9" width="45.4" height="19.8"/>
	<text transform="matrix(1 0 0 1 310.0047 10.214)"><tspan x="0" y="0" class="st17 st12">Final</tspan><tspan x="1.3" y="10.8" class="st17 st12">Link</tspan></text>
	<rect x="36.9" y="5.7" class="st9" width="45.4" height="19.8"/>
	<text transform="matrix(1 0 0 1 43.0605 10.214)"><tspan x="0" y="0" class="st17 st12">Fetch &amp; </tspan><tspan x="-0.7" y="10.8" class="st17 st12">Prepare</tspan></text>
</g>
</svg>
