<?xml version="1.0" encoding="utf-8"?>
<!-- Generator: Adobe Illustrator 23.0.6, SVG Export Plug-In . SVG Version: 6.00 Build 0)  -->
<svg version="1.1"
	 id="svg2" inkscape:version="0.48.4 r9939" sodipodi:docname="Xen_project_logo.svg" xmlns:cc="http://creativecommons.org/ns#" xmlns:dc="http://purl.org/dc/elements/1.1/" xmlns:inkscape="http://www.inkscape.org/namespaces/inkscape" xmlns:rdf="http://www.w3.org/1999/02/22-rdf-syntax-ns#" xmlns:sodipodi="http://sodipodi.sourceforge.net/DTD/sodipodi-0.dtd" xmlns:svg="http://www.w3.org/2000/svg"
	 xmlns="http://www.w3.org/2000/svg" xmlns:xlink="http://www.w3.org/1999/xlink" x="0px" y="0px" viewBox="0 0 635 250"
	 style="enable-background:new 0 0 635 250;" xml:space="preserve">
<style type="text/css">
	.st0{fill:#ffffff;}
	.st2{font-family:Arial;}
	.st3{font-size:20px;}
	.st4{fill:#3f78be;}
</style>
<g id="layer1" transform="translate(-35.96674,-122.78154)" inkscape:groupmode="layer" inkscape:label="Layer 1">
	<g id="g3096" transform="matrix(1.25,0,0,-1.25,482.39049,207.62355)">
		<path id="path3098" inkscape:connector-curvature="0" class="st0" d="M0,0c-15.515,0-28.053-7.979-34.655-13.246l1.902,10.135
			H-71.188l-13.539-62.71h40.182l6.863,36.491c3.355,4.268,8.928,9.765,15.411,9.763c10.591-0.003,8.298-8.452,7.425-15.123
			l-5.434-30.157l39.177-0.082c0,0,4.575,24.037,5.124,26.682C29.516-11.926,23.15,0,0,0"/>
	</g>
	<g id="g3100" transform="matrix(1.25,0,0,-1.25,318.61486,225.41043)">
		<path id="path3102" inkscape:connector-curvature="0" class="st0" d="M0,0c13.975,0,9.608-12.9,9.608-12.9h-24.023
			C-14.415-12.9-13.977,0,0,0 M45.421-25.353c0,0,15.29,39.745-41.052,39.745c-56.341,0-60.709-39.745-60.709-39.745
			S-63.328-54.26-8.736-54.26c54.594,0,52.412,21.348,52.412,21.348H3.495c0,0-3.058-8.448-11.357-8.448
			c-8.3,0-13.539,3.11-11.357,16.007H45.421z"/>
	</g>
	<g id="g3104" transform="matrix(1.25,0,0,-1.25,393.17286,325.59968)">
		<path id="path3106" inkscape:connector-curvature="0" class="st4" d="M0,0c2.271,0,4.157,0.539,5.653,1.614
			C7.151,2.69,8.081,4.15,8.439,5.996l0.026,0.132c0.385,1.976,0.03,3.48-1.057,4.512c-1.088,1.032-2.789,1.548-5.103,1.548h-5.963
			L-6.027,0H0z M-14.307,22.805H5.351c2.882,0,5.432-0.363,7.652-1.082c2.219-0.721,4.024-1.769,5.417-3.146
			c1.392-1.376,2.341-3.069,2.846-5.077c0.504-2.011,0.511-4.283,0.02-6.816l-0.025-0.131c-0.529-2.709-1.483-5.089-2.865-7.143
			c-1.382-2.052-3.083-3.778-5.101-5.176c-2.02-1.398-4.31-2.447-6.87-3.143c-2.56-0.701-5.259-1.05-8.099-1.05h-6.29l-2.547-13.104
			h-12.712C-23.223-23.063-14.307,22.805-14.307,22.805z"/>
	</g>
	<g id="g3108" transform="matrix(1.25,0,0,-1.25,426.97661,310.11755)">
		<path id="path3110" inkscape:connector-curvature="0" class="st4" d="M0,0h12.517L11.13-7.144c1.47,2.404,3.219,4.325,5.248,5.767
			c2.026,1.442,4.513,2.097,7.458,1.966l-2.548-13.106H20.24c-3.276,0-5.975-0.961-8.096-2.883c-2.121-1.921-3.58-4.937-4.376-9.042
			L5.627-35.449H-6.889L0,0z"/>
	</g>
	<g id="g3112" transform="matrix(1.25,0,0,-1.25,478.56236,342.22568)">
		<path id="path3114" inkscape:connector-curvature="0" class="st4" d="M0,0c1.137,0,2.202,0.205,3.199,0.617
			c0.998,0.412,1.882,0.975,2.655,1.69c0.772,0.714,1.424,1.548,1.96,2.501C8.349,5.761,8.718,6.759,8.92,7.799L8.946,7.93
			c0.21,1.082,0.222,2.099,0.037,3.052c-0.186,0.955-0.549,1.788-1.087,2.502c-0.541,0.715-1.223,1.289-2.057,1.724
			c-0.833,0.432-1.797,0.649-2.888,0.649c-1.136,0-2.202-0.206-3.199-0.617c-0.998-0.413-1.883-0.975-2.655-1.69
			c-0.773-0.715-1.426-1.55-1.96-2.503c-0.535-0.953-0.904-1.95-1.106-2.987l-0.025-0.13c-0.21-1.086-0.224-2.105-0.038-3.056
			c0.185-0.953,0.549-1.787,1.086-2.502c0.54-0.715,1.224-1.288,2.059-1.723C-2.055,0.217-1.092,0,0,0 M-2.193-10.614
			c-2.841,0-5.358,0.48-7.552,1.44c-2.193,0.961-4.002,2.283-5.421,3.964c-1.421,1.682-2.396,3.637-2.922,5.864
			c-0.528,2.229-0.546,4.61-0.054,7.143l0.026,0.133c0.493,2.532,1.448,4.923,2.869,7.174c1.419,2.248,3.168,4.213,5.242,5.897
			c2.071,1.681,4.406,3.014,7.001,3.996c2.594,0.984,5.31,1.476,8.15,1.476c2.838,0,5.353-0.492,7.542-1.476
			c2.19-0.982,3.998-2.304,5.422-3.964c1.424-1.66,2.402-3.602,2.93-5.831c0.527-2.228,0.545-4.609,0.053-7.142l-0.025-0.13
			c-0.493-2.535-1.449-4.927-2.869-7.176c-1.421-2.251-3.169-4.217-5.242-5.899c-2.073-1.68-4.408-3.012-7.003-3.996
			C3.36-10.124,0.645-10.614-2.193-10.614"/>
	</g>
	<g id="g3116" transform="matrix(1.25,0,0,-1.25,518.77111,294.63905)">
		<path id="path3118" inkscape:connector-curvature="0" class="st4" d="M0,0h13.04l-1.784-9.174H-1.783L0,0z M-11.307-58.514
			c-1.007,0-1.914,0.057-2.72,0.164c-0.809,0.11-1.577,0.208-2.303,0.295l1.604,8.256c0.255-0.042,0.523-0.065,0.808-0.065h0.819
			c1.221,0,2.199,0.305,2.929,0.917c0.731,0.614,1.244,1.681,1.541,3.21l6.483,33.354H10.37L3.785-46.262
			c-0.431-2.226-1.088-4.127-1.964-5.699c-0.877-1.572-1.945-2.839-3.209-3.801c-1.262-0.96-2.726-1.659-4.392-2.096
			C-7.445-58.294-9.288-58.514-11.307-58.514"/>
	</g>
	<g id="g3120" transform="matrix(1.25,0,0,-1.25,565.24074,328.62943)">
		<path id="path3122" inkscape:connector-curvature="0" class="st4" d="M0,0c0.16,1.965-0.19,3.528-1.056,4.686
			c-0.868,1.157-2.153,1.737-3.858,1.737c-1.658,0-3.125-0.58-4.399-1.737C-10.585,3.528-11.59,1.965-12.32,0H0z M-9.29-21.491
			c-2.796,0-5.266,0.447-7.405,1.343c-2.143,0.893-3.899,2.137-5.27,3.734c-1.372,1.595-2.306,3.526-2.805,5.8
			c-0.496,2.271-0.478,4.783,0.057,7.534l0.026,0.133c0.5,2.576,1.406,4.988,2.718,7.239c1.308,2.248,2.926,4.214,4.849,5.897
			c1.921,1.681,4.065,3.003,6.438,3.964c2.369,0.961,4.866,1.443,7.487,1.443c3.057,0,5.609-0.525,7.657-1.573
			c2.044-1.049,3.628-2.458,4.747-4.227c1.12-1.771,1.813-3.822,2.08-6.159C11.555,1.3,11.433-1.18,10.924-3.8
			c-0.076-0.393-0.158-0.809-0.242-1.245c-0.086-0.437-0.192-0.875-0.32-1.31h-23.72c0.097-1.968,0.719-3.43,1.865-4.391
			c1.145-0.961,2.7-1.441,4.667-1.441c1.484,0,2.906,0.283,4.262,0.852c1.354,0.566,2.788,1.484,4.302,2.751l5.773-5.7
			c-2.13-2.186-4.576-3.932-7.344-5.242C-2.599-20.837-5.752-21.491-9.29-21.491"/>
	</g>
	<g id="g3124" transform="matrix(1.25,0,0,-1.25,602.60774,355.49343)">
		<path id="path3126" inkscape:connector-curvature="0" class="st4" d="M0,0c-2.664,0-5.037,0.49-7.116,1.474
			c-2.081,0.983-3.779,2.304-5.095,3.963c-1.314,1.661-2.225,3.615-2.727,5.866c-0.501,2.249-0.509,4.619-0.025,7.108l0.025,0.133
			c0.484,2.488,1.414,4.857,2.79,7.107c1.377,2.249,3.057,4.215,5.046,5.899c1.986,1.679,4.243,3.014,6.772,3.997
			c2.527,0.982,5.189,1.474,7.985,1.474c3.67,0,6.586-0.72,8.754-2.164c2.166-1.441,3.779-3.362,4.841-5.765l-9.675-6.29
			c-0.645,1.178-1.404,2.096-2.282,2.752c-0.879,0.655-2.081,0.983-3.61,0.983c-1.004,0-1.972-0.209-2.906-0.623
			c-0.932-0.416-1.775-0.983-2.525-1.704c-0.752-0.722-1.395-1.55-1.926-2.49c-0.532-0.939-0.903-1.954-1.116-3.046l-0.025-0.13
			c-0.222-1.139-0.253-2.196-0.094-3.18c0.158-0.982,0.472-1.834,0.945-2.554c0.47-0.72,1.104-1.289,1.897-1.704
			c0.793-0.417,1.713-0.625,2.76-0.625c1.486,0,2.806,0.329,3.959,0.984c1.155,0.656,2.344,1.552,3.57,2.687l7.15-6.028
			c-2.138-2.447-4.594-4.412-7.371-5.898C7.223,0.741,3.89,0,0,0"/>
	</g>
	<g id="g3128" transform="matrix(1.25,0,0,-1.25,645.55324,355.33118)">
		<path id="path3130" inkscape:connector-curvature="0" class="st4" d="M0,0c-3.777,0-6.545,0.896-8.305,2.687
			c-1.759,1.79-2.227,4.805-1.402,9.042l2.801,14.417H-11.1l1.949,10.025h4.192l1.747,8.975H9.305l-1.747-8.975h8.255l-1.949-10.025
			H5.609l-2.33-11.992c-0.247-1.267-0.138-2.175,0.323-2.72c0.461-0.546,1.259-0.819,2.396-0.819c0.83,0,1.659,0.109,2.488,0.328
			c0.829,0.217,1.647,0.501,2.459,0.851L9.048,2.03c-1.255-0.611-2.64-1.101-4.153-1.471C3.383,0.186,1.749,0,0,0"/>
	</g>
	<g id="g3132" transform="matrix(1.25,0,0,-1.25,305.74549,178.71493)">
		<path id="path3134" inkscape:connector-curvature="0" class="st0" d="M0,0h-63.766l-36.119-27.667L-120.98,0h-51.098
			l39.936-52.374l-79.681-61.035h63.76599l39.42599,30.199l23.027-30.199h51.098L-76.373-58.5L0,0z"/>
	</g>
	<g id="g3148" transform="matrix(1.25,0,0,-1.25,170.94086,333.34992)">
		<path id="path3150" inkscape:connector-curvature="0" class="st4" d="M0,0c-13.3,0-25.741,3.677-36.371,10.059l-2.306-1.766
			l-0.68-0.521h-0.856h-30.576C-53.429-11.721-28.154-24.01,0.002-24.01s53.43,12.289,70.789,31.782h-38.56
			C22.562,2.814,11.613,0,0,0"/>
	</g>
	<g id="g3156" transform="matrix(1.25,0,0,-1.25,82.484487,244.89293)">
		<path id="path3158" inkscape:connector-curvature="0" class="st4" d="M0,0c0,15.094,4.741,29.073,12.793,40.561L4.521,51.41
			l-3.096,4.06h5.106h20.321c12.068,9.566,27.317,15.295,43.913,15.295c16.597,0,31.846-5.729,43.914-15.295h0.164h32.75
			c-17.216,23.805-45.202,39.307-76.826,39.307C18.423,94.777-24.011,52.345-24.011,0c0-15.293,3.643-29.726,10.076-42.515
			L5.573-27.572C1.985-19.1,0-9.782,0,0"/>
	</g>
	<g id="g3160" transform="matrix(1.25,0,0,-1.25,275.76024,214.81718)">
		<path id="path3162" inkscape:connector-curvature="0" class="st4" d="M0,0c2.285,1.249,4.598,2.308,6.904,3.191
			c-0.76,2.53-1.609,5.018-2.568,7.454L-15.777-4.761c0.599-2.117,1.098-4.277,1.504-6.469C-10.559-7.021-5.723-3.127,0,0"/>
	</g>
	<g id="g3164" transform="matrix(1.25,0,0,-1.25,252.26349,279.64755)">
		<path id="path3166" inkscape:connector-curvature="0" class="st4" d="M0,0c-1.555-3.634-3.394-7.118-5.511-10.408L9.724-30.389
			c4.574,5.872,8.443,12.311,11.548,19.169C12.292-9.184,4.766-5.101,0,0"/>
	</g>
	<text transform="matrix(1 0 0 1 516.49872 212.80687)" class="st0 st2 st3">®</text>
</g>
</svg>
