<?xml version="1.0" encoding="utf-8"?>
<!-- Generator: Adobe Illustrator 27.5.0, SVG Export Plug-In . SVG Version: 6.00 Build 0)  -->
<svg version="1.1" id="Layer_1" xmlns="http://www.w3.org/2000/svg" xmlns:xlink="http://www.w3.org/1999/xlink" x="0px" y="0px"
	 viewBox="0 0 667.96 386" style="enable-background:new 0 0 667.96 386;" xml:space="preserve">
<style type="text/css">
	.st0{fill:none;stroke:#FFFFFF;stroke-width:0.75;stroke-miterlimit:10;}
</style>
<g>
	<g>
		<line class="st0" x1="15.69" y1="191.82" x2="15.69" y2="235.34"/>
		<line class="st0" x1="22.55" y1="220.44" x2="8.83" y2="206.73"/>
		<line class="st0" x1="22.55" y1="206.73" x2="8.83" y2="220.44"/>
		<line class="st0" x1="31.14" y1="213.58" x2="0.24" y2="213.58"/>
	</g>
	<g>
		<line class="st0" x1="635.61" y1="64.46" x2="635.61" y2="92.77"/>
		<line class="st0" x1="640.07" y1="83.08" x2="631.15" y2="74.16"/>
		<line class="st0" x1="640.07" y1="74.16" x2="631.15" y2="83.08"/>
		<line class="st0" x1="645.66" y1="78.62" x2="625.56" y2="78.62"/>
	</g>
	<g>
		<line class="st0" x1="519.3" y1="26.46" x2="519.3" y2="30.13"/>
		<line class="st0" x1="519.3" y1="33.8" x2="519.3" y2="37.46"/>
		<line class="st0" x1="524.8" y1="31.96" x2="521.13" y2="31.96"/>
		<line class="st0" x1="517.47" y1="31.96" x2="513.8" y2="31.96"/>
	</g>
	<g>
		<line class="st0" x1="125.42" y1="244.02" x2="125.42" y2="247.69"/>
		<line class="st0" x1="125.42" y1="251.35" x2="125.42" y2="255.02"/>
		<line class="st0" x1="130.92" y1="249.52" x2="127.26" y2="249.52"/>
		<line class="st0" x1="123.59" y1="249.52" x2="119.92" y2="249.52"/>
	</g>
	<polygon fill="#ffffff" points="498.37,97.06 496.98,85.52 495.59,97.06 486.4,98.53 495.59,100 496.98,111.54 498.37,100 507.57,98.53 	"/>
	<polygon fill="#ffffff" points="186.59,248.04 185.2,236.51 183.81,248.04 174.61,249.52 183.81,250.99 185.2,262.53 186.59,250.99 195.78,249.52 
			"/>
	<polygon fill="#ffffff" points="96.8,344.02 98.52,345.36 101.77,347.88 99.18,344.69 97.84,343.02 106.24,342.64 116.53,342.16 106.24,341.69 
		97.76,341.3 99.1,339.53 101.57,336.25 98.41,338.88 96.8,340.23 96.41,331.86 95.94,321.57 95.47,331.86 95.08,340.32 
		93.34,338.98 90.07,336.48 92.68,339.66 94.02,341.3 85.64,341.69 75.34,342.16 85.64,342.64 94.07,343.02 92.73,344.73 
		90.19,347.96 93.4,345.4 95.08,344.05 95.47,352.46 95.94,362.76 96.41,352.46 	"/>
	<polygon fill="#ffffff" points="581.85,29.56 584,31.23 588.06,34.39 584.83,30.39 583.15,28.31 593.64,27.83 606.51,27.24 593.64,26.65 
		583.06,26.16 584.72,23.95 587.81,19.84 583.87,23.13 581.85,24.82 581.37,14.37 580.78,1.5 580.19,14.37 579.7,24.93 
		577.52,23.26 573.45,20.13 576.7,24.11 578.38,26.17 567.91,26.65 555.04,27.24 567.91,27.83 578.44,28.31 576.76,30.45 
		573.59,34.49 577.6,31.28 579.7,29.6 580.19,40.11 580.78,52.97 581.37,40.11 	"/>
</g>
<g>
	<path class="st0" d="M518.67,105.37c66.27,20.68,108.62,52.26,108.62,87.64c0,62.3-131.32,112.8-293.31,112.8
		s-293.31-50.5-293.31-112.8c0-62.3,131.32-112.8,293.31-112.8c51.96,0,100.77,5.2,143.1,14.31"/>
	<ellipse class="st0" transform="matrix(0.9592 -0.2827 0.2827 0.9592 -40.9391 102.295)" cx="333.98" cy="193" rx="293.31" ry="108.83"/>
	<path class="st0" d="M168.68,243.06c-80-43.07-127.53-94.01-116.04-132.98c16.99-57.65,156.73-67.27,312.11-21.47
		c155.38,45.8,267.57,129.66,250.58,187.32c-16.99,57.65-156.73,67.27-312.11,21.47c-36.49-10.75-70.6-23.61-101.21-37.73"/>
</g>
</svg>
