<?xml version="1.0" encoding="utf-8"?>
<!-- Generator: Adobe Illustrator 23.0.6, SVG Export Plug-In . SVG Version: 6.00 Build 0)  -->
<svg version="1.1" id="Capa_1" xmlns="http://www.w3.org/2000/svg" xmlns:xlink="http://www.w3.org/1999/xlink" x="0px" y="0px"
	 viewBox="0 0 512.00201 512.00201" style="enable-background:new 0 0 512.00201 512.00201;" xml:space="preserve">
<style type="text/css">
	.st0{fill:#FFFFFF;}
</style>
<rect x="300.56369" y="308.54608" transform="matrix(0.70711 -0.70711 0.70711 0.70711 -140.10339 338.25012)" class="st0" width="75.37727" height="59.39744"/>
<path class="st0" d="M120.773,318.58099c21.208,11.42801,45.297,17.39401,69.456,17.39401c6.679,0,13.364-0.45599,19.993-1.379
	c31.651-4.40399,60.35701-18.707,83.01299-41.36099c56.92401-56.925,56.92401-149.547,0-206.472
	c-27.57501-27.576-64.23801-42.761-103.235-42.761c-38.995,0-75.663,15.188-103.236,42.761
	c-22.655,22.655-36.957,51.36-41.361,83.01201c-4.26,30.61,1.428,62.377,16.014,89.44699c2.621,4.862,8.688,6.67899,13.547,4.061
	c4.862-2.62,6.68-8.685,4.061-13.547c-26.173-48.573-17.174-109.774,21.884-148.83c23.798-23.799,55.438-36.904,89.09401-36.904
	c33.65399,0,65.29599,13.106,89.09302,36.903c49.12601,49.126,49.12601,129.061,0,178.18799
	c-39.05701,39.05899-100.261,48.05499-148.832,21.883c-4.861-2.61801-10.926-0.802-13.547,4.061
	C114.094,309.896,115.911,315.961,120.773,318.58099z"/>
<path class="st0" d="M86.768,279.07999L86.68,279.168c-3.905,3.905-3.905,10.237,0,14.14301
	c1.953,1.952,4.512,2.92899,7.071,2.92899s5.118-0.97699,7.071-2.92899l0.088-0.08801c3.905-3.905,3.905-10.237,0-14.14301
	C97.004,275.17599,90.674,275.17599,86.768,279.07999z"/>
<path class="st0" d="M310.80801,70.4c1.95599,1.983,4.53601,2.977,7.11801,2.977c2.53699,0,5.07501-0.959,7.02301-2.881
	c3.93201-3.879,3.974-10.21,0.095-14.142l-0.698-0.703c-3.90601-3.905-10.23599-3.905-14.14301,0
	c-3.905,3.905-3.905,10.237,0,14.143L310.80801,70.4z"/>
<path class="st0" d="M390.00601,322.55701c3.185-6.862,10.02798-11.267,17.63599-11.267
	c10.72299,0,19.44501,8.72299,19.44501,19.44501V340c0,5.522,4.478,10,10,10s10-4.478,10-10v-9.26501
	c0-21.75-17.69501-39.444-39.444-39.444c-13.013,0-24.92902,6.349-32.21799,16.68399l-21.673-21.673
	c12.68201-21.573,21.07199-45.55899,24.48901-70.522c6.12799,3.923,13.39999,6.20801,21.20099,6.20801
	c21.75,0,39.444-17.69501,39.444-39.444v-19.459c0-21.75-17.69501-39.445-39.444-39.445c-10.73999,0-20.487,4.32-27.60699,11.307
	c-5.25299-17.414-12.98401-34.076-23.06201-49.366c-3.039-4.612-9.24399-5.887-13.853-2.847
	c-4.61099,3.039-5.88599,9.241-2.84698,13.853c44.138,66.96899,34.94,156.808-21.87,213.61798
	c-32.108,32.10901-74.79901,49.793-120.205,49.793c-45.407,0-88.097-17.68399-120.206-49.793S20,235.405,20,189.99899
	s17.684-88.097,49.793-120.206C126.399,13.183,216.03,3.851,282.92001,47.6c4.62201,3.023,10.82001,1.727,13.84299-2.895
	c3.022-4.622,1.72699-10.82-2.896-13.843C257.90302,7.34,214.411-3.301,171.401,0.907c-38.03799,3.72-74.173,18.992-103.381,43.43
	V34.005c0-18.748-15.252-33.999-33.999-33.999s-34,15.252-34,33.999v35.999c0,14.397,8.999,26.724,21.665,31.673
	C7.519,128.59399,0,158.716,0,189.99899c0,50.74899,19.765,98.461,55.65,134.34799c1.715,1.715,3.465,3.38101,5.232,5.021v22.362
	c0,10.72299-8.723,19.44501-19.445,19.44501s-19.445-8.72299-19.445-19.44501v-19.45999c0-5.522-4.478-10-10-10s-10,4.478-10,10
	V351.729c0,21.75,17.695,39.444,39.444,39.444S80.88,373.478,80.88,351.729v-6.133c31.734,22.35599,69.5,34.39999,109.116,34.39999
	c34.44,0,67.478-9.11301,96.375-26.181l144.21201,144.21201c9.008,9.008,20.98401,13.96899,33.72299,13.96899
	c12.73999,0,24.716-4.961,33.72299-13.96899c18.59399-18.595,18.59399-48.85001,0-67.44501L390.00601,322.55701z
	 M379.99399,163.08501c0-10.72301,8.724-19.446,19.44601-19.446c10.72198,0,19.44501,8.72299,19.44501,19.446v19.459
	c0,10.722-8.724,19.44501-19.44501,19.44501c-10.72299,0-19.44598-8.72299-19.44598-19.44501L379.99399,163.08501
	L379.99399,163.08501z M20.021,70.005v-36c0-7.72,6.28-14,14-14s14,6.28,14,14v26.75c0,0.9,0.13,1.767,0.353,2.596
	c-5.849,6.524-11.202,13.386-16.04,20.542C25.408,83.054,20.021,77.152,20.021,70.005z M324.34601,324.34601
	c6.58099-6.57999,12.633-13.617,18.13599-21.02899l29.28101,29.28l-39.16101,39.16L303.358,342.51303
	C310.71701,337.01901,317.733,330.95801,324.34601,324.34601z M483.89001,483.88599c-10.797,10.797-28.36499,10.797-39.16101,0
	L346.74402,385.901l39.16101-39.16l97.98499,97.98502C494.686,455.522,494.686,473.091,483.89001,483.88599z"/>
<path class="st0" d="M46.781,491.99701h-7.944V423.647c0-4.04501-2.437-7.69101-6.173-9.23901
	c-3.737-1.54599-8.039-0.69199-10.898,2.168L2.94,435.40201c-3.905,3.905-3.905,10.237,0,14.14301
	c3.906,3.90399,10.236,3.90399,14.143,0l1.755-1.755v44.207h-7.944c-5.522,0-10,4.478-10,10s4.478,10,10,10h35.888
	c5.522,0,10-4.478,10-10C56.782,496.47501,52.304,491.99701,46.781,491.99701z"/>
<path class="st0" d="M135.61301,491.99701h-7.944V423.647c0-4.04501-2.437-7.69101-6.173-9.23901
	c-3.736-1.54599-8.038-0.69199-10.898,2.168l-18.826,18.82599c-3.905,3.905-3.905,10.237,0,14.14301
	c3.906,3.90399,10.236,3.90399,14.143,0l1.755-1.755v44.207h-7.944c-5.522,0-10,4.478-10,10s4.478,10,10,10h35.888
	c5.522,0,10-4.478,10-10C145.614,496.47501,141.136,491.99701,135.61301,491.99701z"/>
<path class="st0" d="M313.27701,491.99701h-7.944V423.647c0-4.04501-2.43701-7.69101-6.173-9.23901
	c-3.737-1.54599-8.03799-0.69199-10.89801,2.168L269.436,435.40198c-3.905,3.905-3.905,10.237,0,14.14301
	c3.90601,3.90399,10.23599,3.90399,14.14301,0l1.755-1.755v44.207h-7.944c-5.522,0-10,4.478-10,10s4.478,10,10,10h35.888
	c5.522,0,10-4.478,10-10C323.27802,496.47501,318.79901,491.99701,313.27701,491.99701z"/>
<path class="st0" d="M206.05901,413.64801c-21.75,0-39.444,17.69501-39.444,39.444V472.552c0,21.75,17.69499,39.444,39.444,39.444
	s39.444-17.69501,39.444-39.444v-19.45898C245.505,431.34299,227.80901,413.64801,206.05901,413.64801z M225.505,472.55301
	c0,10.72299-8.72299,19.44501-19.44501,19.44501c-10.722,0-19.44501-8.72299-19.44501-19.44501v-19.45999
	c0-10.72299,8.72299-19.44501,19.44501-19.44501c10.722,0,19.44501,8.72299,19.44501,19.44501V472.55301z"/>
<path class="st0" d="M502,371.17401h-7.944v-68.349c0-4.04501-2.43701-7.69101-6.173-9.23901
	c-3.737-1.54501-8.03799-0.69199-10.89801,2.168L458.16,314.57999c-3.905,3.905-3.905,10.237,0,14.14301
	c3.90601,3.90399,10.23599,3.90399,14.14301,0l1.755-1.755v44.20599h-7.944c-5.522,0-10,4.478-10,10s4.478,10,10,10h35.888
	c5.522,0,10-4.478,10-10S507.522,371.17401,502,371.17401z"/>
<path class="st0" d="M372.409,35.902l1.755-1.755v44.207h-7.944c-5.522,0-10,4.477-10,10s4.478,10,10,10h35.888
	c5.522,0,10-4.477,10-10s-4.478-10-10-10h-7.944V10.006c0-4.044-2.43701-7.691-6.173-9.239
	c-3.73801-1.549-8.039-0.691-10.89801,2.167L358.267,21.76c-3.905,3.905-3.905,10.237,0,14.143
	C362.17401,39.807,368.504,39.807,372.409,35.902z"/>
<path class="st0" d="M472.55499,0.006c-21.75,0-39.444,17.695-39.444,39.445V58.91c0,21.75,17.69501,39.444,39.444,39.444
	c21.75,0,39.444-17.695,39.444-39.444V39.45C512,17.701,494.30399,0.006,472.55499,0.006z M492,58.91
	c0,10.722-8.72299,19.445-19.44501,19.445c-10.72198,0-19.44501-8.723-19.44501-19.445V39.45
	c0-10.723,8.72299-19.446,19.44501-19.446C483.27698,20.004,492,28.727,492,39.45V58.91z"/>
<path class="st0" d="M502,201.98801h-7.944V133.638c0-4.04401-2.43701-7.691-6.173-9.239c-3.737-1.548-8.03799-0.692-10.89801,2.167
	L458.159,145.392c-3.905,3.905-3.905,10.237,0,14.14301c3.90601,3.905,10.23599,3.905,14.14301,0l1.755-1.755v44.207h-7.944
	c-5.522,0-10,4.47701-10,10s4.478,10,10,10h35.888c5.522,0,9.99997-4.47701,9.99997-10
	C512.00201,206.464,507.522,201.98801,502,201.98801z"/>
<path class="st0" d="M254.285,133.754c-3.737-1.548-8.039-0.69099-10.89799,2.168l-22.589,22.59c-3.905,3.905-3.905,10.237,0,14.142
	c3.90601,3.905,10.23599,3.905,14.14301,0l5.51801-5.51801v59.87h-11.53101c-5.522,0-10,4.47701-10,10s4.478,10,10,10h43.06201
	c5.522,0,10-4.47701,10-10s-4.478-10-10-10h-11.53201v-84.013C260.457,138.94701,258.01999,135.30099,254.285,133.754z"/>
<path class="st0" d="M143.338,247.004c24.996,0,45.33101-20.336,45.33101-45.33099V178.323
	c0-24.996-20.336-45.33099-45.33099-45.33099s-45.331,20.336-45.331,45.33099V201.673
	C98.007,226.66901,118.343,247.004,143.338,247.004z M118.007,178.32401c0-13.968,11.364-25.332,25.332-25.332
	s25.332,11.364,25.332,25.332v23.35001c0,13.968-11.364,25.332-25.332,25.332s-25.332-11.364-25.332-25.332V178.32401z"/>
</svg>
