<?xml version="1.0" encoding="utf-8"?>
<svg version="1.1" id="Layer_1" xmlns="http://www.w3.org/2000/svg" xmlns:xlink="http://www.w3.org/1999/xlink" x="0px" y="0px"
	 viewBox="0 0 100 100" xml:space="preserve">
<path fill="#EA4335" d="M63.6,31.9h3.1l8.9-8.6l0.3-3.7C59.6,5,34.8,6.5,20.4,22.7c-4,4.6-6.7,10.1-8.3,15.9c-0.1,0.6-0.3,0.9-0.5,2.3
	l21-5.3c0,0,0.9-1.5,1.2-1.2C41.5,25.4,54.7,24.5,63.6,31.9L63.6,31.9z"/>
<path fill="#4285F4" d="M87.7,38.6c-2.1-7.3-6.1-14.1-11.9-19L63.6,31.9c5.2,4.3,8.3,10.7,7.9,17.1v2.1c6.1,0,11,4.9,11,11
	s-4.9,11-11,11H49.8l-2.1,2.1v13.1l2.1,2.1h21.7c15.6,0,28.4-12.5,28.4-28.1C100.2,52.7,95.7,43.8,87.7,38.6z"/>
<path fill="#34A853" d="M28.1,90.5h21.7V73.1H28.1c-1.5,0-3.1-0.3-4.6-0.9l-3.1,0.9l-8.9,8.6l-0.5,3C15.9,88.7,22,90.8,28.1,90.5z"/>
<path fill="#FBBC05" d="M28.1,34C12.5,34,0,46.8,0,62.4c0,8.9,4.3,16.8,11,22.3l12.5-12.5c-5.2-2.8-7.6-9.2-5.2-14.7s8.9-7.9,14.4-5.5
	c2.4,1.2,4.3,3.1,5.5,5.5L50.7,45C45.2,37.9,37,33.7,28.1,34z"/>
</svg>
