<?xml version="1.0" encoding="UTF-8" standalone="no"?>
<svg xmlns:dc="http://purl.org/dc/elements/1.1/" xmlns:cc="http://creativecommons.org/ns#" xmlns:rdf="http://www.w3.org/1999/02/22-rdf-syntax-ns#" xmlns:svg="http://www.w3.org/2000/svg" xmlns="http://www.w3.org/2000/svg" width="2500" height="391.5" viewBox="0 0 2500 391.5">
<path fill="#5F6368" d="M730.6,316.5c-35.3,0-69.2-12.7-93.3-38.2c-25.4-24-39.6-57.9-39.6-91.9c0-35.3,14.1-67.8,39.6-91.9
	c24-25.4,57.9-39.6,93.3-39.6c33.9,0,65,12.7,89,35.3l-25.4,25.4c-17-17-41-25.4-63.6-25.4c-25.4,0-49.5,9.9-66.4,28.3
	c-18.4,18.4-28.3,42.4-26.9,67.8c0,25.4,9.9,49.5,26.9,66.4c36.7,36.7,94.7,36.7,132.8,1.4c11.3-12.7,18.4-28.3,19.8-43.8h-84.8
	v-36.7h120.1c1.4,7.1,1.4,14.1,1.4,22.6c1.4,31.1-9.9,60.8-31.1,83.4C798.5,303.8,766,316.5,730.6,316.5z M1010.5,292.5
	c-33.9,32.5-86.2,32.5-120.1,0c-15.5-15.5-25.4-38.2-24-59.4c0-22.6,8.5-43.8,24-59.4c33.9-32.5,86.2-32.5,120.1,0
	c15.5,15.5,25.4,38.2,24,59.4C1035.9,254.4,1026,277,1010.5,292.5L1010.5,292.5z M917.2,268.5c17,18.4,46.6,19.8,65,2.8
	c1.4,0,1.4-1.4,2.8-2.8c9.9-9.9,14.1-22.6,14.1-36.7s-4.2-26.9-14.1-36.7c-18.4-18.4-46.6-19.8-66.4-1.4l-1.4,1.4
	c-9.9,9.9-14.1,22.6-14.1,36.7C901.6,245.9,907.3,258.6,917.2,268.5L917.2,268.5z M1194.2,292.5c-33.9,32.5-86.2,32.5-120.1,0
	c-15.5-15.5-25.4-38.2-24-59.4c0-22.6,8.5-43.8,24-59.4c33.9-32.5,86.2-32.5,120.1,0c15.5,15.5,25.4,38.2,24,59.4
	C1219.6,254.4,1211.1,277,1194.2,292.5z M1100.9,268.5c17,18.4,46.6,19.8,65,2.8c1.4,0,1.4-1.4,2.8-2.8c9.9-9.9,14.1-22.6,14.1-36.7
	s-4.2-26.9-14.1-36.7c-18.4-18.4-46.6-19.8-66.4-1.4l-1.4,1.4c-9.9,9.9-14.1,22.6-14.1,36.7S1091,258.6,1100.9,268.5L1100.9,268.5z
	 M1315.7,391.4c-17,0-33.9-4.2-46.6-15.5c-11.3-8.5-21.2-21.2-26.9-35.3l32.5-14.1c2.8,8.5,8.5,15.5,15.5,21.2
	c7.1,5.7,17,8.5,26.9,8.5c12.7,1.4,24-4.2,32.5-12.7c8.5-9.9,12.7-24,11.3-36.7v-9.9h-1.4c-11.3,12.7-26.9,19.8-43.8,19.8
	c-21.2,0-42.4-8.5-56.5-24c-15.5-15.5-24-36.7-24-59.4s8.5-43.8,24-59.4c14.1-15.5,35.3-25.4,56.5-25.4c8.5,0,18.4,1.4,25.4,5.7
	c7.1,2.8,12.7,7.1,18.4,12.7h1.4V154h35.3v149.8c1.4,24-5.7,48-22.6,65C1356.7,384.4,1336.9,392.9,1315.7,391.4z M1317.1,282.6
	c12.7,0,24-4.2,32.5-14.1s12.7-22.6,12.7-36.7s-4.2-26.9-12.7-36.7c-8.5-9.9-19.8-14.1-32.5-14.1c-12.7,0-24,4.2-32.5,14.1
	c-9.9,9.9-14.1,22.6-14.1,36.7s4.2,26.9,14.1,36.7C1293.1,278.4,1305.8,282.6,1317.1,282.6z M1457,63.6v247.3h-36.7V63.6H1457z
	 M1558.8,316.5c-22.6,0-43.8-8.5-59.4-24c-15.5-15.5-24-38.2-24-59.4c-1.4-22.6,7.1-43.8,22.6-60.8c14.1-15.5,35.3-24,56.5-24
	c9.9,0,19.8,1.4,28.3,5.7c8.5,2.8,15.5,8.5,21.2,14.1c5.7,5.7,9.9,11.3,14.1,17c2.8,5.7,5.7,11.3,8.5,17l4.2,9.9l-113.1,46.6
	c7.1,15.5,22.6,26.9,41,25.4c17,0,32.5-8.5,41-22.6l28.3,19.8c-7.1,9.9-17,18.4-26.9,25.4C1588.5,312.3,1574.3,316.5,1558.8,316.5z
	 M1512.2,228.9l74.9-31.1c-2.8-5.7-7.1-9.9-11.3-12.7c-5.7-2.8-12.7-5.7-19.8-5.7c-11.3,0-22.6,5.7-31.1,12.7
	C1515,203.5,1510.7,216.2,1512.2,228.9z"/>
<path fill="#5F6368" d="M1824.5,316.5c-65,1.4-117.3-49.5-118.7-114.5c0-1.4,0-2.8,0-4.2c-1.4-63.6,49.5-117.3,113.1-118.7
	c1.4,0,2.8,0,4.2,0c32.5-1.4,63.6,12.7,83.4,36.7l-19.8,19.8c-15.5-19.8-38.2-29.7-63.6-29.7c-24,0-46.6,8.5-63.6,25.4
	s-26.9,41-25.4,66.4c-1.4,24,8.5,48,25.4,66.4c17,17,39.6,25.4,63.6,25.4c26.9,0,53.7-11.3,70.7-32.5l19.8,19.8
	c-11.3,12.7-24,22.6-39.6,29.7C1859.8,312.3,1842.8,316.5,1824.5,316.5z"/>
<path fill="#5F6368" d="M1970,310.9h-29.7V83.4h29.7V310.9z"/>
<path fill="#5F6368" d="M2018.1,173.8c32.5-31.1,83.4-31.1,115.9,0c15.5,15.5,22.6,36.7,22.6,59.4s-7.1,43.8-22.6,59.4
	c-32.5,31.1-83.4,31.1-115.9,0c-15.5-15.5-22.6-36.7-22.6-59.4C1994.1,210.6,2002.5,189.4,2018.1,173.8z M2039.3,274.2
	c18.4,19.8,49.5,21.2,69.2,1.4l1.4-1.4c9.9-11.3,15.5-25.4,15.5-41s-4.2-29.7-15.5-41c-18.4-19.8-49.5-21.2-69.2-1.4l-1.4,1.4
	c-9.9,11.3-15.5,25.4-15.5,41C2023.7,248.7,2029.4,262.8,2039.3,274.2L2039.3,274.2z"/>
<path fill="#5F6368" d="M2317.7,310.9h-28.3v-21.2l0,0c-5.7,8.5-12.7,15.5-21.2,19.8c-8.5,5.7-18.4,8.5-29.7,7.1
	c-17,1.4-32.5-5.7-43.8-18.4c-11.3-14.1-15.5-31.1-15.5-48v-94.7h29.7v90.4c0,29.7,12.7,43.8,38.2,43.8c11.3,0,22.6-4.2,29.7-14.1
	s11.3-21.2,11.3-33.9v-86.2h29.7V310.9z"/>
<path fill="#5F6368" d="M2416.6,316.5c-19.8,0-39.6-8.5-52.3-24c-14.1-15.5-22.6-36.7-22.6-59.4c0-21.2,7.1-42.4,22.6-59.4
	c12.7-15.5,32.5-24,52.3-24c11.3,0,22.6,2.8,32.5,7.1c8.5,4.2,15.5,11.3,21.2,19.8h1.4l-1.4-21.2V83.4h29.7v227.5h-28.3v-21.2h-1.4
	c-5.7,8.5-12.7,14.1-21.2,19.8C2439.2,313.7,2427.9,316.5,2416.6,316.5z M2422.3,289.7c12.7,0,26.9-5.7,35.3-15.5
	c9.9-11.3,15.5-25.4,14.1-41c1.4-15.5-4.2-29.7-14.1-41c-18.4-19.8-48-21.2-67.8-2.8c-1.4,1.4-2.8,1.4-2.8,2.8
	c-9.9,11.3-15.5,25.4-14.1,41c-1.4,15.5,4.2,29.7,14.1,41C2395.4,284,2408.1,289.7,2422.3,289.7z"/>
<path fill="#EA4335" d="M294,103.3h14.1l41-39.6l1.4-17C275.6-21.1,161.1-14,94.7,60.9c-18.4,21.2-31.1,46.6-38.2,73.5
	c-0.7,2.9-1.5,4.3-2.5,10.5l97.2-24.7c0,0,4.2-7.1,5.7-5.7C192.2,73.6,253,69.4,294,103.3L294,103.3z"/>
<path fill="#4285F4" d="M405.6,134.4c-9.9-33.9-28.3-65-55.1-87.6L294,103.3c24,19.8,38.2,49.5,36.7,79.1v9.9
	c28.3,0,50.9,22.6,50.9,50.9s-22.6,50.9-50.9,50.9H230.4l-9.9,9.9v60.8l9.9,9.9h100.3c72.1,0,131.4-57.9,131.4-130
	C463.5,199.4,442.3,158.4,405.6,134.4z"/>
<path fill="#34A853" d="M130,374.5h100.3v-80.6H130c-7.1,0-14.1-1.4-21.2-4.2l-14.1,4.2l-41,39.6l-2.8,14.1
	C73.5,366,101.8,375.9,130,374.5z"/>
<path fill="#FBBC05" d="M130,113C57.9,113,0,172.4,0,244.4c0,41,19.8,77.7,50.9,103.2l57.9-57.9c-24-12.7-35.3-42.4-24-67.8
	c11.3-25.4,41-36.7,66.4-25.4c11.3,5.7,19.8,14.1,25.4,25.4l57.9-57.9C209.2,131.4,171,111.6,130,113z"/>
</svg>
