<?xml version="1.0" encoding="utf-8"?>
<svg version="1.1" id="Layer_1" xmlns="http://www.w3.org/2000/svg" xmlns:xlink="http://www.w3.org/1999/xlink" x="0px" y="0px"
	 viewBox="0 0 100 100" xml:space="preserve">
<path fill="#1C232F" d="M28.2,41.8c0,1.2,0.1,2.2,0.4,3c0.3,0.7,0.6,1.5,1.1,2.4c0.2,0.3,0.2,0.5,0.2,0.8s-0.2,0.7-0.6,1l-2.1,1.4
	c-0.3,0.2-0.6,0.3-0.9,0.3s-0.7-0.2-1-0.5c-0.5-0.5-0.9-1-1.2-1.6c-0.3-0.6-0.7-1.2-1-2c-2.6,3.1-5.9,4.6-9.8,4.6
	c-2.8,0-5-0.8-6.7-2.4c-1.6-1.6-2.5-3.7-2.5-6.4c0-2.8,1-5.1,3-6.9s4.7-2.6,8.1-2.6c1.1,0,2.3,0.1,3.5,0.3s2.5,0.4,3.8,0.7v-2.4
	c0-2.5-0.5-4.3-1.6-5.3s-2.9-1.5-5.4-1.5c-1.2,0-2.4,0.1-3.6,0.4s-2.4,0.7-3.6,1.1c-0.5,0.2-0.9,0.4-1.2,0.4
	c-0.2,0.1-0.4,0.1-0.5,0.1c-0.5,0-0.7-0.3-0.7-1v-1.6c0-0.5,0.1-0.9,0.2-1.2c0.2-0.2,0.5-0.5,0.9-0.7c1.2-0.6,2.6-1.1,4.2-1.5
	s3.4-0.6,5.2-0.6c4,0,6.9,0.9,8.7,2.7c1.8,1.8,2.8,4.5,2.8,8.2L28.2,41.8L28.2,41.8z M14.7,46.9c1.1,0,2.2-0.2,3.4-0.6
	c1.2-0.4,2.3-1.1,3.2-2.1c0.5-0.6,0.9-1.3,1.1-2.1s0.3-1.8,0.3-2.9v-1.4c-1-0.2-2-0.4-3.1-0.6s-2-0.2-3.1-0.2c-2.2,0-3.9,0.4-5,1.3
	S10,40.5,10,42.1s0.4,2.7,1.2,3.5C12,46.5,13.2,46.9,14.7,46.9z M41.4,50.5c-0.6,0-1-0.1-1.3-0.3s-0.5-0.7-0.7-1.3l-7.8-25.7
	c-0.2-0.7-0.3-1.1-0.3-1.3c0-0.5,0.3-0.8,0.8-0.8h3.3c0.6,0,1.1,0.1,1.3,0.3c0.3,0.2,0.5,0.7,0.7,1.3l5.6,22l5.2-22
	c0.2-0.7,0.4-1.1,0.6-1.3c0.3-0.2,0.7-0.3,1.3-0.3h2.7c0.6,0,1.1,0.1,1.3,0.3c0.3,0.2,0.5,0.7,0.6,1.3L60,45l5.8-22.3
	c0.2-0.7,0.4-1.1,0.7-1.3c0.3-0.2,0.7-0.3,1.3-0.3h3.1c0.5,0,0.8,0.3,0.8,0.8c0,0.2,0,0.3-0.1,0.5c0,0.2-0.1,0.5-0.2,0.8l-8,25.7
	c-0.2,0.7-0.4,1.1-0.7,1.3s-0.7,0.3-1.3,0.3h-2.9c-0.6,0-1.1-0.1-1.3-0.3c-0.3-0.2-0.5-0.7-0.6-1.3l-5.2-21.5l-5.1,21.4
	c-0.2,0.7-0.4,1.1-0.6,1.3c-0.3,0.2-0.7,0.3-1.3,0.3L41.4,50.5L41.4,50.5z M84.1,51.4c-1.7,0-3.5-0.2-5.1-0.6s-3-0.8-3.8-1.3
	c-0.5-0.3-0.9-0.6-1-0.9S74,48,74,47.7V46c0-0.7,0.3-1,0.8-1c0.2,0,0.4,0,0.6,0.1s0.5,0.2,0.8,0.3c1.1,0.5,2.4,0.9,3.7,1.2
	c1.3,0.3,2.6,0.4,4,0.4c2.1,0,3.7-0.4,4.9-1.1c1.1-0.7,1.7-1.8,1.7-3.2c0-0.9-0.3-1.7-0.9-2.3s-1.7-1.2-3.4-1.7L81.3,37
	c-2.4-0.8-4.2-1.9-5.3-3.4c-1.1-1.5-1.7-3.1-1.7-4.8c0-1.4,0.3-2.6,0.9-3.7s1.4-2,2.4-2.7c1-0.8,2.1-1.3,3.5-1.7
	c1.3-0.4,2.7-0.6,4.2-0.6c0.7,0,1.5,0,2.2,0.1c0.8,0.1,1.5,0.2,2.2,0.4c0.7,0.2,1.3,0.3,1.9,0.5s1.1,0.4,1.4,0.6
	c0.5,0.3,0.8,0.5,1,0.8s0.3,0.6,0.3,1.1v1.6c0,0.7-0.3,1.1-0.8,1.1c-0.3,0-0.7-0.1-1.3-0.4c-1.9-0.9-4-1.3-6.4-1.3
	c-1.9,0-3.4,0.3-4.4,0.9s-1.6,1.6-1.6,3c0,0.9,0.3,1.7,1,2.4c0.7,0.6,1.9,1.3,3.7,1.8l4.7,1.5c2.4,0.8,4.1,1.8,5.2,3.2
	c1,1.4,1.5,2.9,1.5,4.7c0,1.4-0.3,2.7-0.9,3.9c-0.6,1.1-1.4,2.1-2.4,2.9c-1,0.8-2.3,1.4-3.7,1.9C87.4,51.1,85.8,51.4,84.1,51.4z"/>
<path fill="#FD8709" d="M90.4,67.5c-10.9,8.1-26.8,12.4-40.5,12.4c-19.2,0-36.4-7.1-49.5-18.9c-1-0.9-0.1-2.2,1.1-1.5
	C15.6,67.7,33,72.6,51,72.6c12.1,0,25.5-2.5,37.7-7.7C90.6,64.2,92.2,66.2,90.4,67.5z"/>
<path fill="#FD8709" d="M95,62.3c-1.4-1.8-9.2-0.9-12.8-0.4c-1.1,0.1-1.2-0.8-0.3-1.5c6.3-4.4,16.5-3.1,17.7-1.7
	c1.2,1.5-0.3,11.8-6.2,16.7c-0.9,0.8-1.8,0.4-1.4-0.6C93.4,71.5,96.4,64.1,95,62.3z"/>
</svg>
