<?xml version="1.0" encoding="UTF-8" standalone="no"?>
<svg
   xmlns:dc="http://purl.org/dc/elements/1.1/"
   xmlns:cc="http://creativecommons.org/ns#"
   xmlns:rdf="http://www.w3.org/1999/02/22-rdf-syntax-ns#"
   xmlns:svg="http://www.w3.org/2000/svg"
   xmlns="http://www.w3.org/2000/svg"
   version="1.1"
   id="svg4858"
   viewBox="0 0 302 81.992517"
   height="81.992516"
   width="302">
  <defs
     id="defs4860" />
  <metadata
     id="metadata4863">
    <rdf:RDF>
      <cc:Work
         rdf:about="">
        <dc:format>image/svg+xml</dc:format>
        <dc:type
           rdf:resource="http://purl.org/dc/dcmitype/StillImage" />
        <dc:title></dc:title>
      </cc:Work>
    </rdf:RDF>
  </metadata>
  <g
     transform="translate(-502.04782,-672.84143)"
     id="layer1">
    <g
       transform="matrix(3.8755084,0,0,-3.8755084,503.04782,676.29963)"
       id="g4454">
      <path
         id="path4456"
         style="fill:#1414a0;fill-opacity:1;fill-rule:nonzero;stroke:none"
         d="m 0,0 6.23,0 c 1.425,0 3.105,-1.331 3.854,-2.063 l 10.93,-12.119 0,14.182 3.713,0 0,-19.349 -6.5,0 c -1.158,0.039 -2.295,0.277 -3.62,1.579 l -10.912,12.141 0,-13.72 -3.695,0 L 0,0 Z" />
    </g>
    <g
       transform="matrix(3.8755084,0,0,-3.8755084,803.04782,751.79799)"
       id="g4458">
      <path
         id="path4460"
         style="fill:#1414a0;fill-opacity:1;fill-rule:nonzero;stroke:none"
         d="m 0,0 c -4.447,-0.607 -8.946,-0.667 -13.454,-0.288 -2.639,0.233 -5.224,0.776 -7.593,2.013 -2.991,1.55 -3.944,5.034 -3.904,8.192 0.033,2.915 0.9,6.027 3.501,7.722 1.705,1.119 3.526,1.486 5.461,1.837 5.282,0.931 10.574,0.721 15.727,0.156 l 0,-2.76 c -6.077,1.181 -12.496,0.887 -14.677,-1.905 -1.363,-1.737 -1.557,-3.465 -1.557,-4.92 0,-2.622 0.897,-6.6 6.225,-7.373 C -6.795,2.164 -3.354,2.551 0,3.162 L 0,0 Z" />
    </g>
    <g
       transform="matrix(3.8755084,0,0,-3.8755084,655.56649,740.13545)"
       id="g4462">
      <path
         id="path4464"
         style="fill:#1414a0;fill-opacity:1;fill-rule:nonzero;stroke:none"
         d="m 0,0 c 0.526,-0.005 8.901,-0.044 11.776,0 l 0,-2.891 C 5.985,-3.114 0.421,-3.211 -5.429,-2.968 c -4.964,0.205 -5.819,2.701 -5.915,5.099 l 0,14.341 22.843,0 0,-2.755 -14.778,0 0,-4.926 13.469,0 0,-2.689 -13.469,0 C -3.279,4.647 -3.231,2.997 -3.217,2.7 -3.138,0.824 -2.268,0.134 0,0" />
    </g>
  </g>
</svg>
