<?xml version="1.0" encoding="utf-8"?>
<!-- Generator: Adobe Illustrator 23.0.6, SVG Export Plug-In . SVG Version: 6.00 Build 0)  -->
<svg version="1.1" id="Layer_1" xmlns="http://www.w3.org/2000/svg" xmlns:xlink="http://www.w3.org/1999/xlink" x="0px" y="0px"
	 viewBox="0 0 512 512" style="enable-background:new 0 0 512 512;" xml:space="preserve">
<style type="text/css">
	.st0{fill-rule:evenodd;clip-rule:evenodd;}
	.st1{fill:#FFFFFF;}
</style>
<g>
	<path class="st0 st1" d="M232,396h48v48h-48V396z"/>
</g>
<path class="st1" d="M422.58984,323.99609h-41.03516c-5.51953,0-10,4.47656-10,10s4.48047,10,10,10h41.03516
	c5.52344,0,10-4.47656,10-10S428.11328,323.99609,422.58984,323.99609z"/>
<path class="st1" d="M352.82422,324h-0.23438c-5.52344,0-10,4.47656-10,10s4.47656,10,10,10h0.23438c5.52344,0,10-4.47656,10-10
	S358.34766,324,352.82422,324z"/>
<path class="st1" d="M502,406c5.52344,0,10-4.47656,10-10v-32c0-5.52344-4.47656-10-10-10h-40.28906
	c0.57031-2.17969,0.87891-4.46484,0.87891-6.82031V216.82031c0-6.36328-2.23047-12.21484-5.94922-16.82031
	c3.71484-4.60156,5.94922-10.45312,5.94922-16.82031V52.82031C462.58984,38.03125,450.55859,26,435.76953,26H272.82031
	c-6.36328,0-12.21484,2.23438-16.82031,5.94922C251.39453,28.23438,245.54297,26,239.17969,26h-102.5c-5.52344,0-10,4.47656-10,10
	v50.46094c0,3.46875,1.79297,6.6875,4.74219,8.50781c1.60547,0.99219,3.42969,1.49219,5.25781,1.49219
	c1.52734,0,3.0625-0.34766,4.47266-1.05469l16.55469-8.27734l16.55078,8.27734c3.10156,1.55078,6.78125,1.38281,9.73047-0.4375
	c2.94922-1.82422,4.74219-5.04297,4.74219-8.50781V46h50.44922C242.87891,46,246,49.125,246,52.82031v130.35938
	C246,186.875,242.875,190,239.17969,190H76.23047c-3.69922,0-6.82031-3.125-6.82031-6.82031V52.82031
	c0-2.14844,1.00391-4.13672,2.75781-5.45703c0.24219-0.17969,0.49609-0.34766,0.75781-0.49609
	c4.8125-2.71094,6.51172-8.80859,3.80078-13.62109s-8.80859-6.51562-13.62109-3.80078
	c-1.02734,0.57812-2.02344,1.23047-2.96484,1.9375c-6.71875,5.05859-10.73047,13.07031-10.73047,21.4375v130.35938
	c0,6.36328,2.23438,12.21484,5.94922,16.82031c-3.71484,4.60547-5.94922,10.45312-5.94922,16.82031v130.35938
	c0,2.35547,0.30859,4.64062,0.87891,6.82031H10c-5.52344,0-10,4.47656-10,10v32c0,5.52344,4.47656,10,10,10h14v28H10
	c-5.52344,0-10,4.47656-10,10v32c0,5.52344,4.47656,10,10,10h492c5.52344,0,10-4.47656,10-10v-32c0-5.52344-4.47656-10-10-10h-14
	v-28H502z M168.73047,70.28125l-6.55469-3.27734c-2.8125-1.40625-6.12891-1.40625-8.94141,0l-6.55469,3.27734V46h22.05078V70.28125z
	 M266,347.17969V216.82031C266,213.125,269.125,210,272.82031,210h50.44922v40.46094c0,3.46875,1.79297,6.6875,4.74219,8.50781
	c2.94922,1.82422,6.63281,1.98828,9.73047,0.4375l16.55078-8.27734l16.55469,8.27734
	c1.41406,0.70703,2.94531,1.05859,4.47266,1.05859c1.82812,0,3.65234-0.50391,5.25781-1.49609
	c2.94922-1.82031,4.74219-5.03906,4.74219-8.50391V210h50.44922c3.69531,0,6.82031,3.125,6.82031,6.82031v130.35938
	c0,3.69922-3.125,6.82031-6.82031,6.82031H272.82031C269.125,354,266,350.87891,266,347.17969z M365.32031,210v24.28125
	l-6.55469-3.27734c-2.8125-1.40625-6.12891-1.40625-8.94141,0l-6.55469,3.27734V210H365.32031z M343.26953,46h22.05469v24.28125
	l-6.55469-3.27734c-2.81641-1.40625-6.12891-1.40625-8.94531,0l-6.55469,3.27734V46z M272.82031,46h50.44922v40.46094
	c0,3.46875,1.79297,6.6875,4.74219,8.50781c1.60547,0.99219,3.42969,1.49219,5.25781,1.49219
	c1.52734,0,3.0625-0.34766,4.47266-1.05469l16.55469-8.27734l16.55078,8.27734c3.10156,1.54688,6.78125,1.38281,9.73047-0.4375
	c2.94922-1.82422,4.74219-5.04297,4.74219-8.50781V46h50.44922c3.69531,0,6.82031,3.125,6.82031,6.82031v130.35938
	c0,3.69531-3.125,6.82031-6.82031,6.82031H272.82031C269.125,190,266,186.875,266,183.17969V52.82031
	C266,49.125,269.125,46,272.82031,46z M146.67969,210h22.05078v24.28125l-6.55469-3.27734
	c-2.8125-1.40625-6.12891-1.40625-8.94141,0l-6.55469,3.27734V210z M69.41016,347.17969V216.82031
	c0-3.69531,3.125-6.82031,6.82031-6.82031h50.44922v40.46094c0,3.46875,1.79297,6.6875,4.74219,8.50781
	s6.62891,1.98828,9.73047,0.4375l16.55078-8.27734l16.55469,8.27734c1.41406,0.70703,2.94531,1.05859,4.47266,1.05859
	c1.82812,0,3.65234-0.50391,5.25781-1.49609c2.94922-1.82031,4.74219-5.03906,4.74219-8.50391V210h50.44922
	c3.69922,0,6.82031,3.125,6.82031,6.82031v130.35938c0,3.69922-3.125,6.82031-6.82031,6.82031H76.23047
	C72.53125,354,69.41016,350.87891,69.41016,347.17969z M20,374h472v12H20V374z M290,434v-28h130v28H290z M92,434v-28h130v28H92z
	 M44,406h28v28H44V406z M492,466H20v-12h472V466z M468,434h-28v-28h28V434z"/>
<path class="st1" d="M96.44531,46h0.26953c5.52344,0,10-4.47656,10-10s-4.47656-10-10-10h-0.26953c-5.52344,0-10,4.47656-10,10
	S90.92188,46,96.44531,46z"/>
</svg>
