<?xml version="1.0" encoding="utf-8"?>
<!-- Generator: Adobe Illustrator 23.0.6, SVG Export Plug-In . SVG Version: 6.00 Build 0)  -->
<svg version="1.1" id="Layer_1" xmlns="http://www.w3.org/2000/svg" xmlns:xlink="http://www.w3.org/1999/xlink" x="0px" y="0px"
	 viewBox="0 0 98 155" style="enable-background:new 0 0 98 155;" xml:space="preserve">
<style type="text/css">
	.st0{fill:#FFFFFF;}
	.st1{fill:#48658A;}
	.st2{fill:#9D4C3D;}
	.st3{fill:#042F5F;}
	.st4{fill:#F26F21;}
	.st5{fill:#FFFFFF;stroke:#FFFFFF;stroke-width:2;stroke-miterlimit:10;}
	.st6{fill:#282F35;}
</style>
<path class="st0" d="M87.7,155H10.3C4.6,155,0,150.4,0,144.7V10.3C0,4.6,4.6,0,10.3,0h77.4C93.4,0,98,4.6,98,10.3v134.4
	C98,150.4,93.4,155,87.7,155z M10.3,2C5.7,2,2,5.7,2,10.3v134.4c0,4.6,3.7,8.3,8.3,8.3h77.4c4.6,0,8.3-3.7,8.3-8.3V10.3
	C96,5.7,92.3,2,87.7,2H10.3z"/>
<path class="st0" d="M49,92l-0.4,0c-10.4,0-18.5-2.9-24-8.5c-4.9-5-7.5-12-7.5-20.1l0-41.1c0-1.4,0-5.7,5-5.7h15.4
	c3.2,0,5,2.1,5,5.7l0,28.4l0,2.8c0,1.3,0.1,2.3,0.2,3.2c0.3,1.6,0.9,2.8,1.9,3.5l0.1,0.1c1,0.7,2.4,1,4.2,1c1.8,0,3.1-0.4,4.1-1
	l0.1-0.1c1-0.8,1.6-1.9,1.9-3.5c0.2-0.9,0.2-1.9,0.2-3.2c0-7.8,0-31.6,0-31.6c0.2-3.4,2-5.3,5-5.3h15.4c5,0,5,4.3,5,5.7l0,41.1
	c0,8.1-2.6,15.1-7.5,20.1c-5.6,5.7-13.7,8.5-24,8.5L49,92z"/>
<path id="Rounded_Rectangle_1-2_1_" class="st1" d="M54.4,78H57c1.5,0,2.7,1.2,2.7,2.7v2.7c0,1.5-1.2,2.7-2.7,2.7h-2.7
	c-1.5,0-2.7-1.2-2.7-2.7v-2.7C51.7,79.2,52.9,78,54.4,78z"/>
<path id="Rounded_Rectangle_1-3_1_" class="st2" d="M70.6,44.9h2.7c1.5,0,2.7,1.2,2.7,2.7v2.7c0,1.5-1.2,2.7-2.7,2.7h-2.7
	c-1.5,0-2.7-1.2-2.7-2.7v-2.7C67.9,46.1,69.1,44.9,70.6,44.9z"/>
<path id="Rounded_Rectangle_1-4_1_" class="st3" d="M33.6,74.9h2.7c1.5,0,2.7,1.2,2.7,2.7v2.7c0,1.5-1.2,2.7-2.7,2.7h-2.7
	c-1.5,0-2.7-1.2-2.7-2.7v-2.7C30.9,76.2,32.1,74.9,33.6,74.9z"/>
<path id="Rounded_Rectangle_1-5_1_" class="st2" d="M33.1,22.1h2.7c1.5,0,2.7,1.2,2.7,2.7v2.7c0,1.5-1.2,2.7-2.7,2.7h-2.7
	c-1.5,0-2.7-1.2-2.7-2.7v-2.7C30.4,23.3,31.6,22.1,33.1,22.1z"/>
<path id="Rounded_Rectangle_1-6_1_" class="st1" d="M27.4,67.8h2.7c1.5,0,2.7,1.2,2.7,2.7v2.7c0,1.5-1.2,2.7-2.7,2.7h-2.7
	c-1.5,0-2.7-1.2-2.7-2.7v-2.7C24.7,69,25.9,67.8,27.4,67.8z"/>
<path id="Rounded_Rectangle_1-7_1_" class="st1" d="M51.2,65.4h2.7c1.5,0,2.7,1.2,2.7,2.7v2.7c0,1.5-1.2,2.7-2.7,2.7h-2.7
	c-1.5,0-2.7-1.2-2.7-2.7v-2.7C48.5,66.6,49.7,65.4,51.2,65.4z"/>
<path id="Rounded_Rectangle_1-8_1_" class="st3" d="M32.6,51.2h2.7c1.5,0,2.7,1.2,2.7,2.7v2.7c0,1.5-1.2,2.7-2.7,2.7h-2.7
	c-1.5,0-2.7-1.2-2.7-2.7v-2.7C29.9,52.4,31.1,51.2,32.6,51.2z"/>
<path id="Rounded_Rectangle_1-9_1_" class="st3" d="M62.5,37.8h2.7c1.5,0,2.7,1.2,2.7,2.7v2.7c0,1.5-1.2,2.7-2.7,2.7h-2.7
	c-1.5,0-2.7-1.2-2.7-2.7v-2.7C59.8,39.1,61,37.8,62.5,37.8z"/>
<path id="Rounded_Rectangle_1-10_1_" class="st3" d="M27.2,25.2h2.7c1.5,0,2.7,1.2,2.7,2.7v2.7c0,1.5-1.2,2.7-2.7,2.7h-2.7
	c-1.5,0-2.7-1.2-2.7-2.7V28C24.5,26.5,25.7,25.2,27.2,25.2z"/>
<path id="Rounded_Rectangle_1-11_1_" class="st3" d="M33.6,31.2h2.7c1.5,0,2.7,1.2,2.7,2.7v2.7c0,1.5-1.2,2.7-2.7,2.7h-2.7
	c-1.5,0-2.7-1.2-2.7-2.7v-2.7C30.8,32.4,32,31.2,33.6,31.2z"/>
<path id="Rounded_Rectangle_1-12_1_" class="st2" d="M58.5,63.5h2.7c1.5,0,2.7,1.2,2.7,2.7v2.7c0,1.5-1.2,2.7-2.7,2.7h-2.7
	c-1.5,0-2.7-1.2-2.7-2.7v-2.7C55.7,64.8,57,63.5,58.5,63.5z"/>
<path id="Rounded_Rectangle_1-13_1_" class="st2" d="M44.4,66H47c1.5,0,2.7,1.2,2.7,2.7v2.7c0,1.5-1.2,2.7-2.7,2.7h-2.7
	c-1.5,0-2.7-1.2-2.7-2.7v-2.7C41.7,67.3,42.9,66,44.4,66z"/>
<path id="Rounded_Rectangle_1-14_1_" class="st3" d="M47.5,78h2.7c1.5,0,2.7,1.2,2.7,2.7v2.7c0,1.5-1.2,2.7-2.7,2.7h-2.7
	c-1.5,0-2.7-1.2-2.7-2.7v-2.7C44.8,79.2,46,78,47.5,78z"/>
<path id="Rounded_Rectangle_1-15_1_" class="st3" d="M40.3,77H43c1.5,0,2.7,1.2,2.7,2.7v2.7c0,1.5-1.2,2.7-2.7,2.7h-2.7
	c-1.5,0-2.7-1.2-2.7-2.7v-2.7C37.6,78.2,38.8,77,40.3,77z"/>
<path id="Rounded_Rectangle_1-16_1_" class="st3" d="M65.6,69.4h2.7c1.5,0,2.7,1.2,2.7,2.7v2.7c0,1.5-1.2,2.7-2.7,2.7h-2.7
	c-1.5,0-2.7-1.2-2.7-2.7v-2.7C62.8,70.6,64,69.4,65.6,69.4z"/>
<path id="Rounded_Rectangle_1-17_1_" class="st3" d="M31.3,70.9H34c1.5,0,2.7,1.2,2.7,2.7v2.7c0,1.5-1.2,2.7-2.7,2.7h-2.7
	c-1.5,0-2.7-1.2-2.7-2.7v-2.7C28.6,72.1,29.8,70.9,31.3,70.9z"/>
<path id="Rounded_Rectangle_1-18_1_" class="st3" d="M32.6,60.2h2.7c1.5,0,2.7,1.2,2.7,2.7v2.7c0,1.5-1.2,2.7-2.7,2.7h-2.7
	c-1.5,0-2.7-1.2-2.7-2.7v-2.7C29.9,61.4,31.1,60.2,32.6,60.2z"/>
<path id="Rounded_Rectangle_1-19_1_" class="st3" d="M54.6,70.4h2.7c1.5,0,2.7,1.2,2.7,2.7v2.7c0,1.5-1.2,2.7-2.7,2.7h-2.7
	c-1.5,0-2.7-1.2-2.7-2.7v-2.7C51.9,71.7,53.1,70.4,54.6,70.4z"/>
<path id="Rounded_Rectangle_1-20_1_" class="st2" d="M48.1,73h2.7c1.5,0,2.7,1.2,2.7,2.7v2.7c0,1.5-1.2,2.7-2.7,2.7h-2.7
	c-1.5,0-2.7-1.2-2.7-2.7v-2.7C45.4,74.2,46.6,73,48.1,73z"/>
<path id="Rounded_Rectangle_1-21_1_" class="st3" d="M38.3,69.2H41c1.5,0,2.7,1.2,2.7,2.7v2.7c0,1.5-1.2,2.7-2.7,2.7h-2.7
	c-1.5,0-2.7-1.2-2.7-2.7v-2.7C35.6,70.4,36.8,69.2,38.3,69.2z"/>
<path id="Rounded_Rectangle_1-22_1_" class="st4" d="M69.1,38.4h2.7c1.5,0,2.7,1.2,2.7,2.7v2.7c0,1.5-1.2,2.7-2.7,2.7h-2.7
	c-1.5,0-2.7-1.2-2.7-2.7v-2.7C66.3,39.7,67.6,38.4,69.1,38.4z"/>
<path id="Rounded_Rectangle_1-23_1_" class="st3" d="M26,61.1h2.7c1.5,0,2.7,1.2,2.7,2.7v2.7c0,1.5-1.2,2.7-2.7,2.7H26
	c-1.5,0-2.7-1.2-2.7-2.7v-2.7C23.2,62.3,24.5,61.1,26,61.1z"/>
<path id="Rounded_Rectangle_1-24_1_" class="st2" d="M68.5,62.8h2.7c1.5,0,2.7,1.2,2.7,2.7v2.7c0,1.5-1.2,2.7-2.7,2.7h-2.7
	c-1.5,0-2.7-1.2-2.7-2.7v-2.7C65.8,64,67,62.8,68.5,62.8z"/>
<path id="Rounded_Rectangle_1-25_1_" class="st3" d="M25.1,40.3h2.7c1.5,0,2.7,1.2,2.7,2.7v2.7c0,1.5-1.2,2.7-2.7,2.7h-2.7
	c-1.5,0-2.7-1.2-2.7-2.7v-2.7C22.3,41.6,23.6,40.3,25.1,40.3z"/>
<path id="Rounded_Rectangle_1-26_1_" class="st1" d="M31.9,36.8h2.7c1.5,0,2.7,1.2,2.7,2.7v2.7c0,1.5-1.2,2.7-2.7,2.7h-2.7
	c-1.5,0-2.7-1.2-2.7-2.7v-2.7C29.2,38,30.4,36.8,31.9,36.8z"/>
<path id="Rounded_Rectangle_1-27_1_" class="st2" d="M26,31.2h2.7c1.5,0,2.7,1.2,2.7,2.7v2.7c0,1.5-1.2,2.7-2.7,2.7H26
	c-1.5,0-2.7-1.2-2.7-2.7V34C23.3,32.5,24.5,31.2,26,31.2z"/>
<path id="Rounded_Rectangle_1-28_1_" class="st1" d="M34.9,64.5h2.7c1.5,0,2.7,1.2,2.7,2.7v2.7c0,1.5-1.2,2.7-2.7,2.7h-2.7
	c-1.5,0-2.7-1.2-2.7-2.7v-2.7C32.2,65.7,33.4,64.5,34.9,64.5z"/>
<path id="Rounded_Rectangle_1-29_1_" class="st4" d="M23.8,35.3h2.7c1.5,0,2.7,1.2,2.7,2.7v2.7c0,1.5-1.2,2.7-2.7,2.7h-2.7
	c-1.5,0-2.7-1.2-2.7-2.7V38C21.1,36.5,22.3,35.3,23.8,35.3z"/>
<path id="Rounded_Rectangle_1-30_1_" class="st2" d="M27.6,47.4h2.7c1.5,0,2.7,1.2,2.7,2.7v2.7c0,1.5-1.2,2.7-2.7,2.7h-2.7
	c-1.5,0-2.7-1.2-2.7-2.7v-2.7C24.9,48.6,26.1,47.4,27.6,47.4z"/>
<path id="Rounded_Rectangle_1-31_1_" class="st4" d="M28.6,54.9h2.7c1.5,0,2.7,1.2,2.7,2.7v2.7c0,1.5-1.2,2.7-2.7,2.7h-2.7
	c-1.5,0-2.7-1.2-2.7-2.7v-2.7C25.8,56.2,27,54.9,28.6,54.9z"/>
<path id="Rounded_Rectangle_1-32_1_" class="st2" d="M28.3,65.8h2.7c1.5,0,2.7,1.2,2.7,2.7v2.7c0,1.5-1.2,2.7-2.7,2.7h-2.7
	c-1.5,0-2.7-1.2-2.7-2.7v-2.7C25.5,67.1,26.8,65.8,28.3,65.8z"/>
<path id="Rounded_Rectangle_1-33_1_" class="st1" d="M25.3,20.8H28c1.5,0,2.7,1.2,2.7,2.7v2.7c0,1.5-1.2,2.7-2.7,2.7h-2.7
	c-1.5,0-2.7-1.2-2.7-2.7v-2.7C22.6,22,23.8,20.8,25.3,20.8z"/>
<path id="Rounded_Rectangle_1-34_1_" class="st2" d="M62.9,44.4h2.7c1.5,0,2.7,1.2,2.7,2.7v2.7c0,1.5-1.2,2.7-2.7,2.7h-2.7
	c-1.5,0-2.7-1.2-2.7-2.7v-2.7C60.2,45.6,61.4,44.4,62.9,44.4z"/>
<path id="Rounded_Rectangle_1-35_1_" class="st2" d="M71,27.6h2.7c1.5,0,2.7,1.2,2.7,2.7V33c0,1.5-1.2,2.7-2.7,2.7H71
	c-1.5,0-2.7-1.2-2.7-2.7v-2.7C68.3,28.8,69.5,27.6,71,27.6z"/>
<path id="Rounded_Rectangle_1-36_1_" class="st3" d="M63.5,63.1h2.7c1.5,0,2.7,1.2,2.7,2.7v2.7c0,1.5-1.2,2.7-2.7,2.7h-2.7
	c-1.5,0-2.7-1.2-2.7-2.7v-2.7C60.8,64.3,62,63.1,63.5,63.1z"/>
<path id="Rounded_Rectangle_1-37_1_" class="st3" d="M67.8,57h2.7c1.5,0,2.7,1.2,2.7,2.7v2.7c0,1.5-1.2,2.7-2.7,2.7h-2.7
	c-1.5,0-2.7-1.2-2.7-2.7v-2.7C65.1,58.3,66.3,57,67.8,57z"/>
<path id="Rounded_Rectangle_1-38_1_" class="st3" d="M70,23.2h2.7c1.5,0,2.7,1.2,2.7,2.7v2.7c0,1.5-1.2,2.7-2.7,2.7H70
	c-1.5,0-2.7-1.2-2.7-2.7v-2.7C67.3,24.4,68.5,23.2,70,23.2z"/>
<path id="Rounded_Rectangle_1-39_1_" class="st1" d="M61,56h2.7c1.5,0,2.7,1.2,2.7,2.7v2.7c0,1.5-1.2,2.7-2.7,2.7H61
	c-1.5,0-2.7-1.2-2.7-2.7v-2.7C58.2,57.2,59.5,56,61,56z"/>
<path id="Rounded_Rectangle_1-40_1_" class="st3" d="M68.9,48.9h2.7c1.5,0,2.7,1.2,2.7,2.7v2.7c0,1.5-1.2,2.7-2.7,2.7h-2.7
	c-1.5,0-2.7-1.2-2.7-2.7v-2.7C66.2,50.1,67.4,48.9,68.9,48.9z"/>
<path id="Rounded_Rectangle_1-41_1_" class="st1" d="M64.8,29.3h2.7c1.5,0,2.7,1.2,2.7,2.7v2.7c0,1.5-1.2,2.7-2.7,2.7h-2.7
	c-1.5,0-2.7-1.2-2.7-2.7V32C62.1,30.5,63.3,29.3,64.8,29.3z"/>
<path id="Rounded_Rectangle_1-42_1_" class="st3" d="M31.3,42.5h2.7c1.5,0,2.7,1.2,2.7,2.7v2.7c0,1.5-1.2,2.7-2.7,2.7h-2.7
	c-1.5,0-2.7-1.2-2.7-2.7v-2.7C28.6,43.7,29.8,42.5,31.3,42.5z"/>
<path id="Rounded_Rectangle_1-43_1_" class="st3" d="M24.5,53h2.7c1.5,0,2.7,1.2,2.7,2.7v2.7c0,1.5-1.2,2.7-2.7,2.7h-2.7
	c-1.5,0-2.7-1.2-2.7-2.7v-2.7C21.8,54.2,23,53,24.5,53z"/>
<path id="Rounded_Rectangle_1-44_1_" class="st4" d="M60.6,70.4h2.7c1.5,0,2.7,1.2,2.7,2.7v2.7c0,1.5-1.2,2.7-2.7,2.7h-2.7
	c-1.5,0-2.7-1.2-2.7-2.7v-2.7C57.9,71.6,59.1,70.4,60.6,70.4z"/>
<path id="Rounded_Rectangle_1-45_1_" class="st3" d="M60.4,75.2h2.7c1.5,0,2.7,1.2,2.7,2.7v2.7c0,1.5-1.2,2.7-2.7,2.7h-2.7
	c-1.5,0-2.7-1.2-2.7-2.7v-2.7C57.7,76.4,58.9,75.2,60.4,75.2z"/>
<path id="Rounded_Rectangle_1-46_1_" class="st4" d="M37.6,74.2h2.7c1.5,0,2.7,1.2,2.7,2.7v2.7c0,1.5-1.2,2.7-2.7,2.7h-2.7
	c-1.5,0-2.7-1.2-2.7-2.7v-2.7C34.9,75.4,36.1,74.2,37.6,74.2z"/>
<path id="Rounded_Rectangle_1-47_1_" class="st3" d="M42.6,71.2h2.7c1.5,0,2.7,1.2,2.7,2.7v2.7c0,1.5-1.2,2.7-2.7,2.7h-2.7
	c-1.5,0-2.7-1.2-2.7-2.7v-2.7C39.9,72.4,41.1,71.2,42.6,71.2z"/>
<path class="st5" d="M49,115c-19.6,0-37.1,1.3-48,3.2v26.5c0,5.1,4.2,9.3,9.3,9.3h77.4c5.1,0,9.3-4.2,9.3-9.3v-26.5
	C86.1,116.3,68.6,115,49,115z"/>
<g>
	<path class="st0" d="M21.9,98.1H25c0.5,0,0.9,0.1,1.2,0.2c0.3,0.1,0.6,0.3,0.7,0.5c0.2,0.2,0.3,0.5,0.4,0.7
		c0.1,0.3,0.1,0.5,0.1,0.7c0,0.2,0,0.5-0.1,0.7c-0.1,0.3-0.2,0.5-0.4,0.7c-0.2,0.2-0.4,0.4-0.7,0.5c-0.3,0.1-0.7,0.2-1.2,0.2h-1.9
		v2.7h-1.2V98.1z M23.1,101.5H25c0.1,0,0.3,0,0.4-0.1c0.1,0,0.3-0.1,0.4-0.2c0.1-0.1,0.2-0.2,0.3-0.4c0.1-0.1,0.1-0.3,0.1-0.6
		c0-0.2,0-0.4-0.1-0.6c-0.1-0.2-0.2-0.3-0.3-0.4c-0.1-0.1-0.2-0.2-0.4-0.2c-0.1,0-0.3-0.1-0.5-0.1h-1.9L23.1,101.5L23.1,101.5z"/>
	<path class="st0" d="M30.8,105.4c-0.4,0-0.8-0.1-1.1-0.2s-0.6-0.3-0.8-0.6c-0.2-0.2-0.4-0.5-0.5-0.9c-0.1-0.3-0.2-0.7-0.2-1.1
		c0-0.4,0.1-0.8,0.2-1.1c0.1-0.3,0.3-0.6,0.5-0.9c0.2-0.2,0.5-0.4,0.8-0.6s0.7-0.2,1.1-0.2s0.8,0.1,1.1,0.2c0.3,0.1,0.6,0.3,0.8,0.6
		c0.2,0.2,0.4,0.5,0.5,0.9c0.1,0.3,0.2,0.7,0.2,1.1c0,0.4-0.1,0.8-0.2,1.1c-0.1,0.3-0.3,0.6-0.5,0.9c-0.2,0.2-0.5,0.4-0.8,0.6
		S31.2,105.4,30.8,105.4z M30.8,104.5c0.3,0,0.5-0.1,0.7-0.2c0.2-0.1,0.3-0.2,0.5-0.4c0.1-0.2,0.2-0.4,0.3-0.6
		c0.1-0.2,0.1-0.4,0.1-0.7c0-0.2,0-0.4-0.1-0.7c-0.1-0.2-0.1-0.4-0.3-0.6s-0.3-0.3-0.5-0.4c-0.2-0.1-0.4-0.2-0.7-0.2
		c-0.3,0-0.5,0.1-0.7,0.2c-0.2,0.1-0.3,0.2-0.5,0.4c-0.1,0.2-0.2,0.4-0.3,0.6s-0.1,0.4-0.1,0.7c0,0.2,0,0.4,0.1,0.7
		c0.1,0.2,0.1,0.4,0.3,0.6c0.1,0.2,0.3,0.3,0.5,0.4C30.3,104.5,30.5,104.5,30.8,104.5z"/>
	<path class="st0" d="M33.9,100.1h1.2l1,3.9h0l1-3.9h1.2l0.9,3.9h0l1-3.9h1.2l-1.6,5.2h-1.2l-1-3.8h0l-1,3.8h-1.2L33.9,100.1z"/>
	<path class="st0" d="M43,103c0,0.2,0,0.4,0.1,0.6s0.1,0.4,0.3,0.5c0.1,0.1,0.3,0.3,0.4,0.3c0.2,0.1,0.4,0.1,0.6,0.1
		c0.3,0,0.6-0.1,0.8-0.2c0.2-0.1,0.4-0.4,0.5-0.6h1.1c-0.1,0.3-0.2,0.5-0.3,0.8c-0.1,0.2-0.3,0.4-0.5,0.6s-0.4,0.3-0.7,0.3
		c-0.3,0.1-0.5,0.1-0.8,0.1c-0.4,0-0.8-0.1-1.1-0.2s-0.6-0.3-0.8-0.6c-0.2-0.2-0.4-0.5-0.5-0.9c-0.1-0.3-0.2-0.7-0.2-1.1
		c0-0.4,0.1-0.7,0.2-1c0.1-0.3,0.3-0.6,0.5-0.9c0.2-0.2,0.5-0.4,0.8-0.6s0.7-0.2,1-0.2c0.4,0,0.8,0.1,1.1,0.3
		c0.3,0.2,0.6,0.4,0.8,0.7c0.2,0.3,0.4,0.6,0.5,1s0.1,0.7,0.1,1.1C46.8,103,43,103,43,103z M45.7,102.2c0-0.2-0.1-0.4-0.1-0.5
		c-0.1-0.2-0.2-0.3-0.3-0.4c-0.1-0.1-0.2-0.2-0.4-0.3s-0.3-0.1-0.5-0.1c-0.2,0-0.4,0-0.5,0.1c-0.2,0.1-0.3,0.2-0.4,0.3
		c-0.1,0.1-0.2,0.3-0.3,0.4c-0.1,0.2-0.1,0.3-0.1,0.5L45.7,102.2C45.7,102.2,45.7,102.2,45.7,102.2z"/>
	<path class="st0" d="M47.7,100.1h1.1v1h0c0-0.1,0.1-0.3,0.2-0.4s0.2-0.3,0.4-0.4c0.1-0.1,0.3-0.2,0.5-0.3c0.2-0.1,0.3-0.1,0.5-0.1
		c0.1,0,0.2,0,0.3,0c0.1,0,0.1,0,0.2,0v1.1c-0.1,0-0.2,0-0.2,0c-0.1,0-0.2,0-0.2,0c-0.2,0-0.4,0-0.5,0.1c-0.2,0.1-0.3,0.2-0.4,0.3
		c-0.1,0.1-0.2,0.3-0.3,0.6c-0.1,0.2-0.1,0.5-0.1,0.8v2.5h-1.1C47.7,105.3,47.7,100.1,47.7,100.1z"/>
	<path class="st0" d="M51.9,103c0,0.2,0,0.4,0.1,0.6s0.1,0.4,0.3,0.5c0.1,0.1,0.3,0.3,0.4,0.3c0.2,0.1,0.4,0.1,0.6,0.1
		c0.3,0,0.6-0.1,0.8-0.2c0.2-0.1,0.4-0.4,0.5-0.6h1.1c-0.1,0.3-0.2,0.5-0.3,0.8c-0.1,0.2-0.3,0.4-0.5,0.6s-0.4,0.3-0.7,0.3
		c-0.3,0.1-0.5,0.1-0.8,0.1c-0.4,0-0.8-0.1-1.1-0.2s-0.6-0.3-0.8-0.6c-0.2-0.2-0.4-0.5-0.5-0.9c-0.1-0.3-0.2-0.7-0.2-1.1
		c0-0.4,0.1-0.7,0.2-1c0.1-0.3,0.3-0.6,0.5-0.9c0.2-0.2,0.5-0.4,0.8-0.6s0.7-0.2,1-0.2c0.4,0,0.8,0.1,1.1,0.3
		c0.3,0.2,0.6,0.4,0.8,0.7c0.2,0.3,0.4,0.6,0.5,1s0.1,0.7,0.1,1.1C55.7,103,51.9,103,51.9,103z M54.6,102.2c0-0.2-0.1-0.4-0.1-0.5
		c-0.1-0.2-0.2-0.3-0.3-0.4c-0.1-0.1-0.2-0.2-0.4-0.3s-0.3-0.1-0.5-0.1c-0.2,0-0.4,0-0.5,0.1c-0.2,0.1-0.3,0.2-0.4,0.3
		c-0.1,0.1-0.2,0.3-0.3,0.4c-0.1,0.2-0.1,0.3-0.1,0.5L54.6,102.2C54.6,102.2,54.6,102.2,54.6,102.2z"/>
	<path class="st0" d="M61.4,105.3h-1.1v-0.7h0c-0.2,0.3-0.4,0.5-0.7,0.6c-0.3,0.1-0.6,0.2-0.9,0.2c-0.4,0-0.8-0.1-1.1-0.2
		c-0.3-0.1-0.6-0.3-0.8-0.6c-0.2-0.2-0.4-0.5-0.5-0.9c-0.1-0.3-0.2-0.7-0.2-1.1c0-0.5,0.1-0.9,0.2-1.2s0.3-0.6,0.5-0.8
		c0.2-0.2,0.5-0.4,0.7-0.5c0.3-0.1,0.5-0.2,0.8-0.2c0.2,0,0.3,0,0.5,0c0.2,0,0.3,0.1,0.5,0.1c0.2,0.1,0.3,0.2,0.4,0.3
		c0.1,0.1,0.2,0.2,0.3,0.4h0v-2.6h1.1C61.4,98.1,61.4,105.3,61.4,105.3z M57.5,102.8c0,0.2,0,0.4,0.1,0.6s0.1,0.4,0.3,0.6
		c0.1,0.2,0.3,0.3,0.4,0.4c0.2,0.1,0.4,0.2,0.6,0.2c0.3,0,0.5-0.1,0.7-0.2c0.2-0.1,0.3-0.2,0.5-0.4c0.1-0.2,0.2-0.4,0.3-0.6
		c0.1-0.2,0.1-0.4,0.1-0.7c0-0.6-0.1-1-0.4-1.3c-0.3-0.3-0.6-0.5-1-0.5c-0.3,0-0.5,0.1-0.7,0.2c-0.2,0.1-0.3,0.3-0.4,0.4
		c-0.1,0.2-0.2,0.4-0.2,0.6C57.5,102.3,57.5,102.5,57.5,102.8z"/>
	<path class="st0" d="M65.5,98.1h1.1v2.6h0c0.1-0.1,0.2-0.2,0.3-0.3c0.1-0.1,0.2-0.2,0.4-0.3c0.1-0.1,0.3-0.1,0.4-0.2
		c0.2,0,0.3-0.1,0.4-0.1c0.4,0,0.8,0.1,1.1,0.2c0.3,0.1,0.6,0.3,0.8,0.6c0.2,0.2,0.3,0.5,0.4,0.9c0.1,0.3,0.2,0.7,0.2,1.1
		c0,0.3,0,0.7-0.1,1s-0.2,0.6-0.4,0.9s-0.4,0.5-0.7,0.6c-0.3,0.1-0.6,0.2-1,0.2c-0.2,0-0.3,0-0.5,0s-0.3-0.1-0.5-0.1
		c-0.2-0.1-0.3-0.2-0.4-0.3c-0.1-0.1-0.2-0.2-0.3-0.4h0v0.7h-1.1C65.5,105.3,65.5,98.1,65.5,98.1z M69.5,102.7c0-0.2,0-0.5-0.1-0.7
		c-0.1-0.2-0.1-0.4-0.3-0.6c-0.1-0.2-0.3-0.3-0.5-0.4c-0.2-0.1-0.4-0.2-0.6-0.2c-0.5,0-0.8,0.2-1.1,0.5c-0.2,0.3-0.4,0.8-0.4,1.3
		c0,0.3,0,0.5,0.1,0.7c0.1,0.2,0.2,0.4,0.3,0.6c0.1,0.2,0.3,0.3,0.5,0.4c0.2,0.1,0.4,0.1,0.6,0.1c0.3,0,0.5-0.1,0.7-0.2
		s0.3-0.2,0.4-0.4c0.1-0.2,0.2-0.4,0.2-0.6C69.4,103.2,69.5,102.9,69.5,102.7z"/>
	<path class="st0" d="M71,100.1h1.2l1.3,3.9h0l1.3-3.9h1.2l-2,5.4c-0.1,0.2-0.2,0.5-0.3,0.7c-0.1,0.2-0.2,0.4-0.3,0.6
		c-0.1,0.2-0.3,0.3-0.5,0.4s-0.4,0.1-0.7,0.1c-0.3,0-0.5,0-0.8-0.1v-1c0.1,0,0.2,0,0.3,0c0.1,0,0.2,0,0.3,0c0.1,0,0.2,0,0.3-0.1
		c0.1,0,0.2-0.1,0.2-0.1c0.1-0.1,0.1-0.1,0.1-0.2c0-0.1,0.1-0.2,0.1-0.3l0.1-0.4L71,100.1z"/>
</g>
<g>
	<path class="st6" d="M24.9,139.9c-1,0.8-2.3,1.3-4,1.3c-1.7,0-3.1-0.4-4-1.3c-1-0.8-1.4-2.1-1.4-3.9v-8h2.8v8c0,0.3,0,0.7,0.1,1
		c0.1,0.3,0.2,0.6,0.4,0.9c0.2,0.3,0.5,0.5,0.8,0.6s0.8,0.2,1.4,0.2c1,0,1.7-0.2,2.1-0.7c0.4-0.4,0.6-1.2,0.6-2.1v-8h2.8v8
		C26.4,137.7,25.9,139,24.9,139.9z"/>
	<path class="st6" d="M30.9,131.5v1.3H31c0.3-0.5,0.7-0.9,1.3-1.2c0.5-0.2,1-0.4,1.6-0.4c0.7,0,1.2,0.1,1.7,0.3
		c0.4,0.2,0.8,0.4,1,0.8s0.4,0.7,0.5,1.2s0.2,1,0.2,1.6v5.7h-2.6v-5.3c0-0.8-0.1-1.3-0.4-1.7s-0.7-0.6-1.3-0.6
		c-0.7,0-1.2,0.2-1.5,0.6c-0.3,0.4-0.5,1.1-0.5,2v4.9h-2.6v-9.3H30.9z"/>
	<path class="st6" d="M39.3,130.1V128h2.6v2.1H39.3z M41.8,131.5v9.3h-2.6v-9.3H41.8z"/>
	<path class="st6" d="M46.6,128v6.9l3.2-3.3h3l-3.5,3.4l3.9,5.9h-3.1l-2.6-4.2l-1,1v3.2h-2.6V128H46.6z"/>
	<path class="st6" d="M56.6,131.5v1.7h0c0.1-0.3,0.3-0.6,0.5-0.8s0.4-0.5,0.7-0.6s0.5-0.3,0.8-0.4c0.3-0.1,0.6-0.1,0.9-0.1
		c0.2,0,0.4,0,0.6,0.1v2.4c-0.1,0-0.3,0-0.4-0.1c-0.2,0-0.3,0-0.5,0c-0.5,0-0.9,0.1-1.2,0.2c-0.3,0.2-0.6,0.4-0.8,0.6
		s-0.3,0.6-0.4,0.9c-0.1,0.4-0.1,0.8-0.1,1.2v4.2h-2.6v-9.3H56.6z"/>
	<path class="st6" d="M61.1,134.4c0-0.6,0.2-1.1,0.5-1.5c0.3-0.4,0.6-0.7,1-1c0.4-0.2,0.9-0.4,1.4-0.5c0.5-0.1,1-0.2,1.5-0.2
		c0.5,0,0.9,0,1.4,0.1c0.5,0.1,0.9,0.2,1.3,0.4c0.4,0.2,0.7,0.5,1,0.8s0.4,0.8,0.4,1.4v4.8c0,0.4,0,0.8,0.1,1.2
		c0,0.4,0.1,0.7,0.3,0.9h-2.6c0-0.1-0.1-0.3-0.1-0.4c0-0.1-0.1-0.3-0.1-0.5c-0.4,0.4-0.9,0.7-1.4,0.9c-0.6,0.2-1.1,0.3-1.7,0.3
		c-0.4,0-0.9-0.1-1.2-0.2c-0.4-0.1-0.7-0.3-1-0.5c-0.3-0.2-0.5-0.5-0.7-0.9s-0.2-0.8-0.2-1.2c0-0.5,0.1-1,0.3-1.3
		c0.2-0.3,0.4-0.6,0.7-0.8c0.3-0.2,0.6-0.4,1-0.5c0.4-0.1,0.8-0.2,1.1-0.2c0.4-0.1,0.8-0.1,1.1-0.1c0.4,0,0.7-0.1,1-0.2
		c0.3-0.1,0.5-0.2,0.7-0.3s0.2-0.3,0.2-0.6c0-0.3,0-0.5-0.1-0.7s-0.2-0.3-0.4-0.4c-0.2-0.1-0.3-0.1-0.5-0.2c-0.2,0-0.4,0-0.6,0
		c-0.5,0-0.9,0.1-1.2,0.3c-0.3,0.2-0.5,0.6-0.5,1.1H61.1z M67,136.3c-0.1,0.1-0.2,0.2-0.4,0.2c-0.2,0.1-0.3,0.1-0.5,0.1
		c-0.2,0-0.4,0.1-0.6,0.1c-0.2,0-0.4,0.1-0.6,0.1c-0.2,0-0.4,0.1-0.6,0.1c-0.2,0.1-0.3,0.1-0.5,0.2s-0.2,0.2-0.3,0.4
		c-0.1,0.2-0.1,0.4-0.1,0.6c0,0.2,0,0.4,0.1,0.6s0.2,0.3,0.3,0.4c0.1,0.1,0.3,0.2,0.5,0.2c0.2,0,0.4,0.1,0.6,0.1
		c0.5,0,0.9-0.1,1.2-0.3c0.3-0.2,0.5-0.4,0.6-0.6c0.1-0.2,0.2-0.5,0.2-0.7c0-0.2,0-0.4,0-0.6V136.3z"/>
	<path class="st6" d="M70.5,133.3v-1.7h1.5v-0.7c0-0.8,0.3-1.5,0.8-2c0.5-0.5,1.3-0.8,2.3-0.8c0.2,0,0.5,0,0.7,0c0.2,0,0.5,0,0.7,0
		v1.9c-0.3,0-0.6-0.1-0.9-0.1c-0.3,0-0.6,0.1-0.7,0.2c-0.1,0.2-0.2,0.4-0.2,0.8v0.6h1.8v1.7h-1.8v7.6h-2.6v-7.6H70.5z"/>
	<path class="st6" d="M82.6,131.5v1.7h-1.9v4.6c0,0.4,0.1,0.7,0.2,0.9c0.1,0.1,0.4,0.2,0.9,0.2c0.1,0,0.3,0,0.4,0
		c0.1,0,0.3,0,0.4-0.1v2c-0.2,0-0.5,0.1-0.7,0.1c-0.3,0-0.5,0-0.8,0c-0.4,0-0.8,0-1.1-0.1c-0.4-0.1-0.7-0.2-0.9-0.3
		c-0.3-0.2-0.5-0.4-0.6-0.7c-0.2-0.3-0.2-0.7-0.2-1.1v-5.5h-1.5v-1.7h1.5v-2.8h2.6v2.8H82.6z"/>
</g>
</svg>
