<?xml version="1.0" encoding="utf-8"?>
<!-- Generator: Adobe Illustrator 26.0.1, SVG Export Plug-In . SVG Version: 6.00 Build 0)  -->
<svg version="1.1" id="Layer_1" xmlns="http://www.w3.org/2000/svg" xmlns:xlink="http://www.w3.org/1999/xlink" x="0px" y="0px"
	 viewBox="0 0 384 376.6" style="enable-background:new 0 0 384 376.6;" xml:space="preserve">
<path fill="#fff" d="M384,160.6c-0.4,1-0.8,2-1.1,3.1c-3.4,10.9-12.9,18-24.7,18.5c-1.9,0.1-3.7,0-5.6,0c-2.3,15,2.8,30.5-4.2,45.5
	c3.3,4.1,3.8,9.6,3.7,15.3c-0.1,7.6,0.1,15.3-0.1,22.9c-0.1,4.8-3.1,7.8-7.3,7.9c-4.3,0.1-7.4-3.1-7.7-8c-0.1-1,0-2,0-3
	c0-7.1,0-14.2,0-21.4c0-5.7-1.1-6.8-6.8-6.9c-9,0-18,0-27,0c-1.1,0-2.2,0.1-3.7,0.2c0.6,9.8-1.3,18.6-9,25.2
	c-4.8,4.1-10.4,6.3-16.8,6.3c-8.3,0-15-3.3-20.3-9.6c-5.3-6.3-6.2-13.9-6-22.1c-11.3,0-22.3-0.1-33.2,0c-2.7,0-4.1,2-4.1,4.5
	c-0.1,10.8,0,21.7,0,33.1c10.5-0.9,19.6,1.4,26.3,9.8c3.9,4.9,5.7,10.5,5.6,16.7c-0.1,5.2-1.3,10.4-4.9,14.2
	c-3.3,3.6-7.2,7.1-11.6,9c-4.5,2-9.9,1.9-15.4,2.8c0,5.6,0,11.7,0,17.8c0,4,0,8,0,12c0,5.2,1.5,6.6,6.7,6.6c20.1,0,40.2,0,60.4,0
	c17.5,0,35,0,52.5,0c6.3,0,7.3-1.1,7.4-7.5c0-6.6-0.1-13.3,0.1-19.9c0.1-3.4,1.8-5.9,5.2-7c3-0.9,5.9-0.3,7.7,2.2
	c1.1,1.6,1.8,3.9,1.9,5.9c0.2,7,0.2,14,0.1,21c-0.2,12.1-8.3,20.1-20.4,20.2c-14,0.1-28,0-42,0c-24,0-48,0.2-72-0.1
	c-4.4-0.1-8.9-2-13.3-2.9c-1-0.2-2.2-0.1-3.3,0.2c-3.9,0.9-7.9,2.9-11.8,2.9c-38.4,0.2-76.7,0.1-115.1,0.1
	c-12.8,0-20.9-8.1-20.9-20.8c0-38.4,0-76.7,0-115.1c0-12.7,8.1-20.8,20.9-20.8c12.5,0,25,0,37.5,0c6.4,0,9,2.7,9.1,9.2
	c0,3.9-0.1,7.8,0,11.6c0.2,6.3,4.9,10.9,11,10.9c6.1,0,10.7-4.6,10.9-11c0.1-4.2-0.1-8.5,0.1-12.7c0.2-4.7,2.9-7.9,7.3-7.9
	c15.1-0.1,30.2,0,45.2,0c0-13.2,0-26.8,0-40.4c0-1.4-0.1-2.8,0-4.1c0.3-5,3.1-7.9,8.1-8c4.1-0.1,8.2,0,12.4,0
	c6.5-0.1,11.5-4.8,11.5-10.9c0.1-6.1-4.8-10.8-11.4-11c-4-0.1-8,0-12,0c-5.6-0.1-8.6-3-8.6-8.7c-0.1-13.1-0.2-26.3,0-39.4
	c0.2-11.4,8.5-19.6,19.9-19.6c39-0.1,78-0.1,117,0c11.8,0,19.8,7.9,20,19.7c0.2,9.4,0,18.7,0.1,28.1c0,1.3,0,2.7,0,4.5
	c2.3,0,4.1-0.1,6,0c12.6,0.5,21.7,7.7,25.2,19.8c0.2,0.6,0.5,1.1,0.8,1.6C384,154.6,384,157.6,384,160.6z M210.3,182.3
	c-0.1,1.7-0.2,2.9-0.2,4.1c0,8.6,0,17.3,0,25.9c0,6,1.2,7.3,7.2,7.3c12.2,0,24.5,0,36.7,0c5.8,0,8.5,2.7,8.5,8.5
	c0,3.9-0.1,7.8,0,11.6c0.1,6.7,4.7,11.5,10.8,11.6c6.3,0.1,11-4.6,11.2-11.5c0.1-3.4,0-6.7,0-10.1c0-7.8,2.3-10.1,10-10.1
	c11.7,0,23.5,0,35.2,0c6.1,0,7.2-1.1,7.2-7.2c0-12,0-24,0-36c0-6.6,2.6-9.1,9.1-9.1c3.7,0,7.5,0.1,11.2,0
	c6.7-0.2,11.4-4.8,11.5-10.9c0.1-6.1-4.6-10.8-11.3-11.1c-3.5-0.2-7,0-10.5-0.1c-7.7,0-10.1-2.4-10.1-10.1c0-12.1,0-24.3,0-36.4
	c0-4.6-1.3-5.9-5.8-5.9c-38.4,0-76.7,0-115.1,0c-4.6,0-6,1.5-6,6.1c0,9.5,0,19,0,28.5c0,0.9,0.2,1.9,0.3,3.1
	c7.9-0.6,15.3,0.4,21.5,5.3c6.3,5,9.7,11.7,10.1,19.7c0.3,6.5-1.8,12.3-6,17.3C229.4,180.9,220.5,183.1,210.3,182.3z M105.8,234.8
	c-10.7,0-20.8,0-30.9,0c-5.4,0-6.6,1.2-6.6,6.6c0,37.9,0,75.7,0,113.6c0,5.4,1.2,6.6,6.6,6.6c37.9,0,75.7,0,113.6,0
	c5.4,0,6.7-1.2,6.7-6.5c0-12.4,0-24.7,0-37.1c0-5.9,2.9-8.7,8.8-8.8c4-0.1,8,0.1,12,0c6.3-0.1,11.1-4.8,11.2-10.8
	c0.1-5.9-4.7-10.8-10.9-11c-3.9-0.1-7.7,0-11.6,0c-6.6,0-9.4-2.8-9.4-9.3c0-10.9,0-21.7,0-32.6c0-10.5,0-10.5-10.5-10.5
	c-8.8,0-17.7,0-26.1,0c-1,5.6-1.4,10.8-2.9,15.7c-1.6,5.1-5.3,9-9.8,11.9c-4.5,2.9-9.5,4.2-14.9,4.1c-6.5-0.2-12.2-2.6-16.9-7
	C106.9,253,105.1,244.5,105.8,234.8z"/>
<path fill="#fff" d="M0,15c0.4-0.9,0.9-1.7,1.3-2.6c3.4-7.9,9.4-12.3,18-12.4C58.6,0,98,0,137.4,0.1c11,0,19.3,8.5,19.4,19.6
	c0.1,10.7,0,21.5,0,32.8c10.9-0.7,20.5,1.7,27.1,11c3.5,4.9,5.1,10.3,4.7,16.2c-0.5,7.9-3.8,14.4-10.1,19.3
	c-4.7,3.7-6.6,4.1-21.8,5.7c0,1.3,0,2.6,0,3.9c0,9.2,0,18.5,0,27.7c-0.1,12.3-8.3,20.5-20.4,20.5c-10.2,0-20.5,0-30.7,0
	c-0.2,0-0.5,0.1-1.3,0.3c0.7,10.4-1.6,19.9-10.7,26.5c-5,3.7-10.7,5.2-16.9,4.8c-8-0.5-14.3-4.1-19.1-10.3
	c-4.8-6.2-5.5-13.4-5.1-21.4c-5.3,0-10.3,0-15.2,0c-5.5,0-11,0-16.5,0c-10,0-16.5-4.5-20-13.8c-0.2-0.4-0.5-0.8-0.8-1.2
	C0,99.5,0,57.3,0,15z M15,78.1c0,19.1,0,38.2,0,57.4c0,5.1,1.2,6.4,6.4,6.4c12.1,0,24.2,0,36.4,0c7,0,9.6,2.6,9.6,9.4
	c0,3.9-0.1,7.8,0,11.6c0.2,6.1,4.9,10.7,10.8,10.7c6.1,0.1,10.9-4.6,11.1-10.8c0.1-3.9,0-7.7,0-11.6c0-6.6,2.7-9.3,9.4-9.3
	c12.2,0,24.5,0,36.7,0c5.1,0,6.4-1.3,6.4-6.5c0-12.4,0-24.7,0-37.1c0-5.9,2.9-8.8,8.7-8.8c4-0.1,8,0,12,0
	c6.3-0.1,11.1-4.8,11.2-10.8c0.1-6.1-4.8-10.9-11.3-11.1c-3.6-0.1-7.2,0-10.9,0c-7.2,0-9.8-2.6-9.8-9.7c0-12.1,0-24.2,0-36.4
	c0-5.1-1.3-6.4-6.4-6.4c-38,0-76,0-114,0c-5.1,0-6.4,1.3-6.4,6.4C15,40.3,15,59.2,15,78.1z"/>
<path fill="#fff" d="M344.5,307.7c-4.1-0.1-7.3-3.3-7.3-7.4c0-4.1,3.3-7.4,7.4-7.4c4.2,0,7.6,3.4,7.5,7.7C351.9,304.6,348.6,307.8,344.5,307.7z"
	/>
<path fill="#fff" d="M76.1,82.4c6.5-8.5,12.8-16.8,19.4-25c1.3-1.7,3.2-3.3,5.2-3.9c3.1-1,6,0.1,7.8,2.9c2,3,1.7,6.2-0.5,9.1
	c-5.1,6.8-10.3,13.5-15.5,20.2c-3,4-6,8-9.2,11.9c-3.2,4-7.6,4.5-11.5,1.2c-5.1-4.4-10.2-8.8-15.2-13.4c-3.3-3-3.5-7.2-0.9-10.4
	c2.8-3.3,7-3.7,10.7-0.8C69.8,76.7,72.8,79.5,76.1,82.4z"/>
</svg>
