<?xml version="1.0" encoding="UTF-8"?>
<svg version="1.1" id="Layer_1" xmlns="http://www.w3.org/2000/svg" xmlns:xlink="http://www.w3.org/1999/xlink" x="0px" y="0px" viewBox="0 0 841.9 270" width="420" height="135" xml:space="preserve" preserveAspectRatio="xMinYMid meet">
<style type="text/css">
	.st0{fill:#B0B7BC;}
	.st1{fill:#B5121B;}
	.st2{fill:#FFFFFF;}
</style>
<path class="st0" d="M833,90.3v19c0,35.4-17.4,113.6-102.6,155.3C645.1,223,627.7,144.7,627.7,109.3v-19H833z"/>
<path class="st1" d="M730.4,4.8c0,0,67-1,102.6,13.1v72.4H627.7V17.9C663.4,3.9,730.4,4.8,730.4,4.8"/>
<path class="st2" d="M650,26c-0.2,0-0.4,0.1-0.5,0.1c0.1-0.2,0.3-0.4,0.6-0.6c0.4-0.4,1-0.7,1.8-0.7c0.6,0,1.4,0.2,2.3,0.9  c-0.1,0.1-0.3,0.2-0.4,0.3c-0.3,0.2-0.5,0.4-0.7,0.7c-0.3-0.3-1-0.7-2.1-0.7C650.6,25.9,650.3,25.9,650,26z M652.1,32.2  c-0.5-0.2-1-0.2-1.4-0.2c-1.1,0-1.8,0.5-2.2,1.1c-0.3,0.4-0.5,0.8-0.6,1.2c0.1-0.1,0.3-0.2,0.4-0.3c0.8-0.5,1.5-0.6,2.1-0.6  c0.4,0,0.7,0.1,0.9,0.1C651.6,32.8,652,32.4,652.1,32.2C652.1,32.3,652.1,32.3,652.1,32.2z M652.8,28.7c-0.1,0.1-0.1,0.2-0.1,0.2v0  l0,0l0,0l0,0.1c0,0.1-0.1,0.2-0.1,0.4c0,0.3,0.1,0.6,0.6,0.9c0.6,0.3,1.7,1.1,2.6,1.7c0.3-0.9,0.8-1.6,1.5-2.3l-1.4-2.7l0,0l0,0  l0-0.1l-0.1-0.2c-0.1-0.1-0.3-0.2-0.5-0.2c-0.2,0-0.4,0.1-0.7,0.3C653.7,27.5,653.1,28.3,652.8,28.7z M657.9,75.1  c-0.3,0.6-0.4,1.3-0.4,1.8c0,0,0,0.1,0,0.1c0-0.1,0.1-0.2,0.2-0.3c0.5-1,1.4-1.5,2-1.8c-0.1-0.4-0.2-0.9-0.3-1.3  C658.7,74,658.2,74.5,657.9,75.1z M660.6,42.7c1.3,1.1,2.1,1.4,2.5,1.4c0.3,0,0.5-0.1,0.7-0.4c0.1-0.2,0.3-0.4,0.5-0.7  c0.2-0.3,0.2-0.6,0.2-0.9c0-0.6-0.2-1.3-0.4-1.6v0c-0.1-0.3-3.1-7.1-3.9-9.8c-0.1-0.4-0.1-0.8-0.2-1l-0.1-0.1c0,0-0.1,0-0.2,0  c-0.2,0-0.5,0.1-0.8,0.3c-1.8,1.1-2.5,2.7-2.5,4.5C656.5,37.6,658.9,41.4,660.6,42.7z M655.4,33.7c0-0.1,0-0.2,0-0.4  c0-0.2-1.1-0.6-1.2-0.6c-0.4-0.1-0.9-0.1-1.3,0.3c-0.3,0.4-0.9,1.3-0.9,2.1c0,0.3,0.1,0.6,0.3,0.8c0.2,0.2,0.5,0.4,1,0.6  c0.9,0.3,1.8,0.5,2.6,0.8c-0.3-1-0.5-2-0.5-3C655.4,34.1,655.4,33.9,655.4,33.7z M660.1,22.6c0.1,0,0.2,0,0.3,0  c0.5,0,0.9,0.2,1.2,0.3c-0.1-1.3-0.6-2-1.2-2.5c-0.6-0.5-1.3-0.6-1.9-0.6c-0.1,0-0.3,0-0.4,0c0.1,0.1,0.3,0.2,0.4,0.3  C659.7,21.1,660,22.1,660.1,22.6z M657.5,26.3c0.1,0.4,0.2,0.9,0.4,1.3c0,0.1,0.5,1.3,0.4,1.3c0.1,0,0.1-0.1,0.2-0.1c0,0,0,0,0,0  c0.4-0.2,0.9-0.4,1.3-0.4c0.2,0,0.4,0,0.6,0.1c0.1-0.4,0.3-0.8,0.5-1.3c0.2-0.6,0.4-1.1,0.4-1.4c0-0.2,0-0.4,0-0.7  c0-0.3,0-0.7-0.2-0.9c-0.1-0.2-0.3-0.4-0.8-0.4c-0.2,0-0.4,0-0.6,0.1c-0.7,0.2-1.7,0.4-2.1,1.1C657.3,25.4,657.4,25.8,657.5,26.3  L657.5,26.3z M669.6,27.6c0.7-0.9,0.9-1.7,0.9-2.3c0-0.7-0.3-1.3-0.7-1.8c-0.2-0.3-0.5-0.5-0.6-0.6c0,0.1,0.1,0.3,0.1,0.5  c0.1,0.3,0.1,0.6,0.1,0.9c0,1.1-0.5,1.8-0.7,2.1C669,26.8,669.3,27.2,669.6,27.6z M692.7,23L692.7,23c0-0.4,0.3-0.9,0.5-1.2  c0.3-0.4,0.8-0.9,0.6-1.4c-0.1-0.3-0.5-0.5-0.5-0.9c0-0.2,0.1-0.4,0.3-0.5c0.2-0.2,0.5-0.3,0.8-0.4c0.9-0.3,3.7-1.3,3.7-1.3  c0.3-0.3,0.4-0.5,0.7-0.8c0.3-0.3,0.9-0.6,2.1-0.8c2.9-0.6,10.9-1.1,11.6-1.2c0.2,0,0.5,0.1,0.9,0.4c0.5,0.4,1,1,1.4,1.5  c0.2,0.2,0.4,0.5,0.5,0.6c0.1,0.2,0.2,0.3,0.2,0.3l0.1,0.2l0.1-0.1c0,0,0.1-0.1,0.3-0.1c0.2,0,0.4-0.1,0.6-0.1c0.3,0,0.7,0.1,1,0.3  c0.3,0.2,0.6,0.6,0.8,1.3c0.1,0.3,0.1,0.7,0.1,1c0,1.9-1.3,3.8-2.2,4.8l-0.1,0.1l0.1,0.1c3,4.4,3.5,8.4,3.5,9.7  c-0.4-0.5-0.9-1.4-0.9-1.4c0,0-0.1-0.1-0.2-0.3c-0.1-0.1-0.3-0.3-0.5-0.4c-0.1,0-0.1,0-0.2,0c-0.1,0-0.3,0-0.4,0.2  c-0.1,0.1-0.2,0.3-0.2,0.4c0,0.2,0,0.4,0.1,0.6c1.3,3.8,1.5,7.8,1.5,10c0,0.1,0,0.1,0,0.2c-0.5-0.8-1.3-2.1-1.3-2.1  c-0.2-0.4-0.5-0.6-0.8-0.6c-0.2,0-0.3,0.1-0.4,0.2c-0.1,0.1-0.1,0.3-0.1,0.4c0,0.1,0,0.2,0.1,0.3c0.7,1.8,0.9,3.5,0.9,5  c0,2.1-0.4,3.8-0.9,5.1c-0.2,0.6-0.4,1.1-0.6,1.5c0,0.1-0.1,0.2-0.1,0.3c-0.1-0.2-0.2-0.4-0.4-0.7c-0.3-0.5-0.7-1.2-0.9-1.7  c-0.1-0.2-0.2-0.4-0.3-0.6c-0.1-0.1-0.3-0.2-0.4-0.2c-0.2,0-0.3,0.1-0.4,0.2c-0.1,0.1-0.1,0.3-0.1,0.5c0,0.1,0,0.2,0,0.2  c0,0.4,0,0.8,0,1.1c0,3.5-1.4,6-2.8,7.5c-0.7,0.8-1.4,1.4-1.9,1.7c-0.2,0.2-0.4,0.3-0.6,0.4c0-0.9,0-3.8,0-5c0-0.2-0.1-0.4-0.2-0.6  c-0.1-0.1-0.2-0.3-0.4-0.3c-0.1,0-0.2,0-0.3,0.1c-0.1,0.1-0.2,0.2-0.2,0.3c-1,2.3-2,3.6-2.9,4.4c-0.9,0.7-1.6,0.9-2.2,0.9  c-0.3,0-0.5,0-0.6-0.1c0.1-0.2,0.3-0.5,0.5-0.9c0.3-0.7,0.6-1.5,0.6-2.3c0-0.6-0.2-1.1-0.6-1.5c-0.4-0.4-1.1-0.6-2.2-0.6  c-0.3,0-0.6,0-1,0.1c-2.4,0.3-5.7,1.8-8.5,3.2c-2.3,1.2-4.3,2.4-4.8,2.7c-0.6-1.2-0.8-2.2-0.8-3.2c0-1.4,0.4-2.5,0.9-3.3  c0.2-0.4,0.4-0.7,0.6-0.9c0.1-0.1,0.1-0.2,0.2-0.2l0.1-0.1c0,0,0.1-0.1,0.2-0.2c0.1-0.1,0.2-0.3,0.2-0.5c0-0.1-0.1-0.3-0.2-0.4  c-0.1-0.1-0.3-0.1-0.5-0.1c-1.2,0.1-2.1,0.5-2.8,1c-0.5,0.3-0.8,0.6-1.1,0.9c0.2-3.8,1.5-6.2,3-7.8c1.5-1.6,3.1-2.3,3.5-2.4  c0.3-0.1,0.5-0.2,0.6-0.4c0.1-0.1,0.2-0.3,0.2-0.4c0-0.1,0-0.2,0-0.2c0-0.1-0.1-0.2-0.2-0.3c-0.2-0.2-0.6-0.2-0.6-0.2  c0,0-0.9-0.2-1.7-0.4c-0.4-0.1-0.9-0.2-1.2-0.3c-0.1,0-0.2-0.1-0.3-0.1c2.5-3.1,6.1-3.6,8-3.6c0.4,0,0.8,0,1,0c0.1,0,0.2,0,0.3,0  c0.1,0,0.1,0,0.1,0c0.1,0,0.3,0,0.4,0c0.3,0,0.5-0.1,0.7-0.2c0.2-0.1,0.3-0.3,0.3-0.5c0-0.2-0.1-0.4-0.2-0.4  c-0.1-0.1-0.2-0.1-0.2-0.1c0,0-0.1,0-0.1,0c-0.1-0.1-0.5-0.3-1.4-0.8c-0.3-0.2-0.5-0.3-0.6-0.4c-0.1-0.1-0.1-0.2-0.1-0.2l0-0.1  c0.2,0,0.6,0,1,0.1c0.6,0,1.3,0.1,1.5,0.2c0.9,0.3,1.7,0.5,2.4,0.5c1.3,0,2.3-0.5,2.9-1.2c0.6-0.6,1-1.3,1.2-1.7  c0.2-0.3,0.3-0.6,0.3-0.9c0-0.6-0.3-1-0.8-1.1c-0.3-0.1-0.7-0.2-1.3-0.2c-0.6,0-1.3,0.1-1.9,0.7c-0.4,0.4-0.7,0.5-0.9,0.5  c-0.1,0-0.2,0-0.3-0.1l-0.1,0c0,0-1.2-1.1-1.2-1.1c-0.5-0.1-0.8-0.3-1-0.4c-0.2-0.1-0.2-0.2-0.2-0.2l0.1-0.1c0,0,0.1-0.1,0.2-0.1  c0.7-0.4,1-0.5,1.6-0.5c0.6,0,1.4,0.1,2.8,0.1c0.2,0,0.5,0,0.8,0c1.1,0,1.7-0.4,2.1-0.9c0.4-0.5,0.5-1.1,0.5-1.6  c0-0.7-0.2-1.2-0.2-1.2c0,0-0.7-2.1-2.2-4.4c-0.4-0.7-1-0.9-1.5-0.9c-0.8,0-1.6,0.5-2.2,0.9c-0.6,0.4-1,0.9-1,0.9  c-0.5,0.5-1,0.6-1.5,0.6c-0.5,0-1-0.2-1.4-0.6C693,24,692.8,23.5,692.7,23z M700.4,18.9c0.4,0.2,0.8,0.4,1.1,0.6  c0,0,0.1,0.1,0.1,0.1l0.1-0.1c0,0,0.4-0.4,0.9-0.8c0.2-0.2,1-0.7,0.9-1c-0.1-0.5-2.3,0.1-2.6,0.2c-0.3,0.1-0.6,0.2-0.7,0.3  c-0.1,0-0.2,0.1-0.2,0.1l-0.1,0.1C699.5,18.8,700.3,18.9,700.4,18.9z M661.4,30.4c0.5,2,2.4,6.4,3.3,8.5c0.3,0.7,0.5,1.1,0.5,1.1  c0,0,0.5,1,0.5,2.1c0,0.5-0.1,1.1-0.4,1.6c-0.4,0.7-0.8,1.1-0.8,1.2l0,0l0,0h0l0,0l0,0.1c0,0-0.1,0.1-0.1,0.2  c-0.1,0.2-0.2,0.5-0.2,0.8c0,0.3,0.1,0.8,0.4,1.3c0,0,0.4,0.6,0.8,1.3c0.4,0.7,0.9,1.5,1.2,1.9c0.1,0.1,0.2,0.3,0.3,0.4  c0.1,0.1,0.2,0.2,0.2,0.2l0-0.1c0-0.1,0.1-0.3,0.1-0.7c0-0.1,0-0.1,0-0.2V50c0-0.4,0-1,0.1-1.4c0-0.4,0.3-0.6,0.6-0.6  c0.2,0,0.5,0.2,0.6,0.5c0.1,0.3,0.2,0.9,0.4,1.5v0c0,0,0,0.1,0.1,0.2c0,0.1,0.1,0.3,0.2,0.5c0.2,0.4,0.5,1,0.9,1.6  c0.7,1.2,1.9,2.4,3.4,3.1c0-0.2,0-0.4,0-0.5c0-0.8,0-1.3,0-1.5c0,0,0-0.1,0-0.2c0-0.1,0-0.2,0-0.3c0-0.1,0.2-0.2,0.3-0.2h0h0l0,0  c0.1,0,0.2,0.1,0.3,0.1c0.1,0.1,0.2,0.1,0.2,0.2c0.1,0.1,0.1,0.2,0.2,0.2h0l0.1,0.1c0,0,0.1,0.1,0.2,0.3c0.1,0.2,0.4,0.5,0.6,0.9  c0.5,0.8,1.3,1.8,2.2,2.8c1.7,1.9,3.8,3.7,5.7,4.1c-0.1-0.5-0.2-1.1-0.2-1.6c0-1.1,0.2-2.1,0.6-3.1c-0.2,0.2-0.4,0.3-0.6,0.4  l-2.7,2.3l0.1-3.5c0.2-3.6,1.3-6.5,3.4-8.8c0.7-0.7,1.4-1.3,2.2-1.8c-0.3-0.1-0.6-0.1-0.8-0.2c-0.1,0-0.3-0.1-0.4-0.1l-0.8-0.2  c-4.7-0.7-11.5-2.7-17.9-8.8c-0.8-0.7-1.6-1.9-1.6-3.3c0-0.7,0.2-1.4,0.8-2.1c0.5-0.7,1.4-1.3,2.7-1.7l0,0h0l0,0l0.1,0l0.2-0.1  c0.1-0.1,0.2-0.2,0.2-0.3c0-0.2-0.2-0.7-1-1.3c-1-0.8-1.8-1.4-2.3-1.8c-0.5-0.4-0.7-0.5-0.7-0.5l0,0l0,0l0,0c-0.1,0-0.3,0-0.6,0.4  c-0.6,0.6-2.6,2.2-2.6,4.3C661.3,29.7,661.3,30,661.4,30.4z M668.6,66L668.6,66l0-0.2c0-0.2-0.1-0.5-0.5-0.8  c-0.4-0.3-0.8-0.6-1.1-0.9c-0.3-0.2-0.4-0.4-0.5-0.4l0,0c0,0-0.1,0-0.2,0c-0.1,0-0.3,0-0.6,0.2c-0.1,0-0.1,0.1-0.3,0.1  c-0.1,0.1-0.3,0.2-0.5,0.3c-0.4,0.2-0.9,0.5-1.4,0.9c0.1,0.1,0.2,0.2,0.3,0.3c0.6,0.7,1.6,1.6,2.8,2.2c0.5,0.2,1.1,0.4,1.6,0.5  c0-0.2-0.1-0.5-0.1-0.7C668.3,66.7,668.6,66,668.6,66L668.6,66z M660.3,65.6c-1,0-1.7,0.4-2.2,0.8c-0.3,0.2-0.5,0.5-0.7,0.7  c0.1,0,0.2-0.1,0.3-0.1c0.5-0.2,1-0.3,1.5-0.3c0.4,0,0.8,0.1,1.1,0.2c0.2-0.4,0.5-0.8,0.9-1.1C660.9,65.7,660.6,65.6,660.3,65.6z   M666.8,60.4c-0.6-0.4-1.2-0.5-1.7-0.6c0.1,0.1,0.2,0.1,0.3,0.2c1.2,0.9,1.5,1.9,1.5,2.5c0.1,0,0.1,0,0.2,0.1l0.1,0l0,0l0.1,0.1l0,0  c0,0,0.6,0.5,1.2,1C668.4,61.9,667.6,61,666.8,60.4z M792,69.3L792,69.3c0.3-0.1,0.5-0.4,0.8-0.7c0.1-0.1,0.2-0.2,0.4-0.3  c-0.6-0.3-1.2-0.4-1.7-0.4c-0.9,0-1.6,0.4-2.2,0.8c-0.3,0.2-0.5,0.4-0.7,0.6c0.1,0,0.2-0.1,0.3-0.1c0.5-0.2,1-0.3,1.4-0.3  C791.1,68.9,791.7,69.2,792,69.3L792,69.3z M791.8,71.9c0,0.7,0.5,1.5,0.9,2c0.3,0.4,0.8,0.5,1.3,0.6c0.5,0.1,1,0.2,1.5,0.2  c0.4,0,1.5-0.2,1.1-0.8c-0.2-0.3-0.5-0.5-0.7-0.9c-0.2-0.4-0.4-0.8-0.5-1.2c-0.2-0.6-0.3-1.2-0.4-1.8c0-0.2-0.1-0.4-0.2-0.6  c-0.1-0.2-0.3-0.3-0.5-0.3c-0.1,0-0.3,0.1-0.6,0.4c-1,1-1.2,1.2-1.5,1.6C791.8,71.3,791.8,71.6,791.8,71.9z M787.3,77.5  c-0.4,0.7-0.5,1.5-0.5,2v0.1c0.1-0.1,0.1-0.2,0.2-0.3c0.8-1.4,1.8-1.8,2.3-1.9c0-0.2-0.1-0.4-0.1-0.6c0-0.3,0-0.5,0.1-0.8  c0,0,0,0,0-0.1C788.3,76.3,787.7,76.9,787.3,77.5z M734,67.2c0.3,0,0.5,0,0.7,0c0.2,0,0.3,0,0.5,0h0h0.1c0.1,0,0.2,0,0.3,0  c-0.4-1.1-1-1.8-1.6-2.2c-0.7-0.4-1.4-0.6-2-0.6c-0.2,0-0.3,0-0.5,0c0.1,0,0.2,0.1,0.3,0.1c1.5,0.7,2,1.7,2.1,2.2v0L734,67.2z   M795.9,80.3c-0.1-0.1-0.2-0.2-0.3-0.4c-0.5,0.8-0.7,1.5-0.7,2.2c0,1.2,0.7,2.1,1.2,2.6c0-0.1-0.1-0.2-0.1-0.3  c-0.1-0.4-0.1-0.8-0.1-1.1c0-1,0.3-1.6,0.6-1.9l0,0l0.2-0.3c0,0-0.1-0.1-0.1-0.1C796.4,80.7,796.2,80.4,795.9,80.3z M804.4,80.6  L804.4,80.6l-0.1-0.3l-1,0h0h0c-0.1,0-0.3,0-0.5,0c0.4,1.2,1,1.9,1.6,2.3c0.7,0.4,1.5,0.5,2.1,0.5c0,0,0.1,0,0.1,0  c-0.1,0-0.2-0.1-0.3-0.2C805,82.2,804.5,81.1,804.4,80.6z M665.4,78.2c-0.9,0.8-1.1,1.8-1.1,2.6c0,0.4,0.1,0.8,0.1,1.1  c0-0.1,0.1-0.2,0.1-0.3c0.3-1.1,1-1.8,1.5-2.2c-0.1-0.2-0.3-0.5-0.5-0.7C665.5,78.5,665.4,78.4,665.4,78.2z M723.5,68.4  c-1,0-1.8,0.5-2.3,0.8c0.1,0,0.2,0,0.3,0c0.2,0,0.3,0,0.5,0c0.5,0,1,0.1,1.4,0.2c0.3-0.4,0.6-0.6,0.9-0.9  C724,68.4,723.7,68.4,723.5,68.4z M724.8,73c0,0.1,0,0.1,0,0.2c0,0.2,0,0.2,0.2,0.3c0.2,0.1,0.5,0.2,1.1,0.2c0.3,0,0.5,0,0.8,0  c0.4,0,0.6,0,0.8-0.1c0.1-0.2,0.1-0.4,0.2-0.6c0.1-0.4,0.3-0.8,0.3-1.2c0.1-0.4,0.1-0.7,0.1-1c0-0.2,0-0.4,0-0.7  c-0.4-0.4-1-1-1.3-1.2c-0.2-0.1-0.4-0.3-0.7-0.3c-0.2,0-0.5,0.1-0.8,0.3c-0.3,0.2-0.6,0.4-0.9,0.7c-0.2,0.2-0.4,0.5-0.4,0.7  c0,0.1,0,0.3,0.2,0.5c0.4,0.6,0.5,1.1,0.5,1.5C724.8,72.7,724.8,72.9,724.8,73z M806.8,75c-0.2-0.3-0.3-0.6-0.3-0.9  c0-0.8,0.5-1.4,0.9-2c0.1-0.1,0.1-0.2,0.2-0.2c0.4-0.6,0.6-1.3,0.6-2.1c0-1-0.4-2.3-1.7-3.7c0,0-0.3-0.3-0.3-1  c0-0.5,0.1-1.3,0.6-2.5c0.4-1,0.8-1.9,0.8-2.8c0-0.4-0.1-0.9-0.4-1.4c-0.2,0.8-0.4,2.5-1.5,2.4c-0.8,0-0.7-1-0.7-1.6  c0-0.1,0-0.3,0.1-0.5c0.1-0.4,0.1-1,0.1-1.7c0-1-0.1-2.1-0.5-3.2c-0.2,0.7-0.3,1.2-0.6,1.5c-0.1,0.1-0.3,0.2-0.4,0.2  c-0.2,0-0.4-0.1-0.5-0.3c-0.1-0.2-0.2-0.3-0.3-0.5c-0.1-0.4-0.1-0.7-0.2-0.7c0,0-0.1-0.9-0.4-1.8c-0.2-0.9-0.5-1.9-0.7-2.4  c0,0.3-0.1,0.7-0.2,1.1c-0.1,0.5-0.2,1.2-0.8,1.4c-0.4,0.1-0.6-0.3-0.6-0.7c-0.1-0.4-0.2-0.9-0.3-1.3c-0.2-0.7-0.4-1.5-0.7-2.2  c-0.1-0.4-0.3-0.6-0.4-0.7c0,0.1-0.1,0.2-0.1,0.3c-0.1,0.3-0.3,0.6-0.6,1c-0.5,0.8-1.2,1.8-2.1,2.5c-1.8,1.4-3.3,1.5-4.5,1.5  c-1.8,0-4.9-0.6-7.6-2.3c-1.5-1-4.1-2.5-5.8-3.7l-0.4-0.3l0.6,0c0.6,0,1.2,0,1.8,0c2.6,0,5.4-0.3,7.2-1.2c2.3-1.1,3.4-2.6,4.5-4  c1.1-1.4,2.1-2.9,4.1-4c1.2-0.7,2.5-0.9,3.7-0.9c1.4,0,2.6,0.3,3.1,0.5c-0.5-1.8-2.6-3.4-5.2-3.4c-1.9,0-3.9,0.8-5.8,2.9l-0.3,0.3  l0-0.4l0-0.1c0-0.1,0-0.1,0-0.2c0-0.2-0.1-0.5-0.1-0.8c-0.2-0.7-0.5-1.6-1.1-2.5c-1.3-1.8-3.8-3.6-8.9-3.6c-0.4,0-0.8,0-1.3,0  c-4.2,0.2-12,2.7-19.2,4.1c-7,1.4-17.4,2-21.8,2c-1.7,0-3.3-0.2-4.8-0.5c-1.4-0.3-2.6-0.9-3.4-1.7c-0.5-0.6-0.8-1.2-0.8-2  c0-1.6,0.9-2.6,2-3.1c1.1-0.5,2.5-0.6,3.5-0.6c3.4,0,8.1,2.1,11.9,3.5c2.7,1,5.3,1,6.8,1c3.9,0,8.9-2.1,11.4-3.1  c2-0.8,3.7-1.4,6.6-1.4c0.7,0,1.5,0,2.3,0.1c-1.1-1.2-3.4-2.4-6.4-2.4c-1.9,0-4.2,0.5-6.5,1.8l-0.2,0.1l-0.1-0.2  c-0.1-0.2-0.2-0.4-0.2-0.7c0-0.6,0.3-1.3,0.9-2c0.5-0.6,1.2-1.1,2.1-1.4c-0.6-0.3-1.5-0.7-2.8-0.9c-1.5-0.3-3.3-0.6-5.3-0.6  c-0.2,0-0.4,0-0.7,0c-3.3,0.1-5.5,0.9-7.6,1.7c-2.2,0.8-4.3,1.6-7.4,1.6c-0.3,0-0.6,0-0.8,0c-0.6,0-1.2,0-1.9,0  c-3,0-5.7,0.4-7.7,1.3c-2,1-3.2,2.5-3.2,4.8c0,2,1.2,3.7,3.4,5c2.2,1.2,5.4,1.9,9.3,1.9c0.1,0,0.2,0,0.2,0  c9.8-0.1,21.6-2.4,28.8-3.6c2.4-0.4,7.4-1.8,11.7-1.8c2,0,3.8,0.3,5.1,1.1c1.4,0.8,2.2,2.2,2.2,4.2c0,1-0.2,2.3-1.1,3.3  c-0.9,1-2.4,1.8-4.9,1.8c-2.9,0-6.2-0.8-10.2-1.4l-0.3,0c-0.8-0.1-1.7-0.2-2.7-0.4c-5.8-0.7-13.3-1.2-17.5-1.2c-0.4,0-0.8,0-1.1,0  c-3.2,0.1-9.4,0.5-15.3,1.4c-6.1,1-11.7,2.3-13.5,2.7v0.2l-0.1,5.6l-1.6-2.5c0,0.1,0,0.2,0,0.3c0,2.3-0.5,4.3-0.9,5.6  c-0.3,0.7-0.5,1.3-0.7,1.6c-0.1,0.1-0.1,0.2-0.1,0.3l-1.3,2.5l-1.2-2c-0.4,2.4-1.4,4.5-3,6.3c-0.4,0.4-1.1,1.1-2,1.8  c-0.1,0.1-0.1,0.1-0.2,0.2c-0.3,0.2-0.5,0.4-0.7,0.5l-2.4,1.4V61c-0.5,0.6-1,1.2-1.5,1.6c-1,0.9-2.1,1.3-3.2,1.3  c-0.4,0-0.7-0.1-1.1-0.2l-2-0.6l1.1-1.7c0.1-0.1,0.3-0.4,0.4-0.8c0.4-0.8,0.5-1.3,0.5-1.6c0-0.1,0-0.2-0.1-0.3  c-0.1-0.1-0.5-0.2-1.1-0.2c-0.3,0-0.5,0-0.8,0.1c-1.2,0.1-3.6,0.8-8,3.1c-2.3,1.2-4.5,2.5-6.7,3.8c-1.4,0.9-2.8,1.7-4.3,2.4  c-2.1,1.1-4.3,2.1-6.6,2.4c-0.6,0.1-1.3,0.2-1.9,0.2c-1,0-1.9-0.3-2.4-0.9c-1-0.1-1.9-0.3-2.7-0.7c-0.9-0.5-1.7-1.1-2.3-1.6  c-0.5-0.4-0.8-0.9-1.1-1.2c-1.1,1-2.1,2.3-2.3,4c0,0.4,0,0.8,0,1.2c0,0.2,0,0.4,0,0.6c0.2,0,0.4,0,0.6,0c4.5,0,7-0.7,7.2-0.7l0.2,0  c0.3,0,0.5,0.2,0.6,0.4l0,0.2c0,0.3-0.2,0.5-0.4,0.6c0,0-2.7,0.8-7.5,0.8c-0.2,0-0.3,0-0.5,0c0.1,1.3,0.5,2.5,1,3.3  c0.7,1.1,1.7,1.4,2.1,1.4c0,0,0.1,0,0.1,0c3.7-2.6,6.1-3.4,6.2-3.4c0.1,0,0.1,0,0.2,0c0.3,0,0.5,0.2,0.6,0.4c0,0.1,0,0.1,0,0.2  c0,0.2-0.2,0.5-0.4,0.6l-0.1,0c-0.1,0-0.2,0.1-0.5,0.2c-0.4,0.2-1,0.4-1.7,0.8c-0.5,0.3-1,0.6-1.6,0.9c0,0,0,0.1,0,0.1  c0,0.1,0,0.2,0.2,0.5c0.5,0.8,1.1,1.8,1.5,2.4c0.3,0.4,0.8,0.9,1.5,0.9c0.6,0,1.4-0.4,2.3-1.7c0.6-0.7,1.3-1.3,2.7-1.3l3.3-0.2  l0.1,0c0,0,0.1,0,0.2,0c0.1,0,0.3-0.1,0.6-0.1c0.4-0.2,1-0.4,1.3-0.9c0.2-0.3,0.5-0.6,0.7-0.7c0.3-0.2,0.6-0.2,0.9-0.2  c0.6,0,1.2,0.2,2.2,0.4c1.4,0.4,2.5,0.6,3.3,0.6c0.2,0,0.4,0,0.6-0.1c-0.1-0.1-0.2-0.2-0.4-0.4c-0.3-0.3-0.7-0.7-0.9-1  c-0.2-0.2-0.3-0.5-0.3-0.7c0-0.1,0-0.3,0.1-0.4c0.2-0.2,0.4-0.3,0.6-0.3c0.2,0,0.4,0.1,0.5,0.2c0.1,0.1,0.3,0.2,0.3,0.3  c1.4,1,4,1.7,6.1,1.7c0.6,0,1.1,0,1.6-0.2c-0.4-0.2-0.9-0.5-1.2-0.9c-0.2-0.2-0.3-0.4-0.3-0.7c0-0.1,0.1-0.3,0.2-0.4  c0.2-0.2,0.4-0.2,0.7-0.2c0.6,0,1.4,0.2,1.5,0.2c0,0,0.1,0,0.4,0.1c0.2,0,0.6,0.1,1,0.2c0.8,0.1,1.9,0.3,2.9,0.3  c1.1,0,2.1-0.2,2.7-0.6c-1.1-1-1.8-1.7-1.8-1.7c0,0-0.3-0.2-0.3-0.6c0-0.1,0-0.3,0.2-0.5c0.1-0.2,0.4-0.2,0.5-0.2  c0.4,0,0.8,0.2,0.9,0.3c0,0,0.2,0.1,0.5,0.2c0.3,0.1,0.7,0.2,1.2,0.4c1,0.3,2.3,0.5,3.5,0.5c1,0,2-0.2,2.7-0.7  c-0.8-0.3-1.3-0.8-1.3-0.8c0,0-0.2-0.2-0.2-0.5c0-0.1,0-0.2,0.1-0.4c0.1-0.2,0.3-0.3,0.4-0.3c0.2-0.1,0.3-0.1,0.5-0.1  c0.1,0,0.2,0,0.2,0c0.4,0,0.7,0.1,1.1,0.1c2,0,3.1-0.6,3.5-0.8l-2-2.5c0.2-0.1,0.8-0.4,0.9-0.4c0.2-0.1,0.6-0.3,1-0.4  c0.8-0.2,1.9-0.5,3.2-0.9c2.6-0.8,6.2-2.2,9.8-4.2c7.1-3.9,14.1-8.8,21.1-10.5c1.7-0.4,3.4-0.6,5-0.6c1.9,0,3.6,0.2,4.9,0.5  c1.3,0.3,2.8,1.4,4.3,2.9c1.6,1.5,3.2,3.3,4.6,4.8c1.6,1.8,3,3,3.6,3.5c0.2,0.2,0.3,0.3,0.3,0.3c0,0,0.2,0.2,0.6,0.4  c0.4,0.2,0.9,0.6,1.4,0.9c1.1,0.7,2.5,1.3,3.7,1.6c-0.1-0.4-0.6-3,0.5-2.5c0.5,0.2,0.7,0.7,1.1,1.1c0.5,0.4,0.9,0.8,1.5,1.2  c0.8,0.6,1.8,1,2.6,1c0.3,0,0.5-0.1,0.8-0.2c-0.5-0.6-0.9-1.1-0.9-1.1c0,0-0.2-0.2-0.2-0.4c0-0.2,0.1-0.3,0.3-0.4  c0.2-0.1,0.5-0.2,0.9-0.2c0.1,0,0.3,0,0.5,0c0.3,0,0.9,0,1.6,0c1.2,0,2.8-0.1,4.2-0.3c2-0.3,3.7-0.9,4.4-1.2  c0.2-0.1,0.4-0.1,0.4-0.1c0,0,0.5-0.2,1.1-0.2c0.3,0,0.6,0.1,0.9,0.2c0.4,0.3,0.7,0.7,0.9,1.2c0.2,0.5,0.4,1,0.5,1.2  c0.6,1.4,1.8,3,1.8,5.7c0,0.4,0,0.8-0.1,1.2c-0.1,0.7-0.3,2.2-1,3.3c-1.3,1.8-2.6,1.9-2.8,1.9c-0.1,0-0.3,0-0.7,0  c-0.2,0-0.5,0-0.8-0.1c-0.9-0.2-1.8-0.6-2.5-0.6c-0.2,0-0.4,0-0.6,0.1c-0.8,0.4-0.9,0.9-1,1.5c0,0.6,0.3,1.2,0.4,1.4l0,0  c0,0,0,0.1,0.1,0.2c0.1,0.1,0.2,0.3,0.3,0.5c0.3,0.4,0.8,0.7,1.6,0.7c0.1,0,0.2,0,0.3,0c0.6-0.1,1.3-0.4,1.7-0.9  c0.5-0.4,0.9-0.9,1-1.1l0.1-0.1l1.2-1.7c0,0,0.1-0.1,0.1-0.2c0.1-0.1,0.2-0.2,0.4-0.2c0.1,0,0.2,0,0.3,0.1c0.2,0.1,0.3,0.3,0.3,0.5  c0,0.1,0,0.2-0.1,0.3c0,0.1-0.1,0.2-0.1,0.2c0,0-0.1,0.2-0.3,0.3c-0.1,0.2-0.3,0.4-0.5,0.6c-0.4,0.5-0.7,0.9-0.7,0.9l0,0.1  c0,0.1,0,0.1,0,0.2c0,0.1,0,0.3,0.3,0.5c0.3,0.3,0.6,0.7,0.9,1c0.2,0.3,0.4,0.6,0.8,0.7c0.8,0.2,1.6-0.7,2-1.2  c0.4-0.4,0.8-0.9,0.9-1.4c0.3-0.8,0.3-1.6,0.3-2.3c0-0.4,0-0.7,0-1c0-0.2,0-0.4,0-0.4c0,0,0-0.1,0-0.2c0-0.1,0-0.2,0.1-0.4  c0.1-0.1,0.2-0.2,0.4-0.3l0.1,0c0.3,0,0.5,0.2,0.5,0.3c0.1,0.1,0.1,0.3,0.1,0.3c0,0,0,0.2,0,0.6c0,0.5,0,1.1,0,1.8  c0,0.6-0.1,1.2-0.2,1.5c0,0.1,0,0.2,0,0.2c0,0.1,0,0.2,0.1,0.2c0,0,0.1,0.1,0.2,0.1c0.2,0.1,0.3,0.1,0.4,0.1c0,0,2.9-0.1,2.9-0.1h0  c0.1,0,0.5,0,0.8-0.2c0.3-0.2,0.6-0.6,0.7-1.3c0-0.2,0-0.3,0-0.4c0-0.6-0.2-1-0.4-1.2C807.2,75.5,807,75.3,806.8,75z M764.1,67.9  c-0.6-0.1-1.4-0.3-2.1-0.7c-1.4-0.8-2.3-2.5-2.3-3.7c0-1.3,0.8-3.1,2-4.4c0.9-0.9,1.8-1.7,2.6-2.2c0,0-3.3-3.3-3.6-3.6  c-1.1-0.9-2.2-1.8-3.6-2.2c-1.5-0.4-2.9,0.1-4.2,0.7c-0.8,0.4-1.7,0.8-2.5,1.3c-3.2,2-4.8,5.7-5.3,7c0.1-0.1,0.3-0.2,0.5-0.4  c0.5-0.4,1.1-0.8,1.5-0.9c0.1,0,0.3-0.1,0.4-0.1c0.3,0,0.5,0.1,0.6,0.3c0.1,0.2,0.1,0.4,0.1,0.5c0,0.3-0.1,0.5-0.1,0.5  c0,0-0.1,0.2-0.1,0.5c-0.1,0.3-0.2,0.7-0.3,1.2c-0.2,0.8-0.4,1.8-0.4,2.8c0.6-0.9,1.3-1.6,1.3-1.7c0,0,0.1-0.1,0.1-0.1  c0.1-0.1,0.2-0.1,0.4-0.1c0.1,0,0.2,0,0.3,0.1c0.1,0.1,0.1,0.2,0.2,0.3c0,0.1,0,0.2,0,0.4c0,1.2-0.3,2.5,0.4,3.6  c0.6,1,0.9,1.8,0.4,2.9c-0.4,0.9-1.4,1.7-2.2,2.3c-0.5,0.3-1.1,0.6-1.9,0.6c-0.7,0.1-1.8,0-2.7,0.3c-1.2,0.4-2.2,1.3-3.4,1.6  c-0.4,0.1-0.7,0.1-1.1,0.1c-1.4,0-3.1-0.4-4.1-1.5c-0.5-0.6-0.7-1.2-0.7-1.7c0-1.5,1.3-2.8,1.4-2.9l0.1-0.1c0-0.1,0.1-0.2,0.1-0.3  l0-0.1c0,0-0.1-0.1-0.3-0.1c-0.1,0-0.3,0-0.5,0c-1.2,0-3.1,0-3.2,0c0,0-0.8,0-1.3,0.5l-0.1,0.1c-0.1,0.1-0.1,0.1-0.2,0.2  c-0.1,0.2-0.3,0.5-0.5,0.9c-0.2,0.5-0.1,1.3-0.2,2.3c-0.2,0.9-0.7,2-0.8,2.7c0,0.1,0,0.3,0,0.4c0,1,0.4,1.8,0.8,2.3  c1.2,1.7,3.5,2.7,5.6,3.4c2.1,0.6,4.1,0.9,4.9,1c0.2,0,0.3,0,0.3,0c0.3-0.1,3.6-1,4.7-1.2c1.1-0.2,3.9-0.5,5.1-0.7  c0,0-1.8-0.9-1.8-0.9c0,0-0.1-0.1-0.2-0.2c-0.1-0.1-0.2-0.3-0.2-0.5c0-0.1,0-0.2,0.1-0.3c0.1-0.2,0.2-0.3,0.3-0.3  c0.1-0.1,0.3-0.1,0.4-0.1c0.2,0,0.3,0,0.3,0c0.1,0,0.5,0.1,1.1,0.1c0.7,0,1.6,0.1,2.5,0.1c0.7,0,1.4,0,2-0.1  c1.5-0.2,2.3-0.8,2.6-1.2c-0.1,0-0.2,0-0.3-0.1c-0.3-0.1-0.6-0.2-0.8-0.2c-0.3-0.1-0.7-0.3-0.9-0.5c-0.1-0.1-0.2-0.1-0.3-0.2  c-0.1-0.1-0.2-0.3-0.2-0.5c0,0,0-0.1,0-0.1c0-0.1,0.1-0.2,0.2-0.3c0.1-0.1,0.2-0.1,0.3-0.2c0.2-0.1,0.4-0.1,0.4-0.1  c0,0,0.6-0.1,1.3-0.2c0.7-0.1,1.6-0.3,2.3-0.6c1-0.4,2.1-1.2,2.6-1.5c-0.2-0.1-0.4-0.2-0.6-0.3c-0.5-0.2-1.1-0.5-1.5-0.9  c0,0-0.1-0.1-0.2-0.2c-0.1-0.1-0.2-0.3-0.2-0.5l0-0.2c0.1-0.1,0.1-0.2,0.2-0.2c0.1-0.1,0.2-0.1,0.3-0.1c0.2-0.1,0.4-0.1,0.4-0.1  c0,0,0.2,0,0.4-0.1c0.3-0.1,0.6-0.1,1-0.2c0.8-0.2,1.8-0.5,2.4-0.8c0.4-0.2,0.6-0.4,0.7-0.6c0,0-0.1,0-0.1,0  C764.7,68,764.4,68,764.1,67.9z M721.7,76.3c-0.3,0.4-0.5,0.7-0.6,1c0.1-0.1,0.2-0.1,0.3-0.2c0.7-0.6,1.4-0.8,1.9-0.9  c0-0.2,0.1-0.5,0.1-0.6l0-0.1v0c0.1-0.2,0.1-0.4,0.2-0.5C722.7,75.2,722.1,75.7,721.7,76.3z M728.5,79.3c-0.2,0.1-0.4,0.3-0.5,0.4  c-0.1,0.1-0.2,0.2-0.3,0.3c-0.1,0.1-0.1,0.2-0.2,0.3c0,0.1-0.1,0.3-0.1,0.5c0,0.3,0.1,0.6,0.3,0.9c0.2,0.3,0.6,0.6,1.2,0.9  c0.5,0.2,0.9,0.3,1.3,0.3c0.7,0,1.1-0.3,1.4-0.7c0.2-0.3,0.4-0.7,0.5-1c-1.2-0.5-2.3-1.2-3.2-2.1C728.9,79.1,728.7,79.2,728.5,79.3z   M728.1,78c-0.4-0.6-0.8-1.5-0.8-2.7c0-0.2,0-0.3,0-0.5v0c-0.4,0-0.9-0.1-1.3-0.1c-0.1,0-0.1,0-0.2,0l-0.1,0c-0.1,0-0.2,0-0.3,0  c-0.2,0-0.3,0-0.4,0.2c-0.1,0.1-0.3,0.4-0.5,1c-0.1,0.3-0.2,0.8-0.2,1.2c0,0.2,0,0.4,0.1,0.5c0.1,0.2,0.2,0.3,0.4,0.4  c1,0.4,1.7,0.5,2.2,0.5h0.1c0.1,0,0.4,0,0.5-0.1C728,78.3,728.1,78.1,728.1,78z M726.6,81.2c-0.7,0.9-0.8,1.9-0.8,2.5  c0,0,0,0.1,0,0.1c0-0.1,0.1-0.2,0.2-0.3c0.2-0.5,0.5-0.9,0.8-1.1c-0.1-0.3-0.2-0.6-0.2-1C726.5,81.4,726.6,81.3,726.6,81.2z   M679.8,27.1c0.9,0.7,1.9,1.2,2.9,1.5c1,0.3,2.1,0.4,3,0.4c2,0,3.8-0.4,5.6-0.7c1.8-0.3,3.6-0.6,5.4-0.6c1.8,0,3.6,0.4,5.2,1.6  c-1.4-1.3-3.2-2-5.1-2.3c-1.9-0.3-3.8-0.2-5.6-0.1c-1.8,0.1-3.7,0.2-5.4,0c-1.7-0.2-3.3-0.8-4.3-1.9l-0.1-0.1  c-0.6-0.5-1.5-0.4-1.9,0.2C679.1,25.7,679.2,26.6,679.8,27.1L679.8,27.1z"/>
<path class="st2" d="M684.8,219c0.3-1.6,0.6-3.3,1-4.8l0,0c3.1,1.7,8.2,2.6,14.1,3.6c7.7,1.4,16.8,3,23.2,6.8c-1.6-0.6-3.6-1.3-6-2  c-8.2-2.2-12.3-2-16.4-1.9C696.7,220.8,692.6,221,684.8,219z M776.4,221.2c-8.3,1.8-12.6,1.6-16.8,1.5c-4.3-0.2-8.4-0.3-16.7,1.6  c-3.1,0.7-5.4,1.3-7.1,2c2-0.5,4.6-0.9,8-1.3c8.7-0.9,13-0.3,17.2,0.3c4,0.6,8.1,1.2,16.2,0.4C776.9,224.1,776.6,222.7,776.4,221.2z   M737.7,224.5c1.6-0.6,3.6-1.3,6-2c8.2-2.2,12.3-2,16.4-1.9c3.9,0.2,8,0.3,15.8-1.7c-0.3-1.6-0.6-3.3-1-4.8c0,0,0,0,0,0  c-3.1,1.7-8.2,2.6-14.1,3.6C753.2,219.1,744.1,220.7,737.7,224.5z M701.2,222.7c-4.2,0.1-8.5,0.3-16.8-1.5c-0.3,1.5-0.5,2.9-0.7,4.4  c8.1,0.8,12.2,0.2,16.2-0.4c4.2-0.6,8.4-1.2,17.2-0.3c3.4,0.4,6,0.8,8,1.3c-1.8-0.6-4.1-1.3-7.1-2  C709.5,222.4,705.5,222.5,701.2,222.7z M694.8,186.4l-8.5,25.5c7.1,4.6,33.3,3.5,43.2,15.1v-27.1C726.9,188.3,701.9,191,694.8,186.4  z M765.9,186.4c-7.1,4.6-32.1,1.9-34.7,13.5V227c9.8-11.7,36-10.5,43.2-15.1L765.9,186.4z"/>
<g>
	<path class="st2" d="M649.5,118.4l1.2,2c0.5,0.8,1.3,1.3,2.3,1.3h0.1c-0.5,1-0.9,2.4-1,4.1c0,0.3,0,0.6,0,1c0,0.8,0,2.1-0.3,2.7   c-0.1,0.2-0.4,0.5-0.6,0.8c-0.6,0.6-1.5,1.6-1,3l0,0v0c0.5,1.4,1.8,1.7,2.6,1.8c0.3,0.1,0.7,0.1,0.9,0.3c0.6,0.3,1.3,1.3,1.8,2   c0.2,0.3,0.4,0.6,0.6,0.8c1.2,1.5,2.4,2.5,3.8,3c-1,0.5-1.6,1.7-1.3,2.9l0.5,2.3c0.3,1.2,1.3,2.1,2.6,2.1c0.2,0,0.4,0,0.6-0.1   l2.3-0.5c1-0.2,1.7-0.9,2-1.8c0.9,0.9,2.1,1.6,3.6,2.2c0.3,0.1,0.6,0.2,0.9,0.3c0.8,0.3,2,0.6,2.5,1.1c0.2,0.2,0.4,0.5,0.5,0.8   c0.4,0.7,1.1,1.9,2.6,1.9v0l0,0l0,0v0c1.5,0,2.2-1.2,2.6-1.9c0.2-0.3,0.3-0.6,0.5-0.8c0.4-0.5,1.7-0.9,2.5-1.1   c0.3-0.1,0.7-0.2,0.9-0.3c1.8-0.7,3.1-1.5,4-2.6c0.1,0.4,0.3,0.8,0.5,1.2c0.4,0.5,1.1,0.9,1.8,1l2.3,0.2c0.1,0,0.2,0,0.3,0   c1.4,0,2.5-1,2.6-2.4l0.2-2.3c0.1-0.7-0.1-1.4-0.6-1.9c-0.2-0.2-0.3-0.4-0.5-0.5c1.1-0.6,2.2-1.5,3.2-2.8c0.2-0.2,0.4-0.5,0.6-0.8   c0.5-0.7,1.2-1.7,1.8-2c0.3-0.1,0.6-0.2,0.9-0.3c0.8-0.2,2.2-0.5,2.6-1.9l0,0l0,0l0,0c0.4-1.4-0.5-2.4-1-3   c-0.2-0.3-0.5-0.5-0.6-0.8c-0.3-0.6-0.3-1.8-0.3-2.7c0-0.4,0-0.7,0-1c-0.1-2.1-0.6-3.6-1.3-4.6c0.1,0,0.2,0,0.3,0   c1,0,2-0.6,2.4-1.6l0.9-2.1c0.3-0.6,0.3-1.4,0-2c-0.3-0.7-0.7-1.2-1.4-1.5l-2.1-0.9c-0.3-0.1-0.7-0.2-1.1-0.2   c-0.6,0-1.1,0.2-1.6,0.5c-0.2-1.2-0.7-2.6-1.6-3.9c-0.2-0.3-0.4-0.5-0.6-0.8c-0.5-0.7-1.3-1.7-1.3-2.3c0-0.3,0-0.6,0-1   c0.1-0.8,0.2-2.2-0.9-3.1l-0.2,0.2l0,0l0.2-0.2c-0.4-0.3-0.9-0.5-1.4-0.5c-0.7,0-1.2,0.2-1.8,0.5c-0.3,0.1-0.6,0.3-0.9,0.3   c-0.1,0-0.2,0-0.3,0c-0.7,0-1.6-0.3-2.4-0.6c-0.3-0.1-0.6-0.2-0.9-0.3c-1.1-0.3-2.1-0.5-3-0.5c-0.5,0-1.2,0.1-1.8,0.2   c0.2-0.4,0.3-0.8,0.3-1.3c0-0.7-0.3-1.3-0.9-1.8l-1.7-1.6c-0.5-0.4-1.1-0.7-1.8-0.7c-0.7,0-1.5,0.3-2,0.9l-1.6,1.7   c-0.7,0.7-0.8,1.8-0.5,2.6c-0.5-0.1-0.9-0.1-1.3-0.1c-0.9,0-1.9,0.2-3,0.5c-0.3,0.1-0.6,0.2-0.9,0.3c-0.8,0.3-1.7,0.6-2.4,0.6   c-0.1,0-0.2,0-0.3,0c-0.3-0.1-0.6-0.2-0.9-0.3c-0.5-0.2-1.1-0.5-1.8-0.5c-0.5,0-1,0.2-1.4,0.5l0,0l0,0c-1.2,0.9-1,2.2-1,3.1   c0,0.3,0.1,0.7,0.1,1c-0.1,0.6-0.8,1.7-1.3,2.3c-0.2,0.3-0.4,0.5-0.6,0.8c-1.1,1.6-1.6,3.1-1.7,4.5c-0.5-0.5-1.1-0.7-1.8-0.7   c-0.5,0-0.9,0.1-1.3,0.4l-2,1.2c-0.6,0.4-1,0.9-1.2,1.6C649.1,117.1,649.2,117.8,649.5,118.4"/>
	<path class="st2" d="M676.3,113.3c2.6,0,4.8,1.9,5.3,4.3c0.2,0,0.5,0,0.7,0c2.3,0,4.4,1.5,5.1,3.7c0.8,2.5-0.3,5.1-2.5,6.4   c0.5,1,0.6,2.1,0.5,3.2c-0.2,1.4-1,2.7-2.2,3.5c-0.9,0.7-2,1-3.2,1c-1.4,0-2.7-0.5-3.6-1.4c-1,0.9-2.3,1.5-3.7,1.5   c-1.1,0-2.2-0.4-3.2-1c-2.1-1.5-2.8-4.3-1.7-6.6c-1-0.5-1.7-1.3-2.2-2.3c-0.7-1.3-0.8-2.7-0.3-4.1c0.7-2.2,2.8-3.7,5.1-3.7   c0.2,0,0.4,0,0.6,0c0.2-1.1,0.7-2.1,1.5-2.8C673.5,113.8,674.9,113.3,676.3,113.3"/>
	<path class="st1" d="M677,113.3c2.3,0.3,4.1,2,4.6,4.3c0.2,0,0.5,0,0.7,0c2.1,0,4,1.2,4.9,3.1c1.8-0.5,3.4-1.3,4.4-1.8   c4.3-2.1,4.6-4.9,2.3-8.3c-0.7-1-2.1-2.5-2.3-4.1c-0.1-1.1,0.3-2.3-0.1-2.6h0c-0.4-0.3-1.4,0.5-2.5,0.7c-1.5,0.3-3.4-0.6-4.6-0.9   c-3.9-1.1-6.4,0.1-7.1,4.8C677.2,109.6,676.9,111.4,677,113.3 M675.9,103.4c0.2,0.2,0.6,0.2,0.8,0l1.5-2.5c0.2-0.2,0.2-0.6,0-0.8   l-1.7-1.6c-0.2-0.2-0.6-0.2-0.8,0l-1.6,1.7c-0.2,0.2-0.2,0.6,0,0.8L675.9,103.4z M661.3,118.9c1,0.5,2.5,1.3,4.3,1.7   c0.9-1.8,2.8-3,4.8-3c0.2,0,0.4,0,0.6,0c0.2-1.1,0.7-2.1,1.5-2.9c0.9-0.9,2.1-1.5,3.4-1.6c0.1-1.9-0.2-3.6-0.3-4.7   c-0.7-4.7-3.3-5.9-7.1-4.8c-1.2,0.3-3.1,1.2-4.6,0.9c-1.1-0.2-2.1-1-2.5-0.7c-0.4,0.3,0,1.5-0.1,2.6c-0.2,1.5-1.6,3.1-2.3,4.1   C656.8,114,657.1,116.8,661.3,118.9 M651.3,117.4l1.2,2c0.2,0.3,0.5,0.4,0.8,0.2l2.7-1c0.3-0.2,0.4-0.5,0.2-0.8l-1.9-2.2   c-0.2-0.3-0.5-0.4-0.8-0.2l-2,1.2C651.2,116.7,651.1,117.1,651.3,117.4 M697,118.4l2.8,0.7c0.3,0.1,0.6,0,0.8-0.3l0.9-2.1   c0.1-0.3,0-0.6-0.3-0.8l-2.1-0.9c-0.3-0.1-0.6,0-0.8,0.3l-1.6,2.4C696.5,117.9,696.7,118.3,697,118.4 M664.3,142.3   c-0.1-0.3-0.4-0.5-0.7-0.5L661,143c-0.3,0.1-0.5,0.4-0.5,0.7l0.5,2.3c0.1,0.3,0.4,0.5,0.7,0.5l2.3-0.5c0.3-0.1,0.5-0.4,0.5-0.7   L664.3,142.3z M698.9,125.9c-0.2-4-2.1-6.1-6.7-5.3c-1.1,0.2-2.8,0.5-4.6,1.1c0.6,2.3-0.5,4.8-2.6,5.9c0.5,1,0.6,2.1,0.5,3.2   c-0.2,1.2-0.8,2.3-1.6,3.1c1,1.5,2.2,2.6,2.9,3.4c3.3,3.4,6.1,2.8,8.6-0.3c0.7-0.9,1.8-2.8,3.2-3.4c1.1-0.5,2.3-0.4,2.4-0.9v0v0   c0.2-0.5-0.9-1.2-1.5-2.1C698.7,129.2,698.9,127.1,698.9,125.9 M667.9,127.8c-1-0.5-1.7-1.3-2.2-2.3c-0.6-1.2-0.8-2.5-0.4-3.8   c-1.7-0.6-3.3-0.9-4.4-1.1c-4.7-0.8-6.6,1.3-6.7,5.3c0,1.2,0.2,3.3-0.6,4.6c-0.6,1-1.6,1.7-1.5,2.1v0c0.2,0.5,1.4,0.4,2.4,0.9   c1.4,0.6,2.4,2.5,3.2,3.4c2.5,3.2,5.3,3.7,8.6,0.3c0.7-0.7,1.9-1.9,2.9-3.3C667.4,132.4,666.9,129.9,667.9,127.8 M692.3,142.5   l-2.8-0.8c-0.3,0-0.6,0.2-0.7,0.5l0.2,2.9c0,0.3,0.2,0.6,0.5,0.7l2.3,0.2c0.3,0,0.6-0.2,0.6-0.5l0.2-2.3   C692.8,142.8,692.6,142.6,692.3,142.5 M685.3,138.4c2.2,4.2,0.8,6.7-3,8.1c-1.1,0.4-3.2,0.8-4.2,2c-0.8,0.9-1.1,2.1-1.6,2.1   c-0.5,0-0.8-1.2-1.6-2.1c-1-1.1-3.1-1.6-4.2-2c-3.8-1.4-5.2-3.8-3-8.1c0.5-0.9,1.2-2.3,2.2-3.7c0.8,0.5,1.8,0.8,2.8,0.8   c1.4,0,2.7-0.5,3.7-1.5c1,0.9,2.3,1.4,3.6,1.4c1,0,2-0.3,2.8-0.8C684.1,136,684.8,137.4,685.3,138.4"/>
	<path class="st1" d="M669.4,126.3c0.3,0.1,0.6,0.1,0.9,0.2c0,0,0,0,0,0c0.2,0,0.3,0.1,0.4,0.2c0.2,0.3,0.1,0.6-0.1,0.8v0   c-0.2,0.2-0.4,0.4-0.6,0.6c-1.1,1.5-0.8,3.6,0.7,4.7c1.5,1.1,3.6,0.8,4.7-0.7c0.2-0.2,0.3-0.5,0.4-0.8h0c0.1-0.2,0.2-0.3,0.4-0.3   c0.3-0.1,0.6,0,0.7,0.3h0c0.1,0.2,0.2,0.5,0.4,0.7c1.1,1.5,3.2,1.8,4.7,0.7c1.5-1.1,1.8-3.2,0.7-4.7c-0.2-0.2-0.4-0.5-0.6-0.7   c0,0,0,0,0,0c-0.1-0.1-0.2-0.3-0.2-0.5c0-0.3,0.2-0.6,0.5-0.6c0,0,0,0,0,0c0.3,0,0.5-0.1,0.8-0.2c1.8-0.6,2.7-2.5,2.2-4.2   c-0.6-1.8-2.5-2.7-4.2-2.2c-0.3,0.1-0.6,0.2-0.8,0.4c0,0,0,0,0,0c-0.1,0.1-0.3,0.1-0.5,0.1c-0.3-0.1-0.5-0.4-0.4-0.7c0,0,0,0,0,0   c0.1-0.3,0.1-0.5,0.1-0.8c0-1.9-1.5-3.4-3.4-3.4c-1.9,0-3.4,1.5-3.4,3.4c0,0.3,0,0.6,0.1,0.9l0,0c0,0.2,0,0.3-0.1,0.5   c-0.2,0.3-0.5,0.3-0.8,0.2v0c-0.2-0.1-0.5-0.3-0.7-0.3c-1.8-0.6-3.7,0.4-4.2,2.2C666.6,123.8,667.6,125.7,669.4,126.3"/>
	<path class="st2" d="M673.5,124.9c0-1.5,1.2-2.6,2.6-2.6c1.5,0,2.6,1.2,2.6,2.6c0,1.5-1.2,2.6-2.6,2.6   C674.7,127.5,673.5,126.4,673.5,124.9"/>
</g>
<g>
	<path class="st2" d="M811.2,118.4l-1.2,2c-0.5,0.8-1.3,1.3-2.3,1.3h-0.1c0.5,1,0.9,2.4,1,4.1c0,0.3,0,0.6,0,1c0,0.8,0,2.1,0.3,2.7   c0.1,0.2,0.4,0.5,0.6,0.8c0.6,0.6,1.5,1.6,1,3l0,0v0c-0.5,1.4-1.8,1.7-2.6,1.8c-0.3,0.1-0.7,0.1-0.9,0.3c-0.6,0.3-1.3,1.3-1.8,2   c-0.2,0.3-0.4,0.6-0.6,0.8c-1.2,1.5-2.4,2.5-3.8,3c1,0.5,1.6,1.7,1.3,2.9l-0.5,2.3c-0.3,1.2-1.3,2.1-2.6,2.1c-0.2,0-0.4,0-0.6-0.1   l-2.3-0.5c-1-0.2-1.7-0.9-2-1.8c-0.9,0.9-2.1,1.6-3.6,2.2c-0.3,0.1-0.6,0.2-0.9,0.3c-0.8,0.3-2,0.6-2.5,1.1   c-0.2,0.2-0.4,0.5-0.5,0.8c-0.4,0.7-1.1,1.9-2.6,1.9v0l0,0l0,0v0c-1.5,0-2.2-1.2-2.6-1.9c-0.2-0.3-0.3-0.6-0.5-0.8   c-0.4-0.5-1.7-0.9-2.5-1.1c-0.3-0.1-0.7-0.2-0.9-0.3c-1.8-0.7-3.1-1.5-4-2.6c-0.1,0.4-0.3,0.8-0.5,1.2c-0.4,0.5-1.1,0.9-1.8,1   l-2.3,0.2c-0.1,0-0.2,0-0.3,0c-1.4,0-2.5-1-2.6-2.4l-0.2-2.3c-0.1-0.7,0.1-1.4,0.6-1.9c0.2-0.2,0.3-0.4,0.5-0.5   c-1.1-0.6-2.2-1.5-3.2-2.8c-0.2-0.2-0.4-0.5-0.6-0.8c-0.5-0.7-1.2-1.7-1.8-2c-0.3-0.1-0.6-0.2-0.9-0.3c-0.8-0.2-2.2-0.5-2.6-1.9   l0,0l0,0l0,0c-0.4-1.4,0.5-2.4,1-3c0.2-0.3,0.5-0.5,0.6-0.8c0.3-0.6,0.3-1.8,0.3-2.7c0-0.4,0-0.7,0-1c0.1-2.1,0.6-3.6,1.3-4.6   c-0.1,0-0.2,0-0.3,0c-1,0-2-0.6-2.4-1.6l-0.9-2.1c-0.3-0.6-0.3-1.4,0-2c0.3-0.7,0.7-1.2,1.4-1.5l2.1-0.9c0.3-0.1,0.7-0.2,1.1-0.2   c0.6,0,1.1,0.2,1.6,0.5c0.2-1.2,0.7-2.6,1.6-3.9c0.2-0.3,0.4-0.5,0.6-0.8c0.5-0.7,1.3-1.7,1.3-2.3c0-0.3,0-0.6,0-1   c-0.1-0.8-0.2-2.2,0.9-3.1l0.2,0.2l0,0l-0.2-0.2c0.4-0.3,0.9-0.5,1.4-0.5c0.7,0,1.2,0.2,1.8,0.5c0.3,0.1,0.6,0.3,0.9,0.3   c0.1,0,0.2,0,0.3,0c0.7,0,1.6-0.3,2.4-0.6c0.3-0.1,0.6-0.2,0.9-0.3c1.1-0.3,2.1-0.5,3-0.5c0.5,0,1.2,0.1,1.8,0.2   c-0.2-0.4-0.3-0.8-0.3-1.3c0-0.7,0.3-1.3,0.9-1.8l1.7-1.6c0.5-0.4,1.1-0.7,1.8-0.7c0.7,0,1.5,0.3,2,0.9l1.6,1.7   c0.7,0.7,0.8,1.8,0.5,2.6c0.5-0.1,0.9-0.1,1.3-0.1c0.9,0,1.9,0.2,3,0.5c0.3,0.1,0.6,0.2,0.9,0.3c0.8,0.3,1.7,0.6,2.4,0.6   c0.1,0,0.2,0,0.3,0c0.3-0.1,0.6-0.2,0.9-0.3c0.5-0.2,1.1-0.5,1.8-0.5c0.5,0,1,0.2,1.4,0.5l0,0l0,0c1.2,0.9,1,2.2,1,3.1   c0,0.3-0.1,0.7-0.1,1c0.1,0.6,0.8,1.7,1.3,2.3c0.2,0.3,0.4,0.5,0.6,0.8c1.1,1.6,1.6,3.1,1.7,4.5c0.5-0.5,1.1-0.7,1.8-0.7   c0.5,0,0.9,0.1,1.3,0.4l2,1.2c0.6,0.4,1,0.9,1.2,1.6C811.6,117.1,811.5,117.8,811.2,118.4"/>
	<path class="st2" d="M784.4,113.3c-2.6,0-4.8,1.9-5.3,4.3c-0.2,0-0.5,0-0.7,0c-2.3,0-4.4,1.5-5.1,3.7c-0.8,2.5,0.3,5.1,2.5,6.4   c-0.5,1-0.6,2.1-0.5,3.2c0.2,1.4,1,2.7,2.2,3.5c0.9,0.7,2,1,3.2,1c1.4,0,2.7-0.5,3.6-1.4c1,0.9,2.3,1.5,3.7,1.5   c1.1,0,2.2-0.4,3.2-1c2.1-1.5,2.8-4.3,1.7-6.6c1-0.5,1.7-1.3,2.2-2.3c0.7-1.3,0.8-2.7,0.3-4.1c-0.7-2.2-2.8-3.7-5.1-3.7   c-0.2,0-0.4,0-0.6,0c-0.2-1.1-0.7-2.1-1.5-2.8C787.2,113.8,785.8,113.3,784.4,113.3"/>
	<path class="st1" d="M783.7,113.3c0.1-1.9-0.2-3.7-0.3-4.8c-0.7-4.7-3.3-5.9-7.1-4.8c-1.2,0.3-3.1,1.2-4.6,0.9   c-1.1-0.2-2.1-1-2.5-0.7h0c-0.4,0.3,0,1.5-0.1,2.6c-0.2,1.5-1.6,3.1-2.3,4.1c-2.2,3.3-1.9,6.1,2.3,8.3c1,0.5,2.6,1.3,4.4,1.8   c0.9-1.9,2.8-3.1,4.9-3.1c0.2,0,0.5,0,0.7,0C779.5,115.4,781.4,113.6,783.7,113.3 M786.5,101.1c0.2-0.2,0.3-0.6,0-0.8l-1.6-1.7   c-0.2-0.2-0.6-0.3-0.8,0l-1.7,1.6c-0.2,0.2-0.3,0.6,0,0.8l1.5,2.5c0.2,0.2,0.6,0.3,0.8,0L786.5,101.1z M799.4,118.9   c4.3-2.1,4.6-4.9,2.3-8.3c-0.7-1-2.1-2.5-2.3-4.1c-0.1-1.1,0.3-2.3-0.1-2.6c-0.4-0.3-1.4,0.5-2.5,0.7c-1.5,0.3-3.4-0.6-4.6-0.9   c-3.9-1.1-6.4,0.1-7.1,4.8c-0.2,1.1-0.4,2.8-0.3,4.7c1.3,0.1,2.5,0.6,3.4,1.6c0.8,0.8,1.3,1.8,1.5,2.9c0.2,0,0.4,0,0.6,0   c2.1,0,3.9,1.2,4.8,3C796.9,120.2,798.4,119.4,799.4,118.9 M809.4,117.4c0.2-0.3,0.1-0.6-0.2-0.8l-2-1.2c-0.3-0.2-0.6-0.1-0.8,0.2   l-1.9,2.2c-0.2,0.3-0.1,0.6,0.2,0.8l2.7,1c0.3,0.2,0.6,0.1,0.8-0.2L809.4,117.4 M763.7,118.4c0.3-0.1,0.4-0.5,0.3-0.8l-1.6-2.4   c-0.1-0.3-0.5-0.4-0.8-0.3l-2.1,0.9c-0.3,0.1-0.4,0.5-0.3,0.8l0.9,2.1c0.1,0.3,0.5,0.4,0.8,0.3L763.7,118.4 M796.2,145.2   c-0.1,0.3,0.1,0.6,0.5,0.7l2.3,0.5c0.3,0.1,0.6-0.1,0.7-0.5l0.5-2.3c0.1-0.3-0.1-0.6-0.5-0.7l-2.7-1.1c-0.3-0.1-0.6,0.1-0.7,0.5   L796.2,145.2z M761.8,125.9c0,1.2,0.2,3.3-0.6,4.6c-0.6,1-1.6,1.7-1.5,2.1v0v0c0.2,0.5,1.4,0.4,2.4,0.9c1.4,0.6,2.4,2.5,3.2,3.4   c2.5,3.2,5.3,3.7,8.6,0.3c0.7-0.7,1.9-1.9,2.9-3.4c-0.9-0.8-1.4-1.9-1.6-3.1c-0.2-1.1,0-2.2,0.5-3.2c-2.1-1.2-3.1-3.6-2.6-5.9   c-1.8-0.7-3.5-1-4.6-1.1C763.8,119.8,761.9,121.9,761.8,125.9 M792.8,127.8c1,2.1,0.5,4.6-1.2,6.2c1,1.4,2.1,2.6,2.9,3.3   c3.3,3.4,6.1,2.8,8.6-0.3c0.7-0.9,1.8-2.8,3.2-3.4c1.1-0.5,2.3-0.4,2.4-0.9v0c0.2-0.5-0.9-1.2-1.5-2.1c-0.8-1.3-0.5-3.4-0.6-4.6   c-0.2-4-2.1-6.1-6.7-5.3c-1,0.2-2.7,0.4-4.4,1.1c0.3,1.3,0.2,2.6-0.4,3.8C794.6,126.5,793.8,127.3,792.8,127.8 M768.4,142.5   c-0.3,0-0.6,0.3-0.5,0.6l0.2,2.3c0,0.3,0.3,0.6,0.6,0.5l2.3-0.2c0.3,0,0.6-0.3,0.5-0.7l0.2-2.9c0-0.3-0.3-0.6-0.7-0.5L768.4,142.5    M775.4,138.4c0.5-0.9,1.2-2.4,2.3-3.8c0.9,0.5,1.8,0.8,2.8,0.8c1.4,0,2.7-0.5,3.6-1.4c1,0.9,2.3,1.5,3.7,1.5c1,0,1.9-0.3,2.8-0.8   c1,1.4,1.8,2.8,2.2,3.7c2.2,4.2,0.8,6.7-3,8.1c-1.1,0.4-3.2,0.8-4.2,2c-0.8,0.9-1.1,2.1-1.6,2.1c-0.5,0-0.8-1.2-1.6-2.1   c-1-1.1-3.1-1.6-4.2-2C774.6,145,773.2,142.6,775.4,138.4"/>
	<path class="st1" d="M791.3,126.3c-0.3,0.1-0.6,0.1-0.9,0.2c0,0,0,0,0,0c-0.2,0-0.3,0.1-0.4,0.2c-0.2,0.3-0.1,0.6,0.1,0.8v0   c0.2,0.2,0.4,0.4,0.6,0.6c1.1,1.5,0.8,3.6-0.7,4.7c-1.5,1.1-3.6,0.8-4.7-0.7c-0.2-0.2-0.3-0.5-0.4-0.8h0c-0.1-0.2-0.2-0.3-0.4-0.3   c-0.3-0.1-0.6,0-0.7,0.3h0c-0.1,0.2-0.2,0.5-0.4,0.7c-1.1,1.5-3.2,1.8-4.7,0.7c-1.5-1.1-1.8-3.2-0.7-4.7c0.2-0.2,0.4-0.5,0.6-0.7   c0,0,0,0,0,0c0.1-0.1,0.2-0.3,0.2-0.5c0-0.3-0.2-0.6-0.5-0.6c0,0,0,0,0,0c-0.3,0-0.5-0.1-0.8-0.2c-1.8-0.6-2.7-2.5-2.2-4.2   c0.6-1.8,2.5-2.7,4.2-2.2c0.3,0.1,0.6,0.2,0.8,0.4c0,0,0,0,0,0c0.1,0.1,0.3,0.1,0.5,0.1c0.3-0.1,0.5-0.4,0.4-0.7c0,0,0,0,0,0   c-0.1-0.3-0.1-0.5-0.1-0.8c0-1.9,1.5-3.4,3.4-3.4c1.9,0,3.4,1.5,3.4,3.4c0,0.3,0,0.6-0.1,0.9l0,0c0,0.2,0,0.3,0.1,0.5   c0.2,0.3,0.5,0.3,0.8,0.2v0c0.2-0.1,0.5-0.3,0.7-0.3c1.8-0.6,3.7,0.4,4.2,2.2C794,123.8,793.1,125.7,791.3,126.3"/>
	<path class="st2" d="M787.1,124.9c0-1.5-1.2-2.6-2.6-2.6c-1.5,0-2.6,1.2-2.6,2.6c0,1.5,1.2,2.6,2.6,2.6   C786,127.5,787.1,126.4,787.1,124.9"/>
</g>
<path d="M247.1,66.7c0-10.6,3.1-20.3,10.7-26.5c5.8-4.7,13.8-7.3,21.8-7.3c7.7,0,14.5,2.4,19.8,6c0,0,7.1,4.4,7.1,12.1  c0,3.8-3,6.9-6.7,6.9c-3.7,0-6.4-2.9-6.2-6.9c0.1-1.9,0.4-5-0.8-7.4c-3.1-6.3-11.9-6-11.9-6c-12.9,0-18.5,12.9-18.5,28.8  c0,21.1,11.6,28.8,21.5,28.8c0,0,11.2,0.2,20.8-12.4l4,2.6c-6,9.1-16.3,15.2-28,15.2C262.1,100.4,247.1,85.3,247.1,66.7z   M273.7,133.5H248v3.4l9.6,2.6l-15.3,42.7l-15.8-42.8l9-2.4v-3.7h-29.7v3.6l7.8,2.2l21.8,53.9h7.1l22.8-53.7l8.6-2.3V133.5z   M85.7,115.8L85.7,115.8c0,0,0-0.1,0-0.1l10.9-2.9v-4.2H66.9v3.8l11.8,3.1v54.5c0,0,0.9,18.3-23.3,18.3c-24.1,0-24.1-15.9-24.1-18.3  c0-2.2,0-45.8,0-54.4l12-3.3v-3.7H7.3v3.8l11.7,3.1v53.6c0,0-2,25.4,34.3,25.4c34.5,0,32.3-23.9,32.3-23.9V115.8z M563.6,136.9  l10.5,2.9l-15.7,41.7l-17-42.2l8.6-2.4v-3.6h-29v3.8l8,2.2l23.4,57.7c-1.5,2.8-3,5.7-4.5,8.5c-1.8,3.4-5.5,8.9-9.8,9.3  c-3.9,0.4-5-4.4-8.1-6.1c-5.6-3.1-10.9,4.4-7.1,9.2c1.9,2.3,5.1,3.7,8,3.9c3.2,0.2,6.5-0.4,9.4-1.7c1.6-0.7,3.2-1.7,4.5-2.9  c2.7-2.4,4.7-5.4,6.4-8.6c2.8-5.3,5.4-10.5,7.7-15.9c2-4.7,3.9-9.4,5.9-14.1c2.4-5.7,4.8-11.4,7.2-17.1c2.1-4.9,4.1-9.9,6.2-14.8  c1-2.4,2-4.8,3-7.1c0-0.1,0-0.1,0.1-0.2l8.5-2.3v-3.8h-26.4V136.9z M86.7,70.5l-3.2-1.2v0L82.9,69C74,84.5,56.3,93.9,44.6,93.9  c0,0-12.2,0.6-12.2-10.3h0V14.5l11.7-3.3l0.1-3h-37v3.5l11.1,2.9v76.9l-11.2,3V99H76L86.7,70.5z M174.5,91.4l-11.1,3.6v4h35.1v-4  l-11.2-3.6V50.6l0-0.1c3.1-2.4,6.4-4.6,9.9-6.5c4.3-2.3,10-5,15-4.2c2.6,0.4,5.5,2.2,7,4.3c2.3,3.1,3.1,7.4,3.1,11.2l-0.1,35.9  c0-0.3,0,0.3,0,0.3l-11.1,3.4V99h35.4l0-4l-11-3.6v-41c0-4.6-1.6-8.8-5.1-11.8c-3.7-3.1-8.4-4.7-13.2-5.3c-8.6-1-16.9,2-24,6.6  c-2,1.3-4,2.7-6,4.2v-9.7h-4.7l-19.7,5.2v3.9h11.6V91.4z M222.2,91.1c0,0,0,0.1,0,0.2V91.1z M148,185.7c0,0,0,0.1,0,0.2V185.7z   M160.2,185.8v-37.6c0-4.2-1.4-8.1-4.7-10.8c-3.4-2.9-7.8-4.3-12.1-4.8c-7.9-0.9-15.5,1.8-22,6.1c-1.9,1.2-3.7,2.5-5.5,3.8v-8.9  h-4.3l-18.1,4.8v3.6h10.6v43.9l-10.2,3.3v3.7h32.3v-3.7l-10.3-3.3v-37.5l0-0.1c2.8-2.2,5.9-4.3,9.1-5.9c4-2.1,9.1-4.6,13.8-3.9  c2.3,0.4,5,2,6.4,3.9c2.1,2.9,2.8,6.8,2.8,10.3l0,32.9c0-0.2,0,0.3,0,0.3l-10.2,3.2v3.7h32.5l0-3.8L160.2,185.8z M417.1,58.4  c-9.9-1.9-17.9-4.5-17.9-11.1c0-8,9.6-8.7,13.6-8.5c18.3,0.7,23.3,16,23.3,16h4.1L436,34.5h-3.7l-1.3,4.4c-3.2-2.1-9.9-5.8-17.9-5.8  c-16.1,0-25.4,9.4-25.4,19.7c0,10.3,13.2,14.6,23.2,17.5c9.7,2.8,22.6,3.3,22.6,12.9c0,11.7-15.9,11.4-15.9,11.4  c-21.6,0-27.2-19.2-27.2-19.2H386l4.3,23.6h4.3l1.6-5.3c0,0,10.8,6.3,22.1,6.3c16.1,0,27-10.5,27-21.7  C445.1,63.1,427.4,60.4,417.1,58.4z M507,189c-5.1,0-8.6-4-9.3-8.2c-0.3-1.8-0.2-5-0.2-7.9l0-35.7h17.6v-3.9h-17.6v-22.7H492  c0,0,0.3,10.1-4.7,17.3c-3.8,5.5-11.5,5.8-11.5,5.8v3.8h9.7v36.4c0,2.9,0,5.6,0,7.4c0,8,7.8,12.6,16.6,12.6  c11.3,0,15.9-4.9,18.9-8.1l-3.1-2.6C514.4,186.2,511.3,189,507,189z M455.7,78.1c0,3.1,0,6.1,0,8c0,8.7,8.4,13.7,17.9,13.7  c11.1,0,16.2-4.4,19.5-7.8c-0.9-1.2-1.8-2.4-2.6-3.6c-3.7,3.1-7,6-11.6,6c-5.6,0-9.3-4.3-10-8.8c-0.3-1.9-0.2-5.4-0.2-8.6l0-38.4  h19.1v-4.4h-19.1V9.7h-6.1c0,0,0.3,10.9-5.1,18.7c-4.1,5.9-12.4,6.2-12.4,6.2v4.1h10.5V78.1z M490.3,66.7c0-11.1,4.5-21.5,12.8-27.5  c5.4-4,11.9-5.8,19.1-5.8c15.9,0,27.9,10.8,28.8,27.2h-46.8c0,0-4.9,33.5,21.5,33.5c0,0,13.8,0.6,20.5-12.1l4.1,2  c-3.3,9.4-14.5,16-26.4,16C505.6,100,490.3,85.1,490.3,66.7z M504.6,54.9H537c-0.5-10.1-6.9-16.7-15.9-16.7  C513.8,38.2,504.6,42.5,504.6,54.9z M285.6,157.6c0,0-4.5,30.9,19.9,30.9c0,0,12.7,0.5,18.9-11.2l3.8,1.8  c-3.1,8.7-13.4,14.8-24.4,14.8c-16.8,0-30.9-13.8-30.9-30.8c0-10.3,4.1-19.8,11.8-25.4c5-3.7,10.9-5.4,17.6-5.4  c14.7,0,25.7,10,26.6,25.2H285.6z M286,152.4H316c-0.5-9.3-6.4-15.4-14.7-15.4C294.6,137,286,140.9,286,152.4z M604.4,33.6  L604.4,33.6c-0.1,0-0.1,0-0.2-0.1c-0.1,0-0.1,0-0.2,0c-13.5-3-24,8.1-26.2,10.8v-9.7h-5.3l-19.3,5.2v3.9h11.6v48.5l-11.2,3V99h36.2  v-3.8l-12-3.1V50.2c0.8-0.8,6.9-7.2,12.1-7.2c5.9,0,6.1,3.8,12,4.4c0,0,0.1,0,0.1,0c0,0,0,0,0,0v0c0.2,0,0.4,0,0.6,0  c3.9,0,7-3.2,7-7C609.7,37.1,607.4,34.4,604.4,33.6z M380.4,132.7L380.4,132.7c-0.1,0-0.1,0-0.2,0c-0.1,0-0.1,0-0.2,0  c-12.4-2.7-22.1,7.5-24.1,9.9v-9H351l-17.7,4.8v3.6h10.7v44.6l-10.3,2.8v3.6h33.3v-3.6l-11-2.9V148c0.7-0.8,6.3-6.6,11.1-6.6  c5.5,0,5.6,3.5,11,4c0,0,0.1,0,0.1,0c0,0,0,0,0,0c0.2,0,0.4,0,0.6,0c3.6,0,6.5-2.9,6.5-6.5C385.2,136,383.2,133.4,380.4,132.7z   M196.8,133.5l-21.9,2.3v4.9h10.3v45.2l-10.6,3.3l0,3.8H207v-3.8l-10.2-3.3V133.5z M191.7,112.5c-4.1,0-7.4,3.3-7.4,7.4  c0,4.1,3.3,7.4,7.4,7.4c4.1,0,7.4-3.3,7.4-7.4C199.1,115.8,195.8,112.5,191.7,112.5z M467.8,133.5l-21.9,2.3v4.9h10.3v45.2  l-10.4,3.3v3.8H478v-3.8l-10.2-3.3V133.5z M454.9,119.9c0,4.1,3.3,7.4,7.4,7.4c4.1,0,7.4-3.3,7.4-7.4c0-4.1-3.3-7.4-7.4-7.4  C458.2,112.5,454.9,115.8,454.9,119.9z M358.4,61.4l0-12.8c0-9.7-10.4-10-14.9-10c-3.6,0-10.4,0.2-13.7,4.3c-1.8,2.2-1.2,6.2-1.1,8  c0.2,3.9-2.5,6.9-6.2,6.9c-3.7,0-6.7-3.1-6.7-6.9c0-7.7,7.1-12.1,7.1-12.1c5.4-3.6,14.6-5.5,22.3-5.5c8,0,14.7,1.6,20.7,6.1  c3,2.3,5.4,6.2,5.4,14.2c0,10.5,0,37.7,0,37.7l12.8,3.5l0.7,4H366l-7.6-8.3c0,0-10.9,9.2-24.6,9.2c-13.7,0-20-7.4-20-14.2  c0,0-2.3-14.1,18.1-20.2c3.8-1.1,7.3-1.8,10.2-2.4C353,61.2,358.4,61.4,358.4,61.4z M358.3,66c0,0-12.8,0.4-21.5,4.2  c-6.6,2.9-10.2,7.9-9.9,13.9c0.2,3.6,4.1,9.7,13.4,9.1c9.2-0.6,18-8.6,18-8.6V66z M416.1,155.3c-9.1-1.7-16.5-4.2-16.5-10.3  c0-7.4,8.8-8,12.5-7.9c16.9,0.6,21.5,14.8,21.5,14.8h3.8l-3.8-18.7h-3.4l-1.2,4c-2.9-2-9.1-5.4-16.6-5.4c-14.9,0-23.5,8.7-23.5,18.2  c0,9.5,12.2,13.5,21.4,16.1c8.9,2.6,20.9,3.1,20.9,11.9c0,10.8-14.7,10.6-14.7,10.6c-19.9,0-25.1-17.8-25.1-17.8h-4.2l3.9,21.8h4  l1.4-4.9c0,0,9.9,5.9,20.4,5.9c14.9,0,24.9-9.7,24.9-20.1C442,159.6,425.7,157.1,416.1,155.3z M134.3,61.4l0-12.8  c0-9.7-10.4-10-14.9-10c-3.6,0-10.4,0.2-13.7,4.3c-1.8,2.2-1.2,6.2-1.1,8c0.2,3.9-2.5,6.9-6.2,6.9c-3.7,0-6.7-3.1-6.7-6.9  c0-7.7,7.1-12.1,7.1-12.1c5.4-3.6,14.6-5.5,22.3-5.5c8,0,14.7,1.6,20.7,6.1c3,2.3,5.4,6.2,5.4,14.2c0,10.5,0,37.7,0,37.7l12,3.3v4.2  h-17.3l-7.6-8.3c0,0-10.9,9.2-24.6,9.2c-13.7,0-20-7.4-20-14.2c0,0-2.3-14.1,18.1-20.2c3.8-1.1,7.3-1.8,10.2-2.4  C128.9,61.2,134.3,61.4,134.3,61.4z M134.1,66c0,0-12.8,0.4-21.5,4.2c-6.6,2.9-10.2,7.9-9.9,13.9c0.2,3.6,4.1,9.7,13.4,9.1  c9.2-0.6,18-8.6,18-8.6V66z"/>
<g>
	<path class="st2" d="M811.1,177.8c-4.9,1.4-10.8,2.3-19.3,2.3c-7.5,0-13-0.8-17.6-1.9c-3.4-0.8-6.4-1.9-9.2-3   c-4.3-1.7-8.5-3.6-13.9-5.1c-5.4-1.5-11.9-2.5-20.7-2.5c-7.9,0-13.9,0.8-18.9,2c-3.8,0.9-7,2.1-9.9,3.3c-4.5,1.8-8.4,3.6-13.3,5   c-4.9,1.4-10.8,2.3-19.3,2.3c-7.5,0-13-0.8-17.6-1.9c-3.2-0.8-6-1.8-8.7-2.8c1,2.3,2.1,4.5,3.2,6.8c0.8,0.2,1.6,0.5,2.4,0.7   c5.4,1.5,11.9,2.5,20.7,2.5c7.9,0,13.9-0.8,18.9-2c3.8-0.9,7-2.1,9.9-3.3c4.5-1.8,8.4-3.6,13.3-4.9c4.9-1.4,10.8-2.3,19.3-2.3   c7.5,0,13,0.8,17.6,1.9c3.4,0.8,6.4,1.9,9.2,3c4.3,1.7,8.5,3.6,13.9,5.1c5.4,1.5,11.9,2.5,20.7,2.5c7.9,0,13.9-0.8,18.9-2   c1.5-0.4,2.8-0.8,4.2-1.2c1.1-2.3,2.2-4.5,3.2-6.8C815.8,176.3,813.6,177.1,811.1,177.8z"/>
	<path class="st2" d="M791.8,169.5c-7.5,0-13-0.8-17.6-1.9c-3.4-0.8-6.4-1.9-9.2-3c-4.3-1.7-8.5-3.6-13.9-5.1   c-5.4-1.5-11.9-2.5-20.7-2.5c-7.9,0-13.9,0.8-18.9,2c-3.8,0.9-7,2.1-9.9,3.3c-4.5,1.8-8.4,3.6-13.3,4.9c-4.9,1.4-10.8,2.3-19.3,2.3   c-7.5,0-13-0.8-17.6-1.9c-3.4-0.8-6.4-1.9-9.2-3c-1.5-0.6-3-1.2-4.6-1.9c0.8,2.2,1.7,4.5,2.6,6.8c2.5,1,5.1,2,8.1,2.8   c5.4,1.5,11.9,2.5,20.7,2.5c7.9,0,13.9-0.8,18.9-2c3.8-0.9,7-2.1,9.9-3.3c4.5-1.8,8.4-3.6,13.3-4.9c4.9-1.4,10.8-2.3,19.3-2.3   c7.5,0,13,0.8,17.6,1.9c3.4,0.8,6.4,1.9,9.2,3c4.3,1.7,8.5,3.6,13.9,5.1c5.4,1.5,11.9,2.5,20.7,2.5c7.9,0,13.9-0.8,18.9-2   c3.7-0.9,6.9-2.1,9.9-3.2c0.9-2.3,1.8-4.6,2.6-6.8c-4,1.6-7.6,3.2-12.1,4.4C806.1,168.5,800.2,169.5,791.8,169.5z"/>
	<path class="st2" d="M635.9,157.5c3.8,1.6,7.7,3.2,12.4,4.6c5.4,1.5,11.9,2.5,20.7,2.5c7.9,0,13.9-0.8,18.9-2   c3.8-0.9,7-2.1,9.9-3.3c4.5-1.8,8.4-3.6,13.3-4.9c4.9-1.4,10.8-2.3,19.3-2.3c7.5,0,13,0.8,17.6,1.9c3.4,0.8,6.4,1.9,9.2,3   c4.3,1.7,8.5,3.6,13.9,5.1c5.4,1.5,11.9,2.5,20.7,2.5c7.9,0,13.9-0.8,18.9-2c3.8-0.9,7-2.1,9.9-3.3c1.5-0.6,2.9-1.2,4.3-1.7   c0.7-2.2,1.3-4.3,1.9-6.5c-0.8,0.3-1.6,0.6-2.4,0.9c-4.5,1.8-8.4,3.6-13.3,4.9c-4.9,1.4-10.8,2.3-19.3,2.3c-7.5,0-13-0.8-17.6-1.9   c-3.4-0.8-6.4-1.9-9.2-3c-4.3-1.7-8.5-3.6-13.9-5.1c-5.4-1.5-11.9-2.5-20.7-2.5c-7.9,0-13.9,0.8-18.9,2c-3.8,0.9-7,2.1-9.9,3.3   c-4.5,1.8-8.4,3.6-13.3,4.9c-4.9,1.4-10.8,2.3-19.3,2.3c-7.5,0-13-0.8-17.6-1.9c-3.4-0.8-6.4-1.9-9.2-3c-2.7-1.1-5.3-2.2-8.3-3.3   C634.5,153.1,635.1,155.3,635.9,157.5z"/>
</g>
<rect x="627.7" y="88.9" class="st2" width="205.3" height="2.7"/>
</svg>