<?xml version="1.0" encoding="utf-8"?>
<!-- Generator: Adobe Illustrator 26.0.1, SVG Export Plug-In . SVG Version: 6.00 Build 0)  -->
<svg version="1.1" xmlns="http://www.w3.org/2000/svg" xmlns:xlink="http://www.w3.org/1999/xlink" x="0px" y="0px"
	 viewBox="0 0 368.5 266.5" style="enable-background:new 0 0 368.5 266.5;" xml:space="preserve">
<style type="text/css">
	.st0{fill:none;stroke:#FFFFFF;stroke-width:0.75;stroke-miterlimit:10;}
	.st1{fill:#182B43;stroke:#305076;stroke-width:0.7429;stroke-miterlimit:10;}
	.st2{fill:#182B43;stroke:#305076;stroke-width:0.75;stroke-miterlimit:10;}
	.st3{fill:#363E48;stroke:#616E7D;stroke-width:0.75;stroke-miterlimit:10;}
	.st4{fill:#2C3239;stroke:#616E7D;stroke-width:0.75;stroke-miterlimit:10;}
	.st5{fill:#213A51;stroke:#5B85BD;stroke-width:0.75;stroke-miterlimit:10;}
	.st6{fill:#511A3B;stroke:#BD3E7E;stroke-width:0.75;stroke-miterlimit:10;}
	.st7{fill:#402E25;stroke:#784928;stroke-width:0.75;stroke-miterlimit:10;}
	.st8{fill:#275143;stroke:#5EBCA5;stroke-width:0.75;stroke-miterlimit:10;}
	.st9{fill:none;}
	.st10{fill:#F18435;}
	.st11{font-family:'Arial';}
	.st12{font-size:9px;}
	.st13{fill:#B2CAE0;}
	.st14{fill:#D25098;}
	.st15{fill:#81B8E5;}
	.st16{fill:#7CC6B4;}
	.st17{fill:none;stroke:#6BA0D6;stroke-width:0.75;stroke-linecap:square;stroke-miterlimit:10;}
	.st18{fill:#6BA0D6;}
	.st19{fill:none;stroke:#EE7386;stroke-width:0.75;stroke-linecap:square;stroke-miterlimit:10;}
	.st20{fill:#EE7386;}
	.st21{fill:#275143;}
	.st22{fill:#5EBCA5;stroke:#5EBCA5;stroke-width:0.75;stroke-miterlimit:10;}
	.st23{fill:#511A3B;}
	.st24{fill:none;stroke:#5EBCA5;stroke-width:0.75;stroke-miterlimit:10;}
	.st25{fill:none;stroke:#BD3E7E;stroke-width:0.75;stroke-miterlimit:10;}
	.st26{fill:#FFFFFF;}
	.st27{fill:none;stroke:#FFFFFF;stroke-width:0.75;stroke-linecap:square;stroke-miterlimit:10;}
	.st28{fill:none;stroke:#FFFFFF;stroke-miterlimit:10;}
	.st29{fill:#15140F;stroke:#FFFFFF;stroke-width:0.75;stroke-miterlimit:10;}
	.st30{fill:none;stroke:#5EBCA5;stroke-width:0.75;stroke-linecap:square;stroke-miterlimit:10;}
	.st31{fill:#5EBCA5;}
	.st32{fill:#3F3B1E;stroke:#77671A;stroke-width:0.75;stroke-miterlimit:10;}
	.st33{fill:#FAC907;}
	.st34{font-size:8px;}
	.st35{fill:#EDEDED;}
	.st36{fill:none;stroke:#778899;stroke-width:0.75;stroke-linecap:square;stroke-miterlimit:10;}
	.st37{fill:#778899;}
	.st38{fill:none;stroke:#F18336;stroke-width:0.75;stroke-linecap:square;stroke-miterlimit:10;}
	.st39{fill:#F18336;}
	.st40{fill:#0d1933;stroke:#032b59;stroke-width:0.75;stroke-miterlimit:10;}
	.st41{fill:#49668A;}
	.st42{fill:#9E4D3E;}
	.st43{fill:#1D335A;}
	.st44{fill:#ED6F25;}
</style>
<line class="st0" x1="289.1" y1="11.3" x2="283.5" y2="11.3"/>
<rect x="22.7" y="150.2" class="st1" width="136.1" height="73.7"/>
<rect x="22.7" y="93.5" class="st2" width="136.1" height="56.7"/>
<g>
	<rect x="22.7" y="2.8" class="st3" width="136.1" height="45.4"/>
	<rect x="22.7" y="48.2" class="st3" width="136.1" height="39.7"/>
</g>
<rect x="209.8" y="127.6" class="st3" width="136.1" height="96.4"/>
<rect x="215.4" y="150.2" class="st4" width="124.7" height="17"/>
<rect x="215.4" y="167.2" class="st5" width="124.7" height="17"/>
<rect x="215.4" y="184.3" class="st6" width="124.7" height="17"/>
<rect x="215.4" y="133.2" class="st7" width="124.7" height="17"/>
<rect x="215.4" y="201.3" class="st8" width="124.7" height="17"/>
<g>
	<rect x="215.4" y="133.2" class="st9" width="124.7" height="17"/>
	<text transform="matrix(1 0 0 1 254.0624 144.7727)" class="st10 st11 st12">Application</text>
</g>
<rect x="215.4" y="150.2" class="st9" width="124.7" height="17"/>
<text transform="matrix(1 0 0 1 231.1151 161.7805)" class="st13 st11 st12">App-specific Libraries</text>
<rect x="215.4" y="184.3" class="st9" width="124.7" height="17"/>
<text transform="matrix(1 0 0 1 224.8382 195.7964)" class="st14 st11 st12">Platform-specific Drivers</text>
<rect x="215.4" y="167.2" class="st9" width="124.7" height="17"/>
<text transform="matrix(1 0 0 1 226.0912 178.7885)" class="st15 st11 st12">Kernel-specific Libraries</text>
<rect x="215.4" y="201.3" class="st9" width="124.7" height="17"/>
<text transform="matrix(1 0 0 1 225.7651 212.8043)" class="st16 st11 st12">Hardware-specific Code</text>
<line class="st0" x1="272.1" y1="11.3" x2="266.5" y2="11.3"/>
<g>
	<g>
		<polyline class="st17" points="209.2,39.7 189.9,39.7 189.9,45.4 178.6,45.4 178.6,147.4 167.2,147.4 		"/>
		<g>
			<path class="st18" d="M212.6,39.7c-1.6-0.6-3.6-1.6-4.8-2.7l1,2.7l-1,2.7C209,41.3,211,40.3,212.6,39.7z"/>
		</g>
	</g>
</g>
<g>
	<g>
		<polyline class="st19" points="212,45.4 195.6,45.4 195.6,51 184.3,51 184.3,192.8 167.2,192.8 		"/>
		<g>
			<path class="st20" d="M215.4,45.4c-1.6-0.6-3.6-1.6-4.8-2.7l1,2.7l-1,2.7C211.9,47,213.8,45.9,215.4,45.4z"/>
		</g>
	</g>
</g>
<line class="st0" x1="277.8" y1="17" x2="277.8" y2="34"/>
<path class="st21" d="M210.5,246.6c0.4,2.6,0.8,5.1,0.7,8.5c-0.1,2.9-0.6,5.8-1.4,8.5h134.6c0.8-2.7,1.3-5.6,1.4-8.5
	c0.1-3.4-0.3-5.9-0.7-8.5H210.5z"/>
<line class="st22" x1="209.8" y1="263.6" x2="344.4" y2="263.6"/>
<path class="st23" d="M345.1,246.6c-0.4-2.6-0.8-5.1-0.7-8.5c0.1-2.9,0.6-5.8,1.4-8.5H211.2c-0.8,2.7-1.3,5.6-1.4,8.5
	c-0.1,3.4,0.3,5.9,0.7,8.5H345.1z"/>
<line class="st24" x1="210.5" y1="246.6" x2="345.1" y2="246.6"/>
<line class="st25" x1="345.8" y1="229.6" x2="211.2" y2="229.6"/>
<g>
	<g>
		<line class="st0" x1="277.8" y1="99.2" x2="277.8" y2="101.5"/>
		<g>
			<path class="st26" d="M277.8,104.9c-0.6-1.6-1.6-3.6-2.7-4.8l2.7,1l2.7-1C279.4,101.3,278.4,103.3,277.8,104.9z"/>
		</g>
	</g>
</g>
<g>
	<g>
		<line class="st0" x1="277.8" y1="76.5" x2="277.8" y2="78.8"/>
		<g>
			<path class="st26" d="M277.8,82.2c-0.6-1.6-1.6-3.6-2.7-4.8l2.7,1l2.7-1C279.4,78.6,278.4,80.6,277.8,82.2z"/>
		</g>
	</g>
</g>
<line class="st0" x1="272.1" y1="39.7" x2="269.3" y2="39.7"/>
<line class="st0" x1="300.5" y1="39.7" x2="283.5" y2="39.7"/>
<path class="st27" d="M351.5,127.6c0.8,0,1.4,0.6,1.4,1.4v45.4c0,0.8,0.6,1.4,1.4,1.4c-0.8,0-1.4,0.6-1.4,1.4v45.4
	c0,0.8-0.6,1.4-1.4,1.4"/>
<circle class="st28" cx="277.8" cy="39.7" r="5.7"/>
<g>
	<line class="st29" x1="277.8" y1="36.9" x2="277.8" y2="42.5"/>
	<line class="st0" x1="275" y1="39.7" x2="280.6" y2="39.7"/>
</g>
<rect x="218.3" y="36.9" class="st8" width="42.5" height="17"/>
<g>
	<g>
		<polyline class="st30" points="214.9,51 201.3,51 201.3,56.7 189.9,56.7 189.9,209.8 167.2,209.8 		"/>
		<g>
			<path class="st31" d="M218.3,51c-1.6-0.6-3.6-1.6-4.8-2.7l1,2.7l-1,2.7C214.7,52.6,216.7,51.6,218.3,51z"/>
		</g>
	</g>
</g>
<rect x="215.4" y="33.1" class="st6" width="42.5" height="17"/>
<rect x="212.6" y="29.3" class="st5" width="42.5" height="17"/>
<rect x="209.8" y="25.5" class="st3" width="42.5" height="17"/>
<path class="st27" d="M266.5,25.5c0.8,0,1.4,0.6,1.4,1.4v11.3c0,0.8,0.6,1.4,1.4,1.4c-0.8,0-1.4,0.6-1.4,1.4v11.3
	c0,0.8-0.6,1.4-1.4,1.4"/>
<rect x="289.1" y="2.8" class="st32" width="53.9" height="17"/>
<g>
	<rect x="289.1" y="2.8" class="st9" width="53.9" height="17"/>
	<text transform="matrix(1 0 0 1 292.0627 14.1529)" class="st33 st11 st34">Build Config.</text>
</g>
<rect x="212.6" y="2.8" class="st7" width="53.9" height="17"/>
<g>
	<rect x="212.6" y="2.8" class="st9" width="53.9" height="17"/>
	<text transform="matrix(1 0 0 1 229.7601 14.3794)" class="st10 st11 st12">App.</text>
</g>
<circle class="st28" cx="277.8" cy="11.3" r="5.7"/>
<g>
	<line class="st29" x1="277.8" y1="8.5" x2="277.8" y2="14.2"/>
	<line class="st0" x1="275" y1="11.3" x2="280.6" y2="11.3"/>
</g>
<rect x="215.4" y="104.9" class="st9" width="124.7" height="17"/>
<text transform="matrix(1 0 0 1 269.1147 116.427)" class="st26 st11 st12">Link</text>
<rect x="215.4" y="82.2" class="st9" width="124.7" height="17"/>
<text transform="matrix(1 0 0 1 260.4276 93.7499)" class="st26 st11 st12">Compile</text>
<rect x="215.4" y="59.5" class="st9" width="124.7" height="17"/>
<text transform="matrix(1 0 0 1 261.0673 71.0728)" class="st26 st11 st12">Prepare</text>
<rect x="209.8" y="25.5" class="st9" width="42.5" height="17"/>
<text transform="matrix(1 0 0 1 219.7991 37.0572)" class="st35 st11 st12">libOS</text>
<rect x="354.3" y="127.6" class="st9" width="17" height="96.4"/>
<text transform="matrix(0 -1 1 0 365.8755 210.1159)" class="st26 st11 st12">Unikernel Image</text>
<path class="st23" d="M158,246.6c-0.4-2.6-0.8-5.1-0.7-8.5c0.1-2.9,0.6-5.8,1.4-8.5H24.1c-0.8,2.7-1.3,5.6-1.4,8.5
	c-0.1,3.4,0.3,5.9,0.7,8.5H158z"/>
<line class="st25" x1="158.7" y1="229.6" x2="24.1" y2="229.6"/>
<path class="st21" d="M158,246.6L158,246.6l-134.6,0l0,0h0c0.4,2.6,0.8,5.1,0.7,8.5c0,0.2,0,0.4,0,0.7h0c-0.1,2.7-0.6,5.3-1.3,7.8
	h134.6c0.8-2.5,1.2-5.1,1.3-7.8h0h0c0-0.2,0-0.4,0-0.7C158.8,251.8,158.4,249.2,158,246.6L158,246.6z"/>
<line class="st24" x1="22.7" y1="263.6" x2="157.3" y2="263.6"/>
<polyline class="st24" points="158,246.6 158,246.6 158,246.6 23.4,246.6 23.4,246.6 23.4,246.6 "/>
<rect x="28.3" y="8.5" class="st32" width="124.7" height="17"/>
<rect x="28.3" y="25.5" class="st7" width="124.7" height="17"/>
<path class="st17" d="M164.4,110.6c0.8,0,1.4,0.6,1.4,1.4v34c0,0.8,0.6,1.4,1.4,1.4c-0.8,0-1.4,0.6-1.4,1.4v34
	c0,0.8-0.6,1.4-1.4,1.4"/>
<path class="st30" d="M164.4,201.3c0.8,0,1.4,0.6,1.4,1.4v5.7c0,0.8,0.6,1.4,1.4,1.4c-0.8,0-1.4,0.6-1.4,1.4v5.7
	c0,0.8-0.6,1.4-1.4,1.4"/>
<path class="st27" d="M14.2,225.4c-0.8,0-1.4-0.6-1.4-1.4V116.2c0-0.8-0.6-1.4-1.4-1.4c0.8,0,1.4-0.6,1.4-1.4V4.3
	c0-0.8,0.6-1.4,1.4-1.4"/>
<g>
	<g>
		
			<rect x="141.7" y="116.2" transform="matrix(6.123234e-17 -1 1 6.123234e-17 31.1811 269.2913)" class="st5" width="17" height="5.7"/>
		<g>
			<line class="st5" x1="147.4" y1="116.2" x2="153.1" y2="121.9"/>
			<line class="st5" x1="147.4" y1="113.2" x2="153.1" y2="119.1"/>
			<line class="st5" x1="147.4" y1="110.6" x2="153.1" y2="116.2"/>
			<line class="st5" x1="150.2" y1="110.6" x2="153.1" y2="113.4"/>
			<line class="st5" x1="147.4" y1="124.7" x2="150.2" y2="127.6"/>
			<line class="st5" x1="147.4" y1="121.9" x2="153.1" y2="127.6"/>
			<line class="st5" x1="147.4" y1="119.1" x2="153.1" y2="124.7"/>
		</g>
	</g>
	
		<rect x="34" y="104.9" transform="matrix(-1.836970e-16 1 -1 -1.836970e-16 161.5747 76.5355)" class="st5" width="17" height="28.3"/>
	
		<rect x="130.4" y="121.9" transform="matrix(6.123234e-17 -1 1 6.123234e-17 2.8347 274.9607)" class="st5" width="17" height="28.3"/>
	
		<rect x="90.7" y="124.7" transform="matrix(6.123234e-17 -1 1 6.123234e-17 -36.8503 235.2756)" class="st5" width="17" height="22.7"/>
	
		<rect x="75.1" y="131.8" transform="matrix(6.123234e-17 -1 1 6.123234e-17 -52.4409 219.6851)" class="st5" width="17" height="8.5"/>
	
		<rect x="53.9" y="121.9" transform="matrix(6.123234e-17 -1 1 6.123234e-17 -73.7008 198.4252)" class="st5" width="17" height="28.3"/>
	<rect x="35.4" y="131.8" transform="matrix(6.123234e-17 -1 1 6.123234e-17 -92.126 180)" class="st5" width="17" height="8.5"/>
	
		<rect x="25.5" y="130.4" transform="matrix(6.123234e-17 -1 1 6.123234e-17 -102.0472 170.0787)" class="st5" width="17" height="11.3"/>
	<g>
		<line class="st5" x1="36.9" y1="110.6" x2="53.9" y2="127.6"/>
		<line class="st5" x1="39.7" y1="110.6" x2="56.7" y2="127.6"/>
		<line class="st5" x1="42.5" y1="110.6" x2="56.7" y2="124.9"/>
		<line class="st5" x1="45.4" y1="110.6" x2="56.7" y2="122.1"/>
		<line class="st5" x1="28.3" y1="113.5" x2="42.5" y2="127.6"/>
		<line class="st5" x1="28.3" y1="110.6" x2="45.4" y2="127.6"/>
		<line class="st5" x1="31.2" y1="110.6" x2="48.2" y2="127.6"/>
		<line class="st5" x1="34" y1="110.6" x2="51" y2="127.6"/>
		<line class="st5" x1="28.3" y1="124.9" x2="31.2" y2="127.6"/>
		<line class="st5" x1="28.3" y1="122.1" x2="34" y2="127.6"/>
		<line class="st5" x1="28.3" y1="119.2" x2="36.9" y2="127.6"/>
		<line class="st5" x1="28.3" y1="116.4" x2="39.7" y2="127.6"/>
		<line class="st5" x1="48.2" y1="110.6" x2="56.7" y2="119.2"/>
		<line class="st5" x1="51" y1="110.6" x2="56.7" y2="116.4"/>
		<line class="st5" x1="53.9" y1="110.6" x2="56.7" y2="113.5"/>
	</g>
	<g>
		<line class="st5" x1="39.7" y1="130.6" x2="48.2" y2="138.9"/>
		<line class="st5" x1="39.7" y1="127.6" x2="48.2" y2="136.1"/>
		<line class="st5" x1="42.5" y1="127.6" x2="48.2" y2="133.2"/>
		<line class="st5" x1="45.4" y1="127.6" x2="48.2" y2="130.4"/>
		<line class="st5" x1="39.7" y1="141.9" x2="42.5" y2="144.6"/>
		<line class="st5" x1="39.7" y1="139.1" x2="45.4" y2="144.6"/>
		<line class="st5" x1="39.7" y1="136.2" x2="48.2" y2="144.6"/>
		<line class="st5" x1="39.7" y1="133.4" x2="48.2" y2="141.7"/>
	</g>
	<g>
		
			<rect x="69.4" y="134.6" transform="matrix(6.123234e-17 -1 1 6.123234e-17 -58.1102 214.0157)" class="st5" width="17" height="2.8"/>
		<g>
			<line class="st5" x1="76.5" y1="130.6" x2="79.4" y2="133.2"/>
			<line class="st5" x1="76.5" y1="127.6" x2="79.4" y2="130.4"/>
			<line class="st5" x1="76.5" y1="141.9" x2="79.4" y2="144.6"/>
			<line class="st5" x1="76.5" y1="139.1" x2="79.4" y2="141.7"/>
			<line class="st5" x1="76.5" y1="136.2" x2="79.4" y2="138.9"/>
			<line class="st5" x1="76.5" y1="133.4" x2="79.4" y2="136.1"/>
		</g>
	</g>
	<rect x="52.4" y="114.8" transform="matrix(6.123234e-17 -1 1 6.123234e-17 -58.1102 180)" class="st5" width="17" height="8.5"/>
	
		<rect x="87.9" y="113.4" transform="matrix(6.123234e-17 -1 1 6.123234e-17 -22.6772 215.4331)" class="st5" width="17" height="11.3"/>
	<g>
		
			<rect x="102" y="110.6" transform="matrix(-1.836970e-16 1 -1 -1.836970e-16 229.6063 8.5039)" class="st5" width="17" height="17"/>
		<g>
			<line class="st5" x1="110.6" y1="110.6" x2="119.1" y2="119.1"/>
			<line class="st5" x1="113.4" y1="110.6" x2="119.1" y2="116.2"/>
			<line class="st5" x1="116.2" y1="110.6" x2="119.1" y2="113.5"/>
			<line class="st5" x1="102" y1="113.5" x2="116.2" y2="127.6"/>
			<line class="st5" x1="102" y1="110.6" x2="119.1" y2="127.6"/>
			<line class="st5" x1="104.9" y1="110.6" x2="119.1" y2="124.7"/>
			<line class="st5" x1="107.7" y1="110.6" x2="119.1" y2="121.9"/>
			<line class="st5" x1="102" y1="124.9" x2="104.9" y2="127.6"/>
			<line class="st5" x1="102" y1="122.1" x2="107.7" y2="127.6"/>
			<line class="st5" x1="102" y1="119.2" x2="110.6" y2="127.6"/>
			<line class="st5" x1="102" y1="116.4" x2="113.4" y2="127.6"/>
		</g>
	</g>
	
		<rect x="112" y="117.6" transform="matrix(-1.836970e-16 1 -1 -1.836970e-16 239.5276 -1.4173)" class="st5" width="17" height="2.8"/>
	
		<rect x="119.1" y="113.4" transform="matrix(-1.836970e-16 1 -1 -1.836970e-16 246.6142 -8.5039)" class="st5" width="17" height="11.3"/>
	<g>
		
			<rect x="126.1" y="117.6" transform="matrix(6.123234e-17 -1 1 6.123234e-17 15.5906 253.7008)" class="st5" width="17" height="2.8"/>
		<g>
			<line class="st5" x1="133.2" y1="113.5" x2="136.1" y2="116.2"/>
			<line class="st5" x1="133.2" y1="110.6" x2="136.1" y2="113.4"/>
			<line class="st5" x1="133.2" y1="124.9" x2="136.1" y2="127.6"/>
			<line class="st5" x1="133.2" y1="122.1" x2="136.1" y2="124.7"/>
			<line class="st5" x1="133.2" y1="119.2" x2="136.1" y2="121.9"/>
			<line class="st5" x1="133.2" y1="116.4" x2="136.1" y2="119.1"/>
		</g>
	</g>
	
		<rect x="133.2" y="113.4" transform="matrix(-1.836970e-16 1 -1 -1.836970e-16 260.7874 -22.6772)" class="st5" width="17" height="11.3"/>
	<g>
		
			<rect x="65.2" y="110.6" transform="matrix(-1.836970e-16 1 -1 -1.836970e-16 192.7559 45.3543)" class="st5" width="17" height="17"/>
		<g>
			<line class="st5" x1="73.7" y1="110.6" x2="82.2" y2="119.1"/>
			<line class="st5" x1="76.5" y1="110.6" x2="82.2" y2="116.2"/>
			<line class="st5" x1="79.4" y1="110.6" x2="82.2" y2="113.5"/>
			<line class="st5" x1="65.2" y1="113.5" x2="79.4" y2="127.6"/>
			<line class="st5" x1="65.2" y1="110.6" x2="82.2" y2="127.6"/>
			<line class="st5" x1="68" y1="110.6" x2="82.2" y2="124.7"/>
			<line class="st5" x1="70.9" y1="110.6" x2="82.2" y2="121.9"/>
			<line class="st5" x1="65.2" y1="124.9" x2="68" y2="127.6"/>
			<line class="st5" x1="65.2" y1="122.1" x2="70.9" y2="127.6"/>
			<line class="st5" x1="65.2" y1="119.2" x2="73.7" y2="127.6"/>
			<line class="st5" x1="65.2" y1="116.4" x2="76.5" y2="127.6"/>
		</g>
	</g>
	<g>
		
			<rect x="109.1" y="129" transform="matrix(6.123234e-17 -1 1 6.123234e-17 -18.4252 253.7008)" class="st5" width="17" height="14.2"/>
		<g>
			<line class="st5" x1="119.1" y1="127.6" x2="124.7" y2="133.2"/>
			<line class="st5" x1="121.9" y1="127.6" x2="124.7" y2="130.4"/>
			<line class="st5" x1="110.6" y1="130.6" x2="124.7" y2="144.6"/>
			<line class="st5" x1="110.6" y1="127.6" x2="124.7" y2="141.7"/>
			<line class="st5" x1="113.4" y1="127.6" x2="124.7" y2="138.9"/>
			<line class="st5" x1="116.2" y1="127.6" x2="124.7" y2="136.1"/>
			<line class="st5" x1="110.6" y1="141.9" x2="113.4" y2="144.6"/>
			<line class="st5" x1="110.6" y1="139.1" x2="116.2" y2="144.6"/>
			<line class="st5" x1="110.6" y1="136.2" x2="119.1" y2="144.6"/>
			<line class="st5" x1="110.6" y1="133.4" x2="121.9" y2="144.6"/>
		</g>
	</g>
	<g>
		
			<rect x="78" y="114.8" transform="matrix(6.123234e-17 -1 1 6.123234e-17 -32.6035 205.5169)" class="st5" width="17" height="8.5"/>
		<g>
			<line class="st5" x1="82.2" y1="113.5" x2="90.7" y2="121.9"/>
			<line class="st5" x1="82.2" y1="110.6" x2="90.7" y2="119.1"/>
			<line class="st5" x1="85" y1="110.6" x2="90.7" y2="116.2"/>
			<line class="st5" x1="87.9" y1="110.6" x2="90.7" y2="113.4"/>
			<line class="st5" x1="82.2" y1="124.9" x2="85" y2="127.6"/>
			<line class="st5" x1="82.2" y1="122.1" x2="87.9" y2="127.6"/>
			<line class="st5" x1="82.2" y1="119.2" x2="90.7" y2="127.6"/>
			<line class="st5" x1="82.2" y1="116.4" x2="90.7" y2="124.7"/>
		</g>
	</g>
</g>
<g>
	
		<rect x="26.9" y="168.7" transform="matrix(-1.836970e-16 1 -1 -1.836970e-16 211.1811 140.315)" class="st5" width="17" height="14.2"/>
	
		<rect x="38.3" y="171.5" transform="matrix(-1.836970e-16 1 -1 -1.836970e-16 222.5196 128.9764)" class="st5" width="17" height="8.5"/>
	
		<rect x="46.8" y="174.3" transform="matrix(-1.836970e-16 1 -1 -1.836970e-16 231.0236 120.4725)" class="st5" width="17" height="2.8"/>
	
		<rect x="62.4" y="164.4" transform="matrix(-1.836970e-16 1 -1 -1.836970e-16 246.6142 104.8819)" class="st5" width="17" height="22.7"/>
	
		<rect x="76.5" y="172.9" transform="matrix(-1.836970e-16 1 -1 -1.836970e-16 260.7874 90.7087)" class="st5" width="17" height="5.7"/>
	
		<rect x="107.7" y="164.4" transform="matrix(-1.836970e-16 1 -1 -1.836970e-16 291.9685 59.5275)" class="st5" width="17" height="22.7"/>
	
		<rect x="131.8" y="174.3" transform="matrix(-1.836970e-16 1 -1 -1.836970e-16 316.063 35.4331)" class="st5" width="17" height="2.8"/>
	
		<rect x="138.9" y="170.1" transform="matrix(-1.836970e-16 1 -1 -1.836970e-16 323.1496 28.3464)" class="st5" width="17" height="11.3"/>
	<g>
		
			<rect x="43.9" y="174.3" transform="matrix(-1.836970e-16 1 -1 -1.836970e-16 228.189 123.3071)" class="st5" width="17" height="2.8"/>
		<g>
			<line class="st5" x1="51" y1="170.2" x2="53.9" y2="172.9"/>
			<line class="st5" x1="51" y1="167.2" x2="53.9" y2="170.1"/>
			<line class="st5" x1="51" y1="181.6" x2="53.9" y2="184.3"/>
			<line class="st5" x1="51" y1="178.7" x2="53.9" y2="181.4"/>
			<line class="st5" x1="51" y1="175.9" x2="53.9" y2="178.6"/>
			<line class="st5" x1="51" y1="173.1" x2="53.9" y2="175.7"/>
		</g>
	</g>
	<g>
		
			<rect x="87.9" y="167.2" transform="matrix(-1.836970e-16 1 -1 -1.836970e-16 272.126 79.3701)" class="st5" width="17" height="17"/>
		<g>
			<line class="st5" x1="96.4" y1="167.2" x2="104.9" y2="175.7"/>
			<line class="st5" x1="99.2" y1="167.2" x2="104.9" y2="172.9"/>
			<line class="st5" x1="102" y1="167.2" x2="104.9" y2="170.2"/>
			<line class="st5" x1="87.9" y1="170.2" x2="102" y2="184.3"/>
			<line class="st5" x1="87.9" y1="167.2" x2="104.9" y2="184.3"/>
			<line class="st5" x1="90.7" y1="167.2" x2="104.9" y2="181.4"/>
			<line class="st5" x1="93.5" y1="167.2" x2="104.9" y2="178.6"/>
			<line class="st5" x1="87.9" y1="181.6" x2="90.7" y2="184.3"/>
			<line class="st5" x1="87.9" y1="178.7" x2="93.5" y2="184.3"/>
			<line class="st5" x1="87.9" y1="175.9" x2="96.4" y2="184.3"/>
			<line class="st5" x1="87.9" y1="173.1" x2="99.2" y2="184.3"/>
		</g>
	</g>
	<g>
		
			<rect x="49.6" y="174.3" transform="matrix(-1.836970e-16 1 -1 -1.836970e-16 233.8582 117.6378)" class="st5" width="17" height="2.8"/>
		<g>
			<line class="st5" x1="56.7" y1="170.2" x2="59.5" y2="172.9"/>
			<line class="st5" x1="56.7" y1="167.2" x2="59.5" y2="170.1"/>
			<line class="st5" x1="56.7" y1="181.6" x2="59.5" y2="184.3"/>
			<line class="st5" x1="56.7" y1="178.7" x2="59.5" y2="181.4"/>
			<line class="st5" x1="56.7" y1="175.9" x2="59.5" y2="178.6"/>
			<line class="st5" x1="56.7" y1="173.1" x2="59.5" y2="175.7"/>
		</g>
	</g>
	<g>
		
			<rect x="124.7" y="170.1" transform="matrix(-1.836970e-16 1 -1 -1.836970e-16 308.9764 42.5197)" class="st5" width="17" height="11.3"/>
		<g>
			<line class="st5" x1="136.1" y1="167.2" x2="138.9" y2="170.1"/>
			<line class="st5" x1="127.6" y1="170.2" x2="138.9" y2="181.4"/>
			<line class="st5" x1="127.6" y1="167.2" x2="138.9" y2="178.6"/>
			<line class="st5" x1="130.4" y1="167.2" x2="138.9" y2="175.7"/>
			<line class="st5" x1="133.2" y1="167.2" x2="138.9" y2="172.9"/>
			<line class="st5" x1="127.6" y1="181.6" x2="130.4" y2="184.3"/>
			<line class="st5" x1="127.6" y1="178.7" x2="133.2" y2="184.3"/>
			<line class="st5" x1="127.6" y1="175.9" x2="136.1" y2="184.3"/>
			<line class="st5" x1="127.6" y1="173.1" x2="138.9" y2="184.3"/>
		</g>
	</g>
</g>
<g>
	
		<rect x="28.3" y="68" transform="matrix(-1.836970e-16 1 -1 -1.836970e-16 110.5512 36.8504)" class="st4" width="17" height="11.3"/>
	
		<rect x="53.9" y="62.4" transform="matrix(-1.836970e-16 1 -1 -1.836970e-16 136.063 11.3386)" class="st4" width="17" height="22.7"/>
	
		<rect x="86.5" y="69.4" transform="matrix(-1.836970e-16 1 -1 -1.836970e-16 168.6614 -21.2599)" class="st4" width="17" height="8.5"/>
	
		<rect x="92.1" y="72.3" transform="matrix(-1.836970e-16 1 -1 -1.836970e-16 174.3307 -26.9291)" class="st4" width="17" height="2.8"/>
	
		<rect x="110.6" y="59.5" transform="matrix(-1.836970e-16 1 -1 -1.836970e-16 192.7559 -45.3543)" class="st4" width="17" height="28.3"/>
	
		<rect x="134.6" y="63.8" transform="matrix(-1.836970e-16 1 -1 -1.836970e-16 216.8504 -69.4488)" class="st4" width="17" height="19.8"/>
	<g>
		
			<rect x="21.3" y="72.3" transform="matrix(-1.836970e-16 1 -1 -1.836970e-16 103.4646 43.937)" class="st4" width="17" height="2.8"/>
		<g>
			<line class="st4" x1="28.3" y1="68.2" x2="31.2" y2="70.9"/>
			<line class="st4" x1="28.3" y1="65.2" x2="31.2" y2="68"/>
			<line class="st4" x1="28.3" y1="79.5" x2="31.2" y2="82.2"/>
			<line class="st4" x1="28.3" y1="76.7" x2="31.2" y2="79.4"/>
			<line class="st4" x1="28.3" y1="73.9" x2="31.2" y2="76.5"/>
			<line class="st4" x1="28.3" y1="71" x2="31.2" y2="73.7"/>
		</g>
	</g>
	<g>
		
			<rect x="38.3" y="69.4" transform="matrix(6.123234e-17 -1 1 6.123234e-17 -26.9291 120.4725)" class="st4" width="17" height="8.5"/>
		<g>
			<line class="st4" x1="42.5" y1="68.2" x2="51" y2="76.5"/>
			<line class="st4" x1="42.5" y1="65.2" x2="51" y2="73.7"/>
			<line class="st4" x1="45.4" y1="65.2" x2="51" y2="70.9"/>
			<line class="st4" x1="48.2" y1="65.2" x2="51" y2="68"/>
			<line class="st4" x1="42.5" y1="79.5" x2="45.4" y2="82.2"/>
			<line class="st4" x1="42.5" y1="76.7" x2="48.2" y2="82.2"/>
			<line class="st4" x1="42.5" y1="73.9" x2="51" y2="82.2"/>
			<line class="st4" x1="42.5" y1="71" x2="51" y2="79.4"/>
		</g>
	</g>
	<g>
		
			<rect x="95" y="72.3" transform="matrix(-1.836970e-16 1 -1 -1.836970e-16 177.1653 -29.7638)" class="st4" width="17" height="2.8"/>
		<g>
			<line class="st4" x1="102" y1="68.2" x2="104.9" y2="70.9"/>
			<line class="st4" x1="102" y1="65.2" x2="104.9" y2="68"/>
			<line class="st4" x1="102" y1="79.5" x2="104.9" y2="82.2"/>
			<line class="st4" x1="102" y1="76.7" x2="104.9" y2="79.4"/>
			<line class="st4" x1="102" y1="73.9" x2="104.9" y2="76.5"/>
			<line class="st4" x1="102" y1="71" x2="104.9" y2="73.7"/>
		</g>
	</g>
	<g>
		
			<rect x="73.7" y="65.2" transform="matrix(-1.836970e-16 1 -1 -1.836970e-16 155.9055 -8.5039)" class="st4" width="17" height="17"/>
		<g>
			<line class="st4" x1="82.2" y1="65.2" x2="90.7" y2="73.7"/>
			<line class="st4" x1="85" y1="65.2" x2="90.7" y2="70.9"/>
			<line class="st4" x1="87.9" y1="65.2" x2="90.7" y2="68.2"/>
			<line class="st4" x1="73.7" y1="68.2" x2="87.9" y2="82.2"/>
			<line class="st4" x1="73.7" y1="65.2" x2="90.7" y2="82.2"/>
			<line class="st4" x1="76.5" y1="65.2" x2="90.7" y2="79.4"/>
			<line class="st4" x1="79.4" y1="65.2" x2="90.7" y2="76.5"/>
			<line class="st4" x1="73.7" y1="79.5" x2="76.5" y2="82.2"/>
			<line class="st4" x1="73.7" y1="76.7" x2="79.4" y2="82.2"/>
			<line class="st4" x1="73.7" y1="73.9" x2="82.2" y2="82.2"/>
			<line class="st4" x1="73.7" y1="71" x2="85" y2="82.2"/>
		</g>
	</g>
</g>
<g>
	
		<rect x="34" y="178.6" transform="matrix(-1.836970e-16 1 -1 -1.836970e-16 235.2806 150.2413)" class="st6" width="17" height="28.3"/>
	
		<rect x="73.7" y="181.4" transform="matrix(-1.836970e-16 1 -1 -1.836970e-16 274.9656 110.5563)" class="st6" width="17" height="22.7"/>
	
		<rect x="95" y="191.3" transform="matrix(-1.836970e-16 1 -1 -1.836970e-16 296.2255 89.2964)" class="st6" width="17" height="2.8"/>
	
		<rect x="129" y="188.5" transform="matrix(-1.836970e-16 1 -1 -1.836970e-16 330.2412 55.2806)" class="st6" width="17" height="8.5"/>
	<g>
		
			<rect x="55.3" y="185.7" transform="matrix(6.123234e-17 -1 1 6.123234e-17 -128.9814 256.5405)" class="st6" width="17" height="14.2"/>
		<g>
			<line class="st6" x1="65.2" y1="184.3" x2="70.9" y2="189.9"/>
			<line class="st6" x1="68" y1="184.3" x2="70.9" y2="187.1"/>
			<line class="st6" x1="56.7" y1="187.3" x2="70.9" y2="201.3"/>
			<line class="st6" x1="56.7" y1="184.3" x2="70.9" y2="198.4"/>
			<line class="st6" x1="59.5" y1="184.3" x2="70.9" y2="195.6"/>
			<line class="st6" x1="62.4" y1="184.3" x2="70.9" y2="192.8"/>
			<line class="st6" x1="56.7" y1="198.6" x2="59.5" y2="201.3"/>
			<line class="st6" x1="56.7" y1="195.8" x2="62.4" y2="201.3"/>
			<line class="st6" x1="56.7" y1="192.9" x2="65.2" y2="201.3"/>
			<line class="st6" x1="56.7" y1="190.1" x2="68" y2="201.3"/>
		</g>
	</g>
	<g>
		
			<rect x="89.3" y="188.5" transform="matrix(6.123234e-17 -1 1 6.123234e-17 -94.9657 290.5562)" class="st6" width="17" height="8.5"/>
		<g>
			<line class="st6" x1="93.5" y1="187.2" x2="102" y2="195.6"/>
			<line class="st6" x1="93.5" y1="184.3" x2="102" y2="192.8"/>
			<line class="st6" x1="96.4" y1="184.3" x2="102" y2="189.9"/>
			<line class="st6" x1="99.2" y1="184.3" x2="102" y2="187.1"/>
			<line class="st6" x1="93.5" y1="198.6" x2="96.4" y2="201.3"/>
			<line class="st6" x1="93.5" y1="195.8" x2="99.2" y2="201.3"/>
			<line class="st6" x1="93.5" y1="192.9" x2="102" y2="201.3"/>
			<line class="st6" x1="93.5" y1="190.1" x2="102" y2="198.4"/>
		</g>
	</g>
	<g>
		
			<rect x="110.6" y="178.6" transform="matrix(6.123234e-17 -1 1 6.123234e-17 -73.7058 311.8161)" class="st6" width="17" height="28.3"/>
		<g>
			<line class="st6" x1="113.4" y1="184.3" x2="130.4" y2="201.3"/>
			<line class="st6" x1="116.2" y1="184.3" x2="133.2" y2="201.3"/>
			<line class="st6" x1="119.1" y1="184.3" x2="133.2" y2="198.6"/>
			<line class="st6" x1="121.9" y1="184.3" x2="133.2" y2="195.8"/>
			<line class="st6" x1="104.9" y1="187.3" x2="119.1" y2="201.3"/>
			<line class="st6" x1="104.9" y1="184.3" x2="121.9" y2="201.3"/>
			<line class="st6" x1="107.7" y1="184.3" x2="124.7" y2="201.3"/>
			<line class="st6" x1="110.6" y1="184.3" x2="127.6" y2="201.3"/>
			<line class="st6" x1="104.9" y1="198.6" x2="107.7" y2="201.3"/>
			<line class="st6" x1="104.9" y1="195.8" x2="110.6" y2="201.3"/>
			<line class="st6" x1="104.9" y1="192.9" x2="113.4" y2="201.3"/>
			<line class="st6" x1="104.9" y1="190.1" x2="116.2" y2="201.3"/>
			<line class="st6" x1="124.7" y1="184.3" x2="133.2" y2="192.9"/>
			<line class="st6" x1="127.6" y1="184.3" x2="133.2" y2="190.1"/>
			<line class="st6" x1="130.4" y1="184.3" x2="133.2" y2="187.3"/>
		</g>
	</g>
	<g>
		
			<rect x="138.9" y="187.1" transform="matrix(-1.836970e-16 1 -1 -1.836970e-16 340.1625 45.3594)" class="st6" width="17" height="11.3"/>
		<g>
			<line class="st6" x1="150.2" y1="184.3" x2="153.1" y2="187.1"/>
			<line class="st6" x1="141.7" y1="187.3" x2="153.1" y2="198.4"/>
			<line class="st6" x1="141.7" y1="184.3" x2="153.1" y2="195.6"/>
			<line class="st6" x1="144.6" y1="184.3" x2="153.1" y2="192.8"/>
			<line class="st6" x1="147.4" y1="184.3" x2="153.1" y2="189.9"/>
			<line class="st6" x1="141.7" y1="198.6" x2="144.6" y2="201.3"/>
			<line class="st6" x1="141.7" y1="195.8" x2="147.4" y2="201.3"/>
			<line class="st6" x1="141.7" y1="192.9" x2="150.2" y2="201.3"/>
			<line class="st6" x1="141.7" y1="190.1" x2="153.1" y2="201.3"/>
		</g>
	</g>
</g>
<g>
	<g>
		<polyline class="st36" points="206.4,34 184.3,34 184.3,39.7 172.9,39.7 172.9,73.7 167.2,73.7 		"/>
		<g>
			<path class="st37" d="M209.8,34c-1.6-0.6-3.6-1.6-4.8-2.7l1,2.7l-1,2.7C206.2,35.6,208.2,34.6,209.8,34z"/>
		</g>
	</g>
</g>
<path class="st19" d="M164.4,184.3c0.8,0,1.4,0.6,1.4,1.4v5.7c0,0.8,0.6,1.4,1.4,1.4c-0.8,0-1.4,0.6-1.4,1.4v5.7
	c0,0.8-0.6,1.4-1.4,1.4"/>
<g>
	
		<rect x="35.4" y="202.7" transform="matrix(-1.836970e-16 1 -1 -1.836970e-16 253.7109 165.8369)" class="st8" width="17" height="14.2"/>
	
		<rect x="43.9" y="208.4" transform="matrix(-1.836970e-16 1 -1 -1.836970e-16 262.2148 157.3329)" class="st8" width="17" height="2.8"/>
	
		<rect x="49.6" y="205.5" transform="matrix(-1.836970e-16 1 -1 -1.836970e-16 267.8841 151.6637)" class="st8" width="17" height="8.5"/>
	
		<rect x="87.9" y="195.6" transform="matrix(-1.836970e-16 1 -1 -1.836970e-16 306.1518 113.3959)" class="st8" width="17" height="28.3"/>
	
		<rect x="116.2" y="204.1" transform="matrix(-1.836970e-16 1 -1 -1.836970e-16 334.4983 85.0495)" class="st8" width="17" height="11.3"/>
	
		<rect x="131.8" y="199.9" transform="matrix(-1.836970e-16 1 -1 -1.836970e-16 350.0888 69.4589)" class="st8" width="17" height="19.8"/>
	<g>
		
			<rect x="24.1" y="205.5" transform="matrix(6.123234e-17 -1 1 6.123234e-17 -177.1755 242.3723)" class="st8" width="17" height="8.5"/>
		<g>
			<line class="st8" x1="28.3" y1="204.3" x2="36.9" y2="212.6"/>
			<line class="st8" x1="28.3" y1="201.3" x2="36.9" y2="209.8"/>
			<line class="st8" x1="31.2" y1="201.3" x2="36.9" y2="206.9"/>
			<line class="st8" x1="34" y1="201.3" x2="36.9" y2="204.1"/>
			<line class="st8" x1="28.3" y1="215.6" x2="31.2" y2="218.3"/>
			<line class="st8" x1="28.3" y1="212.8" x2="34" y2="218.3"/>
			<line class="st8" x1="28.3" y1="209.9" x2="36.9" y2="218.3"/>
			<line class="st8" x1="28.3" y1="207.1" x2="36.9" y2="215.4"/>
		</g>
	</g>
	<g>
		
			<rect x="63.8" y="199.9" transform="matrix(6.123234e-17 -1 1 6.123234e-17 -137.4904 282.0573)" class="st8" width="17" height="19.8"/>
		<g>
			<line class="st8" x1="70.9" y1="201.3" x2="82.2" y2="212.6"/>
			<line class="st8" x1="73.7" y1="201.3" x2="82.2" y2="209.8"/>
			<line class="st8" x1="76.5" y1="201.3" x2="82.2" y2="207.1"/>
			<line class="st8" x1="79.4" y1="201.3" x2="82.2" y2="204.3"/>
			<line class="st8" x1="62.4" y1="204.3" x2="76.5" y2="218.3"/>
			<line class="st8" x1="62.4" y1="201.3" x2="79.4" y2="218.3"/>
			<line class="st8" x1="65.2" y1="201.3" x2="82.2" y2="218.3"/>
			<line class="st8" x1="68" y1="201.3" x2="82.2" y2="215.4"/>
			<line class="st8" x1="62.4" y1="215.6" x2="65.2" y2="218.3"/>
			<line class="st8" x1="62.4" y1="212.8" x2="68" y2="218.3"/>
			<line class="st8" x1="62.4" y1="209.9" x2="70.9" y2="218.3"/>
			<line class="st8" x1="62.4" y1="207.1" x2="73.7" y2="218.3"/>
		</g>
	</g>
	<g>
		
			<rect x="106.3" y="205.5" transform="matrix(6.123234e-17 -1 1 6.123234e-17 -94.9758 324.5821)" class="st8" width="17" height="8.5"/>
		<g>
			<line class="st8" x1="110.6" y1="204.3" x2="119.1" y2="212.6"/>
			<line class="st8" x1="110.6" y1="201.3" x2="119.1" y2="209.8"/>
			<line class="st8" x1="113.4" y1="201.3" x2="119.1" y2="206.9"/>
			<line class="st8" x1="116.2" y1="201.3" x2="119.1" y2="204.1"/>
			<line class="st8" x1="110.6" y1="215.6" x2="113.4" y2="218.3"/>
			<line class="st8" x1="110.6" y1="212.8" x2="116.2" y2="218.3"/>
			<line class="st8" x1="110.6" y1="209.9" x2="119.1" y2="218.3"/>
			<line class="st8" x1="110.6" y1="207.1" x2="119.1" y2="215.4"/>
		</g>
	</g>
	<g>
		
			<rect x="143.1" y="208.4" transform="matrix(-1.836970e-16 1 -1 -1.836970e-16 361.4274 58.1203)" class="st8" width="17" height="2.8"/>
		<g>
			<line class="st8" x1="150.2" y1="204.3" x2="153.1" y2="206.9"/>
			<line class="st8" x1="150.2" y1="201.3" x2="153.1" y2="204.1"/>
			<line class="st8" x1="150.2" y1="215.6" x2="153.1" y2="218.3"/>
			<line class="st8" x1="150.2" y1="212.8" x2="153.1" y2="215.4"/>
			<line class="st8" x1="150.2" y1="209.9" x2="153.1" y2="212.6"/>
			<line class="st8" x1="150.2" y1="207.1" x2="153.1" y2="209.8"/>
		</g>
	</g>
</g>
<rect x="-5.7" y="2.8" class="st9" width="17" height="222.5"/>
<text transform="matrix(0 -1 1 0 7.8755 159.7502)" class="st26 st11 st12">Full Stack Application</text>
<rect x="28.3" y="150.2" class="st9" width="124.7" height="17"/>
<text transform="matrix(1 0 0 1 53.8786 161.7805)" class="st15 st11 st12">Monolithic Kernel</text>
<rect x="28.3" y="48.2" class="st9" width="124.7" height="17"/>
<text transform="matrix(1 0 0 1 51.3157 59.7334)" class="st35 st11 st12">3rd Party Libraries</text>
<rect x="28.3" y="25.5" class="st9" width="124.7" height="17"/>
<text transform="matrix(1 0 0 1 66.9758 37.0564)" class="st10 st11 st12">Application</text>
<rect x="28.3" y="8.5" class="st9" width="124.7" height="17"/>
<text transform="matrix(1 0 0 1 61.8366 20.0484)" class="st33 st11 st12">Configuration</text>
<rect x="28.3" y="93.5" class="st9" width="124.7" height="17"/>
<text transform="matrix(1 0 0 1 52.466 105.0876)" class="st15 st11 st12">Operating System</text>
<path class="st36" d="M164.4,65.2c0.8,0,1.4,0.6,1.4,1.4v5.7c0,0.8,0.6,1.4,1.4,1.4c-0.8,0-1.4,0.6-1.4,1.4v5.7
	c0,0.8-0.6,1.4-1.4,1.4"/>
<path class="st38" d="M164.4,25.5c0.8,0,1.4,0.6,1.4,1.4v5.7c0,0.8,0.6,1.4,1.4,1.4c-0.8,0-1.4,0.6-1.4,1.4v5.7
	c0,0.8-0.6,1.4-1.4,1.4"/>
<g>
	<g>
		<polyline class="st38" points="209.2,11.3 178.6,11.3 178.6,34 167.2,34 		"/>
		<g>
			<path class="st39" d="M212.6,11.3c-1.6-0.6-3.6-1.6-4.8-2.7l1,2.7l-1,2.7C209,12.9,211,11.9,212.6,11.3z"/>
		</g>
	</g>
</g>
<g>
	<g>
		<line class="st0" x1="277.8" y1="121.9" x2="277.8" y2="124.2"/>
		<g>
			<path class="st26" d="M277.8,127.6c-0.6-1.6-1.6-3.6-2.7-4.8l2.7,1l2.7-1C279.4,124,278.4,126,277.8,127.6z"/>
		</g>
	</g>
</g>
<g>
	<g>
		<line class="st0" x1="277.8" y1="45.4" x2="277.8" y2="56.1"/>
		<g>
			<path class="st26" d="M277.8,59.5c-0.6-1.6-1.6-3.6-2.7-4.8l2.7,1l2.7-1C279.4,55.9,278.4,57.9,277.8,59.5z"/>
		</g>
	</g>
</g>
<rect x="300.5" y="25.5" class="st40" width="31.2" height="28.3"/>
<g>
	<path class="st26" d="M324.5,30.9c0-0.8-0.3-1.3-1.1-1.3c0,0-3.2,0-4.2,0c-0.8,0-1.1,0.5-1.1,1.2l0,0c0,0,0,6.6,0,8.7
		c0,0.3,0,0.7-0.1,0.9c-0.1,0.5-0.3,0.9-0.6,1.1c0,0,0,0,0,0c0,0,0,0,0,0c-0.3,0.2-0.7,0.3-1.3,0.3c-0.6,0-1-0.1-1.3-0.3
		c0,0,0,0,0,0c0,0,0,0,0,0c-0.3-0.3-0.5-0.7-0.6-1.1c-0.1-0.3-0.1-0.6-0.1-0.9l0,0v0c0-2.1,0-8.3,0-8.6c0-0.7-0.3-1.3-1.1-1.3
		c-1.1,0-4.2,0-4.2,0c-0.8,0-1.1,0.5-1.1,1.3c0,0,0,8,0,11.3c0,4.1,2.5,7.6,8.4,7.6c0,0,0.1,0,0.1,0c0,0,0.1,0,0.1,0
		c5.9,0,8.4-3.5,8.4-7.6C324.5,38.9,324.5,30.9,324.5,30.9z"/>
	<path id="Rounded_Rectangle_1-2_1_" class="st41" d="M317.5,46.2h0.7c0.4,0,0.7,0.3,0.7,0.7v0.7c0,0.4-0.3,0.7-0.7,0.7h-0.7
		c-0.4,0-0.7-0.3-0.7-0.7V47C316.8,46.5,317.1,46.2,317.5,46.2z"/>
	<path id="Rounded_Rectangle_1-3_1_" class="st42" d="M322,37.1h0.7c0.4,0,0.7,0.3,0.7,0.7v0.7c0,0.4-0.3,0.7-0.7,0.7H322
		c-0.4,0-0.7-0.3-0.7-0.7v-0.7C321.2,37.4,321.6,37.1,322,37.1z"/>
	<path id="Rounded_Rectangle_1-4_1_" class="st43" d="M311.8,45.4h0.7c0.4,0,0.7,0.3,0.7,0.7v0.7c0,0.4-0.3,0.7-0.7,0.7h-0.7
		c-0.4,0-0.7-0.3-0.7-0.7v-0.7C311.1,45.7,311.4,45.4,311.8,45.4z"/>
	<path id="Rounded_Rectangle_1-5_1_" class="st42" d="M311.7,30.9h0.7c0.4,0,0.7,0.3,0.7,0.7v0.7c0,0.4-0.3,0.7-0.7,0.7h-0.7
		c-0.4,0-0.7-0.3-0.7-0.7v-0.7C310.9,31.2,311.3,30.9,311.7,30.9z"/>
	<path id="Rounded_Rectangle_1-6_1_" class="st41" d="M310.1,43.4h0.7c0.4,0,0.7,0.3,0.7,0.7v0.7c0,0.4-0.3,0.7-0.7,0.7h-0.7
		c-0.4,0-0.7-0.3-0.7-0.7v-0.7C309.4,43.7,309.7,43.4,310.1,43.4z"/>
	<path id="Rounded_Rectangle_1-7_1_" class="st41" d="M316.7,42.7h0.7c0.4,0,0.7,0.3,0.7,0.7v0.7c0,0.4-0.3,0.7-0.7,0.7h-0.7
		c-0.4,0-0.7-0.3-0.7-0.7v-0.7C315.9,43.1,316.2,42.7,316.7,42.7z"/>
	<path id="Rounded_Rectangle_1-8_1_" class="st43" d="M311.6,38.8h0.7c0.4,0,0.7,0.3,0.7,0.7v0.7c0,0.4-0.3,0.7-0.7,0.7h-0.7
		c-0.4,0-0.7-0.3-0.7-0.7v-0.7C310.8,39.2,311.1,38.8,311.6,38.8z"/>
	<path id="Rounded_Rectangle_1-9_1_" class="st43" d="M319.8,35.2h0.7c0.4,0,0.7,0.3,0.7,0.7v0.7c0,0.4-0.3,0.7-0.7,0.7h-0.7
		c-0.4,0-0.7-0.3-0.7-0.7v-0.7C319,35.5,319.3,35.2,319.8,35.2z"/>
	<path id="Rounded_Rectangle_1-10_1_" class="st43" d="M310.1,31.7h0.7c0.4,0,0.7,0.3,0.7,0.7v0.7c0,0.4-0.3,0.7-0.7,0.7h-0.7
		c-0.4,0-0.7-0.3-0.7-0.7v-0.7C309.3,32,309.7,31.7,310.1,31.7z"/>
	<path id="Rounded_Rectangle_1-11_1_" class="st43" d="M311.8,33.4h0.7c0.4,0,0.7,0.3,0.7,0.7v0.7c0,0.4-0.3,0.7-0.7,0.7h-0.7
		c-0.4,0-0.7-0.3-0.7-0.7v-0.7C311.1,33.7,311.4,33.4,311.8,33.4z"/>
	<path id="Rounded_Rectangle_1-12_1_" class="st42" d="M318.6,42.2h0.7c0.4,0,0.7,0.3,0.7,0.7v0.7c0,0.4-0.3,0.7-0.7,0.7h-0.7
		c-0.4,0-0.7-0.3-0.7-0.7V43C317.9,42.6,318.2,42.2,318.6,42.2z"/>
	<path id="Rounded_Rectangle_1-13_1_" class="st42" d="M314.8,42.9h0.7c0.4,0,0.7,0.3,0.7,0.7v0.7c0,0.4-0.3,0.7-0.7,0.7h-0.7
		c-0.4,0-0.7-0.3-0.7-0.7v-0.7C314,43.3,314.4,42.9,314.8,42.9z"/>
	<path id="Rounded_Rectangle_1-14_1_" class="st43" d="M315.6,46.2h0.7c0.4,0,0.7,0.3,0.7,0.7v0.7c0,0.4-0.3,0.7-0.7,0.7h-0.7
		c-0.4,0-0.7-0.3-0.7-0.7v-0.7C314.9,46.5,315.2,46.2,315.6,46.2z"/>
	<path id="Rounded_Rectangle_1-15_1_" class="st43" d="M313.7,45.9h0.7c0.4,0,0.7,0.3,0.7,0.7v0.7c0,0.4-0.3,0.7-0.7,0.7h-0.7
		c-0.4,0-0.7-0.3-0.7-0.7v-0.7C312.9,46.3,313.3,45.9,313.7,45.9z"/>
	<path id="Rounded_Rectangle_1-16_1_" class="st43" d="M320.6,43.8h0.7c0.4,0,0.7,0.3,0.7,0.7v0.7c0,0.4-0.3,0.7-0.7,0.7h-0.7
		c-0.4,0-0.7-0.3-0.7-0.7v-0.7C319.8,44.2,320.2,43.8,320.6,43.8z"/>
	<path id="Rounded_Rectangle_1-17_1_" class="st43" d="M311.2,44.2h0.7c0.4,0,0.7,0.3,0.7,0.7v0.7c0,0.4-0.3,0.7-0.7,0.7h-0.7
		c-0.4,0-0.7-0.3-0.7-0.7V45C310.5,44.6,310.8,44.2,311.2,44.2z"/>
	<path id="Rounded_Rectangle_1-18_1_" class="st43" d="M311.5,41.3h0.7c0.4,0,0.7,0.3,0.7,0.7v0.7c0,0.4-0.3,0.7-0.7,0.7h-0.7
		c-0.4,0-0.7-0.3-0.7-0.7v-0.7C310.8,41.6,311.1,41.3,311.5,41.3z"/>
	<path id="Rounded_Rectangle_1-19_1_" class="st43" d="M317.6,44.1h0.7c0.4,0,0.7,0.3,0.7,0.7v0.7c0,0.4-0.3,0.7-0.7,0.7h-0.7
		c-0.4,0-0.7-0.3-0.7-0.7v-0.7C316.8,44.5,317.2,44.1,317.6,44.1z"/>
	<path id="Rounded_Rectangle_1-20_1_" class="st42" d="M315.8,44.8h0.7c0.4,0,0.7,0.3,0.7,0.7v0.7c0,0.4-0.3,0.7-0.7,0.7h-0.7
		c-0.4,0-0.7-0.3-0.7-0.7v-0.7C315.1,45.2,315.4,44.8,315.8,44.8z"/>
	<path id="Rounded_Rectangle_1-21_1_" class="st43" d="M313.1,43.8h0.7c0.4,0,0.7,0.3,0.7,0.7v0.7c0,0.4-0.3,0.7-0.7,0.7h-0.7
		c-0.4,0-0.7-0.3-0.7-0.7v-0.7C312.4,44.1,312.7,43.8,313.1,43.8z"/>
	<path id="Rounded_Rectangle_1-22_1_" class="st44" d="M321.6,35.3h0.7c0.4,0,0.7,0.3,0.7,0.7v0.7c0,0.4-0.3,0.7-0.7,0.7h-0.7
		c-0.4,0-0.7-0.3-0.7-0.7v-0.7C320.8,35.7,321.1,35.3,321.6,35.3z"/>
	<path id="Rounded_Rectangle_1-23_1_" class="st43" d="M309.7,41.6h0.7c0.4,0,0.7,0.3,0.7,0.7V43c0,0.4-0.3,0.7-0.7,0.7h-0.7
		c-0.4,0-0.7-0.3-0.7-0.7v-0.7C309,41.9,309.3,41.6,309.7,41.6z"/>
	<path id="Rounded_Rectangle_1-24_1_" class="st42" d="M321.4,42h0.7c0.4,0,0.7,0.3,0.7,0.7v0.7c0,0.4-0.3,0.7-0.7,0.7h-0.7
		c-0.4,0-0.7-0.3-0.7-0.7v-0.7C320.7,42.4,321,42,321.4,42z"/>
	<path id="Rounded_Rectangle_1-25_1_" class="st43" d="M309.5,35.9h0.7c0.4,0,0.7,0.3,0.7,0.7v0.7c0,0.4-0.3,0.7-0.7,0.7h-0.7
		c-0.4,0-0.7-0.3-0.7-0.7v-0.7C308.7,36.2,309.1,35.9,309.5,35.9z"/>
	<path id="Rounded_Rectangle_1-26_1_" class="st41" d="M311.4,34.9h0.7c0.4,0,0.7,0.3,0.7,0.7v0.7c0,0.4-0.3,0.7-0.7,0.7h-0.7
		c-0.4,0-0.7-0.3-0.7-0.7v-0.7C310.6,35.2,311,34.9,311.4,34.9z"/>
	<path id="Rounded_Rectangle_1-27_1_" class="st42" d="M309.7,33.4h0.7c0.4,0,0.7,0.3,0.7,0.7v0.7c0,0.4-0.3,0.7-0.7,0.7h-0.7
		c-0.4,0-0.7-0.3-0.7-0.7v-0.7C309,33.7,309.3,33.4,309.7,33.4z"/>
	<path id="Rounded_Rectangle_1-28_1_" class="st41" d="M312.2,42.5h0.7c0.4,0,0.7,0.3,0.7,0.7V44c0,0.4-0.3,0.7-0.7,0.7h-0.7
		c-0.4,0-0.7-0.3-0.7-0.7v-0.7C311.4,42.8,311.8,42.5,312.2,42.5z"/>
	<path id="Rounded_Rectangle_1-29_1_" class="st44" d="M309.1,34.5h0.7c0.4,0,0.7,0.3,0.7,0.7V36c0,0.4-0.3,0.7-0.7,0.7h-0.7
		c-0.4,0-0.7-0.3-0.7-0.7v-0.7C308.4,34.8,308.7,34.5,309.1,34.5z"/>
	<path id="Rounded_Rectangle_1-30_1_" class="st42" d="M310.2,37.8h0.7c0.4,0,0.7,0.3,0.7,0.7v0.7c0,0.4-0.3,0.7-0.7,0.7h-0.7
		c-0.4,0-0.7-0.3-0.7-0.7v-0.7C309.4,38.1,309.8,37.8,310.2,37.8z"/>
	<path id="Rounded_Rectangle_1-31_1_" class="st44" d="M310.4,39.9h0.7c0.4,0,0.7,0.3,0.7,0.7v0.7c0,0.4-0.3,0.7-0.7,0.7h-0.7
		c-0.4,0-0.7-0.3-0.7-0.7v-0.7C309.7,40.2,310,39.9,310.4,39.9z"/>
	<path id="Rounded_Rectangle_1-32_1_" class="st42" d="M310.4,42.9h0.7c0.4,0,0.7,0.3,0.7,0.7v0.7c0,0.4-0.3,0.7-0.7,0.7h-0.7
		c-0.4,0-0.7-0.3-0.7-0.7v-0.7C309.6,43.2,309.9,42.9,310.4,42.9z"/>
	<path id="Rounded_Rectangle_1-33_1_" class="st41" d="M309.5,30.5h0.7c0.4,0,0.7,0.3,0.7,0.7V32c0,0.4-0.3,0.7-0.7,0.7h-0.7
		c-0.4,0-0.7-0.3-0.7-0.7v-0.7C308.8,30.8,309.1,30.5,309.5,30.5z"/>
	<path id="Rounded_Rectangle_1-34_1_" class="st42" d="M319.9,37h0.7c0.4,0,0.7,0.3,0.7,0.7v0.7c0,0.4-0.3,0.7-0.7,0.7h-0.7
		c-0.4,0-0.7-0.3-0.7-0.7v-0.7C319.1,37.3,319.5,37,319.9,37z"/>
	<path id="Rounded_Rectangle_1-35_1_" class="st42" d="M322.1,32.4h0.7c0.4,0,0.7,0.3,0.7,0.7v0.7c0,0.4-0.3,0.7-0.7,0.7h-0.7
		c-0.4,0-0.7-0.3-0.7-0.7v-0.7C321.3,32.7,321.7,32.4,322.1,32.4z"/>
	<path id="Rounded_Rectangle_1-36_1_" class="st43" d="M320,42.1h0.7c0.4,0,0.7,0.3,0.7,0.7v0.7c0,0.4-0.3,0.7-0.7,0.7H320
		c-0.4,0-0.7-0.3-0.7-0.7v-0.7C319.3,42.4,319.6,42.1,320,42.1z"/>
	<path id="Rounded_Rectangle_1-37_1_" class="st43" d="M321.2,40.4h0.7c0.4,0,0.7,0.3,0.7,0.7v0.7c0,0.4-0.3,0.7-0.7,0.7h-0.7
		c-0.4,0-0.7-0.3-0.7-0.7v-0.7C320.5,40.8,320.8,40.4,321.2,40.4z"/>
	<path id="Rounded_Rectangle_1-38_1_" class="st43" d="M321.8,31.1h0.7c0.4,0,0.7,0.3,0.7,0.7v0.7c0,0.4-0.3,0.7-0.7,0.7h-0.7
		c-0.4,0-0.7-0.3-0.7-0.7v-0.7C321.1,31.5,321.4,31.1,321.8,31.1z"/>
	<path id="Rounded_Rectangle_1-39_1_" class="st41" d="M319.3,40.2h0.7c0.4,0,0.7,0.3,0.7,0.7v0.7c0,0.4-0.3,0.7-0.7,0.7h-0.7
		c-0.4,0-0.7-0.3-0.7-0.7v-0.7C318.6,40.5,318.9,40.2,319.3,40.2z"/>
	<path id="Rounded_Rectangle_1-40_1_" class="st43" d="M321.5,38.2h0.7c0.4,0,0.7,0.3,0.7,0.7v0.7c0,0.4-0.3,0.7-0.7,0.7h-0.7
		c-0.4,0-0.7-0.3-0.7-0.7V39C320.8,38.6,321.1,38.2,321.5,38.2z"/>
	<path id="Rounded_Rectangle_1-41_1_" class="st41" d="M320.4,32.8h0.7c0.4,0,0.7,0.3,0.7,0.7v0.7c0,0.4-0.3,0.7-0.7,0.7h-0.7
		c-0.4,0-0.7-0.3-0.7-0.7v-0.7C319.6,33.2,320,32.8,320.4,32.8z"/>
	<path id="Rounded_Rectangle_1-42_1_" class="st43" d="M311.2,36.4h0.7c0.4,0,0.7,0.3,0.7,0.7v0.7c0,0.4-0.3,0.7-0.7,0.7h-0.7
		c-0.4,0-0.7-0.3-0.7-0.7v-0.7C310.4,36.8,310.8,36.4,311.2,36.4z"/>
	<path id="Rounded_Rectangle_1-43_1_" class="st43" d="M309.3,39.3h0.7c0.4,0,0.7,0.3,0.7,0.7v0.7c0,0.4-0.3,0.7-0.7,0.7h-0.7
		c-0.4,0-0.7-0.3-0.7-0.7v-0.7C308.6,39.7,308.9,39.3,309.3,39.3z"/>
	<path id="Rounded_Rectangle_1-44_1_" class="st44" d="M319.2,44.1h0.7c0.4,0,0.7,0.3,0.7,0.7v0.7c0,0.4-0.3,0.7-0.7,0.7h-0.7
		c-0.4,0-0.7-0.3-0.7-0.7v-0.7C318.5,44.5,318.8,44.1,319.2,44.1z"/>
	<path id="Rounded_Rectangle_1-45_1_" class="st43" d="M319.2,45.4h0.7c0.4,0,0.7,0.3,0.7,0.7v0.7c0,0.4-0.3,0.7-0.7,0.7h-0.7
		c-0.4,0-0.7-0.3-0.7-0.7v-0.7C318.4,45.8,318.8,45.4,319.2,45.4z"/>
	<path id="Rounded_Rectangle_1-46_1_" class="st44" d="M312.9,45.1h0.7c0.4,0,0.7,0.3,0.7,0.7v0.7c0,0.4-0.3,0.7-0.7,0.7h-0.7
		c-0.4,0-0.7-0.3-0.7-0.7v-0.7C312.2,45.5,312.5,45.1,312.9,45.1z"/>
	<path id="Rounded_Rectangle_1-47_1_" class="st43" d="M314.3,44.3h0.7c0.4,0,0.7,0.3,0.7,0.7v0.7c0,0.4-0.3,0.7-0.7,0.7h-0.7
		c-0.4,0-0.7-0.3-0.7-0.7v-0.7C313.5,44.7,313.9,44.3,314.3,44.3z"/>
</g>
<g>
	<rect x="209.8" y="229.6" class="st9" width="136.1" height="17"/>
	<text transform="matrix(1 0 0 1 259.8022 241.1511)" class="st14 st11 st12">Platform</text>
</g>
<g>
	<rect x="209.8" y="246.6" class="st9" width="136.1" height="17"/>
	<text transform="matrix(1 0 0 1 256.9702 258.159)" class="st16 st11 st12">Hardware</text>
</g>
<g>
	<rect x="22.7" y="229.6" class="st9" width="136.1" height="17"/>
	<text transform="matrix(1 0 0 1 72.7151 241.1509)" class="st14 st11 st12">Platform</text>
</g>
<g>
	<rect x="22.7" y="246.6" class="st9" width="136.1" height="17"/>
	<text transform="matrix(1 0 0 1 69.8836 258.1589)" class="st16 st11 st12">Hardware</text>
</g>
</svg>
