<?xml version="1.0" encoding="utf-8" standalone="no"?>
<!DOCTYPE svg PUBLIC "-//W3C//DTD SVG 1.1//EN"
  "http://www.w3.org/Graphics/SVG/1.1/DTD/svg11.dtd">
<svg xmlns:xlink="http://www.w3.org/1999/xlink" width="487.064375pt" height="317.267495pt" viewBox="0 0 487.064375 317.267495" xmlns="http://www.w3.org/2000/svg" version="1.1">
 <defs>
  <style type="text/css">*{stroke-linejoin: round; stroke-linecap: butt}</style>
 </defs>
 <g id="figure_1">
  <g id="patch_1">
   <path d="M 0 317.267495 
L 487.064375 317.267495 
L 487.064375 0 
L 0 0 
z
" style="fill: #ffffff"/>
  </g>
  <g id="axes_1">
   <g id="patch_2">
    <path d="M 33.464375 197.574688 
L 479.864375 197.574688 
L 479.864375 13.974688 
L 33.464375 13.974688 
z
" style="fill: #ffffff"/>
   </g>
   <g id="line2d_1">
    <path d="M 145.064375 201.246688 
L 145.064375 13.974688 
" style="fill: none; stroke: #000000; stroke-width: 0.5; stroke-linecap: square"/>
   </g>
   <g id="line2d_2">
    <path d="M 256.664375 201.246688 
L 256.664375 13.974688 
" style="fill: none; stroke: #000000; stroke-width: 0.5; stroke-linecap: square"/>
   </g>
   <g id="line2d_3">
    <path d="M 368.264375 201.246688 
L 368.264375 13.974688 
" style="fill: none; stroke: #000000; stroke-width: 0.5; stroke-linecap: square"/>
   </g>
   <g id="patch_3">
    <path d="M 33.464375 197.574688 
L 33.464375 13.974688 
" style="fill: none; stroke: #000000; stroke-linejoin: miter; stroke-linecap: square"/>
   </g>
   <g id="patch_4">
    <path d="M 479.864375 197.574688 
L 479.864375 13.974688 
" style="fill: none; stroke: #000000; stroke-linejoin: miter; stroke-linecap: square"/>
   </g>
   <g id="patch_5">
    <path d="M 33.464375 197.574688 
L 479.864375 197.574688 
" style="fill: none; stroke: #000000; stroke-linejoin: miter; stroke-linecap: square"/>
   </g>
   <g id="patch_6">
    <path d="M 33.464375 13.974688 
L 479.864375 13.974688 
" style="fill: none; stroke: #000000; stroke-linejoin: miter; stroke-linecap: square"/>
   </g>
   <g id="matplotlib.axis_1">
    <g id="xtick_1">
     <g id="line2d_4"/>
     <g id="line2d_5"/>
     <g id="text_1">
      <!-- Alpine -->
      <g transform="translate(59.178749 251.002777)rotate(-45)scale(0.18 -0.18)">
       <defs>
        <path id="DejaVuSans-41" d="M 2188 4044 
L 1331 1722 
L 3047 1722 
L 2188 4044 
z
M 1831 4666 
L 2547 4666 
L 4325 0 
L 3669 0 
L 3244 1197 
L 1141 1197 
L 716 0 
L 50 0 
L 1831 4666 
z
" transform="scale(0.015625)"/>
        <path id="DejaVuSans-6c" d="M 603 4863 
L 1178 4863 
L 1178 0 
L 603 0 
L 603 4863 
z
" transform="scale(0.015625)"/>
        <path id="DejaVuSans-70" d="M 1159 525 
L 1159 -1331 
L 581 -1331 
L 581 3500 
L 1159 3500 
L 1159 2969 
Q 1341 3281 1617 3432 
Q 1894 3584 2278 3584 
Q 2916 3584 3314 3078 
Q 3713 2572 3713 1747 
Q 3713 922 3314 415 
Q 2916 -91 2278 -91 
Q 1894 -91 1617 61 
Q 1341 213 1159 525 
z
M 3116 1747 
Q 3116 2381 2855 2742 
Q 2594 3103 2138 3103 
Q 1681 3103 1420 2742 
Q 1159 2381 1159 1747 
Q 1159 1113 1420 752 
Q 1681 391 2138 391 
Q 2594 391 2855 752 
Q 3116 1113 3116 1747 
z
" transform="scale(0.015625)"/>
        <path id="DejaVuSans-69" d="M 603 3500 
L 1178 3500 
L 1178 0 
L 603 0 
L 603 3500 
z
M 603 4863 
L 1178 4863 
L 1178 4134 
L 603 4134 
L 603 4863 
z
" transform="scale(0.015625)"/>
        <path id="DejaVuSans-6e" d="M 3513 2113 
L 3513 0 
L 2938 0 
L 2938 2094 
Q 2938 2591 2744 2837 
Q 2550 3084 2163 3084 
Q 1697 3084 1428 2787 
Q 1159 2491 1159 1978 
L 1159 0 
L 581 0 
L 581 3500 
L 1159 3500 
L 1159 2956 
Q 1366 3272 1645 3428 
Q 1925 3584 2291 3584 
Q 2894 3584 3203 3211 
Q 3513 2838 3513 2113 
z
" transform="scale(0.015625)"/>
        <path id="DejaVuSans-65" d="M 3597 1894 
L 3597 1613 
L 953 1613 
Q 991 1019 1311 708 
Q 1631 397 2203 397 
Q 2534 397 2845 478 
Q 3156 559 3463 722 
L 3463 178 
Q 3153 47 2828 -22 
Q 2503 -91 2169 -91 
Q 1331 -91 842 396 
Q 353 884 353 1716 
Q 353 2575 817 3079 
Q 1281 3584 2069 3584 
Q 2775 3584 3186 3129 
Q 3597 2675 3597 1894 
z
M 3022 2063 
Q 3016 2534 2758 2815 
Q 2500 3097 2075 3097 
Q 1594 3097 1305 2825 
Q 1016 2553 972 2059 
L 3022 2063 
z
" transform="scale(0.015625)"/>
       </defs>
       <use xlink:href="#DejaVuSans-41"/>
       <use xlink:href="#DejaVuSans-6c" x="68.408203"/>
       <use xlink:href="#DejaVuSans-70" x="96.191406"/>
       <use xlink:href="#DejaVuSans-69" x="159.667969"/>
       <use xlink:href="#DejaVuSans-6e" x="187.451172"/>
       <use xlink:href="#DejaVuSans-65" x="250.830078"/>
      </g>
      <!-- Linux -->
      <g transform="translate(78.894301 259.792203)rotate(-45)scale(0.18 -0.18)">
       <defs>
        <path id="DejaVuSans-4c" d="M 628 4666 
L 1259 4666 
L 1259 531 
L 3531 531 
L 3531 0 
L 628 0 
L 628 4666 
z
" transform="scale(0.015625)"/>
        <path id="DejaVuSans-75" d="M 544 1381 
L 544 3500 
L 1119 3500 
L 1119 1403 
Q 1119 906 1312 657 
Q 1506 409 1894 409 
Q 2359 409 2629 706 
Q 2900 1003 2900 1516 
L 2900 3500 
L 3475 3500 
L 3475 0 
L 2900 0 
L 2900 538 
Q 2691 219 2414 64 
Q 2138 -91 1772 -91 
Q 1169 -91 856 284 
Q 544 659 544 1381 
z
M 1991 3584 
L 1991 3584 
z
" transform="scale(0.015625)"/>
        <path id="DejaVuSans-78" d="M 3513 3500 
L 2247 1797 
L 3578 0 
L 2900 0 
L 1881 1375 
L 863 0 
L 184 0 
L 1544 1831 
L 300 3500 
L 978 3500 
L 1906 2253 
L 2834 3500 
L 3513 3500 
z
" transform="scale(0.015625)"/>
       </defs>
       <use xlink:href="#DejaVuSans-4c"/>
       <use xlink:href="#DejaVuSans-69" x="55.712891"/>
       <use xlink:href="#DejaVuSans-6e" x="83.496094"/>
       <use xlink:href="#DejaVuSans-75" x="146.875"/>
       <use xlink:href="#DejaVuSans-78" x="210.253906"/>
      </g>
     </g>
    </g>
    <g id="xtick_2">
     <g id="line2d_6"/>
     <g id="line2d_7"/>
     <g id="text_2">
      <!-- Raspbian -->
      <g transform="translate(151.985177 269.79635)rotate(-45)scale(0.18 -0.18)">
       <defs>
        <path id="DejaVuSans-52" d="M 2841 2188 
Q 3044 2119 3236 1894 
Q 3428 1669 3622 1275 
L 4263 0 
L 3584 0 
L 2988 1197 
Q 2756 1666 2539 1819 
Q 2322 1972 1947 1972 
L 1259 1972 
L 1259 0 
L 628 0 
L 628 4666 
L 2053 4666 
Q 2853 4666 3247 4331 
Q 3641 3997 3641 3322 
Q 3641 2881 3436 2590 
Q 3231 2300 2841 2188 
z
M 1259 4147 
L 1259 2491 
L 2053 2491 
Q 2509 2491 2742 2702 
Q 2975 2913 2975 3322 
Q 2975 3731 2742 3939 
Q 2509 4147 2053 4147 
L 1259 4147 
z
" transform="scale(0.015625)"/>
        <path id="DejaVuSans-61" d="M 2194 1759 
Q 1497 1759 1228 1600 
Q 959 1441 959 1056 
Q 959 750 1161 570 
Q 1363 391 1709 391 
Q 2188 391 2477 730 
Q 2766 1069 2766 1631 
L 2766 1759 
L 2194 1759 
z
M 3341 1997 
L 3341 0 
L 2766 0 
L 2766 531 
Q 2569 213 2275 61 
Q 1981 -91 1556 -91 
Q 1019 -91 701 211 
Q 384 513 384 1019 
Q 384 1609 779 1909 
Q 1175 2209 1959 2209 
L 2766 2209 
L 2766 2266 
Q 2766 2663 2505 2880 
Q 2244 3097 1772 3097 
Q 1472 3097 1187 3025 
Q 903 2953 641 2809 
L 641 3341 
Q 956 3463 1253 3523 
Q 1550 3584 1831 3584 
Q 2591 3584 2966 3190 
Q 3341 2797 3341 1997 
z
" transform="scale(0.015625)"/>
        <path id="DejaVuSans-73" d="M 2834 3397 
L 2834 2853 
Q 2591 2978 2328 3040 
Q 2066 3103 1784 3103 
Q 1356 3103 1142 2972 
Q 928 2841 928 2578 
Q 928 2378 1081 2264 
Q 1234 2150 1697 2047 
L 1894 2003 
Q 2506 1872 2764 1633 
Q 3022 1394 3022 966 
Q 3022 478 2636 193 
Q 2250 -91 1575 -91 
Q 1294 -91 989 -36 
Q 684 19 347 128 
L 347 722 
Q 666 556 975 473 
Q 1284 391 1588 391 
Q 1994 391 2212 530 
Q 2431 669 2431 922 
Q 2431 1156 2273 1281 
Q 2116 1406 1581 1522 
L 1381 1569 
Q 847 1681 609 1914 
Q 372 2147 372 2553 
Q 372 3047 722 3315 
Q 1072 3584 1716 3584 
Q 2034 3584 2315 3537 
Q 2597 3491 2834 3397 
z
" transform="scale(0.015625)"/>
        <path id="DejaVuSans-62" d="M 3116 1747 
Q 3116 2381 2855 2742 
Q 2594 3103 2138 3103 
Q 1681 3103 1420 2742 
Q 1159 2381 1159 1747 
Q 1159 1113 1420 752 
Q 1681 391 2138 391 
Q 2594 391 2855 752 
Q 3116 1113 3116 1747 
z
M 1159 2969 
Q 1341 3281 1617 3432 
Q 1894 3584 2278 3584 
Q 2916 3584 3314 3078 
Q 3713 2572 3713 1747 
Q 3713 922 3314 415 
Q 2916 -91 2278 -91 
Q 1894 -91 1617 61 
Q 1341 213 1159 525 
L 1159 0 
L 581 0 
L 581 4863 
L 1159 4863 
L 1159 2969 
z
" transform="scale(0.015625)"/>
       </defs>
       <use xlink:href="#DejaVuSans-52"/>
       <use xlink:href="#DejaVuSans-61" x="67.232422"/>
       <use xlink:href="#DejaVuSans-73" x="128.511719"/>
       <use xlink:href="#DejaVuSans-70" x="180.611328"/>
       <use xlink:href="#DejaVuSans-62" x="244.087891"/>
       <use xlink:href="#DejaVuSans-69" x="307.564453"/>
       <use xlink:href="#DejaVuSans-61" x="335.347656"/>
       <use xlink:href="#DejaVuSans-6e" x="396.626953"/>
      </g>
     </g>
    </g>
    <g id="xtick_3">
     <g id="line2d_8"/>
     <g id="line2d_9"/>
     <g id="text_3">
      <!-- Raspbian -->
      <g transform="translate(263.585177 269.79635)rotate(-45)scale(0.18 -0.18)">
       <use xlink:href="#DejaVuSans-52"/>
       <use xlink:href="#DejaVuSans-61" x="67.232422"/>
       <use xlink:href="#DejaVuSans-73" x="128.511719"/>
       <use xlink:href="#DejaVuSans-70" x="180.611328"/>
       <use xlink:href="#DejaVuSans-62" x="244.087891"/>
       <use xlink:href="#DejaVuSans-69" x="307.564453"/>
       <use xlink:href="#DejaVuSans-61" x="335.347656"/>
       <use xlink:href="#DejaVuSans-6e" x="396.626953"/>
      </g>
      <!-- (Specialized) -->
      <g transform="translate(254.466018 307.420485)rotate(-45)scale(0.18 -0.18)">
       <defs>
        <path id="DejaVuSans-28" d="M 1984 4856 
Q 1566 4138 1362 3434 
Q 1159 2731 1159 2009 
Q 1159 1288 1364 580 
Q 1569 -128 1984 -844 
L 1484 -844 
Q 1016 -109 783 600 
Q 550 1309 550 2009 
Q 550 2706 781 3412 
Q 1013 4119 1484 4856 
L 1984 4856 
z
" transform="scale(0.015625)"/>
        <path id="DejaVuSans-53" d="M 3425 4513 
L 3425 3897 
Q 3066 4069 2747 4153 
Q 2428 4238 2131 4238 
Q 1616 4238 1336 4038 
Q 1056 3838 1056 3469 
Q 1056 3159 1242 3001 
Q 1428 2844 1947 2747 
L 2328 2669 
Q 3034 2534 3370 2195 
Q 3706 1856 3706 1288 
Q 3706 609 3251 259 
Q 2797 -91 1919 -91 
Q 1588 -91 1214 -16 
Q 841 59 441 206 
L 441 856 
Q 825 641 1194 531 
Q 1563 422 1919 422 
Q 2459 422 2753 634 
Q 3047 847 3047 1241 
Q 3047 1584 2836 1778 
Q 2625 1972 2144 2069 
L 1759 2144 
Q 1053 2284 737 2584 
Q 422 2884 422 3419 
Q 422 4038 858 4394 
Q 1294 4750 2059 4750 
Q 2388 4750 2728 4690 
Q 3069 4631 3425 4513 
z
" transform="scale(0.015625)"/>
        <path id="DejaVuSans-63" d="M 3122 3366 
L 3122 2828 
Q 2878 2963 2633 3030 
Q 2388 3097 2138 3097 
Q 1578 3097 1268 2742 
Q 959 2388 959 1747 
Q 959 1106 1268 751 
Q 1578 397 2138 397 
Q 2388 397 2633 464 
Q 2878 531 3122 666 
L 3122 134 
Q 2881 22 2623 -34 
Q 2366 -91 2075 -91 
Q 1284 -91 818 406 
Q 353 903 353 1747 
Q 353 2603 823 3093 
Q 1294 3584 2113 3584 
Q 2378 3584 2631 3529 
Q 2884 3475 3122 3366 
z
" transform="scale(0.015625)"/>
        <path id="DejaVuSans-7a" d="M 353 3500 
L 3084 3500 
L 3084 2975 
L 922 459 
L 3084 459 
L 3084 0 
L 275 0 
L 275 525 
L 2438 3041 
L 353 3041 
L 353 3500 
z
" transform="scale(0.015625)"/>
        <path id="DejaVuSans-64" d="M 2906 2969 
L 2906 4863 
L 3481 4863 
L 3481 0 
L 2906 0 
L 2906 525 
Q 2725 213 2448 61 
Q 2172 -91 1784 -91 
Q 1150 -91 751 415 
Q 353 922 353 1747 
Q 353 2572 751 3078 
Q 1150 3584 1784 3584 
Q 2172 3584 2448 3432 
Q 2725 3281 2906 2969 
z
M 947 1747 
Q 947 1113 1208 752 
Q 1469 391 1925 391 
Q 2381 391 2643 752 
Q 2906 1113 2906 1747 
Q 2906 2381 2643 2742 
Q 2381 3103 1925 3103 
Q 1469 3103 1208 2742 
Q 947 2381 947 1747 
z
" transform="scale(0.015625)"/>
        <path id="DejaVuSans-29" d="M 513 4856 
L 1013 4856 
Q 1481 4119 1714 3412 
Q 1947 2706 1947 2009 
Q 1947 1309 1714 600 
Q 1481 -109 1013 -844 
L 513 -844 
Q 928 -128 1133 580 
Q 1338 1288 1338 2009 
Q 1338 2731 1133 3434 
Q 928 4138 513 4856 
z
" transform="scale(0.015625)"/>
       </defs>
       <use xlink:href="#DejaVuSans-28"/>
       <use xlink:href="#DejaVuSans-53" x="39.013672"/>
       <use xlink:href="#DejaVuSans-70" x="102.490234"/>
       <use xlink:href="#DejaVuSans-65" x="165.966797"/>
       <use xlink:href="#DejaVuSans-63" x="227.490234"/>
       <use xlink:href="#DejaVuSans-69" x="282.470703"/>
       <use xlink:href="#DejaVuSans-61" x="310.253906"/>
       <use xlink:href="#DejaVuSans-6c" x="371.533203"/>
       <use xlink:href="#DejaVuSans-69" x="399.316406"/>
       <use xlink:href="#DejaVuSans-7a" x="427.099609"/>
       <use xlink:href="#DejaVuSans-65" x="479.589844"/>
       <use xlink:href="#DejaVuSans-64" x="541.113281"/>
       <use xlink:href="#DejaVuSans-29" x="604.589844"/>
      </g>
     </g>
    </g>
    <g id="xtick_4">
     <g id="line2d_10"/>
     <g id="line2d_11"/>
     <g id="text_4">
      <!-- Unikraft -->
      <g transform="translate(383.16797 261.813556)rotate(-45)scale(0.18 -0.18)">
       <defs>
        <path id="DejaVuSans-55" d="M 556 4666 
L 1191 4666 
L 1191 1831 
Q 1191 1081 1462 751 
Q 1734 422 2344 422 
Q 2950 422 3222 751 
Q 3494 1081 3494 1831 
L 3494 4666 
L 4128 4666 
L 4128 1753 
Q 4128 841 3676 375 
Q 3225 -91 2344 -91 
Q 1459 -91 1007 375 
Q 556 841 556 1753 
L 556 4666 
z
" transform="scale(0.015625)"/>
        <path id="DejaVuSans-6b" d="M 581 4863 
L 1159 4863 
L 1159 1991 
L 2875 3500 
L 3609 3500 
L 1753 1863 
L 3688 0 
L 2938 0 
L 1159 1709 
L 1159 0 
L 581 0 
L 581 4863 
z
" transform="scale(0.015625)"/>
        <path id="DejaVuSans-72" d="M 2631 2963 
Q 2534 3019 2420 3045 
Q 2306 3072 2169 3072 
Q 1681 3072 1420 2755 
Q 1159 2438 1159 1844 
L 1159 0 
L 581 0 
L 581 3500 
L 1159 3500 
L 1159 2956 
Q 1341 3275 1631 3429 
Q 1922 3584 2338 3584 
Q 2397 3584 2469 3576 
Q 2541 3569 2628 3553 
L 2631 2963 
z
" transform="scale(0.015625)"/>
        <path id="DejaVuSans-66" d="M 2375 4863 
L 2375 4384 
L 1825 4384 
Q 1516 4384 1395 4259 
Q 1275 4134 1275 3809 
L 1275 3500 
L 2222 3500 
L 2222 3053 
L 1275 3053 
L 1275 0 
L 697 0 
L 697 3053 
L 147 3053 
L 147 3500 
L 697 3500 
L 697 3744 
Q 697 4328 969 4595 
Q 1241 4863 1831 4863 
L 2375 4863 
z
" transform="scale(0.015625)"/>
        <path id="DejaVuSans-74" d="M 1172 4494 
L 1172 3500 
L 2356 3500 
L 2356 3053 
L 1172 3053 
L 1172 1153 
Q 1172 725 1289 603 
Q 1406 481 1766 481 
L 2356 481 
L 2356 0 
L 1766 0 
Q 1100 0 847 248 
Q 594 497 594 1153 
L 594 3053 
L 172 3053 
L 172 3500 
L 594 3500 
L 594 4494 
L 1172 4494 
z
" transform="scale(0.015625)"/>
       </defs>
       <use xlink:href="#DejaVuSans-55"/>
       <use xlink:href="#DejaVuSans-6e" x="73.193359"/>
       <use xlink:href="#DejaVuSans-69" x="136.572266"/>
       <use xlink:href="#DejaVuSans-6b" x="164.355469"/>
       <use xlink:href="#DejaVuSans-72" x="222.265625"/>
       <use xlink:href="#DejaVuSans-61" x="263.378906"/>
       <use xlink:href="#DejaVuSans-66" x="324.658203"/>
       <use xlink:href="#DejaVuSans-74" x="358.113281"/>
      </g>
      <!-- helloworld -->
      <g transform="translate(382.184738 291.301765)rotate(-45)scale(0.18 -0.18)">
       <defs>
        <path id="DejaVuSans-68" d="M 3513 2113 
L 3513 0 
L 2938 0 
L 2938 2094 
Q 2938 2591 2744 2837 
Q 2550 3084 2163 3084 
Q 1697 3084 1428 2787 
Q 1159 2491 1159 1978 
L 1159 0 
L 581 0 
L 581 4863 
L 1159 4863 
L 1159 2956 
Q 1366 3272 1645 3428 
Q 1925 3584 2291 3584 
Q 2894 3584 3203 3211 
Q 3513 2838 3513 2113 
z
" transform="scale(0.015625)"/>
        <path id="DejaVuSans-6f" d="M 1959 3097 
Q 1497 3097 1228 2736 
Q 959 2375 959 1747 
Q 959 1119 1226 758 
Q 1494 397 1959 397 
Q 2419 397 2687 759 
Q 2956 1122 2956 1747 
Q 2956 2369 2687 2733 
Q 2419 3097 1959 3097 
z
M 1959 3584 
Q 2709 3584 3137 3096 
Q 3566 2609 3566 1747 
Q 3566 888 3137 398 
Q 2709 -91 1959 -91 
Q 1206 -91 779 398 
Q 353 888 353 1747 
Q 353 2609 779 3096 
Q 1206 3584 1959 3584 
z
" transform="scale(0.015625)"/>
        <path id="DejaVuSans-77" d="M 269 3500 
L 844 3500 
L 1563 769 
L 2278 3500 
L 2956 3500 
L 3675 769 
L 4391 3500 
L 4966 3500 
L 4050 0 
L 3372 0 
L 2619 2869 
L 1863 0 
L 1184 0 
L 269 3500 
z
" transform="scale(0.015625)"/>
       </defs>
       <use xlink:href="#DejaVuSans-68"/>
       <use xlink:href="#DejaVuSans-65" x="63.378906"/>
       <use xlink:href="#DejaVuSans-6c" x="124.902344"/>
       <use xlink:href="#DejaVuSans-6c" x="152.685547"/>
       <use xlink:href="#DejaVuSans-6f" x="180.46875"/>
       <use xlink:href="#DejaVuSans-77" x="241.650391"/>
       <use xlink:href="#DejaVuSans-6f" x="323.4375"/>
       <use xlink:href="#DejaVuSans-72" x="384.619141"/>
       <use xlink:href="#DejaVuSans-6c" x="425.732422"/>
       <use xlink:href="#DejaVuSans-64" x="453.515625"/>
      </g>
     </g>
    </g>
   </g>
   <g id="matplotlib.axis_2">
    <g id="ytick_1">
     <g id="line2d_12">
      <path d="M 33.464375 197.574688 
L 479.864375 197.574688 
" clip-path="url(#p450a9b1d4d)" style="fill: none; stroke-dasharray: 1,3; stroke-dashoffset: 0; stroke: #000000; stroke-opacity: 0.5; stroke-width: 0.5"/>
     </g>
     <g id="line2d_13"/>
     <g id="line2d_14"/>
     <g id="text_5">
      <!-- 0.0 -->
      <g transform="translate(7.2 201.437813)scale(0.14 -0.14)">
       <defs>
        <path id="DejaVuSans-30" d="M 2034 4250 
Q 1547 4250 1301 3770 
Q 1056 3291 1056 2328 
Q 1056 1369 1301 889 
Q 1547 409 2034 409 
Q 2525 409 2770 889 
Q 3016 1369 3016 2328 
Q 3016 3291 2770 3770 
Q 2525 4250 2034 4250 
z
M 2034 4750 
Q 2819 4750 3233 4129 
Q 3647 3509 3647 2328 
Q 3647 1150 3233 529 
Q 2819 -91 2034 -91 
Q 1250 -91 836 529 
Q 422 1150 422 2328 
Q 422 3509 836 4129 
Q 1250 4750 2034 4750 
z
" transform="scale(0.015625)"/>
        <path id="DejaVuSans-2e" d="M 684 794 
L 1344 794 
L 1344 0 
L 684 0 
L 684 794 
z
" transform="scale(0.015625)"/>
       </defs>
       <use xlink:href="#DejaVuSans-30"/>
       <use xlink:href="#DejaVuSans-2e" x="63.623047"/>
       <use xlink:href="#DejaVuSans-30" x="95.410156"/>
      </g>
     </g>
    </g>
    <g id="ytick_2">
     <g id="line2d_15">
      <path d="M 33.464375 166.974688 
L 479.864375 166.974688 
" clip-path="url(#p450a9b1d4d)" style="fill: none; stroke-dasharray: 1,3; stroke-dashoffset: 0; stroke: #000000; stroke-opacity: 0.5; stroke-width: 0.5"/>
     </g>
     <g id="line2d_16"/>
     <g id="line2d_17"/>
     <g id="text_6">
      <!-- 0.5 -->
      <g transform="translate(7.2 170.837813)scale(0.14 -0.14)">
       <defs>
        <path id="DejaVuSans-35" d="M 691 4666 
L 3169 4666 
L 3169 4134 
L 1269 4134 
L 1269 2991 
Q 1406 3038 1543 3061 
Q 1681 3084 1819 3084 
Q 2600 3084 3056 2656 
Q 3513 2228 3513 1497 
Q 3513 744 3044 326 
Q 2575 -91 1722 -91 
Q 1428 -91 1123 -41 
Q 819 9 494 109 
L 494 744 
Q 775 591 1075 516 
Q 1375 441 1709 441 
Q 2250 441 2565 725 
Q 2881 1009 2881 1497 
Q 2881 1984 2565 2268 
Q 2250 2553 1709 2553 
Q 1456 2553 1204 2497 
Q 953 2441 691 2322 
L 691 4666 
z
" transform="scale(0.015625)"/>
       </defs>
       <use xlink:href="#DejaVuSans-30"/>
       <use xlink:href="#DejaVuSans-2e" x="63.623047"/>
       <use xlink:href="#DejaVuSans-35" x="95.410156"/>
      </g>
     </g>
    </g>
    <g id="ytick_3">
     <g id="line2d_18">
      <path d="M 33.464375 136.374688 
L 479.864375 136.374688 
" clip-path="url(#p450a9b1d4d)" style="fill: none; stroke-dasharray: 1,3; stroke-dashoffset: 0; stroke: #000000; stroke-opacity: 0.5; stroke-width: 0.5"/>
     </g>
     <g id="line2d_19"/>
     <g id="line2d_20"/>
     <g id="text_7">
      <!-- 1.0 -->
      <g transform="translate(7.2 140.237813)scale(0.14 -0.14)">
       <defs>
        <path id="DejaVuSans-31" d="M 794 531 
L 1825 531 
L 1825 4091 
L 703 3866 
L 703 4441 
L 1819 4666 
L 2450 4666 
L 2450 531 
L 3481 531 
L 3481 0 
L 794 0 
L 794 531 
z
" transform="scale(0.015625)"/>
       </defs>
       <use xlink:href="#DejaVuSans-31"/>
       <use xlink:href="#DejaVuSans-2e" x="63.623047"/>
       <use xlink:href="#DejaVuSans-30" x="95.410156"/>
      </g>
     </g>
    </g>
    <g id="ytick_4">
     <g id="line2d_21">
      <path d="M 33.464375 105.774688 
L 479.864375 105.774688 
" clip-path="url(#p450a9b1d4d)" style="fill: none; stroke-dasharray: 1,3; stroke-dashoffset: 0; stroke: #000000; stroke-opacity: 0.5; stroke-width: 0.5"/>
     </g>
     <g id="line2d_22"/>
     <g id="line2d_23"/>
     <g id="text_8">
      <!-- 1.5 -->
      <g transform="translate(7.2 109.637813)scale(0.14 -0.14)">
       <use xlink:href="#DejaVuSans-31"/>
       <use xlink:href="#DejaVuSans-2e" x="63.623047"/>
       <use xlink:href="#DejaVuSans-35" x="95.410156"/>
      </g>
     </g>
    </g>
    <g id="ytick_5">
     <g id="line2d_24">
      <path d="M 33.464375 75.174688 
L 479.864375 75.174688 
" clip-path="url(#p450a9b1d4d)" style="fill: none; stroke-dasharray: 1,3; stroke-dashoffset: 0; stroke: #000000; stroke-opacity: 0.5; stroke-width: 0.5"/>
     </g>
     <g id="line2d_25"/>
     <g id="line2d_26"/>
     <g id="text_9">
      <!-- 2.0 -->
      <g transform="translate(7.2 79.037813)scale(0.14 -0.14)">
       <defs>
        <path id="DejaVuSans-32" d="M 1228 531 
L 3431 531 
L 3431 0 
L 469 0 
L 469 531 
Q 828 903 1448 1529 
Q 2069 2156 2228 2338 
Q 2531 2678 2651 2914 
Q 2772 3150 2772 3378 
Q 2772 3750 2511 3984 
Q 2250 4219 1831 4219 
Q 1534 4219 1204 4116 
Q 875 4013 500 3803 
L 500 4441 
Q 881 4594 1212 4672 
Q 1544 4750 1819 4750 
Q 2544 4750 2975 4387 
Q 3406 4025 3406 3419 
Q 3406 3131 3298 2873 
Q 3191 2616 2906 2266 
Q 2828 2175 2409 1742 
Q 1991 1309 1228 531 
z
" transform="scale(0.015625)"/>
       </defs>
       <use xlink:href="#DejaVuSans-32"/>
       <use xlink:href="#DejaVuSans-2e" x="63.623047"/>
       <use xlink:href="#DejaVuSans-30" x="95.410156"/>
      </g>
     </g>
    </g>
    <g id="ytick_6">
     <g id="line2d_27">
      <path d="M 33.464375 44.574688 
L 479.864375 44.574688 
" clip-path="url(#p450a9b1d4d)" style="fill: none; stroke-dasharray: 1,3; stroke-dashoffset: 0; stroke: #000000; stroke-opacity: 0.5; stroke-width: 0.5"/>
     </g>
     <g id="line2d_28"/>
     <g id="line2d_29"/>
     <g id="text_10">
      <!-- 2.5 -->
      <g transform="translate(7.2 48.437813)scale(0.14 -0.14)">
       <use xlink:href="#DejaVuSans-32"/>
       <use xlink:href="#DejaVuSans-2e" x="63.623047"/>
       <use xlink:href="#DejaVuSans-35" x="95.410156"/>
      </g>
     </g>
    </g>
    <g id="ytick_7">
     <g id="line2d_30">
      <path d="M 33.464375 13.974688 
L 479.864375 13.974688 
" clip-path="url(#p450a9b1d4d)" style="fill: none; stroke-dasharray: 1,3; stroke-dashoffset: 0; stroke: #000000; stroke-opacity: 0.5; stroke-width: 0.5"/>
     </g>
     <g id="line2d_31"/>
     <g id="line2d_32"/>
     <g id="text_11">
      <!-- 3.0 -->
      <g transform="translate(7.2 17.837813)scale(0.14 -0.14)">
       <defs>
        <path id="DejaVuSans-33" d="M 2597 2516 
Q 3050 2419 3304 2112 
Q 3559 1806 3559 1356 
Q 3559 666 3084 287 
Q 2609 -91 1734 -91 
Q 1441 -91 1130 -33 
Q 819 25 488 141 
L 488 750 
Q 750 597 1062 519 
Q 1375 441 1716 441 
Q 2309 441 2620 675 
Q 2931 909 2931 1356 
Q 2931 1769 2642 2001 
Q 2353 2234 1838 2234 
L 1294 2234 
L 1294 2753 
L 1863 2753 
Q 2328 2753 2575 2939 
Q 2822 3125 2822 3475 
Q 2822 3834 2567 4026 
Q 2313 4219 1838 4219 
Q 1578 4219 1281 4162 
Q 984 4106 628 3988 
L 628 4550 
Q 988 4650 1302 4700 
Q 1616 4750 1894 4750 
Q 2613 4750 3031 4423 
Q 3450 4097 3450 3541 
Q 3450 3153 3228 2886 
Q 3006 2619 2597 2516 
z
" transform="scale(0.015625)"/>
       </defs>
       <use xlink:href="#DejaVuSans-33"/>
       <use xlink:href="#DejaVuSans-2e" x="63.623047"/>
       <use xlink:href="#DejaVuSans-30" x="95.410156"/>
      </g>
     </g>
    </g>
   </g>
   <g id="patch_7">
    <path d="M 44.624375 197.574688 
L 62.480375 197.574688 
L 62.480375 180.683488 
L 44.624375 180.683488 
z
" clip-path="url(#p450a9b1d4d)" style="fill: url(#hc87b2d37aa); stroke: #000000; stroke-width: 0.5; stroke-linejoin: miter"/>
   </g>
   <g id="text_12">
    <g id="patch_8">
     <path d="M 59.767062 180.123488 
L 59.767063 141.164112 
L 47.337688 141.164112 
L 47.337687 180.123488 
z
" style="fill: #ffffff"/>
    </g>
    <!-- 0.276 -->
    <g transform="translate(57.4155 180.683488)rotate(-90)scale(0.14 -0.14)">
     <defs>
      <path id="DejaVuSans-37" d="M 525 4666 
L 3525 4666 
L 3525 4397 
L 1831 0 
L 1172 0 
L 2766 4134 
L 525 4134 
L 525 4666 
z
" transform="scale(0.015625)"/>
      <path id="DejaVuSans-36" d="M 2113 2584 
Q 1688 2584 1439 2293 
Q 1191 2003 1191 1497 
Q 1191 994 1439 701 
Q 1688 409 2113 409 
Q 2538 409 2786 701 
Q 3034 994 3034 1497 
Q 3034 2003 2786 2293 
Q 2538 2584 2113 2584 
z
M 3366 4563 
L 3366 3988 
Q 3128 4100 2886 4159 
Q 2644 4219 2406 4219 
Q 1781 4219 1451 3797 
Q 1122 3375 1075 2522 
Q 1259 2794 1537 2939 
Q 1816 3084 2150 3084 
Q 2853 3084 3261 2657 
Q 3669 2231 3669 1497 
Q 3669 778 3244 343 
Q 2819 -91 2113 -91 
Q 1303 -91 875 529 
Q 447 1150 447 2328 
Q 447 3434 972 4092 
Q 1497 4750 2381 4750 
Q 2619 4750 2861 4703 
Q 3103 4656 3366 4563 
z
" transform="scale(0.015625)"/>
     </defs>
     <use xlink:href="#DejaVuSans-30"/>
     <use xlink:href="#DejaVuSans-2e" x="63.623047"/>
     <use xlink:href="#DejaVuSans-32" x="95.410156"/>
     <use xlink:href="#DejaVuSans-37" x="159.033203"/>
     <use xlink:href="#DejaVuSans-36" x="222.65625"/>
    </g>
   </g>
   <g id="patch_9">
    <path d="M 62.480375 197.574688 
L 80.336375 197.574688 
L 80.336375 109.079488 
L 62.480375 109.079488 
z
" clip-path="url(#p450a9b1d4d)" style="fill: url(#hba969e86db); stroke: #000000; stroke-width: 0.5; stroke-linejoin: miter"/>
   </g>
   <g id="text_13">
    <g id="patch_10">
     <path d="M 77.623062 108.519488 
L 77.623062 69.560113 
L 65.193687 69.560113 
L 65.193687 108.519488 
z
" style="fill: #ffffff"/>
    </g>
    <!-- 1.446 -->
    <g transform="translate(75.2715 109.079488)rotate(-90)scale(0.14 -0.14)">
     <defs>
      <path id="DejaVuSans-34" d="M 2419 4116 
L 825 1625 
L 2419 1625 
L 2419 4116 
z
M 2253 4666 
L 3047 4666 
L 3047 1625 
L 3713 1625 
L 3713 1100 
L 3047 1100 
L 3047 0 
L 2419 0 
L 2419 1100 
L 313 1100 
L 313 1709 
L 2253 4666 
z
" transform="scale(0.015625)"/>
     </defs>
     <use xlink:href="#DejaVuSans-31"/>
     <use xlink:href="#DejaVuSans-2e" x="63.623047"/>
     <use xlink:href="#DejaVuSans-34" x="95.410156"/>
     <use xlink:href="#DejaVuSans-34" x="159.033203"/>
     <use xlink:href="#DejaVuSans-36" x="222.65625"/>
    </g>
   </g>
   <g id="patch_11">
    <path d="M 98.192375 197.574688 
L 116.048375 197.574688 
L 116.048375 173.829088 
L 98.192375 173.829088 
z
" clip-path="url(#p450a9b1d4d)" style="fill: #fff3cd; stroke: #000000; stroke-width: 0.5; stroke-linejoin: miter"/>
   </g>
   <g id="text_14">
    <g id="patch_12">
     <path d="M 113.335062 173.269088 
L 113.335062 134.309712 
L 100.905687 134.309712 
L 100.905687 173.269088 
z
" style="fill: #ffffff"/>
    </g>
    <!-- 0.388 -->
    <g transform="translate(110.9835 173.829088)rotate(-90)scale(0.14 -0.14)">
     <defs>
      <path id="DejaVuSans-38" d="M 2034 2216 
Q 1584 2216 1326 1975 
Q 1069 1734 1069 1313 
Q 1069 891 1326 650 
Q 1584 409 2034 409 
Q 2484 409 2743 651 
Q 3003 894 3003 1313 
Q 3003 1734 2745 1975 
Q 2488 2216 2034 2216 
z
M 1403 2484 
Q 997 2584 770 2862 
Q 544 3141 544 3541 
Q 544 4100 942 4425 
Q 1341 4750 2034 4750 
Q 2731 4750 3128 4425 
Q 3525 4100 3525 3541 
Q 3525 3141 3298 2862 
Q 3072 2584 2669 2484 
Q 3125 2378 3379 2068 
Q 3634 1759 3634 1313 
Q 3634 634 3220 271 
Q 2806 -91 2034 -91 
Q 1263 -91 848 271 
Q 434 634 434 1313 
Q 434 1759 690 2068 
Q 947 2378 1403 2484 
z
M 1172 3481 
Q 1172 3119 1398 2916 
Q 1625 2713 2034 2713 
Q 2441 2713 2670 2916 
Q 2900 3119 2900 3481 
Q 2900 3844 2670 4047 
Q 2441 4250 2034 4250 
Q 1625 4250 1398 4047 
Q 1172 3844 1172 3481 
z
" transform="scale(0.015625)"/>
     </defs>
     <use xlink:href="#DejaVuSans-30"/>
     <use xlink:href="#DejaVuSans-2e" x="63.623047"/>
     <use xlink:href="#DejaVuSans-33" x="95.410156"/>
     <use xlink:href="#DejaVuSans-38" x="159.033203"/>
     <use xlink:href="#DejaVuSans-38" x="222.65625"/>
    </g>
   </g>
   <g id="patch_13">
    <path d="M 116.048375 197.574688 
L 133.904375 197.574688 
L 133.904375 73.338688 
L 116.048375 73.338688 
z
" clip-path="url(#p450a9b1d4d)" style="fill: #618c84; stroke: #000000; stroke-width: 0.5; stroke-linejoin: miter"/>
   </g>
   <g id="text_15">
    <g id="patch_14">
     <path d="M 131.191063 72.778688 
L 131.191063 42.726813 
L 118.761688 42.726813 
L 118.761688 72.778688 
z
" style="fill: #ffffff"/>
    </g>
    <!-- 2.03 -->
    <g transform="translate(128.8395 73.338688)rotate(-90)scale(0.14 -0.14)">
     <use xlink:href="#DejaVuSans-32"/>
     <use xlink:href="#DejaVuSans-2e" x="63.623047"/>
     <use xlink:href="#DejaVuSans-30" x="95.410156"/>
     <use xlink:href="#DejaVuSans-33" x="159.033203"/>
    </g>
   </g>
   <g id="patch_15">
    <path d="M 156.224375 197.574688 
L 174.080375 197.574688 
L 174.080375 181.968688 
L 156.224375 181.968688 
z
" clip-path="url(#p450a9b1d4d)" style="fill: url(#hc87b2d37aa); stroke: #000000; stroke-width: 0.5; stroke-linejoin: miter"/>
   </g>
   <g id="text_16">
    <g id="patch_16">
     <path d="M 171.367062 181.408688 
L 171.367062 142.449313 
L 158.937687 142.449313 
L 158.937687 181.408688 
z
" style="fill: #ffffff"/>
    </g>
    <!-- 0.255 -->
    <g transform="translate(169.0155 181.968688)rotate(-90)scale(0.14 -0.14)">
     <use xlink:href="#DejaVuSans-30"/>
     <use xlink:href="#DejaVuSans-2e" x="63.623047"/>
     <use xlink:href="#DejaVuSans-32" x="95.410156"/>
     <use xlink:href="#DejaVuSans-35" x="159.033203"/>
     <use xlink:href="#DejaVuSans-35" x="222.65625"/>
    </g>
   </g>
   <g id="patch_17">
    <path d="M 174.080375 197.574688 
L 191.936375 197.574688 
L 191.936375 86.741488 
L 174.080375 86.741488 
z
" clip-path="url(#p450a9b1d4d)" style="fill: url(#hba969e86db); stroke: #000000; stroke-width: 0.5; stroke-linejoin: miter"/>
   </g>
   <g id="text_17">
    <g id="patch_18">
     <path d="M 189.223062 86.181488 
L 189.223062 47.222112 
L 176.793688 47.222112 
L 176.793688 86.181488 
z
" style="fill: #ffffff"/>
    </g>
    <!-- 1.811 -->
    <g transform="translate(186.8715 86.741488)rotate(-90)scale(0.14 -0.14)">
     <use xlink:href="#DejaVuSans-31"/>
     <use xlink:href="#DejaVuSans-2e" x="63.623047"/>
     <use xlink:href="#DejaVuSans-38" x="95.410156"/>
     <use xlink:href="#DejaVuSans-31" x="159.033203"/>
     <use xlink:href="#DejaVuSans-31" x="222.65625"/>
    </g>
   </g>
   <g id="patch_19">
    <path d="M 209.792375 197.574688 
L 227.648375 197.574688 
L 227.648375 175.603888 
L 209.792375 175.603888 
z
" clip-path="url(#p450a9b1d4d)" style="fill: #fff3cd; stroke: #000000; stroke-width: 0.5; stroke-linejoin: miter"/>
   </g>
   <g id="text_18">
    <g id="patch_20">
     <path d="M 224.935063 175.043888 
L 224.935063 136.084513 
L 212.505688 136.084513 
L 212.505688 175.043888 
z
" style="fill: #ffffff"/>
    </g>
    <!-- 0.359 -->
    <g transform="translate(222.5835 175.603888)rotate(-90)scale(0.14 -0.14)">
     <defs>
      <path id="DejaVuSans-39" d="M 703 97 
L 703 672 
Q 941 559 1184 500 
Q 1428 441 1663 441 
Q 2288 441 2617 861 
Q 2947 1281 2994 2138 
Q 2813 1869 2534 1725 
Q 2256 1581 1919 1581 
Q 1219 1581 811 2004 
Q 403 2428 403 3163 
Q 403 3881 828 4315 
Q 1253 4750 1959 4750 
Q 2769 4750 3195 4129 
Q 3622 3509 3622 2328 
Q 3622 1225 3098 567 
Q 2575 -91 1691 -91 
Q 1453 -91 1209 -44 
Q 966 3 703 97 
z
M 1959 2075 
Q 2384 2075 2632 2365 
Q 2881 2656 2881 3163 
Q 2881 3666 2632 3958 
Q 2384 4250 1959 4250 
Q 1534 4250 1286 3958 
Q 1038 3666 1038 3163 
Q 1038 2656 1286 2365 
Q 1534 2075 1959 2075 
z
" transform="scale(0.015625)"/>
     </defs>
     <use xlink:href="#DejaVuSans-30"/>
     <use xlink:href="#DejaVuSans-2e" x="63.623047"/>
     <use xlink:href="#DejaVuSans-33" x="95.410156"/>
     <use xlink:href="#DejaVuSans-35" x="159.033203"/>
     <use xlink:href="#DejaVuSans-39" x="222.65625"/>
    </g>
   </g>
   <g id="patch_21">
    <path d="M 227.648375 197.574688 
L 245.504375 197.574688 
L 245.504375 83.008288 
L 227.648375 83.008288 
z
" clip-path="url(#p450a9b1d4d)" style="fill: #618c84; stroke: #000000; stroke-width: 0.5; stroke-linejoin: miter"/>
   </g>
   <g id="text_19">
    <g id="patch_22">
     <path d="M 242.791062 82.448287 
L 242.791062 43.488912 
L 230.361687 43.488912 
L 230.361687 82.448287 
z
" style="fill: #ffffff"/>
    </g>
    <!-- 1.872 -->
    <g transform="translate(240.4395 83.008287)rotate(-90)scale(0.14 -0.14)">
     <use xlink:href="#DejaVuSans-31"/>
     <use xlink:href="#DejaVuSans-2e" x="63.623047"/>
     <use xlink:href="#DejaVuSans-38" x="95.410156"/>
     <use xlink:href="#DejaVuSans-37" x="159.033203"/>
     <use xlink:href="#DejaVuSans-32" x="222.65625"/>
    </g>
   </g>
   <g id="patch_23">
    <path d="M 267.824375 197.574688 
L 285.680375 197.574688 
L 285.680375 184.110688 
L 267.824375 184.110688 
z
" clip-path="url(#p450a9b1d4d)" style="fill: url(#hc87b2d37aa); stroke: #000000; stroke-width: 0.5; stroke-linejoin: miter"/>
   </g>
   <g id="text_20">
    <g id="patch_24">
     <path d="M 282.967063 183.550688 
L 282.967063 153.498813 
L 270.537688 153.498813 
L 270.537688 183.550688 
z
" style="fill: #ffffff"/>
    </g>
    <!-- 0.22 -->
    <g transform="translate(280.6155 184.110688)rotate(-90)scale(0.14 -0.14)">
     <use xlink:href="#DejaVuSans-30"/>
     <use xlink:href="#DejaVuSans-2e" x="63.623047"/>
     <use xlink:href="#DejaVuSans-32" x="95.410156"/>
     <use xlink:href="#DejaVuSans-32" x="159.033203"/>
    </g>
   </g>
   <g id="patch_25">
    <path d="M 285.680375 197.574688 
L 303.536375 197.574688 
L 303.536375 127.500688 
L 285.680375 127.500688 
z
" clip-path="url(#p450a9b1d4d)" style="fill: url(#hba969e86db); stroke: #000000; stroke-width: 0.5; stroke-linejoin: miter"/>
   </g>
   <g id="text_21">
    <g id="patch_26">
     <path d="M 300.823062 126.940688 
L 300.823062 87.981313 
L 288.393687 87.981313 
L 288.393687 126.940688 
z
" style="fill: #ffffff"/>
    </g>
    <!-- 1.145 -->
    <g transform="translate(298.4715 127.500688)rotate(-90)scale(0.14 -0.14)">
     <use xlink:href="#DejaVuSans-31"/>
     <use xlink:href="#DejaVuSans-2e" x="63.623047"/>
     <use xlink:href="#DejaVuSans-31" x="95.410156"/>
     <use xlink:href="#DejaVuSans-34" x="159.033203"/>
     <use xlink:href="#DejaVuSans-35" x="222.65625"/>
    </g>
   </g>
   <g id="patch_27">
    <path d="M 321.392375 197.574688 
L 339.248375 197.574688 
L 339.248375 176.889088 
L 321.392375 176.889088 
z
" clip-path="url(#p450a9b1d4d)" style="fill: #fff3cd; stroke: #000000; stroke-width: 0.5; stroke-linejoin: miter"/>
   </g>
   <g id="text_22">
    <g id="patch_28">
     <path d="M 336.535063 176.329088 
L 336.535063 137.369712 
L 324.105688 137.369712 
L 324.105688 176.329088 
z
" style="fill: #ffffff"/>
    </g>
    <!-- 0.338 -->
    <g transform="translate(334.1835 176.889088)rotate(-90)scale(0.14 -0.14)">
     <use xlink:href="#DejaVuSans-30"/>
     <use xlink:href="#DejaVuSans-2e" x="63.623047"/>
     <use xlink:href="#DejaVuSans-33" x="95.410156"/>
     <use xlink:href="#DejaVuSans-33" x="159.033203"/>
     <use xlink:href="#DejaVuSans-38" x="222.65625"/>
    </g>
   </g>
   <g id="patch_29">
    <path d="M 339.248375 197.574688 
L 357.104375 197.574688 
L 357.104375 89.434288 
L 339.248375 89.434288 
z
" clip-path="url(#p450a9b1d4d)" style="fill: #618c84; stroke: #000000; stroke-width: 0.5; stroke-linejoin: miter"/>
   </g>
   <g id="text_23">
    <g id="patch_30">
     <path d="M 354.391062 88.874288 
L 354.391062 49.914913 
L 341.961687 49.914913 
L 341.961687 88.874288 
z
" style="fill: #ffffff"/>
    </g>
    <!-- 1.767 -->
    <g transform="translate(352.0395 89.434288)rotate(-90)scale(0.14 -0.14)">
     <use xlink:href="#DejaVuSans-31"/>
     <use xlink:href="#DejaVuSans-2e" x="63.623047"/>
     <use xlink:href="#DejaVuSans-37" x="95.410156"/>
     <use xlink:href="#DejaVuSans-36" x="159.033203"/>
     <use xlink:href="#DejaVuSans-37" x="222.65625"/>
    </g>
   </g>
   <g id="patch_31">
    <path d="M 379.424375 197.574688 
L 397.280375 197.574688 
L 397.280375 191.515888 
L 379.424375 191.515888 
z
" clip-path="url(#p450a9b1d4d)" style="fill: url(#hc87b2d37aa); stroke: #000000; stroke-width: 0.5; stroke-linejoin: miter"/>
   </g>
   <g id="text_24">
    <g id="patch_32">
     <path d="M 394.567063 190.955888 
L 394.567063 151.996512 
L 382.137688 151.996512 
L 382.137688 190.955888 
z
" style="fill: #ffffff"/>
    </g>
    <!-- 0.099 -->
    <g transform="translate(392.2155 191.515888)rotate(-90)scale(0.14 -0.14)">
     <use xlink:href="#DejaVuSans-30"/>
     <use xlink:href="#DejaVuSans-2e" x="63.623047"/>
     <use xlink:href="#DejaVuSans-30" x="95.410156"/>
     <use xlink:href="#DejaVuSans-39" x="159.033203"/>
     <use xlink:href="#DejaVuSans-39" x="222.65625"/>
    </g>
   </g>
   <g id="patch_33">
    <path d="M 397.280375 197.574688 
L 415.136375 197.574688 
L 415.136375 166.240288 
L 397.280375 166.240288 
z
" clip-path="url(#p450a9b1d4d)" style="fill: url(#hba969e86db); stroke: #000000; stroke-width: 0.5; stroke-linejoin: miter"/>
   </g>
   <g id="text_25">
    <g id="patch_34">
     <path d="M 412.423063 165.680288 
L 412.423063 126.720913 
L 399.993688 126.720913 
L 399.993688 165.680288 
z
" style="fill: #ffffff"/>
    </g>
    <!-- 0.512 -->
    <g transform="translate(410.0715 166.240288)rotate(-90)scale(0.14 -0.14)">
     <use xlink:href="#DejaVuSans-30"/>
     <use xlink:href="#DejaVuSans-2e" x="63.623047"/>
     <use xlink:href="#DejaVuSans-35" x="95.410156"/>
     <use xlink:href="#DejaVuSans-31" x="159.033203"/>
     <use xlink:href="#DejaVuSans-32" x="222.65625"/>
    </g>
   </g>
   <g id="patch_35">
    <path d="M 432.992375 197.574688 
L 450.848375 197.574688 
L 450.848375 190.659088 
L 432.992375 190.659088 
z
" clip-path="url(#p450a9b1d4d)" style="fill: #fff3cd; stroke: #000000; stroke-width: 0.5; stroke-linejoin: miter"/>
   </g>
   <g id="text_26">
    <g id="patch_36">
     <path d="M 448.135063 190.099088 
L 448.135063 151.139713 
L 435.705688 151.139713 
L 435.705688 190.099088 
z
" style="fill: #ffffff"/>
    </g>
    <!-- 0.113 -->
    <g transform="translate(445.7835 190.659088)rotate(-90)scale(0.14 -0.14)">
     <use xlink:href="#DejaVuSans-30"/>
     <use xlink:href="#DejaVuSans-2e" x="63.623047"/>
     <use xlink:href="#DejaVuSans-31" x="95.410156"/>
     <use xlink:href="#DejaVuSans-31" x="159.033203"/>
     <use xlink:href="#DejaVuSans-33" x="222.65625"/>
    </g>
   </g>
   <g id="patch_37">
    <path d="M 450.848375 197.574688 
L 468.704375 197.574688 
L 468.704375 161.344288 
L 450.848375 161.344288 
z
" clip-path="url(#p450a9b1d4d)" style="fill: #618c84; stroke: #000000; stroke-width: 0.5; stroke-linejoin: miter"/>
   </g>
   <g id="text_27">
    <g id="patch_38">
     <path d="M 465.991063 160.784288 
L 465.991063 121.824912 
L 453.561688 121.824912 
L 453.561688 160.784288 
z
" style="fill: #ffffff"/>
    </g>
    <!-- 0.592 -->
    <g transform="translate(463.6395 161.344288)rotate(-90)scale(0.14 -0.14)">
     <use xlink:href="#DejaVuSans-30"/>
     <use xlink:href="#DejaVuSans-2e" x="63.623047"/>
     <use xlink:href="#DejaVuSans-35" x="95.410156"/>
     <use xlink:href="#DejaVuSans-39" x="159.033203"/>
     <use xlink:href="#DejaVuSans-32" x="222.65625"/>
    </g>
   </g>
   <g id="legend_1">
    <g id="patch_39">
     <path d="M 219.6875 40.124062 
L 478.464375 40.124062 
L 478.464375 15.374687 
L 219.6875 15.374687 
z
" style="fill: #ffffff; stroke: #ffffff; stroke-linejoin: miter"/>
    </g>
    <g id="patch_40">
     <path d="M 225.2875 31.6125 
L 253.2875 31.6125 
L 253.2875 21.8125 
L 225.2875 21.8125 
z
" style="fill: #fff3cd; stroke: #000000; stroke-width: 0.5; stroke-linejoin: miter"/>
    </g>
    <g id="text_28">
     <!-- amps -->
     <g transform="translate(264.4875 31.6125)scale(0.14 -0.14)">
      <defs>
       <path id="DejaVuSans-6d" d="M 3328 2828 
Q 3544 3216 3844 3400 
Q 4144 3584 4550 3584 
Q 5097 3584 5394 3201 
Q 5691 2819 5691 2113 
L 5691 0 
L 5113 0 
L 5113 2094 
Q 5113 2597 4934 2840 
Q 4756 3084 4391 3084 
Q 3944 3084 3684 2787 
Q 3425 2491 3425 1978 
L 3425 0 
L 2847 0 
L 2847 2094 
Q 2847 2600 2669 2842 
Q 2491 3084 2119 3084 
Q 1678 3084 1418 2786 
Q 1159 2488 1159 1978 
L 1159 0 
L 581 0 
L 581 3500 
L 1159 3500 
L 1159 2956 
Q 1356 3278 1631 3431 
Q 1906 3584 2284 3584 
Q 2666 3584 2933 3390 
Q 3200 3197 3328 2828 
z
" transform="scale(0.015625)"/>
      </defs>
      <use xlink:href="#DejaVuSans-61"/>
      <use xlink:href="#DejaVuSans-6d" x="61.279297"/>
      <use xlink:href="#DejaVuSans-70" x="158.691406"/>
      <use xlink:href="#DejaVuSans-73" x="222.167969"/>
     </g>
    </g>
    <g id="patch_41">
     <path d="M 316.884687 31.6125 
L 344.884687 31.6125 
L 344.884687 21.8125 
L 316.884687 21.8125 
z
" style="fill: #618c84; stroke: #000000; stroke-width: 0.5; stroke-linejoin: miter"/>
    </g>
    <g id="text_29">
     <!-- watts -->
     <g transform="translate(356.084687 31.6125)scale(0.14 -0.14)">
      <use xlink:href="#DejaVuSans-77"/>
      <use xlink:href="#DejaVuSans-61" x="81.787109"/>
      <use xlink:href="#DejaVuSans-74" x="143.066406"/>
      <use xlink:href="#DejaVuSans-74" x="182.275391"/>
      <use xlink:href="#DejaVuSans-73" x="221.484375"/>
     </g>
    </g>
    <g id="patch_42">
     <path d="M 408.383438 31.6125 
L 436.383438 31.6125 
L 436.383438 21.8125 
L 408.383438 21.8125 
z
" style="fill: url(#ha2e09388ae); stroke: #000000; stroke-width: 0.5; stroke-linejoin: miter"/>
    </g>
    <g id="text_30">
     <!-- idle -->
     <g transform="translate(447.583438 31.6125)scale(0.14 -0.14)">
      <use xlink:href="#DejaVuSans-69"/>
      <use xlink:href="#DejaVuSans-64" x="27.783203"/>
      <use xlink:href="#DejaVuSans-6c" x="91.259766"/>
      <use xlink:href="#DejaVuSans-65" x="119.042969"/>
     </g>
    </g>
   </g>
  </g>
 </g>
 <defs>
  <clipPath id="p450a9b1d4d">
   <rect x="33.464375" y="13.974688" width="446.4" height="183.6"/>
  </clipPath>
 </defs>
 <defs>
  <pattern id="hc87b2d37aa" patternUnits="userSpaceOnUse" x="0" y="0" width="72" height="72">
   <rect x="0" y="0" width="73" height="73" fill="#fff3cd"/>
   <path d="M -36 36 
L 36 108 
M -33 33 
L 39 105 
M -30 30 
L 42 102 
M -27 27 
L 45 99 
M -24 24 
L 48 96 
M -21 21 
L 51 93 
M -18 18 
L 54 90 
M -15 15 
L 57 87 
M -12 12 
L 60 84 
M -9 9 
L 63 81 
M -6 6 
L 66 78 
M -3 3 
L 69 75 
M 0 0 
L 72 72 
M 3 -3 
L 75 69 
M 6 -6 
L 78 66 
M 9 -9 
L 81 63 
M 12 -12 
L 84 60 
M 15 -15 
L 87 57 
M 18 -18 
L 90 54 
M 21 -21 
L 93 51 
M 24 -24 
L 96 48 
M 27 -27 
L 99 45 
M 30 -30 
L 102 42 
M 33 -33 
L 105 39 
M 36 -36 
L 108 36 
" style="fill: #000000; stroke: #000000; stroke-width: 0.5; stroke-linecap: butt; stroke-linejoin: miter"/>
  </pattern>
  <pattern id="hba969e86db" patternUnits="userSpaceOnUse" x="0" y="0" width="72" height="72">
   <rect x="0" y="0" width="73" height="73" fill="#618c84"/>
   <path d="M -36 36 
L 36 108 
M -33 33 
L 39 105 
M -30 30 
L 42 102 
M -27 27 
L 45 99 
M -24 24 
L 48 96 
M -21 21 
L 51 93 
M -18 18 
L 54 90 
M -15 15 
L 57 87 
M -12 12 
L 60 84 
M -9 9 
L 63 81 
M -6 6 
L 66 78 
M -3 3 
L 69 75 
M 0 0 
L 72 72 
M 3 -3 
L 75 69 
M 6 -6 
L 78 66 
M 9 -9 
L 81 63 
M 12 -12 
L 84 60 
M 15 -15 
L 87 57 
M 18 -18 
L 90 54 
M 21 -21 
L 93 51 
M 24 -24 
L 96 48 
M 27 -27 
L 99 45 
M 30 -30 
L 102 42 
M 33 -33 
L 105 39 
M 36 -36 
L 108 36 
" style="fill: #000000; stroke: #000000; stroke-width: 0.5; stroke-linecap: butt; stroke-linejoin: miter"/>
  </pattern>
  <pattern id="ha2e09388ae" patternUnits="userSpaceOnUse" x="0" y="0" width="72" height="72">
   <rect x="0" y="0" width="73" height="73" fill="#ffffff"/>
   <path d="M -36 36 
L 36 108 
M -33 33 
L 39 105 
M -30 30 
L 42 102 
M -27 27 
L 45 99 
M -24 24 
L 48 96 
M -21 21 
L 51 93 
M -18 18 
L 54 90 
M -15 15 
L 57 87 
M -12 12 
L 60 84 
M -9 9 
L 63 81 
M -6 6 
L 66 78 
M -3 3 
L 69 75 
M 0 0 
L 72 72 
M 3 -3 
L 75 69 
M 6 -6 
L 78 66 
M 9 -9 
L 81 63 
M 12 -12 
L 84 60 
M 15 -15 
L 87 57 
M 18 -18 
L 90 54 
M 21 -21 
L 93 51 
M 24 -24 
L 96 48 
M 27 -27 
L 99 45 
M 30 -30 
L 102 42 
M 33 -33 
L 105 39 
M 36 -36 
L 108 36 
" style="fill: #000000; stroke: #000000; stroke-width: 0.5; stroke-linecap: butt; stroke-linejoin: miter"/>
  </pattern>
 </defs>
</svg>
