<?xml version="1.0" encoding="utf-8"?>
<!-- Generator: Adobe Illustrator 26.0.1, SVG Export Plug-In . SVG Version: 6.00 Build 0)  -->
<svg version="1.1" id="Layer_1" xmlns="http://www.w3.org/2000/svg" xmlns:xlink="http://www.w3.org/1999/xlink" x="0px" y="0px"
	 viewBox="0 0 157.9 102.9" style="enable-background:new 0 0 157.9 102.9;" xml:space="preserve">
<style type="text/css">
	.st0{fill:none;}
	.st1{fill:#FFF5D7;}
	.st2{clip-path:url(#SVGID_00000149364543024117450050000002888779576490252731_);fill:#FFF5D7;}
	
		.st3{clip-path:url(#SVGID_00000149364543024117450050000002888779576490252731_);fill:none;stroke:#000000;stroke-width:0.5;stroke-miterlimit:10;}
	.st4{fill:#759695;}
	.st5{clip-path:url(#SVGID_00000129173710817258792470000009452736554524044975_);fill:#759695;}
	
		.st6{clip-path:url(#SVGID_00000129173710817258792470000009452736554524044975_);fill:none;stroke:#000000;stroke-width:0.5;stroke-miterlimit:10;}
	.st7{fill:#FFFFFF;}
	.st8{clip-path:url(#SVGID_00000152963731129025427360000010237854729825089194_);fill:#FFFFFF;}
	
		.st9{clip-path:url(#SVGID_00000152963731129025427360000010237854729825089194_);fill:none;stroke:#000000;stroke-width:0.5;stroke-miterlimit:10;}
	.st10{font-family:'Inter','helvetica neue', helvetica, ubuntu, roboto, noto, 'segoe ui', arial, sans-serif;}
	.st11{font-size:5.8362px;}
	.st12{clip-path:url(#SVGID_00000103972769263614916190000016353466525330818433_);}
	.st13{font-size:4.5392px;}
	.st14{fill:#888888;}
	.st15{fill:url(#SVGID_00000174576493354000846280000012555413701486344869_);}
	
		.st16{clip-path:url(#SVGID_00000141433328800640230690000004161082208959934870_);fill:none;stroke:#000000;stroke-width:0.162;stroke-miterlimit:10;}
	.st17{fill:url(#SVGID_00000169560372077287898270000013470098251240706716_);}
	
		.st18{clip-path:url(#SVGID_00000039127199724502918530000002832501338705737354_);fill:none;stroke:#000000;stroke-width:0.162;stroke-miterlimit:10;}
	.st19{fill:#FFF5D4;}
	
		.st20{clip-path:url(#SVGID_00000029755951062918879990000015874943918841767826_);fill:none;stroke:#000000;stroke-width:0.162;stroke-miterlimit:10;}
	.st21{fill:#5B8980;}
	
		.st22{clip-path:url(#SVGID_00000056429495925160645360000011741225063026610596_);fill:none;stroke:#000000;stroke-width:0.162;stroke-miterlimit:10;}
	.st23{fill:url(#SVGID_00000034806713466377632490000009584856627762066614_);}
	
		.st24{clip-path:url(#SVGID_00000041993955799214008910000002055330281524388513_);fill:none;stroke:#000000;stroke-width:0.162;stroke-miterlimit:10;}
	.st25{fill:url(#SVGID_00000054947514033273042310000015324788487460410294_);}
	
		.st26{clip-path:url(#SVGID_00000051347275378617263660000015152004939674135460_);fill:none;stroke:#000000;stroke-width:0.162;stroke-miterlimit:10;}
	
		.st27{clip-path:url(#SVGID_00000176041363510434961500000017402898053947440536_);fill:none;stroke:#000000;stroke-width:0.162;stroke-miterlimit:10;}
	
		.st28{clip-path:url(#SVGID_00000088125931186952345480000010520651915269227428_);fill:none;stroke:#000000;stroke-width:0.162;stroke-miterlimit:10;}
	.st29{fill:url(#SVGID_00000111185891843907430120000009694937435660940199_);}
	
		.st30{clip-path:url(#SVGID_00000010993937738203547480000012289368409035874449_);fill:none;stroke:#000000;stroke-width:0.162;stroke-miterlimit:10;}
	.st31{fill:url(#SVGID_00000166667095519910569020000008123929389837494914_);}
	
		.st32{clip-path:url(#SVGID_00000165919667710266907240000012847566679204077442_);fill:none;stroke:#000000;stroke-width:0.162;stroke-miterlimit:10;}
	
		.st33{clip-path:url(#SVGID_00000078737693635910982880000001834575733692714122_);fill:none;stroke:#000000;stroke-width:0.162;stroke-miterlimit:10;}
	
		.st34{clip-path:url(#SVGID_00000090259159907740694840000000487804804367878021_);fill:none;stroke:#000000;stroke-width:0.162;stroke-miterlimit:10;}
	.st35{fill:url(#SVGID_00000046340663951814547450000005477697270408534187_);}
	
		.st36{clip-path:url(#SVGID_00000015322699331331126850000009397985919823223231_);fill:none;stroke:#000000;stroke-width:0.162;stroke-miterlimit:10;}
	.st37{fill:url(#SVGID_00000111914092593351696580000005010973273993636789_);}
	
		.st38{clip-path:url(#SVGID_00000021798133332381245030000005679380489807542700_);fill:none;stroke:#000000;stroke-width:0.162;stroke-miterlimit:10;}
	
		.st39{clip-path:url(#SVGID_00000130635597234506118810000000310834126044361636_);fill:none;stroke:#000000;stroke-width:0.162;stroke-miterlimit:10;}
	
		.st40{clip-path:url(#SVGID_00000108295423022000582900000017929517036070687627_);fill:none;stroke:#000000;stroke-width:0.162;stroke-miterlimit:10;}
	.st41{fill:none;stroke:#FFFFFF;stroke-width:0.324;stroke-miterlimit:10;}
	.st42{fill:none;stroke:#000000;stroke-width:0.162;stroke-miterlimit:10;}
	.st43{fill:url(#SVGID_00000092438996067019785250000012800598568548502930_);}
</style>
<pattern  x="-47.1" y="-20.6" width="72" height="72" patternUnits="userSpaceOnUse" id="Unnamed_Pattern_7" viewBox="36.2 -108.2 72 72" style="overflow:visible;">
	<g>
		<rect x="36.2" y="-108.2" class="st0" width="72" height="72"/>
		<rect x="36.2" y="-108.2" class="st1" width="72" height="72"/>
		<g>
			<defs>
				<rect id="SVGID_1_" x="36.2" y="-108.2" width="72" height="72"/>
			</defs>
			<clipPath id="SVGID_00000100369007875734727800000003827265209979525249_">
				<use xlink:href="#SVGID_1_"  style="overflow:visible;"/>
			</clipPath>
			<path style="clip-path:url(#SVGID_00000100369007875734727800000003827265209979525249_);fill:#FFF5D7;" d="M72.2-0.2l72-72
				 M69.2-3.2l72-72 M66.2-6.2l72-72 M63.2-9.2l72-72 M60.2-12.2l72-72 M57.2-15.2l72-72 M54.2-18.2l72-72 M51.2-21.2l72-72
				 M48.2-24.2l72-72 M45.2-27.2l72-72 M42.2-30.2l72-72 M39.2-33.2l72-72 M36.2-36.2l72-72 M33.2-39.2l72-72 M30.2-42.2l72-72
				 M27.2-45.2l72-72 M24.2-48.2l72-72 M21.2-51.2l72-72 M18.2-54.2l72-72 M15.2-57.2l72-72 M12.2-60.2l72-72 M9.2-63.2l72-72
				 M6.2-66.2l72-72 M3.2-69.2l72-72 M0.2-72.2l72-72"/>
			
				<line style="clip-path:url(#SVGID_00000100369007875734727800000003827265209979525249_);fill:none;stroke:#000000;stroke-width:0.5;stroke-miterlimit:10;" x1="0.2" y1="-72.2" x2="72.2" y2="-144.2"/>
			
				<line style="clip-path:url(#SVGID_00000100369007875734727800000003827265209979525249_);fill:none;stroke:#000000;stroke-width:0.5;stroke-miterlimit:10;" x1="3.2" y1="-69.2" x2="75.2" y2="-141.2"/>
			
				<line style="clip-path:url(#SVGID_00000100369007875734727800000003827265209979525249_);fill:none;stroke:#000000;stroke-width:0.5;stroke-miterlimit:10;" x1="6.2" y1="-66.2" x2="78.2" y2="-138.2"/>
			
				<line style="clip-path:url(#SVGID_00000100369007875734727800000003827265209979525249_);fill:none;stroke:#000000;stroke-width:0.5;stroke-miterlimit:10;" x1="9.2" y1="-63.2" x2="81.2" y2="-135.2"/>
			
				<line style="clip-path:url(#SVGID_00000100369007875734727800000003827265209979525249_);fill:none;stroke:#000000;stroke-width:0.5;stroke-miterlimit:10;" x1="12.2" y1="-60.2" x2="84.2" y2="-132.2"/>
			
				<line style="clip-path:url(#SVGID_00000100369007875734727800000003827265209979525249_);fill:none;stroke:#000000;stroke-width:0.5;stroke-miterlimit:10;" x1="15.2" y1="-57.2" x2="87.2" y2="-129.2"/>
			
				<line style="clip-path:url(#SVGID_00000100369007875734727800000003827265209979525249_);fill:none;stroke:#000000;stroke-width:0.5;stroke-miterlimit:10;" x1="18.2" y1="-54.2" x2="90.2" y2="-126.2"/>
			
				<line style="clip-path:url(#SVGID_00000100369007875734727800000003827265209979525249_);fill:none;stroke:#000000;stroke-width:0.5;stroke-miterlimit:10;" x1="21.2" y1="-51.2" x2="93.2" y2="-123.2"/>
			
				<line style="clip-path:url(#SVGID_00000100369007875734727800000003827265209979525249_);fill:none;stroke:#000000;stroke-width:0.5;stroke-miterlimit:10;" x1="24.2" y1="-48.2" x2="96.2" y2="-120.2"/>
			
				<line style="clip-path:url(#SVGID_00000100369007875734727800000003827265209979525249_);fill:none;stroke:#000000;stroke-width:0.5;stroke-miterlimit:10;" x1="27.2" y1="-45.2" x2="99.2" y2="-117.2"/>
			
				<line style="clip-path:url(#SVGID_00000100369007875734727800000003827265209979525249_);fill:none;stroke:#000000;stroke-width:0.5;stroke-miterlimit:10;" x1="30.2" y1="-42.2" x2="102.2" y2="-114.2"/>
			
				<line style="clip-path:url(#SVGID_00000100369007875734727800000003827265209979525249_);fill:none;stroke:#000000;stroke-width:0.5;stroke-miterlimit:10;" x1="33.2" y1="-39.2" x2="105.2" y2="-111.2"/>
			
				<line style="clip-path:url(#SVGID_00000100369007875734727800000003827265209979525249_);fill:none;stroke:#000000;stroke-width:0.5;stroke-miterlimit:10;" x1="36.2" y1="-36.2" x2="108.2" y2="-108.2"/>
			
				<line style="clip-path:url(#SVGID_00000100369007875734727800000003827265209979525249_);fill:none;stroke:#000000;stroke-width:0.5;stroke-miterlimit:10;" x1="39.2" y1="-33.2" x2="111.2" y2="-105.2"/>
			
				<line style="clip-path:url(#SVGID_00000100369007875734727800000003827265209979525249_);fill:none;stroke:#000000;stroke-width:0.5;stroke-miterlimit:10;" x1="42.2" y1="-30.2" x2="114.2" y2="-102.2"/>
			
				<line style="clip-path:url(#SVGID_00000100369007875734727800000003827265209979525249_);fill:none;stroke:#000000;stroke-width:0.5;stroke-miterlimit:10;" x1="45.2" y1="-27.2" x2="117.2" y2="-99.2"/>
			
				<line style="clip-path:url(#SVGID_00000100369007875734727800000003827265209979525249_);fill:none;stroke:#000000;stroke-width:0.5;stroke-miterlimit:10;" x1="48.2" y1="-24.2" x2="120.2" y2="-96.2"/>
			
				<line style="clip-path:url(#SVGID_00000100369007875734727800000003827265209979525249_);fill:none;stroke:#000000;stroke-width:0.5;stroke-miterlimit:10;" x1="51.2" y1="-21.2" x2="123.2" y2="-93.2"/>
			
				<line style="clip-path:url(#SVGID_00000100369007875734727800000003827265209979525249_);fill:none;stroke:#000000;stroke-width:0.5;stroke-miterlimit:10;" x1="54.2" y1="-18.2" x2="126.2" y2="-90.2"/>
			
				<line style="clip-path:url(#SVGID_00000100369007875734727800000003827265209979525249_);fill:none;stroke:#000000;stroke-width:0.5;stroke-miterlimit:10;" x1="57.2" y1="-15.2" x2="129.2" y2="-87.2"/>
			
				<line style="clip-path:url(#SVGID_00000100369007875734727800000003827265209979525249_);fill:none;stroke:#000000;stroke-width:0.5;stroke-miterlimit:10;" x1="60.2" y1="-12.2" x2="132.2" y2="-84.2"/>
			
				<line style="clip-path:url(#SVGID_00000100369007875734727800000003827265209979525249_);fill:none;stroke:#000000;stroke-width:0.5;stroke-miterlimit:10;" x1="63.2" y1="-9.2" x2="135.2" y2="-81.2"/>
			
				<line style="clip-path:url(#SVGID_00000100369007875734727800000003827265209979525249_);fill:none;stroke:#000000;stroke-width:0.5;stroke-miterlimit:10;" x1="66.2" y1="-6.2" x2="138.2" y2="-78.2"/>
			
				<line style="clip-path:url(#SVGID_00000100369007875734727800000003827265209979525249_);fill:none;stroke:#000000;stroke-width:0.5;stroke-miterlimit:10;" x1="69.2" y1="-3.2" x2="141.2" y2="-75.2"/>
			
				<line style="clip-path:url(#SVGID_00000100369007875734727800000003827265209979525249_);fill:none;stroke:#000000;stroke-width:0.5;stroke-miterlimit:10;" x1="72.2" y1="-0.2" x2="144.2" y2="-72.2"/>
		</g>
	</g>
</pattern>
<pattern  x="-47.1" y="-20.6" width="72" height="72" patternUnits="userSpaceOnUse" id="Unnamed_Pattern_8" viewBox="36.2 -108.2 72 72" style="overflow:visible;">
	<g>
		<rect x="36.2" y="-108.2" class="st0" width="72" height="72"/>
		<rect x="36.2" y="-108.2" class="st4" width="72" height="72"/>
		<g>
			<defs>
				<rect id="SVGID_00000005982011304321453000000010559934137799132845_" x="36.2" y="-108.2" width="72" height="72"/>
			</defs>
			<clipPath id="SVGID_00000071556287531311243160000014622654856343220145_">
				<use xlink:href="#SVGID_00000005982011304321453000000010559934137799132845_"  style="overflow:visible;"/>
			</clipPath>
			<path style="clip-path:url(#SVGID_00000071556287531311243160000014622654856343220145_);fill:#759695;" d="M72.2-0.2l72-72
				 M69.2-3.2l72-72 M66.2-6.2l72-72 M63.2-9.2l72-72 M60.2-12.2l72-72 M57.2-15.2l72-72 M54.2-18.2l72-72 M51.2-21.2l72-72
				 M48.2-24.2l72-72 M45.2-27.2l72-72 M42.2-30.2l72-72 M39.2-33.2l72-72 M36.2-36.2l72-72 M33.2-39.2l72-72 M30.2-42.2l72-72
				 M27.2-45.2l72-72 M24.2-48.2l72-72 M21.2-51.2l72-72 M18.2-54.2l72-72 M15.2-57.2l72-72 M12.2-60.2l72-72 M9.2-63.2l72-72
				 M6.2-66.2l72-72 M3.2-69.2l72-72 M0.2-72.2l72-72"/>
			
				<line style="clip-path:url(#SVGID_00000071556287531311243160000014622654856343220145_);fill:none;stroke:#000000;stroke-width:0.5;stroke-miterlimit:10;" x1="0.2" y1="-72.2" x2="72.2" y2="-144.2"/>
			
				<line style="clip-path:url(#SVGID_00000071556287531311243160000014622654856343220145_);fill:none;stroke:#000000;stroke-width:0.5;stroke-miterlimit:10;" x1="3.2" y1="-69.2" x2="75.2" y2="-141.2"/>
			
				<line style="clip-path:url(#SVGID_00000071556287531311243160000014622654856343220145_);fill:none;stroke:#000000;stroke-width:0.5;stroke-miterlimit:10;" x1="6.2" y1="-66.2" x2="78.2" y2="-138.2"/>
			
				<line style="clip-path:url(#SVGID_00000071556287531311243160000014622654856343220145_);fill:none;stroke:#000000;stroke-width:0.5;stroke-miterlimit:10;" x1="9.2" y1="-63.2" x2="81.2" y2="-135.2"/>
			
				<line style="clip-path:url(#SVGID_00000071556287531311243160000014622654856343220145_);fill:none;stroke:#000000;stroke-width:0.5;stroke-miterlimit:10;" x1="12.2" y1="-60.2" x2="84.2" y2="-132.2"/>
			
				<line style="clip-path:url(#SVGID_00000071556287531311243160000014622654856343220145_);fill:none;stroke:#000000;stroke-width:0.5;stroke-miterlimit:10;" x1="15.2" y1="-57.2" x2="87.2" y2="-129.2"/>
			
				<line style="clip-path:url(#SVGID_00000071556287531311243160000014622654856343220145_);fill:none;stroke:#000000;stroke-width:0.5;stroke-miterlimit:10;" x1="18.2" y1="-54.2" x2="90.2" y2="-126.2"/>
			
				<line style="clip-path:url(#SVGID_00000071556287531311243160000014622654856343220145_);fill:none;stroke:#000000;stroke-width:0.5;stroke-miterlimit:10;" x1="21.2" y1="-51.2" x2="93.2" y2="-123.2"/>
			
				<line style="clip-path:url(#SVGID_00000071556287531311243160000014622654856343220145_);fill:none;stroke:#000000;stroke-width:0.5;stroke-miterlimit:10;" x1="24.2" y1="-48.2" x2="96.2" y2="-120.2"/>
			
				<line style="clip-path:url(#SVGID_00000071556287531311243160000014622654856343220145_);fill:none;stroke:#000000;stroke-width:0.5;stroke-miterlimit:10;" x1="27.2" y1="-45.2" x2="99.2" y2="-117.2"/>
			
				<line style="clip-path:url(#SVGID_00000071556287531311243160000014622654856343220145_);fill:none;stroke:#000000;stroke-width:0.5;stroke-miterlimit:10;" x1="30.2" y1="-42.2" x2="102.2" y2="-114.2"/>
			
				<line style="clip-path:url(#SVGID_00000071556287531311243160000014622654856343220145_);fill:none;stroke:#000000;stroke-width:0.5;stroke-miterlimit:10;" x1="33.2" y1="-39.2" x2="105.2" y2="-111.2"/>
			
				<line style="clip-path:url(#SVGID_00000071556287531311243160000014622654856343220145_);fill:none;stroke:#000000;stroke-width:0.5;stroke-miterlimit:10;" x1="36.2" y1="-36.2" x2="108.2" y2="-108.2"/>
			
				<line style="clip-path:url(#SVGID_00000071556287531311243160000014622654856343220145_);fill:none;stroke:#000000;stroke-width:0.5;stroke-miterlimit:10;" x1="39.2" y1="-33.2" x2="111.2" y2="-105.2"/>
			
				<line style="clip-path:url(#SVGID_00000071556287531311243160000014622654856343220145_);fill:none;stroke:#000000;stroke-width:0.5;stroke-miterlimit:10;" x1="42.2" y1="-30.2" x2="114.2" y2="-102.2"/>
			
				<line style="clip-path:url(#SVGID_00000071556287531311243160000014622654856343220145_);fill:none;stroke:#000000;stroke-width:0.5;stroke-miterlimit:10;" x1="45.2" y1="-27.2" x2="117.2" y2="-99.2"/>
			
				<line style="clip-path:url(#SVGID_00000071556287531311243160000014622654856343220145_);fill:none;stroke:#000000;stroke-width:0.5;stroke-miterlimit:10;" x1="48.2" y1="-24.2" x2="120.2" y2="-96.2"/>
			
				<line style="clip-path:url(#SVGID_00000071556287531311243160000014622654856343220145_);fill:none;stroke:#000000;stroke-width:0.5;stroke-miterlimit:10;" x1="51.2" y1="-21.2" x2="123.2" y2="-93.2"/>
			
				<line style="clip-path:url(#SVGID_00000071556287531311243160000014622654856343220145_);fill:none;stroke:#000000;stroke-width:0.5;stroke-miterlimit:10;" x1="54.2" y1="-18.2" x2="126.2" y2="-90.2"/>
			
				<line style="clip-path:url(#SVGID_00000071556287531311243160000014622654856343220145_);fill:none;stroke:#000000;stroke-width:0.5;stroke-miterlimit:10;" x1="57.2" y1="-15.2" x2="129.2" y2="-87.2"/>
			
				<line style="clip-path:url(#SVGID_00000071556287531311243160000014622654856343220145_);fill:none;stroke:#000000;stroke-width:0.5;stroke-miterlimit:10;" x1="60.2" y1="-12.2" x2="132.2" y2="-84.2"/>
			
				<line style="clip-path:url(#SVGID_00000071556287531311243160000014622654856343220145_);fill:none;stroke:#000000;stroke-width:0.5;stroke-miterlimit:10;" x1="63.2" y1="-9.2" x2="135.2" y2="-81.2"/>
			
				<line style="clip-path:url(#SVGID_00000071556287531311243160000014622654856343220145_);fill:none;stroke:#000000;stroke-width:0.5;stroke-miterlimit:10;" x1="66.2" y1="-6.2" x2="138.2" y2="-78.2"/>
			
				<line style="clip-path:url(#SVGID_00000071556287531311243160000014622654856343220145_);fill:none;stroke:#000000;stroke-width:0.5;stroke-miterlimit:10;" x1="69.2" y1="-3.2" x2="141.2" y2="-75.2"/>
			
				<line style="clip-path:url(#SVGID_00000071556287531311243160000014622654856343220145_);fill:none;stroke:#000000;stroke-width:0.5;stroke-miterlimit:10;" x1="72.2" y1="-0.2" x2="144.2" y2="-72.2"/>
		</g>
	</g>
</pattern>
<pattern  x="-47.1" y="-20.6" width="72" height="72" patternUnits="userSpaceOnUse" id="Unnamed_Pattern_9" viewBox="36.2 -108.2 72 72" style="overflow:visible;">
	<g>
		<rect x="36.2" y="-108.2" class="st0" width="72" height="72"/>
		<rect x="36.2" y="-108.2" class="st7" width="72" height="72"/>
		<g>
			<defs>
				<rect id="SVGID_00000160887050323859327000000014729631456788438659_" x="36.2" y="-108.2" width="72" height="72"/>
			</defs>
			<clipPath id="SVGID_00000068678991833359936760000004618785183489624204_">
				<use xlink:href="#SVGID_00000160887050323859327000000014729631456788438659_"  style="overflow:visible;"/>
			</clipPath>
			<path style="clip-path:url(#SVGID_00000068678991833359936760000004618785183489624204_);fill:#FFFFFF;" d="M72.2-0.2l72-72
				 M69.2-3.2l72-72 M66.2-6.2l72-72 M63.2-9.2l72-72 M60.2-12.2l72-72 M57.2-15.2l72-72 M54.2-18.2l72-72 M51.2-21.2l72-72
				 M48.2-24.2l72-72 M45.2-27.2l72-72 M42.2-30.2l72-72 M39.2-33.2l72-72 M36.2-36.2l72-72 M33.2-39.2l72-72 M30.2-42.2l72-72
				 M27.2-45.2l72-72 M24.2-48.2l72-72 M21.2-51.2l72-72 M18.2-54.2l72-72 M15.2-57.2l72-72 M12.2-60.2l72-72 M9.2-63.2l72-72
				 M6.2-66.2l72-72 M3.2-69.2l72-72 M0.2-72.2l72-72"/>
			
				<line style="clip-path:url(#SVGID_00000068678991833359936760000004618785183489624204_);fill:none;stroke:#000000;stroke-width:0.5;stroke-miterlimit:10;" x1="0.2" y1="-72.2" x2="72.2" y2="-144.2"/>
			
				<line style="clip-path:url(#SVGID_00000068678991833359936760000004618785183489624204_);fill:none;stroke:#000000;stroke-width:0.5;stroke-miterlimit:10;" x1="3.2" y1="-69.2" x2="75.2" y2="-141.2"/>
			
				<line style="clip-path:url(#SVGID_00000068678991833359936760000004618785183489624204_);fill:none;stroke:#000000;stroke-width:0.5;stroke-miterlimit:10;" x1="6.2" y1="-66.2" x2="78.2" y2="-138.2"/>
			
				<line style="clip-path:url(#SVGID_00000068678991833359936760000004618785183489624204_);fill:none;stroke:#000000;stroke-width:0.5;stroke-miterlimit:10;" x1="9.2" y1="-63.2" x2="81.2" y2="-135.2"/>
			
				<line style="clip-path:url(#SVGID_00000068678991833359936760000004618785183489624204_);fill:none;stroke:#000000;stroke-width:0.5;stroke-miterlimit:10;" x1="12.2" y1="-60.2" x2="84.2" y2="-132.2"/>
			
				<line style="clip-path:url(#SVGID_00000068678991833359936760000004618785183489624204_);fill:none;stroke:#000000;stroke-width:0.5;stroke-miterlimit:10;" x1="15.2" y1="-57.2" x2="87.2" y2="-129.2"/>
			
				<line style="clip-path:url(#SVGID_00000068678991833359936760000004618785183489624204_);fill:none;stroke:#000000;stroke-width:0.5;stroke-miterlimit:10;" x1="18.2" y1="-54.2" x2="90.2" y2="-126.2"/>
			
				<line style="clip-path:url(#SVGID_00000068678991833359936760000004618785183489624204_);fill:none;stroke:#000000;stroke-width:0.5;stroke-miterlimit:10;" x1="21.2" y1="-51.2" x2="93.2" y2="-123.2"/>
			
				<line style="clip-path:url(#SVGID_00000068678991833359936760000004618785183489624204_);fill:none;stroke:#000000;stroke-width:0.5;stroke-miterlimit:10;" x1="24.2" y1="-48.2" x2="96.2" y2="-120.2"/>
			
				<line style="clip-path:url(#SVGID_00000068678991833359936760000004618785183489624204_);fill:none;stroke:#000000;stroke-width:0.5;stroke-miterlimit:10;" x1="27.2" y1="-45.2" x2="99.2" y2="-117.2"/>
			
				<line style="clip-path:url(#SVGID_00000068678991833359936760000004618785183489624204_);fill:none;stroke:#000000;stroke-width:0.5;stroke-miterlimit:10;" x1="30.2" y1="-42.2" x2="102.2" y2="-114.2"/>
			
				<line style="clip-path:url(#SVGID_00000068678991833359936760000004618785183489624204_);fill:none;stroke:#000000;stroke-width:0.5;stroke-miterlimit:10;" x1="33.2" y1="-39.2" x2="105.2" y2="-111.2"/>
			
				<line style="clip-path:url(#SVGID_00000068678991833359936760000004618785183489624204_);fill:none;stroke:#000000;stroke-width:0.5;stroke-miterlimit:10;" x1="36.2" y1="-36.2" x2="108.2" y2="-108.2"/>
			
				<line style="clip-path:url(#SVGID_00000068678991833359936760000004618785183489624204_);fill:none;stroke:#000000;stroke-width:0.5;stroke-miterlimit:10;" x1="39.2" y1="-33.2" x2="111.2" y2="-105.2"/>
			
				<line style="clip-path:url(#SVGID_00000068678991833359936760000004618785183489624204_);fill:none;stroke:#000000;stroke-width:0.5;stroke-miterlimit:10;" x1="42.2" y1="-30.2" x2="114.2" y2="-102.2"/>
			
				<line style="clip-path:url(#SVGID_00000068678991833359936760000004618785183489624204_);fill:none;stroke:#000000;stroke-width:0.5;stroke-miterlimit:10;" x1="45.2" y1="-27.2" x2="117.2" y2="-99.2"/>
			
				<line style="clip-path:url(#SVGID_00000068678991833359936760000004618785183489624204_);fill:none;stroke:#000000;stroke-width:0.5;stroke-miterlimit:10;" x1="48.2" y1="-24.2" x2="120.2" y2="-96.2"/>
			
				<line style="clip-path:url(#SVGID_00000068678991833359936760000004618785183489624204_);fill:none;stroke:#000000;stroke-width:0.5;stroke-miterlimit:10;" x1="51.2" y1="-21.2" x2="123.2" y2="-93.2"/>
			
				<line style="clip-path:url(#SVGID_00000068678991833359936760000004618785183489624204_);fill:none;stroke:#000000;stroke-width:0.5;stroke-miterlimit:10;" x1="54.2" y1="-18.2" x2="126.2" y2="-90.2"/>
			
				<line style="clip-path:url(#SVGID_00000068678991833359936760000004618785183489624204_);fill:none;stroke:#000000;stroke-width:0.5;stroke-miterlimit:10;" x1="57.2" y1="-15.2" x2="129.2" y2="-87.2"/>
			
				<line style="clip-path:url(#SVGID_00000068678991833359936760000004618785183489624204_);fill:none;stroke:#000000;stroke-width:0.5;stroke-miterlimit:10;" x1="60.2" y1="-12.2" x2="132.2" y2="-84.2"/>
			
				<line style="clip-path:url(#SVGID_00000068678991833359936760000004618785183489624204_);fill:none;stroke:#000000;stroke-width:0.5;stroke-miterlimit:10;" x1="63.2" y1="-9.2" x2="135.2" y2="-81.2"/>
			
				<line style="clip-path:url(#SVGID_00000068678991833359936760000004618785183489624204_);fill:none;stroke:#000000;stroke-width:0.5;stroke-miterlimit:10;" x1="66.2" y1="-6.2" x2="138.2" y2="-78.2"/>
			
				<line style="clip-path:url(#SVGID_00000068678991833359936760000004618785183489624204_);fill:none;stroke:#000000;stroke-width:0.5;stroke-miterlimit:10;" x1="69.2" y1="-3.2" x2="141.2" y2="-75.2"/>
			
				<line style="clip-path:url(#SVGID_00000068678991833359936760000004618785183489624204_);fill:none;stroke:#000000;stroke-width:0.5;stroke-miterlimit:10;" x1="72.2" y1="-0.2" x2="144.2" y2="-72.2"/>
		</g>
	</g>
</pattern>
<rect class="st7" width="157.9" height="102.9"/>
<rect x="10.8" y="4.5" class="st7" width="144.7" height="59.5"/>
<rect x="47" y="4.5" width="0.2" height="60.9"/>
<rect x="83.1" y="4.5" width="0.2" height="60.9"/>
<rect x="119.3" y="4.5" width="0.2" height="60.9"/>
<rect x="10.7" y="4.4" width="0.3" height="59.9"/>
<rect x="155.4" y="4.4" width="0.3" height="59.9"/>
<rect x="10.7" y="63.9" width="145.1" height="0.3"/>
<rect x="10.7" y="4.4" width="145.1" height="0.3"/>
<text transform="matrix(0.7071 -0.7071 0.7071 0.7071 19.188 81.3792)" class="st10 st11">Alpine</text>
<text transform="matrix(0.7071 -0.7071 0.7071 0.7071 25.5803 84.2311)" class="st10 st11">Linux</text>
<text transform="matrix(0.7071 -0.7071 0.7071 0.7071 49.2719 87.4789)" class="st10 st11">Raspbian</text>
<text transform="matrix(0.7071 -0.7071 0.7071 0.7071 85.4561 87.4788)" class="st10 st11">Raspbian</text>
<text transform="matrix(0.7071 -0.7071 0.7071 0.7071 82.5053 99.6736)" class="st10 st11">(Specialized)</text>
<text transform="matrix(0.7071 -0.7071 0.7071 0.7071 124.2436 84.8746)" class="st10 st11">Unikraft</text>
<text transform="matrix(0.7071 -0.7071 0.7071 0.7071 123.9135 94.4493)" class="st10 st11">helloworld</text>
<g>
	<defs>
		<path id="SVGID_00000016755880389534120470000011743377637414315190_" d="M11.2,64.1h-0.3V64L11.2,64.1L11.2,64.1 M12.5,64.1h-0.3
			V64L12.5,64.1L12.5,64.1 M13.8,64.1h-0.3V64L13.8,64.1L13.8,64.1 M15.1,64.1h-0.3V64L15.1,64.1L15.1,64.1 M16.4,64.1H16V64
			L16.4,64.1L16.4,64.1 M17.7,64.1h-0.3V64L17.7,64.1L17.7,64.1 M19,64.1h-0.3V64L19,64.1L19,64.1 M20.3,64.1h-0.3V64L20.3,64.1
			L20.3,64.1 M21.5,64.1h-0.3V64L21.5,64.1L21.5,64.1 M22.8,64.1h-0.3V64L22.8,64.1L22.8,64.1 M24.1,64.1h-0.3V64L24.1,64.1
			L24.1,64.1 M25.4,64.1h-0.3V64L25.4,64.1L25.4,64.1 M26.7,64.1h-0.3V64L26.7,64.1L26.7,64.1 M28,64.1h-0.3V64L28,64.1L28,64.1
			 M29.3,64.1H29V64L29.3,64.1L29.3,64.1 M30.6,64.1h-0.3V64L30.6,64.1L30.6,64.1 M31.9,64.1h-0.3V64L31.9,64.1L31.9,64.1
			 M33.2,64.1h-0.3V64L33.2,64.1L33.2,64.1 M34.5,64.1h-0.3V64L34.5,64.1L34.5,64.1 M35.8,64.1h-0.3V64L35.8,64.1L35.8,64.1
			 M37.1,64.1h-0.3V64L37.1,64.1L37.1,64.1 M38.4,64.1h-0.3V64L38.4,64.1L38.4,64.1 M39.7,64.1h-0.3V64L39.7,64.1L39.7,64.1
			 M41,64.1h-0.3V64L41,64.1L41,64.1 M42.3,64.1H42V64L42.3,64.1L42.3,64.1 M43.6,64.1h-0.3V64L43.6,64.1L43.6,64.1 M44.9,64.1h-0.3
			V64L44.9,64.1L44.9,64.1 M46.2,64.1h-0.3V64L46.2,64.1L46.2,64.1 M47.5,64.1h-0.3V64L47.5,64.1L47.5,64.1 M48.8,64.1h-0.3V64
			L48.8,64.1L48.8,64.1 M50.1,64.1h-0.3V64L50.1,64.1L50.1,64.1 M51.4,64.1h-0.3V64L51.4,64.1L51.4,64.1 M52.7,64.1h-0.3V64
			L52.7,64.1L52.7,64.1 M54,64.1h-0.3V64L54,64.1L54,64.1 M55.3,64.1h-0.3V64L55.3,64.1L55.3,64.1 M56.6,64.1h-0.3V64L56.6,64.1
			L56.6,64.1 M57.9,64.1h-0.3V64L57.9,64.1L57.9,64.1 M59.2,64.1h-0.3V64L59.2,64.1L59.2,64.1 M60.5,64.1h-0.3V64L60.5,64.1
			L60.5,64.1 M61.8,64.1h-0.3V64L61.8,64.1L61.8,64.1 M63.1,64.1h-0.3V64L63.1,64.1L63.1,64.1 M64.3,64.1H64V64L64.3,64.1L64.3,64.1
			 M65.6,64.1h-0.3V64L65.6,64.1L65.6,64.1 M66.9,64.1h-0.3V64L66.9,64.1L66.9,64.1 M68.2,64.1h-0.3V64L68.2,64.1L68.2,64.1
			 M69.5,64.1h-0.3V64L69.5,64.1L69.5,64.1 M70.8,64.1h-0.3V64L70.8,64.1L70.8,64.1 M72.1,64.1h-0.3V64L72.1,64.1L72.1,64.1
			 M73.4,64.1h-0.3V64L73.4,64.1L73.4,64.1 M74.7,64.1h-0.3V64L74.7,64.1L74.7,64.1 M76,64.1h-0.3V64L76,64.1L76,64.1 M77.3,64.1H77
			V64L77.3,64.1L77.3,64.1 M78.6,64.1h-0.3V64L78.6,64.1L78.6,64.1 M79.9,64.1h-0.3V64L79.9,64.1L79.9,64.1 M81.2,64.1h-0.3V64
			L81.2,64.1L81.2,64.1 M82.5,64.1h-0.3V64L82.5,64.1L82.5,64.1 M83.8,64.1h-0.3V64L83.8,64.1L83.8,64.1 M85.1,64.1h-0.3V64
			L85.1,64.1L85.1,64.1 M86.4,64.1h-0.3V64L86.4,64.1L86.4,64.1 M87.7,64.1h-0.3V64L87.7,64.1L87.7,64.1 M89,64.1h-0.3V64L89,64.1
			L89,64.1 M90.3,64.1H90V64L90.3,64.1L90.3,64.1 M91.6,64.1h-0.3V64L91.6,64.1L91.6,64.1 M92.9,64.1h-0.3V64L92.9,64.1L92.9,64.1
			 M94.2,64.1h-0.3V64L94.2,64.1L94.2,64.1 M95.5,64.1h-0.3V64L95.5,64.1L95.5,64.1 M96.8,64.1h-0.3V64L96.8,64.1L96.8,64.1
			 M98.1,64.1h-0.3V64L98.1,64.1L98.1,64.1 M99.4,64.1H99V64L99.4,64.1L99.4,64.1 M100.7,64.1h-0.3V64L100.7,64.1L100.7,64.1
			 M102,64.1h-0.3V64L102,64.1L102,64.1 M103.3,64.1h-0.3V64L103.3,64.1L103.3,64.1 M104.6,64.1h-0.3V64L104.6,64.1L104.6,64.1
			 M105.8,64.1h-0.3V64L105.8,64.1L105.8,64.1 M107.1,64.1h-0.3V64L107.1,64.1L107.1,64.1 M108.4,64.1h-0.3V64L108.4,64.1
			L108.4,64.1 M109.7,64.1h-0.3V64L109.7,64.1L109.7,64.1 M111,64.1h-0.3V64L111,64.1L111,64.1 M112.3,64.1H112V64L112.3,64.1
			L112.3,64.1 M113.6,64.1h-0.3V64L113.6,64.1L113.6,64.1 M114.9,64.1h-0.3V64L114.9,64.1L114.9,64.1 M116.2,64.1h-0.3V64
			L116.2,64.1L116.2,64.1 M117.5,64.1h-0.3V64L117.5,64.1L117.5,64.1 M118.8,64.1h-0.3V64L118.8,64.1L118.8,64.1 M120.1,64.1h-0.3
			V64L120.1,64.1L120.1,64.1 M121.4,64.1h-0.3V64L121.4,64.1L121.4,64.1 M122.7,64.1h-0.3V64L122.7,64.1L122.7,64.1 M124,64.1h-0.3
			V64L124,64.1L124,64.1 M125.3,64.1H125V64L125.3,64.1L125.3,64.1 M126.6,64.1h-0.3V64L126.6,64.1L126.6,64.1 M127.9,64.1h-0.3V64
			L127.9,64.1L127.9,64.1 M129.2,64.1h-0.3V64L129.2,64.1L129.2,64.1 M130.5,64.1h-0.3V64L130.5,64.1L130.5,64.1 M131.8,64.1h-0.3
			V64L131.8,64.1L131.8,64.1 M133.1,64.1h-0.3V64L133.1,64.1L133.1,64.1 M134.4,64.1h-0.3V64L134.4,64.1L134.4,64.1 M135.7,64.1
			h-0.3V64L135.7,64.1L135.7,64.1 M137,64.1h-0.3V64L137,64.1L137,64.1 M138.3,64.1h-0.3V64L138.3,64.1L138.3,64.1 M139.6,64.1h-0.3
			V64L139.6,64.1L139.6,64.1 M140.9,64.1h-0.3V64L140.9,64.1L140.9,64.1 M142.2,64.1h-0.3V64L142.2,64.1L142.2,64.1 M143.5,64.1
			h-0.3V64L143.5,64.1L143.5,64.1 M144.8,64.1h-0.3V64L144.8,64.1L144.8,64.1 M146.1,64.1h-0.3V64L146.1,64.1L146.1,64.1
			 M147.4,64.1H147V64L147.4,64.1L147.4,64.1 M148.6,64.1h-0.3V64L148.6,64.1L148.6,64.1 M149.9,64.1h-0.3V64L149.9,64.1L149.9,64.1
			 M151.2,64.1h-0.3V64L151.2,64.1L151.2,64.1 M152.5,64.1h-0.3V64L152.5,64.1L152.5,64.1 M153.8,64.1h-0.3V64L153.8,64.1
			L153.8,64.1 M155.1,64.1h-0.3V64L155.1,64.1L155.1,64.1"/>
	</defs>
	<clipPath id="SVGID_00000088130501148133177450000008271260722406998445_">
		<use xlink:href="#SVGID_00000016755880389534120470000011743377637414315190_"  style="overflow:visible;"/>
	</clipPath>
	
		<rect x="10.8" y="64" style="clip-path:url(#SVGID_00000088130501148133177450000008271260722406998445_);" width="144.3" height="0.1"/>
</g>
<text transform="matrix(1 0 0 1 2.334 65.3127)" class="st10 st13">0.0</text>
<path class="st14" d="M11.2,54.2H11v-0.2h0.2V54.2 M12.5,54.2h-0.3v-0.2h0.3V54.2 M13.8,54.2h-0.3v-0.2h0.3V54.2 M15.1,54.2h-0.3
	v-0.2h0.3V54.2 M16.4,54.2H16v-0.2h0.3V54.2 M17.7,54.2h-0.3v-0.2h0.3V54.2 M19,54.2h-0.3v-0.2H19V54.2 M20.3,54.2h-0.3v-0.2h0.3
	V54.2 M21.6,54.2h-0.3v-0.2h0.3V54.2 M22.8,54.2h-0.3v-0.2h0.3V54.2 M24.1,54.2h-0.3v-0.2h0.3V54.2 M25.4,54.2h-0.3v-0.2h0.3V54.2
	 M26.7,54.2h-0.3v-0.2h0.3V54.2 M28,54.2h-0.3v-0.2H28V54.2 M29.3,54.2H29v-0.2h0.3V54.2 M30.6,54.2h-0.3v-0.2h0.3V54.2 M31.9,54.2
	h-0.3v-0.2h0.3V54.2 M33.2,54.2h-0.3v-0.2h0.3V54.2 M34.5,54.2h-0.3v-0.2h0.3V54.2 M35.8,54.2h-0.3v-0.2h0.3V54.2 M37.1,54.2h-0.3
	v-0.2h0.3V54.2 M38.4,54.2h-0.3v-0.2h0.3V54.2 M39.7,54.2h-0.3v-0.2h0.3V54.2 M41,54.2h-0.3v-0.2H41V54.2 M42.3,54.2H42v-0.2h0.3
	V54.2 M43.6,54.2h-0.3v-0.2h0.3V54.2 M44.9,54.2h-0.3v-0.2h0.3V54.2 M46.2,54.2h-0.3v-0.2h0.3V54.2 M47.5,54.2h-0.3v-0.2h0.3V54.2
	 M48.8,54.2h-0.3v-0.2h0.3V54.2 M50.1,54.2h-0.3v-0.2h0.3V54.2 M51.4,54.2h-0.3v-0.2h0.3V54.2 M52.7,54.2h-0.3v-0.2h0.3V54.2
	 M54,54.2h-0.3v-0.2H54V54.2 M55.3,54.2h-0.3v-0.2h0.3V54.2 M56.6,54.2h-0.3v-0.2h0.3V54.2 M57.9,54.2h-0.3v-0.2h0.3V54.2
	 M59.2,54.2h-0.3v-0.2h0.3V54.2 M60.5,54.2h-0.3v-0.2h0.3V54.2 M61.8,54.2h-0.3v-0.2h0.3V54.2 M63.1,54.2h-0.3v-0.2h0.3V54.2
	 M64.3,54.2H64v-0.2h0.3V54.2 M65.6,54.2h-0.3v-0.2h0.3V54.2 M66.9,54.2h-0.3v-0.2h0.3V54.2 M68.2,54.2h-0.3v-0.2h0.3V54.2
	 M69.5,54.2h-0.3v-0.2h0.3V54.2 M70.8,54.2h-0.3v-0.2h0.3V54.2 M72.1,54.2h-0.3v-0.2h0.3V54.2 M73.4,54.2h-0.3v-0.2h0.3V54.2
	 M74.7,54.2h-0.3v-0.2h0.3V54.2 M76,54.2h-0.3v-0.2H76V54.2 M77.3,54.2H77v-0.2h0.3V54.2 M78.6,54.2h-0.3v-0.2h0.3V54.2 M79.9,54.2
	h-0.3v-0.2h0.3V54.2 M81.2,54.2h-0.3v-0.2h0.3V54.2 M82.5,54.2h-0.3v-0.2h0.3V54.2 M83.8,54.2h-0.3v-0.2h0.3V54.2 M85.1,54.2h-0.3
	v-0.2h0.3V54.2 M86.4,54.2h-0.3v-0.2h0.3V54.2 M87.7,54.2h-0.3v-0.2h0.3V54.2 M89,54.2h-0.3v-0.2H89V54.2 M90.3,54.2H90v-0.2h0.3
	V54.2 M91.6,54.2h-0.3v-0.2h0.3V54.2 M92.9,54.2h-0.3v-0.2h0.3V54.2 M94.2,54.2h-0.3v-0.2h0.3V54.2 M95.5,54.2h-0.3v-0.2h0.3V54.2
	 M96.8,54.2h-0.3v-0.2h0.3V54.2 M98.1,54.2h-0.3v-0.2h0.3V54.2 M99.4,54.2H99v-0.2h0.3V54.2 M100.7,54.2h-0.3v-0.2h0.3V54.2
	 M102,54.2h-0.3v-0.2h0.3V54.2 M103.3,54.2h-0.3v-0.2h0.3V54.2 M104.6,54.2h-0.3v-0.2h0.3V54.2 M105.8,54.2h-0.3v-0.2h0.3V54.2
	 M107.1,54.2h-0.3v-0.2h0.3V54.2 M108.4,54.2h-0.3v-0.2h0.3V54.2 M109.7,54.2h-0.3v-0.2h0.3V54.2 M111,54.2h-0.3v-0.2h0.3V54.2
	 M112.3,54.2H112v-0.2h0.3V54.2 M113.6,54.2h-0.3v-0.2h0.3V54.2 M114.9,54.2h-0.3v-0.2h0.3V54.2 M116.2,54.2h-0.3v-0.2h0.3V54.2
	 M117.5,54.2h-0.3v-0.2h0.3V54.2 M118.8,54.2h-0.3v-0.2h0.3V54.2 M120.1,54.2h-0.3v-0.2h0.3V54.2 M121.4,54.2h-0.3v-0.2h0.3V54.2
	 M122.7,54.2h-0.3v-0.2h0.3V54.2 M124,54.2h-0.3v-0.2h0.3V54.2 M125.3,54.2H125v-0.2h0.3V54.2 M126.6,54.2h-0.3v-0.2h0.3V54.2
	 M127.9,54.2h-0.3v-0.2h0.3V54.2 M129.2,54.2h-0.3v-0.2h0.3V54.2 M130.5,54.2h-0.3v-0.2h0.3V54.2 M131.8,54.2h-0.3v-0.2h0.3V54.2
	 M133.1,54.2h-0.3v-0.2h0.3V54.2 M134.4,54.2h-0.3v-0.2h0.3V54.2 M135.7,54.2h-0.3v-0.2h0.3V54.2 M137,54.2h-0.3v-0.2h0.3V54.2
	 M138.3,54.2h-0.3v-0.2h0.3V54.2 M139.6,54.2h-0.3v-0.2h0.3V54.2 M140.9,54.2h-0.3v-0.2h0.3V54.2 M142.2,54.2h-0.3v-0.2h0.3V54.2
	 M143.5,54.2h-0.3v-0.2h0.3V54.2 M144.8,54.2h-0.3v-0.2h0.3V54.2 M146.1,54.2h-0.3v-0.2h0.3V54.2 M147.4,54.2H147v-0.2h0.3V54.2
	 M148.6,54.2h-0.3v-0.2h0.3V54.2 M149.9,54.2h-0.3v-0.2h0.3V54.2 M151.2,54.2h-0.3v-0.2h0.3V54.2 M152.5,54.2h-0.3v-0.2h0.3V54.2
	 M153.8,54.2h-0.3v-0.2h0.3V54.2 M155.1,54.2h-0.3v-0.2h0.3V54.2"/>
<rect x="10.8" y="54.1" width="0.2" height="0.2"/>
<text transform="matrix(1 0 0 1 2.334 55.3913)" class="st10 st13">0.5</text>
<path class="st14" d="M11.2,44.3H11v-0.2h0.2V44.3 M12.5,44.3h-0.3v-0.2h0.3V44.3 M13.8,44.3h-0.3v-0.2h0.3V44.3 M15.1,44.3h-0.3
	v-0.2h0.3V44.3 M16.4,44.3H16v-0.2h0.3V44.3 M17.7,44.3h-0.3v-0.2h0.3V44.3 M19,44.3h-0.3v-0.2H19V44.3 M20.3,44.3h-0.3v-0.2h0.3
	V44.3 M21.6,44.3h-0.3v-0.2h0.3V44.3 M22.8,44.3h-0.3v-0.2h0.3V44.3 M24.1,44.3h-0.3v-0.2h0.3V44.3 M25.4,44.3h-0.3v-0.2h0.3V44.3
	 M26.7,44.3h-0.3v-0.2h0.3V44.3 M28,44.3h-0.3v-0.2H28V44.3 M29.3,44.3H29v-0.2h0.3V44.3 M30.6,44.3h-0.3v-0.2h0.3V44.3 M31.9,44.3
	h-0.3v-0.2h0.3V44.3 M33.2,44.3h-0.3v-0.2h0.3V44.3 M34.5,44.3h-0.3v-0.2h0.3V44.3 M35.8,44.3h-0.3v-0.2h0.3V44.3 M37.1,44.3h-0.3
	v-0.2h0.3V44.3 M38.4,44.3h-0.3v-0.2h0.3V44.3 M39.7,44.3h-0.3v-0.2h0.3V44.3 M41,44.3h-0.3v-0.2H41V44.3 M42.3,44.3H42v-0.2h0.3
	V44.3 M43.6,44.3h-0.3v-0.2h0.3V44.3 M44.9,44.3h-0.3v-0.2h0.3V44.3 M46.2,44.3h-0.3v-0.2h0.3V44.3 M47.5,44.3h-0.3v-0.2h0.3V44.3
	 M48.8,44.3h-0.3v-0.2h0.3V44.3 M50.1,44.3h-0.3v-0.2h0.3V44.3 M51.4,44.3h-0.3v-0.2h0.3V44.3 M52.7,44.3h-0.3v-0.2h0.3V44.3
	 M54,44.3h-0.3v-0.2H54V44.3 M55.3,44.3h-0.3v-0.2h0.3V44.3 M56.6,44.3h-0.3v-0.2h0.3V44.3 M57.9,44.3h-0.3v-0.2h0.3V44.3
	 M59.2,44.3h-0.3v-0.2h0.3V44.3 M60.5,44.3h-0.3v-0.2h0.3V44.3 M61.8,44.3h-0.3v-0.2h0.3V44.3 M63.1,44.3h-0.3v-0.2h0.3V44.3
	 M64.3,44.3H64v-0.2h0.3V44.3 M65.6,44.3h-0.3v-0.2h0.3V44.3 M66.9,44.3h-0.3v-0.2h0.3V44.3 M68.2,44.3h-0.3v-0.2h0.3V44.3
	 M69.5,44.3h-0.3v-0.2h0.3V44.3 M70.8,44.3h-0.3v-0.2h0.3V44.3 M72.1,44.3h-0.3v-0.2h0.3V44.3 M73.4,44.3h-0.3v-0.2h0.3V44.3
	 M74.7,44.3h-0.3v-0.2h0.3V44.3 M76,44.3h-0.3v-0.2H76V44.3 M77.3,44.3H77v-0.2h0.3V44.3 M78.6,44.3h-0.3v-0.2h0.3V44.3 M79.9,44.3
	h-0.3v-0.2h0.3V44.3 M81.2,44.3h-0.3v-0.2h0.3V44.3 M82.5,44.3h-0.3v-0.2h0.3V44.3 M83.8,44.3h-0.3v-0.2h0.3V44.3 M85.1,44.3h-0.3
	v-0.2h0.3V44.3 M86.4,44.3h-0.3v-0.2h0.3V44.3 M87.7,44.3h-0.3v-0.2h0.3V44.3 M89,44.3h-0.3v-0.2H89V44.3 M90.3,44.3H90v-0.2h0.3
	V44.3 M91.6,44.3h-0.3v-0.2h0.3V44.3 M92.9,44.3h-0.3v-0.2h0.3V44.3 M94.2,44.3h-0.3v-0.2h0.3V44.3 M95.5,44.3h-0.3v-0.2h0.3V44.3
	 M96.8,44.3h-0.3v-0.2h0.3V44.3 M98.1,44.3h-0.3v-0.2h0.3V44.3 M99.4,44.3H99v-0.2h0.3V44.3 M100.7,44.3h-0.3v-0.2h0.3V44.3
	 M102,44.3h-0.3v-0.2h0.3V44.3 M103.3,44.3h-0.3v-0.2h0.3V44.3 M104.6,44.3h-0.3v-0.2h0.3V44.3 M105.8,44.3h-0.3v-0.2h0.3V44.3
	 M107.1,44.3h-0.3v-0.2h0.3V44.3 M108.4,44.3h-0.3v-0.2h0.3V44.3 M109.7,44.3h-0.3v-0.2h0.3V44.3 M111,44.3h-0.3v-0.2h0.3V44.3
	 M112.3,44.3H112v-0.2h0.3V44.3 M113.6,44.3h-0.3v-0.2h0.3V44.3 M114.9,44.3h-0.3v-0.2h0.3V44.3 M116.2,44.3h-0.3v-0.2h0.3V44.3
	 M117.5,44.3h-0.3v-0.2h0.3V44.3 M118.8,44.3h-0.3v-0.2h0.3V44.3 M120.1,44.3h-0.3v-0.2h0.3V44.3 M121.4,44.3h-0.3v-0.2h0.3V44.3
	 M122.7,44.3h-0.3v-0.2h0.3V44.3 M124,44.3h-0.3v-0.2h0.3V44.3 M125.3,44.3H125v-0.2h0.3V44.3 M126.6,44.3h-0.3v-0.2h0.3V44.3
	 M127.9,44.3h-0.3v-0.2h0.3V44.3 M129.2,44.3h-0.3v-0.2h0.3V44.3 M130.5,44.3h-0.3v-0.2h0.3V44.3 M131.8,44.3h-0.3v-0.2h0.3V44.3
	 M133.1,44.3h-0.3v-0.2h0.3V44.3 M134.4,44.3h-0.3v-0.2h0.3V44.3 M135.7,44.3h-0.3v-0.2h0.3V44.3 M137,44.3h-0.3v-0.2h0.3V44.3
	 M138.3,44.3h-0.3v-0.2h0.3V44.3 M139.6,44.3h-0.3v-0.2h0.3V44.3 M140.9,44.3h-0.3v-0.2h0.3V44.3 M142.2,44.3h-0.3v-0.2h0.3V44.3
	 M143.5,44.3h-0.3v-0.2h0.3V44.3 M144.8,44.3h-0.3v-0.2h0.3V44.3 M146.1,44.3h-0.3v-0.2h0.3V44.3 M147.4,44.3H147v-0.2h0.3V44.3
	 M148.6,44.3h-0.3v-0.2h0.3V44.3 M149.9,44.3h-0.3v-0.2h0.3V44.3 M151.2,44.3h-0.3v-0.2h0.3V44.3 M152.5,44.3h-0.3v-0.2h0.3V44.3
	 M153.8,44.3h-0.3v-0.2h0.3V44.3 M155.1,44.3h-0.3v-0.2h0.3V44.3"/>
<rect x="10.8" y="44.1" width="0.2" height="0.2"/>
<text transform="matrix(1 0 0 1 2.334 45.4699)" class="st10 st13">1.0</text>
<path class="st14" d="M11.2,34.4H11v-0.2h0.2V34.4 M12.5,34.4h-0.3v-0.2h0.3V34.4 M13.8,34.4h-0.3v-0.2h0.3V34.4 M15.1,34.4h-0.3
	v-0.2h0.3V34.4 M16.4,34.4H16v-0.2h0.3V34.4 M17.7,34.4h-0.3v-0.2h0.3V34.4 M19,34.4h-0.3v-0.2H19V34.4 M20.3,34.4h-0.3v-0.2h0.3
	V34.4 M21.6,34.4h-0.3v-0.2h0.3V34.4 M22.8,34.4h-0.3v-0.2h0.3V34.4 M24.1,34.4h-0.3v-0.2h0.3V34.4 M25.4,34.4h-0.3v-0.2h0.3V34.4
	 M26.7,34.4h-0.3v-0.2h0.3V34.4 M28,34.4h-0.3v-0.2H28V34.4 M29.3,34.4H29v-0.2h0.3V34.4 M30.6,34.4h-0.3v-0.2h0.3V34.4 M31.9,34.4
	h-0.3v-0.2h0.3V34.4 M33.2,34.4h-0.3v-0.2h0.3V34.4 M34.5,34.4h-0.3v-0.2h0.3V34.4 M35.8,34.4h-0.3v-0.2h0.3V34.4 M37.1,34.4h-0.3
	v-0.2h0.3V34.4 M38.4,34.4h-0.3v-0.2h0.3V34.4 M39.7,34.4h-0.3v-0.2h0.3V34.4 M41,34.4h-0.3v-0.2H41V34.4 M42.3,34.4H42v-0.2h0.3
	V34.4 M43.6,34.4h-0.3v-0.2h0.3V34.4 M44.9,34.4h-0.3v-0.2h0.3V34.4 M46.2,34.4h-0.3v-0.2h0.3V34.4 M47.5,34.4h-0.3v-0.2h0.3V34.4
	 M48.8,34.4h-0.3v-0.2h0.3V34.4 M50.1,34.4h-0.3v-0.2h0.3V34.4 M51.4,34.4h-0.3v-0.2h0.3V34.4 M52.7,34.4h-0.3v-0.2h0.3V34.4
	 M54,34.4h-0.3v-0.2H54V34.4 M55.3,34.4h-0.3v-0.2h0.3V34.4 M56.6,34.4h-0.3v-0.2h0.3V34.4 M57.9,34.4h-0.3v-0.2h0.3V34.4
	 M59.2,34.4h-0.3v-0.2h0.3V34.4 M60.5,34.4h-0.3v-0.2h0.3V34.4 M61.8,34.4h-0.3v-0.2h0.3V34.4 M63.1,34.4h-0.3v-0.2h0.3V34.4
	 M64.3,34.4H64v-0.2h0.3V34.4 M65.6,34.4h-0.3v-0.2h0.3V34.4 M66.9,34.4h-0.3v-0.2h0.3V34.4 M68.2,34.4h-0.3v-0.2h0.3V34.4
	 M69.5,34.4h-0.3v-0.2h0.3V34.4 M70.8,34.4h-0.3v-0.2h0.3V34.4 M72.1,34.4h-0.3v-0.2h0.3V34.4 M73.4,34.4h-0.3v-0.2h0.3V34.4
	 M74.7,34.4h-0.3v-0.2h0.3V34.4 M76,34.4h-0.3v-0.2H76V34.4 M77.3,34.4H77v-0.2h0.3V34.4 M78.6,34.4h-0.3v-0.2h0.3V34.4 M79.9,34.4
	h-0.3v-0.2h0.3V34.4 M81.2,34.4h-0.3v-0.2h0.3V34.4 M82.5,34.4h-0.3v-0.2h0.3V34.4 M83.8,34.4h-0.3v-0.2h0.3V34.4 M85.1,34.4h-0.3
	v-0.2h0.3V34.4 M86.4,34.4h-0.3v-0.2h0.3V34.4 M87.7,34.4h-0.3v-0.2h0.3V34.4 M89,34.4h-0.3v-0.2H89V34.4 M90.3,34.4H90v-0.2h0.3
	V34.4 M91.6,34.4h-0.3v-0.2h0.3V34.4 M92.9,34.4h-0.3v-0.2h0.3V34.4 M94.2,34.4h-0.3v-0.2h0.3V34.4 M95.5,34.4h-0.3v-0.2h0.3V34.4
	 M96.8,34.4h-0.3v-0.2h0.3V34.4 M98.1,34.4h-0.3v-0.2h0.3V34.4 M99.4,34.4H99v-0.2h0.3V34.4 M100.7,34.4h-0.3v-0.2h0.3V34.4
	 M102,34.4h-0.3v-0.2h0.3V34.4 M103.3,34.4h-0.3v-0.2h0.3V34.4 M104.6,34.4h-0.3v-0.2h0.3V34.4 M105.8,34.4h-0.3v-0.2h0.3V34.4
	 M107.1,34.4h-0.3v-0.2h0.3V34.4 M108.4,34.4h-0.3v-0.2h0.3V34.4 M109.7,34.4h-0.3v-0.2h0.3V34.4 M111,34.4h-0.3v-0.2h0.3V34.4
	 M112.3,34.4H112v-0.2h0.3V34.4 M113.6,34.4h-0.3v-0.2h0.3V34.4 M114.9,34.4h-0.3v-0.2h0.3V34.4 M116.2,34.4h-0.3v-0.2h0.3V34.4
	 M117.5,34.4h-0.3v-0.2h0.3V34.4 M118.8,34.4h-0.3v-0.2h0.3V34.4 M120.1,34.4h-0.3v-0.2h0.3V34.4 M121.4,34.4h-0.3v-0.2h0.3V34.4
	 M122.7,34.4h-0.3v-0.2h0.3V34.4 M124,34.4h-0.3v-0.2h0.3V34.4 M125.3,34.4H125v-0.2h0.3V34.4 M126.6,34.4h-0.3v-0.2h0.3V34.4
	 M127.9,34.4h-0.3v-0.2h0.3V34.4 M129.2,34.4h-0.3v-0.2h0.3V34.4 M130.5,34.4h-0.3v-0.2h0.3V34.4 M131.8,34.4h-0.3v-0.2h0.3V34.4
	 M133.1,34.4h-0.3v-0.2h0.3V34.4 M134.4,34.4h-0.3v-0.2h0.3V34.4 M135.7,34.4h-0.3v-0.2h0.3V34.4 M137,34.4h-0.3v-0.2h0.3V34.4
	 M138.3,34.4h-0.3v-0.2h0.3V34.4 M139.6,34.4h-0.3v-0.2h0.3V34.4 M140.9,34.4h-0.3v-0.2h0.3V34.4 M142.2,34.4h-0.3v-0.2h0.3V34.4
	 M143.5,34.4h-0.3v-0.2h0.3V34.4 M144.8,34.4h-0.3v-0.2h0.3V34.4 M146.1,34.4h-0.3v-0.2h0.3V34.4 M147.4,34.4H147v-0.2h0.3V34.4
	 M148.6,34.4h-0.3v-0.2h0.3V34.4 M149.9,34.4h-0.3v-0.2h0.3V34.4 M151.2,34.4h-0.3v-0.2h0.3V34.4 M152.5,34.4h-0.3v-0.2h0.3V34.4
	 M153.8,34.4h-0.3v-0.2h0.3V34.4 M155.1,34.4h-0.3v-0.2h0.3V34.4"/>
<rect x="10.8" y="34.2" width="0.2" height="0.2"/>
<text transform="matrix(1 0 0 1 2.334 35.5485)" class="st10 st13">1.5</text>
<path class="st14" d="M11.2,24.5H11v-0.2h0.2V24.5 M12.5,24.5h-0.3v-0.2h0.3V24.5 M13.8,24.5h-0.3v-0.2h0.3V24.5 M15.1,24.5h-0.3
	v-0.2h0.3V24.5 M16.4,24.5H16v-0.2h0.3V24.5 M17.7,24.5h-0.3v-0.2h0.3V24.5 M19,24.5h-0.3v-0.2H19V24.5 M20.3,24.5h-0.3v-0.2h0.3
	V24.5 M21.6,24.5h-0.3v-0.2h0.3V24.5 M22.8,24.5h-0.3v-0.2h0.3V24.5 M24.1,24.5h-0.3v-0.2h0.3V24.5 M25.4,24.5h-0.3v-0.2h0.3V24.5
	 M26.7,24.5h-0.3v-0.2h0.3V24.5 M28,24.5h-0.3v-0.2H28V24.5 M29.3,24.5H29v-0.2h0.3V24.5 M30.6,24.5h-0.3v-0.2h0.3V24.5 M31.9,24.5
	h-0.3v-0.2h0.3V24.5 M33.2,24.5h-0.3v-0.2h0.3V24.5 M34.5,24.5h-0.3v-0.2h0.3V24.5 M35.8,24.5h-0.3v-0.2h0.3V24.5 M37.1,24.5h-0.3
	v-0.2h0.3V24.5 M38.4,24.5h-0.3v-0.2h0.3V24.5 M39.7,24.5h-0.3v-0.2h0.3V24.5 M41,24.5h-0.3v-0.2H41V24.5 M42.3,24.5H42v-0.2h0.3
	V24.5 M43.6,24.5h-0.3v-0.2h0.3V24.5 M44.9,24.5h-0.3v-0.2h0.3V24.5 M46.2,24.5h-0.3v-0.2h0.3V24.5 M47.5,24.5h-0.3v-0.2h0.3V24.5
	 M48.8,24.5h-0.3v-0.2h0.3V24.5 M50.1,24.5h-0.3v-0.2h0.3V24.5 M51.4,24.5h-0.3v-0.2h0.3V24.5 M52.7,24.5h-0.3v-0.2h0.3V24.5
	 M54,24.5h-0.3v-0.2H54V24.5 M55.3,24.5h-0.3v-0.2h0.3V24.5 M56.6,24.5h-0.3v-0.2h0.3V24.5 M57.9,24.5h-0.3v-0.2h0.3V24.5
	 M59.2,24.5h-0.3v-0.2h0.3V24.5 M60.5,24.5h-0.3v-0.2h0.3V24.5 M61.8,24.5h-0.3v-0.2h0.3V24.5 M63.1,24.5h-0.3v-0.2h0.3V24.5
	 M64.3,24.5H64v-0.2h0.3V24.5 M65.6,24.5h-0.3v-0.2h0.3V24.5 M66.9,24.5h-0.3v-0.2h0.3V24.5 M68.2,24.5h-0.3v-0.2h0.3V24.5
	 M69.5,24.5h-0.3v-0.2h0.3V24.5 M70.8,24.5h-0.3v-0.2h0.3V24.5 M72.1,24.5h-0.3v-0.2h0.3V24.5 M73.4,24.5h-0.3v-0.2h0.3V24.5
	 M74.7,24.5h-0.3v-0.2h0.3V24.5 M76,24.5h-0.3v-0.2H76V24.5 M77.3,24.5H77v-0.2h0.3V24.5 M78.6,24.5h-0.3v-0.2h0.3V24.5 M79.9,24.5
	h-0.3v-0.2h0.3V24.5 M81.2,24.5h-0.3v-0.2h0.3V24.5 M82.5,24.5h-0.3v-0.2h0.3V24.5 M83.8,24.5h-0.3v-0.2h0.3V24.5 M85.1,24.5h-0.3
	v-0.2h0.3V24.5 M86.4,24.5h-0.3v-0.2h0.3V24.5 M87.7,24.5h-0.3v-0.2h0.3V24.5 M89,24.5h-0.3v-0.2H89V24.5 M90.3,24.5H90v-0.2h0.3
	V24.5 M91.6,24.5h-0.3v-0.2h0.3V24.5 M92.9,24.5h-0.3v-0.2h0.3V24.5 M94.2,24.5h-0.3v-0.2h0.3V24.5 M95.5,24.5h-0.3v-0.2h0.3V24.5
	 M96.8,24.5h-0.3v-0.2h0.3V24.5 M98.1,24.5h-0.3v-0.2h0.3V24.5 M99.4,24.5H99v-0.2h0.3V24.5 M100.7,24.5h-0.3v-0.2h0.3V24.5
	 M102,24.5h-0.3v-0.2h0.3V24.5 M103.3,24.5h-0.3v-0.2h0.3V24.5 M104.6,24.5h-0.3v-0.2h0.3V24.5 M105.8,24.5h-0.3v-0.2h0.3V24.5
	 M107.1,24.5h-0.3v-0.2h0.3V24.5 M108.4,24.5h-0.3v-0.2h0.3V24.5 M109.7,24.5h-0.3v-0.2h0.3V24.5 M111,24.5h-0.3v-0.2h0.3V24.5
	 M112.3,24.5H112v-0.2h0.3V24.5 M113.6,24.5h-0.3v-0.2h0.3V24.5 M114.9,24.5h-0.3v-0.2h0.3V24.5 M116.2,24.5h-0.3v-0.2h0.3V24.5
	 M117.5,24.5h-0.3v-0.2h0.3V24.5 M118.8,24.5h-0.3v-0.2h0.3V24.5 M120.1,24.5h-0.3v-0.2h0.3V24.5 M121.4,24.5h-0.3v-0.2h0.3V24.5
	 M122.7,24.5h-0.3v-0.2h0.3V24.5 M124,24.5h-0.3v-0.2h0.3V24.5 M125.3,24.5H125v-0.2h0.3V24.5 M126.6,24.5h-0.3v-0.2h0.3V24.5
	 M127.9,24.5h-0.3v-0.2h0.3V24.5 M129.2,24.5h-0.3v-0.2h0.3V24.5 M130.5,24.5h-0.3v-0.2h0.3V24.5 M131.8,24.5h-0.3v-0.2h0.3V24.5
	 M133.1,24.5h-0.3v-0.2h0.3V24.5 M134.4,24.5h-0.3v-0.2h0.3V24.5 M135.7,24.5h-0.3v-0.2h0.3V24.5 M137,24.5h-0.3v-0.2h0.3V24.5
	 M138.3,24.5h-0.3v-0.2h0.3V24.5 M139.6,24.5h-0.3v-0.2h0.3V24.5 M140.9,24.5h-0.3v-0.2h0.3V24.5 M142.2,24.5h-0.3v-0.2h0.3V24.5
	 M143.5,24.5h-0.3v-0.2h0.3V24.5 M144.8,24.5h-0.3v-0.2h0.3V24.5 M146.1,24.5h-0.3v-0.2h0.3V24.5 M147.4,24.5H147v-0.2h0.3V24.5
	 M148.6,24.5h-0.3v-0.2h0.3V24.5 M149.9,24.5h-0.3v-0.2h0.3V24.5 M151.2,24.5h-0.3v-0.2h0.3V24.5 M152.5,24.5h-0.3v-0.2h0.3V24.5
	 M153.8,24.5h-0.3v-0.2h0.3V24.5 M155.1,24.5h-0.3v-0.2h0.3V24.5"/>
<rect x="10.8" y="24.3" width="0.2" height="0.2"/>
<text transform="matrix(1 0 0 1 2.334 25.6271)" class="st10 st13">2.0</text>
<path class="st14" d="M11.2,14.5H11v-0.2h0.2V14.5 M12.5,14.5h-0.3v-0.2h0.3V14.5 M13.8,14.5h-0.3v-0.2h0.3V14.5 M15.1,14.5h-0.3
	v-0.2h0.3V14.5 M16.4,14.5H16v-0.2h0.3V14.5 M17.7,14.5h-0.3v-0.2h0.3V14.5 M19,14.5h-0.3v-0.2H19V14.5 M20.3,14.5h-0.3v-0.2h0.3
	V14.5 M21.6,14.5h-0.3v-0.2h0.3V14.5 M22.8,14.5h-0.3v-0.2h0.3V14.5 M24.1,14.5h-0.3v-0.2h0.3V14.5 M25.4,14.5h-0.3v-0.2h0.3V14.5
	 M26.7,14.5h-0.3v-0.2h0.3V14.5 M28,14.5h-0.3v-0.2H28V14.5 M29.3,14.5H29v-0.2h0.3V14.5 M30.6,14.5h-0.3v-0.2h0.3V14.5 M31.9,14.5
	h-0.3v-0.2h0.3V14.5 M33.2,14.5h-0.3v-0.2h0.3V14.5 M34.5,14.5h-0.3v-0.2h0.3V14.5 M35.8,14.5h-0.3v-0.2h0.3V14.5 M37.1,14.5h-0.3
	v-0.2h0.3V14.5 M38.4,14.5h-0.3v-0.2h0.3V14.5 M39.7,14.5h-0.3v-0.2h0.3V14.5 M41,14.5h-0.3v-0.2H41V14.5 M42.3,14.5H42v-0.2h0.3
	V14.5 M43.6,14.5h-0.3v-0.2h0.3V14.5 M44.9,14.5h-0.3v-0.2h0.3V14.5 M46.2,14.5h-0.3v-0.2h0.3V14.5 M47.5,14.5h-0.3v-0.2h0.3V14.5
	 M48.8,14.5h-0.3v-0.2h0.3V14.5 M50.1,14.5h-0.3v-0.2h0.3V14.5 M51.4,14.5h-0.3v-0.2h0.3V14.5 M52.7,14.5h-0.3v-0.2h0.3V14.5
	 M54,14.5h-0.3v-0.2H54V14.5 M55.3,14.5h-0.3v-0.2h0.3V14.5 M56.6,14.5h-0.3v-0.2h0.3V14.5 M57.9,14.5h-0.3v-0.2h0.3V14.5
	 M59.2,14.5h-0.3v-0.2h0.3V14.5 M60.5,14.5h-0.3v-0.2h0.3V14.5 M61.8,14.5h-0.3v-0.2h0.3V14.5 M63.1,14.5h-0.3v-0.2h0.3V14.5
	 M64.3,14.5H64v-0.2h0.3V14.5 M65.6,14.5h-0.3v-0.2h0.3V14.5 M66.9,14.5h-0.3v-0.2h0.3V14.5 M68.2,14.5h-0.3v-0.2h0.3V14.5
	 M69.5,14.5h-0.3v-0.2h0.3V14.5 M70.8,14.5h-0.3v-0.2h0.3V14.5 M72.1,14.5h-0.3v-0.2h0.3V14.5 M73.4,14.5h-0.3v-0.2h0.3V14.5
	 M74.7,14.5h-0.3v-0.2h0.3V14.5 M76,14.5h-0.3v-0.2H76V14.5 M77.3,14.5H77v-0.2h0.3V14.5 M78.6,14.5h-0.3v-0.2h0.3V14.5 M79.9,14.5
	h-0.3v-0.2h0.3V14.5 M81.2,14.5h-0.3v-0.2h0.3V14.5 M82.5,14.5h-0.3v-0.2h0.3V14.5 M83.8,14.5h-0.3v-0.2h0.3V14.5 M85.1,14.5h-0.3
	v-0.2h0.3V14.5 M86.4,14.5h-0.3v-0.2h0.3V14.5 M87.7,14.5h-0.3v-0.2h0.3V14.5 M89,14.5h-0.3v-0.2H89V14.5 M90.3,14.5H90v-0.2h0.3
	V14.5 M91.6,14.5h-0.3v-0.2h0.3V14.5 M92.9,14.5h-0.3v-0.2h0.3V14.5 M94.2,14.5h-0.3v-0.2h0.3V14.5 M95.5,14.5h-0.3v-0.2h0.3V14.5
	 M96.8,14.5h-0.3v-0.2h0.3V14.5 M98.1,14.5h-0.3v-0.2h0.3V14.5 M99.4,14.5H99v-0.2h0.3V14.5 M100.7,14.5h-0.3v-0.2h0.3V14.5
	 M102,14.5h-0.3v-0.2h0.3V14.5 M103.3,14.5h-0.3v-0.2h0.3V14.5 M104.6,14.5h-0.3v-0.2h0.3V14.5 M105.8,14.5h-0.3v-0.2h0.3V14.5
	 M107.1,14.5h-0.3v-0.2h0.3V14.5 M108.4,14.5h-0.3v-0.2h0.3V14.5 M109.7,14.5h-0.3v-0.2h0.3V14.5 M111,14.5h-0.3v-0.2h0.3V14.5
	 M112.3,14.5H112v-0.2h0.3V14.5 M113.6,14.5h-0.3v-0.2h0.3V14.5 M114.9,14.5h-0.3v-0.2h0.3V14.5 M116.2,14.5h-0.3v-0.2h0.3V14.5
	 M117.5,14.5h-0.3v-0.2h0.3V14.5 M118.8,14.5h-0.3v-0.2h0.3V14.5 M120.1,14.5h-0.3v-0.2h0.3V14.5 M121.4,14.5h-0.3v-0.2h0.3V14.5
	 M122.7,14.5h-0.3v-0.2h0.3V14.5 M124,14.5h-0.3v-0.2h0.3V14.5 M125.3,14.5H125v-0.2h0.3V14.5 M126.6,14.5h-0.3v-0.2h0.3V14.5
	 M127.9,14.5h-0.3v-0.2h0.3V14.5 M129.2,14.5h-0.3v-0.2h0.3V14.5 M130.5,14.5h-0.3v-0.2h0.3V14.5 M131.8,14.5h-0.3v-0.2h0.3V14.5
	 M133.1,14.5h-0.3v-0.2h0.3V14.5 M134.4,14.5h-0.3v-0.2h0.3V14.5 M135.7,14.5h-0.3v-0.2h0.3V14.5 M137,14.5h-0.3v-0.2h0.3V14.5
	 M138.3,14.5h-0.3v-0.2h0.3V14.5 M139.6,14.5h-0.3v-0.2h0.3V14.5 M140.9,14.5h-0.3v-0.2h0.3V14.5 M142.2,14.5h-0.3v-0.2h0.3V14.5
	 M143.5,14.5h-0.3v-0.2h0.3V14.5 M144.8,14.5h-0.3v-0.2h0.3V14.5 M146.1,14.5h-0.3v-0.2h0.3V14.5 M147.4,14.5H147v-0.2h0.3V14.5
	 M148.6,14.5h-0.3v-0.2h0.3V14.5 M149.9,14.5h-0.3v-0.2h0.3V14.5 M151.2,14.5h-0.3v-0.2h0.3V14.5 M152.5,14.5h-0.3v-0.2h0.3V14.5
	 M153.8,14.5h-0.3v-0.2h0.3V14.5 M155.1,14.5h-0.3v-0.2h0.3V14.5"/>
<rect x="10.8" y="14.4" width="0.2" height="0.2"/>
<text transform="matrix(1 0 0 1 2.334 15.7057)" class="st10 st13">2.5</text>
<path d="M11.2,4.6h-0.3V4.5L11.2,4.6L11.2,4.6 M12.5,4.6h-0.3V4.5L12.5,4.6L12.5,4.6 M13.8,4.6h-0.3V4.5L13.8,4.6L13.8,4.6
	 M15.1,4.6h-0.3V4.5L15.1,4.6L15.1,4.6 M16.4,4.6H16V4.5L16.4,4.6L16.4,4.6 M17.7,4.6h-0.3V4.5L17.7,4.6L17.7,4.6 M19,4.6h-0.3V4.5
	L19,4.6L19,4.6 M20.3,4.6h-0.3V4.5L20.3,4.6L20.3,4.6 M21.6,4.6h-0.3V4.5L21.6,4.6L21.6,4.6 M22.8,4.6h-0.3V4.5L22.8,4.6L22.8,4.6
	 M24.1,4.6h-0.3V4.5L24.1,4.6L24.1,4.6 M25.4,4.6h-0.3V4.5L25.4,4.6L25.4,4.6 M26.7,4.6h-0.3V4.5L26.7,4.6L26.7,4.6 M28,4.6h-0.3
	V4.5L28,4.6L28,4.6 M29.3,4.6H29V4.5L29.3,4.6L29.3,4.6 M30.6,4.6h-0.3V4.5L30.6,4.6L30.6,4.6 M31.9,4.6h-0.3V4.5L31.9,4.6L31.9,4.6
	 M33.2,4.6h-0.3V4.5L33.2,4.6L33.2,4.6 M34.5,4.6h-0.3V4.5L34.5,4.6L34.5,4.6 M35.8,4.6h-0.3V4.5L35.8,4.6L35.8,4.6 M37.1,4.6h-0.3
	V4.5L37.1,4.6L37.1,4.6 M38.4,4.6h-0.3V4.5L38.4,4.6L38.4,4.6 M39.7,4.6h-0.3V4.5L39.7,4.6L39.7,4.6 M41,4.6h-0.3V4.5L41,4.6L41,4.6
	 M42.3,4.6H42V4.5L42.3,4.6L42.3,4.6 M43.6,4.6h-0.3V4.5L43.6,4.6L43.6,4.6 M44.9,4.6h-0.3V4.5L44.9,4.6L44.9,4.6 M46.2,4.6h-0.3
	V4.5L46.2,4.6L46.2,4.6 M47.5,4.6h-0.3V4.5L47.5,4.6L47.5,4.6 M48.8,4.6h-0.3V4.5L48.8,4.6L48.8,4.6 M50.1,4.6h-0.3V4.5L50.1,4.6
	L50.1,4.6 M51.4,4.6h-0.3V4.5L51.4,4.6L51.4,4.6 M52.7,4.6h-0.3V4.5L52.7,4.6L52.7,4.6 M54,4.6h-0.3V4.5L54,4.6L54,4.6 M55.3,4.6
	h-0.3V4.5L55.3,4.6L55.3,4.6 M56.6,4.6h-0.3V4.5L56.6,4.6L56.6,4.6 M57.9,4.6h-0.3V4.5L57.9,4.6L57.9,4.6 M59.2,4.6h-0.3V4.5
	L59.2,4.6L59.2,4.6 M60.5,4.6h-0.3V4.5L60.5,4.6L60.5,4.6 M61.8,4.6h-0.3V4.5L61.8,4.6L61.8,4.6 M63.1,4.6h-0.3V4.5L63.1,4.6
	L63.1,4.6 M64.3,4.6H64V4.5L64.3,4.6L64.3,4.6 M65.6,4.6h-0.3V4.5L65.6,4.6L65.6,4.6 M66.9,4.6h-0.3V4.5L66.9,4.6L66.9,4.6
	 M68.2,4.6h-0.3V4.5L68.2,4.6L68.2,4.6 M69.5,4.6h-0.3V4.5L69.5,4.6L69.5,4.6 M70.8,4.6h-0.3V4.5L70.8,4.6L70.8,4.6 M72.1,4.6h-0.3
	V4.5L72.1,4.6L72.1,4.6 M73.4,4.6h-0.3V4.5L73.4,4.6L73.4,4.6 M74.7,4.6h-0.3V4.5L74.7,4.6L74.7,4.6 M76,4.6h-0.3V4.5L76,4.6L76,4.6
	 M77.3,4.6H77V4.5L77.3,4.6L77.3,4.6 M78.6,4.6h-0.3V4.5L78.6,4.6L78.6,4.6 M79.9,4.6h-0.3V4.5L79.9,4.6L79.9,4.6 M81.2,4.6h-0.3
	V4.5L81.2,4.6L81.2,4.6 M82.5,4.6h-0.3V4.5L82.5,4.6L82.5,4.6 M83.8,4.6h-0.3V4.5L83.8,4.6L83.8,4.6 M85.1,4.6h-0.3V4.5L85.1,4.6
	L85.1,4.6 M86.4,4.6h-0.3V4.5L86.4,4.6L86.4,4.6 M87.7,4.6h-0.3V4.5L87.7,4.6L87.7,4.6 M89,4.6h-0.3V4.5L89,4.6L89,4.6 M90.3,4.6H90
	V4.5L90.3,4.6L90.3,4.6 M91.6,4.6h-0.3V4.5L91.6,4.6L91.6,4.6 M92.9,4.6h-0.3V4.5L92.9,4.6L92.9,4.6 M94.2,4.6h-0.3V4.5L94.2,4.6
	L94.2,4.6 M95.5,4.6h-0.3V4.5L95.5,4.6L95.5,4.6 M96.8,4.6h-0.3V4.5L96.8,4.6L96.8,4.6 M98.1,4.6h-0.3V4.5L98.1,4.6L98.1,4.6
	 M99.4,4.6H99V4.5L99.4,4.6L99.4,4.6 M100.7,4.6h-0.3V4.5L100.7,4.6L100.7,4.6 M102,4.6h-0.3V4.5L102,4.6L102,4.6 M103.3,4.6h-0.3
	V4.5L103.3,4.6L103.3,4.6 M104.6,4.6h-0.3V4.5L104.6,4.6L104.6,4.6 M105.8,4.6h-0.3V4.5L105.8,4.6L105.8,4.6 M107.1,4.6h-0.3V4.5
	L107.1,4.6L107.1,4.6 M108.4,4.6h-0.3V4.5L108.4,4.6L108.4,4.6 M109.7,4.6h-0.3V4.5L109.7,4.6L109.7,4.6 M111,4.6h-0.3V4.5L111,4.6
	L111,4.6 M112.3,4.6H112V4.5L112.3,4.6L112.3,4.6 M113.6,4.6h-0.3V4.5L113.6,4.6L113.6,4.6 M114.9,4.6h-0.3V4.5L114.9,4.6L114.9,4.6
	 M116.2,4.6h-0.3V4.5L116.2,4.6L116.2,4.6 M117.5,4.6h-0.3V4.5L117.5,4.6L117.5,4.6 M118.8,4.6h-0.3V4.5L118.8,4.6L118.8,4.6
	 M120.1,4.6h-0.3V4.5L120.1,4.6L120.1,4.6 M121.4,4.6h-0.3V4.5L121.4,4.6L121.4,4.6 M122.7,4.6h-0.3V4.5L122.7,4.6L122.7,4.6
	 M124,4.6h-0.3V4.5L124,4.6L124,4.6 M125.3,4.6H125V4.5L125.3,4.6L125.3,4.6 M126.6,4.6h-0.3V4.5L126.6,4.6L126.6,4.6 M127.9,4.6
	h-0.3V4.5L127.9,4.6L127.9,4.6 M129.2,4.6h-0.3V4.5L129.2,4.6L129.2,4.6 M130.5,4.6h-0.3V4.5L130.5,4.6L130.5,4.6 M131.8,4.6h-0.3
	V4.5L131.8,4.6L131.8,4.6 M133.1,4.6h-0.3V4.5L133.1,4.6L133.1,4.6 M134.4,4.6h-0.3V4.5L134.4,4.6L134.4,4.6 M135.7,4.6h-0.3V4.5
	L135.7,4.6L135.7,4.6 M137,4.6h-0.3V4.5L137,4.6L137,4.6 M138.3,4.6h-0.3V4.5L138.3,4.6L138.3,4.6 M139.6,4.6h-0.3V4.5L139.6,4.6
	L139.6,4.6 M140.9,4.6h-0.3V4.5L140.9,4.6L140.9,4.6 M142.2,4.6h-0.3V4.5L142.2,4.6L142.2,4.6 M143.5,4.6h-0.3V4.5L143.5,4.6
	L143.5,4.6 M144.8,4.6h-0.3V4.5L144.8,4.6L144.8,4.6 M146.1,4.6h-0.3V4.5L146.1,4.6L146.1,4.6 M147.4,4.6H147V4.5L147.4,4.6
	L147.4,4.6 M148.6,4.6h-0.3V4.5L148.6,4.6L148.6,4.6 M149.9,4.6h-0.3V4.5L149.9,4.6L149.9,4.6 M151.2,4.6h-0.3V4.5L151.2,4.6
	L151.2,4.6 M152.5,4.6h-0.3V4.5L152.5,4.6L152.5,4.6 M153.8,4.6h-0.3V4.5L153.8,4.6L153.8,4.6 M155.1,4.6h-0.3V4.5L155.1,4.6
	L155.1,4.6"/>
<text transform="matrix(1 0 0 1 2.334 5.7839)" class="st10 st13">3.0</text>
<pattern  id="SVGID_00000129186659790034234290000010825853178351108497_" xlink:href="#Unnamed_Pattern_7" patternTransform="matrix(0.3242 0 0 -0.3242 220.0188 227.637)">
</pattern>
<rect x="14.5" y="58.6" style="fill:url(#SVGID_00000129186659790034234290000010825853178351108497_);" width="5.8" height="5.5"/>
<g>
	<defs>
		<polyline id="SVGID_00000022550099544737270380000009421438856204846777_" points="10.8,64.1 155.6,64.1 155.6,4.5 10.8,4.5 
			10.8,64.1 		"/>
	</defs>
	<clipPath id="SVGID_00000048482419214415823680000006220067648416308146_">
		<use xlink:href="#SVGID_00000022550099544737270380000009421438856204846777_"  style="overflow:visible;"/>
	</clipPath>
	
		<rect x="14.5" y="58.6" style="clip-path:url(#SVGID_00000048482419214415823680000006220067648416308146_);fill:none;stroke:#000000;stroke-width:0.162;stroke-miterlimit:10;" width="5.8" height="5.5"/>
</g>
<pattern  id="SVGID_00000052792060232707411470000000811264326569270174_" xlink:href="#Unnamed_Pattern_8" patternTransform="matrix(0.3242 0 0 -0.3242 220.0188 227.637)">
</pattern>
<rect x="20.3" y="35.4" style="fill:url(#SVGID_00000052792060232707411470000000811264326569270174_);" width="5.8" height="28.7"/>
<g>
	<defs>
		<polyline id="SVGID_00000155838611181287356160000005821357640622404519_" points="10.8,64.1 155.6,64.1 155.6,4.5 10.8,4.5 
			10.8,64.1 		"/>
	</defs>
	<clipPath id="SVGID_00000090259715982948347040000006895884210518247096_">
		<use xlink:href="#SVGID_00000155838611181287356160000005821357640622404519_"  style="overflow:visible;"/>
	</clipPath>
	
		<rect x="20.3" y="35.4" style="clip-path:url(#SVGID_00000090259715982948347040000006895884210518247096_);fill:none;stroke:#000000;stroke-width:0.162;stroke-miterlimit:10;" width="5.8" height="28.7"/>
</g>
<rect x="31.8" y="56.4" class="st19" width="5.8" height="7.7"/>
<g>
	<defs>
		<polyline id="SVGID_00000169550228088911198020000014036046183963751845_" points="10.8,64.1 155.6,64.1 155.6,4.5 10.8,4.5 
			10.8,64.1 		"/>
	</defs>
	<clipPath id="SVGID_00000056417487093144598890000013768247928039965602_">
		<use xlink:href="#SVGID_00000169550228088911198020000014036046183963751845_"  style="overflow:visible;"/>
	</clipPath>
	
		<rect x="31.8" y="56.4" style="clip-path:url(#SVGID_00000056417487093144598890000013768247928039965602_);fill:none;stroke:#000000;stroke-width:0.162;stroke-miterlimit:10;" width="5.8" height="7.7"/>
</g>
<rect x="37.6" y="23.8" class="st21" width="5.8" height="40.3"/>
<g>
	<defs>
		<polyline id="SVGID_00000014592609619677718900000001702342441960301727_" points="10.8,64.1 155.6,64.1 155.6,4.5 10.8,4.5 
			10.8,64.1 		"/>
	</defs>
	<clipPath id="SVGID_00000093891307587405572290000002081662931989070757_">
		<use xlink:href="#SVGID_00000014592609619677718900000001702342441960301727_"  style="overflow:visible;"/>
	</clipPath>
	
		<rect x="37.6" y="23.8" style="clip-path:url(#SVGID_00000093891307587405572290000002081662931989070757_);fill:none;stroke:#000000;stroke-width:0.162;stroke-miterlimit:10;" width="5.8" height="40.3"/>
</g>
<pattern  id="SVGID_00000051384327526400915570000017877861418575847315_" xlink:href="#Unnamed_Pattern_7" patternTransform="matrix(0.3242 0 0 -0.3242 220.0188 227.637)">
</pattern>
<rect x="50.7" y="59" style="fill:url(#SVGID_00000051384327526400915570000017877861418575847315_);" width="5.8" height="5.1"/>
<g>
	<defs>
		<polyline id="SVGID_00000088840648135945389470000016461588897775060354_" points="10.8,64.1 155.6,64.1 155.6,4.5 10.8,4.5 
			10.8,64.1 		"/>
	</defs>
	<clipPath id="SVGID_00000178178566631401270860000017394700456645549716_">
		<use xlink:href="#SVGID_00000088840648135945389470000016461588897775060354_"  style="overflow:visible;"/>
	</clipPath>
	
		<rect x="50.7" y="59" style="clip-path:url(#SVGID_00000178178566631401270860000017394700456645549716_);fill:none;stroke:#000000;stroke-width:0.162;stroke-miterlimit:10;" width="5.8" height="5.1"/>
</g>
<pattern  id="SVGID_00000132046824355804786860000010570327450277416880_" xlink:href="#Unnamed_Pattern_8" patternTransform="matrix(0.3242 0 0 -0.3242 220.0188 227.637)">
</pattern>
<rect x="56.4" y="28.1" style="fill:url(#SVGID_00000132046824355804786860000010570327450277416880_);" width="5.8" height="35.9"/>
<g>
	<defs>
		<polyline id="SVGID_00000022555394499054644710000005676947666683843004_" points="10.8,64.1 155.6,64.1 155.6,4.5 10.8,4.5 
			10.8,64.1 		"/>
	</defs>
	<clipPath id="SVGID_00000036954033222348815030000015788359034733534882_">
		<use xlink:href="#SVGID_00000022555394499054644710000005676947666683843004_"  style="overflow:visible;"/>
	</clipPath>
	
		<rect x="56.4" y="28.1" style="clip-path:url(#SVGID_00000036954033222348815030000015788359034733534882_);fill:none;stroke:#000000;stroke-width:0.162;stroke-miterlimit:10;" width="5.8" height="35.9"/>
</g>
<rect x="68" y="56.9" class="st19" width="5.8" height="7.1"/>
<g>
	<defs>
		<polyline id="SVGID_00000000185097377511433590000013171105748497270173_" points="10.8,64.1 155.6,64.1 155.6,4.5 10.8,4.5 
			10.8,64.1 		"/>
	</defs>
	<clipPath id="SVGID_00000113329317745749134880000013151570444542588549_">
		<use xlink:href="#SVGID_00000000185097377511433590000013171105748497270173_"  style="overflow:visible;"/>
	</clipPath>
	
		<rect x="68" y="56.9" style="clip-path:url(#SVGID_00000113329317745749134880000013151570444542588549_);fill:none;stroke:#000000;stroke-width:0.162;stroke-miterlimit:10;" width="5.8" height="7.1"/>
</g>
<rect x="73.8" y="26.9" class="st21" width="5.8" height="37.1"/>
<g>
	<defs>
		<polyline id="SVGID_00000117647970600212839400000017800244144298472092_" points="10.8,64.1 155.6,64.1 155.6,4.5 10.8,4.5 
			10.8,64.1 		"/>
	</defs>
	<clipPath id="SVGID_00000124867090067389738520000000606288670242944695_">
		<use xlink:href="#SVGID_00000117647970600212839400000017800244144298472092_"  style="overflow:visible;"/>
	</clipPath>
	
		<rect x="73.8" y="26.9" style="clip-path:url(#SVGID_00000124867090067389738520000000606288670242944695_);fill:none;stroke:#000000;stroke-width:0.162;stroke-miterlimit:10;" width="5.8" height="37.1"/>
</g>
<pattern  id="SVGID_00000095308112032106666880000006295970675782555033_" xlink:href="#Unnamed_Pattern_7" patternTransform="matrix(0.3242 0 0 -0.3242 220.0188 227.637)">
</pattern>
<rect x="86.8" y="59.7" style="fill:url(#SVGID_00000095308112032106666880000006295970675782555033_);" width="5.8" height="4.4"/>
<g>
	<defs>
		<polyline id="SVGID_00000103962553841033203230000016560604598335564685_" points="10.8,64.1 155.6,64.1 155.6,4.5 10.8,4.5 
			10.8,64.1 		"/>
	</defs>
	<clipPath id="SVGID_00000075854061853073746330000006263782451708344254_">
		<use xlink:href="#SVGID_00000103962553841033203230000016560604598335564685_"  style="overflow:visible;"/>
	</clipPath>
	
		<rect x="86.8" y="59.7" style="clip-path:url(#SVGID_00000075854061853073746330000006263782451708344254_);fill:none;stroke:#000000;stroke-width:0.162;stroke-miterlimit:10;" width="5.8" height="4.4"/>
</g>
<pattern  id="SVGID_00000021082454444670510980000008530226463694747829_" xlink:href="#Unnamed_Pattern_8" patternTransform="matrix(0.3242 0 0 -0.3242 220.0188 227.637)">
</pattern>
<rect x="92.6" y="41.3" style="fill:url(#SVGID_00000021082454444670510980000008530226463694747829_);" width="5.8" height="22.7"/>
<g>
	<defs>
		<polyline id="SVGID_00000160172468985552565610000010945778689625810338_" points="10.8,64.1 155.6,64.1 155.6,4.5 10.8,4.5 
			10.8,64.1 		"/>
	</defs>
	<clipPath id="SVGID_00000057861609662749373970000016319541808006575775_">
		<use xlink:href="#SVGID_00000160172468985552565610000010945778689625810338_"  style="overflow:visible;"/>
	</clipPath>
	
		<rect x="92.6" y="41.3" style="clip-path:url(#SVGID_00000057861609662749373970000016319541808006575775_);fill:none;stroke:#000000;stroke-width:0.162;stroke-miterlimit:10;" width="5.8" height="22.7"/>
</g>
<rect x="104.2" y="57.4" class="st19" width="5.8" height="6.7"/>
<g>
	<defs>
		<polyline id="SVGID_00000142178099756559547940000011581449414093796015_" points="10.8,64.1 155.6,64.1 155.6,4.5 10.8,4.5 
			10.8,64.1 		"/>
	</defs>
	<clipPath id="SVGID_00000044140137891062818000000005968205580276838324_">
		<use xlink:href="#SVGID_00000142178099756559547940000011581449414093796015_"  style="overflow:visible;"/>
	</clipPath>
	
		<rect x="104.2" y="57.4" style="clip-path:url(#SVGID_00000044140137891062818000000005968205580276838324_);fill:none;stroke:#000000;stroke-width:0.162;stroke-miterlimit:10;" width="5.8" height="6.7"/>
</g>
<rect x="110" y="29" class="st21" width="5.8" height="35.1"/>
<g>
	<defs>
		<polyline id="SVGID_00000052061628713487974060000006339070520568972931_" points="10.8,64.1 155.6,64.1 155.6,4.5 10.8,4.5 
			10.8,64.1 		"/>
	</defs>
	<clipPath id="SVGID_00000051343326477726495880000009627726354966493868_">
		<use xlink:href="#SVGID_00000052061628713487974060000006339070520568972931_"  style="overflow:visible;"/>
	</clipPath>
	
		<rect x="110" y="29" style="clip-path:url(#SVGID_00000051343326477726495880000009627726354966493868_);fill:none;stroke:#000000;stroke-width:0.162;stroke-miterlimit:10;" width="5.8" height="35.1"/>
</g>
<pattern  id="SVGID_00000004518866173991378280000016140500162347446681_" xlink:href="#Unnamed_Pattern_7" patternTransform="matrix(0.3242 0 0 -0.3242 220.0188 227.637)">
</pattern>
<rect x="123" y="62.1" style="fill:url(#SVGID_00000004518866173991378280000016140500162347446681_);" width="5.8" height="2"/>
<g>
	<defs>
		<polyline id="SVGID_00000074431043402696129620000014471360690691403948_" points="10.8,64.1 155.6,64.1 155.6,4.5 10.8,4.5 
			10.8,64.1 		"/>
	</defs>
	<clipPath id="SVGID_00000028296799860199930300000004174633001101986735_">
		<use xlink:href="#SVGID_00000074431043402696129620000014471360690691403948_"  style="overflow:visible;"/>
	</clipPath>
	
		<rect x="123" y="62.1" style="clip-path:url(#SVGID_00000028296799860199930300000004174633001101986735_);fill:none;stroke:#000000;stroke-width:0.162;stroke-miterlimit:10;" width="5.8" height="2"/>
</g>
<pattern  id="SVGID_00000033333774039747709000000015442597494843811981_" xlink:href="#Unnamed_Pattern_8" patternTransform="matrix(0.3242 0 0 -0.3242 220.0188 227.637)">
</pattern>
<rect x="128.8" y="53.9" style="fill:url(#SVGID_00000033333774039747709000000015442597494843811981_);" width="5.8" height="10.2"/>
<g>
	<defs>
		<polyline id="SVGID_00000029735275617228270430000007346110521299556274_" points="10.8,64.1 155.6,64.1 155.6,4.5 10.8,4.5 
			10.8,64.1 		"/>
	</defs>
	<clipPath id="SVGID_00000121241581334441968340000003142536447741570445_">
		<use xlink:href="#SVGID_00000029735275617228270430000007346110521299556274_"  style="overflow:visible;"/>
	</clipPath>
	
		<rect x="128.8" y="53.9" style="clip-path:url(#SVGID_00000121241581334441968340000003142536447741570445_);fill:none;stroke:#000000;stroke-width:0.162;stroke-miterlimit:10;" width="5.8" height="10.2"/>
</g>
<rect x="140.4" y="61.8" class="st19" width="5.8" height="2.2"/>
<g>
	<defs>
		<polyline id="SVGID_00000132810126362111903130000011466205034657148333_" points="10.8,64.1 155.6,64.1 155.6,4.5 10.8,4.5 
			10.8,64.1 		"/>
	</defs>
	<clipPath id="SVGID_00000028324615127613735030000017007325374971961761_">
		<use xlink:href="#SVGID_00000132810126362111903130000011466205034657148333_"  style="overflow:visible;"/>
	</clipPath>
	
		<rect x="140.4" y="61.8" style="clip-path:url(#SVGID_00000028324615127613735030000017007325374971961761_);fill:none;stroke:#000000;stroke-width:0.162;stroke-miterlimit:10;" width="5.8" height="2.2"/>
</g>
<rect x="146.2" y="52.3" class="st21" width="5.8" height="11.7"/>
<g>
	<defs>
		<polyline id="SVGID_00000176753894609971496790000000493942330707347882_" points="10.8,64.1 155.6,64.1 155.6,4.5 10.8,4.5 
			10.8,64.1 		"/>
	</defs>
	<clipPath id="SVGID_00000017488038930677447460000009489862532103002291_">
		<use xlink:href="#SVGID_00000176753894609971496790000000493942330707347882_"  style="overflow:visible;"/>
	</clipPath>
	
		<rect x="146.2" y="52.3" style="clip-path:url(#SVGID_00000017488038930677447460000009489862532103002291_);fill:none;stroke:#000000;stroke-width:0.162;stroke-miterlimit:10;" width="5.8" height="11.7"/>
</g>
<rect x="15.3" y="45.8" class="st7" width="4" height="12.6"/>
<text transform="matrix(-6.123234e-17 -1 1 -6.123234e-17 18.6171 58.5827)" class="st10 st13">0.276</text>
<rect x="21.1" y="22.6" class="st7" width="4" height="12.6"/>
<text transform="matrix(-6.123234e-17 -1 1 -6.123234e-17 24.407 35.3664)" class="st10 st13">1.446</text>
<rect x="32.7" y="43.5" class="st7" width="4" height="12.6"/>
<text transform="matrix(-6.123234e-17 -1 1 -6.123234e-17 35.9858 56.361)" class="st10 st13">0.388</text>
<rect x="38.5" y="13.9" class="st7" width="4" height="9.7"/>
<text transform="matrix(-6.123234e-17 -1 1 -6.123234e-17 41.7752 23.7785)" class="st10 st13">2.03</text>
<rect x="51.5" y="46.2" class="st7" width="4" height="12.6"/>
<text transform="matrix(-6.123234e-17 -1 1 -6.123234e-17 54.8015 58.9992)" class="st10 st13">0.255</text>
<rect x="57.3" y="15.3" class="st7" width="4" height="12.6"/>
<text transform="matrix(-6.123234e-17 -1 1 -6.123234e-17 60.5906 28.1237)" class="st10 st13">1.811</text>
<rect x="68.9" y="44.1" class="st7" width="4" height="12.6"/>
<text transform="matrix(-6.123234e-17 -1 1 -6.123234e-17 72.1696 56.9357)" class="st10 st13">0.359</text>
<rect x="74.7" y="14.1" class="st7" width="4" height="12.6"/>
<text transform="matrix(-6.123234e-17 -1 1 -6.123234e-17 77.9594 26.9137)" class="st10 st13">1.872</text>
<rect x="87.7" y="49.8" class="st7" width="4" height="9.7"/>
<text transform="matrix(-6.123234e-17 -1 1 -6.123234e-17 90.9855 59.694)" class="st10 st13">0.22</text>
<rect x="93.5" y="28.5" class="st7" width="4" height="12.6"/>
<text transform="matrix(-6.123234e-17 -1 1 -6.123234e-17 96.7756 41.3395)" class="st10 st13">1.145</text>
<rect x="105.1" y="44.5" class="st7" width="4" height="12.6"/>
<text transform="matrix(-6.123234e-17 -1 1 -6.123234e-17 108.354 57.3527)" class="st10 st13">0.338</text>
<rect x="110.9" y="16.2" class="st7" width="4" height="12.6"/>
<text transform="matrix(-6.123234e-17 -1 1 -6.123234e-17 114.1438 28.9967)" class="st10 st13">1.767</text>
<rect x="123.9" y="49.3" class="st7" width="4" height="12.6"/>
<text transform="matrix(-6.123234e-17 -1 1 -6.123234e-17 127.1698 62.0944)" class="st10 st13">0.099</text>
<rect x="129.7" y="41.1" class="st7" width="4" height="12.6"/>
<text transform="matrix(-6.123234e-17 -1 1 -6.123234e-17 132.9589 53.8996)" class="st10 st13">0.512</text>
<rect x="141.3" y="49" class="st7" width="4" height="12.6"/>
<text transform="matrix(-6.123234e-17 -1 1 -6.123234e-17 144.538 61.817)" class="st10 st13">0.113</text>
<rect x="147.1" y="39.5" class="st7" width="4" height="12.6"/>
<text transform="matrix(-6.123234e-17 -1 1 -6.123234e-17 150.3268 52.3122)" class="st10 st13">0.592</text>
<rect x="71.2" y="5" class="st7" width="83.9" height="8"/>
<rect x="71.2" y="5" class="st41" width="83.9" height="8"/>
<rect x="73" y="7.1" class="st19" width="9.1" height="3.2"/>
<rect x="73" y="7.1" class="st42" width="9.1" height="3.2"/>
<text transform="matrix(1 0 0 1 85.7525 10.2497)" class="st10 st13">amps</text>
<rect x="102.7" y="7.1" class="st21" width="9.1" height="3.2"/>
<rect x="102.7" y="7.1" class="st42" width="9.1" height="3.2"/>
<text transform="matrix(1 0 0 1 115.4541 10.2497)" class="st10 st13">watts</text>
<pattern  id="SVGID_00000018938730012713030530000007213966060931301561_" xlink:href="#Unnamed_Pattern_9" patternTransform="matrix(0.3242 0 0 -0.3242 220.0188 227.637)">
</pattern>
<rect x="132.4" y="7.1" style="fill:url(#SVGID_00000018938730012713030530000007213966060931301561_);" width="9.1" height="3.2"/>
<rect x="132.4" y="7.1" class="st42" width="9.1" height="3.2"/>
<text transform="matrix(1 0 0 1 145.1202 10.2497)" class="st10 st13">idle</text>
</svg>
