<?xml version="1.0" encoding="utf-8"?>
<!-- Generator: Adobe Illustrator 28.0.0, SVG Export Plug-In . SVG Version: 6.00 Build 0)  -->
<svg version="1.1" id="Layer_1" xmlns:rdf="http://www.w3.org/1999/02/22-rdf-syntax-ns#"
	 xmlns="http://www.w3.org/2000/svg" xmlns:xlink="http://www.w3.org/1999/xlink" x="0px" y="0px" viewBox="0 0 170.1 145.8"
	 style="enable-background:new 0 0 170.1 145.8;" xml:space="preserve">
<style type="text/css">
	.st0{fill:#A41E11;}
	.st1{fill:#D82C20;}
	.st2{fill:#FFFFFF;}
	.st3{fill:#7A0C00;}
	.st4{fill:#AD2115;}
</style>
<g transform="translate(-166.32586,-222.11295)">
	<path class="st0" d="M329.8,334.5c-9.1,4.7-56.1,24.1-66.1,29.3c-10,5.2-15.6,5.2-23.5,1.4c-7.9-3.8-58-24-67-28.3
		c-4.5-2.2-6.9-4-6.9-5.7V314c0,0,65.2-14.2,75.7-18c10.5-3.8,14.2-3.9,23.1-0.6c9,3.3,62.5,12.9,71.3,16.2c0,0,0,15.4,0,17
		C336.4,330.3,334.4,332.1,329.8,334.5L329.8,334.5z"/>
	<path class="st1" d="M329.8,317.3c-9.1,4.7-56.1,24.1-66.1,29.3c-10,5.2-15.6,5.2-23.5,1.4c-7.9-3.8-58-24-67-28.3
		c-9-4.3-9.2-7.3-0.3-10.7c8.9-3.5,58.6-23,69.1-26.8c10.5-3.8,14.2-3.9,23.1-0.6c9,3.3,55.7,21.9,64.5,25.1
		C338.5,309.9,338.9,312.6,329.8,317.3L329.8,317.3z"/>
	<path class="st0" d="M329.8,306.5c-9.1,4.7-56.1,24.1-66.1,29.3c-10,5.2-15.6,5.2-23.5,1.4c-7.9-3.8-58-24-67-28.3
		c-4.5-2.2-6.9-4-6.9-5.7V286c0,0,65.2-14.2,75.7-18c10.5-3.8,14.2-3.9,23.1-0.6c9,3.3,62.5,12.9,71.3,16.2c0,0,0,15.4,0,17
		C336.4,302.2,334.4,304.1,329.8,306.5z"/>
	<path class="st1" d="M329.8,289.3c-9.1,4.7-56.1,24.1-66.1,29.3c-10,5.2-15.6,5.2-23.5,1.4c-7.9-3.8-58-24-67-28.3
		c-9-4.3-9.2-7.3-0.3-10.7c8.9-3.5,58.6-23,69.1-26.8c10.5-3.8,14.2-3.9,23.1-0.6c9,3.3,55.7,21.9,64.5,25.1
		C338.5,281.9,338.9,284.6,329.8,289.3L329.8,289.3z"/>
	<path class="st0" d="M329.8,277.4c-9.1,4.7-56.1,24.1-66.1,29.3c-10,5.2-15.6,5.2-23.5,1.4c-7.9-3.8-58-24-67-28.3
		c-4.5-2.2-6.9-4-6.9-5.7v-17.2c0,0,65.2-14.2,75.7-18c10.5-3.8,14.2-3.9,23.1-0.6c9,3.3,62.5,12.9,71.3,16.2c0,0,0,15.4,0,17
		C336.4,273.1,334.4,275,329.8,277.4L329.8,277.4z"/>
	<path class="st1" d="M329.8,260.2c-9.1,4.7-56.1,24.1-66.1,29.3c-10,5.2-15.6,5.2-23.5,1.4c-7.9-3.8-58-24-67-28.3
		c-9-4.3-9.2-7.3-0.3-10.7c8.9-3.5,58.6-23,69.1-26.8c10.5-3.8,14.2-3.9,23.1-0.6c9,3.3,55.7,21.9,64.5,25.1
		C338.5,252.8,338.9,255.5,329.8,260.2L329.8,260.2z"/>
	<polygon class="st2" points="273.7,243.7 258.9,245.2 255.6,253.1 250.3,244.3 233.3,242.7 246,238.2 242.2,231.1 254.1,235.8 
		265.3,232.1 262.2,239.4 	"/>
	<polygon class="st2" points="254.8,282.2 227.2,270.8 266.7,264.7 	"/>
	<ellipse class="st2" cx="216.6" cy="256.2" rx="21.1" ry="8.2"/>
	<polygon class="st3" points="291.1,245.8 314.4,255.1 291.1,264.3 	"/>
	<polygon class="st4" points="265.3,256 291.1,245.8 291.1,264.3 288.6,265.3 	"/>
</g>
</svg>
