<?xml version="1.0" encoding="utf-8"?>
<!-- Generator: Adobe Illustrator 28.0.0, SVG Export Plug-In . SVG Version: 6.00 Build 0)  -->
<svg version="1.1" id="Layer_1" xmlns="http://www.w3.org/2000/svg" xmlns:xlink="http://www.w3.org/1999/xlink" x="0px" y="0px"
	 viewBox="0 0 177.8 118.1" style="enable-background:new 0 0 177.8 118.1;" xml:space="preserve">
<style type="text/css">
	.st0{fill-rule:evenodd;clip-rule:evenodd;fill:#1F305F;}
	.st1{fill:#C0765A;}
	.st2{fill:#1F305F;}
</style>
<g>
	<g transform="translate(-1614 -14.18)">
		<path class="st0" d="M1787.9,14.2c-2.7,0.1-1.9,1.3-7.8,2.8c-6,1.5-13.2,0.6-19.6,3.3c-16.8,7-19.5,34.3-39.5,44.8
			c-13.1,7.4-26.5,9.1-38.5,12.9c-9.6,3.8-15.6,6.4-22.6,12.5c-5.5,4.7-6.8,9.3-12.5,15.2c-5.8,7.9-27.7,0.9-33.4,10.8
			c3,1.9,4.7,2.5,9.9,1.8c-1.1,2.1-8,4.8-6.7,7.8c0,0,16.6,3,30.7-5.4c6.5-2.7,12.7-8.3,22.8-9.6c13.2-1.8,28,2.8,43.9,4
			c-3.3,6.5-6.7,10.3-10.3,15.7c-1.1,1.2,1,2.3,4.8,1.6c6.9-1.7,12-3.6,17-7c6.5-4.5,9.3-8.6,14.8-15.1c4.8,7.6,21.6,9.3,25,2.7
			c-6.4-2.7-7.8-16.9-5.6-23c2.6-5.8,4.5-14.1,6.6-21.7c1.9-6.9,3.1-17.4,5.3-22.8c2.7-6.7,7.9-8.8,11.9-12.3s7.9-6.5,7.7-14.6
			C1791.8,15.6,1790.4,14.1,1787.9,14.2L1787.9,14.2z"/>
		<path class="st1" d="M1618.9,124.5c10.3,0.3,13.1,0,21.3-3.5c6.9-3,16.2-11.1,24.4-13.7c12-3.9,24.9-3.3,37.7-1.8
			c4.3,0.5,8.6,1.2,11.7,0.9c4.8-2.9,5-10.9,8-11.6c-0.8,15.4-7.4,25.3-14.1,34.3c13.9-2.5,23.3-11.2,28.9-22
			c1.7-3.3,4.6-8.6,5.8-12.3c1,2.4-1.3,4-0.2,6.7c9-7.4,13.2-15.8,16.9-28.2c4.2-14.3,8.6-26.6,11.3-30.8c2.7-4.1,6.8-6.7,10.6-9.3
			c4.3-3,8.1-6.1,8.8-11.9c-4.5-0.4-5.6-1.5-6.2-3.7c-2.3,1.3-4.3,1.5-6.7,1.6c-2,0.1-4.3,0-7,0.2c-22.6,2.3-23.7,24.4-40.1,40.7
			c-1.1,1-2.9,2.6-4.1,3.4c-5.1,3.8-10.5,5.9-16.2,8.1c-9.3,3.5-18.1,4.6-26.8,7.6c-6.4,2.2-12.3,4.8-17.6,8.4
			c-1.3,0.9-3.1,2.5-4.2,3.4c-3.1,2.5-5.1,5.3-7.1,8.2c-2,3-4,6-6.9,8.9c-4.8,4.7-22.8,1.4-29.1,5.8c-0.7,0.5-1.3,1.1-1.7,1.8
			c3.4,1.6,5.8,0.6,9.7,1C1626.4,120.5,1617.7,122.7,1618.9,124.5L1618.9,124.5z"/>
		<path class="st0" d="M1762.9,28.7c3.2,2.8,9.9,0.5,8.7-5C1766.7,23.3,1763.8,25,1762.9,28.7z"/>
		<path class="st2" d="M1784.9,22.2c-0.8,1.8-2.5,4.1-2.5,8.6c0,0.8-0.6,1.3-0.6,0.1c0-4.5,1.2-6.4,2.5-8.9
			C1784.9,21.1,1785.3,21.5,1784.9,22.2z"/>
		<path class="st2" d="M1783.9,21.6c-1,1.7-3.4,4.8-3.8,9.4c-0.1,0.8-0.7,1.3-0.6,0.1c0.4-4.4,2.4-7.2,3.8-9.6
			C1784,20.4,1784.3,20.8,1783.9,21.6z"/>
		<path class="st2" d="M1782.9,20.7c-1.2,1.6-4.9,5.3-5.7,9.8c-0.1,0.8-0.8,1.2-0.6,0c0.8-4.4,4-7.8,5.7-10.1
			C1783.1,19.5,1783.4,20,1782.9,20.7z"/>
		<path class="st2" d="M1782.9,19.7c-1.4,1.4-5.8,6.2-7.2,10.5c-0.2,0.7-1,1.1-0.6-0.1c1.4-4.2,5.3-8.8,7.3-10.8
			C1783.3,18.5,1783.5,19.1,1782.9,19.7L1782.9,19.7z"/>
	</g>
</g>
</svg>
