<?xml version="1.0" encoding="utf-8"?>
<!-- Generator: Adobe Illustrator 28.0.0, SVG Export Plug-In . SVG Version: 6.00 Build 0)  -->
<svg version="1.1" id="Layer_1" xmlns="http://www.w3.org/2000/svg" xmlns:xlink="http://www.w3.org/1999/xlink" x="0px" y="0px"
	 viewBox="0 0 244.6 244.6" style="enable-background:new 0 0 244.6 244.6;" xml:space="preserve">
<style type="text/css">
	.st0{fill:none;stroke:#284A6A;stroke-width:0.9938;stroke-miterlimit:81.7394;}
	.st1{fill:none;stroke:#284A6A;stroke-width:0.4969;stroke-miterlimit:81.7394;}
	.st2{fill:none;stroke:#24405D;stroke-width:0.3861;stroke-miterlimit:81.7394;}
	.st3{fill:#256EA5;}
	.st4{fill:#3378BC;}
	.st5{fill:#169BD6;}
	.st6{fill:#00A8DA;}
</style>
<g>
	<g>
		<g>
			<path class="st0" d="M122.2,90.6L96.8,61.8"/>
			<path class="st1" d="M42.1,68.4l19.9,29"/>
			<path class="st0" d="M122.2,90.6l25.1-29 M152.6,122.6l29.8-25.1 M152.6,122.6l29.8,26.2 M147.6,182l-25.4-28.2 M96.8,182
				l25.4-28.2 M62,147.7l28.7-25.1 M62,97.5l28.7,25.1 M122.2,90.6L62,97.5 M122.2,90.6l60.2,6.9 M152.6,122.6l-5.2-61.1
				 M152.6,122.6l-5,59.4 M182.4,148.8l-60.2,5 M62,147.7l60.2,6.1 M96.8,182l-6.1-59.4 M96.8,61.8l-6.1,60.8"/>
			<path class="st1" d="M34.3,105.2L62,97.5 M67.8,41.1l29,20.7 M103.4,28.1l-6.6,33.7 M103.4,28.1l43.9,33.4 M140.7,28.1l6.6,33.4
				 M176.4,41.1l-29,20.5 M202.3,68.4l-55-6.9 M182.4,97.5l19.9-29 M182.4,97.5l28.2,7.7 M182.4,97.5l27.6,42 M140.7,28.1L96.8,61.8
				 M182.4,97.5l-6.1-56.4 M182.4,148.8l27.6-9.4 M182.4,148.8l28.2-43.6 M182.4,148.8l19.9,26.8 M182.4,148.8l-6.1,54.2 M147.6,182
				l28.7,21 M147.6,182l54.7-6.4 M147.6,182l-6.6,34 M147.6,182l-44.2,34 M96.8,182l6.6,34 M96.8,182l44.2,34 M96.8,182l-29,21
				 M96.8,182l-54.7-6.1 M62,147.7l-19.9,28.2 M62,147.7l5.8,55.3 M62,147.7l-27.9-8.6 M62,97.5l-27.9,41.7 M62,147.7l-27.6-42.6
				 M67.8,41.1L62,97.5 M42.1,68.4l54.7-6.6"/>
		</g>
		<path class="st2" d="M67.8,41.1l-21.3-9.9 M67.8,41.1l-1.7-23.2 M103.4,28.1L66.1,17.9 M103.4,28.1l-16-19.6 M103.4,28.1L110,4.6
			 M67.8,41.1L87.4,8.5 M140.7,28.1L110,4.6 M140.7,28.1l-6.9-24.3 M103.4,28.1l30.4-24.3 M140.7,28.1l16-19.6 M176.4,41.1
			L156.7,8.5 M176.4,41.1l1.9-23.2 M140.7,28.1l37.6-10.2 M176.4,41.1L198.2,30 M176.4,41.1l37.9,5.8 M202.3,68.4l11.9-21.6
			 M202.3,68.4L198.2,30 M202.3,68.4l24.9-1.9 M202.3,68.4l34,19.3 M210.6,105.2l16.6-38.7 M210.6,105.2l25.7-17.4 M210.6,105.2
			l28.7,5.8 M210.1,139.5l29.3-28.5 M210.1,139.5l30.1-5.5 M210.6,105.2l29.6,28.7 M210.1,139.5l25.7,17.1 M202.3,175.6l33.4-19.1
			 M202.3,175.6l24.6,2.5 M210.1,139.5l16.9,38.7 M202.3,175.6l11.6,21.8 M202.3,175.6l-4.4,38.1 M197.9,213.8L176.4,203 M176.4,203
			l1.7,24 M176.4,203l37.6-5.5 M176.4,203l-19.6,33.2 M141,216l15.7,20.2 M141,216l37,11.1 M141,216l-7.2,24.9 M141,216L110,240.8
			 M103.4,216l6.6,24.9 M103.4,216l30.4,24.9 M103.4,216l-15.7,20.2 M67.8,203l19.9,33.2 M103.4,216l-37.6,11.6 M67.8,203l-1.9,24.6
			 M67.8,203l-21.5,11.9 M42.1,175.9l4.1,39 M67.8,203l-37.8-5.2 M42.1,175.9l-12.2,21.8 M42.1,175.9l-24.9,2.5 M42.1,175.9
			L7.8,156.9 M34.1,139.2L7.8,156.9 M34.1,139.2l-29.8-5.2 M34.1,139.2l-16.9,39.2 M34.3,105.2L4.2,133.9 M34.1,139.2L4.2,111
			 M34.3,105.2L8.6,88.1 M34.3,105.2L4.2,111 M34.3,105.2L17.2,66.5 M42.1,68.4l-24.9-1.9 M42.1,68.4L8.6,88.1 M42.1,68.4L30.2,48
			 M42.1,68.4l4.4-37.3 M67.8,41.1L30.2,48"/>
	</g>
	<path class="st3" d="M75.9,137l0.2-29l29.1,0.2l-0.2,29L75.9,137z M107.4,105l0.2-29l29.1,0.2l-0.2,29L107.4,105z M107.4,168.7
		l0.2-29l29.1,0.2l-0.2,29L107.4,168.7z M139.1,136.7l0.2-29l29.1,0.2l-0.2,29L139.1,136.7z"/>
	<path class="st4" d="M137.4,71.6l0.1-20.2l20.3,0.1l-0.2,20.2L137.4,71.6z M86.8,71.6l0.1-20.2l20.3,0.1L107,71.8L86.8,71.6z
		 M51.7,107.5l0.1-20.2l20.2,0.1L72,107.7L51.7,107.5z M51.7,158.3l0.2-20.2l20.3,0.2l-0.2,20.2L51.7,158.3z M172.5,157.9l0.1-20.2
		l20.2,0.1l-0.1,20.2L172.5,157.9z M172.9,107.7l0.2-20.2l20.3,0.2l-0.2,20.2L172.9,107.7z"/>
	<path class="st5" d="M35.3,75l0.1-13.3l13.2,0.1l-0.1,13.3L35.3,75z M61.2,48l0.1-13.3l13.2,0.1l-0.1,13.3L61.2,48z M96.8,34.7
		l0.1-13.3l13.2,0.1L110,34.8L96.8,34.7z M27.5,111.8l0.1-13.3l13.2,0.1l-0.1,13.3L27.5,111.8z M195.6,61.9l13.3-0.1l0.1,13.2
		l-13.3,0.1L195.6,61.9z M169.8,34.5l13.3-0.1l0.1,13.2l-13.3,0.1L169.8,34.5z M134,21.5l13.3-0.1l0.1,13.2l-13.3,0.1L134,21.5z
		 M203.4,98.6l13.3-0.1l0.1,13.2l-13.3,0.1L203.4,98.6z"/>
	<path class="st4" d="M86.5,192.7l0.1-20.2l20.3,0.1l-0.1,20.2L86.5,192.7z M137.1,192.7l0.1-20.2l20.2,0.1l-0.1,20.2L137.1,192.7z"
		/>
	<path class="st5" d="M195.5,182.4l0.1-13.3l13.2,0.1l-0.1,13.3L195.5,182.4z M170,209.7l0.1-13.3l13.2,0.1l-0.1,13.3L170,209.7z
		 M134.3,222.8l0.1-13.3l13.2,0.1l-0.1,13.3L134.3,222.8z M203.3,145.7l0.1-13.3l13.2,0.1l-0.1,13.3L203.3,145.7z M35.3,169.2
		l13.3-0.1l0.1,13.2l-13.3,0.1L35.3,169.2z M61.2,196.3l13.3-0.1l0.1,13.2l-13.3,0.1L61.2,196.3z M96.6,209.3l13.3-0.1l0.1,13.2
		l-13.3,0.1L96.6,209.3z M27.6,132.5l13.3-0.1l0.1,13.2l-13.3,0.1L27.6,132.5z"/>
	<g transform="matrix(.21867 0 0 .21867 16.193 8.133)">
		<g>
			<path id="a" class="st6" d="M947.5,283.2l0.2-32.9l33.5,0.2l-0.2,32.9L947.5,283.2z"/>
		</g>
		<g>
			<path id="a_00000054984777202276940670000014682387042410319003_" class="st6" d="M990.7,382.5l0.2-32.9l33.5,0.2l-0.2,32.9
				L990.7,382.5z"/>
		</g>
		<g>
			<path id="a_00000063609078488524677280000003981073674880295846_" class="st6" d="M888.9,195.4l0.2-32.9l33.5,0.2l-0.2,32.9
				L888.9,195.4z"/>
		</g>
		<g>
			<path id="a_00000163785521847154319250000007935987745688907441_" class="st6" d="M121.7,120.3l0.2-32.9l33.5,0.2l-0.2,32.9
				L121.7,120.3z"/>
		</g>
		<g>
			<path id="a_00000097476269958649500940000005538381207004453537_" class="st6" d="M-70.4,486.8l0.2-32.9l33.5,0.2L-37,487
				L-70.4,486.8z"/>
		</g>
		<g>
			<path id="a_00000095303215437413041170000012389637567574634932_" class="st6" d="M815.1,120.4l0.2-32.9l33.5,0.2l-0.2,32.9
				L815.1,120.4z"/>
		</g>
		<g>
			<path id="a_00000029755190555490128490000011808071048179768503_" class="st6" d="M-51.4,382.4l0.2-32.9l33.5,0.2l-0.2,32.9
				L-51.4,382.4z"/>
		</g>
		<g>
			<path id="a_00000171699042865051705400000012185480557179241346_" class="st6" d="M310,18.5l0.2-32.9l33.5,0.2l-0.2,32.9
				L310,18.5z"/>
		</g>
		<g>
			<path id="a_00000045587447374029596500000014779605278366458028_" class="st6" d="M-10.7,283.2l0.2-32.9l33.5,0.2l-0.2,32.9
				L-10.7,283.2z"/>
		</g>
		<g>
			<path id="a_00000177452588462829182500000000238392373262302901_" class="st6" d="M49.1,194.1l0.2-32.9l33.5,0.2l-0.2,32.9
				L49.1,194.1z"/>
		</g>
		<path class="st6" d="M211.4,28l32.9-0.2l0.2,33.5l-32.9,0.2L211.4,28z M414.3-36.6l32.9-0.2l0.2,33.5l-32.9,0.2L414.3-36.6z"/>
		<g>
			<path id="a_00000071543293880057147150000014221235190616873091_" class="st6" d="M726.1,61.8l0.2-32.9l33.5,0.2l-0.2,32.9
				L726.1,61.8z"/>
		</g>
		<g>
			<path id="a_00000182504741146776707470000015898155004810180535_" class="st6" d="M1007.3,485.5l0.2-32.9l33.5,0.2l-0.2,32.9
				L1007.3,485.5z"/>
		</g>
		<g>
			<path id="a_00000129190765196138127580000000194115769753232033_" class="st6" d="M521.2-4.3l0.2-32.9l33.5,0.2l-0.2,32.9
				L521.2-4.3z"/>
		</g>
		<g>
			<path id="a_00000153697834934075630240000013300031826715825032_" class="st6" d="M625.5,17.3l0.2-32.9l33.5,0.2L659,17.5
				L625.5,17.3z"/>
		</g>
		<g>
			<path id="a_00000141434936885240952950000000301408687083823789_" class="st6" d="M815.1,957.6l0.2-32.9l33.5,0.2l-0.2,32.9
				L815.1,957.6z"/>
		</g>
		<g>
			<path id="a_00000116205419216989349060000002433459088661970320_" class="st6" d="M1007.3,591.1l0.2-32.9l33.5,0.2l-0.2,32.9
				L1007.3,591.1z"/>
		</g>
		<g>
			<path id="a_00000024713640634774774090000016769337462329603987_" class="st6" d="M121.7,957.6l0.2-32.9l33.5,0.2l-0.2,32.9
				L121.7,957.6z"/>
		</g>
		<g>
			<path id="a_00000044856127598177545290000018435589318411769001_" class="st6" d="M990.7,696.7l0.2-32.9l33.5,0.2l-0.2,32.9
				L990.7,696.7z"/>
		</g>
		<g>
			<path id="a_00000086679038338136927640000015016432830291177124_" class="st6" d="M625.5,1060.6l0.2-32.9l33.5,0.2l-0.2,32.9
				L625.5,1060.6z"/>
		</g>
		<g>
			<path id="a_00000165930250319978712980000015600705707603073423_" class="st6" d="M947.4,796l0.2-32.9l33.5,0.2l-0.2,32.9
				L947.4,796z"/>
		</g>
		<g>
			<path id="a_00000141447806180939996340000000377544271390462857_" class="st6" d="M888.9,885l0.2-32.9l33.5,0.2l-0.2,32.9
				L888.9,885z"/>
		</g>
		<path class="st6" d="M724.7,985.9l32.9-0.2l0.2,33.5l-32.9,0.2L724.7,985.9z M523,1048l32.9-0.2l0.2,33.5l-32.9,0.2L523,1048z"/>
		<g>
			<path id="a_00000122681203625205589420000013841924638491503014_" class="st6" d="M212,1019.9l0.2-32.9l33.5,0.2l-0.2,32.9
				L212,1019.9z"/>
		</g>
		<g>
			<path id="a_00000027570207514924339060000017049004440173057973_" class="st6" d="M-11.9,794.7l0.2-32.9l33.5,0.2l-0.2,32.9
				L-11.9,794.7z"/>
		</g>
		<g>
			<path id="a_00000147921709371883597810000006684197197525979546_" class="st6" d="M-51.4,696.7l0.2-32.9l33.5,0.2l-0.2,32.9
				L-51.4,696.7z"/>
		</g>
		<g>
			<path id="a_00000160149371459398884170000003502432386642568077_" class="st6" d="M47.9,885l0.2-32.9l33.5,0.2l-0.2,32.9
				L47.9,885z"/>
		</g>
		<g>
			<path id="a_00000005254272440083173370000000495653090307141544_" class="st6" d="M-70.4,591.1l0.2-32.9l33.5,0.2l-0.2,32.9
				L-70.4,591.1z"/>
		</g>
		<g>
			<path id="a_00000160885852700357063330000013061650688359809979_" class="st6" d="M415.6,1081l0.2-32.9l33.5,0.2l-0.2,32.9
				L415.6,1081z"/>
		</g>
		<g>
			<path id="a_00000147937264469740071120000010070621457990853770_" class="st6" d="M308.7,1059.4l0.2-32.9l33.5,0.2l-0.2,32.9
				L308.7,1059.4z"/>
		</g>
	</g>
</g>
</svg>
