<?xml version="1.0" encoding="utf-8"?>
<!-- Generator: Adobe Illustrator 28.0.0, SVG Export Plug-In . SVG Version: 6.00 Build 0)  -->
<svg version="1.1" id="Layer_1" xmlns="http://www.w3.org/2000/svg" xmlns:xlink="http://www.w3.org/1999/xlink" x="0px" y="0px"
	 viewBox="0 0 213.3 146.7" style="enable-background:new 0 0 213.3 146.7;" xml:space="preserve">
<style type="text/css">
	.st0{fill:url(#SVGID_1_);}
	.st1{fill:url(#SVGID_00000062191343555000096930000012345500612447374760_);}
	.st2{fill:url(#SVGID_00000074431180184391260940000000672038332483441029_);}
	.st3{fill:url(#SVGID_00000034770765222407287930000017656720577246206878_);}
	.st4{fill:url(#SVGID_00000053531865648001591930000010756913561994802621_);}
	.st5{fill:url(#SVGID_00000017480538803179673240000014590959858274363014_);}
	.st6{fill:url(#SVGID_00000002367424344515139410000004400039617816692615_);}
	.st7{fill:url(#SVGID_00000020359193986492763220000000929645548905090948_);}
</style>
<linearGradient id="SVGID_1_" gradientUnits="userSpaceOnUse" x1="106.6665" y1="306" x2="106.6665" y2="159.333" gradientTransform="matrix(1 0 0 -1 0 306)">
	<stop  offset="0" style="stop-color:#5A3EE0"/>
	<stop  offset="1" style="stop-color:#3E74E0"/>
</linearGradient>
<path class="st0" d="M100,120.5l1.6,22.8c0,0,0.8,3.3,5,3.3c4.2,0,5-3.3,5-3.3l1.6-22.8c-0.1,0-0.1,0.1-0.2,0.1
	c-1.5,0.6-3.6,1.1-6.4,1.1s-5-0.5-6.4-1.1C100.2,120.6,100.1,120.5,100,120.5z"/>
<linearGradient id="SVGID_00000166668928670061438800000005454384840787614855_" gradientUnits="userSpaceOnUse" x1="106.667" y1="306" x2="106.667" y2="159.333" gradientTransform="matrix(1 0 0 -1 0 306)">
	<stop  offset="0" style="stop-color:#5A3EE0"/>
	<stop  offset="1" style="stop-color:#3E74E0"/>
</linearGradient>
<path style="fill:url(#SVGID_00000166668928670061438800000005454384840787614855_);" d="M96.7,79.1l3.3,37.5c0,0,1.7,1.7,6.7,1.7
	s6.7-1.7,6.7-1.7l3.3-37.5c-2,1.2-5.4,2.5-9.9,2.5C102.1,81.7,98.8,80.3,96.7,79.1z"/>
<linearGradient id="SVGID_00000126289237801579663110000015946706743080059284_" gradientUnits="userSpaceOnUse" x1="106.6665" y1="306" x2="106.6665" y2="159.333" gradientTransform="matrix(1 0 0 -1 0 306)">
	<stop  offset="0" style="stop-color:#5A3EE0"/>
	<stop  offset="1" style="stop-color:#3E74E0"/>
</linearGradient>
<path style="fill:url(#SVGID_00000126289237801579663110000015946706743080059284_);" d="M95.4,42.3c-0.5,0.4-1,0.9-1.2,1.6l-3.4,9
	c-0.5,1.4-0.6,3-0.1,4.4l5.4,16.3c0.3,1,0.9,1.9,1.7,2.4c1.5,1,4.4,2.4,8.8,2.4c4.3,0,7.2-1.4,8.8-2.4c0.9-0.6,1.4-1.5,1.7-2.4
	l5.4-16.3c0.5-1.4,0.5-3-0.1-4.4l-3.4-9c-0.2-0.6-0.7-1.2-1.2-1.6c-3,2.7-6.9,4.4-11.3,4.4C102.3,46.7,98.4,45,95.4,42.3z"/>
<linearGradient id="SVGID_00000116200077816839257980000006246112561290827138_" gradientUnits="userSpaceOnUse" x1="106.6665" y1="306" x2="106.6665" y2="159.333" gradientTransform="matrix(1 0 0 -1 0 306)">
	<stop  offset="0" style="stop-color:#5A3EE0"/>
	<stop  offset="1" style="stop-color:#3E74E0"/>
</linearGradient>
<path style="fill:url(#SVGID_00000116200077816839257980000006246112561290827138_);" d="M93.3,30c0-2-1.2-4-2.9-4.9
	c-4.2-2.2-7.1-6.7-7.1-11.8C83.3,6,89.3,0,96.7,0c1.3,0,2.5,0.2,3.7,0.5c3.9,1.1,8.7,1.1,12.6,0c1.2-0.3,2.4-0.5,3.7-0.5
	C124,0,130,6,130,13.3c0,5.1-2.9,9.5-7.1,11.8C121.2,26,120,28,120,30c0,7.4-6,13.3-13.3,13.3C99.3,43.3,93.3,37.4,93.3,30z"/>
<linearGradient id="SVGID_00000072958595727036588490000018073398964287716794_" gradientUnits="userSpaceOnUse" x1="48.8797" y1="306" x2="48.8797" y2="159.333" gradientTransform="matrix(1 0 0 -1 0 306)">
	<stop  offset="0" style="stop-color:#5A3EE0"/>
	<stop  offset="1" style="stop-color:#3E74E0"/>
</linearGradient>
<path style="fill:url(#SVGID_00000072958595727036588490000018073398964287716794_);" d="M21.7,50H88c-3,5-0.8,8.2,0.3,11.7
	L26.1,79.5c-4,1.1-8.2-0.3-10.7-3.6l-3.9-5.2c-2.3-3-2.6-7.1-0.9-10.5l2.3-4.7C14.5,52.2,17.9,50,21.7,50z"/>
<linearGradient id="SVGID_00000164500561281361668010000015007320324880579495_" gradientUnits="userSpaceOnUse" x1="45.6807" y1="306" x2="45.6807" y2="159.333" gradientTransform="matrix(1 0 0 -1 0 306)">
	<stop  offset="0" style="stop-color:#5A3EE0"/>
	<stop  offset="1" style="stop-color:#3E74E0"/>
</linearGradient>
<path style="fill:url(#SVGID_00000164500561281361668010000015007320324880579495_);" d="M89.2,46.7l-75.8-1.8
	c-4.2-0.2-7.9-2.6-9.2-6.7l-3.7-12c-0.3-1-0.4-1.9-0.4-2.9c0-3.1,1.4-6,3.9-8l7.7-5.9c2.9-2.2,6.7-2.7,10-1.3
	c8.6,3.5,60,25.7,68.8,29.6c0.8,0.3,1.1,1.1,0.9,1.9c-0.1,0.6-0.3,1.3-0.5,1.9C90.4,43.7,89.2,46.7,89.2,46.7z"/>
<linearGradient id="SVGID_00000047037985552053265090000005983242265865075863_" gradientUnits="userSpaceOnUse" x1="164.4536" y1="306" x2="164.4536" y2="159.333" gradientTransform="matrix(1 0 0 -1 0 306)">
	<stop  offset="0" style="stop-color:#5A3EE0"/>
	<stop  offset="1" style="stop-color:#3E74E0"/>
</linearGradient>
<path style="fill:url(#SVGID_00000047037985552053265090000005983242265865075863_);" d="M191.7,50h-66.3c3,5,0.8,8.2-0.3,11.7
	l62.3,17.8c4,1.1,8.2-0.3,10.7-3.6l3.9-5.2c2.3-3,2.6-7.1,0.9-10.5l-2.3-4.7C198.8,52.2,195.4,50,191.7,50z"/>
<linearGradient id="SVGID_00000095302108863520591620000017980818530235098005_" gradientUnits="userSpaceOnUse" x1="167.6526" y1="306" x2="167.6526" y2="159.333" gradientTransform="matrix(1 0 0 -1 0 306)">
	<stop  offset="0" style="stop-color:#5A3EE0"/>
	<stop  offset="1" style="stop-color:#3E74E0"/>
</linearGradient>
<path style="fill:url(#SVGID_00000095302108863520591620000017980818530235098005_);" d="M124.2,46.7l75.8-1.8
	c4.2-0.2,7.9-2.6,9.2-6.7l3.7-12c0.3-1,0.4-1.9,0.4-2.9c0-3.1-1.4-6-3.9-8l-7.6-5.9c-2.9-2.2-6.7-2.7-10-1.3
	c-8.6,3.5-60,25.7-68.8,29.6c-0.8,0.3-1.1,1.1-0.9,1.9c0.1,0.6,0.3,1.3,0.5,1.9C123,43.7,124.2,46.7,124.2,46.7z"/>
</svg>
