<?xml version="1.0" encoding="utf-8"?>
<!-- Generator: Adobe Illustrator 28.0.0, SVG Export Plug-In . SVG Version: 6.00 Build 0)  -->
<svg version="1.1" id="Layer_1" xmlns="http://www.w3.org/2000/svg" xmlns:xlink="http://www.w3.org/1999/xlink" x="0px" y="0px"
	 viewBox="0 0 146.8 146.8" style="enable-background:new 0 0 146.8 146.8;" xml:space="preserve">
<style type="text/css">
	.st0{fill:#00684A;}
</style>
<path class="st0" d="M86.2,16.4C80,9.1,74.7,1.6,73.6,0.1c-0.1-0.1-0.3-0.1-0.4,0c-1.1,1.5-6.4,9-12.6,16.3
	c-52.9,67.5,8.3,113,8.3,113l0.5,0.3c0.5,7,1.6,17.1,1.6,17.1h2.3h2.3c0,0,1.1-10.1,1.6-17.1l0.5-0.4
	C77.8,129.4,139.1,83.8,86.2,16.4z M73.4,128.4c0,0-2.7-2.3-3.5-3.5v-0.1l3.3-73.5c0-0.2,0.3-0.2,0.3,0l3.3,73.5v0.1
	C76.1,126,73.4,128.4,73.4,128.4z"/>
</svg>
