<?xml version="1.0" encoding="utf-8"?>
<!-- Generator: Adobe Illustrator 28.0.0, SVG Export Plug-In . SVG Version: 6.00 Build 0)  -->
<svg version="1.1" id="SurrealDB" xmlns="http://www.w3.org/2000/svg" xmlns:xlink="http://www.w3.org/1999/xlink" x="0px" y="0px"
	 viewBox="0 0 979.9 979.9" style="enable-background:new 0 0 979.9 979.9;" xml:space="preserve">
<style type="text/css">
	.st0{fill:url(#Icon_00000029757228441871547370000001549442418570884541_);}
</style>
<linearGradient id="Icon_00000117660803837292236780000008380791296266393510_" gradientUnits="userSpaceOnUse" x1="273.2977" y1="-51.6579" x2="706.6456" y2="-802.2385" gradientTransform="matrix(1 0 0 -1 0 63.0393)">
	<stop  offset="0" style="stop-color:#FF00A0"/>
	<stop  offset="1" style="stop-color:#9600FF"/>
</linearGradient>
<path id="Icon" style="fill:url(#Icon_00000117660803837292236780000008380791296266393510_);" d="M490,257.8L723.2,387v-51.8
	L490,206.3c-34.7,19.2-202.4,111.9-233.3,128.9c28.7,15.9,330.1,182.4,513.3,283.6v51.6C745,684.2,490,825.1,490,825.1
	c-69.8-38.5-210.3-116.1-280-154.7V515.7l280,154.7l46.7-25.8L163.2,438.4v257.9L490,876.7c32.2-17.8,302.8-167.3,326.6-180.5V593.1
	L350,335.2L490,257.8z M163.2,283.6v103.2l466.6,257.9l-140,77.4L256.6,592.9v51.8l233.3,128.9c34.7-19.2,202.4-111.9,233.3-128.9
	c-28.7-15.9-330-182.4-513.2-283.7v-51.6c24.9-13.8,280-154.7,280-154.7c69.7,38.6,210.2,116.2,280,154.7v154.7L490,309.4
	l-46.7,25.8l373.3,206.3V283.6L490,103.1C457.7,121,187.1,270.5,163.2,283.6z M490,0l-420,232.1v515.7l420,232.1l420-232V232.1
	L490,0z M863.2,722L490,928.3L116.7,722V257.9L490,51.6l373.3,206.3L863.2,722z"/>
</svg>
