<?xml version="1.0" encoding="utf-8"?>
<!-- Generator: Adobe Illustrator 28.0.0, SVG Export Plug-In . SVG Version: 6.00 Build 0)  -->
<svg version="1.1" id="Layer_1" xmlns:serif="http://www.serif.com/"
	 xmlns="http://www.w3.org/2000/svg" xmlns:xlink="http://www.w3.org/1999/xlink" x="0px" y="0px" viewBox="0 0 208.1 199.7"
	 style="enable-background:new 0 0 208.1 199.7;" xml:space="preserve">
<style type="text/css">
	.st0{fill-rule:evenodd;clip-rule:evenodd;fill:#0090DD;}
	.st1{fill:none;stroke:#0090DD;stroke-width:7.6903;stroke-linecap:round;stroke-linejoin:round;stroke-miterlimit:29.2965;}
	.st2{fill:none;stroke:#22B638;stroke-width:12.6416;stroke-miterlimit:26.7546;}
	.st3{fill:none;stroke:#22B638;stroke-width:12.6416;stroke-linecap:round;stroke-linejoin:round;stroke-miterlimit:26.7546;}
	.st4{fill:none;stroke:#0090DD;stroke-width:11.272;stroke-linecap:round;stroke-linejoin:round;stroke-miterlimit:46.0081;}
</style>
<path class="st0" d="M192,74.4c2.6,12.5,2.3,24.9,0.2,36.8c-2.2,12-6.5,23.4-12.8,33.7c-2.5,4.1-5.2,8.1-8.2,11.8s-6.2,7.3-9.8,10.6
	c-10.3,9.7-22.8,17.5-37.3,21.9c-11.5,3.6-23.1,4.9-34.4,4.2c-11.9-0.8-23.5-3.8-34.1-8.8l-1,2c10.6,6.1,22.3,10.1,34.6,12
	c12,1.8,24.5,1.4,37.1-1.3c16.3-3.8,30.8-11.3,42.7-21.5c4.1-3.5,7.9-7.5,11.3-11.6c3.4-4.2,6.5-8.7,9.1-13.4
	c6.5-11.7,10.6-24.8,11.7-38.3c1.1-12.9-0.5-26.1-4.8-39.1L192,74.4z"/>
<path class="st0" d="M27.1,161.2c-4.7-5.2-9-11-12.5-17.3c-3.4-6.1-6.2-12.8-8.2-19.8c-0.8-3.5-1.4-7-1.7-10.5
	c-1.4-14.3,0.9-28.2,5.4-41.2c2.4-6.9,5.7-13.5,9.4-19.8c4.9-8.4,10.8-16.2,17.9-23c10.5-10,23.1-17.9,37.9-22.5
	c12-3.7,24.1-5.1,35.9-4c8.2,0.8,16.2,2.5,23.8,5.5c8.5,3.4,16.4,8.3,23.4,14.1c7,5.7,13,12.6,18.1,20.2c0.7,1,1.1,2.2,1.9,3
	c0.6,0.7,1.4,0.9,2.1,1.5l3-1.9c-0.2-1-0.2-1.8-0.6-2.6c-0.5-1.2-1.5-2-2.3-3c-8.3-10.5-18.6-19-30.1-25.4c-4.9-2.7-10-5-15.2-7
	c-5.8-2.2-11.7-4-17.8-5.3c-14-2.9-28.7-3.1-43.6,0.3c-16.1,3.7-30.4,11-42.2,21c-8.2,7-15.2,15.2-20.4,24.5
	c-3.9,7-6.8,14.5-8.7,22.3c-3.4,14-3.5,28.9-0.4,43.7c0.7,3.5,1.6,7,2.7,10.5c1.8,7.2,4.4,14.1,7.5,20.5c3.3,6.7,7.2,12.9,11.8,18.6
	L27.1,161.2z"/>
<path class="st1" d="M175,55.7c-1.2,7.9,4.3,15.5,12.3,16.7c4.2,0.6,8.3-0.6,11.4-3.1c2.8-2.2,4.8-5.4,5.3-9.2
	c1.2-7.9-4.3-15.5-12.3-16.7C183.7,42.2,176.2,47.7,175,55.7z"/>
<path class="st0" d="M157.9,87.9c0,0,2.6-2.4,5.8-5.5c5.6-5.5,13.1-13.2,13.1-13.2l-2.5-2.9c0,0-8.8,6.2-15.1,10.9
	c-3.6,2.7-6.3,4.8-6.3,4.8L157.9,87.9z"/>
<path class="st2" d="M86.9,157.8h55.4c3.1,0,5.6-2.5,5.6-5.6V96.5c0-3.1-2.5-5.6-5.6-5.6H59.9c-3.1,0-5.6,2.5-5.6,5.6v32.9"/>
<path class="st3" d="M74.3,90.9V64.1c0-14.7,12.1-26.8,26.8-26.8s26.8,12.1,26.8,26.8v26.8"/>
<path class="st4" d="M69.9,167.2c0.5-3.9,0-7.7-1.3-11.1c-2.9-7.6-9.9-13.5-18.5-14.7c-12.5-1.6-24.2,7.3-25.8,19.8
	s7.3,24.2,19.8,25.8S68.3,179.7,69.9,167.2z"/>
<path class="st0" d="M95,121.6c0,0-14.1,8.4-24.3,15c-5.7,3.7-10.1,6.8-10.1,6.8l9,11.5c0,0,4-3.5,9-8.2
	c8.8-8.3,20.4-19.9,20.4-19.9L95,121.6z"/>
</svg>
