<?xml version="1.0" encoding="utf-8"?>
<!-- Generator: Adobe Illustrator 27.5.0, SVG Export Plug-In . SVG Version: 6.00 Build 0)  -->
<svg version="1.1" id="Layer_1" xmlns="http://www.w3.org/2000/svg" xmlns:xlink="http://www.w3.org/1999/xlink" x="0px" y="0px"
	 viewBox="0 0 344.94 344.94" style="enable-background:new 0 0 344.94 344.94;" xml:space="preserve">
<style type="text/css">
	.st0{fill:#37A7BD;}
	.st1{fill:#1A6D74;}
</style>
<path class="st0" d="M241.46,258.01c0.24,0.08,0.48,0.16,0.71,0.23c0.28,2.08,2.18,2.2,3.56,2.74c4.29,1.66,8.65,3.18,13.01,4.65
	c1.32,0.44,2.8,0.41,4.15,0.8c11.86,3.43,24.02,2.84,36.14,2.71c4.67-0.05,4.68-0.07,5.72-4.54c0.4-1.74,1.52-2.8,3.17-3.16
	c1.97-0.44,3.81-1.01,5.54-2.12c1.54-0.98,3.42-0.63,5.14-0.48c3.36,0.3,6.4-0.41,9.33-2.06c3.39-1.9,6.41-1.39,8.62,1.75
	c2.94,4.18,6.18,8.2,8.05,13.04c1.06,2.76-0.44,6.08-3.23,7.09c-2.94,1.06-5.64,2.69-8.86,3.13c-2.41,0.33-4.19,2.04-4.79,4.54
	c-0.42,1.73-1.52,2.47-3.05,3.24c-3.41,1.73-7.14,2.54-10.57,4.2c-1.72,0.83-2.97-0.36-3.91-1.73c-1.75-2.56-4.16-3.04-6.78-1.33
	c-0.55,0.36-1.1,0.78-1.71,0.99c-7.54,2.66-15,5.65-22.68,7.8c-5.49,1.53-11.08,2.85-16.63,4.22c-7.05,1.73-14.25,2.35-21.29,3.96
	c-3.12,0.71-6.45,0.55-9.69,0.76c-14.05,0.89-28.12,0.92-42.08-0.88c-6.93-0.9-13.81-2.51-20.57-4.51
	c-4.57-1.35-8.97-3.12-13.47-4.63c-3.13-1.05-6.28-1.91-9.32-3.3c-4.96-2.26-9.77-4.78-14.59-7.33c-5.21-2.75-10.06-6.09-14.88-9.38
	c-6.08-4.15-11.95-8.65-17.52-13.52c-4.14-3.62-7.96-7.56-11.86-11.42c-1.5-1.49-1.86-2.63,0.45-3.72c3.19-1.5,6.32-3.15,9.45-4.78
	c4.3-2.24,8.6-4.47,12.85-6.8c1.88-1.03,3.87-1.78,5.76-2.84c5.88-3.32,12.02-6.17,18.03-9.26c6.02-3.1,11.98-6.32,18.02-9.38
	c4.49-2.27,9.21-4.09,13.57-6.57c4.22-2.4,8.85-3.99,12.93-6.67c1.29-0.85,2.83-1.52,4.34-1.8c1.86-0.35,2.75,1.31,3.47,2.63
	c8.41,15.34,19.04,28.91,32.31,40.31c5.5,4.73,11.52,8.86,18.36,11.56C238.25,256.78,239.27,258.9,241.46,258.01z"/>
<path class="st0" d="M56.03,170.26c-4.82,2.02-9.78,3.89-14.32,6.6c-2.7,1.61-4.97,0.57-6.41-2.62c-3.68-8.14-7.28-16.33-9.81-24.9
	c-1.26-4.27-2.6-8.58-2.99-13.09c-0.47-5.44-1.36-6.23-6.82-6.17c-2.24,0.02-3.48-0.72-4.59-2.88c-2.89-5.66-6.08-11.19-9.46-16.58
	c-3.07-4.91-1.69-10.34,3.46-12.99c6.05-3.1,12.41-5.47,18.64-8.15c7.07-3.04,14.05-6.31,21.12-9.36c5.16-2.23,10.43-4.21,15.6-6.42
	c5.1-2.18,10.12-4.54,15.2-6.76c4.85-2.12,9.73-4.16,14.59-6.26c5.54-2.39,11.06-4.84,16.61-7.2c5.02-2.13,10.1-4.12,15.12-6.27
	c4.95-2.11,9.84-4.37,14.78-6.5c3.58-1.54,7.19-3,10.8-4.44c1.18-0.47,2.47-0.42,3.71-0.27c2.19,0.27,3.5,1.33,3.31,3.79
	c-0.13,1.66-0.03,3.33-0.07,4.99c-0.27,14.49,1.1,28.87,2.52,43.28c0.98,10,2.71,19.93,3.04,30c0.18,5.6-0.28,6.71-5.86,8.58
	c-3.63,1.22-6.89,3.12-10.33,4.71c-2.31,1.07-4.73,2.01-7.08,2.86c-3.04,1.1-5.88,2.65-8.84,3.87c-2.76,1.14-5.74,2.04-8.26,3.85
	c-1.87,1.35-4.27,1.64-6.37,2.66c-2.94,1.43-5.86,3.03-9.02,4.09c-2.85,0.96-5.49,2.54-8.22,3.85c-2.38,1.14-4.84,2.21-7.25,3.12
	C85.7,156.83,61.43,168,56.03,170.26z"/>
<path class="st0" d="M73.09,234.64c-1.55-0.1-2.44-0.86-3.25-1.91c-4.54-5.81-8.46-12.06-12.55-18.19
	c-3.48-5.21-6.49-10.74-9.68-16.14c-1.16-1.98-0.43-3.63,1.87-4.08c3.78-0.73,7.07-2.57,10.44-4.3c2.12-1.09,4.34-2.02,6.51-3.02
	c6.9-3.18,14.01-5.93,20.91-9.11c6.13-2.83,12.46-5.25,18.52-8.18c5.63-2.72,11.4-5.07,17.07-7.65c4.03-1.84,8.33-3.15,12.17-5.17
	c4.75-2.5,9.78-4.3,14.52-6.78c2.67-1.4,5.75-1.99,8.44-3.52c1.06-0.6,2.19-1.05,3.22-1.78c1.91-1.35,3.33-0.51,3.89,1.71
	c1.41,5.5,2.46,11.11,4.64,16.4c0.13,0.31,0.27,0.63,0.28,0.95c0.13,4.65,3.13,8.55,3.47,13.15c0.01,0.08,0.04,0.16,0.06,0.24
	c0.39,1.73,2.89,3.3,1.58,4.89c-1.39,1.68-3.74,2.63-5.83,3.66c-4.49,2.21-8.86,4.66-13.38,6.81c-2.54,1.21-4.86,2.8-7.51,3.83
	c-2.67,1.03-5.11,2.65-7.67,3.97c-2.41,1.24-4.85,2.42-7.27,3.64c-2.9,1.47-5.81,2.93-8.7,4.44c-4.1,2.13-8.17,4.31-12.26,6.45
	c-4.53,2.37-9.04,4.81-13.63,7.07c-3.56,1.75-7.01,3.72-10.59,5.39c-4.65,2.17-8.98,4.99-13.81,6.78
	C74.01,234.37,73.52,234.74,73.09,234.64z"/>
<path class="st1" d="M113.33,278.1c0.12,0.2,0.25,0.39,0.33,0.59c0.01,0.03-0.31,0.24-0.33,0.22c-0.16-0.16-0.29-0.35-0.42-0.53
	C113.03,278.3,113.15,278.22,113.33,278.1z"/>
</svg>
