<?xml version="1.0" encoding="utf-8"?>
<!-- Generator: Adobe Illustrator 28.0.0, SVG Export Plug-In . SVG Version: 6.00 Build 0)  -->
<svg version="1.1" id="Layer_1" xmlns="http://www.w3.org/2000/svg" xmlns:xlink="http://www.w3.org/1999/xlink" x="0px" y="0px"
	 viewBox="0 0 63 63" style="enable-background:new 0 0 63 63;" xml:space="preserve">
<path d="M12.6,44.2c0.8,0,1.5-0.7,1.5-1.5c0-0.8-0.7-1.5-1.5-1.5c-0.8,0-1.5,0.7-1.5,1.5C11.1,43.5,11.8,44.2,12.6,44.2z"/>
<path d="M31.5,52.1c-0.9,0-1.5,0.7-1.5,1.5c0,0.9,0.7,1.5,1.5,1.5c0.9,0,1.5-0.7,1.5-1.5C33,52.8,32.3,52.1,31.5,52.1z"/>
<path d="M31.5,11.2c0.9,0,1.5-0.7,1.5-1.5C33,8.8,32.3,8,31.5,8C30.6,8,30,8.7,30,9.5S30.6,11.2,31.5,11.2z"/>
<path d="M50.4,22.1c0.9,0,1.5-0.7,1.5-1.5c0-0.8-0.7-1.5-1.5-1.5c-0.8,0-1.5,0.7-1.5,1.5C48.9,21.4,49.5,22.1,50.4,22.1z"/>
<path d="M12.6,22.1c0.9,0,1.5-0.7,1.5-1.5c0-0.8-0.6-1.6-1.5-1.6c-0.9,0-1.5,0.7-1.5,1.5C11.1,21.3,11.7,22.1,12.6,22.1z"/>
<path d="M50.4,44.2c0.8,0,1.5-0.7,1.5-1.5c0-0.8-0.7-1.5-1.5-1.5c-0.8,0-1.5,0.7-1.5,1.5C48.9,43.5,49.6,44.2,50.4,44.2z"/>
<path d="M31.5,30.1c-0.9,0-1.5,0.7-1.5,1.5c0,0.8,0.7,1.5,1.5,1.5c0.9,0,1.5-0.7,1.5-1.5C33,30.8,32.3,30.1,31.5,30.1z"/>
<path d="M61.9,30.6H42h-0.1c-0.1-1.1-0.4-2.2-0.8-3.2l6.2-3.6l0.9-0.5l-1.1-1.8l-0.9,0.5l-6.1,3.6c-0.7-1-1.6-1.9-2.7-2.6l0.2-0.3
	L47.6,5.5l0.5-0.9l-1.8-1.1l-0.5,0.9L35.7,21.6l-0.2,0.3c-1-0.4-2-0.6-3.1-0.8v-6.9v-1h-2.1v1v6.9c-1.1,0.1-2.2,0.4-3.1,0.8
	l-0.3-0.3l-10-17.2l-0.5-0.9l-1.8,1.1l0.5,0.9l10,17.2l0.2,0.3c-1,0.7-1.9,1.6-2.6,2.6L16.7,22l-0.9-0.5l-1.1,1.8l0.9,0.5l6.2,3.6
	c-0.5,1-0.7,2.1-0.8,3.2H21H1.1H0v2.1h1.1H21h0.1c0.1,1.1,0.4,2.2,0.8,3.2l-6.2,3.6l-0.9,0.5l1.1,1.8l0.9-0.5l6.1-3.6
	c0.6,0.9,1.4,1.6,2.2,2.3l-0.3,0.4l-9.9,17.4l-0.5,0.9l1.8,1.1l0.5-0.9l10-17.2l0.2-0.4c1.1,0.5,2.3,0.9,3.6,1v6.8V50h2.1v-1.1V42
	c1.4-0.1,2.5-0.5,3.7-1.1l0.2,0.3l10.1,17.3l0.5,0.9l1.8-1.1l-0.5-0.9l-10-17.2l-0.2-0.4c0.8-0.6,1.5-1.4,2.1-2.2l6.1,3.6l0.9,0.5
	l1.1-1.8l-0.9-0.5l-6.2-3.6c0.5-1,0.7-2.1,0.8-3.2H42h19.9H63v-2.2H61.9z M31.5,39.9c-4.6,0-8.3-3.7-8.3-8.3c0-4.6,3.7-8.3,8.3-8.3
	c4.6,0,8.3,3.7,8.3,8.3C39.8,36.2,36,39.9,31.5,39.9z"/>
</svg>
