<?xml version="1.0" encoding="utf-8"?>
<!-- Generator: Adobe Illustrator 28.0.0, SVG Export Plug-In . SVG Version: 6.00 Build 0)  -->
<svg version="1.1" id="Layer_1" xmlns="http://www.w3.org/2000/svg" xmlns:xlink="http://www.w3.org/1999/xlink" x="0px" y="0px"
	 viewBox="0 0 462.7 462.7" style="enable-background:new 0 0 462.7 462.7;" xml:space="preserve">
<style type="text/css">
	.st0{fill:#D9D9D9;filter:url(#Adobe_OpacityMaskFilter);}
	.st1{mask:url(#b_00000133514248543651782810000006859529478616909722_);}
	.st2{fill-rule:evenodd;clip-rule:evenodd;fill:#D43848;}
	.st3{opacity:0.25;fill:#D43848;}
	.st4{opacity:0.75;fill:#D43848;}
</style>
<defs>
	<filter id="Adobe_OpacityMaskFilter" filterUnits="userSpaceOnUse">
		<feColorMatrix  type="matrix" values="1 0 0 0 0  0 1 0 0 0  0 0 1 0 0  0 0 0 1 0"/>
	</filter>
</defs>
<mask maskUnits="userSpaceOnUse" id="b_00000133514248543651782810000006859529478616909722_">
	<path class="st0" d="M-152.5,238.5L26,111.6v253.7L-152.5,238.5z"/>
</mask>
<g class="st1">
</g>
<g>
	<path class="st2" d="M80.6,195.5c-0.9,0.2-1.6,0.8-2.2,1.5l-51.5,63.1c-0.7,0.8-1,1.8-1,2.9c0,0.4,0.1,0.9,0.2,1.3
		c0.5,1.4,1.6,2.5,3,2.9L99.2,287l8.7-10.2c3.2-3.7,6.7-7.2,10.4-10.5l9.7-8.5l-6.9,11c-2.6,4.2-5.5,8.1-8.7,11.9l-9.4,10.9
		c0.1,14.2,3.8,26.8,11.2,37.3l-25,25.6c-2.7,2.9-0.7,4.9,2.2,7.7l20,19.6c2.8,2.9,4.6,4.6,7.4,1.8l27.1-27.6c6.2,2.2,21,6,43.3,2.5
		l13.5-10.4c3.8-2.9,7.9-5.6,12.1-8l11.6-6.5l-9.3,9.6c-3.4,3.5-7,6.7-10.8,9.6l-11.2,8.6l25.7,68.6c0.5,1.4,1.7,2.5,3.2,2.8
		c1.5,0.3,3-0.1,4.1-1.1l58.5-56.7c0.7-0.7,1.1-1.5,1.3-2.5l12.6-74.1c16-14.1,32.1-30.4,48-48.6C440,145,453.1,63.7,452.8,24.5
		c-0.1-12.7-1.7-19.7-1.8-20.3l0,0c-0.4-1.8-1.8-3.1-3.6-3.4C442.8,0.1,333.1-15.8,191.8,128l0,0c-0.7,0.7-18.8,19.8-38.2,46.4
		L80.6,195.5z M256.3,138.4c23-23.4,55.9-28.2,73.6-10.8c17.7,17.4,13.4,50.4-9.6,73.8c-23,23.4-55.9,28.2-73.6,10.8
		C229,194.8,233.3,161.8,256.3,138.4"/>
	<g>
		<path class="st3" d="M62.5,376.2c2-2,2-5.1,0-7.1l-2.8-2.8c-2-2-5.1-2-7.1,0L10,408.9v19.8L62.5,376.2z"/>
		<path class="st3" d="M106.5,413l-2.8-2.8c-2-2-5.1-2-7.1,0L44,462.7h19.8l42.7-42.7C108.5,418.1,108.5,414.9,106.5,413z"/>
		<path class="st4" d="M81.8,369.5L10,441.4v21.4h21l72.1-72.1c2-2,2-5.1,0-7.1l-14.1-14.1C87,367.5,83.8,367.5,81.8,369.5z"/>
	</g>
</g>
</svg>
