<?xml version="1.0" encoding="utf-8"?>
<!-- Generator: Adobe Illustrator 28.0.0, SVG Export Plug-In . SVG Version: 6.00 Build 0)  -->
<svg version="1.1" id="Layer_1" xmlns="http://www.w3.org/2000/svg" xmlns:xlink="http://www.w3.org/1999/xlink" x="0px" y="0px"
	 viewBox="0 0 27.1 27.1" style="enable-background:new 0 0 27.1 27.1;" xml:space="preserve">
<style type="text/css">
	.st0{fill-rule:evenodd;clip-rule:evenodd;}
</style>
<path class="st0" d="M2.7,18.6c-0.3-0.4-0.3-1,0-1.4L12.8,0.6c0.6-0.9,1.9-0.8,2.4,0.1l9.3,20.1c0.3,0.7-0.1,1.6-0.8,1.9L9.2,27
	C8.6,27.2,8,27,7.7,26.5L2.7,18.6z M14,5.5c0.1-0.5,0.8-0.6,1-0.1l6.4,14.8c0.1,0.3,0,0.6-0.3,0.7l-9.9,3c-0.4,0.1-0.7-0.2-0.6-0.6
	L14,5.5z"/>
</svg>
