<?xml version="1.0" encoding="utf-8"?>
<!-- Generator: Adobe Illustrator 28.0.0, SVG Export Plug-In . SVG Version: 6.00 Build 0)  -->
<svg version="1.1" id="Layer_1" xmlns="http://www.w3.org/2000/svg" xmlns:xlink="http://www.w3.org/1999/xlink" x="0px" y="0px"
	 viewBox="0 0 37.2 37.2" style="enable-background:new 0 0 37.2 37.2;" xml:space="preserve">
<style type="text/css">
	.st0{fill:#FFEF00;}
</style>
<path d="M18.6,37.2C8.3,37.2,0,28.9,0,18.6S8.3,0,18.6,0s18.6,8.3,18.6,18.6S28.9,37.2,18.6,37.2z"/>
<path class="st0" d="M28.5,15.8h-3.6v5.5h3.6c1.5,0,2.8-1.2,2.8-2.8C31.3,17,30,15.8,28.5,15.8z M7,18.6c0,4.2,3.5,7.7,7.7,7.7
	c4.2,0,7.7-3.5,7.7-7.7c0-4.2-3.5-7.7-7.7-7.7C10.5,10.9,7,14.3,7,18.6z"/>
</svg>
