<?xml version="1.0" encoding="utf-8"?>
<svg version="1.1" id="Layer_1" xmlns="http://www.w3.org/2000/svg" xmlns:xlink="http://www.w3.org/1999/xlink" x="0px" y="0px" viewBox="0 0 104.5 104.5" style="enable-background:new 0 0 104.5 104.5;" xml:space="preserve">
<style type="text/css">
	.st0{fill:#FFFFFF;}
	.st1{fill-rule:evenodd;clip-rule:evenodd;fill:#FFFFFF;stroke:#FFFFFF;stroke-width:3;stroke-linecap:round;stroke-linejoin:round;}
</style>
<path class="st0" d="M52.2,5C26.2,5,5,26.2,5,52.2s21.2,47.3,47.3,47.3s47.3-21.2,47.3-47.3S78.3,5,52.2,5z M52.2,9.2
	c1.7,0,3,1.4,3,3.1s-1.4,3.1-3.1,3.1S49,14,49,12.3S50.4,9.2,52.2,9.2C52.1,9.2,52.1,9.2,52.2,9.2z M59.3,14.3
	c11.1,2.1,20.6,8.9,26.2,18.7l-3.7,8.3c-0.6,1.4,0,3.1,1.4,3.8l7.1,3.1c0.2,2.2,0.2,4.4,0.1,6.6h-3.9c-0.4,0-0.6,0.3-0.6,0.6v1.8
	c0,4.2-2.4,5.2-4.5,5.4c-2,0.2-4.2-0.8-4.5-2.1c-1.2-6.6-3.1-8-6.2-10.5c3.8-2.4,7.8-6,7.8-10.9c0-5.2-3.6-8.5-6-10.1
	c-3.4-2.2-7.2-2.7-8.2-2.7H23.7c5.6-6.3,13.1-10.5,21.4-12.1l4.8,5c1.1,1.1,2.9,1.2,4,0.1L59.3,14.3z M15.1,37.3c1.7,0,3,1.4,3,3.1
	c0,1.7-1.4,3.1-3.1,3.1s-3.1-1.4-3.1-3.1S13.3,37.3,15.1,37.3C15,37.3,15.1,37.3,15.1,37.3z M89.2,37.5c1.7,0,3,1.4,3,3.1
	c0,1.7-1.4,3.1-3.1,3.1S86,42.3,86,40.6C86,38.9,87.4,37.5,89.2,37.5L89.2,37.5z M21,38h5.4v24.4h-11c-1.4-4.7-1.8-9.7-1.2-14.6
	l6.7-3c1.4-0.6,2.1-2.3,1.4-3.7L21,38z M43.6,38.2h12.9c0.7,0,4.7,0.8,4.7,3.8c0,2.5-3.1,3.4-5.7,3.4h-12L43.6,38.2z M43.6,55.8h9.9
	c0.9,0,4.8,0.3,6.1,5.3c0.4,1.5,1.3,6.6,1.8,8.2c0.6,1.8,3,5.4,5.5,5.4H83c-1.1,1.4-2.3,2.8-3.5,4.1L73,77.3c-1.5-0.3-3,0.7-3.4,2.2
	L68,86.8c-10.2,4.6-21.8,4.5-31.9-0.2l-1.6-7.3c-0.3-1.5-1.8-2.5-3.4-2.2l-6.4,1.4c-1.2-1.2-2.3-2.5-3.3-3.9h31.3
	c0.3,0,0.6-0.1,0.6-0.4v-11c0-0.3-0.2-0.4-0.6-0.4h-9.2L43.6,55.8z M29.1,81.1c1.7,0,3,1.4,3,3.1s-1.4,3.1-3.1,3.1s-3.1-1.4-3.1-3.1
	C25.9,82.5,27.3,81.1,29.1,81.1L29.1,81.1z M75.2,81.2c1.7,0,3,1.4,3,3.1s-1.4,3.1-3.1,3.1s-3.1-1.3-3.1-3
	C72,82.6,73.4,81.2,75.2,81.2C75.1,81.2,75.2,81.2,75.2,81.2z"/>
<path class="st1" d="M96.9,52.2c0,24.6-20,44.6-44.6,44.6S7.6,76.9,7.6,52.2l0,0c0-24.6,20-44.6,44.6-44.6S96.9,27.6,96.9,52.2
	L96.9,52.2z M96,47.9l7,4.3l-7,4.3l6,5.6L94.4,65l4.8,6.7L91,73l3.4,7.5l-8.2-0.3l1.9,8l-8-1.9l0.3,8.2L73,91l-1.3,8.1L65,94.4
	l-2.9,7.7l-5.6-6l-4.3,7l-4.3-7l-5.6,6l-2.9-7.7l-6.7,4.8L31.5,91L24,94.4l0.3-8.2l-8,1.9l1.9-8L10,80.4l3.4-7.5l-8.1-1.3l4.8-6.7
	L2.4,62l6-5.6l-7-4.3l7-4.3l-6-5.6l7.7-2.9l-4.8-6.7l8.1-1.3L10,24l8.2,0.3l-1.9-8l8,1.9L24,10l7.5,3.4l1.3-8.1l6.7,4.8l2.9-7.7
	l5.6,6l4.3-7l4.3,7l5.6-6l2.9,7.7l6.7-4.8l1.3,8.1l7.5-3.4l-0.3,8.2l8-1.9l-1.9,8l8.2-0.3L91,31.5l8.1,1.3l-4.8,6.7l7.7,2.9L96,47.9
	z"/>
</svg>
