<?xml version="1.0" encoding="UTF-8"?>
<svg  xmlns="http://www.w3.org/2000/svg" xmlns:xlink="http://www.w3.org/1999/xlink" viewBox="0 0 427.23 51">
  <defs>
    <radialGradient id="radial-gradient" cx="43.34" cy="780.82" fx="35.19" fy="780.82" r="59.83" gradientTransform="translate(438.22 -315.49) rotate(52) scale(.42 .69)" gradientUnits="userSpaceOnUse">
      <stop offset=".04" stop-color="#0059e9"/>
      <stop offset="1" stop-color="#00a2f6"/>
    </radialGradient>
    <linearGradient id="linear-gradient" x1="33.11" y1="752.07" x2="32.51" y2="717.29" gradientTransform="translate(0 -717.2)" gradientUnits="userSpaceOnUse">
      <stop offset=".16" stop-color="#0094f1"/>
      <stop offset=".45" stop-color="#0094ff"/>
      <stop offset=".69" stop-color="#00d9fd"/>
      <stop offset="1" stop-color="#00e8ce"/>
    </linearGradient>
  </defs>
  <g>
    <g>
      <path fill="url(#radial-gradient)" fill-rule="evenodd" stroke-width="0"  d="M45.3,35.97h-12.49c-.16,0-.33.11-.41.25-.54,1.01-1.63,1.72-2.86,1.72h-13.17c-1.8,0-3.27-1.47-3.27-3.27v-18.3c0-1.8-1.47-3.27-3.27-3.27H3.27c-1.8,0-3.27,1.47-3.27,3.27v18.3c0,9.03,7.31,16.34,16.34,16.34h13.17c8.4,0,15.33-6.36,16.25-14.51.06-.27-.16-.52-.46-.52h0Z"/>
      <path fill="url(#linear-gradient)" fill-rule="evenodd" stroke-width="0" d="M44.73,1.96c.38,0,.57-.44.35-.71-.6-.77-1.53-1.23-2.56-1.23h-6.55c-1.04,0-1.96.49-2.56,1.23-.22.3-.03.71.35.71h10.97ZM44.87,32.7h-11.24c-.52,0-.93.41-.93.93v.11c0,.52.41.93.93.93h11.24c.52,0,.93-.41.93-.93v-.11c0-.52-.41-.93-.93-.93ZM44.73,9.82c.38,0,.57.44.35.71-.6.77-1.53,1.23-2.56,1.23h-10.66c-.25,0-.44-.19-.44-.44h0c0-.14.06-.25.16-.33.3-.27.57-.57.77-.96.08-.14.22-.25.38-.25l12,.03h0ZM33.88,13.86c-.3.27-.57.57-.77.96-.08.14-.22.25-.38.25h-12.03c-.38,0-.57-.44-.35-.71.6-.77,1.53-1.23,2.56-1.23h10.66c.25,0,.44.19.44.44h0c.03.08-.03.22-.14.3h0ZM34.04,24.41c0,.25-.19.44-.44.44h-10.66c-1.04,0-1.96-.49-2.56-1.23-.22-.3-.03-.71.35-.71h12.03c.16,0,.3.08.38.25.19.35.46.68.77.96.08.06.14.16.14.3h0ZM44.73,28.12h-12.03c-.16,0-.3-.08-.38-.25-.19-.35-.46-.68-.77-.96-.11-.08-.16-.22-.16-.33h0c0-.25.19-.44.44-.44h10.66c1.04,0,1.96.49,2.56,1.23.27.3.06.74-.33.74h0ZM44.87,29.43h-11.24c-.52,0-.93.41-.93.93v.11c0,.52.41.93.93.93h11.24c.52,0,.93-.41.93-.93v-.11c0-.52-.41-.93-.93-.93ZM31.81,19.61h-11.24c-.52,0-.93.41-.93.93v.11c0,.52.41.93.93.93h11.24c.52,0,.93-.41.93-.93v-.11c0-.52-.44-.93-.93-.93ZM31.81,16.34h-11.24c-.52,0-.93.41-.93.93v.11c0,.52.41.93.93.93h11.24c.52,0,.93-.41.93-.93v-.11c0-.49-.44-.93-.93-.93ZM44.87,6.55h-11.24c-.52,0-.93.41-.93.93v.11c0,.52.41.93.93.93h11.24c.52,0,.93-.41.93-.93v-.11c0-.52-.41-.93-.93-.93ZM44.87,3.28h-11.24c-.52,0-.93.41-.93.93v.11c0,.52.41.93.93.93h11.24c.52,0,.93-.41.93-.93v-.11c0-.52-.41-.93-.93-.93Z"/>
    </g>
    <g opacity="0.2">
      <path stroke-width="0" fill="#fff" d="M9.85,13.64c1.5,0,2.73,1.23,2.73,2.73v18.3c0,2.1,1.72,3.82,3.82,3.82h13.17c1.39,0,2.67-.77,3.33-1.96h12.35c-.93,7.96-7.66,13.94-15.68,13.94h-13.2c-8.7,0-15.79-7.09-15.79-15.79v-18.3c0-1.5,1.23-2.73,2.73-2.73h6.55M9.85,13.09H3.31C1.51,13.09.03,14.57.03,16.37v18.3c0,9.03,7.31,16.34,16.34,16.34h13.17c8.4,0,15.33-6.36,16.25-14.51.03-.27-.19-.52-.46-.52h-12.49c-.16,0-.33.11-.41.25-.54,1.01-1.63,1.72-2.86,1.72h-13.2c-1.8,0-3.27-1.47-3.27-3.27v-18.3c0-1.83-1.44-3.27-3.25-3.27h0Z"/>
      <path stroke-width="0" fill="#fff" d="M42.52.54c.77,0,1.47.33,1.99.87h-10.53c.52-.54,1.23-.87,1.99-.87h6.55M33.65,3.27v.54h11.24c.22,0,.38.16.38.38v.11c0,.22-.16.38-.38.38h-11.24c-.22,0-.38-.16-.38-.38v-.11c0-.22.16-.38.38-.38v-.54M44.86,7.09c.22,0,.38.16.38.38v.11c0,.22-.16.38-.38.38h-11.24c-.22,0-.38-.16-.38-.38v-.11c0-.22.16-.38.38-.38h11.24M44.51,10.36c-.52.54-1.23.87-1.99.87h-10.42c.27-.25.49-.54.65-.87h11.76M22.9,13.06v.54h10.42c-.27.25-.49.54-.65.87h-11.73c.52-.54,1.23-.87,1.99-.87v-.54M31.8,16.88c.22,0,.38.16.38.38v.11c0,.22-.16.38-.38.38h-11.24c-.22,0-.38-.16-.38-.38v-.11c0-.22.16-.38.38-.38h11.24M20.56,19.61v.54h11.24c.22,0,.38.16.38.38v.11c0,.22-.16.38-.38.38h-11.24c-.22,0-.38-.16-.38-.38v-.11c0-.22.16-.38.38-.38v-.54M20.92,23.43h11.73c.19.33.41.6.65.87h-10.42c-.74,0-1.44-.33-1.96-.87M32.12,26.7h10.42c.77,0,1.47.33,1.99.87h-11.73c-.22-.33-.44-.63-.68-.87M44.86,29.97c.22,0,.38.16.38.38v.11c0,.22-.16.38-.38.38h-11.24c-.22,0-.38-.16-.38-.38v-.11c0-.22.16-.38.38-.38h11.24M33.65,32.7v.54h11.24c.22,0,.38.16.38.38v.11c0,.22-.16.38-.38.38h-11.24c-.22,0-.38-.16-.38-.38v-.11c0-.22.16-.38.38-.38v-.54M42.51,0h-6.55c-1.04,0-1.96.49-2.56,1.23-.22.3-.03.71.35.71h10.97c.38,0,.57-.44.35-.71-.6-.74-1.53-1.23-2.56-1.23h0ZM33.65,3.27c-.52,0-.93.41-.93.93v.11c0,.52.41.93.93.93h11.24c.52,0,.93-.41.93-.93v-.11c0-.52-.41-.93-.93-.93h-11.24ZM44.86,6.55h-11.24c-.52,0-.93.41-.93.93v.11c0,.52.41.93.93.93h11.24c.52,0,.93-.41.93-.93v-.11c0-.52-.41-.93-.93-.93h0ZM44.72,9.82h-12c-.16,0-.3.08-.38.25-.19.35-.46.68-.77.96-.11.08-.16.22-.16.33h0c0,.25.19.44.44.44h10.66c1.04,0,1.96-.49,2.56-1.23.25-.33.03-.74-.35-.74h0ZM22.9,13.07c-1.04,0-1.96.49-2.56,1.23-.22.3-.03.71.35.71h12.03c.16,0,.3-.08.38-.25.19-.35.46-.68.77-.96.11-.08.16-.22.16-.33,0-.25-.19-.44-.44-.44l-10.69.03h0ZM31.79,16.34h-11.24c-.52,0-.93.41-.93.93v.11c0,.52.41.93.93.93h11.24c.52,0,.93-.41.93-.93v-.11c0-.49-.44-.93-.93-.93h0ZM20.55,19.61c-.52,0-.93.41-.93.93v.11c0,.52.41.93.93.93h11.24c.52,0,.93-.41.93-.93v-.11c0-.52-.41-.93-.93-.93h-11.24ZM20.69,22.89c-.38,0-.57.44-.35.71.6.77,1.53,1.23,2.56,1.23h10.66c.25,0,.44-.19.44-.44h0c0-.14-.06-.25-.16-.33-.3-.27-.57-.57-.77-.96-.08-.14-.22-.25-.38-.25l-12,.03h0ZM31.85,26.16c-.25,0-.44.19-.44.44h0c0,.14.06.25.16.33.3.27.57.57.77.96.08.14.22.25.38.25h12c.38,0,.57-.44.35-.71-.6-.77-1.53-1.23-2.56-1.23l-10.66-.03h0ZM44.86,29.43h-11.24c-.52,0-.93.41-.93.93v.11c0,.52.41.93.93.93h11.24c.52,0,.93-.41.93-.93v-.11c0-.52-.41-.93-.93-.93h0ZM33.65,32.7c-.52,0-.93.41-.93.93v.11c0,.52.41.93.93.93h11.24c.52,0,.93-.41.93-.93v-.11c0-.52-.41-.93-.93-.93h-11.24Z"/>
    </g>
  </g>
  <g>
    <path stroke-width="0" fill="#fff" d="M88.65,6.87h6.98v25.18c0,2.76-.65,5.19-1.95,7.28-1.3,2.1-3.12,3.73-5.47,4.9-2.35,1.17-5.09,1.76-8.23,1.76s-5.9-.59-8.24-1.76c-2.35-1.17-4.17-2.81-5.46-4.9-1.29-2.1-1.94-4.52-1.94-7.28V6.87h6.98v24.6c0,1.61.35,3.04,1.06,4.29.71,1.25,1.71,2.24,3,2.95s2.82,1.06,4.59,1.06,3.3-.35,4.6-1.06c1.3-.71,2.3-1.69,3-2.95.7-1.25,1.05-2.69,1.05-4.29V6.87Z"/>
    <path stroke-width="0" fill="#fff" d="M109.75,28.47v16.94h-6.81v-28.91h6.51v4.91h.34c.67-1.62,1.73-2.9,3.19-3.86,1.46-.95,3.27-1.43,5.43-1.43,2,0,3.74.43,5.22,1.28,1.49.85,2.64,2.09,3.46,3.71.82,1.62,1.23,3.58,1.21,5.89v18.41h-6.81v-17.35c0-1.93-.5-3.44-1.5-4.54-1-1.09-2.37-1.64-4.13-1.64-1.19,0-2.25.26-3.17.78-.92.52-1.64,1.27-2.16,2.25-.52.98-.78,2.16-.78,3.56Z"/>
    <path stroke-width="0" fill="#fff" d="M138.68,12.4c-1.08,0-2.01-.36-2.79-1.08-.78-.72-1.17-1.59-1.17-2.61s.39-1.9,1.17-2.63c.78-.72,1.71-1.08,2.79-1.08s2.02.36,2.79,1.08c.77.72,1.16,1.6,1.16,2.63s-.39,1.89-1.16,2.61c-.77.72-1.7,1.08-2.79,1.08ZM135.25,45.41v-28.91h6.81v28.91h-6.81Z"/>
    <path stroke-width="0" fill="#fff" d="M149.06,45.41V6.87h6.81v38.55h-6.81ZM155.28,36.34l-.02-8.22h1.09l10.39-11.61h7.96l-12.78,14.23h-1.41l-5.23,5.61ZM167.21,45.41l-9.41-13.16,4.59-4.8,12.97,17.96h-8.15Z"/>
    <path stroke-width="0" fill="#fff" d="M179.21,45.41v-28.91h6.61v4.82h.3c.53-1.67,1.43-2.96,2.72-3.87s2.76-1.36,4.41-1.36c.38,0,.8.02,1.27.05.47.03.86.08,1.18.14v6.27c-.29-.1-.74-.19-1.36-.27-.62-.08-1.22-.12-1.8-.12-1.24,0-2.36.27-3.34.8-.99.53-1.76,1.27-2.32,2.21-.56.94-.85,2.03-.85,3.26v17h-6.81Z"/>
    <path stroke-width="0" fill="#fff" d="M208.01,46c-1.83,0-3.48-.33-4.94-.99s-2.62-1.63-3.46-2.93c-.85-1.29-1.27-2.89-1.27-4.78,0-1.63.3-2.98.9-4.05s1.42-1.92,2.47-2.56c1.04-.64,2.22-1.13,3.53-1.46,1.31-.33,2.67-.57,4.08-.72,1.69-.18,3.07-.34,4.12-.48,1.05-.14,1.82-.37,2.3-.68.48-.31.72-.79.72-1.44v-.11c0-1.42-.42-2.52-1.26-3.29-.84-.78-2.05-1.17-3.63-1.17-1.67,0-2.99.36-3.96,1.09-.97.73-1.63,1.59-1.97,2.58l-6.36-.9c.5-1.76,1.33-3.23,2.48-4.41,1.15-1.19,2.57-2.08,4.24-2.67,1.67-.6,3.51-.89,5.53-.89,1.39,0,2.78.16,4.16.49,1.38.33,2.64.86,3.78,1.61,1.14.75,2.06,1.76,2.76,3.04.7,1.28,1.04,2.88,1.04,4.8v19.35h-6.55v-3.97h-.23c-.41.8-.99,1.55-1.74,2.25-.75.7-1.68,1.25-2.8,1.68-1.12.42-2.44.63-3.94.63ZM209.78,40.99c1.37,0,2.55-.27,3.56-.82s1.78-1.27,2.32-2.17.82-1.89.82-2.96v-3.41c-.21.18-.57.34-1.08.49-.51.15-1.08.28-1.7.4-.63.11-1.25.21-1.86.3-.61.09-1.15.16-1.6.23-1.02.14-1.93.36-2.73.68-.8.31-1.44.75-1.9,1.31-.46.56-.7,1.28-.7,2.16,0,1.25.46,2.2,1.37,2.84s2.08.96,3.5.96Z"/>
    <path stroke-width="0" fill="#fff" d="M244.79,16.5v5.27h-17.09v-5.27h17.09ZM231.97,45.41V13.77c0-1.94.41-3.56,1.21-4.86.81-1.29,1.9-2.26,3.27-2.9,1.37-.64,2.89-.96,4.55-.96,1.18,0,2.23.09,3.14.28.92.19,1.59.36,2.03.51l-1.36,5.27c-.29-.09-.65-.18-1.09-.27-.44-.09-.93-.14-1.47-.14-1.27,0-2.16.3-2.68.91s-.78,1.48-.78,2.61v31.19h-6.83Z"/>
    <path stroke-width="0" fill="#fff" d="M264.57,16.5v5.27h-16.62v-5.27h16.62ZM252.05,9.58h6.81v27.14c0,.92.14,1.62.42,2.1s.66.81,1.12.99c.46.18.98.26,1.54.26.43,0,.82-.03,1.18-.09.36-.06.63-.12.82-.17l1.15,5.33c-.36.13-.88.26-1.55.41-.67.15-1.49.24-2.46.26-1.71.05-3.24-.21-4.61-.78-1.37-.57-2.45-1.46-3.25-2.66s-1.19-2.71-1.18-4.52V9.58Z"/>
    <path stroke-width="0" fill="#fff" d="M316.72,19.87h-7.04c-.2-1.15-.57-2.18-1.11-3.08s-1.21-1.66-2.01-2.29c-.8-.63-1.72-1.1-2.74-1.42-1.02-.32-2.12-.48-3.3-.48-2.1,0-3.95.52-5.57,1.57-1.62,1.05-2.89,2.58-3.8,4.59-.92,2.01-1.37,4.47-1.37,7.37s.46,5.43,1.38,7.44c.92,2.01,2.19,3.53,3.8,4.55,1.61,1.02,3.46,1.53,5.54,1.53,1.15,0,2.24-.15,3.25-.46,1.01-.31,1.92-.76,2.73-1.36.81-.6,1.49-1.34,2.05-2.22.56-.88.94-1.88,1.16-3.01l7.04.04c-.26,1.83-.83,3.55-1.7,5.16s-2.01,3.02-3.42,4.24c-1.41,1.22-3.05,2.18-4.93,2.86-1.88.68-3.97,1.03-6.27,1.03-3.39,0-6.41-.78-9.07-2.35-2.66-1.57-4.75-3.83-6.29-6.79-1.53-2.96-2.3-6.51-2.3-10.65s.77-7.71,2.31-10.66c1.54-2.95,3.65-5.22,6.31-6.78s5.67-2.35,9.03-2.35c2.15,0,4.14.3,5.98.9,1.84.6,3.49,1.48,4.93,2.64,1.44,1.16,2.63,2.58,3.57,4.25.93,1.67,1.55,3.59,1.83,5.73Z"/>
    <path stroke-width="0" fill="#fff" d="M329.65,6.87v38.55h-6.81V6.87h6.81Z"/>
    <path stroke-width="0" fill="#fff" d="M349.26,45.98c-2.82,0-5.27-.62-7.34-1.86s-3.67-2.98-4.81-5.21c-1.14-2.23-1.7-4.84-1.7-7.83s.57-5.6,1.7-7.85,2.74-3.99,4.81-5.23,4.52-1.86,7.34-1.86,5.27.62,7.34,1.86,3.67,2.99,4.81,5.23,1.7,4.86,1.7,7.85-.57,5.6-1.7,7.83c-1.14,2.23-2.74,3.97-4.81,5.21s-4.52,1.86-7.34,1.86ZM349.3,40.52c1.53,0,2.81-.42,3.84-1.27,1.03-.85,1.8-1.99,2.31-3.42.51-1.43.76-3.02.76-4.78s-.25-3.37-.76-4.81c-.51-1.44-1.28-2.58-2.31-3.43-1.03-.85-2.31-1.28-3.84-1.28s-2.87.43-3.91,1.28c-1.04.85-1.81,2-2.32,3.43-.51,1.44-.76,3.04-.76,4.81s.25,3.35.76,4.78c.51,1.43,1.28,2.57,2.32,3.42,1.04.85,2.34,1.27,3.91,1.27Z"/>
    <path stroke-width="0" fill="#fff" d="M387.3,33.25v-16.75h6.81v28.91h-6.61v-5.14h-.3c-.65,1.62-1.72,2.94-3.21,3.97-1.49,1.03-3.32,1.54-5.49,1.54-1.89,0-3.57-.42-5.02-1.27-1.45-.85-2.58-2.08-3.4-3.71-.82-1.62-1.22-3.59-1.22-5.9v-18.41h6.81v17.35c0,1.83.5,3.29,1.51,4.37s2.32,1.62,3.95,1.62c1,0,1.98-.25,2.92-.73.94-.49,1.72-1.22,2.32-2.19s.91-2.19.91-3.66Z"/>
    <path stroke-width="0" fill="#fff" d="M411.84,45.92c-2.27,0-4.3-.58-6.1-1.75-1.79-1.17-3.21-2.86-4.25-5.08-1.04-2.22-1.56-4.92-1.56-8.09s.53-5.93,1.59-8.14c1.06-2.21,2.49-3.89,4.3-5.02s3.82-1.7,6.04-1.7c1.69,0,3.09.29,4.18.86,1.09.57,1.96,1.25,2.6,2.05.64.8,1.13,1.55,1.49,2.25h.28V6.87h6.83v38.55h-6.7v-4.55h-.41c-.35.7-.86,1.45-1.52,2.23s-1.54,1.45-2.63,2c-1.09.55-2.47.83-4.12.83ZM413.74,40.33c1.44,0,2.67-.39,3.69-1.18s1.79-1.88,2.32-3.28c.53-1.4.79-3.04.79-4.91s-.26-3.49-.78-4.87-1.29-2.45-2.3-3.22c-1.01-.77-2.25-1.15-3.72-1.15s-2.79.4-3.8,1.19c-1.02.79-1.78,1.88-2.3,3.27-.51,1.39-.77,2.99-.77,4.78s.26,3.42.78,4.83,1.29,2.52,2.32,3.33c1.02.81,2.28,1.21,3.77,1.21Z"/>
  </g>
</svg>
