<?xml version="1.0" encoding="utf-8"?>
<svg version="1.1" id="Layer_1" xmlns="http://www.w3.org/2000/svg" xmlns:xlink="http://www.w3.org/1999/xlink" x="0px" y="0px"
	 viewBox="0 0 299.7 40.9" style="enable-background:new 0 0 299.7 40.9;" xml:space="preserve">
<path fill="#FFFFFF" d="M92.5,29.9v10.4h-4.3V0.6h4.3V25l11.8-12.2h5.3L98.4,24.2l11.6,16h-5.1L95.3,27L92.5,29.9z"/>
<path fill="#FFFFFF" d="M111.5,40.2V12.8h4.2l0.1,5.3c1.7-3.8,4.7-5.9,8.5-5.9c0.4,0,0.9,0,1.4,0.1v4.3c-0.6-0.1-1-0.1-1.6-0.1
	c-5,0-8.3,3-8.3,9v14.7H111.5z"/>
<path fill="#FFFFFF" d="M125.3,33.1c0-4,2.4-7,6.7-7.6l11.6-1.7v-2.4c0-4-2.8-5.7-6.3-5.7c-3.8,0-6.4,1.9-6.7,5.2h-4.2
	c0.5-5.5,4.6-8.7,11-8.7c6.7,0,10.5,3.8,10.5,9.5v18.6h-4l-0.2-4.3c-1.8,3.2-5.3,4.9-9.1,4.9C128.8,40.9,125.3,37.7,125.3,33.1z
		M143.6,30.1v-2.8l-10.2,1.5c-2.6,0.4-3.8,1.9-3.8,4.2c0,2.6,1.8,4.3,5.3,4.3C139.6,37.3,143.6,34.2,143.6,30.1z"/>
<path fill="#FFFFFF" d="M154.5,40.2v-24H149v-3.4h5.5V7.5c0-5,2.9-7.5,8.3-7.5c1.2,0,2.9,0.3,4,0.5v3.6c-0.9-0.2-2.4-0.5-3.5-0.5
	c-3.6,0-4.6,1.5-4.6,4.5v4.7h7.9v3.4h-7.9v24H154.5z"/>
<path fill="#FFFFFF" d="M172.2,33.3V16.2h-5.5v-3.4h5.5V4.3h4.3v8.5h7.9v3.4h-7.9v16.5c0,3,1,4.5,4.6,4.5c1.1,0,2.6-0.3,3.5-0.5v3.6
	c-1.1,0.3-2.8,0.5-4,0.5C175,40.9,172.2,38.4,172.2,33.3z"/>
<path fill="#FFFFFF" d="M185.5,27v-1c0-8.2,4.6-13.9,12.8-13.9c6.6,0,10.9,3.9,11.7,9.8h-4.3c-0.7-3.8-3.2-6.2-7.5-6.2
	c-5.4,0-8.3,3.7-8.3,10.2v1c0,6.5,2.9,10.2,8.3,10.2c4.3,0,6.8-2.5,7.6-6.3h4.3c-1,6.1-5.3,10-11.9,10
	C190.1,40.9,185.5,35.1,185.5,27z"/>
<path fill="#FFFFFF" d="M217,0.6v39.6h-4.3V0.6H217z"/>
<path fill="#FFFFFF" d="M220.2,27v-1c0-8.4,5-13.9,13-13.9s13.1,5.5,13.1,13.9v1c0,8.4-5.1,13.9-13.1,13.9S220.2,35.4,220.2,27z
		M241.9,27v-1c0-6.4-3-10.2-8.7-10.2c-5.6,0-8.6,3.8-8.6,10.2v1c0,6.4,3,10.2,8.6,10.2S241.9,33.4,241.9,27z"/>
<path fill="#FFFFFF" d="M248.9,30.5V12.8h4.3v16.9c0,4.6,1.8,7.4,6.4,7.4c4.7,0,7.4-3.6,7.4-8.9V12.8h4.3v27.4h-4.2l-0.1-4.3
	c-1.7,2.9-4.7,5-8.7,5C252,40.9,248.9,36.9,248.9,30.5z"/>
<path fill="#FFFFFF" d="M274.4,27v-1c0-8.2,4.5-13.9,11.8-13.9c4.7,0,7.8,2.3,9.3,5V0.6h4.3v39.6h-4l-0.1-4.9
	c-1.4,2.8-4.7,5.6-9.5,5.6C279,40.9,274.4,35.3,274.4,27z M295.7,27v-1c0-6.4-3.2-10.2-8.8-10.2c-5.1,0-8.1,3.9-8.1,10.2v1
	c0,6.3,2.9,10.2,8.1,10.2C292.6,37.2,295.7,33.4,295.7,27z"/>
<rect x="60" y="0.5" fill="#FFFFFF" width="20" height="20"/>
<rect x="40" y="20.5" fill="#FFFFFF" width="20" height="20"/>
<rect x="20" y="0.5" fill="#FFFFFF" width="20" height="20"/>
<rect y="20.5" fill="#FFFFFF" width="20" height="20"/>
</svg>
