<?xml version="1.0" encoding="utf-8"?>
<svg version="1.1" id="Layer_1" xmlns="http://www.w3.org/2000/svg" xmlns:xlink="http://www.w3.org/1999/xlink" x="0px" y="0px"
	 viewBox="0 0 130.4 55.1" style="enable-background:new 0 0 130.4 55.1;"
	 xml:space="preserve">
<style type="text/css">
	.st0{fill:#6C2C91;}
	.st1{fill:#FFD400;}
	.st2{fill:#FFFFFF;}
	.st3{fill:#919396;}
</style>
<g>
	<g>
		<g>
			<rect x="0.1" class="st0" width="130.3" height="40.5"/>
		</g>
		<g>
			<path class="st1" d="M83.7,28.9c1.8,0.7,2.6,1.5,2.6,2.7c0,1.6-1.5,2.9-3.4,2.9s-3.3-1.1-3.3-2.6c0-1.1,0.9-2,2.5-2.6
				c-1.6-0.7-2.4-1.4-2.4-2.5c0-1.4,1.4-2.5,3.1-2.5s3.1,1,3.1,2.3C85.9,27.6,85.2,28.3,83.7,28.9 M82.4,29.5
				c-1.2,0.6-1.9,1.4-1.9,2.4c0,1.3,1,2.2,2.3,2.2s2.3-0.8,2.3-2.1C85.3,31,84.4,30.3,82.4,29.5 M82.8,24.7c-1.2,0-2.2,0.7-2.2,1.7
				c0,0.9,0.5,1.5,2.7,2.3c1-0.5,1.6-1.2,1.6-2.1C85,25.4,84,24.7,82.8,24.7z M93.5,31.5v-0.4l5-6.8H99v6.4h1.3v0.8H99v2.8h-1.1
				v-2.8H93.5 M97.8,25.9l-3.5,4.8h3.5V25.9z M74.7,34.4V34c1.5,0,1.6-0.3,1.6-1l0,0v-7.3c-0.5,0.4-1.4,1-2.1,1.3l-0.1-0.2
				c1-0.6,2.3-1.8,2.7-2.3h0.6v8.3c0,1,0.2,1.2,1.7,1.2v0.4H74.7z M93.3,32.2H93c-0.2,0.9-0.5,1.2-1.3,1.2H88c2-1.7,5-4,5-6.3
				c0-1.6-1.2-2.8-2.8-2.8c-1.7,0-3,1.2-3.1,3h0.2c0.4-1.3,1.3-2.1,2.4-2.1c1.2,0,2.1,0.9,2.1,2.1c0,2.8-4.6,6.2-5,6.6v0.4H93l0,0
				l0,0l0,0l0.1-1l0,0L93.3,32.2z M83.7,12.4c-0.3-1.6-0.8-1.7-1.5-1.7h-4.4v4.8h3.5c0.7,0,1-0.1,1.1-1.2h0.4v3.3h-0.3
				c-0.2-1.4-0.5-1.3-1.3-1.3h-3.3v4.2c0,0.9,0.4,1.1,1.1,1.1h3c1.4,0,1.8-0.3,2.3-2h0.4l-0.3,2.7h-9.9v-0.4c1.6,0,1.7-0.3,1.7-1.5
				v-8.6c0-1.2-0.1-1.4-1.7-1.5V9.9h9.4l0.2,2.5H83.7L83.7,12.4z M92.4,12h8.4l0.2,2.2h-0.3c-0.2-1.4-0.5-1.6-1.2-1.6h-2.2v8.1
				c0,0.9,0.3,1.2,1.3,1.2H99v0.3h-4.7v-0.3h0.4c1,0,1.3-0.3,1.3-1.2v-8.1h-2.2c-0.6,0-0.9,0.2-1.2,1.6h-0.3L92.4,12z M86.5,13.7
				c0-0.9,0.8-1.5,2-1.5s2.4,0.8,2.9,2h0.3l-0.2-1.7c-0.6-0.3-1.9-0.7-3.1-0.7c-1.8,0-3.1,1.2-3.1,2.5c0,2.9,5.7,3.5,5.7,5.8
				c0,1.3-1.3,1.8-2.5,1.8c-1.4,0-2.7-0.8-3-2.5h-0.3l0.4,2.4c0.9,0.3,2.2,0.5,3.2,0.5c2.1,0,3.6-1.3,3.6-2.9
				C92.1,16.6,86.5,16,86.5,13.7z"/>
			<path class="st2" d="M122.1,19.9l-1.6-1.5c-0.9-0.9-1.5-1.3-2.3-1.9c1.6-0.5,2.6-1.7,2.6-3.2c0-2-1.6-3.5-5.3-3.5
				c-1.3,0-1.7,0-2.5,0.1c-0.8,0-2,0.1-2.5,0.1v0.4h0.4c1.2,0,1.5,0.4,1.5,1.6v8.3c0,1.3-0.4,1.6-1.6,1.6h-0.3v0.4h5.6v-0.4h-0.5
				c-1.1,0-1.6-0.3-1.6-1.5v-3.3c0.3,0,0.6,0,1,0c0.5,0,0.8,0,1.3,0c1.5,0.9,2.7,2.2,3.4,2.9c1.8,1.7,2.2,2.4,5.7,2.3v-0.4
				C124,21.7,123.2,21.1,122.1,19.9z M115.4,16.6c-0.5,0-0.8,0-1.2,0v-6.3c0.4,0,0.6,0,1,0c3.1,0,3.9,1.3,3.9,3.2
				C119,15.8,117.6,16.6,115.4,16.6z M122.1,19.9l-1.6-1.5c-0.9-0.9-1.5-1.3-2.3-1.9c1.6-0.5,2.6-1.7,2.6-3.2c0-2-1.6-3.5-5.3-3.5
				c-1.3,0-1.7,0-2.5,0.1c-0.8,0-2,0.1-2.5,0.1v0.4h0.4c1.2,0,1.5,0.4,1.5,1.6v8.3c0,1.3-0.4,1.6-1.6,1.6h-0.3v0.4h5.6v-0.4h-0.5
				c-1.1,0-1.6-0.3-1.6-1.5v-3.3c0.3,0,0.6,0,1,0c0.5,0,0.8,0,1.3,0c1.5,0.9,2.7,2.2,3.4,2.9c1.8,1.7,2.2,2.4,5.7,2.3v-0.4
				C124,21.7,123.2,21.1,122.1,19.9z M115.4,16.6c-0.5,0-0.8,0-1.2,0v-6.3c0.4,0,0.6,0,1,0c3.1,0,3.9,1.3,3.9,3.2
				C119,15.8,117.6,16.6,115.4,16.6z M55.2,9.6c2.1,0,3.6,0.7,4.5,1.1l0.2,2.4h-0.4c-0.6-1.8-2-3-4.2-3c-3.3,0-4.9,2.5-4.9,5.9
				c0,3.6,2.2,6,5.2,6c0.9,0,3.1-0.6,4.5-3h0.4l-0.9,2.3c-1.2,0.6-2.1,1.2-4.5,1.2c-4,0-6.4-2.6-6.4-6.3
				C48.6,12.4,51.1,9.6,55.2,9.6z M74.2,21.8v0.4h-4.9v-0.4c1.5,0,1.7-0.2,1.7-1.3v-4.4h-7.2v4.2l0,0c0,1.2,0.1,1.4,1.7,1.5v0.4
				h-4.9v-0.4c1.5,0,1.5-0.3,1.5-1l0,0v-9.5l0,0c0-0.8-0.1-1-1.5-1V9.9h4.9v0.4c-1.6,0-1.7,0.3-1.7,1.5l0,0v3.7H71v-3.9
				c0-1.1-0.2-1.3-1.7-1.3V9.9h4.9v0.4c-1.5,0-1.6,0.3-1.6,1l0,0v9.5l0,0C72.7,21.6,72.8,21.8,74.2,21.8z M44.3,9.9v0.4
				c1.6,0,1.7,0.3,1.7,1.5v7.9L37.8,10h-3v0.4c0.7,0,1.1,0.2,1.5,0.5v9.7c0,0.7-0.3,1.3-0.9,1.3c-0.5,0-0.8-0.6-1.1-1.2L29.7,10
				h-1.4l-4.2,9.9c-0.8,1.7-0.9,1.9-1.3,1.9c-0.5,0-0.7-0.5-0.8-1.8l-0.6-8.7c0-0.8,0.2-1,1.7-1V9.9h-3.3l-4.3,10l-4.4-10H7.6v0.4
				c1.5,0,1.7,0.3,1.7,1l-0.5,8.4c-0.1,1.8-0.3,2.1-1.7,2.1v0.4h4.1v-0.4c-0.9,0-1.6-0.3-1.6-1.3l0.5-8.9l0,0l4.6,10.5h0.5l4.5-10.5
				l0,0l0.6,8.8c0.1,1-0.8,1.3-1.8,1.3v0.4h7.6v-0.4H26c-1.1,0-1.6-0.2-1.6-0.7c0-0.3,0.3-0.9,0.4-1.2l1.1-2.6H31l1.3,3.1
				c0.1,0.2,0.2,0.5,0.2,0.8c0,0.6-0.4,0.7-1.5,0.7h-0.3v0.4h8v-0.4c-1.7,0-1.7-0.3-1.7-1.7v-8.5l9.2,10.7h0.5v-11
				c0-0.8,0.1-1,1.6-1V9.9H44.3z M26.4,16.5l2.3-5.4l2.2,5.4H26.4z M109.9,12.4l-0.2-2.5h-9.4v0.4c1.6,0,1.7,0.3,1.7,1.5v8.6
				c0,1.2-0.1,1.4-1.7,1.5v0.4h9.8l0.3-2.7H110c-0.5,1.7-0.9,2-2.3,2h-3c-0.7,0-1.1-0.2-1.1-1.1v-4.2h3.3c0.8,0,1.2-0.1,1.3,1.3h0.4
				v-3.3h-0.4c-0.1,1.1-0.4,1.2-1.1,1.2h-3.5v-4.8h4.4c0.7,0,1.2,0.1,1.5,1.7L109.9,12.4L109.9,12.4z"/>
		</g>
	</g>
</g>
<g>
	<path class="st3" d="M3,45.7v6.6H2.2v-6.6H0V45h5.2v0.7H3z"/>
	<path class="st3" d="M9.7,52.3v-3.5c0-0.8-0.2-1.3-1-1.3c-1,0-1.6,1-1.6,2.2v2.6H6.3v-7.9h0.8V47c0,0.4,0,0.8-0.1,1.1l0,0
		c0.3-0.8,1-1.3,1.9-1.3c1.2,0,1.6,0.8,1.6,1.7v3.8H9.7L9.7,52.3z"/>
	<path class="st3" d="M16.2,49.5h-3.6c-0.1,1.6,0.6,2.3,1.8,2.3c0.6,0,1.2-0.1,1.6-0.3l0.1,0.7c-0.5,0.2-1.1,0.3-1.8,0.3
		c-1.6,0-2.5-0.9-2.5-2.8c0-1.6,0.9-2.8,2.4-2.8s2.1,1,2.1,2.2C16.2,49.2,16.2,49.3,16.2,49.5z M14.1,47.5c-0.8,0-1.3,0.6-1.4,1.4
		h2.7C15.4,48,14.9,47.5,14.1,47.5z"/>
	<path class="st3" d="M22.3,52.4c-2.3,0-2.7-1.3-2.7-2.5V45h0.8v4.8c0,1.1,0.3,1.9,1.9,1.9c1.3,0,2-0.6,2-2.1V45h0.8v4.5
		C25.2,51.4,24.2,52.4,22.3,52.4z"/>
	<path class="st3" d="M30.3,52.3v-3.5c0-0.8-0.2-1.3-1-1.3c-1,0-1.6,1-1.6,2.2v2.6h-0.8v-5.4h0.8c0,0.3,0,0.9-0.1,1.2l0,0
		c0.3-0.8,1-1.3,1.9-1.3c1.2,0,1.6,0.8,1.6,1.7v3.8H30.3z"/>
	<path class="st3" d="M33,46c-0.3,0-0.6-0.2-0.6-0.6c0-0.3,0.2-0.6,0.6-0.6c0.3,0,0.6,0.2,0.6,0.6C33.6,45.7,33.3,46,33,46z
		 M32.6,52.3v-5.4h0.8v5.4H32.6z"/>
	<path class="st3" d="M37.2,52.3h-0.8l-2-5.4h0.9l1.3,3.5c0.1,0.3,0.2,0.6,0.3,1l0,0c0.1-0.3,0.2-0.6,0.3-0.9l1.3-3.6h0.9L37.2,52.3
		z"/>
	<path class="st3" d="M43.9,49.5h-3.6c-0.1,1.6,0.6,2.3,1.8,2.3c0.6,0,1.2-0.1,1.6-0.3l0.1,0.7c-0.5,0.2-1.1,0.3-1.8,0.3
		c-1.6,0-2.5-0.9-2.5-2.8c0-1.6,0.9-2.8,2.4-2.8s2.1,1,2.1,2.2C43.9,49.2,43.9,49.3,43.9,49.5z M41.8,47.5c-0.8,0-1.3,0.6-1.4,1.4
		h2.7C43.1,48,42.6,47.5,41.8,47.5z"/>
	<path class="st3" d="M47.8,47.6c-1.2-0.2-1.8,0.7-1.8,2.5v2.2h-0.8v-5.4H46c0,0.4,0,0.9-0.1,1.4l0,0c0.2-0.8,0.8-1.6,1.9-1.5
		C47.8,46.8,47.8,47.6,47.8,47.6z"/>
	<path class="st3" d="M49.7,52.4c-0.4,0-0.8,0-1.1-0.1v-0.7c0.3,0.1,0.8,0.2,1.2,0.2c0.8,0,1.3-0.3,1.3-0.9c0-1.3-2.6-0.5-2.6-2.4
		c0-0.9,0.7-1.6,2.1-1.6c0.3,0,0.7,0.1,1.1,0.1v0.7c-0.4-0.1-0.7-0.2-1.1-0.2c-0.8,0-1.2,0.3-1.2,0.9c0,1.3,2.6,0.6,2.6,2.4
		C51.9,51.7,51.1,52.4,49.7,52.4z"/>
	<path class="st3" d="M53.6,46c-0.3,0-0.6-0.2-0.6-0.6c0-0.3,0.2-0.6,0.6-0.6c0.3,0,0.6,0.2,0.6,0.6C54.1,45.7,53.9,46,53.6,46z
		 M53.2,52.3v-5.4H54v5.4H53.2z"/>
	<path class="st3" d="M57.3,52.4c-1.1,0-1.4-0.5-1.4-1.6v-3.2h-1.2V47h1.2v-1.8l0.8-0.2v2h1.6v0.6h-1.6v2.9c0,1,0.2,1.2,0.8,1.2
		c0.3,0,0.6,0,0.8-0.1v0.7C58.1,52.4,57.7,52.4,57.3,52.4z"/>
	<path class="st3" d="M61.3,52.9c-0.6,1.7-1.1,2.2-2.3,2.2c-0.2,0-0.5,0-0.7-0.1l0.1-0.7c0.2,0.1,0.4,0.1,0.7,0.1
		c0.6,0,1-0.3,1.4-1.4l0.2-0.6L58.6,47h0.9l1.1,3.1c0.2,0.5,0.3,0.9,0.4,1.3l0,0c0.1-0.3,0.3-1,0.5-1.6l1-2.7h0.9L61.3,52.9z"/>
	<path class="st3" d="M68.4,52.4c-1.4,0-2.4-0.9-2.4-2.8c0-1.5,1-2.8,2.6-2.8c1.3,0,2.4,0.7,2.4,2.7C71,51.1,70,52.4,68.4,52.4z
		 M68.5,47.5c-0.8,0-1.6,0.6-1.6,2.1c0,1.4,0.6,2.1,1.6,2.1c0.8,0,1.6-0.6,1.6-2.1C70.1,48.3,69.6,47.5,68.5,47.5z"/>
	<path class="st3" d="M75.3,45.1C75,45,74.7,45,74.5,45c-0.8,0-1.2,0.5-1.2,1.5v0.4h1.6v0.6h-1.6v4.7h-0.8v-4.7h-1.2v-0.6h1.2v-0.4
		c0-1.5,0.7-2.2,2-2.2c0.3,0,0.6,0,0.9,0.1L75.3,45.1z"/>
	<path class="st3" d="M85.1,52.3l-0.6-4.5c-0.1-0.9-0.2-1.4-0.2-1.8l0,0c-0.1,0.3-0.2,0.7-0.4,1.2l-1.7,5.1h-0.9l-1.6-4.8
		c-0.2-0.5-0.4-1.1-0.5-1.5l0,0c0,0.6-0.1,1.2-0.2,1.9l-0.5,4.4h-1l1-7.3h1.1l1.7,4.9c0.2,0.5,0.3,1,0.4,1.4l0,0
		c0.1-0.5,0.2-0.8,0.4-1.3l1.7-5h1.1l1.1,7.3L85.1,52.3L85.1,52.3z"/>
	<path class="st3" d="M90.2,52.3c0-0.4,0-0.8,0.1-1.1l0,0c-0.3,0.7-1,1.2-1.9,1.2s-1.5-0.5-1.5-1.3c0-1.1,1.2-1.9,3.3-1.9v-0.4
		c0-0.8-0.3-1.3-1.2-1.3c-0.5,0-1.2,0.2-1.6,0.5l-0.1-0.7c0.5-0.2,1.1-0.4,1.9-0.4c1.5,0,1.9,0.7,1.9,1.8v2.1c0,0.5,0,1.1,0,1.6
		L90.2,52.3C90.2,52.4,90.2,52.3,90.2,52.3z M90.2,49.8c-2,0-2.5,0.6-2.5,1.2c0,0.5,0.3,0.8,0.9,0.8C89.6,51.8,90.2,50.8,90.2,49.8
		L90.2,49.8z"/>
	<path class="st3" d="M96,52.3v-3.5c0-0.8-0.2-1.3-1-1.3c-1,0-1.6,1-1.6,2.2v2.6h-0.8v-5.4h0.8c0,0.3,0,0.9-0.1,1.2l0,0
		c0.3-0.8,1-1.3,1.9-1.3c1.2,0,1.6,0.8,1.6,1.7v3.8H96z"/>
	<path class="st3" d="M100.4,52.4c-1.2,0-2.3-0.5-2.3-2.6c0-1.8,0.9-3,2.6-3c0.4,0,0.9,0.1,1.3,0.2l-0.1,0.7
		c-0.4-0.1-0.8-0.2-1.2-0.2c-1.2,0-1.7,0.9-1.7,2.2c0,1.1,0.3,2,1.6,2c0.5,0,1-0.1,1.4-0.3l0.1,0.7
		C101.7,52.2,101.1,52.4,100.4,52.4z"/>
	<path class="st3" d="M106.6,52.3v-3.5c0-0.8-0.2-1.3-1-1.3c-1,0-1.6,1-1.6,2.2v2.6h-0.8v-7.9h0.8V47c0,0.4,0,0.8-0.1,1.1l0,0
		c0.3-0.8,1-1.3,1.9-1.3c1.2,0,1.6,0.8,1.6,1.7v3.8H106.6L106.6,52.3z"/>
	<path class="st3" d="M113.1,49.5h-3.6c-0.1,1.6,0.6,2.3,1.8,2.3c0.6,0,1.2-0.1,1.6-0.3l0.1,0.7c-0.5,0.2-1.1,0.3-1.8,0.3
		c-1.6,0-2.5-0.9-2.5-2.8c0-1.6,0.9-2.8,2.4-2.8s2.1,1,2.1,2.2C113.1,49.2,113.1,49.3,113.1,49.5z M111,47.5c-0.8,0-1.3,0.6-1.4,1.4
		h2.7C112.3,48,111.8,47.5,111,47.5z"/>
	<path class="st3" d="M115.2,52.4c-0.4,0-0.8,0-1.1-0.1v-0.7c0.3,0.1,0.8,0.2,1.2,0.2c0.8,0,1.3-0.3,1.3-0.9c0-1.3-2.6-0.5-2.6-2.4
		c0-0.9,0.7-1.6,2.1-1.6c0.3,0,0.7,0.1,1.1,0.1v0.7c-0.4-0.1-0.7-0.2-1.1-0.2c-0.8,0-1.2,0.3-1.2,0.9c0,1.3,2.6,0.6,2.6,2.4
		C117.5,51.7,116.7,52.4,115.2,52.4z"/>
	<path class="st3" d="M120.5,52.4c-1.1,0-1.4-0.5-1.4-1.6v-3.2h-1.2V47h1.2v-1.8l0.8-0.2v2h1.6v0.6h-1.6v2.9c0,1,0.2,1.2,0.8,1.2
		c0.3,0,0.6,0,0.8-0.1v0.7C121.2,52.4,120.8,52.4,120.5,52.4z"/>
	<path class="st3" d="M126.6,49.5H123c-0.1,1.6,0.6,2.3,1.8,2.3c0.6,0,1.2-0.1,1.6-0.3l0.1,0.7c-0.5,0.2-1.1,0.3-1.8,0.3
		c-1.6,0-2.5-0.9-2.5-2.8c0-1.6,0.9-2.8,2.4-2.8s2.1,1,2.1,2.2C126.6,49.2,126.6,49.3,126.6,49.5z M124.5,47.5
		c-0.8,0-1.3,0.6-1.4,1.4h2.7C125.8,48,125.3,47.5,124.5,47.5z"/>
	<path class="st3" d="M130.4,47.6c-1.2-0.2-1.8,0.7-1.8,2.5v2.2h-0.8v-5.4h0.8c0,0.4,0,0.9-0.1,1.4l0,0c0.2-0.8,0.8-1.6,1.9-1.5
		L130.4,47.6L130.4,47.6z"/>
</g>
</svg>
