<?xml version="1.0" encoding="utf-8"?>
<svg version="1.1" xmlns="http://www.w3.org/2000/svg" xmlns:xlink="http://www.w3.org/1999/xlink" x="0px" y="0px" viewBox="0 0 600.16 600.16" style="enable-background:new 0 0 600.16 600.16;" xml:space="preserve">
<style type="text/css">
	.st0{fill-rule:evenodd;clip-rule:evenodd;fill:#FFFFFF;}
	.st1{fill-rule:evenodd;clip-rule:evenodd;fill:#FFFFFF;stroke:#231F20;stroke-width:1.4176;stroke-miterlimit:2.6131;}
	.st2{fill-rule:evenodd;clip-rule:evenodd;fill:#FFFFFF;stroke:#231F20;stroke-width:2.0952;stroke-miterlimit:2.6131;}
	.st3{fill-rule:evenodd;clip-rule:evenodd;fill:#FFFFFF;stroke:#231F20;stroke-width:2.0944;stroke-miterlimit:2.6131;}
	.st4{fill-rule:evenodd;clip-rule:evenodd;fill:#231F20;}
	.st5{fill-rule:evenodd;clip-rule:evenodd;fill:url(#SVGID_1_);stroke:#231F20;stroke-width:2.0944;stroke-miterlimit:2.6131;}
	.st6{fill-rule:evenodd;clip-rule:evenodd;fill:none;stroke:#231F20;stroke-width:2.0944;stroke-miterlimit:2.6131;}
	.st7{fill-rule:evenodd;clip-rule:evenodd;fill:#FFFFFF;stroke:#231F20;stroke-width:2.6337;stroke-miterlimit:2.6131;}
	.st8{fill-rule:evenodd;clip-rule:evenodd;fill:#E6E7E8;}
	.st9{fill-rule:evenodd;clip-rule:evenodd;fill:#FFFFFF;stroke:#231F20;stroke-width:2.0887;stroke-miterlimit:2.6131;}
	.st10{fill-rule:evenodd;clip-rule:evenodd;fill:#E6E7E8;stroke:#231F20;stroke-width:2.0944;stroke-miterlimit:2.6131;}
	.st11{fill-rule:evenodd;clip-rule:evenodd;fill:#EC1C24;}
	.st12{fill-rule:evenodd;clip-rule:evenodd;fill:#BBBDBF;}
	.st13{fill-rule:evenodd;clip-rule:evenodd;fill:#FFDD00;}
	.st14{fill-rule:evenodd;clip-rule:evenodd;fill:#0054A5;}
	.st15{fill:none;stroke:#0054A5;stroke-width:3.1892;}
	.st16{fill:none;stroke:#0E1317;stroke-width:3.1978;}
</style>
<g>
		<ellipse transform="matrix(0.7071 -0.7071 0.7071 0.7071 -124.296 300.0785)" class="st0" cx="300.08" cy="300.08" rx="238.96" ry="238.96"/>
	<rect x="75.45" y="405.77" class="st1" width="30.62" height="34.85"/>
	<rect x="75.4" y="351.08" class="st2" width="30.76" height="53.64"/>
	<rect x="106.86" y="388.06" class="st3" width="38.39" height="52.45"/>
	<rect x="106.86" y="351.26" class="st3" width="38.39" height="36.8"/>
	<rect x="110.21" y="363.5" class="st4" width="9.23" height="18.52"/>
	<rect x="122.71" y="363.25" class="st4" width="9.48" height="18.95"/>
	<rect x="133.82" y="363.35" class="st4" width="9.92" height="18.95"/>
	<rect x="76.62" y="365.27" class="st4" width="25.93" height="34.98"/>
	<radialGradient id="SVGID_1_" cx="306.8402" cy="187.7909" r="96.8877" gradientUnits="userSpaceOnUse">
		<stop  offset="0" style="stop-color:#FFFFFF"/>
		<stop  offset="1" style="stop-color:#A6A8AB"/>
	</radialGradient>
	<path class="st5" d="M438.2,215.05c0,0-41.5-54.51-131.37-54.51c-89.86,0-131.36,54.51-131.36,54.51H438.2z"/>
	<polygon class="st3" points="306.84,215.05 133.8,215.05 133.8,228.93 306.84,228.93 473.73,228.93 473.73,215.05 	"/>
	<polygon class="st3" points="306.84,228.93 140.74,228.93 140.74,238.19 306.84,238.19 468.99,238.19 468.99,228.93 	"/>
	<polygon class="st3" points="306.84,238.19 152.82,238.19 152.82,261.07 306.84,261.07 463.06,261.07 463.06,238.19 	"/>
	<polygon class="st3" points="306.84,261.07 134.82,261.07 134.82,269.3 306.84,269.3 470.94,269.3 470.94,261.07 	"/>
	<line class="st6" x1="359.9" y1="215.05" x2="401.69" y2="203.41"/>
	<path class="st6" d="M401.69,203.41c0,0-32.12-32.34-94.85-42.87c-62.73,10.53-94.85,42.87-94.85,42.87"/>
	<line class="st6" x1="211.99" y1="203.41" x2="253.78" y2="215.05"/>
	<line class="st6" x1="329.76" y1="215.05" x2="366.05" y2="197.03"/>
	<path class="st6" d="M366.05,197.03c0,0-7.48-17.6-59.21-36.49c-51.73,18.89-59.21,36.49-59.21,36.49"/>
	<line class="st6" x1="247.63" y1="197.03" x2="283.92" y2="215.05"/>
	<line class="st6" x1="312.6" y1="215.05" x2="336.57" y2="195.04"/>
	<path class="st6" d="M336.57,195.04c0,0,0-7.48-29.73-32.13c-29.73,24.65-29.73,32.13-29.73,32.13"/>
	<line class="st6" x1="277.11" y1="195.04" x2="301.09" y2="215.05"/>
	<polygon class="st3" points="306.84,394.17 306.84,394.17 146.75,394.17 146.75,440.23 306.84,440.23 306.84,440.23 456.57,440.23 
		456.57,394.17 	"/>
	<rect x="456.57" y="388.23" class="st3" width="38.39" height="52"/>
	<rect x="498.27" y="407.17" class="st7" width="30.76" height="34.85"/>
	<rect x="494.96" y="351.75" class="st3" width="30.76" height="53.63"/>
	<rect x="456.57" y="351.75" class="st3" width="38.39" height="36.48"/>
	<rect x="456.57" y="363.82" class="st4" width="14.43" height="18.41"/>
	<rect x="473.18" y="363.73" class="st4" width="11.16" height="18.78"/>
	<rect x="486.25" y="363.73" class="st4" width="7.2" height="18.78"/>
	<rect x="499.79" y="366.59" class="st4" width="25.93" height="34.98"/>
	<polygon class="st8" points="306.84,269.3 140.74,269.3 140.74,388.23 306.84,388.23 462.62,388.23 462.62,269.3 	"/>
	<path class="st6" d="M438.2,215.05c0,0-47.51-22.14-131.37-22.14c-83.85,0-131.36,22.14-131.36,22.14"/>
	<rect x="157.74" y="238.19" class="st4" width="18.94" height="15.43"/>
	<rect x="181.01" y="238.19" class="st4" width="18.94" height="15.43"/>
	<rect x="204.28" y="238.19" class="st4" width="18.94" height="15.43"/>
	<rect x="227.55" y="238.19" class="st4" width="18.94" height="15.43"/>
	<rect x="250.83" y="238.19" class="st4" width="18.94" height="15.43"/>
	<rect x="274.1" y="238.19" class="st4" width="18.94" height="15.43"/>
	<rect x="437.01" y="238.19" class="st4" width="18.93" height="15.43"/>
	<rect x="413.73" y="238.19" class="st4" width="18.94" height="15.43"/>
	<rect x="390.46" y="238.19" class="st4" width="18.94" height="15.43"/>
	<rect x="367.19" y="238.19" class="st4" width="18.94" height="15.43"/>
	<rect x="343.92" y="238.19" class="st4" width="18.94" height="15.43"/>
	<rect x="320.64" y="238.19" class="st4" width="18.94" height="15.43"/>
	<polygon class="st4" points="306.84,238.19 297.37,238.19 297.37,253.61 306.84,253.61 316.31,253.61 316.31,238.19 	"/>
	<polygon class="st3" points="306.84,295.5 143.22,295.5 143.22,302.4 306.84,302.4 460.56,302.4 460.56,295.5 	"/>
	<polygon class="st3" points="306.84,306.62 143.22,306.62 143.22,314.55 306.84,314.55 460.56,314.55 460.56,306.62 	"/>
	<path class="st4" d="M360.34,215.05c0,0-33.28-2.41-53.5-2.41c-20.21,0-53.5,2.41-53.5,2.41H360.34z"/>
	<polygon class="st3" points="306.84,330.64 134.82,330.64 134.82,338.86 306.84,338.86 470.94,338.86 470.94,330.64 	"/>
	<polygon class="st9" points="306.36,373.07 134.82,373.07 134.82,381.3 306.36,381.3 470.01,381.3 470.01,373.07 	"/>
	<rect x="140.74" y="268.33" class="st3" width="5.28" height="118.66"/>
	<rect x="152.92" y="268.33" class="st3" width="5.28" height="118.66"/>
	<rect x="165.1" y="268.33" class="st3" width="5.27" height="118.66"/>
	<rect x="177.28" y="268.33" class="st3" width="5.28" height="118.66"/>
	<rect x="189.46" y="268.33" class="st3" width="5.27" height="118.66"/>
	<rect x="201.64" y="268.33" class="st3" width="5.28" height="118.66"/>
	<rect x="213.82" y="268.33" class="st3" width="5.28" height="118.66"/>
	<rect x="226.01" y="268.33" class="st3" width="5.27" height="118.66"/>
	<rect x="238.19" y="268.33" class="st3" width="5.28" height="118.66"/>
	<rect x="250.37" y="268.33" class="st3" width="5.28" height="118.66"/>
	<rect x="262.55" y="268.33" class="st3" width="5.27" height="118.66"/>
	<rect x="274.73" y="268.33" class="st3" width="5.27" height="118.66"/>
	<rect x="286.91" y="268.33" class="st3" width="5.27" height="118.66"/>
	<rect x="299.09" y="268.33" class="st3" width="5.27" height="118.66"/>
	<rect x="311.27" y="268.33" class="st3" width="5.27" height="118.66"/>
	<rect x="323.45" y="268.33" class="st3" width="5.28" height="118.66"/>
	<rect x="335.63" y="268.33" class="st3" width="5.28" height="118.66"/>
	<rect x="347.82" y="268.33" class="st3" width="5.27" height="118.66"/>
	<rect x="360" y="268.33" class="st3" width="5.27" height="118.66"/>
	<rect x="372.18" y="268.33" class="st3" width="5.28" height="118.66"/>
	<rect x="384.36" y="268.33" class="st3" width="5.27" height="118.66"/>
	<rect x="396.54" y="268.33" class="st3" width="5.28" height="118.66"/>
	<rect x="408.72" y="268.33" class="st3" width="5.28" height="118.66"/>
	<rect x="420.9" y="268.33" class="st3" width="5.27" height="118.66"/>
	<rect x="433.08" y="268.33" class="st3" width="5.28" height="118.66"/>
	<rect x="445.26" y="268.33" class="st3" width="5.28" height="118.66"/>
	<rect x="457.45" y="268.33" class="st3" width="5.27" height="118.66"/>
	<rect x="182.27" y="346.79" class="st3" width="80.48" height="40.4"/>
	<rect x="189.25" y="350.95" class="st10" width="66.34" height="25.05"/>
	<rect x="182.33" y="375.81" class="st3" width="80.33" height="5.4"/>
	<polygon class="st3" points="306.84,386.99 140.74,386.99 140.74,394.17 306.84,394.17 462.72,394.17 462.72,386.99 	"/>
	<rect x="154.37" y="397.76" class="st4" width="9.26" height="26.95"/>
	<rect x="168.76" y="397.76" class="st4" width="9.26" height="26.95"/>
	<rect x="183.15" y="397.76" class="st4" width="9.26" height="26.95"/>
	<rect x="197.54" y="397.76" class="st4" width="9.26" height="26.95"/>
	<rect x="211.93" y="397.76" class="st4" width="9.26" height="26.95"/>
	<rect x="226.32" y="397.76" class="st4" width="9.26" height="26.95"/>
	<rect x="240.7" y="397.76" class="st4" width="9.26" height="26.95"/>
	<rect x="255.09" y="397.76" class="st4" width="9.26" height="26.95"/>
	<rect x="269.48" y="397.76" class="st4" width="9.26" height="26.95"/>
	<rect x="283.87" y="397.76" class="st4" width="9.26" height="26.95"/>
	<rect x="298.26" y="397.76" class="st4" width="9.26" height="26.95"/>
	<rect x="312.65" y="397.76" class="st4" width="9.25" height="26.95"/>
	<rect x="327.03" y="397.76" class="st4" width="9.26" height="26.95"/>
	<rect x="341.42" y="397.76" class="st4" width="9.26" height="26.95"/>
	<rect x="355.81" y="397.76" class="st4" width="9.26" height="26.95"/>
	<rect x="370.2" y="397.76" class="st4" width="9.25" height="26.95"/>
	<rect x="384.59" y="397.76" class="st4" width="9.26" height="26.95"/>
	<rect x="398.97" y="397.76" class="st4" width="9.26" height="26.95"/>
	<rect x="413.36" y="397.76" class="st4" width="9.25" height="26.95"/>
	<rect x="427.75" y="397.76" class="st4" width="9.26" height="26.95"/>
	<rect x="442.14" y="397.76" class="st4" width="9.26" height="26.95"/>
	<path class="st4" d="M306.84,149.74c8.39,0,18.35,10.95,18.35,10.95s-4.99,2.02-18.35,2.02c-13.36,0-18.35-2.02-18.35-2.02
		S298.45,149.74,306.84,149.74z"/>
	<path class="st6" d="M313.96,160.54c0,0-4.05-10.8-7.12-10.8c-3.06,0-7.12,10.8-7.12,10.8"/>
	<path class="st11" d="M600.16,300.08c0-65.21-20.81-125.55-56.13-174.77l-60.29,43.2c26.59,37.05,42.26,82.48,42.26,131.57
		c0,87.57-49.83,163.5-122.69,200.99l33.89,65.99C533.97,517.26,600.16,416.4,600.16,300.08z"/>
	<path class="st12" d="M300.08,525.99c-37.19,0-72.28-8.99-103.23-24.92l-33.89,65.99c41.1,21.15,87.71,33.09,137.12,33.09
		c49.4,0,96.01-11.94,137.11-33.09l-33.89-65.99C372.36,516.99,337.27,525.99,300.08,525.99z"/>
	<path class="st13" d="M300.08,74.17c75.68,0,142.66,37.22,183.65,94.34l60.29-43.2C489.57,49.43,400.6,0,300.08,0
		C199.56,0,110.59,49.43,56.13,125.31l60.29,43.19C157.42,111.38,224.4,74.17,300.08,74.17z"/>
	<path class="st14" d="M74.17,300.08c0-49.09,15.67-94.52,42.26-131.57l-60.29-43.19C20.81,174.53,0,234.87,0,300.08
		C0,416.4,66.19,517.26,162.96,567.06l33.89-65.99C124,463.58,74.17,387.65,74.17,300.08z"/>
	<path class="st0" d="M543.27,162.67l5.47,10.87c2.5,4.97,3.16,9.37,1.97,13.19c-1.21,3.89-4.34,7.08-9.4,9.62
		c-3.3,1.66-6.34,2.62-9.12,2.89v-4.56c1.88-0.3,4.02-1.06,6.42-2.26c3.95-1.99,6.55-4.35,7.78-6.97c1.26-2.69,0.92-5.91-0.98-9.69
		l-3.58-7.1l-9.64,4.85v-5.28L543.27,162.67z M532.2,199.25c-1.82,0.18-3.53,0.06-5.12-0.35c-4.05-1.08-7.41-4.23-10.02-9.42
		l-5.47-10.87l20.61-10.37v5.28l-14.94,7.52l3.53,7.01c1.3,2.57,3.3,4.57,6.08,6.01c1.46,0.76,3.24,0.97,5.33,0.63V199.25z"/>
	
		<rect x="525.97" y="203.33" transform="matrix(0.9327 -0.3607 0.3607 0.9327 -37.589 209.9941)" class="st0" width="35.48" height="4.72"/>
	<polygon class="st0" points="565.08,211.6 566.42,216.44 543.71,242.14 571.45,234.53 572.65,238.84 538.47,248.34 537.09,243.37 
		559.55,217.88 532.1,225.41 530.9,221.11 	"/>
	<path class="st0" d="M577.25,265.77l0.97,12.83c0.18,2.33,0.27,4.22,0.23,5.71c-0.04,1.5-0.34,2.82-0.9,4
		c-0.61,1.19-1.48,2.16-2.67,2.99c-1.18,0.84-2.64,1.34-4.32,1.47c-1.83,0.14-3.5-0.19-4.91-1.03c-1.46-0.84-2.6-2.05-3.41-3.63
		c-0.27,1.83-0.91,3.35-1.94,4.53v-20.88l2.09-0.16l0.71,9.41c0.2,2.63,0.78,4.48,1.82,5.59c1.04,1.17,2.51,1.65,4.4,1.51
		c2.23-0.17,3.67-0.92,4.31-2.32c0.64-1.39,0.9-3.25,0.72-5.63l-0.71-9.41l-11.25,0.85l-2.09,0.16v-4.73L577.25,265.77z
		 M560.3,292.66c-0.22,0.25-0.45,0.48-0.7,0.7c-1.45,1.26-3.24,1.99-5.47,2.15c-2.77,0.21-5.22-0.55-7.35-2.29
		c-2.17-1.78-3.36-4.33-3.62-7.7l-1.29-17.09l18.42-1.39v4.73l-14.1,1.06l12.23-0.92l0.81,10.75c0.17,2.28-0.13,4.14-0.97,5.65
		c-0.78,1.5-2.22,2.31-4.35,2.47c-1.98,0.15-3.56-0.33-4.79-1.43c-1.23-1.1-1.9-2.7-2.05-4.73l-0.89-11.79l14.1-1.06V292.66z"/>
	<path class="st0" d="M554.98,330.58c-4.46-0.28-7.76-1.68-9.94-4.26c-2.18-2.58-3.11-6.07-2.83-10.53
		c0.29-4.66,1.66-8.16,4.05-10.55c2.39-2.39,5.89-3.41,10.5-3.13l22.61,1.42l-0.29,4.71l-22.61-1.42c-3.13-0.19-5.61,0.5-7.35,2.08
		c-1.74,1.58-2.74,3.96-2.94,7.13c-0.19,2.97,0.51,5.31,2.05,6.99c1.54,1.69,3.92,2.64,7.04,2.83l22.61,1.42l-0.29,4.71
		L554.98,330.58z"/>
	<path class="st0" d="M560.46,365.82c2.49,0.01,4.57-0.72,6.19-2.16c1.63-1.49,2.71-3.49,3.24-6.02c0.82-3.94,0.07-7.14-2.2-9.64
		c-2.26-2.55-5.41-4.23-9.4-5.06c-4.28-0.89-7.99-0.65-11.07,0.74c-3.14,1.43-5.12,4.11-5.94,8.05c-0.63,3.02-0.21,5.64,1.26,7.83
		c1.51,2.24,3.7,3.67,6.67,4.29l-0.97,4.62c-4.29-1.35-7.37-3.62-9.26-6.7c-1.94-3.09-2.43-6.85-1.51-11.23
		c1.09-5.2,3.61-8.79,7.55-10.86c3.93-2.07,8.6-2.52,13.9-1.41c5.3,1.11,9.32,3.47,12.18,7.06c2.85,3.59,3.76,7.99,2.67,13.2
		c-0.78,3.74-2.42,6.75-4.92,8.97c-2.54,2.21-5.64,3.19-9.35,2.97L560.46,365.82z"/>
	<path class="st0" d="M536,401.4c-4.2-1.54-6.96-3.81-8.32-6.9c-1.36-3.09-1.25-6.7,0.28-10.9c1.6-4.39,3.9-7.35,6.87-8.97
		c2.97-1.61,6.62-1.6,10.96-0.02l21.28,7.77l-1.62,4.44l-21.28-7.77c-2.94-1.08-5.52-1.12-7.64-0.09c-2.12,1.02-3.75,3.02-4.84,6.01
		c-1.02,2.8-1.01,5.24-0.02,7.29c0.99,2.05,3.01,3.63,5.95,4.71l21.28,7.77l-1.62,4.44L536,401.4z"/>
	<path class="st0" d="M552.47,419.73l-7.86,14.73c-1.57,2.94-3.55,4.87-5.91,5.8c-0.19,0.07-0.37,0.14-0.56,0.2v-4.9
		c1.21-0.52,2.23-1.58,3.08-3.19l5.53-10.34l-8.61-4.6v-5.35L552.47,419.73z M538.14,440.45c-2.19,0.69-4.46,0.39-6.8-0.86
		c-2.02-1.08-3.49-2.43-4.38-4.03c-0.87-1.65-1.11-3.52-0.65-5.64c-1.24,1.48-2.55,2.24-4,2.31c-1.45,0.07-3.06-0.28-4.8-1.04
		c-1.78-0.78-3.45-1.56-5.07-2.2c-1.8-0.74-3.47-0.89-4.78-0.64l2.48-4.65c0.74-0.22,2.15,0.19,4.15,1.2
		c2.02,0.97,3.42,1.49,4.17,1.78c2.51,0.89,4.35,1.14,5.49,0.68c1.22-0.48,2.17-1.43,2.95-2.87l5.43-10.17l-13.36-7.14l2.22-4.16
		l16.96,9.06v5.35l-2.31-1.23l-4.64,8.68c-1.19,2.24-1.76,4.24-1.65,5.94c0.11,1.69,1.21,3.12,3.35,4.27
		c1.62,0.87,3.15,1.06,4.58,0.7c0.22-0.06,0.44-0.13,0.66-0.22V440.45z"/>
	<polygon class="st0" points="533.94,452.61 519.72,472.56 516.49,470.25 527.96,454.15 518.78,447.6 508.08,462.62 504.84,460.31 
		515.54,445.3 505.55,438.18 493.98,454.4 490.75,452.09 505.05,432.02 	"/>
	<path class="st0" d="M487.95,458.92c3.39-0.53,6.57,0.57,9.6,3.36l-3.03,3.29c-2.08-1.92-4.29-2.6-6.66-2.15
		c-2.41,0.49-4.64,1.81-6.62,3.97c-1.72,1.86-2.8,3.77-3.28,5.69c-0.45,1.96,0.23,3.72,1.94,5.3c1.87,1.71,3.78,1.99,5.84,0.85
		c2.06-1.14,4.66-2.87,7.88-5.11c3.21-2.24,5.87-3.44,7.97-3.53c2.18-0.09,4.07,0.64,5.72,2.15c2.52,2.32,3.58,4.99,3.18,7.99
		c-0.44,3.04-1.83,5.87-4.25,8.51c-2.59,2.82-5.41,4.48-8.44,4.99c-3.04,0.51-5.93-0.46-8.67-2.98l3.03-3.29
		c1.96,1.46,3.92,2.05,5.84,1.72c1.92-0.32,3.74-1.42,5.45-3.28c1.55-1.68,2.46-3.41,2.81-5.11c0.35-1.77-0.32-3.4-1.89-4.84
		c-1.43-1.31-2.88-1.57-4.4-0.87c-1.52,0.7-4.19,2.35-7.98,5.01c-3.83,2.62-6.84,3.91-9.05,3.89c-2.25,0.02-4.29-0.84-6.12-2.52
		c-2.34-2.15-3.36-4.71-3.06-7.61c0.26-2.93,1.41-5.72,3.49-8.34l-0.38-2.37l-0.14,0c-0.05,0.42-0.35,0.89-0.86,1.44
		c-0.77,0.84-1.63,1.33-2.68,1.52c-1.05,0.19-1.97-0.13-2.82-0.9c-1.13-1.04-1.5-2.26-1.17-3.64c0.29-1.42,1.01-2.71,2.09-3.89
		c0.54-0.58,1.08-1.1,1.63-1.47c0.55-0.38,1.27-0.79,2.17-1.25l1,2.13c-0.55,0.23-1.03,0.54-1.41,0.8
		c-0.38,0.26-0.75,0.59-1.12,0.99c-0.57,0.62-1,1.24-1.22,1.84c-0.22,0.61-0.13,1.1,0.27,1.46c0.33,0.3,0.76,0.43,1.24,0.27
		c0.52-0.13,1.04-0.46,1.47-0.94c0.24-0.25,0.4-0.51,0.53-0.72c0.17-0.19,0.33-0.58,0.55-1.04l1.6,0.32l0.61,3.81
		C481.48,461.27,484.57,459.45,487.95,458.92z"/>
	<polygon class="st0" points="480.24,507.83 489.24,500.15 491.82,503.18 470.24,521.59 467.66,518.57 476.65,510.89 456.21,486.93 
		459.8,483.86 	"/>
	
		<rect x="450.09" y="494.53" transform="matrix(0.8122 -0.5834 0.5834 0.8122 -213.8896 360.1956)" class="st0" width="4.72" height="35.47"/>
	<path class="st14" d="M120.95,85.98c1.28-0.34,2.56-0.43,3.84-0.26c3.42,0.46,6.21,1.84,8.37,4.22c2.92,3.22,4.15,6.51,3.73,9.89
		c-0.46,3.42-2.34,6.59-5.64,9.58l-4.99,4.52l7.51,8.29l-8.44,7.65l-4.38-4.84v-18.15l2.66-2.42c1.8-1.63,2.82-2.98,2.95-3.99
		c0.12-1.02-0.23-2.03-1.1-2.99c-1.01-1.11-2.01-1.53-2.94-1.24c-0.48,0.12-1,0.37-1.57,0.73V85.98z M100.52,102.47l14.11-12.79
		c2.12-1.92,4.22-3.15,6.32-3.7v10.98c-0.58,0.37-1.2,0.86-1.88,1.48l-3.76,3.41l5.04,5.56l0.59-0.54v18.15L100.52,102.47z"/>
	<path class="st14" d="M159.08,59.75c1.28,0.01,2.56,0.17,3.85,0.47c4.87,1.18,8.87,4.16,11.94,8.95c3.07,4.8,4.14,9.64,3.19,14.49
		c-0.97,4.92-3.78,8.87-8.54,11.91c-3.42,2.19-6.9,3.26-10.43,3.22V88.6c2.08,0.48,3.91,0.21,5.47-0.79
		c1.61-1.03,2.59-2.58,3.05-4.65c0.43-2.12-0.34-4.76-2.32-7.86c-1.98-3.09-4.03-4.86-6.13-5.35l-0.06-0.01V59.75z M140.12,74.88
		c0.97-4.92,3.78-8.87,8.54-11.91c3.42-2.19,6.91-3.26,10.43-3.22v10.2c-2.08-0.48-3.91-0.21-5.47,0.79
		c-1.61,1.03-2.59,2.58-3.04,4.65c-0.43,2.12,0.34,4.76,2.32,7.85c1.98,3.1,4.03,4.86,6.13,5.36l0.06,0.01V98.8
		c-1.28-0.01-2.56-0.17-3.85-0.47c-4.87-1.18-8.87-4.16-11.93-8.95C140.24,84.57,139.16,79.73,140.12,74.88z"/>
	<polygon class="st14" points="176.43,47.96 186.88,43.44 197.81,68.65 212.81,62.15 216.58,70.84 191.12,81.87 	"/>
	
		<rect x="218.08" y="30.94" transform="matrix(0.9567 -0.2911 0.2911 0.9567 -4.6952 67.2706)" class="st14" width="11.39" height="36.95"/>
	<polygon class="st14" points="246.31,34.4 236.12,36.23 234.45,26.91 266.03,21.24 267.7,30.56 257.51,32.39 262.37,59.44 
		251.16,61.45 	"/>
	<polygon class="st14" points="278.03,20.09 308.61,19.36 308.83,28.83 289.64,29.29 289.75,33.89 307.19,33.48 307.39,42.28 
		289.96,42.69 290.07,47.3 309.83,46.82 310.06,56.29 278.91,57.03 	"/>
	<polygon class="st14" points="322.58,20.04 333.86,21.62 332.09,34.33 342.65,35.8 344.42,23.09 355.7,24.66 350.6,61.26 
		339.32,59.69 341.34,45.18 330.78,43.71 328.76,58.22 317.48,56.64 	"/>
	<polygon class="st14" points="369.58,27.83 380.68,31.37 384.92,53.48 391.03,34.67 401.29,37.95 390.05,73.15 379.5,69.78 
		374.84,47.11 368.6,66.3 358.35,63.03 	"/>
	
		<rect x="392.07" y="56.8" transform="matrix(0.4218 -0.9067 0.9067 0.4218 180.7011 408.3578)" class="st14" width="36.95" height="11.38"/>
	<path class="st14" d="M447.64,77.83c0.7-1.58,0.84-3.08,0.46-4.42c-0.4-1.41-1.24-2.49-2.6-3.35c-2.06-1.3-4.11-1.43-6.08-0.34
		c-2.01,1.06-3.76,2.77-5.28,5.17c-1.52,2.41-2.33,4.77-2.43,6.97c-0.13,2.24,0.88,4.04,2.98,5.37c1.53,0.96,2.94,1.25,4.27,0.79
		c1.37-0.42,2.74-1.33,4.09-2.81l9.46,5.96c-2.13,3.37-5.34,5.57-9.54,6.59c-4.27,1.04-8.6,0.15-12.93-2.58
		c-4.95-3.12-7.84-7.08-8.71-11.91c-0.91-4.86,0.17-9.68,3.18-14.45c3.12-4.95,7.04-7.98,11.77-9.16c4.8-1.2,9.59-0.26,14.4,2.77
		c4.25,2.68,6.87,5.8,7.88,9.43c1.06,3.66,0.53,7.61-1.54,11.87L447.64,77.83z"/>
	<path class="st14" d="M482.37,86.9l8.31,7.4l-14.52,36.55l-2.96-2.64v-17.67l0.06,0.06l5.09-10.71l-5.16,3.03V91.8L482.37,86.9z
		 M473.2,128.21l-5.85-5.21l2.35-4.97l-8.77-7.81l-4.75,2.84l-8.54-7.61L473.2,91.8v11.13l-5.16,3.03l5.16,4.59V128.21z"/>
	<path class="st0" d="M140.81,501.39c2.58-3.65,5.5-5.73,8.84-6.23c3.34-0.51,6.8,0.54,10.45,3.12c3.82,2.69,6.08,5.69,6.86,8.98
		c0.78,3.29-0.18,6.8-2.85,10.58l-13.06,18.51l-3.86-2.73l13.06-18.51c1.8-2.56,2.52-5.03,2.08-7.35c-0.44-2.31-1.94-4.41-4.54-6.24
		c-2.44-1.72-4.79-2.35-7.03-1.92c-2.24,0.43-4.3,1.95-6.1,4.51l-13.06,18.51l-3.86-2.72L140.81,501.39z"/>
	<polygon class="st0" points="118.76,512.53 115.12,509.09 121.3,475.35 101.47,496.19 98.22,493.12 122.58,467.34 126.34,470.89 
		120.25,504.31 139.88,483.68 143.13,486.76 	"/>
	
		<rect x="85.29" y="469.2" transform="matrix(0.7541 -0.6568 0.6568 0.7541 -284.3887 183.6525)" class="st0" width="35.47" height="4.72"/>
	<polygon class="st0" points="101.64,441.22 104.81,445.56 83.52,476.57 80.5,472.44 99.38,446.13 68.44,455.9 65.55,451.92 	"/>
	<polygon class="st0" points="61.8,445.63 49.87,424.23 53.34,422.3 62.97,439.57 72.82,434.08 63.85,417.98 67.32,416.04 
		76.3,432.14 87.01,426.16 77.31,408.76 80.78,406.83 92.78,428.35 	"/>
	<path class="st0" d="M50.93,386.06c1.47,0.5,2.78,1.46,3.9,2.91c-0.33-1.9-0.07-3.4,0.81-4.55c0.88-1.15,2.19-2.16,3.89-2.99
		c1.74-0.86,3.41-1.63,4.96-2.46c1.73-0.91,2.92-2.07,3.57-3.24l1.95,4.89c-0.31,0.71-1.53,1.52-3.59,2.4
		c-2.04,0.92-3.35,1.66-4.05,2.04c-2.3,1.34-3.67,2.59-4.06,3.76c-0.42,1.23-0.31,2.58,0.3,4.1l4.27,10.71l14.08-5.61l1.75,4.38
		l-27.76,11.07v-5.08l8.24-3.29l-3.64-9.14c-0.94-2.36-2.11-4.08-3.47-5.09c-0.35-0.26-0.72-0.45-1.13-0.59V386.06z M45.74,415.54
		l-6.18-15.51c-1.23-3.09-1.42-5.85-0.62-8.26c0.81-2.41,2.58-4.13,5.26-5.2c2.12-0.84,4.11-1.1,5.91-0.75
		c0.28,0.06,0.56,0.14,0.83,0.23v4.23c-1.18-0.4-2.61-0.27-4.3,0.4c-1.71,0.68-2.84,1.72-3.49,3.05c-0.68,1.39-0.59,3.07,0.2,5.05
		l4.34,10.89l3.25-1.29v5.08L45.74,415.54z"/>
	<path class="st0" d="M37.57,357.64c-2.3,0.84-3.87,2.15-4.65,3.93c-0.78,1.79-0.86,3.91-0.25,6.36c0.56,2.22,1.5,3.93,2.73,5.15
		c1.29,1.27,3.01,1.6,5.09,1.08c1.88-0.47,2.89-1.54,3.14-3.19c0.25-1.65,0.33-4.8,0.2-9.42c-0.09-4.64,0.49-7.86,1.71-9.7
		c1.22-1.89,3.06-3.12,5.47-3.73c3.37-0.84,6.27-0.14,8.68,2.12c2.41,2.26,4.07,5.18,4.96,8.74c1.04,4.14,0.89,7.82-0.47,10.98
		c-1.41,3.17-4.1,5.28-8.1,6.29l-1.09-4.34c2.75-0.69,4.53-2.16,5.45-4.39c0.91-2.28,1.03-4.87,0.32-7.71
		c-0.62-2.46-1.62-4.41-2.96-5.86c-1.39-1.44-3.23-1.85-5.5-1.29c-2.46,0.62-3.73,2.07-3.91,4.42c-0.18,2.35-0.16,5.47-0.05,9.39
		c0.11,3.92-0.34,6.8-1.42,8.6c-1.12,1.87-2.77,3.05-4.94,3.6c-3.33,0.83-6.13,0.26-8.42-1.73c-2.3-2.03-3.91-4.76-4.78-8.23
		c-0.93-3.71-0.78-6.98,0.46-9.79c1.24-2.82,3.63-4.71,7.25-5.61L37.57,357.64z"/>
	
		<rect x="24.28" y="338.4" transform="matrix(0.988 -0.1546 0.1546 0.988 -52.1848 10.595)" class="st0" width="35.47" height="4.72"/>
	<polygon class="st0" points="25.99,322.48 26.85,334.27 22.88,334.56 20.84,306.27 24.8,305.98 25.65,317.77 57.07,315.51 
		57.41,320.21 	"/>
	<path class="st0" d="M34.12,279.74l23.55-7.93l-0.25,5.21l-10.85,3.36l-0.71,14.99l10.48,4.48l-0.23,4.86l-21.98-9.82v-4.53
		l7.83,3.32l0.57-12.01l-8.4,2.56V279.74z M21.32,289.18l0.25-5.21l12.55-4.23v4.5l-8.4,2.56l8.4,3.57v4.53L21.32,289.18z"/>
	<polygon class="st0" points="28.63,255.9 26.64,267.56 22.72,266.89 27.49,238.93 31.4,239.59 29.42,251.25 60.47,256.54 
		59.68,261.19 	"/>
	<polygon class="st0" points="29.33,231.74 36.27,208.25 40.08,209.38 34.48,228.34 45.3,231.54 50.52,213.86 54.33,214.99 
		49.11,232.67 60.88,236.14 66.52,217.04 70.33,218.16 63.35,241.8 	"/>
	<path class="st0" d="M57.19,186.18l26.44,1.08l-2.1,4.78l-11.34-0.74l-6.03,13.74l8.18,7.93l-1.95,4.46l-13.2-13.22v-5.93
		l3.93,3.79l4.83-11.01l-8.76-0.62V186.18z M43.48,190.48l2.09-4.78l11.62,0.48v4.27l-8.76-0.62l8.76,8.45v5.93L43.48,190.48z"/>
	<path class="st14" d="M243.97,553.32l-8.26-1.7l1.5-7.3c2.94,0.6,5.55,0.5,7.82-0.25c2.28-0.8,3.7-2.57,4.25-5.26l8.31,1.7
		l-7.23,35.29l-10.55-2.16L243.97,553.32z"/>
	<path class="st14" d="M281.52,542.91c0.46,0.01,0.92,0.02,1.38,0.06c4.7,0.31,8.2,1.48,10.6,3.56c2.4,2.08,3.49,4.49,3.3,7.27
		c-0.13,1.91-0.75,3.48-1.82,4.81c-1.13,1.33-2.58,2.11-4.31,2.36c2,0.39,3.64,1.38,4.89,2.92c1.25,1.54,1.8,3.39,1.65,5.56
		c-0.26,3.87-2.05,6.66-5.37,8.26c-3.05,1.51-6.48,2.21-10.33,2.09v-7.46c1.28,0.01,2.45-0.21,3.52-0.68
		c1.23-0.54,1.87-1.54,1.96-2.93c0.11-1.6-0.33-2.82-1.32-3.61c-0.98-0.84-2.35-1.29-4.06-1.41l-0.11-0.01v-6.08l0.36,0.03
		c1.55,0.1,2.86-0.07,3.93-0.57c1.07-0.5,1.65-1.45,1.74-2.84c0.1-1.55-0.29-2.62-1.24-3.25c-0.94-0.63-2.21-1.03-3.87-1.14
		c-0.32-0.02-0.63-0.03-0.93-0.02V542.91z M272.73,544.57c2.67-1.14,5.57-1.71,8.79-1.66v6.9c-1.13,0.03-2.08,0.25-2.85,0.65
		c-1.02,0.5-1.56,1.56-1.65,3.05c-0.09,1.29,0.31,2.31,1.26,2.94l-1.34,14.64c1.09,0.69,2.42,1.09,4.02,1.2
		c0.19,0.01,0.38,0.02,0.57,0.02v7.46c-0.35-0.01-0.7-0.03-1.06-0.05c-4.49-0.3-8.26-1.43-11.19-3.39
		c-2.93-2.01-4.28-5.01-4.02-9.04c0.18-2.74,0.98-4.6,2.45-5.59c1.47-0.99,3.22-1.6,5.26-1.83c-3.64-1.33-5.33-4.04-5.07-8.01
		C268.13,548.31,269.74,545.88,272.73,544.57L272.73,544.57z M281.52,557.6c-1.29-0.13-2.39-0.52-3.25-1.15l-1.34,14.64
		c-1.04-0.7-1.54-1.76-1.45-3.16c0.11-1.7,0.76-2.85,1.89-3.51c1.11-0.59,2.49-0.86,4.14-0.76V557.6z"/>
	<path class="st14" d="M314.53,558.85l-8.42,0.54l-0.47-7.44c3-0.19,5.49-0.97,7.48-2.29c1.99-1.37,2.89-3.45,2.72-6.19l8.47-0.54
		l2.28,35.95l-10.74,0.68L314.53,558.85z"/>
	<path class="st14" d="M353.26,538.15c2.86-0.18,5.27,0.21,7.28,1.18c2.86,1.37,4.54,3.41,5.09,6.15c0.38,1.88,0.19,3.55-0.49,5.12
		c-0.74,1.57-1.94,2.71-3.54,3.4c2.03-0.15,3.88,0.38,5.48,1.53c1.61,1.15,2.63,2.8,3.06,4.93c0.77,3.81-0.23,6.96-3.02,9.37
		c-2.78,2.46-6.25,4.11-10.46,4.97c-1.17,0.24-2.31,0.4-3.41,0.5v-7.59c0.61-0.01,1.26-0.08,1.94-0.21
		c1.47-0.29,2.73-0.87,3.77-1.71c1.04-0.84,1.39-1.97,1.12-3.34c-0.32-1.57-1.06-2.64-2.22-3.14c-1.17-0.56-2.61-0.63-4.28-0.3
		l-0.33,0.07v-6.23c1.05-0.31,1.93-0.75,2.62-1.33c0.9-0.76,1.21-1.83,0.94-3.2c-0.31-1.52-0.97-2.45-2.05-2.81
		c-0.46-0.15-0.96-0.25-1.51-0.29V538.15z M339.99,542.9c2.59-2.06,5.68-3.47,9.39-4.22c1.38-0.28,2.67-0.46,3.89-0.53v7.07
		c-0.75-0.05-1.59,0.02-2.52,0.21c-1.52,0.3-2.68,0.86-3.48,1.6c-0.85,0.75-1.09,1.91-0.8,3.38c0.26,1.27,0.91,2.14,1.99,2.5
		l2.56,14.48c0.7,0.22,1.45,0.32,2.26,0.32v7.59c-3.05,0.27-5.82-0.01-8.27-0.83c-3.35-1.17-5.45-3.7-6.25-7.66
		c-0.55-2.69-0.26-4.7,0.89-6.04c1.15-1.34,2.68-2.39,4.59-3.15c-3.87-0.33-6.21-2.49-7-6.4
		C336.53,547.72,337.44,544.95,339.99,542.9L339.99,542.9z M353.26,552.85c-0.33,0.1-0.67,0.18-1.03,0.25
		c-1.42,0.28-2.7,0.23-3.78-0.19l2.56,14.48c-1.19-0.4-1.95-1.3-2.23-2.67c-0.34-1.67-0.02-2.95,0.91-3.88
		c0.87-0.82,2.06-1.42,3.58-1.77V552.85z"/>
	<g>
		<path class="st15" d="M228.12,451.04h15.84v31.57c0,6.72,2.98,8.84,8.15,8.84c5.17,0,8.14-2.12,8.14-8.84v-31.57h15.84v32.38
			c0,16.59-7.7,21.63-23.99,21.63c-16.29,0-23.99-5.04-23.99-21.63V451.04z"/>
		<path class="st15" d="M283.03,451.04h32.69c11.24,0,15.39,6.58,15.39,18.2c0,10.01-4.04,17.76-15.28,17.76h-16.97v16.22h-15.84
			V451.04z M298.87,474.28h10.23c3.99,0,5.51-1.61,5.51-5.41c0-3.95-1.52-5.55-5.51-5.55h-10.23V474.28z"/>
		<path class="st15" d="M336.09,451.04h36.06c8.21,0,11.86,4.68,11.86,13.01c0,4.61-1.74,8.62-4.78,10.16v0.15
			c5.17,1.75,6.85,8.04,6.85,11.91c0,10.23-3.93,16.95-15.67,16.95h-34.32V451.04z M351.6,470.48h11.96c3.2,0,3.93-1.39,3.93-3.43
			c0-1.9-0.73-3.29-3.93-3.29H351.6V470.48z M351.6,490.5h13.53c3.15,0,4.1-1.75,4.1-4.09c0-2.27-0.96-4.09-4.1-4.09H351.6V490.5z"
			/>
	</g>
	<line class="st16" x1="123.68" y1="440.23" x2="478.14" y2="440.23"/>
</g>
</svg>
