<svg xmlns="http://www.w3.org/2000/svg" xml:space="preserve" id="svg2" x="0" y="0" style="enable-background:new 0 0 635 250" version="1.1" viewBox="0 0 635 250"><style>.st0{fill:#fff}.st4{fill:#3f78be}</style><g id="layer1" transform="translate(-35.967 -122.782)"><g id="g3096" transform="matrix(1.25 0 0 -1.25 482.39 207.624)"><path id="path3098" d="M0 0c-15.515 0-28.053-7.979-34.655-13.246l1.902 10.135h-38.435l-13.539-62.71h40.182l6.863 36.491c3.355 4.268 8.928 9.765 15.411 9.763 10.591-.003 8.298-8.452 7.425-15.123l-5.434-30.157 39.177-.082s4.575 24.037 5.124 26.682C29.516-11.926 23.15 0 0 0" class="st0"/></g><g id="g3100" transform="matrix(1.25 0 0 -1.25 318.615 225.41)"><path id="path3102" d="M0 0c13.975 0 9.608-12.9 9.608-12.9h-24.023S-13.977 0 0 0m45.421-25.353s15.29 39.745-41.052 39.745c-56.341 0-60.709-39.745-60.709-39.745S-63.328-54.26-8.736-54.26c54.594 0 52.412 21.348 52.412 21.348H3.495S.437-41.36-7.862-41.36c-8.3 0-13.539 3.11-11.357 16.007h64.64z" class="st0"/></g><g id="g3104" transform="matrix(1.25 0 0 -1.25 393.173 325.6)"><path id="path3106" d="M0 0c2.271 0 4.157.539 5.653 1.614C7.151 2.69 8.081 4.15 8.439 5.996l.026.132c.385 1.976.03 3.48-1.057 4.512-1.088 1.032-2.789 1.548-5.103 1.548h-5.963L-6.027 0H0zm-14.307 22.805H5.351c2.882 0 5.432-.363 7.652-1.082 2.219-.721 4.024-1.769 5.417-3.146 1.392-1.376 2.341-3.069 2.846-5.077.504-2.011.511-4.283.02-6.816l-.025-.131c-.529-2.709-1.483-5.089-2.865-7.143a19.472 19.472 0 0 0-5.101-5.176c-2.02-1.398-4.31-2.447-6.87-3.143-2.56-.701-5.259-1.05-8.099-1.05h-6.29l-2.547-13.104h-12.712l8.916 45.868z" class="st4"/></g><g id="g3108" transform="matrix(1.25 0 0 -1.25 426.977 310.118)"><path id="path3110" d="M0 0h12.517L11.13-7.144c1.47 2.404 3.219 4.325 5.248 5.767C18.404.065 20.891.72 23.836.589l-2.548-13.106H20.24c-3.276 0-5.975-.961-8.096-2.883-2.121-1.921-3.58-4.937-4.376-9.042L5.627-35.449H-6.889L0 0z" class="st4"/></g><g id="g3112" transform="matrix(1.25 0 0 -1.25 478.562 342.226)"><path id="path3114" d="M0 0c1.137 0 2.202.205 3.199.617a8.841 8.841 0 0 1 2.655 1.69 10.163 10.163 0 0 1 1.96 2.501A9.96 9.96 0 0 1 8.92 7.799l.026.131c.21 1.082.222 2.099.037 3.052-.186.955-.549 1.788-1.087 2.502a6.036 6.036 0 0 1-2.057 1.724c-.833.432-1.797.649-2.888.649a8.31 8.31 0 0 1-3.199-.617 8.848 8.848 0 0 1-2.655-1.69 10.121 10.121 0 0 1-1.96-2.503A9.968 9.968 0 0 1-5.969 8.06l-.025-.13c-.21-1.086-.224-2.105-.038-3.056.185-.953.549-1.787 1.086-2.502A6.021 6.021 0 0 1-2.887.649C-2.055.217-1.092 0 0 0m-2.193-10.614c-2.841 0-5.358.48-7.552 1.44-2.193.961-4.002 2.283-5.421 3.964-1.421 1.682-2.396 3.637-2.922 5.864-.528 2.229-.546 4.61-.054 7.143l.026.133c.493 2.532 1.448 4.923 2.869 7.174a24.172 24.172 0 0 0 5.242 5.897c2.071 1.681 4.406 3.014 7.001 3.996a22.783 22.783 0 0 0 8.15 1.476c2.838 0 5.353-.492 7.542-1.476 2.19-.982 3.998-2.304 5.422-3.964 1.424-1.66 2.402-3.602 2.93-5.831.527-2.228.545-4.609.053-7.142l-.025-.13c-.493-2.535-1.449-4.927-2.869-7.176a24.152 24.152 0 0 0-5.242-5.899c-2.073-1.68-4.408-3.012-7.003-3.996a22.794 22.794 0 0 0-8.147-1.473" class="st4"/></g><g id="g3116" transform="matrix(1.25 0 0 -1.25 518.771 294.64)"><path id="path3118" d="M0 0h13.04l-1.784-9.174H-1.783L0 0zm-11.307-58.514c-1.007 0-1.914.057-2.72.164-.809.11-1.577.208-2.303.295l1.604 8.256c.255-.042.523-.065.808-.065h.819c1.221 0 2.199.305 2.929.917.731.614 1.244 1.681 1.541 3.21l6.483 33.354H10.37L3.785-46.262c-.431-2.226-1.088-4.127-1.964-5.699-.877-1.572-1.945-2.839-3.209-3.801-1.262-.96-2.726-1.659-4.392-2.096-1.665-.436-3.508-.656-5.527-.656" class="st4"/></g><g id="g3120" transform="matrix(1.25 0 0 -1.25 565.24 328.63)"><path id="path3122" d="M0 0c.16 1.965-.19 3.528-1.056 4.686-.868 1.157-2.153 1.737-3.858 1.737-1.658 0-3.125-.58-4.399-1.737C-10.585 3.528-11.59 1.965-12.32 0H0zm-9.29-21.491c-2.796 0-5.266.447-7.405 1.343-2.143.893-3.899 2.137-5.27 3.734-1.372 1.595-2.306 3.526-2.805 5.8-.496 2.271-.478 4.783.057 7.534l.026.133a22.956 22.956 0 0 0 2.718 7.239 23.456 23.456 0 0 0 4.849 5.897 22.573 22.573 0 0 0 6.438 3.964 19.734 19.734 0 0 0 7.487 1.443c3.057 0 5.609-.525 7.657-1.573 2.044-1.049 3.628-2.458 4.747-4.227 1.12-1.771 1.813-3.822 2.08-6.159.266-2.337.144-4.817-.365-7.437l-.242-1.245a14.694 14.694 0 0 0-.32-1.31h-23.72c.097-1.968.719-3.43 1.865-4.391 1.145-.961 2.7-1.441 4.667-1.441 1.484 0 2.906.283 4.262.852 1.354.566 2.788 1.484 4.302 2.751l5.773-5.7a25.246 25.246 0 0 0-7.344-5.242c-2.766-1.311-5.919-1.965-9.457-1.965" class="st4"/></g><g id="g3124" transform="matrix(1.25 0 0 -1.25 602.608 355.493)"><path id="path3126" d="M0 0c-2.664 0-5.037.49-7.116 1.474-2.081.983-3.779 2.304-5.095 3.963-1.314 1.661-2.225 3.615-2.727 5.866-.501 2.249-.509 4.619-.025 7.108l.025.133c.484 2.488 1.414 4.857 2.79 7.107a24.289 24.289 0 0 0 5.046 5.899c1.986 1.679 4.243 3.014 6.772 3.997 2.527.982 5.189 1.474 7.985 1.474 3.67 0 6.586-.72 8.754-2.164 2.166-1.441 3.779-3.362 4.841-5.765l-9.675-6.29c-.645 1.178-1.404 2.096-2.282 2.752-.879.655-2.081.983-3.61.983a7.098 7.098 0 0 1-2.906-.623A8.788 8.788 0 0 1 .252 24.21a10.775 10.775 0 0 1-1.926-2.49 10.026 10.026 0 0 1-1.116-3.046l-.025-.13c-.222-1.139-.253-2.196-.094-3.18.158-.982.472-1.834.945-2.554a4.978 4.978 0 0 1 1.897-1.704c.793-.417 1.713-.625 2.76-.625 1.486 0 2.806.329 3.959.984 1.155.656 2.344 1.552 3.57 2.687l7.15-6.028c-2.138-2.447-4.594-4.412-7.371-5.898C7.223.741 3.89 0 0 0" class="st4"/></g><g id="g3128" transform="matrix(1.25 0 0 -1.25 645.553 355.331)"><path id="path3130" d="M0 0c-3.777 0-6.545.896-8.305 2.687-1.759 1.79-2.227 4.805-1.402 9.042l2.801 14.417H-11.1l1.949 10.025h4.192l1.747 8.975H9.305l-1.747-8.975h8.255l-1.949-10.025H5.609l-2.33-11.992c-.247-1.267-.138-2.175.323-2.72.461-.546 1.259-.819 2.396-.819.83 0 1.659.109 2.488.328a17.22 17.22 0 0 1 2.459.851L9.048 2.03C7.793 1.419 6.408.929 4.895.559 3.383.186 1.749 0 0 0" class="st4"/></g><g id="g3132" transform="matrix(1.25 0 0 -1.25 305.745 178.715)"><path id="path3134" d="M0 0h-63.766l-36.119-27.667L-120.98 0h-51.098l39.936-52.374-79.681-61.035h63.766l39.426 30.199 23.027-30.199h51.098L-76.373-58.5 0 0z" class="st0"/></g><g id="g3148" transform="matrix(1.25 0 0 -1.25 170.94 333.35)"><path id="path3150" d="M0 0c-13.3 0-25.741 3.677-36.371 10.059l-2.306-1.766-.68-.521H-70.789C-53.429-11.721-28.154-24.01.002-24.01s53.43 12.289 70.789 31.782h-38.56A70.426 70.426 0 0 0 0 0" class="st4"/></g><g id="g3156" transform="matrix(1.25 0 0 -1.25 82.484 244.893)"><path id="path3158" d="M0 0c0 15.094 4.741 29.073 12.793 40.561L4.521 51.41l-3.096 4.06h25.427c12.068 9.566 27.317 15.295 43.913 15.295 16.597 0 31.846-5.729 43.914-15.295h32.914c-17.216 23.805-45.202 39.307-76.826 39.307-52.344 0-94.778-42.432-94.778-94.777a94.331 94.331 0 0 1 10.076-42.515L5.573-27.572C1.985-19.1 0-9.782 0 0" class="st4"/></g><g id="g3160" transform="matrix(1.25 0 0 -1.25 275.76 214.817)"><path id="path3162" d="M0 0a56.594 56.594 0 0 0 6.904 3.191 94.749 94.749 0 0 1-2.568 7.454L-15.777-4.761a71.772 71.772 0 0 0 1.504-6.469C-10.559-7.021-5.723-3.127 0 0" class="st4"/></g><g id="g3164" transform="matrix(1.25 0 0 -1.25 252.263 279.648)"><path id="path3166" d="M0 0a70.423 70.423 0 0 0-5.511-10.408L9.724-30.389c4.574 5.872 8.443 12.311 11.548 19.169C12.292-9.184 4.766-5.101 0 0" class="st4"/></g><text class="st0" style="font-size:20px;font-family:Arial" transform="translate(516.499 212.807)">®</text></g></svg>