<?xml version="1.0" encoding="utf-8"?>
<!-- Generator: Adobe Illustrator 26.0.1, SVG Export Plug-In . SVG Version: 6.00 Build 0)  -->
<svg version="1.1" id="Layer_1" xmlns="http://www.w3.org/2000/svg" xmlns:xlink="http://www.w3.org/1999/xlink" x="0px" y="0px"
	 viewBox="0 0 384.1 224.6" style="enable-background:new 0 0 384.1 224.6;" xml:space="preserve">
<style type="text/css">
	.st0{fill:none;stroke:#BBE0F5;stroke-width:0.964;stroke-linejoin:round;stroke-opacity:0.5;stroke-dasharray:4;}
	.st1{fill:url(#SVGID_1_);}
	.st2{fill:none;}
	.st3{font-family:'Arial';font-weight:600;}
	.st4{font-size:15px;}
	.st5{opacity:0.8;enable-background:new;}
	.st6{font-family:'Arial';}
	.st7{font-size:12px;}
	.st8{fill:#549BD2;}
	.st9{font-size:11px;}
	.st10{fill:#029639;}
	.st11{fill:#FFFFFF;}
	.st12{fill:#9A9999;}
</style>
<path class="st0" d="M181.1,2.9v217.9"/>
<path class="st0" d="M219.5,3.3v217.9"/>
<path class="st0" d="M257.8,3.3v217.9"/>
<path class="st0" d="M296.2,3.3v217.9"/>
<path class="st0" d="M334.6,3.3v217.9"/>
<path class="st0" d="M372.9,3.3v65.9"/>
<linearGradient id="SVGID_1_" gradientUnits="userSpaceOnUse" x1="199.6137" y1="66.7363" x2="417.3137" y2="66.7363" gradientTransform="matrix(6.797320e-08 -1 1 1.606773e-08 196.6137 420.6137)">
	<stop  offset="0" style="stop-color:#BE2040"/>
	<stop  offset="0.5" style="stop-color:#F7A41F"/>
	<stop  offset="1" style="stop-color:#61B66F"/>
</linearGradient>
<path class="st1" d="M379.5,12.5H147.3c-2.5,0-4.6-2.1-4.6-4.6v0c0-2.5,2.1-4.6,4.6-4.6h232.2c2.5,0,4.6,2.1,4.6,4.6v0
	C384.1,10.4,382,12.5,379.5,12.5z M330.6,35.7H147.3c-2.5,0-4.6-2.1-4.6-4.6v0c0-2.5,2.1-4.6,4.6-4.6h183.3c2.5,0,4.6,2.1,4.6,4.6v0
	C335.2,33.6,333.1,35.7,330.6,35.7z M294.4,58.9H147.3c-2.5,0-4.6-2.1-4.6-4.6v0c0-2.5,2.1-4.6,4.6-4.6h147.1c2.5,0,4.6,2.1,4.6,4.6
	v0C299,56.8,296.9,58.9,294.4,58.9z M283.3,82h-136c-2.5,0-4.6-2.1-4.6-4.6v0c0-2.5,2.1-4.6,4.6-4.6h136c2.5,0,4.6,2.1,4.6,4.6v0
	C287.9,79.9,285.8,82,283.3,82z M270.9,105.1H147.3c-2.5,0-4.6-2.1-4.6-4.6v0c0-2.5,2.1-4.6,4.6-4.6h123.6c2.5,0,4.6,2.1,4.6,4.6v0
	C275.5,103,273.4,105.1,270.9,105.1z M264.4,128.3H147.2c-2.5,0-4.6-2.1-4.6-4.6v0c0-2.5,2.1-4.6,4.6-4.6h117.2
	c2.5,0,4.6,2.1,4.6,4.6v0C269,126.2,266.9,128.3,264.4,128.3z M224.6,151.5h-77.4c-2.5,0-4.6-2.1-4.6-4.6l0,0c0-2.5,2.1-4.6,4.6-4.6
	h77.4c2.5,0,4.6,2.1,4.6,4.6l0,0C229.2,149.4,227.1,151.5,224.6,151.5z M197.6,174.7h-50.3c-2.5,0-4.6-2.1-4.6-4.6l0,0
	c0-2.5,2.1-4.6,4.6-4.6h50.3c2.5,0,4.6,2.1,4.6,4.6l0,0C202.2,172.6,200.1,174.7,197.6,174.7z M188.3,197.8h-41
	c-2.5,0-4.6-2.1-4.6-4.6v0c0-2.5,2.1-4.6,4.6-4.6h41c2.5,0,4.6,2.1,4.6,4.6v0C192.9,195.7,190.8,197.8,188.3,197.8z M159.7,221
	h-12.4c-2.5,0-4.6-2.1-4.6-4.6v0c0-2.5,2.1-4.6,4.6-4.6h12.4c2.5,0,4.6,2.1,4.6,4.6v0C164.3,218.9,162.2,221,159.7,221z"/>
<rect x="1" class="st2" width="133.5" height="15.8"/>
<text transform="matrix(1 0 0 1 23.9345 13.372)" class="st3 st4">Unikraft (KVM)</text>
<rect y="23.1" class="st2" width="133.5" height="15.8"/>
<text transform="matrix(1 0 0 1 70.3623 35.4213)" class="st5 st6 st7">OSv (KVM)</text>
<rect y="46.3" class="st2" width="133.5" height="15.8"/>
<text transform="matrix(1 0 0 1 55.584 58.5785)" class="st5 st6 st7">Lupine (KVM)</text>
<rect y="69.5" class="st2" width="133.5" height="15.8"/>
<text transform="matrix(1 0 0 1 29.1211 81.7388)" class="st5 st6 st7">Linux (Bare metal)</text>
<rect y="92.6" class="st2" width="133.5" height="15.8"/>
<text transform="matrix(1 0 0 1 18.7583 104.8701)" class="st5 st6 st7">Docker (Bare metal) </text>
<rect y="115.7" class="st2" width="133.5" height="15.8"/>
<text transform="matrix(1 0 0 1 59.0669 127.9987)" class="st5 st6 st7">RUMP (KVM)</text>
<rect y="138.9" class="st2" width="133.5" height="15.8"/>
<text transform="matrix(1 0 0 1 41.0757 151.2111)" class="st5 st6 st7">Linux VM (KVM)</text>
<rect y="162.1" class="st2" width="133.5" height="15.8"/>
<text transform="matrix(1 0 0 1 17.646 174.4095)" class="st5 st6 st7">Lupine (Firecracker)</text>
<rect y="185.3" class="st2" width="133.5" height="15.8"/>
<text transform="matrix(1 0 0 1 3.1362 197.607)" class="st5 st6 st7">Linux VM (Firecracker)</text>
<rect y="208.5" class="st2" width="133.5" height="15.8"/>
<text transform="matrix(1 0 0 1 48.9824 220.8076)" class="st5 st6 st7">Mirage (Solo5)</text>
<rect x="364.6" y="3.9" class="st2" width="15.8" height="217.9"/>
<text transform="matrix(-9.715623e-07 -1 1 -8.580518e-07 376.5555 150.9226)" class="st8 st6 st9">300,000 req/s</text>
<path class="st0" d="M372.9,155.3v65.9"/>
<g>
	<path class="st10" d="M349.6,212.5c0.2,0.3,0.4,0.5,0.7,0.7l13.5,7.8l0,0c0.6,0.3,1.2,0.3,1.8,0l13.5-7.8c0.6-0.3,0.9-0.9,0.9-1.5
		v-15.5l0,0c0-0.6-0.3-1.2-0.9-1.5l-13.5-7.8l0,0c-0.6-0.3-1.2-0.3-1.8,0l0,0l-13.5,7.8c-0.6,0.3-0.9,0.9-0.9,1.5l0,0v15.5
		C349.4,211.9,349.5,212.2,349.6,212.5"/>
	<path class="st11" d="M360.3,209.7c0,1-0.8,1.7-1.7,1.7c-1,0-1.7-0.8-1.7-1.7l0,0v-11.9c0-0.9,0.8-1.7,2-1.7c0.9,0,1.8,0.4,2.4,1.1
		l0.5,0.6l7.2,8.7v-8.6l0,0c0-1,0.8-1.7,1.7-1.7c1,0,1.7,0.8,1.7,1.7l0,0v11.9c0,0.9-0.8,1.7-2,1.7c-0.9,0-1.8-0.4-2.4-1.1l-7.8-9.3
		L360.3,209.7L360.3,209.7z"/>
	<path class="st12" d="M378.3,217.9h0.2v-0.5h0.2c0.1,0,0.2,0,0.2,0c0.1,0.1,0.1,0.2,0.1,0.3v0.1l0,0l0,0l0,0h0.2l0,0c0,0,0,0,0-0.1
		v-0.1v-0.1c0-0.1,0-0.1-0.1-0.2c-0.1-0.1-0.1-0.1-0.2-0.1c0.1,0,0.1,0,0.2-0.1s0.1-0.1,0.1-0.2c0-0.1-0.1-0.3-0.2-0.3
		s-0.2-0.1-0.3,0h-0.4L378.3,217.9L378.3,217.9z M378.9,217.3c-0.1,0-0.1,0-0.2,0h-0.2v-0.5h0.2c0.1,0,0.2,0,0.3,0
		c0.1,0,0.1,0.1,0.1,0.2C379,217.2,379,217.2,378.9,217.3 M379.5,216.5c-0.2-0.2-0.5-0.3-0.8-0.3c-0.6,0-1.1,0.5-1.1,1.1
		s0.5,1.1,1.1,1.1l0,0c0.6,0,1.1-0.5,1.1-1.1C379.9,217,379.7,216.7,379.5,216.5 M379.4,216.6c0.2,0.2,0.3,0.4,0.3,0.7
		c0,0.5-0.4,1-1,1c-0.3,0-0.5-0.1-0.7-0.3s-0.3-0.4-0.3-0.7c0-0.5,0.4-1,1-1C379,216.3,379.2,216.4,379.4,216.6"/>
</g>
</svg>
