<?xml version="1.0" encoding="utf-8"?>
<!-- Generator: Adobe Illustrator 26.0.1, SVG Export Plug-In . SVG Version: 6.00 Build 0)  -->
<svg version="1.1" id="Layer_1" xmlns="http://www.w3.org/2000/svg" xmlns:xlink="http://www.w3.org/1999/xlink" x="0px" y="0px"
	 viewBox="0 0 157.9 102.1" style="enable-background:new 0 0 157.9 102.1;" xml:space="preserve">
<style type="text/css">
	.st0{fill:#FFFFFF;}
	.st1{fill:none;stroke:#000000;stroke-width:0.151;stroke-linecap:square;stroke-linejoin:round;stroke-miterlimit:10;}
	.st2{fill:none;stroke:#000000;stroke-width:0.303;stroke-linecap:square;stroke-miterlimit:10;}
	.st3{fill:none;stroke:#000000;stroke-width:0.151;stroke-linejoin:round;stroke-miterlimit:10;}
	
		.st4{clip-path:url(#SVGID_00000145031304819232839800000017918619303023909007_);fill:none;stroke:#000000;stroke-width:0.151;stroke-linejoin:round;stroke-miterlimit:10;stroke-dasharray:0.303,0.909;}
	.st5{font-family:'Inter';}
	.st6{font-size:4.2414px;}
	
		.st7{clip-path:url(#SVGID_00000116225059261128021010000005305354700328220296_);fill:none;stroke:#000000;stroke-width:0.151;stroke-linejoin:round;stroke-miterlimit:10;stroke-dasharray:0.303,0.909;}
	
		.st8{clip-path:url(#SVGID_00000047028079671856309360000007166964536959947452_);fill:none;stroke:#000000;stroke-width:0.151;stroke-linejoin:round;stroke-miterlimit:10;stroke-dasharray:0.303,0.909;}
	
		.st9{clip-path:url(#SVGID_00000085244618286971031420000014306352591769264008_);fill:none;stroke:#000000;stroke-width:0.151;stroke-linejoin:round;stroke-miterlimit:10;stroke-dasharray:0.303,0.909;}
	.st10{clip-path:url(#SVGID_00000033339780618139122290000003490870288738639238_);fill:#F2F2F2;}
	
		.st11{clip-path:url(#SVGID_00000033339780618139122290000003490870288738639238_);fill:none;stroke:#000000;stroke-width:0.151;stroke-miterlimit:10;}
	.st12{fill:#F2F2F2;}
	.st13{fill:none;stroke:#000000;stroke-width:0.151;stroke-miterlimit:10;}
	.st14{fill:#9DCAEB;}
	.st15{font-size:5.4532px;}
	
		.st16{clip-path:url(#SVGID_00000096035149411011444520000016434761975058986648_);fill:none;stroke:#000000;stroke-width:0.151;stroke-linejoin:round;stroke-miterlimit:10;stroke-dasharray:0.303,0.909;}
	
		.st17{clip-path:url(#SVGID_00000036967047347095655490000016990609730018617737_);fill:none;stroke:#000000;stroke-width:0.151;stroke-linejoin:round;stroke-miterlimit:10;stroke-dasharray:0.303,0.909;}
	
		.st18{clip-path:url(#SVGID_00000111884064347571586250000006217442072416155021_);fill:none;stroke:#000000;stroke-width:0.151;stroke-linejoin:round;stroke-miterlimit:10;stroke-dasharray:0.303,0.909;}
	
		.st19{clip-path:url(#SVGID_00000039851254596689825500000002024057709812104365_);fill:none;stroke:#000000;stroke-width:0.151;stroke-linejoin:round;stroke-miterlimit:10;stroke-dasharray:0.303,0.909;}
	
		.st20{clip-path:url(#SVGID_00000032637480367569481320000007625610196547328925_);fill:none;stroke:#000000;stroke-width:0.151;stroke-linejoin:round;stroke-miterlimit:10;stroke-dasharray:0.303,0.909;}
	
		.st21{clip-path:url(#SVGID_00000004508926508185645810000012408938370420245682_);fill:none;stroke:#000000;stroke-width:0.151;stroke-linejoin:round;stroke-miterlimit:10;stroke-dasharray:0.303,0.909;}
	.st22{clip-path:url(#SVGID_00000125590385371450007960000017924850612556436611_);fill:#F2F2F2;}
	
		.st23{clip-path:url(#SVGID_00000125590385371450007960000017924850612556436611_);fill:none;stroke:#000000;stroke-width:0.151;stroke-miterlimit:10;}
	
		.st24{clip-path:url(#SVGID_00000180346284386955452030000014994894617421281929_);fill:none;stroke:#000000;stroke-width:0.151;stroke-miterlimit:10;}
	
		.st25{clip-path:url(#SVGID_00000123432892132629667010000003689340154204361888_);fill:none;stroke:#000000;stroke-width:0.151;stroke-miterlimit:10;}
	
		.st26{clip-path:url(#SVGID_00000005962237032329952050000017630221987393019066_);fill:none;stroke:#000000;stroke-width:0.151;stroke-miterlimit:10;}
	
		.st27{clip-path:url(#SVGID_00000018926628281314341980000015633529201451934097_);fill:none;stroke:#000000;stroke-width:0.151;stroke-miterlimit:10;}
	
		.st28{clip-path:url(#SVGID_00000075142680558382251390000017847094855605806756_);fill:none;stroke:#000000;stroke-width:0.151;stroke-miterlimit:10;}
</style>
<rect class="st0" width="157.9" height="102.1"/>
<rect x="24.9" y="4.7" class="st0" width="130.9" height="27.8"/>
<line class="st1" x1="73.9" y1="33.1" x2="73.9" y2="4.7"/>
<line class="st2" x1="24.9" y1="32.5" x2="24.9" y2="4.7"/>
<line class="st2" x1="155.7" y1="32.5" x2="155.7" y2="4.7"/>
<line class="st2" x1="24.9" y1="4.7" x2="155.7" y2="4.7"/>
<line x1="33" y1="4.7" x2="33" y2="6"/>
<line class="st3" x1="33" y1="4.7" x2="33" y2="6"/>
<line x1="49.4" y1="4.7" x2="49.4" y2="6"/>
<line class="st3" x1="49.4" y1="4.7" x2="49.4" y2="6"/>
<line x1="65.8" y1="4.7" x2="65.8" y2="6"/>
<line class="st3" x1="65.8" y1="4.7" x2="65.8" y2="6"/>
<line x1="82.1" y1="4.7" x2="82.1" y2="6"/>
<line class="st3" x1="82.1" y1="4.7" x2="82.1" y2="6"/>
<line x1="98.5" y1="4.7" x2="98.5" y2="6"/>
<line class="st3" x1="98.5" y1="4.7" x2="98.5" y2="6"/>
<line x1="114.8" y1="4.7" x2="114.8" y2="6"/>
<line class="st3" x1="114.8" y1="4.7" x2="114.8" y2="6"/>
<line x1="131.2" y1="4.7" x2="131.2" y2="6"/>
<line class="st3" x1="131.2" y1="4.7" x2="131.2" y2="6"/>
<line x1="147.6" y1="4.7" x2="147.6" y2="6"/>
<line class="st3" x1="147.6" y1="4.7" x2="147.6" y2="6"/>
<g>
	<defs>
		<polyline id="SVGID_1_" points="24.9,32.5 155.7,32.5 155.7,4.7 24.9,4.7 24.9,32.5 		"/>
	</defs>
	<clipPath id="SVGID_00000048501735400614046150000010976611351575052988_">
		<use xlink:href="#SVGID_1_"  style="overflow:visible;"/>
	</clipPath>
	
		<line style="clip-path:url(#SVGID_00000048501735400614046150000010976611351575052988_);fill:none;stroke:#000000;stroke-width:0.151;stroke-linejoin:round;stroke-miterlimit:10;stroke-dasharray:0.303,0.909;" x1="24.9" y1="32.5" x2="155.7" y2="32.5"/>
</g>
<line x1="24.9" y1="32.5" x2="26.1" y2="32.5"/>
<line class="st3" x1="24.9" y1="32.5" x2="26.1" y2="32.5"/>
<line x1="155.7" y1="32.5" x2="154.5" y2="32.5"/>
<line class="st3" x1="155.7" y1="32.5" x2="154.5" y2="32.5"/>
<text transform="matrix(1 0 0 1 11.6875 33.6772)" class="st5 st6">20MB</text>
<g>
	<defs>
		<polyline id="SVGID_00000113342459285587405460000006907614391676689835_" points="24.9,32.5 155.7,32.5 155.7,4.7 24.9,4.7 
			24.9,32.5 		"/>
	</defs>
	<clipPath id="SVGID_00000120554481091330357080000009796797988307843981_">
		<use xlink:href="#SVGID_00000113342459285587405460000006907614391676689835_"  style="overflow:visible;"/>
	</clipPath>
	
		<line style="clip-path:url(#SVGID_00000120554481091330357080000009796797988307843981_);fill:none;stroke:#000000;stroke-width:0.151;stroke-linejoin:round;stroke-miterlimit:10;stroke-dasharray:0.303,0.909;" x1="24.9" y1="23.3" x2="155.7" y2="23.3"/>
</g>
<line x1="24.9" y1="23.3" x2="26.1" y2="23.3"/>
<line class="st3" x1="24.9" y1="23.3" x2="26.1" y2="23.3"/>
<line x1="155.7" y1="23.3" x2="154.5" y2="23.3"/>
<line class="st3" x1="155.7" y1="23.3" x2="154.5" y2="23.3"/>
<text transform="matrix(1 0 0 1 11.6875 24.4233)" class="st5 st6">30MB</text>
<g>
	<defs>
		<polyline id="SVGID_00000032646603753558800550000009775668116735146654_" points="24.9,32.5 155.7,32.5 155.7,4.7 24.9,4.7 
			24.9,32.5 		"/>
	</defs>
	<clipPath id="SVGID_00000154396740059980275450000014954864981632808595_">
		<use xlink:href="#SVGID_00000032646603753558800550000009775668116735146654_"  style="overflow:visible;"/>
	</clipPath>
	
		<line style="clip-path:url(#SVGID_00000154396740059980275450000014954864981632808595_);fill:none;stroke:#000000;stroke-width:0.151;stroke-linejoin:round;stroke-miterlimit:10;stroke-dasharray:0.303,0.909;" x1="24.9" y1="14" x2="155.7" y2="14"/>
</g>
<line x1="24.9" y1="14" x2="26.1" y2="14"/>
<line class="st3" x1="24.9" y1="14" x2="26.1" y2="14"/>
<line x1="155.7" y1="14" x2="154.5" y2="14"/>
<line class="st3" x1="155.7" y1="14" x2="154.5" y2="14"/>
<text transform="matrix(1 0 0 1 11.6875 15.1695)" class="st5 st6">40MB</text>
<g>
	<defs>
		<polyline id="SVGID_00000033330304064614935710000013331271494104402082_" points="24.9,32.5 155.7,32.5 155.7,4.7 24.9,4.7 
			24.9,32.5 		"/>
	</defs>
	<clipPath id="SVGID_00000094584293968717516430000015789512468698727610_">
		<use xlink:href="#SVGID_00000033330304064614935710000013331271494104402082_"  style="overflow:visible;"/>
	</clipPath>
	
		<line style="clip-path:url(#SVGID_00000094584293968717516430000015789512468698727610_);fill:none;stroke:#000000;stroke-width:0.151;stroke-linejoin:round;stroke-miterlimit:10;stroke-dasharray:0.303,0.909;" x1="24.9" y1="4.7" x2="155.7" y2="4.7"/>
</g>
<line x1="24.9" y1="4.7" x2="26.1" y2="4.7"/>
<line class="st3" x1="24.9" y1="4.7" x2="26.1" y2="4.7"/>
<line x1="155.7" y1="4.7" x2="154.5" y2="4.7"/>
<line class="st3" x1="155.7" y1="4.7" x2="154.5" y2="4.7"/>
<text transform="matrix(1 0 0 1 11.6875 5.9152)" class="st5 st6">50MB</text>
<g>
	<defs>
		<polyline id="SVGID_00000000924514781097028030000000284166616381606794_" points="24.9,32.5 155.7,32.5 155.7,4.7 24.9,4.7 
			24.9,32.5 		"/>
	</defs>
	<clipPath id="SVGID_00000119802934658316586000000013210935977199384980_">
		<use xlink:href="#SVGID_00000000924514781097028030000000284166616381606794_"  style="overflow:visible;"/>
	</clipPath>
	
		<rect x="29.8" y="26.2" style="clip-path:url(#SVGID_00000119802934658316586000000013210935977199384980_);fill:#F2F2F2;" width="6.5" height="6.3"/>
	
		<rect x="29.8" y="26.2" style="clip-path:url(#SVGID_00000119802934658316586000000013210935977199384980_);fill:none;stroke:#000000;stroke-width:0.151;stroke-miterlimit:10;" width="6.5" height="24.8"/>
	
		<rect x="46.1" y="18.2" style="clip-path:url(#SVGID_00000119802934658316586000000013210935977199384980_);fill:#F2F2F2;" width="6.5" height="14.3"/>
	
		<rect x="46.1" y="18.2" style="clip-path:url(#SVGID_00000119802934658316586000000013210935977199384980_);fill:none;stroke:#000000;stroke-width:0.151;stroke-miterlimit:10;" width="6.5" height="32.8"/>
	
		<rect x="62.5" y="23.4" style="clip-path:url(#SVGID_00000119802934658316586000000013210935977199384980_);fill:#F2F2F2;" width="6.5" height="9.1"/>
	
		<rect x="62.5" y="23.4" style="clip-path:url(#SVGID_00000119802934658316586000000013210935977199384980_);fill:none;stroke:#000000;stroke-width:0.151;stroke-miterlimit:10;" width="6.5" height="27.6"/>
</g>
<rect x="31.2" y="10.3" class="st0" width="3.8" height="15.7"/>
<text transform="matrix(-6.123188e-17 -1 1 -6.123188e-17 34.2179 26.1733)" class="st5 st6">26.8MB</text>
<rect x="47.5" y="2.4" class="st0" width="3.8" height="15.7"/>
<text transform="matrix(-6.123188e-17 -1 1 -6.123188e-17 50.5771 18.1949)" class="st5 st6">35.5MB</text>
<rect x="63.9" y="7.6" class="st0" width="3.8" height="15.7"/>
<text transform="matrix(-6.123188e-17 -1 1 -6.123188e-17 66.9372 23.4011)" class="st5 st6">29.8MB</text>
<rect x="95.7" y="5.2" class="st0" width="59.7" height="7.5"/>
<rect x="97.4" y="7.1" class="st12" width="8.5" height="3"/>
<rect x="97.4" y="7.1" class="st13" width="8.5" height="3"/>
<text transform="matrix(1 0 0 1 109.2258 10.088)" class="st5 st6">Linux</text>
<rect x="124.9" y="7.1" class="st14" width="8.5" height="3"/>
<rect x="124.9" y="7.1" class="st13" width="8.5" height="3"/>
<text transform="matrix(1 0 0 1 136.7705 10.088)" class="st5 st6">Unikraft</text>
<rect x="24.9" y="38.1" class="st0" width="130.9" height="27.8"/>
<line class="st1" x1="73.9" y1="66.4" x2="73.9" y2="38.1"/>
<line class="st2" x1="24.9" y1="65.8" x2="24.9" y2="38.1"/>
<line class="st2" x1="155.7" y1="65.8" x2="155.7" y2="38.1"/>
<line class="st2" x1="24.9" y1="65.8" x2="155.7" y2="65.8"/>
<text transform="matrix(0.7071 -0.7071 0.7071 0.7071 12.3163 93.6184)" class="st5 st15">Alpine Linux</text>
<text transform="matrix(0.7071 -0.7071 0.7071 0.7071 34.5885 87.7036)" class="st5 st15">Raspbian</text>
<text transform="matrix(0.7071 -0.7071 0.7071 0.7071 50.9459 87.7027)" class="st5 st15">Raspbian</text>
<text transform="matrix(0.7071 -0.7071 0.7071 0.7071 48.1885 99.0975)" class="st5 st15">(Specialized)</text>
<text transform="matrix(0.7071 -0.7071 0.7071 0.7071 65.1165 89.8968)" class="st5 st15">helloworld</text>
<text transform="matrix(0.7071 -0.7071 0.7071 0.7071 94.5334 76.8378)" class="st5 st15">Lua</text>
<text transform="matrix(0.7071 -0.7071 0.7071 0.7071 105.2294 82.4974)" class="st5 st15">NGINX</text>
<text transform="matrix(0.7071 -0.7071 0.7071 0.7071 119.4735 84.6111)" class="st5 st15">NNPack</text>
<text transform="matrix(0.7071 -0.7071 0.7071 0.7071 137.8932 82.5485)" class="st5 st15">SQLite</text>
<g>
	<defs>
		<polyline id="SVGID_00000174568912084062687350000015906266760706351239_" points="24.9,65.8 155.7,65.8 155.7,38.1 24.9,38.1 
			24.9,65.8 		"/>
	</defs>
	<clipPath id="SVGID_00000119812595215606446310000017782828537826285440_">
		<use xlink:href="#SVGID_00000174568912084062687350000015906266760706351239_"  style="overflow:visible;"/>
	</clipPath>
	
		<line style="clip-path:url(#SVGID_00000119812595215606446310000017782828537826285440_);fill:none;stroke:#000000;stroke-width:0.151;stroke-linejoin:round;stroke-miterlimit:10;stroke-dasharray:0.303,0.909;" x1="24.9" y1="65.8" x2="155.7" y2="65.8"/>
</g>
<text transform="matrix(1 0 0 1 18.0448 66.9909)" class="st5 st6">0B</text>
<g>
	<defs>
		<polyline id="SVGID_00000174560362714576518050000009936273220460022663_" points="24.9,65.8 155.7,65.8 155.7,38.1 24.9,38.1 
			24.9,65.8 		"/>
	</defs>
	<clipPath id="SVGID_00000105407481834004752950000000782185604296268953_">
		<use xlink:href="#SVGID_00000174560362714576518050000009936273220460022663_"  style="overflow:visible;"/>
	</clipPath>
	
		<line style="clip-path:url(#SVGID_00000105407481834004752950000000782185604296268953_);fill:none;stroke:#000000;stroke-width:0.151;stroke-linejoin:round;stroke-miterlimit:10;stroke-dasharray:0.303,0.909;" x1="24.9" y1="60.3" x2="155.7" y2="60.3"/>
</g>
<text transform="matrix(1 0 0 1 9.8662 61.4387)" class="st5 st6">100KB</text>
<g>
	<defs>
		<polyline id="SVGID_00000141456304270992992250000018079372753515505792_" points="24.9,65.8 155.7,65.8 155.7,38.1 24.9,38.1 
			24.9,65.8 		"/>
	</defs>
	<clipPath id="SVGID_00000173130798611601051600000007072997993251143591_">
		<use xlink:href="#SVGID_00000141456304270992992250000018079372753515505792_"  style="overflow:visible;"/>
	</clipPath>
	
		<line style="clip-path:url(#SVGID_00000173130798611601051600000007072997993251143591_);fill:none;stroke:#000000;stroke-width:0.151;stroke-linejoin:round;stroke-miterlimit:10;stroke-dasharray:0.303,0.909;" x1="24.9" y1="54.7" x2="155.7" y2="54.7"/>
</g>
<text transform="matrix(1 0 0 1 9.8662 55.8865)" class="st5 st6">200KB</text>
<g>
	<defs>
		<polyline id="SVGID_00000155844995936291602920000001008628837154395811_" points="24.9,65.8 155.7,65.8 155.7,38.1 24.9,38.1 
			24.9,65.8 		"/>
	</defs>
	<clipPath id="SVGID_00000059268087825060564890000002211544285014226592_">
		<use xlink:href="#SVGID_00000155844995936291602920000001008628837154395811_"  style="overflow:visible;"/>
	</clipPath>
	
		<line style="clip-path:url(#SVGID_00000059268087825060564890000002211544285014226592_);fill:none;stroke:#000000;stroke-width:0.151;stroke-linejoin:round;stroke-miterlimit:10;stroke-dasharray:0.303,0.909;" x1="24.9" y1="49.2" x2="155.7" y2="49.2"/>
</g>
<text transform="matrix(1 0 0 1 9.8662 50.3343)" class="st5 st6">300KB</text>
<g>
	<defs>
		<polyline id="SVGID_00000082328844998821951410000000999046443766383546_" points="24.9,65.8 155.7,65.8 155.7,38.1 24.9,38.1 
			24.9,65.8 		"/>
	</defs>
	<clipPath id="SVGID_00000050621941680000705610000015456673079900498588_">
		<use xlink:href="#SVGID_00000082328844998821951410000000999046443766383546_"  style="overflow:visible;"/>
	</clipPath>
	
		<line style="clip-path:url(#SVGID_00000050621941680000705610000015456673079900498588_);fill:none;stroke:#000000;stroke-width:0.151;stroke-linejoin:round;stroke-miterlimit:10;stroke-dasharray:0.303,0.909;" x1="24.9" y1="43.6" x2="155.7" y2="43.6"/>
</g>
<text transform="matrix(1 0 0 1 9.8662 44.7816)" class="st5 st6">400KB</text>
<g>
	<defs>
		<polyline id="SVGID_00000020376737494988295470000011616372967422816658_" points="24.9,65.8 155.7,65.8 155.7,38.1 24.9,38.1 
			24.9,65.8 		"/>
	</defs>
	<clipPath id="SVGID_00000106146269160120085660000001449261651283528334_">
		<use xlink:href="#SVGID_00000020376737494988295470000011616372967422816658_"  style="overflow:visible;"/>
	</clipPath>
	
		<line style="clip-path:url(#SVGID_00000106146269160120085660000001449261651283528334_);fill:none;stroke:#000000;stroke-width:0.151;stroke-linejoin:round;stroke-miterlimit:10;stroke-dasharray:0.303,0.909;" x1="24.9" y1="38.1" x2="155.7" y2="38.1"/>
</g>
<text transform="matrix(1 0 0 1 9.8662 39.2294)" class="st5 st6">500KB</text>
<g>
	<defs>
		<polyline id="SVGID_00000100378587663907754370000004366729441493867442_" points="24.9,65.8 155.7,65.8 155.7,38.1 24.9,38.1 
			24.9,65.8 		"/>
	</defs>
	<clipPath id="SVGID_00000042000713922400587600000007264802958539729586_">
		<use xlink:href="#SVGID_00000100378587663907754370000004366729441493867442_"  style="overflow:visible;"/>
	</clipPath>
	
		<rect x="29.8" y="38.1" style="clip-path:url(#SVGID_00000042000713922400587600000007264802958539729586_);fill:#F2F2F2;" width="6.5" height="27.8"/>
	
		<rect x="29.8" y="29.7" style="clip-path:url(#SVGID_00000042000713922400587600000007264802958539729586_);fill:none;stroke:#000000;stroke-width:0.151;stroke-miterlimit:10;" width="6.5" height="36.1"/>
	
		<rect x="46.1" y="38.1" style="clip-path:url(#SVGID_00000042000713922400587600000007264802958539729586_);fill:#F2F2F2;" width="6.5" height="27.8"/>
	
		<rect x="46.1" y="29.5" style="clip-path:url(#SVGID_00000042000713922400587600000007264802958539729586_);fill:none;stroke:#000000;stroke-width:0.151;stroke-miterlimit:10;" width="6.5" height="36.3"/>
	
		<rect x="62.5" y="38.1" style="clip-path:url(#SVGID_00000042000713922400587600000007264802958539729586_);fill:#F2F2F2;" width="6.5" height="27.8"/>
	
		<rect x="62.5" y="27.3" style="clip-path:url(#SVGID_00000042000713922400587600000007264802958539729586_);fill:none;stroke:#000000;stroke-width:0.151;stroke-miterlimit:10;" width="6.5" height="38.5"/>
</g>
<rect x="78.9" y="49.7" class="st14" width="6.5" height="16.1"/>
<g>
	<defs>
		<polyline id="SVGID_00000129925796395764609910000000173100250935084956_" points="24.9,65.8 155.7,65.8 155.7,38.1 24.9,38.1 
			24.9,65.8 		"/>
	</defs>
	<clipPath id="SVGID_00000114073163648670333850000017715424613610594964_">
		<use xlink:href="#SVGID_00000129925796395764609910000000173100250935084956_"  style="overflow:visible;"/>
	</clipPath>
	
		<rect x="78.9" y="49.7" style="clip-path:url(#SVGID_00000114073163648670333850000017715424613610594964_);fill:none;stroke:#000000;stroke-width:0.151;stroke-miterlimit:10;" width="6.5" height="16.1"/>
</g>
<rect x="95.2" y="49.7" class="st14" width="6.5" height="16.1"/>
<g>
	<defs>
		<polyline id="SVGID_00000177470596148611706140000004444876166517955503_" points="24.9,65.8 155.7,65.8 155.7,38.1 24.9,38.1 
			24.9,65.8 		"/>
	</defs>
	<clipPath id="SVGID_00000183231677280280501260000008368658574969741469_">
		<use xlink:href="#SVGID_00000177470596148611706140000004444876166517955503_"  style="overflow:visible;"/>
	</clipPath>
	
		<rect x="95.2" y="49.7" style="clip-path:url(#SVGID_00000183231677280280501260000008368658574969741469_);fill:none;stroke:#000000;stroke-width:0.151;stroke-miterlimit:10;" width="6.5" height="16.1"/>
</g>
<rect x="111.6" y="42.5" class="st14" width="6.5" height="23.3"/>
<g>
	<defs>
		<polyline id="SVGID_00000093873657277324078240000018380088144485408170_" points="24.9,65.8 155.7,65.8 155.7,38.1 24.9,38.1 
			24.9,65.8 		"/>
	</defs>
	<clipPath id="SVGID_00000064318992372408739280000017488263444040652457_">
		<use xlink:href="#SVGID_00000093873657277324078240000018380088144485408170_"  style="overflow:visible;"/>
	</clipPath>
	
		<rect x="111.6" y="42.5" style="clip-path:url(#SVGID_00000064318992372408739280000017488263444040652457_);fill:none;stroke:#000000;stroke-width:0.151;stroke-miterlimit:10;" width="6.5" height="23.3"/>
</g>
<rect x="127.9" y="49.7" class="st14" width="6.5" height="16.1"/>
<g>
	<defs>
		<polyline id="SVGID_00000154388002887792809470000010582952400709718440_" points="24.9,65.8 155.7,65.8 155.7,38.1 24.9,38.1 
			24.9,65.8 		"/>
	</defs>
	<clipPath id="SVGID_00000141417920098603654700000015769579708700062113_">
		<use xlink:href="#SVGID_00000154388002887792809470000010582952400709718440_"  style="overflow:visible;"/>
	</clipPath>
	
		<rect x="127.9" y="49.7" style="clip-path:url(#SVGID_00000141417920098603654700000015769579708700062113_);fill:none;stroke:#000000;stroke-width:0.151;stroke-miterlimit:10;" width="6.5" height="16.1"/>
</g>
<rect x="144.3" y="48.9" class="st14" width="6.5" height="16.9"/>
<g>
	<defs>
		<polyline id="SVGID_00000178898335568318819540000014426336000101819062_" points="24.9,65.8 155.7,65.8 155.7,38.1 24.9,38.1 
			24.9,65.8 		"/>
	</defs>
	<clipPath id="SVGID_00000073702575705366033010000016684504617959701908_">
		<use xlink:href="#SVGID_00000178898335568318819540000014426336000101819062_"  style="overflow:visible;"/>
	</clipPath>
	
		<rect x="144.3" y="48.9" style="clip-path:url(#SVGID_00000073702575705366033010000016684504617959701908_);fill:none;stroke:#000000;stroke-width:0.151;stroke-miterlimit:10;" width="6.5" height="16.9"/>
</g>
<rect x="80.2" y="32.1" class="st0" width="3.8" height="17.5"/>
<text transform="matrix(-6.123188e-17 -1 1 -6.123188e-17 83.2968 49.7215)" class="st5 st6">289.9KB</text>
<rect x="96.6" y="32.1" class="st0" width="3.8" height="17.5"/>
<text transform="matrix(-6.123188e-17 -1 1 -6.123188e-17 99.6559 49.7217)" class="st5 st6">289.9KB</text>
<rect x="113" y="24.9" class="st0" width="3.8" height="17.5"/>
<text transform="matrix(-6.123188e-17 -1 1 -6.123188e-17 116.016 42.5196)" class="st5 st6">419.6KB</text>
<rect x="129.3" y="32.1" class="st0" width="3.8" height="17.5"/>
<text transform="matrix(-6.123188e-17 -1 1 -6.123188e-17 132.3755 49.7209)" class="st5 st6">289.9KB</text>
<rect x="145.7" y="31.2" class="st0" width="3.8" height="17.5"/>
<text transform="matrix(-6.123188e-17 -1 1 -6.123188e-17 148.7346 48.8734)" class="st5 st6">305.2KB</text>
<text transform="matrix(-6.123188e-17 -1 1 -6.123188e-17 6.3236 65.9329)" class="st5 st15">Idle Memory Usage</text>
</svg>
